<?xml version="1.0" encoding="utf-8" standalone="no"?>
<!DOCTYPE svg PUBLIC "-//W3C//DTD SVG 1.1//EN"
  "http://www.w3.org/Graphics/SVG/1.1/DTD/svg11.dtd">
<svg xmlns:xlink="http://www.w3.org/1999/xlink" width="648pt" height="252pt" viewBox="0 0 648 252" xmlns="http://www.w3.org/2000/svg" version="1.1">
 <metadata>
  <rdf:RDF xmlns:dc="http://purl.org/dc/elements/1.1/" xmlns:cc="http://creativecommons.org/ns#" xmlns:rdf="http://www.w3.org/1999/02/22-rdf-syntax-ns#">
   <cc:Work>
    <dc:type rdf:resource="http://purl.org/dc/dcmitype/StillImage"/>
    <dc:date>2023-12-05T09:50:04.148894</dc:date>
    <dc:format>image/svg+xml</dc:format>
    <dc:creator>
     <cc:Agent>
      <dc:title>Matplotlib v3.8.1, https://matplotlib.org/</dc:title>
     </cc:Agent>
    </dc:creator>
   </cc:Work>
  </rdf:RDF>
 </metadata>
 <defs>
  <style type="text/css">*{stroke-linejoin: round; stroke-linecap: butt}</style>
 </defs>
 <g id="figure_1">
  <g id="patch_1">
   <path d="M 0 252 
L 648 252 
L 648 0 
L 0 0 
z
" style="fill: #ffffff"/>
  </g>
  <g id="axes_1">
   <g id="patch_2">
    <path d="M 50.87 210.04 
L 321.75 210.04 
L 321.75 14.76 
L 50.87 14.76 
z
" style="fill: #ffffff"/>
   </g>
   <g id="PolyCollection_1">
    <defs>
     <path id="m928aec4897" d="M 63.182727 -50.836364 
L 63.182727 -50.836364 
L 64.414 -61.528373 
L 65.645273 -71.037415 
L 66.876545 -79.6182 
L 68.107818 -87.309943 
L 69.339091 -94.259167 
L 70.570364 -100.596334 
L 71.801636 -106.460017 
L 73.032909 -111.906625 
L 74.264182 -116.848047 
L 75.495455 -121.351465 
L 76.726727 -125.449737 
L 77.958 -129.251871 
L 79.189273 -132.748538 
L 80.420545 -136.067678 
L 81.651818 -139.33926 
L 82.883091 -142.347566 
L 84.114364 -145.07513 
L 85.345636 -147.683187 
L 86.576909 -150.111961 
L 87.808182 -152.406514 
L 89.039455 -154.660258 
L 90.270727 -156.659504 
L 91.502 -158.571026 
L 92.733273 -160.371662 
L 93.964545 -162.169587 
L 95.195818 -163.920129 
L 96.427091 -165.508192 
L 97.658364 -166.995212 
L 98.889636 -168.387725 
L 100.120909 -169.686645 
L 101.352182 -170.966318 
L 102.583455 -172.109102 
L 103.814727 -173.241231 
L 105.046 -174.326247 
L 106.277273 -175.248808 
L 107.508545 -176.284963 
L 108.739818 -177.205748 
L 109.971091 -178.148824 
L 111.202364 -178.967803 
L 112.433636 -179.800054 
L 113.664909 -180.683846 
L 114.896182 -181.458524 
L 116.127455 -182.134684 
L 117.358727 -182.818492 
L 118.59 -183.438856 
L 119.821273 -183.952634 
L 121.052545 -184.509611 
L 122.283818 -185.129169 
L 123.515091 -185.753288 
L 124.746364 -186.305314 
L 125.977636 -186.81831 
L 127.208909 -187.281365 
L 128.440182 -187.777883 
L 129.671455 -188.311187 
L 130.902727 -188.739036 
L 132.134 -189.197576 
L 133.365273 -189.641592 
L 134.596545 -190.012332 
L 135.827818 -190.37075 
L 137.059091 -190.794355 
L 138.290364 -191.171307 
L 139.521636 -191.496712 
L 140.752909 -191.814584 
L 141.984182 -192.124428 
L 143.215455 -192.401766 
L 144.446727 -192.675991 
L 145.678 -193.019183 
L 146.909273 -193.288665 
L 148.140545 -193.550997 
L 149.371818 -193.849708 
L 150.603091 -194.195155 
L 151.834364 -194.516374 
L 153.065636 -194.765993 
L 154.296909 -195.009699 
L 155.528182 -195.247701 
L 156.759455 -195.480195 
L 157.990727 -195.707372 
L 159.222 -195.929411 
L 160.453273 -196.148618 
L 161.684545 -196.359424 
L 162.915818 -196.570995 
L 164.147091 -196.760079 
L 165.378364 -196.945081 
L 166.609636 -197.126315 
L 167.840909 -197.32124 
L 169.072182 -197.544344 
L 170.303455 -197.726831 
L 171.534727 -197.90561 
L 172.766 -198.080793 
L 173.997273 -198.252487 
L 175.228545 -198.420795 
L 176.459818 -198.585817 
L 177.691091 -198.747647 
L 178.922364 -198.906378 
L 180.153636 -199.0629 
L 181.384909 -199.217518 
L 182.616182 -199.369263 
L 183.847455 -199.55766 
L 185.078727 -199.71606 
L 186.31 -199.855063 
L 187.541273 -199.991565 
L 188.772545 -200.125633 
L 190.003818 -200.257333 
L 191.235091 -200.386726 
L 192.466364 -200.513872 
L 193.697636 -200.638829 
L 194.928909 -200.761654 
L 196.160182 -200.8824 
L 197.391455 -201.00112 
L 198.622727 -201.117864 
L 199.854 -201.232682 
L 201.085273 -201.34562 
L 202.316545 -201.456725 
L 203.547818 -201.56604 
L 204.779091 -201.673989 
L 206.010364 -201.808612 
L 207.241636 -201.941168 
L 208.472909 -202.071705 
L 209.704182 -202.183448 
L 210.935455 -202.269632 
L 212.166727 -202.354486 
L 213.398 -202.438042 
L 214.629273 -202.52033 
L 215.860545 -202.601378 
L 217.091818 -202.681214 
L 218.323091 -202.767926 
L 219.554364 -202.859294 
L 220.785636 -202.949525 
L 222.016909 -203.038603 
L 223.248182 -203.126414 
L 224.479455 -203.212983 
L 225.710727 -203.298336 
L 226.942 -203.379768 
L 228.173273 -203.465097 
L 229.404545 -203.546568 
L 230.635818 -203.62701 
L 231.867091 -203.706526 
L 233.098364 -203.78497 
L 234.329636 -203.862365 
L 235.560909 -203.938731 
L 236.792182 -204.014088 
L 238.023455 -204.088457 
L 239.254727 -204.161856 
L 240.486 -204.234304 
L 241.717273 -204.305821 
L 242.948545 -204.376423 
L 244.179818 -204.446128 
L 245.411091 -204.514953 
L 246.642364 -204.582915 
L 247.873636 -204.65003 
L 249.104909 -204.716313 
L 250.336182 -204.78178 
L 251.567455 -204.846446 
L 252.798727 -204.910325 
L 254.03 -204.973433 
L 255.261273 -205.035781 
L 256.492545 -205.097385 
L 257.723818 -205.158279 
L 258.955091 -205.218602 
L 260.186364 -205.278217 
L 261.417636 -205.337136 
L 262.648909 -205.395373 
L 263.880182 -205.452938 
L 265.111455 -205.509843 
L 266.342727 -205.566099 
L 267.574 -205.621718 
L 268.805273 -205.67671 
L 270.036545 -205.731086 
L 271.267818 -205.784856 
L 272.499091 -205.83803 
L 273.730364 -205.890618 
L 274.961636 -205.942629 
L 276.192909 -205.995594 
L 277.424182 -206.050771 
L 278.655455 -206.105355 
L 279.886727 -206.159357 
L 281.118 -206.212786 
L 282.349273 -206.265651 
L 283.580545 -206.31796 
L 284.811818 -206.369723 
L 286.043091 -206.420947 
L 287.274364 -206.471642 
L 288.505636 -206.521816 
L 289.736909 -206.571476 
L 290.968182 -206.62063 
L 292.199455 -206.669286 
L 293.430727 -206.717452 
L 294.662 -206.765135 
L 295.893273 -206.812341 
L 297.124545 -206.85908 
L 298.355818 -206.905356 
L 299.587091 -206.951177 
L 300.818364 -206.99655 
L 302.049636 -207.041481 
L 303.280909 -207.080393 
L 304.512182 -207.118863 
L 305.743455 -207.15696 
L 306.974727 -207.194692 
L 308.206 -207.232062 
L 308.206 -228.363636 
L 308.206 -228.363636 
L 306.974727 -228.299531 
L 305.743455 -228.234822 
L 304.512182 -228.1695 
L 303.280909 -228.103558 
L 302.049636 -228.036985 
L 300.818364 -227.969773 
L 299.587091 -227.901913 
L 298.355818 -227.833395 
L 297.124545 -227.76421 
L 295.893273 -227.694347 
L 294.662 -227.623797 
L 293.430727 -227.55255 
L 292.199455 -227.480596 
L 290.968182 -227.407922 
L 289.736909 -227.33452 
L 288.505636 -227.260377 
L 287.274364 -227.185483 
L 286.043091 -227.109827 
L 284.811818 -227.033395 
L 283.580545 -226.956008 
L 282.349273 -226.877524 
L 281.118 -226.798224 
L 279.886727 -226.718095 
L 278.655455 -226.637125 
L 277.424182 -226.5553 
L 276.192909 -226.472606 
L 274.961636 -226.389031 
L 273.730364 -226.304558 
L 272.499091 -226.223317 
L 271.267818 -226.15219 
L 270.036545 -226.080275 
L 268.805273 -226.005199 
L 267.574 -225.902942 
L 266.342727 -225.799567 
L 265.111455 -225.695057 
L 263.880182 -225.597828 
L 262.648909 -225.505381 
L 261.417636 -225.411886 
L 260.186364 -225.327203 
L 258.955091 -225.249449 
L 257.723818 -225.170781 
L 256.492545 -225.091184 
L 255.261273 -225.01064 
L 254.03 -224.929059 
L 252.798727 -224.845921 
L 251.567455 -224.761778 
L 250.336182 -224.67661 
L 249.104909 -224.5904 
L 247.873636 -224.503127 
L 246.642364 -224.396254 
L 245.411091 -224.270915 
L 244.179818 -224.144055 
L 242.948545 -224.015646 
L 241.717273 -223.885661 
L 240.486 -223.754069 
L 239.254727 -223.620841 
L 238.023455 -223.485945 
L 236.792182 -223.349352 
L 235.560909 -223.211028 
L 234.329636 -223.074102 
L 233.098364 -222.970937 
L 231.867091 -222.866393 
L 230.635818 -222.74623 
L 229.404545 -222.613284 
L 228.173273 -222.498397 
L 226.942 -222.381939 
L 225.710727 -222.263838 
L 224.479455 -222.143359 
L 223.248182 -222.0212 
L 222.016909 -221.886794 
L 220.785636 -221.737532 
L 219.554364 -221.606002 
L 218.323091 -221.491584 
L 217.091818 -221.375493 
L 215.860545 -221.254457 
L 214.629273 -221.120527 
L 213.398 -220.984158 
L 212.166727 -220.823756 
L 210.935455 -220.64608 
L 209.704182 -220.465799 
L 208.472909 -220.282856 
L 207.241636 -220.097189 
L 206.010364 -219.944006 
L 204.779091 -219.792981 
L 203.547818 -219.639583 
L 202.316545 -219.483756 
L 201.085273 -219.325441 
L 199.854 -219.164579 
L 198.622727 -219.001108 
L 197.391455 -218.834963 
L 196.160182 -218.666078 
L 194.928909 -218.494385 
L 193.697636 -218.319814 
L 192.466364 -218.142291 
L 191.235091 -217.961741 
L 190.003818 -217.778086 
L 188.772545 -217.591246 
L 187.541273 -217.400854 
L 186.31 -217.2059 
L 185.078727 -217.007478 
L 183.847455 -216.791219 
L 182.616182 -216.593628 
L 181.384909 -216.392406 
L 180.153636 -216.182612 
L 178.922364 -215.965005 
L 177.691091 -215.696764 
L 176.459818 -215.485872 
L 175.228545 -215.271036 
L 173.997273 -215.052004 
L 172.766 -214.825805 
L 171.534727 -214.584105 
L 170.303455 -214.338065 
L 169.072182 -214.086165 
L 167.840909 -213.78772 
L 166.609636 -213.471612 
L 165.378364 -213.173068 
L 164.147091 -212.876664 
L 162.915818 -212.620236 
L 161.684545 -212.368896 
L 160.453273 -212.112002 
L 159.222 -211.84937 
L 157.990727 -211.53136 
L 156.759455 -211.185208 
L 155.528182 -210.817654 
L 154.296909 -210.448458 
L 153.065636 -210.070918 
L 151.834364 -209.688718 
L 150.603091 -209.360291 
L 149.371818 -209.014702 
L 148.140545 -208.611936 
L 146.909273 -208.261702 
L 145.678 -207.914466 
L 144.446727 -207.558306 
L 143.215455 -207.192185 
L 141.984182 -206.761133 
L 140.752909 -206.318534 
L 139.521636 -205.877182 
L 138.290364 -205.447948 
L 137.059091 -205.016579 
L 135.827818 -204.606666 
L 134.596545 -204.177815 
L 133.365273 -203.679638 
L 132.134 -203.166747 
L 130.902727 -202.642236 
L 129.671455 -202.169969 
L 128.440182 -201.666698 
L 127.208909 -201.075794 
L 125.977636 -200.54051 
L 124.746364 -200.023586 
L 123.515091 -199.333492 
L 122.283818 -198.659877 
L 121.052545 -197.940601 
L 119.821273 -197.370562 
L 118.59 -196.663382 
L 117.358727 -195.833496 
L 116.127455 -195.148063 
L 114.896182 -194.519626 
L 113.664909 -193.578285 
L 112.433636 -192.840355 
L 111.202364 -192.092701 
L 109.971091 -191.150953 
L 108.739818 -190.220372 
L 107.508545 -189.249883 
L 106.277273 -188.246075 
L 105.046 -187.259815 
L 103.814727 -186.254613 
L 102.583455 -185.266363 
L 101.352182 -184.227037 
L 100.120909 -183.138482 
L 98.889636 -181.99135 
L 97.658364 -180.785027 
L 96.427091 -179.517165 
L 95.195818 -178.19901 
L 93.964545 -176.689554 
L 92.733273 -175.192421 
L 91.502 -173.535953 
L 90.270727 -171.849153 
L 89.039455 -170.13133 
L 87.808182 -168.175584 
L 86.576909 -166.078848 
L 85.345636 -163.77317 
L 84.114364 -161.354319 
L 82.883091 -158.870814 
L 81.651818 -156.239254 
L 80.420545 -153.441161 
L 79.189273 -150.337795 
L 77.958 -146.951855 
L 76.726727 -143.318377 
L 75.495455 -139.307537 
L 74.264182 -134.851262 
L 73.032909 -129.874824 
L 71.801636 -124.268389 
L 70.570364 -117.950872 
L 69.339091 -110.677651 
L 68.107818 -102.312715 
L 66.876545 -92.626298 
L 65.645273 -81.160423 
L 64.414 -67.48431 
L 63.182727 -50.836364 
z
" style="stroke: #ef553b; stroke-opacity: 0.3"/>
    </defs>
    <g clip-path="url(#pff236ab9a1)">
     <use xlink:href="#m928aec4897" x="0" y="252" style="fill: #ef553b; fill-opacity: 0.3; stroke: #ef553b; stroke-opacity: 0.3"/>
    </g>
   </g>
   <g id="matplotlib.axis_1">
    <g id="xtick_1">
     <g id="line2d_1">
      <defs>
       <path id="m2550b86379" d="M 0 0 
L 0 3.5 
" style="stroke: #000000; stroke-width: 0.8"/>
      </defs>
      <g>
       <use xlink:href="#m2550b86379" x="63.182727" y="210.04" style="stroke: #000000; stroke-width: 0.8"/>
      </g>
     </g>
     <g id="text_1">
      <!-- 0 -->
      <g transform="translate(60.001477 224.638438) scale(0.1 -0.1)">
       <defs>
        <path id="DejaVuSans-30" d="M 2034 4250 
Q 1547 4250 1301 3770 
Q 1056 3291 1056 2328 
Q 1056 1369 1301 889 
Q 1547 409 2034 409 
Q 2525 409 2770 889 
Q 3016 1369 3016 2328 
Q 3016 3291 2770 3770 
Q 2525 4250 2034 4250 
z
M 2034 4750 
Q 2819 4750 3233 4129 
Q 3647 3509 3647 2328 
Q 3647 1150 3233 529 
Q 2819 -91 2034 -91 
Q 1250 -91 836 529 
Q 422 1150 422 2328 
Q 422 3509 836 4129 
Q 1250 4750 2034 4750 
z
" transform="scale(0.015625)"/>
       </defs>
       <use xlink:href="#DejaVuSans-30"/>
      </g>
     </g>
    </g>
    <g id="xtick_2">
     <g id="line2d_2">
      <g>
       <use xlink:href="#m2550b86379" x="108.345645" y="210.04" style="stroke: #000000; stroke-width: 0.8"/>
      </g>
     </g>
     <g id="text_2">
      <!-- 50 -->
      <g transform="translate(101.983145 224.638438) scale(0.1 -0.1)">
       <defs>
        <path id="DejaVuSans-35" d="M 691 4666 
L 3169 4666 
L 3169 4134 
L 1269 4134 
L 1269 2991 
Q 1406 3038 1543 3061 
Q 1681 3084 1819 3084 
Q 2600 3084 3056 2656 
Q 3513 2228 3513 1497 
Q 3513 744 3044 326 
Q 2575 -91 1722 -91 
Q 1428 -91 1123 -41 
Q 819 9 494 109 
L 494 744 
Q 775 591 1075 516 
Q 1375 441 1709 441 
Q 2250 441 2565 725 
Q 2881 1009 2881 1497 
Q 2881 1984 2565 2268 
Q 2250 2553 1709 2553 
Q 1456 2553 1204 2497 
Q 953 2441 691 2322 
L 691 4666 
z
" transform="scale(0.015625)"/>
       </defs>
       <use xlink:href="#DejaVuSans-35"/>
       <use xlink:href="#DejaVuSans-30" x="63.623047"/>
      </g>
     </g>
    </g>
    <g id="xtick_3">
     <g id="line2d_3">
      <g>
       <use xlink:href="#m2550b86379" x="153.508563" y="210.04" style="stroke: #000000; stroke-width: 0.8"/>
      </g>
     </g>
     <g id="text_3">
      <!-- 100 -->
      <g transform="translate(143.964813 224.638438) scale(0.1 -0.1)">
       <defs>
        <path id="DejaVuSans-31" d="M 794 531 
L 1825 531 
L 1825 4091 
L 703 3866 
L 703 4441 
L 1819 4666 
L 2450 4666 
L 2450 531 
L 3481 531 
L 3481 0 
L 794 0 
L 794 531 
z
" transform="scale(0.015625)"/>
       </defs>
       <use xlink:href="#DejaVuSans-31"/>
       <use xlink:href="#DejaVuSans-30" x="63.623047"/>
       <use xlink:href="#DejaVuSans-30" x="127.246094"/>
      </g>
     </g>
    </g>
    <g id="xtick_4">
     <g id="line2d_4">
      <g>
       <use xlink:href="#m2550b86379" x="198.671481" y="210.04" style="stroke: #000000; stroke-width: 0.8"/>
      </g>
     </g>
     <g id="text_4">
      <!-- 150 -->
      <g transform="translate(189.127731 224.638438) scale(0.1 -0.1)">
       <use xlink:href="#DejaVuSans-31"/>
       <use xlink:href="#DejaVuSans-35" x="63.623047"/>
       <use xlink:href="#DejaVuSans-30" x="127.246094"/>
      </g>
     </g>
    </g>
    <g id="xtick_5">
     <g id="line2d_5">
      <g>
       <use xlink:href="#m2550b86379" x="243.834399" y="210.04" style="stroke: #000000; stroke-width: 0.8"/>
      </g>
     </g>
     <g id="text_5">
      <!-- 200 -->
      <g transform="translate(234.290649 224.638438) scale(0.1 -0.1)">
       <defs>
        <path id="DejaVuSans-32" d="M 1228 531 
L 3431 531 
L 3431 0 
L 469 0 
L 469 531 
Q 828 903 1448 1529 
Q 2069 2156 2228 2338 
Q 2531 2678 2651 2914 
Q 2772 3150 2772 3378 
Q 2772 3750 2511 3984 
Q 2250 4219 1831 4219 
Q 1534 4219 1204 4116 
Q 875 4013 500 3803 
L 500 4441 
Q 881 4594 1212 4672 
Q 1544 4750 1819 4750 
Q 2544 4750 2975 4387 
Q 3406 4025 3406 3419 
Q 3406 3131 3298 2873 
Q 3191 2616 2906 2266 
Q 2828 2175 2409 1742 
Q 1991 1309 1228 531 
z
" transform="scale(0.015625)"/>
       </defs>
       <use xlink:href="#DejaVuSans-32"/>
       <use xlink:href="#DejaVuSans-30" x="63.623047"/>
       <use xlink:href="#DejaVuSans-30" x="127.246094"/>
      </g>
     </g>
    </g>
    <g id="xtick_6">
     <g id="line2d_6">
      <g>
       <use xlink:href="#m2550b86379" x="288.997317" y="210.04" style="stroke: #000000; stroke-width: 0.8"/>
      </g>
     </g>
     <g id="text_6">
      <!-- 250 -->
      <g transform="translate(279.453567 224.638438) scale(0.1 -0.1)">
       <use xlink:href="#DejaVuSans-32"/>
       <use xlink:href="#DejaVuSans-35" x="63.623047"/>
       <use xlink:href="#DejaVuSans-30" x="127.246094"/>
      </g>
     </g>
    </g>
    <g id="text_7">
     <!-- concentration -->
     <g transform="translate(151.681094 238.316563) scale(0.1 -0.1)">
      <defs>
       <path id="DejaVuSans-63" d="M 3122 3366 
L 3122 2828 
Q 2878 2963 2633 3030 
Q 2388 3097 2138 3097 
Q 1578 3097 1268 2742 
Q 959 2388 959 1747 
Q 959 1106 1268 751 
Q 1578 397 2138 397 
Q 2388 397 2633 464 
Q 2878 531 3122 666 
L 3122 134 
Q 2881 22 2623 -34 
Q 2366 -91 2075 -91 
Q 1284 -91 818 406 
Q 353 903 353 1747 
Q 353 2603 823 3093 
Q 1294 3584 2113 3584 
Q 2378 3584 2631 3529 
Q 2884 3475 3122 3366 
z
" transform="scale(0.015625)"/>
       <path id="DejaVuSans-6f" d="M 1959 3097 
Q 1497 3097 1228 2736 
Q 959 2375 959 1747 
Q 959 1119 1226 758 
Q 1494 397 1959 397 
Q 2419 397 2687 759 
Q 2956 1122 2956 1747 
Q 2956 2369 2687 2733 
Q 2419 3097 1959 3097 
z
M 1959 3584 
Q 2709 3584 3137 3096 
Q 3566 2609 3566 1747 
Q 3566 888 3137 398 
Q 2709 -91 1959 -91 
Q 1206 -91 779 398 
Q 353 888 353 1747 
Q 353 2609 779 3096 
Q 1206 3584 1959 3584 
z
" transform="scale(0.015625)"/>
       <path id="DejaVuSans-6e" d="M 3513 2113 
L 3513 0 
L 2938 0 
L 2938 2094 
Q 2938 2591 2744 2837 
Q 2550 3084 2163 3084 
Q 1697 3084 1428 2787 
Q 1159 2491 1159 1978 
L 1159 0 
L 581 0 
L 581 3500 
L 1159 3500 
L 1159 2956 
Q 1366 3272 1645 3428 
Q 1925 3584 2291 3584 
Q 2894 3584 3203 3211 
Q 3513 2838 3513 2113 
z
" transform="scale(0.015625)"/>
       <path id="DejaVuSans-65" d="M 3597 1894 
L 3597 1613 
L 953 1613 
Q 991 1019 1311 708 
Q 1631 397 2203 397 
Q 2534 397 2845 478 
Q 3156 559 3463 722 
L 3463 178 
Q 3153 47 2828 -22 
Q 2503 -91 2169 -91 
Q 1331 -91 842 396 
Q 353 884 353 1716 
Q 353 2575 817 3079 
Q 1281 3584 2069 3584 
Q 2775 3584 3186 3129 
Q 3597 2675 3597 1894 
z
M 3022 2063 
Q 3016 2534 2758 2815 
Q 2500 3097 2075 3097 
Q 1594 3097 1305 2825 
Q 1016 2553 972 2059 
L 3022 2063 
z
" transform="scale(0.015625)"/>
       <path id="DejaVuSans-74" d="M 1172 4494 
L 1172 3500 
L 2356 3500 
L 2356 3053 
L 1172 3053 
L 1172 1153 
Q 1172 725 1289 603 
Q 1406 481 1766 481 
L 2356 481 
L 2356 0 
L 1766 0 
Q 1100 0 847 248 
Q 594 497 594 1153 
L 594 3053 
L 172 3053 
L 172 3500 
L 594 3500 
L 594 4494 
L 1172 4494 
z
" transform="scale(0.015625)"/>
       <path id="DejaVuSans-72" d="M 2631 2963 
Q 2534 3019 2420 3045 
Q 2306 3072 2169 3072 
Q 1681 3072 1420 2755 
Q 1159 2438 1159 1844 
L 1159 0 
L 581 0 
L 581 3500 
L 1159 3500 
L 1159 2956 
Q 1341 3275 1631 3429 
Q 1922 3584 2338 3584 
Q 2397 3584 2469 3576 
Q 2541 3569 2628 3553 
L 2631 2963 
z
" transform="scale(0.015625)"/>
       <path id="DejaVuSans-61" d="M 2194 1759 
Q 1497 1759 1228 1600 
Q 959 1441 959 1056 
Q 959 750 1161 570 
Q 1363 391 1709 391 
Q 2188 391 2477 730 
Q 2766 1069 2766 1631 
L 2766 1759 
L 2194 1759 
z
M 3341 1997 
L 3341 0 
L 2766 0 
L 2766 531 
Q 2569 213 2275 61 
Q 1981 -91 1556 -91 
Q 1019 -91 701 211 
Q 384 513 384 1019 
Q 384 1609 779 1909 
Q 1175 2209 1959 2209 
L 2766 2209 
L 2766 2266 
Q 2766 2663 2505 2880 
Q 2244 3097 1772 3097 
Q 1472 3097 1187 3025 
Q 903 2953 641 2809 
L 641 3341 
Q 956 3463 1253 3523 
Q 1550 3584 1831 3584 
Q 2591 3584 2966 3190 
Q 3341 2797 3341 1997 
z
" transform="scale(0.015625)"/>
       <path id="DejaVuSans-69" d="M 603 3500 
L 1178 3500 
L 1178 0 
L 603 0 
L 603 3500 
z
M 603 4863 
L 1178 4863 
L 1178 4134 
L 603 4134 
L 603 4863 
z
" transform="scale(0.015625)"/>
      </defs>
      <use xlink:href="#DejaVuSans-63"/>
      <use xlink:href="#DejaVuSans-6f" x="54.980469"/>
      <use xlink:href="#DejaVuSans-6e" x="116.162109"/>
      <use xlink:href="#DejaVuSans-63" x="179.541016"/>
      <use xlink:href="#DejaVuSans-65" x="234.521484"/>
      <use xlink:href="#DejaVuSans-6e" x="296.044922"/>
      <use xlink:href="#DejaVuSans-74" x="359.423828"/>
      <use xlink:href="#DejaVuSans-72" x="398.632812"/>
      <use xlink:href="#DejaVuSans-61" x="439.746094"/>
      <use xlink:href="#DejaVuSans-74" x="501.025391"/>
      <use xlink:href="#DejaVuSans-69" x="540.234375"/>
      <use xlink:href="#DejaVuSans-6f" x="568.017578"/>
      <use xlink:href="#DejaVuSans-6e" x="629.199219"/>
     </g>
    </g>
   </g>
   <g id="matplotlib.axis_2">
    <g id="ytick_1">
     <g id="line2d_7">
      <defs>
       <path id="m4a25eb7367" d="M 0 0 
L -3.5 0 
" style="stroke: #000000; stroke-width: 0.8"/>
      </defs>
      <g>
       <use xlink:href="#m4a25eb7367" x="50.87" y="201.163636" style="stroke: #000000; stroke-width: 0.8"/>
      </g>
     </g>
     <g id="text_8">
      <!-- 0 -->
      <g transform="translate(37.5075 204.962855) scale(0.1 -0.1)">
       <use xlink:href="#DejaVuSans-30"/>
      </g>
     </g>
    </g>
    <g id="ytick_2">
     <g id="line2d_8">
      <g>
       <use xlink:href="#m4a25eb7367" x="50.87" y="177.937783" style="stroke: #000000; stroke-width: 0.8"/>
      </g>
     </g>
     <g id="text_9">
      <!-- 25 -->
      <g transform="translate(31.145 181.737001) scale(0.1 -0.1)">
       <use xlink:href="#DejaVuSans-32"/>
       <use xlink:href="#DejaVuSans-35" x="63.623047"/>
      </g>
     </g>
    </g>
    <g id="ytick_3">
     <g id="line2d_9">
      <g>
       <use xlink:href="#m4a25eb7367" x="50.87" y="154.711929" style="stroke: #000000; stroke-width: 0.8"/>
      </g>
     </g>
     <g id="text_10">
      <!-- 50 -->
      <g transform="translate(31.145 158.511148) scale(0.1 -0.1)">
       <use xlink:href="#DejaVuSans-35"/>
       <use xlink:href="#DejaVuSans-30" x="63.623047"/>
      </g>
     </g>
    </g>
    <g id="ytick_4">
     <g id="line2d_10">
      <g>
       <use xlink:href="#m4a25eb7367" x="50.87" y="131.486075" style="stroke: #000000; stroke-width: 0.8"/>
      </g>
     </g>
     <g id="text_11">
      <!-- 75 -->
      <g transform="translate(31.145 135.285294) scale(0.1 -0.1)">
       <defs>
        <path id="DejaVuSans-37" d="M 525 4666 
L 3525 4666 
L 3525 4397 
L 1831 0 
L 1172 0 
L 2766 4134 
L 525 4134 
L 525 4666 
z
" transform="scale(0.015625)"/>
       </defs>
       <use xlink:href="#DejaVuSans-37"/>
       <use xlink:href="#DejaVuSans-35" x="63.623047"/>
      </g>
     </g>
    </g>
    <g id="ytick_5">
     <g id="line2d_11">
      <g>
       <use xlink:href="#m4a25eb7367" x="50.87" y="108.260222" style="stroke: #000000; stroke-width: 0.8"/>
      </g>
     </g>
     <g id="text_12">
      <!-- 100 -->
      <g transform="translate(24.7825 112.059441) scale(0.1 -0.1)">
       <use xlink:href="#DejaVuSans-31"/>
       <use xlink:href="#DejaVuSans-30" x="63.623047"/>
       <use xlink:href="#DejaVuSans-30" x="127.246094"/>
      </g>
     </g>
    </g>
    <g id="ytick_6">
     <g id="line2d_12">
      <g>
       <use xlink:href="#m4a25eb7367" x="50.87" y="85.034368" style="stroke: #000000; stroke-width: 0.8"/>
      </g>
     </g>
     <g id="text_13">
      <!-- 125 -->
      <g transform="translate(24.7825 88.833587) scale(0.1 -0.1)">
       <use xlink:href="#DejaVuSans-31"/>
       <use xlink:href="#DejaVuSans-32" x="63.623047"/>
       <use xlink:href="#DejaVuSans-35" x="127.246094"/>
      </g>
     </g>
    </g>
    <g id="ytick_7">
     <g id="line2d_13">
      <g>
       <use xlink:href="#m4a25eb7367" x="50.87" y="61.808514" style="stroke: #000000; stroke-width: 0.8"/>
      </g>
     </g>
     <g id="text_14">
      <!-- 150 -->
      <g transform="translate(24.7825 65.607733) scale(0.1 -0.1)">
       <use xlink:href="#DejaVuSans-31"/>
       <use xlink:href="#DejaVuSans-35" x="63.623047"/>
       <use xlink:href="#DejaVuSans-30" x="127.246094"/>
      </g>
     </g>
    </g>
    <g id="ytick_8">
     <g id="line2d_14">
      <g>
       <use xlink:href="#m4a25eb7367" x="50.87" y="38.582661" style="stroke: #000000; stroke-width: 0.8"/>
      </g>
     </g>
     <g id="text_15">
      <!-- 175 -->
      <g transform="translate(24.7825 42.38188) scale(0.1 -0.1)">
       <use xlink:href="#DejaVuSans-31"/>
       <use xlink:href="#DejaVuSans-37" x="63.623047"/>
       <use xlink:href="#DejaVuSans-35" x="127.246094"/>
      </g>
     </g>
    </g>
    <g id="ytick_9">
     <g id="line2d_15">
      <g>
       <use xlink:href="#m4a25eb7367" x="50.87" y="15.356807" style="stroke: #000000; stroke-width: 0.8"/>
      </g>
     </g>
     <g id="text_16">
      <!-- 200 -->
      <g transform="translate(24.7825 19.156026) scale(0.1 -0.1)">
       <use xlink:href="#DejaVuSans-32"/>
       <use xlink:href="#DejaVuSans-30" x="63.623047"/>
       <use xlink:href="#DejaVuSans-30" x="127.246094"/>
      </g>
     </g>
    </g>
    <g id="text_17">
     <!-- flux -->
     <g transform="translate(18.702813 121.677344) rotate(-90) scale(0.1 -0.1)">
      <defs>
       <path id="DejaVuSans-66" d="M 2375 4863 
L 2375 4384 
L 1825 4384 
Q 1516 4384 1395 4259 
Q 1275 4134 1275 3809 
L 1275 3500 
L 2222 3500 
L 2222 3053 
L 1275 3053 
L 1275 0 
L 697 0 
L 697 3053 
L 147 3053 
L 147 3500 
L 697 3500 
L 697 3744 
Q 697 4328 969 4595 
Q 1241 4863 1831 4863 
L 2375 4863 
z
" transform="scale(0.015625)"/>
       <path id="DejaVuSans-6c" d="M 603 4863 
L 1178 4863 
L 1178 0 
L 603 0 
L 603 4863 
z
" transform="scale(0.015625)"/>
       <path id="DejaVuSans-75" d="M 544 1381 
L 544 3500 
L 1119 3500 
L 1119 1403 
Q 1119 906 1312 657 
Q 1506 409 1894 409 
Q 2359 409 2629 706 
Q 2900 1003 2900 1516 
L 2900 3500 
L 3475 3500 
L 3475 0 
L 2900 0 
L 2900 538 
Q 2691 219 2414 64 
Q 2138 -91 1772 -91 
Q 1169 -91 856 284 
Q 544 659 544 1381 
z
M 1991 3584 
L 1991 3584 
z
" transform="scale(0.015625)"/>
       <path id="DejaVuSans-78" d="M 3513 3500 
L 2247 1797 
L 3578 0 
L 2900 0 
L 1881 1375 
L 863 0 
L 184 0 
L 1544 1831 
L 300 3500 
L 978 3500 
L 1906 2253 
L 2834 3500 
L 3513 3500 
z
" transform="scale(0.015625)"/>
      </defs>
      <use xlink:href="#DejaVuSans-66"/>
      <use xlink:href="#DejaVuSans-6c" x="35.205078"/>
      <use xlink:href="#DejaVuSans-75" x="62.988281"/>
      <use xlink:href="#DejaVuSans-78" x="126.367188"/>
     </g>
    </g>
   </g>
   <g id="line2d_16">
    <defs>
     <path id="m3d5a9ee475" d="M 0 2.5 
C 0.663008 2.5 1.29895 2.236584 1.767767 1.767767 
C 2.236584 1.29895 2.5 0.663008 2.5 0 
C 2.5 -0.663008 2.236584 -1.29895 1.767767 -1.767767 
C 1.29895 -2.236584 0.663008 -2.5 0 -2.5 
C -0.663008 -2.5 -1.29895 -2.236584 -1.767767 -1.767767 
C -2.236584 -1.29895 -2.5 -0.663008 -2.5 0 
C -2.5 0.663008 -2.236584 1.29895 -1.767767 1.767767 
C -1.29895 2.236584 -0.663008 2.5 0 2.5 
z
" style="stroke: #23612b"/>
    </defs>
    <g clip-path="url(#pff236ab9a1)">
     <use xlink:href="#m3d5a9ee475" x="182.166459" y="61.610252" style="fill: #4fa15a; stroke: #23612b"/>
     <use xlink:href="#m3d5a9ee475" x="179.14003" y="39.970064" style="fill: #4fa15a; stroke: #23612b"/>
     <use xlink:href="#m3d5a9ee475" x="190.508248" y="52.029123" style="fill: #4fa15a; stroke: #23612b"/>
     <use xlink:href="#m3d5a9ee475" x="63.182727" y="197.721453" style="fill: #4fa15a; stroke: #23612b"/>
     <use xlink:href="#m3d5a9ee475" x="63.182727" y="197.10816" style="fill: #4fa15a; stroke: #23612b"/>
     <use xlink:href="#m3d5a9ee475" x="63.182727" y="197.760273" style="fill: #4fa15a; stroke: #23612b"/>
     <use xlink:href="#m3d5a9ee475" x="307.432044" y="32.832019" style="fill: #4fa15a; stroke: #23612b"/>
     <use xlink:href="#m3d5a9ee475" x="302.947007" y="44.193338" style="fill: #4fa15a; stroke: #23612b"/>
     <use xlink:href="#m3d5a9ee475" x="309.437273" y="32.209581" style="fill: #4fa15a; stroke: #23612b"/>
     <use xlink:href="#m3d5a9ee475" x="108.381372" y="66.421904" style="fill: #4fa15a; stroke: #23612b"/>
     <use xlink:href="#m3d5a9ee475" x="107.487813" y="37.600396" style="fill: #4fa15a; stroke: #23612b"/>
     <use xlink:href="#m3d5a9ee475" x="106.173461" y="37.258224" style="fill: #4fa15a; stroke: #23612b"/>
     <use xlink:href="#m3d5a9ee475" x="90.772046" y="72.22705" style="fill: #4fa15a; stroke: #23612b"/>
     <use xlink:href="#m3d5a9ee475" x="90.658566" y="76.800304" style="fill: #4fa15a; stroke: #23612b"/>
     <use xlink:href="#m3d5a9ee475" x="90.800826" y="85.24194" style="fill: #4fa15a; stroke: #23612b"/>
     <use xlink:href="#m3d5a9ee475" x="67.284522" y="168.101709" style="fill: #4fa15a; stroke: #23612b"/>
     <use xlink:href="#m3d5a9ee475" x="68.402846" y="141.614688" style="fill: #4fa15a; stroke: #23612b"/>
     <use xlink:href="#m3d5a9ee475" x="69.255905" y="138.030833" style="fill: #4fa15a; stroke: #23612b"/>
     <use xlink:href="#m3d5a9ee475" x="92.244886" y="96.963291" style="fill: #4fa15a; stroke: #23612b"/>
     <use xlink:href="#m3d5a9ee475" x="80.441174" y="141.746687" style="fill: #4fa15a; stroke: #23612b"/>
     <use xlink:href="#m3d5a9ee475" x="78.64508" y="148.7371" style="fill: #4fa15a; stroke: #23612b"/>
    </g>
   </g>
   <g id="line2d_17">
    <path d="M 63.182727 201.163636 
L 64.414 187.924249 
L 65.645273 176.521134 
L 66.876545 166.597037 
L 68.107818 157.881733 
L 69.339091 150.167047 
L 70.570364 143.29001 
L 71.801636 137.121221 
L 73.032909 131.556627 
L 75.495455 121.916637 
L 77.958 113.855688 
L 80.420545 107.015178 
L 82.883091 101.137447 
L 85.345636 96.032597 
L 87.808182 91.55759 
L 90.270727 87.602632 
L 92.733273 84.082048 
L 95.195818 80.928002 
L 97.658364 78.086085 
L 100.120909 75.512147 
L 102.583455 73.169993 
L 106.277273 70.027199 
L 109.971091 67.258401 
L 113.664909 64.800588 
L 117.358727 62.604152 
L 121.052545 60.629505 
L 125.977636 58.287245 
L 130.902727 56.222917 
L 135.827818 54.389821 
L 141.984182 52.368307 
L 148.140545 50.595076 
L 155.528182 48.734949 
L 162.915818 47.113759 
L 171.534727 45.467224 
L 181.384909 43.845812 
L 191.235091 42.447236 
L 202.316545 41.087104 
L 214.629273 39.787883 
L 229.404545 38.461482 
L 245.411091 37.248481 
L 263.880182 36.072268 
L 284.811818 34.960914 
L 308.206 33.930315 
L 308.206 33.930315 
" clip-path="url(#pff236ab9a1)" style="fill: none; stroke: #ef553b; stroke-width: 1.5; stroke-linecap: square"/>
   </g>
   <g id="patch_3">
    <path d="M 50.87 210.04 
L 50.87 14.76 
" style="fill: none; stroke: #000000; stroke-width: 0.8; stroke-linejoin: miter; stroke-linecap: square"/>
   </g>
   <g id="patch_4">
    <path d="M 321.75 210.04 
L 321.75 14.76 
" style="fill: none; stroke: #000000; stroke-width: 0.8; stroke-linejoin: miter; stroke-linecap: square"/>
   </g>
   <g id="patch_5">
    <path d="M 50.87 210.04 
L 321.75 210.04 
" style="fill: none; stroke: #000000; stroke-width: 0.8; stroke-linejoin: miter; stroke-linecap: square"/>
   </g>
   <g id="patch_6">
    <path d="M 50.87 14.76 
L 321.75 14.76 
" style="fill: none; stroke: #000000; stroke-width: 0.8; stroke-linejoin: miter; stroke-linecap: square"/>
   </g>
   <g id="legend_1">
    <g id="patch_7">
     <path d="M 201.403125 205.04 
L 314.75 205.04 
Q 316.75 205.04 316.75 203.04 
L 316.75 174.68375 
Q 316.75 172.68375 314.75 172.68375 
L 201.403125 172.68375 
Q 199.403125 172.68375 199.403125 174.68375 
L 199.403125 203.04 
Q 199.403125 205.04 201.403125 205.04 
z
" style="fill: #ffffff; opacity: 0.8; stroke: #cccccc; stroke-linejoin: miter"/>
    </g>
    <g id="line2d_18">
     <g>
      <use xlink:href="#m3d5a9ee475" x="213.403125" y="180.782188" style="fill: #4fa15a; stroke: #23612b"/>
     </g>
    </g>
    <g id="text_18">
     <!-- data -->
     <g transform="translate(231.403125 184.282188) scale(0.1 -0.1)">
      <defs>
       <path id="DejaVuSans-64" d="M 2906 2969 
L 2906 4863 
L 3481 4863 
L 3481 0 
L 2906 0 
L 2906 525 
Q 2725 213 2448 61 
Q 2172 -91 1784 -91 
Q 1150 -91 751 415 
Q 353 922 353 1747 
Q 353 2572 751 3078 
Q 1150 3584 1784 3584 
Q 2172 3584 2448 3432 
Q 2725 3281 2906 2969 
z
M 947 1747 
Q 947 1113 1208 752 
Q 1469 391 1925 391 
Q 2381 391 2643 752 
Q 2906 1113 2906 1747 
Q 2906 2381 2643 2742 
Q 2381 3103 1925 3103 
Q 1469 3103 1208 2742 
Q 947 2381 947 1747 
z
" transform="scale(0.015625)"/>
      </defs>
      <use xlink:href="#DejaVuSans-64"/>
      <use xlink:href="#DejaVuSans-61" x="63.476562"/>
      <use xlink:href="#DejaVuSans-74" x="124.755859"/>
      <use xlink:href="#DejaVuSans-61" x="163.964844"/>
     </g>
    </g>
    <g id="line2d_19">
     <path d="M 203.403125 195.460313 
L 213.403125 195.460313 
L 223.403125 195.460313 
" style="fill: none; stroke: #ef553b; stroke-width: 1.5; stroke-linecap: square"/>
    </g>
    <g id="text_19">
     <!-- best fit (95% CI) -->
     <g transform="translate(231.403125 198.960313) scale(0.1 -0.1)">
      <defs>
       <path id="DejaVuSans-62" d="M 3116 1747 
Q 3116 2381 2855 2742 
Q 2594 3103 2138 3103 
Q 1681 3103 1420 2742 
Q 1159 2381 1159 1747 
Q 1159 1113 1420 752 
Q 1681 391 2138 391 
Q 2594 391 2855 752 
Q 3116 1113 3116 1747 
z
M 1159 2969 
Q 1341 3281 1617 3432 
Q 1894 3584 2278 3584 
Q 2916 3584 3314 3078 
Q 3713 2572 3713 1747 
Q 3713 922 3314 415 
Q 2916 -91 2278 -91 
Q 1894 -91 1617 61 
Q 1341 213 1159 525 
L 1159 0 
L 581 0 
L 581 4863 
L 1159 4863 
L 1159 2969 
z
" transform="scale(0.015625)"/>
       <path id="DejaVuSans-73" d="M 2834 3397 
L 2834 2853 
Q 2591 2978 2328 3040 
Q 2066 3103 1784 3103 
Q 1356 3103 1142 2972 
Q 928 2841 928 2578 
Q 928 2378 1081 2264 
Q 1234 2150 1697 2047 
L 1894 2003 
Q 2506 1872 2764 1633 
Q 3022 1394 3022 966 
Q 3022 478 2636 193 
Q 2250 -91 1575 -91 
Q 1294 -91 989 -36 
Q 684 19 347 128 
L 347 722 
Q 666 556 975 473 
Q 1284 391 1588 391 
Q 1994 391 2212 530 
Q 2431 669 2431 922 
Q 2431 1156 2273 1281 
Q 2116 1406 1581 1522 
L 1381 1569 
Q 847 1681 609 1914 
Q 372 2147 372 2553 
Q 372 3047 722 3315 
Q 1072 3584 1716 3584 
Q 2034 3584 2315 3537 
Q 2597 3491 2834 3397 
z
" transform="scale(0.015625)"/>
       <path id="DejaVuSans-20" transform="scale(0.015625)"/>
       <path id="DejaVuSans-28" d="M 1984 4856 
Q 1566 4138 1362 3434 
Q 1159 2731 1159 2009 
Q 1159 1288 1364 580 
Q 1569 -128 1984 -844 
L 1484 -844 
Q 1016 -109 783 600 
Q 550 1309 550 2009 
Q 550 2706 781 3412 
Q 1013 4119 1484 4856 
L 1984 4856 
z
" transform="scale(0.015625)"/>
       <path id="DejaVuSans-39" d="M 703 97 
L 703 672 
Q 941 559 1184 500 
Q 1428 441 1663 441 
Q 2288 441 2617 861 
Q 2947 1281 2994 2138 
Q 2813 1869 2534 1725 
Q 2256 1581 1919 1581 
Q 1219 1581 811 2004 
Q 403 2428 403 3163 
Q 403 3881 828 4315 
Q 1253 4750 1959 4750 
Q 2769 4750 3195 4129 
Q 3622 3509 3622 2328 
Q 3622 1225 3098 567 
Q 2575 -91 1691 -91 
Q 1453 -91 1209 -44 
Q 966 3 703 97 
z
M 1959 2075 
Q 2384 2075 2632 2365 
Q 2881 2656 2881 3163 
Q 2881 3666 2632 3958 
Q 2384 4250 1959 4250 
Q 1534 4250 1286 3958 
Q 1038 3666 1038 3163 
Q 1038 2656 1286 2365 
Q 1534 2075 1959 2075 
z
" transform="scale(0.015625)"/>
       <path id="DejaVuSans-25" d="M 4653 2053 
Q 4381 2053 4226 1822 
Q 4072 1591 4072 1178 
Q 4072 772 4226 539 
Q 4381 306 4653 306 
Q 4919 306 5073 539 
Q 5228 772 5228 1178 
Q 5228 1588 5073 1820 
Q 4919 2053 4653 2053 
z
M 4653 2450 
Q 5147 2450 5437 2106 
Q 5728 1763 5728 1178 
Q 5728 594 5436 251 
Q 5144 -91 4653 -91 
Q 4153 -91 3862 251 
Q 3572 594 3572 1178 
Q 3572 1766 3864 2108 
Q 4156 2450 4653 2450 
z
M 1428 4353 
Q 1159 4353 1004 4120 
Q 850 3888 850 3481 
Q 850 3069 1003 2837 
Q 1156 2606 1428 2606 
Q 1700 2606 1854 2837 
Q 2009 3069 2009 3481 
Q 2009 3884 1853 4118 
Q 1697 4353 1428 4353 
z
M 4250 4750 
L 4750 4750 
L 1831 -91 
L 1331 -91 
L 4250 4750 
z
M 1428 4750 
Q 1922 4750 2215 4408 
Q 2509 4066 2509 3481 
Q 2509 2891 2217 2550 
Q 1925 2209 1428 2209 
Q 931 2209 642 2551 
Q 353 2894 353 3481 
Q 353 4063 643 4406 
Q 934 4750 1428 4750 
z
" transform="scale(0.015625)"/>
       <path id="DejaVuSans-43" d="M 4122 4306 
L 4122 3641 
Q 3803 3938 3442 4084 
Q 3081 4231 2675 4231 
Q 1875 4231 1450 3742 
Q 1025 3253 1025 2328 
Q 1025 1406 1450 917 
Q 1875 428 2675 428 
Q 3081 428 3442 575 
Q 3803 722 4122 1019 
L 4122 359 
Q 3791 134 3420 21 
Q 3050 -91 2638 -91 
Q 1578 -91 968 557 
Q 359 1206 359 2328 
Q 359 3453 968 4101 
Q 1578 4750 2638 4750 
Q 3056 4750 3426 4639 
Q 3797 4528 4122 4306 
z
" transform="scale(0.015625)"/>
       <path id="DejaVuSans-49" d="M 628 4666 
L 1259 4666 
L 1259 0 
L 628 0 
L 628 4666 
z
" transform="scale(0.015625)"/>
       <path id="DejaVuSans-29" d="M 513 4856 
L 1013 4856 
Q 1481 4119 1714 3412 
Q 1947 2706 1947 2009 
Q 1947 1309 1714 600 
Q 1481 -109 1013 -844 
L 513 -844 
Q 928 -128 1133 580 
Q 1338 1288 1338 2009 
Q 1338 2731 1133 3434 
Q 928 4138 513 4856 
z
" transform="scale(0.015625)"/>
      </defs>
      <use xlink:href="#DejaVuSans-62"/>
      <use xlink:href="#DejaVuSans-65" x="63.476562"/>
      <use xlink:href="#DejaVuSans-73" x="125"/>
      <use xlink:href="#DejaVuSans-74" x="177.099609"/>
      <use xlink:href="#DejaVuSans-20" x="216.308594"/>
      <use xlink:href="#DejaVuSans-66" x="248.095703"/>
      <use xlink:href="#DejaVuSans-69" x="283.300781"/>
      <use xlink:href="#DejaVuSans-74" x="311.083984"/>
      <use xlink:href="#DejaVuSans-20" x="350.292969"/>
      <use xlink:href="#DejaVuSans-28" x="382.080078"/>
      <use xlink:href="#DejaVuSans-39" x="421.09375"/>
      <use xlink:href="#DejaVuSans-35" x="484.716797"/>
      <use xlink:href="#DejaVuSans-25" x="548.339844"/>
      <use xlink:href="#DejaVuSans-20" x="643.359375"/>
      <use xlink:href="#DejaVuSans-43" x="675.146484"/>
      <use xlink:href="#DejaVuSans-49" x="744.970703"/>
      <use xlink:href="#DejaVuSans-29" x="774.462891"/>
     </g>
    </g>
   </g>
  </g>
  <g id="axes_2">
   <g id="patch_8">
    <path d="M 366.32 210.04 
L 583.024 210.04 
L 583.024 14.76 
L 366.32 14.76 
z
" style="fill: #ffffff"/>
   </g>
   <g id="QuadContourSet_1">
    <path clip-path="url(#pd2cf372f6e)" style="fill: #471365"/>
    <path d="M 472.460735 115.59702 
L 474.314407 114.392653 
L 472.460735 112.68634 
L 471.039392 114.392653 
z
M 476.883265 112.091391 
L 478.33023 110.407347 
L 476.883265 109.084725 
L 474.974544 110.407347 
z
" clip-path="url(#pd2cf372f6e)" style="fill: #463480"/>
    <path d="M 472.460735 116.952685 
L 476.400947 114.392653 
L 476.883265 113.960577 
L 479.936272 110.407347 
L 476.883265 107.616694 
L 472.85598 110.407347 
L 472.460735 110.765672 
L 469.439492 114.392653 
z
M 471.039392 114.392653 
L 472.460735 112.68634 
L 474.314407 114.392653 
L 472.460735 115.59702 
z
M 474.974544 110.407347 
L 476.883265 109.084725 
L 478.33023 110.407347 
L 476.883265 112.091391 
z
" clip-path="url(#pd2cf372f6e)" style="fill: #3b528b"/>
    <path d="M 468.038204 119.405542 
L 472.124447 118.377959 
L 472.460735 118.30835 
L 476.883265 115.276771 
L 477.914107 114.392653 
L 481.305796 110.626594 
L 481.50358 110.407347 
L 482.85187 106.422041 
L 481.305796 104.944803 
L 476.883265 106.184621 
L 476.561801 106.422041 
L 472.460735 109.390834 
L 471.360471 110.407347 
L 468.038204 114.20092 
L 467.872908 114.392653 
L 466.713519 118.377959 
z
M 469.439492 114.392653 
L 472.460735 110.765672 
L 472.85598 110.407347 
L 476.883265 107.616694 
L 479.936272 110.407347 
L 476.883265 113.960577 
L 476.400947 114.392653 
L 472.460735 116.952685 
z
" clip-path="url(#pd2cf372f6e)" style="fill: #2f6c8e"/>
    <path d="M 468.038204 121.052533 
L 472.460735 119.427726 
L 474.046618 118.377959 
L 476.883265 116.426703 
L 479.254877 114.392653 
L 481.305796 112.115356 
L 482.846601 110.407347 
L 484.942018 106.422041 
L 481.305796 102.947715 
L 476.883265 104.909677 
L 474.835542 106.422041 
L 472.460735 108.141182 
L 470.00786 110.407347 
L 468.038204 112.656424 
L 466.541374 114.392653 
L 464.590339 118.377959 
z
M 466.713519 118.377959 
L 467.872908 114.392653 
L 468.038204 114.20092 
L 471.360471 110.407347 
L 472.460735 109.390834 
L 476.561801 106.422041 
L 476.883265 106.184621 
L 481.305796 104.944803 
L 482.85187 106.422041 
L 481.50358 110.407347 
L 481.305796 110.626594 
L 477.914107 114.392653 
L 476.883265 115.276771 
L 472.460735 118.30835 
L 472.124447 118.377959 
L 468.038204 119.405542 
z
" clip-path="url(#pd2cf372f6e)" style="fill: #25848e"/>
    <path d="M 463.615673 122.899408 
L 468.038204 122.601679 
L 468.524446 122.363265 
L 472.460735 120.534312 
L 475.718338 118.377959 
L 476.883265 117.576636 
L 480.595647 114.392653 
L 481.305796 113.604119 
L 484.189622 110.407347 
L 485.728327 107.826977 
L 486.662727 106.422041 
L 487.232582 102.436735 
L 485.728327 100.897979 
L 481.305796 101.349366 
L 479.351289 102.436735 
L 476.883265 103.634733 
L 473.109283 106.422041 
L 472.460735 106.89153 
L 468.655249 110.407347 
L 468.038204 111.111927 
L 465.209839 114.392653 
L 463.615673 117.137688 
L 462.819295 118.377959 
L 462.848774 122.363265 
z
M 464.590339 118.377959 
L 466.541374 114.392653 
L 468.038204 112.656424 
L 470.00786 110.407347 
L 472.460735 108.141182 
L 474.835542 106.422041 
L 476.883265 104.909677 
L 481.305796 102.947715 
L 484.942018 106.422041 
L 482.846601 110.407347 
L 481.305796 112.115356 
L 479.254877 114.392653 
L 476.883265 116.426703 
L 474.046618 118.377959 
L 472.460735 119.427726 
L 468.038204 121.052533 
z
" clip-path="url(#pd2cf372f6e)" style="fill: #1e9c89"/>
    <path d="M 463.615673 124.683449 
L 468.038204 123.769422 
L 470.90605 122.363265 
L 472.460735 121.640898 
L 476.883265 118.707451 
L 477.310679 118.377959 
L 481.305796 114.959983 
L 481.924702 114.392653 
L 485.532643 110.407347 
L 485.728327 110.079191 
L 488.160637 106.422041 
L 489.643358 102.436735 
L 485.804829 98.451429 
L 485.728327 98.437904 
L 485.69301 98.451429 
L 481.305796 99.888118 
L 476.883265 102.358172 
L 476.779563 102.436735 
L 472.460735 105.629101 
L 471.557052 106.422041 
L 468.038204 109.678805 
L 467.316228 110.407347 
L 463.878305 114.392653 
L 463.615673 114.844885 
L 461.347087 118.377959 
L 460.296875 122.363265 
z
M 462.848774 122.363265 
L 462.819295 118.377959 
L 463.615673 117.137688 
L 465.209839 114.392653 
L 468.038204 111.111927 
L 468.655249 110.407347 
L 472.460735 106.89153 
L 473.109283 106.422041 
L 476.883265 103.634733 
L 479.351289 102.436735 
L 481.305796 101.349366 
L 485.728327 100.897979 
L 487.232582 102.436735 
L 486.662727 106.422041 
L 485.728327 107.826977 
L 484.189622 110.407347 
L 481.305796 113.604119 
L 480.595647 114.392653 
L 476.883265 117.576636 
L 475.718338 118.377959 
L 472.460735 120.534312 
L 468.524446 122.363265 
L 468.038204 122.601679 
L 463.615673 122.899408 
z
" clip-path="url(#pd2cf372f6e)" style="fill: #2fb47c"/>
    <path d="M 463.615673 126.430687 
L 463.846826 126.348571 
L 468.038204 124.937166 
L 472.460735 122.728127 
L 473.027187 122.363265 
L 476.883265 119.794322 
L 478.720558 118.377959 
L 481.305796 116.166188 
L 483.240565 114.392653 
L 485.728327 111.6477 
L 486.860956 110.407347 
L 489.658547 106.422041 
L 490.150857 105.250617 
L 491.476955 102.436735 
L 491.590121 98.451429 
L 490.150857 96.857589 
L 485.728327 96.729102 
L 481.305796 98.427825 
L 481.268962 98.451429 
L 476.883265 101.056428 
L 475.061269 102.436735 
L 472.460735 104.358983 
L 470.109548 106.422041 
L 468.038204 108.339111 
L 465.988609 110.407347 
L 463.615673 113.157481 
L 462.560756 114.392653 
L 459.874878 118.377959 
L 459.193143 120.168715 
L 458.249769 122.363265 
L 459.193143 125.815278 
L 461.705485 126.348571 
z
M 460.296875 122.363265 
L 461.347087 118.377959 
L 463.615673 114.844885 
L 463.878305 114.392653 
L 467.316228 110.407347 
L 468.038204 109.678805 
L 471.557052 106.422041 
L 472.460735 105.629101 
L 476.779563 102.436735 
L 476.883265 102.358172 
L 481.305796 99.888118 
L 485.69301 98.451429 
L 485.728327 98.437904 
L 485.804829 98.451429 
L 489.643358 102.436735 
L 488.160637 106.422041 
L 485.728327 110.079191 
L 485.532643 110.407347 
L 481.924702 114.392653 
L 481.305796 114.959983 
L 477.310679 118.377959 
L 476.883265 118.707451 
L 472.460735 121.640898 
L 470.90605 122.363265 
L 468.038204 123.769422 
L 463.615673 124.683449 
z
" clip-path="url(#pd2cf372f6e)" style="fill: #5ec962"/>
    <path d="M 459.193143 128.010705 
L 463.615673 127.662593 
L 467.314613 126.348571 
L 468.038204 126.104909 
L 472.460735 123.778963 
L 474.65862 122.363265 
L 476.883265 120.881193 
L 480.130437 118.377959 
L 481.305796 117.372394 
L 484.556428 114.392653 
L 485.728327 113.099601 
L 488.186761 110.407347 
L 490.150857 107.664846 
L 491.090031 106.422041 
L 493.156649 102.436735 
L 494.205177 98.451429 
L 491.321126 94.466122 
L 490.150857 94.120734 
L 488.60548 94.466122 
L 485.728327 95.0203 
L 481.305796 97.023405 
L 479.077387 98.451429 
L 476.883265 99.754685 
L 473.342976 102.436735 
L 472.460735 103.088864 
L 468.662045 106.422041 
L 468.038204 106.999418 
L 464.66099 110.407347 
L 463.615673 111.618825 
L 461.246642 114.392653 
L 459.193143 117.358788 
L 458.459303 118.377959 
L 456.587395 122.363265 
L 456.530413 126.348571 
z
M 461.705485 126.348571 
L 459.193143 125.815278 
L 458.249769 122.363265 
L 459.193143 120.168715 
L 459.874878 118.377959 
L 462.560756 114.392653 
L 463.615673 113.157481 
L 465.988609 110.407347 
L 468.038204 108.339111 
L 470.109548 106.422041 
L 472.460735 104.358983 
L 475.061269 102.436735 
L 476.883265 101.056428 
L 481.268962 98.451429 
L 481.305796 98.427825 
L 485.728327 96.729102 
L 490.150857 96.857589 
L 491.590121 98.451429 
L 491.476955 102.436735 
L 490.150857 105.250617 
L 489.658547 106.422041 
L 486.860956 110.407347 
L 485.728327 111.6477 
L 483.240565 114.392653 
L 481.305796 116.166188 
L 478.720558 118.377959 
L 476.883265 119.794322 
L 473.027187 122.363265 
L 472.460735 122.728127 
L 468.038204 124.937166 
L 463.846826 126.348571 
L 463.615673 126.430687 
z
" clip-path="url(#pd2cf372f6e)" style="fill: #9bd93c"/>
    <path d="M 454.770612 128.023807 
L 459.193143 129.832559 
L 463.615673 128.894499 
L 468.038204 127.182826 
L 469.602927 126.348571 
L 472.460735 124.829798 
L 476.290053 122.363265 
L 476.883265 121.968063 
L 481.305796 118.562779 
L 481.530066 118.377959 
L 485.728327 114.527927 
L 485.871649 114.392653 
L 489.512565 110.407347 
L 490.150857 109.516089 
L 492.488994 106.422041 
L 494.573388 102.815658 
L 494.808283 102.436735 
L 496.160334 98.451429 
L 495.989622 94.466122 
L 494.573388 92.758981 
L 490.150857 92.137932 
L 485.728327 93.416153 
L 483.731585 94.466122 
L 481.305796 95.618985 
L 476.885813 98.451429 
L 476.883265 98.452942 
L 472.460735 101.800343 
L 471.72456 102.436735 
L 468.038204 105.6675 
L 467.250669 106.422041 
L 463.615673 110.108857 
L 463.334619 110.407347 
L 459.932529 114.392653 
L 459.193143 115.460644 
L 457.092572 118.377959 
L 454.925021 122.363265 
L 454.770612 123.118836 
L 454.029788 126.348571 
z
M 456.530413 126.348571 
L 456.587395 122.363265 
L 458.459303 118.377959 
L 459.193143 117.358788 
L 461.246642 114.392653 
L 463.615673 111.618825 
L 464.66099 110.407347 
L 468.038204 106.999418 
L 468.662045 106.422041 
L 472.460735 103.088864 
L 473.342976 102.436735 
L 476.883265 99.754685 
L 479.077387 98.451429 
L 481.305796 97.023405 
L 485.728327 95.0203 
L 488.60548 94.466122 
L 490.150857 94.120734 
L 491.321126 94.466122 
L 494.205177 98.451429 
L 493.156649 102.436735 
L 491.090031 106.422041 
L 490.150857 107.664846 
L 488.186761 110.407347 
L 485.728327 113.099601 
L 484.556428 114.392653 
L 481.305796 117.372394 
L 480.130437 118.377959 
L 476.883265 120.881193 
L 474.65862 122.363265 
L 472.460735 123.778963 
L 468.038204 126.104909 
L 467.314613 126.348571 
L 463.615673 127.662593 
L 459.193143 128.010705 
z
" clip-path="url(#pd2cf372f6e)" style="fill: #dfe318"/>
   </g>
   <g id="matplotlib.axis_3">
    <g id="xtick_7">
     <g id="line2d_20">
      <g>
       <use xlink:href="#m2550b86379" x="369.613514" y="210.04" style="stroke: #000000; stroke-width: 0.8"/>
      </g>
     </g>
     <g id="text_20">
      <!-- 140 -->
      <g transform="translate(360.069764 224.638438) scale(0.1 -0.1)">
       <defs>
        <path id="DejaVuSans-34" d="M 2419 4116 
L 825 1625 
L 2419 1625 
L 2419 4116 
z
M 2253 4666 
L 3047 4666 
L 3047 1625 
L 3713 1625 
L 3713 1100 
L 3047 1100 
L 3047 0 
L 2419 0 
L 2419 1100 
L 313 1100 
L 313 1709 
L 2253 4666 
z
" transform="scale(0.015625)"/>
       </defs>
       <use xlink:href="#DejaVuSans-31"/>
       <use xlink:href="#DejaVuSans-34" x="63.623047"/>
       <use xlink:href="#DejaVuSans-30" x="127.246094"/>
      </g>
     </g>
    </g>
    <g id="xtick_8">
     <g id="line2d_21">
      <g>
       <use xlink:href="#m2550b86379" x="410.618157" y="210.04" style="stroke: #000000; stroke-width: 0.8"/>
      </g>
     </g>
     <g id="text_21">
      <!-- 160 -->
      <g transform="translate(401.074407 224.638438) scale(0.1 -0.1)">
       <defs>
        <path id="DejaVuSans-36" d="M 2113 2584 
Q 1688 2584 1439 2293 
Q 1191 2003 1191 1497 
Q 1191 994 1439 701 
Q 1688 409 2113 409 
Q 2538 409 2786 701 
Q 3034 994 3034 1497 
Q 3034 2003 2786 2293 
Q 2538 2584 2113 2584 
z
M 3366 4563 
L 3366 3988 
Q 3128 4100 2886 4159 
Q 2644 4219 2406 4219 
Q 1781 4219 1451 3797 
Q 1122 3375 1075 2522 
Q 1259 2794 1537 2939 
Q 1816 3084 2150 3084 
Q 2853 3084 3261 2657 
Q 3669 2231 3669 1497 
Q 3669 778 3244 343 
Q 2819 -91 2113 -91 
Q 1303 -91 875 529 
Q 447 1150 447 2328 
Q 447 3434 972 4092 
Q 1497 4750 2381 4750 
Q 2619 4750 2861 4703 
Q 3103 4656 3366 4563 
z
" transform="scale(0.015625)"/>
       </defs>
       <use xlink:href="#DejaVuSans-31"/>
       <use xlink:href="#DejaVuSans-36" x="63.623047"/>
       <use xlink:href="#DejaVuSans-30" x="127.246094"/>
      </g>
     </g>
    </g>
    <g id="xtick_9">
     <g id="line2d_22">
      <g>
       <use xlink:href="#m2550b86379" x="451.622801" y="210.04" style="stroke: #000000; stroke-width: 0.8"/>
      </g>
     </g>
     <g id="text_22">
      <!-- 180 -->
      <g transform="translate(442.079051 224.638438) scale(0.1 -0.1)">
       <defs>
        <path id="DejaVuSans-38" d="M 2034 2216 
Q 1584 2216 1326 1975 
Q 1069 1734 1069 1313 
Q 1069 891 1326 650 
Q 1584 409 2034 409 
Q 2484 409 2743 651 
Q 3003 894 3003 1313 
Q 3003 1734 2745 1975 
Q 2488 2216 2034 2216 
z
M 1403 2484 
Q 997 2584 770 2862 
Q 544 3141 544 3541 
Q 544 4100 942 4425 
Q 1341 4750 2034 4750 
Q 2731 4750 3128 4425 
Q 3525 4100 3525 3541 
Q 3525 3141 3298 2862 
Q 3072 2584 2669 2484 
Q 3125 2378 3379 2068 
Q 3634 1759 3634 1313 
Q 3634 634 3220 271 
Q 2806 -91 2034 -91 
Q 1263 -91 848 271 
Q 434 634 434 1313 
Q 434 1759 690 2068 
Q 947 2378 1403 2484 
z
M 1172 3481 
Q 1172 3119 1398 2916 
Q 1625 2713 2034 2713 
Q 2441 2713 2670 2916 
Q 2900 3119 2900 3481 
Q 2900 3844 2670 4047 
Q 2441 4250 2034 4250 
Q 1625 4250 1398 4047 
Q 1172 3844 1172 3481 
z
" transform="scale(0.015625)"/>
       </defs>
       <use xlink:href="#DejaVuSans-31"/>
       <use xlink:href="#DejaVuSans-38" x="63.623047"/>
       <use xlink:href="#DejaVuSans-30" x="127.246094"/>
      </g>
     </g>
    </g>
    <g id="xtick_10">
     <g id="line2d_23">
      <g>
       <use xlink:href="#m2550b86379" x="492.627445" y="210.04" style="stroke: #000000; stroke-width: 0.8"/>
      </g>
     </g>
     <g id="text_23">
      <!-- 200 -->
      <g transform="translate(483.083695 224.638438) scale(0.1 -0.1)">
       <use xlink:href="#DejaVuSans-32"/>
       <use xlink:href="#DejaVuSans-30" x="63.623047"/>
       <use xlink:href="#DejaVuSans-30" x="127.246094"/>
      </g>
     </g>
    </g>
    <g id="xtick_11">
     <g id="line2d_24">
      <g>
       <use xlink:href="#m2550b86379" x="533.632089" y="210.04" style="stroke: #000000; stroke-width: 0.8"/>
      </g>
     </g>
     <g id="text_24">
      <!-- 220 -->
      <g transform="translate(524.088339 224.638438) scale(0.1 -0.1)">
       <use xlink:href="#DejaVuSans-32"/>
       <use xlink:href="#DejaVuSans-32" x="63.623047"/>
       <use xlink:href="#DejaVuSans-30" x="127.246094"/>
      </g>
     </g>
    </g>
    <g id="xtick_12">
     <g id="line2d_25">
      <g>
       <use xlink:href="#m2550b86379" x="574.636732" y="210.04" style="stroke: #000000; stroke-width: 0.8"/>
      </g>
     </g>
     <g id="text_25">
      <!-- 240 -->
      <g transform="translate(565.092982 224.638438) scale(0.1 -0.1)">
       <use xlink:href="#DejaVuSans-32"/>
       <use xlink:href="#DejaVuSans-34" x="63.623047"/>
       <use xlink:href="#DejaVuSans-30" x="127.246094"/>
      </g>
     </g>
    </g>
    <g id="text_26">
     <!-- vmax -->
     <g transform="translate(460.818875 238.316563) scale(0.1 -0.1)">
      <defs>
       <path id="DejaVuSans-76" d="M 191 3500 
L 800 3500 
L 1894 563 
L 2988 3500 
L 3597 3500 
L 2284 0 
L 1503 0 
L 191 3500 
z
" transform="scale(0.015625)"/>
       <path id="DejaVuSans-6d" d="M 3328 2828 
Q 3544 3216 3844 3400 
Q 4144 3584 4550 3584 
Q 5097 3584 5394 3201 
Q 5691 2819 5691 2113 
L 5691 0 
L 5113 0 
L 5113 2094 
Q 5113 2597 4934 2840 
Q 4756 3084 4391 3084 
Q 3944 3084 3684 2787 
Q 3425 2491 3425 1978 
L 3425 0 
L 2847 0 
L 2847 2094 
Q 2847 2600 2669 2842 
Q 2491 3084 2119 3084 
Q 1678 3084 1418 2786 
Q 1159 2488 1159 1978 
L 1159 0 
L 581 0 
L 581 3500 
L 1159 3500 
L 1159 2956 
Q 1356 3278 1631 3431 
Q 1906 3584 2284 3584 
Q 2666 3584 2933 3390 
Q 3200 3197 3328 2828 
z
" transform="scale(0.015625)"/>
      </defs>
      <use xlink:href="#DejaVuSans-76"/>
      <use xlink:href="#DejaVuSans-6d" x="59.179688"/>
      <use xlink:href="#DejaVuSans-61" x="156.591797"/>
      <use xlink:href="#DejaVuSans-78" x="217.871094"/>
     </g>
    </g>
   </g>
   <g id="matplotlib.axis_4">
    <g id="ytick_10">
     <g id="line2d_26">
      <g>
       <use xlink:href="#m4a25eb7367" x="366.32" y="202.340097" style="stroke: #000000; stroke-width: 0.8"/>
      </g>
     </g>
     <g id="text_27">
      <!-- 0 -->
      <g transform="translate(352.9575 206.139316) scale(0.1 -0.1)">
       <use xlink:href="#DejaVuSans-30"/>
      </g>
     </g>
    </g>
    <g id="ytick_11">
     <g id="line2d_27">
      <g>
       <use xlink:href="#m4a25eb7367" x="366.32" y="175.777851" style="stroke: #000000; stroke-width: 0.8"/>
      </g>
     </g>
     <g id="text_28">
      <!-- 5 -->
      <g transform="translate(352.9575 179.57707) scale(0.1 -0.1)">
       <use xlink:href="#DejaVuSans-35"/>
      </g>
     </g>
    </g>
    <g id="ytick_12">
     <g id="line2d_28">
      <g>
       <use xlink:href="#m4a25eb7367" x="366.32" y="149.215605" style="stroke: #000000; stroke-width: 0.8"/>
      </g>
     </g>
     <g id="text_29">
      <!-- 10 -->
      <g transform="translate(346.595 153.014823) scale(0.1 -0.1)">
       <use xlink:href="#DejaVuSans-31"/>
       <use xlink:href="#DejaVuSans-30" x="63.623047"/>
      </g>
     </g>
    </g>
    <g id="ytick_13">
     <g id="line2d_29">
      <g>
       <use xlink:href="#m4a25eb7367" x="366.32" y="122.653358" style="stroke: #000000; stroke-width: 0.8"/>
      </g>
     </g>
     <g id="text_30">
      <!-- 15 -->
      <g transform="translate(346.595 126.452577) scale(0.1 -0.1)">
       <use xlink:href="#DejaVuSans-31"/>
       <use xlink:href="#DejaVuSans-35" x="63.623047"/>
      </g>
     </g>
    </g>
    <g id="ytick_14">
     <g id="line2d_30">
      <g>
       <use xlink:href="#m4a25eb7367" x="366.32" y="96.091112" style="stroke: #000000; stroke-width: 0.8"/>
      </g>
     </g>
     <g id="text_31">
      <!-- 20 -->
      <g transform="translate(346.595 99.890331) scale(0.1 -0.1)">
       <use xlink:href="#DejaVuSans-32"/>
       <use xlink:href="#DejaVuSans-30" x="63.623047"/>
      </g>
     </g>
    </g>
    <g id="ytick_15">
     <g id="line2d_31">
      <g>
       <use xlink:href="#m4a25eb7367" x="366.32" y="69.528866" style="stroke: #000000; stroke-width: 0.8"/>
      </g>
     </g>
     <g id="text_32">
      <!-- 25 -->
      <g transform="translate(346.595 73.328084) scale(0.1 -0.1)">
       <use xlink:href="#DejaVuSans-32"/>
       <use xlink:href="#DejaVuSans-35" x="63.623047"/>
      </g>
     </g>
    </g>
    <g id="ytick_16">
     <g id="line2d_32">
      <g>
       <use xlink:href="#m4a25eb7367" x="366.32" y="42.966619" style="stroke: #000000; stroke-width: 0.8"/>
      </g>
     </g>
     <g id="text_33">
      <!-- 30 -->
      <g transform="translate(346.595 46.765838) scale(0.1 -0.1)">
       <defs>
        <path id="DejaVuSans-33" d="M 2597 2516 
Q 3050 2419 3304 2112 
Q 3559 1806 3559 1356 
Q 3559 666 3084 287 
Q 2609 -91 1734 -91 
Q 1441 -91 1130 -33 
Q 819 25 488 141 
L 488 750 
Q 750 597 1062 519 
Q 1375 441 1716 441 
Q 2309 441 2620 675 
Q 2931 909 2931 1356 
Q 2931 1769 2642 2001 
Q 2353 2234 1838 2234 
L 1294 2234 
L 1294 2753 
L 1863 2753 
Q 2328 2753 2575 2939 
Q 2822 3125 2822 3475 
Q 2822 3834 2567 4026 
Q 2313 4219 1838 4219 
Q 1578 4219 1281 4162 
Q 984 4106 628 3988 
L 628 4550 
Q 988 4650 1302 4700 
Q 1616 4750 1894 4750 
Q 2613 4750 3031 4423 
Q 3450 4097 3450 3541 
Q 3450 3153 3228 2886 
Q 3006 2619 2597 2516 
z
" transform="scale(0.015625)"/>
       </defs>
       <use xlink:href="#DejaVuSans-33"/>
       <use xlink:href="#DejaVuSans-30" x="63.623047"/>
      </g>
     </g>
    </g>
    <g id="ytick_17">
     <g id="line2d_33">
      <g>
       <use xlink:href="#m4a25eb7367" x="366.32" y="16.404373" style="stroke: #000000; stroke-width: 0.8"/>
      </g>
     </g>
     <g id="text_34">
      <!-- 35 -->
      <g transform="translate(346.595 20.203592) scale(0.1 -0.1)">
       <use xlink:href="#DejaVuSans-33"/>
       <use xlink:href="#DejaVuSans-35" x="63.623047"/>
      </g>
     </g>
    </g>
    <g id="text_35">
     <!-- km -->
     <g transform="translate(340.515312 120.165625) rotate(-90) scale(0.1 -0.1)">
      <defs>
       <path id="DejaVuSans-6b" d="M 581 4863 
L 1159 4863 
L 1159 1991 
L 2875 3500 
L 3609 3500 
L 1753 1863 
L 3688 0 
L 2938 0 
L 1159 1709 
L 1159 0 
L 581 0 
L 581 4863 
z
" transform="scale(0.015625)"/>
      </defs>
      <use xlink:href="#DejaVuSans-6b"/>
      <use xlink:href="#DejaVuSans-6d" x="57.910156"/>
     </g>
    </g>
   </g>
   <g id="patch_9">
    <path d="M 366.32 210.04 
L 366.32 14.76 
" style="fill: none; stroke: #000000; stroke-width: 0.8; stroke-linejoin: miter; stroke-linecap: square"/>
   </g>
   <g id="patch_10">
    <path d="M 583.024 210.04 
L 583.024 14.76 
" style="fill: none; stroke: #000000; stroke-width: 0.8; stroke-linejoin: miter; stroke-linecap: square"/>
   </g>
   <g id="patch_11">
    <path d="M 366.32 210.04 
L 583.024 210.04 
" style="fill: none; stroke: #000000; stroke-width: 0.8; stroke-linejoin: miter; stroke-linecap: square"/>
   </g>
   <g id="patch_12">
    <path d="M 366.32 14.76 
L 583.024 14.76 
" style="fill: none; stroke: #000000; stroke-width: 0.8; stroke-linejoin: miter; stroke-linecap: square"/>
   </g>
  </g>
  <g id="axes_3">
   <g id="patch_13">
    <path d="M 596.568 210.04 
L 606.332 210.04 
L 606.332 14.76 
L 596.568 14.76 
z
" style="fill: #ffffff"/>
   </g>
   <g id="QuadMesh_1">
    <path d="M 596.568 210.04 
L 606.332 210.04 
L 606.332 190.512 
L 596.568 190.512 
L 596.568 210.04 
" clip-path="url(#p237ae5ef97)" style="fill: #471365"/>
    <path d="M 596.568 190.512 
L 606.332 190.512 
L 606.332 170.984 
L 596.568 170.984 
L 596.568 190.512 
" clip-path="url(#p237ae5ef97)" style="fill: #463480"/>
    <path d="M 596.568 170.984 
L 606.332 170.984 
L 606.332 151.456 
L 596.568 151.456 
L 596.568 170.984 
" clip-path="url(#p237ae5ef97)" style="fill: #3b528b"/>
    <path d="M 596.568 151.456 
L 606.332 151.456 
L 606.332 131.928 
L 596.568 131.928 
L 596.568 151.456 
" clip-path="url(#p237ae5ef97)" style="fill: #2f6c8e"/>
    <path d="M 596.568 131.928 
L 606.332 131.928 
L 606.332 112.4 
L 596.568 112.4 
L 596.568 131.928 
" clip-path="url(#p237ae5ef97)" style="fill: #25848e"/>
    <path d="M 596.568 112.4 
L 606.332 112.4 
L 606.332 92.872 
L 596.568 92.872 
L 596.568 112.4 
" clip-path="url(#p237ae5ef97)" style="fill: #1e9c89"/>
    <path d="M 596.568 92.872 
L 606.332 92.872 
L 606.332 73.344 
L 596.568 73.344 
L 596.568 92.872 
" clip-path="url(#p237ae5ef97)" style="fill: #2fb47c"/>
    <path d="M 596.568 73.344 
L 606.332 73.344 
L 606.332 53.816 
L 596.568 53.816 
L 596.568 73.344 
" clip-path="url(#p237ae5ef97)" style="fill: #5ec962"/>
    <path d="M 596.568 53.816 
L 606.332 53.816 
L 606.332 34.288 
L 596.568 34.288 
L 596.568 53.816 
" clip-path="url(#p237ae5ef97)" style="fill: #9bd93c"/>
    <path d="M 596.568 34.288 
L 606.332 34.288 
L 606.332 14.76 
L 596.568 14.76 
L 596.568 34.288 
" clip-path="url(#p237ae5ef97)" style="fill: #dfe318"/>
   </g>
   <g id="matplotlib.axis_5"/>
   <g id="matplotlib.axis_6">
    <g id="ytick_18">
     <g id="line2d_34">
      <defs>
       <path id="md1e46172b9" d="M 0 0 
L 3.5 0 
" style="stroke: #000000; stroke-width: 0.8"/>
      </defs>
      <g>
       <use xlink:href="#md1e46172b9" x="606.332" y="210.04" style="stroke: #000000; stroke-width: 0.8"/>
      </g>
     </g>
     <g id="text_36">
      <!-- 0.0 -->
      <g transform="translate(613.332 213.839219) scale(0.1 -0.1)">
       <defs>
        <path id="DejaVuSans-2e" d="M 684 794 
L 1344 794 
L 1344 0 
L 684 0 
L 684 794 
z
" transform="scale(0.015625)"/>
       </defs>
       <use xlink:href="#DejaVuSans-30"/>
       <use xlink:href="#DejaVuSans-2e" x="63.623047"/>
       <use xlink:href="#DejaVuSans-30" x="95.410156"/>
      </g>
     </g>
    </g>
    <g id="ytick_19">
     <g id="line2d_35">
      <g>
       <use xlink:href="#md1e46172b9" x="606.332" y="170.984" style="stroke: #000000; stroke-width: 0.8"/>
      </g>
     </g>
     <g id="text_37">
      <!-- 0.2 -->
      <g transform="translate(613.332 174.783219) scale(0.1 -0.1)">
       <use xlink:href="#DejaVuSans-30"/>
       <use xlink:href="#DejaVuSans-2e" x="63.623047"/>
       <use xlink:href="#DejaVuSans-32" x="95.410156"/>
      </g>
     </g>
    </g>
    <g id="ytick_20">
     <g id="line2d_36">
      <g>
       <use xlink:href="#md1e46172b9" x="606.332" y="131.928" style="stroke: #000000; stroke-width: 0.8"/>
      </g>
     </g>
     <g id="text_38">
      <!-- 0.4 -->
      <g transform="translate(613.332 135.727219) scale(0.1 -0.1)">
       <use xlink:href="#DejaVuSans-30"/>
       <use xlink:href="#DejaVuSans-2e" x="63.623047"/>
       <use xlink:href="#DejaVuSans-34" x="95.410156"/>
      </g>
     </g>
    </g>
    <g id="ytick_21">
     <g id="line2d_37">
      <g>
       <use xlink:href="#md1e46172b9" x="606.332" y="92.872" style="stroke: #000000; stroke-width: 0.8"/>
      </g>
     </g>
     <g id="text_39">
      <!-- 0.6 -->
      <g transform="translate(613.332 96.671219) scale(0.1 -0.1)">
       <use xlink:href="#DejaVuSans-30"/>
       <use xlink:href="#DejaVuSans-2e" x="63.623047"/>
       <use xlink:href="#DejaVuSans-36" x="95.410156"/>
      </g>
     </g>
    </g>
    <g id="ytick_22">
     <g id="line2d_38">
      <g>
       <use xlink:href="#md1e46172b9" x="606.332" y="53.816" style="stroke: #000000; stroke-width: 0.8"/>
      </g>
     </g>
     <g id="text_40">
      <!-- 0.8 -->
      <g transform="translate(613.332 57.615219) scale(0.1 -0.1)">
       <use xlink:href="#DejaVuSans-30"/>
       <use xlink:href="#DejaVuSans-2e" x="63.623047"/>
       <use xlink:href="#DejaVuSans-38" x="95.410156"/>
      </g>
     </g>
    </g>
    <g id="ytick_23">
     <g id="line2d_39">
      <g>
       <use xlink:href="#md1e46172b9" x="606.332" y="14.76" style="stroke: #000000; stroke-width: 0.8"/>
      </g>
     </g>
     <g id="text_41">
      <!-- 1.0 -->
      <g transform="translate(613.332 18.559219) scale(0.1 -0.1)">
       <use xlink:href="#DejaVuSans-31"/>
       <use xlink:href="#DejaVuSans-2e" x="63.623047"/>
       <use xlink:href="#DejaVuSans-30" x="95.410156"/>
      </g>
     </g>
    </g>
   </g>
   <g id="LineCollection_1"/>
   <g id="patch_14">
    <path d="M 596.568 210.04 
L 601.45 210.04 
L 606.332 210.04 
L 606.332 14.76 
L 601.45 14.76 
L 596.568 14.76 
L 596.568 210.04 
z
" style="fill: none; stroke: #000000; stroke-width: 0.8; stroke-linejoin: miter; stroke-linecap: square"/>
   </g>
  </g>
 </g>
 <defs>
  <clipPath id="pff236ab9a1">
   <rect x="50.87" y="14.76" width="270.88" height="195.28"/>
  </clipPath>
  <clipPath id="pd2cf372f6e">
   <rect x="366.32" y="14.76" width="216.704" height="195.28"/>
  </clipPath>
  <clipPath id="p237ae5ef97">
   <rect x="596.568" y="14.76" width="9.764" height="195.28"/>
  </clipPath>
 </defs>
</svg>
