<?xml version="1.0" encoding="utf-8" standalone="no"?>
<!DOCTYPE svg PUBLIC "-//W3C//DTD SVG 1.1//EN"
  "http://www.w3.org/Graphics/SVG/1.1/DTD/svg11.dtd">
<svg xmlns:xlink="http://www.w3.org/1999/xlink" width="648pt" height="252pt" viewBox="0 0 648 252" xmlns="http://www.w3.org/2000/svg" version="1.1">
 <metadata>
  <rdf:RDF xmlns:dc="http://purl.org/dc/elements/1.1/" xmlns:cc="http://creativecommons.org/ns#" xmlns:rdf="http://www.w3.org/1999/02/22-rdf-syntax-ns#">
   <cc:Work>
    <dc:type rdf:resource="http://purl.org/dc/dcmitype/StillImage"/>
    <dc:date>2023-12-05T09:43:20.959929</dc:date>
    <dc:format>image/svg+xml</dc:format>
    <dc:creator>
     <cc:Agent>
      <dc:title>Matplotlib v3.8.1, https://matplotlib.org/</dc:title>
     </cc:Agent>
    </dc:creator>
   </cc:Work>
  </rdf:RDF>
 </metadata>
 <defs>
  <style type="text/css">*{stroke-linejoin: round; stroke-linecap: butt}</style>
 </defs>
 <g id="figure_1">
  <g id="patch_1">
   <path d="M 0 252 
L 648 252 
L 648 0 
L 0 0 
z
" style="fill: #ffffff"/>
  </g>
  <g id="axes_1">
   <g id="patch_2">
    <path d="M 50.87 210.04 
L 321.75 210.04 
L 321.75 14.76 
L 50.87 14.76 
z
" style="fill: #ffffff"/>
   </g>
   <g id="PolyCollection_1">
    <defs>
     <path id="maf2516d17a" d="M 63.182727 -50.836364 
L 63.182727 -50.836364 
L 64.414 -61.995185 
L 65.645273 -71.840538 
L 66.876545 -80.691344 
L 68.107818 -88.638576 
L 69.339091 -95.832781 
L 70.570364 -102.321265 
L 71.801636 -108.212434 
L 73.032909 -113.629261 
L 74.264182 -118.638751 
L 75.495455 -123.130341 
L 76.726727 -127.500399 
L 77.958 -131.444749 
L 79.189273 -135.01154 
L 80.420545 -138.404094 
L 81.651818 -141.574609 
L 82.883091 -144.313883 
L 84.114364 -147.078765 
L 85.345636 -149.742163 
L 86.576909 -152.221588 
L 87.808182 -154.488216 
L 89.039455 -156.639117 
L 90.270727 -158.728316 
L 91.502 -160.693945 
L 92.733273 -162.52386 
L 93.964545 -164.208286 
L 95.195818 -165.740035 
L 96.427091 -167.281136 
L 97.658364 -168.765948 
L 98.889636 -170.113542 
L 100.120909 -171.508405 
L 101.352182 -172.835009 
L 102.583455 -174.001568 
L 103.814727 -175.147872 
L 105.046 -176.213917 
L 106.277273 -177.216678 
L 107.508545 -178.197024 
L 108.739818 -179.199902 
L 109.971091 -180.092181 
L 111.202364 -180.982378 
L 112.433636 -181.7641 
L 113.664909 -182.553642 
L 114.896182 -183.346996 
L 116.127455 -184.14161 
L 117.358727 -184.867948 
L 118.59 -185.589306 
L 119.821273 -186.264543 
L 121.052545 -186.912142 
L 122.283818 -187.432048 
L 123.515091 -187.948975 
L 124.746364 -188.524608 
L 125.977636 -188.997391 
L 127.208909 -189.44414 
L 128.440182 -189.981212 
L 129.671455 -190.513595 
L 130.902727 -190.960502 
L 132.134 -191.450636 
L 133.365273 -191.847686 
L 134.596545 -192.220968 
L 135.827818 -192.707318 
L 137.059091 -193.089497 
L 138.290364 -193.454898 
L 139.521636 -193.831952 
L 140.752909 -194.274616 
L 141.984182 -194.632789 
L 143.215455 -194.962144 
L 144.446727 -195.272319 
L 145.678 -195.60234 
L 146.909273 -195.896117 
L 148.140545 -196.202375 
L 149.371818 -196.469149 
L 150.603091 -196.751815 
L 151.834364 -197.032227 
L 153.065636 -197.273994 
L 154.296909 -197.504579 
L 155.528182 -197.759765 
L 156.759455 -198.042619 
L 157.990727 -198.272495 
L 159.222 -198.501986 
L 160.453273 -198.745259 
L 161.684545 -198.973573 
L 162.915818 -199.210377 
L 164.147091 -199.398636 
L 165.378364 -199.595682 
L 166.609636 -199.80897 
L 167.840909 -200.014752 
L 169.072182 -200.209921 
L 170.303455 -200.405702 
L 171.534727 -200.589843 
L 172.766 -200.774473 
L 173.997273 -200.958259 
L 175.228545 -201.132312 
L 176.459818 -201.306172 
L 177.691091 -201.476817 
L 178.922364 -201.645634 
L 180.153636 -201.814058 
L 181.384909 -201.979339 
L 182.616182 -202.141562 
L 183.847455 -202.300813 
L 185.078727 -202.457172 
L 186.31 -202.610717 
L 187.541273 -202.761524 
L 188.772545 -202.909666 
L 190.003818 -203.055211 
L 191.235091 -203.198229 
L 192.466364 -203.338784 
L 193.697636 -203.476939 
L 194.928909 -203.612755 
L 196.160182 -203.746291 
L 197.391455 -203.877605 
L 198.622727 -204.00675 
L 199.854 -204.133781 
L 201.085273 -204.258749 
L 202.316545 -204.376923 
L 203.547818 -204.478481 
L 204.779091 -204.578405 
L 206.010364 -204.695995 
L 207.241636 -204.817629 
L 208.472909 -204.938002 
L 209.704182 -205.056749 
L 210.935455 -205.173695 
L 212.166727 -205.287766 
L 213.398 -205.37174 
L 214.629273 -205.454437 
L 215.860545 -205.535887 
L 217.091818 -205.616118 
L 218.323091 -205.702644 
L 219.554364 -205.800511 
L 220.785636 -205.900634 
L 222.016909 -205.99933 
L 223.248182 -206.096631 
L 224.479455 -206.192565 
L 225.710727 -206.287162 
L 226.942 -206.380449 
L 228.173273 -206.470212 
L 229.404545 -206.549464 
L 230.635818 -206.62763 
L 231.867091 -206.704732 
L 233.098364 -206.780791 
L 234.329636 -206.856411 
L 235.560909 -206.936572 
L 236.792182 -207.016203 
L 238.023455 -207.110381 
L 239.254727 -207.192679 
L 240.486 -207.264913 
L 241.717273 -207.336217 
L 242.948545 -207.406607 
L 244.179818 -207.476102 
L 245.411091 -207.544718 
L 246.642364 -207.615924 
L 247.873636 -207.686492 
L 249.104909 -207.756187 
L 250.336182 -207.825026 
L 251.567455 -207.893024 
L 252.798727 -207.960197 
L 254.03 -208.02656 
L 255.261273 -208.092127 
L 256.492545 -208.155908 
L 257.723818 -208.214321 
L 258.955091 -208.272041 
L 260.186364 -208.329082 
L 261.417636 -208.385455 
L 262.648909 -208.441172 
L 263.880182 -208.496243 
L 265.111455 -208.551183 
L 266.342727 -208.608448 
L 267.574 -208.67325 
L 268.805273 -208.737328 
L 270.036545 -208.800694 
L 271.267818 -208.863361 
L 272.499091 -208.925339 
L 273.730364 -208.98666 
L 274.961636 -209.044402 
L 276.192909 -209.098842 
L 277.424182 -209.152695 
L 278.655455 -209.205967 
L 279.886727 -209.25867 
L 281.118 -209.310811 
L 282.349273 -209.362401 
L 283.580545 -209.413447 
L 284.811818 -209.463958 
L 286.043091 -209.513943 
L 287.274364 -209.56341 
L 288.505636 -209.612366 
L 289.736909 -209.661032 
L 290.968182 -209.714025 
L 292.199455 -209.766483 
L 293.430727 -209.818415 
L 294.662 -209.869827 
L 295.893273 -209.920728 
L 297.124545 -209.971126 
L 298.355818 -210.021027 
L 299.587091 -210.070085 
L 300.818364 -210.111599 
L 302.049636 -210.152706 
L 303.280909 -210.193412 
L 304.512182 -210.233723 
L 305.743455 -210.273646 
L 306.974727 -210.313184 
L 308.206 -210.351666 
L 308.206 -228.363636 
L 308.206 -228.363636 
L 306.974727 -228.300426 
L 305.743455 -228.23662 
L 304.512182 -228.172209 
L 303.280909 -228.107184 
L 302.049636 -228.041538 
L 300.818364 -227.975261 
L 299.587091 -227.908344 
L 298.355818 -227.840778 
L 297.124545 -227.772553 
L 295.893273 -227.703659 
L 294.662 -227.634087 
L 293.430727 -227.563812 
L 292.199455 -227.49285 
L 290.968182 -227.428079 
L 289.736909 -227.361643 
L 288.505636 -227.288421 
L 287.274364 -227.223007 
L 286.043091 -227.15692 
L 284.811818 -227.090149 
L 283.580545 -227.022554 
L 282.349273 -226.952034 
L 281.118 -226.877107 
L 279.886727 -226.800659 
L 278.655455 -226.712676 
L 277.424182 -226.637509 
L 276.192909 -226.562449 
L 274.961636 -226.486582 
L 273.730364 -226.408254 
L 272.499091 -226.327393 
L 271.267818 -226.24565 
L 270.036545 -226.163013 
L 268.805273 -226.079464 
L 267.574 -225.994991 
L 266.342727 -225.909576 
L 265.111455 -225.823204 
L 263.880182 -225.735859 
L 262.648909 -225.65658 
L 261.417636 -225.577657 
L 260.186364 -225.49782 
L 258.955091 -225.417053 
L 257.723818 -225.334454 
L 256.492545 -225.245298 
L 255.261273 -225.155091 
L 254.03 -225.063815 
L 252.798727 -224.971451 
L 251.567455 -224.87798 
L 250.336182 -224.782564 
L 249.104909 -224.685749 
L 247.873636 -224.587753 
L 246.642364 -224.484207 
L 245.411091 -224.389675 
L 244.179818 -224.2892 
L 242.948545 -224.171089 
L 241.717273 -224.043035 
L 240.486 -223.938388 
L 239.254727 -223.838239 
L 238.023455 -223.736798 
L 236.792182 -223.63344 
L 235.560909 -223.528674 
L 234.329636 -223.422531 
L 233.098364 -223.314982 
L 231.867091 -223.205352 
L 230.635818 -223.089388 
L 229.404545 -222.971866 
L 228.173273 -222.852754 
L 226.942 -222.731915 
L 225.710727 -222.602037 
L 224.479455 -222.448858 
L 223.248182 -222.292915 
L 222.016909 -222.152727 
L 220.785636 -222.027802 
L 219.554364 -221.900495 
L 218.323091 -221.774212 
L 217.091818 -221.648022 
L 215.860545 -221.523666 
L 214.629273 -221.39434 
L 213.398 -221.253628 
L 212.166727 -221.110486 
L 210.935455 -220.971669 
L 209.704182 -220.830316 
L 208.472909 -220.686809 
L 207.241636 -220.541097 
L 206.010364 -220.384978 
L 204.779091 -220.225248 
L 203.547818 -220.066521 
L 202.316545 -219.909211 
L 201.085273 -219.735993 
L 199.854 -219.549169 
L 198.622727 -219.376531 
L 197.391455 -219.211386 
L 196.160182 -219.034041 
L 194.928909 -218.861463 
L 193.697636 -218.685585 
L 192.466364 -218.507218 
L 191.235091 -218.325481 
L 190.003818 -218.135936 
L 188.772545 -217.942102 
L 187.541273 -217.744891 
L 186.31 -217.568428 
L 185.078727 -217.372609 
L 183.847455 -217.172295 
L 182.616182 -216.966846 
L 181.384909 -216.756836 
L 180.153636 -216.542952 
L 178.922364 -216.322433 
L 177.691091 -216.077653 
L 176.459818 -215.823484 
L 175.228545 -215.561625 
L 173.997273 -215.311921 
L 172.766 -215.048022 
L 171.534727 -214.798798 
L 170.303455 -214.562582 
L 169.072182 -214.306941 
L 167.840909 -214.041723 
L 166.609636 -213.771081 
L 165.378364 -213.493919 
L 164.147091 -213.173386 
L 162.915818 -212.7959 
L 161.684545 -212.496124 
L 160.453273 -212.189909 
L 159.222 -211.87787 
L 157.990727 -211.597612 
L 156.759455 -211.27349 
L 155.528182 -210.911751 
L 154.296909 -210.569989 
L 153.065636 -210.326406 
L 151.834364 -209.957382 
L 150.603091 -209.574935 
L 149.371818 -209.210309 
L 148.140545 -208.874219 
L 146.909273 -208.518029 
L 145.678 -208.122149 
L 144.446727 -207.717285 
L 143.215455 -207.302415 
L 141.984182 -206.895933 
L 140.752909 -206.543657 
L 139.521636 -206.139965 
L 138.290364 -205.732238 
L 137.059091 -205.239799 
L 135.827818 -204.729823 
L 134.596545 -204.216658 
L 133.365273 -203.712279 
L 132.134 -203.223145 
L 130.902727 -202.74255 
L 129.671455 -202.21281 
L 128.440182 -201.588616 
L 127.208909 -200.948994 
L 125.977636 -200.410384 
L 124.746364 -199.738672 
L 123.515091 -199.141194 
L 122.283818 -198.474578 
L 121.052545 -197.87731 
L 119.821273 -197.255567 
L 118.59 -196.530334 
L 117.358727 -195.753146 
L 116.127455 -195.044008 
L 114.896182 -194.270362 
L 113.664909 -193.467425 
L 112.433636 -192.727348 
L 111.202364 -191.941843 
L 109.971091 -191.097124 
L 108.739818 -190.197771 
L 107.508545 -189.281309 
L 106.277273 -188.306523 
L 105.046 -187.282609 
L 103.814727 -186.201442 
L 102.583455 -185.142458 
L 101.352182 -183.997549 
L 100.120909 -182.878758 
L 98.889636 -181.567265 
L 97.658364 -180.346963 
L 96.427091 -179.012103 
L 95.195818 -177.621334 
L 93.964545 -176.126998 
L 92.733273 -174.619797 
L 91.502 -172.976416 
L 90.270727 -171.228376 
L 89.039455 -169.440593 
L 87.808182 -167.527774 
L 86.576909 -165.319998 
L 85.345636 -163.200565 
L 84.114364 -160.772064 
L 82.883091 -158.219829 
L 81.651818 -155.477925 
L 80.420545 -152.544053 
L 79.189273 -149.374642 
L 77.958 -145.935153 
L 76.726727 -142.294181 
L 75.495455 -138.185192 
L 74.264182 -133.649222 
L 73.032909 -128.648704 
L 71.801636 -123.036288 
L 70.570364 -116.736043 
L 69.339091 -109.403311 
L 68.107818 -101.096553 
L 66.876545 -91.520774 
L 65.645273 -80.322037 
L 64.414 -66.998206 
L 63.182727 -50.836364 
z
" style="stroke: #ef553b; stroke-opacity: 0.3"/>
    </defs>
    <g clip-path="url(#pf8689ea9ed)">
     <use xlink:href="#maf2516d17a" x="0" y="252" style="fill: #ef553b; fill-opacity: 0.3; stroke: #ef553b; stroke-opacity: 0.3"/>
    </g>
   </g>
   <g id="matplotlib.axis_1">
    <g id="xtick_1">
     <g id="line2d_1">
      <defs>
       <path id="mff1163e391" d="M 0 0 
L 0 3.5 
" style="stroke: #000000; stroke-width: 0.8"/>
      </defs>
      <g>
       <use xlink:href="#mff1163e391" x="63.182727" y="210.04" style="stroke: #000000; stroke-width: 0.8"/>
      </g>
     </g>
     <g id="text_1">
      <!-- 0 -->
      <g transform="translate(60.001477 224.638438) scale(0.1 -0.1)">
       <defs>
        <path id="DejaVuSans-30" d="M 2034 4250 
Q 1547 4250 1301 3770 
Q 1056 3291 1056 2328 
Q 1056 1369 1301 889 
Q 1547 409 2034 409 
Q 2525 409 2770 889 
Q 3016 1369 3016 2328 
Q 3016 3291 2770 3770 
Q 2525 4250 2034 4250 
z
M 2034 4750 
Q 2819 4750 3233 4129 
Q 3647 3509 3647 2328 
Q 3647 1150 3233 529 
Q 2819 -91 2034 -91 
Q 1250 -91 836 529 
Q 422 1150 422 2328 
Q 422 3509 836 4129 
Q 1250 4750 2034 4750 
z
" transform="scale(0.015625)"/>
       </defs>
       <use xlink:href="#DejaVuSans-30"/>
      </g>
     </g>
    </g>
    <g id="xtick_2">
     <g id="line2d_2">
      <g>
       <use xlink:href="#mff1163e391" x="108.345645" y="210.04" style="stroke: #000000; stroke-width: 0.8"/>
      </g>
     </g>
     <g id="text_2">
      <!-- 50 -->
      <g transform="translate(101.983145 224.638438) scale(0.1 -0.1)">
       <defs>
        <path id="DejaVuSans-35" d="M 691 4666 
L 3169 4666 
L 3169 4134 
L 1269 4134 
L 1269 2991 
Q 1406 3038 1543 3061 
Q 1681 3084 1819 3084 
Q 2600 3084 3056 2656 
Q 3513 2228 3513 1497 
Q 3513 744 3044 326 
Q 2575 -91 1722 -91 
Q 1428 -91 1123 -41 
Q 819 9 494 109 
L 494 744 
Q 775 591 1075 516 
Q 1375 441 1709 441 
Q 2250 441 2565 725 
Q 2881 1009 2881 1497 
Q 2881 1984 2565 2268 
Q 2250 2553 1709 2553 
Q 1456 2553 1204 2497 
Q 953 2441 691 2322 
L 691 4666 
z
" transform="scale(0.015625)"/>
       </defs>
       <use xlink:href="#DejaVuSans-35"/>
       <use xlink:href="#DejaVuSans-30" x="63.623047"/>
      </g>
     </g>
    </g>
    <g id="xtick_3">
     <g id="line2d_3">
      <g>
       <use xlink:href="#mff1163e391" x="153.508563" y="210.04" style="stroke: #000000; stroke-width: 0.8"/>
      </g>
     </g>
     <g id="text_3">
      <!-- 100 -->
      <g transform="translate(143.964813 224.638438) scale(0.1 -0.1)">
       <defs>
        <path id="DejaVuSans-31" d="M 794 531 
L 1825 531 
L 1825 4091 
L 703 3866 
L 703 4441 
L 1819 4666 
L 2450 4666 
L 2450 531 
L 3481 531 
L 3481 0 
L 794 0 
L 794 531 
z
" transform="scale(0.015625)"/>
       </defs>
       <use xlink:href="#DejaVuSans-31"/>
       <use xlink:href="#DejaVuSans-30" x="63.623047"/>
       <use xlink:href="#DejaVuSans-30" x="127.246094"/>
      </g>
     </g>
    </g>
    <g id="xtick_4">
     <g id="line2d_4">
      <g>
       <use xlink:href="#mff1163e391" x="198.671481" y="210.04" style="stroke: #000000; stroke-width: 0.8"/>
      </g>
     </g>
     <g id="text_4">
      <!-- 150 -->
      <g transform="translate(189.127731 224.638438) scale(0.1 -0.1)">
       <use xlink:href="#DejaVuSans-31"/>
       <use xlink:href="#DejaVuSans-35" x="63.623047"/>
       <use xlink:href="#DejaVuSans-30" x="127.246094"/>
      </g>
     </g>
    </g>
    <g id="xtick_5">
     <g id="line2d_5">
      <g>
       <use xlink:href="#mff1163e391" x="243.834399" y="210.04" style="stroke: #000000; stroke-width: 0.8"/>
      </g>
     </g>
     <g id="text_5">
      <!-- 200 -->
      <g transform="translate(234.290649 224.638438) scale(0.1 -0.1)">
       <defs>
        <path id="DejaVuSans-32" d="M 1228 531 
L 3431 531 
L 3431 0 
L 469 0 
L 469 531 
Q 828 903 1448 1529 
Q 2069 2156 2228 2338 
Q 2531 2678 2651 2914 
Q 2772 3150 2772 3378 
Q 2772 3750 2511 3984 
Q 2250 4219 1831 4219 
Q 1534 4219 1204 4116 
Q 875 4013 500 3803 
L 500 4441 
Q 881 4594 1212 4672 
Q 1544 4750 1819 4750 
Q 2544 4750 2975 4387 
Q 3406 4025 3406 3419 
Q 3406 3131 3298 2873 
Q 3191 2616 2906 2266 
Q 2828 2175 2409 1742 
Q 1991 1309 1228 531 
z
" transform="scale(0.015625)"/>
       </defs>
       <use xlink:href="#DejaVuSans-32"/>
       <use xlink:href="#DejaVuSans-30" x="63.623047"/>
       <use xlink:href="#DejaVuSans-30" x="127.246094"/>
      </g>
     </g>
    </g>
    <g id="xtick_6">
     <g id="line2d_6">
      <g>
       <use xlink:href="#mff1163e391" x="288.997317" y="210.04" style="stroke: #000000; stroke-width: 0.8"/>
      </g>
     </g>
     <g id="text_6">
      <!-- 250 -->
      <g transform="translate(279.453567 224.638438) scale(0.1 -0.1)">
       <use xlink:href="#DejaVuSans-32"/>
       <use xlink:href="#DejaVuSans-35" x="63.623047"/>
       <use xlink:href="#DejaVuSans-30" x="127.246094"/>
      </g>
     </g>
    </g>
    <g id="text_7">
     <!-- concentration -->
     <g transform="translate(151.681094 238.316563) scale(0.1 -0.1)">
      <defs>
       <path id="DejaVuSans-63" d="M 3122 3366 
L 3122 2828 
Q 2878 2963 2633 3030 
Q 2388 3097 2138 3097 
Q 1578 3097 1268 2742 
Q 959 2388 959 1747 
Q 959 1106 1268 751 
Q 1578 397 2138 397 
Q 2388 397 2633 464 
Q 2878 531 3122 666 
L 3122 134 
Q 2881 22 2623 -34 
Q 2366 -91 2075 -91 
Q 1284 -91 818 406 
Q 353 903 353 1747 
Q 353 2603 823 3093 
Q 1294 3584 2113 3584 
Q 2378 3584 2631 3529 
Q 2884 3475 3122 3366 
z
" transform="scale(0.015625)"/>
       <path id="DejaVuSans-6f" d="M 1959 3097 
Q 1497 3097 1228 2736 
Q 959 2375 959 1747 
Q 959 1119 1226 758 
Q 1494 397 1959 397 
Q 2419 397 2687 759 
Q 2956 1122 2956 1747 
Q 2956 2369 2687 2733 
Q 2419 3097 1959 3097 
z
M 1959 3584 
Q 2709 3584 3137 3096 
Q 3566 2609 3566 1747 
Q 3566 888 3137 398 
Q 2709 -91 1959 -91 
Q 1206 -91 779 398 
Q 353 888 353 1747 
Q 353 2609 779 3096 
Q 1206 3584 1959 3584 
z
" transform="scale(0.015625)"/>
       <path id="DejaVuSans-6e" d="M 3513 2113 
L 3513 0 
L 2938 0 
L 2938 2094 
Q 2938 2591 2744 2837 
Q 2550 3084 2163 3084 
Q 1697 3084 1428 2787 
Q 1159 2491 1159 1978 
L 1159 0 
L 581 0 
L 581 3500 
L 1159 3500 
L 1159 2956 
Q 1366 3272 1645 3428 
Q 1925 3584 2291 3584 
Q 2894 3584 3203 3211 
Q 3513 2838 3513 2113 
z
" transform="scale(0.015625)"/>
       <path id="DejaVuSans-65" d="M 3597 1894 
L 3597 1613 
L 953 1613 
Q 991 1019 1311 708 
Q 1631 397 2203 397 
Q 2534 397 2845 478 
Q 3156 559 3463 722 
L 3463 178 
Q 3153 47 2828 -22 
Q 2503 -91 2169 -91 
Q 1331 -91 842 396 
Q 353 884 353 1716 
Q 353 2575 817 3079 
Q 1281 3584 2069 3584 
Q 2775 3584 3186 3129 
Q 3597 2675 3597 1894 
z
M 3022 2063 
Q 3016 2534 2758 2815 
Q 2500 3097 2075 3097 
Q 1594 3097 1305 2825 
Q 1016 2553 972 2059 
L 3022 2063 
z
" transform="scale(0.015625)"/>
       <path id="DejaVuSans-74" d="M 1172 4494 
L 1172 3500 
L 2356 3500 
L 2356 3053 
L 1172 3053 
L 1172 1153 
Q 1172 725 1289 603 
Q 1406 481 1766 481 
L 2356 481 
L 2356 0 
L 1766 0 
Q 1100 0 847 248 
Q 594 497 594 1153 
L 594 3053 
L 172 3053 
L 172 3500 
L 594 3500 
L 594 4494 
L 1172 4494 
z
" transform="scale(0.015625)"/>
       <path id="DejaVuSans-72" d="M 2631 2963 
Q 2534 3019 2420 3045 
Q 2306 3072 2169 3072 
Q 1681 3072 1420 2755 
Q 1159 2438 1159 1844 
L 1159 0 
L 581 0 
L 581 3500 
L 1159 3500 
L 1159 2956 
Q 1341 3275 1631 3429 
Q 1922 3584 2338 3584 
Q 2397 3584 2469 3576 
Q 2541 3569 2628 3553 
L 2631 2963 
z
" transform="scale(0.015625)"/>
       <path id="DejaVuSans-61" d="M 2194 1759 
Q 1497 1759 1228 1600 
Q 959 1441 959 1056 
Q 959 750 1161 570 
Q 1363 391 1709 391 
Q 2188 391 2477 730 
Q 2766 1069 2766 1631 
L 2766 1759 
L 2194 1759 
z
M 3341 1997 
L 3341 0 
L 2766 0 
L 2766 531 
Q 2569 213 2275 61 
Q 1981 -91 1556 -91 
Q 1019 -91 701 211 
Q 384 513 384 1019 
Q 384 1609 779 1909 
Q 1175 2209 1959 2209 
L 2766 2209 
L 2766 2266 
Q 2766 2663 2505 2880 
Q 2244 3097 1772 3097 
Q 1472 3097 1187 3025 
Q 903 2953 641 2809 
L 641 3341 
Q 956 3463 1253 3523 
Q 1550 3584 1831 3584 
Q 2591 3584 2966 3190 
Q 3341 2797 3341 1997 
z
" transform="scale(0.015625)"/>
       <path id="DejaVuSans-69" d="M 603 3500 
L 1178 3500 
L 1178 0 
L 603 0 
L 603 3500 
z
M 603 4863 
L 1178 4863 
L 1178 4134 
L 603 4134 
L 603 4863 
z
" transform="scale(0.015625)"/>
      </defs>
      <use xlink:href="#DejaVuSans-63"/>
      <use xlink:href="#DejaVuSans-6f" x="54.980469"/>
      <use xlink:href="#DejaVuSans-6e" x="116.162109"/>
      <use xlink:href="#DejaVuSans-63" x="179.541016"/>
      <use xlink:href="#DejaVuSans-65" x="234.521484"/>
      <use xlink:href="#DejaVuSans-6e" x="296.044922"/>
      <use xlink:href="#DejaVuSans-74" x="359.423828"/>
      <use xlink:href="#DejaVuSans-72" x="398.632812"/>
      <use xlink:href="#DejaVuSans-61" x="439.746094"/>
      <use xlink:href="#DejaVuSans-74" x="501.025391"/>
      <use xlink:href="#DejaVuSans-69" x="540.234375"/>
      <use xlink:href="#DejaVuSans-6f" x="568.017578"/>
      <use xlink:href="#DejaVuSans-6e" x="629.199219"/>
     </g>
    </g>
   </g>
   <g id="matplotlib.axis_2">
    <g id="ytick_1">
     <g id="line2d_7">
      <defs>
       <path id="mfb57d31046" d="M 0 0 
L -3.5 0 
" style="stroke: #000000; stroke-width: 0.8"/>
      </defs>
      <g>
       <use xlink:href="#mfb57d31046" x="50.87" y="201.163636" style="stroke: #000000; stroke-width: 0.8"/>
      </g>
     </g>
     <g id="text_8">
      <!-- 0 -->
      <g transform="translate(37.5075 204.962855) scale(0.1 -0.1)">
       <use xlink:href="#DejaVuSans-30"/>
      </g>
     </g>
    </g>
    <g id="ytick_2">
     <g id="line2d_8">
      <g>
       <use xlink:href="#mfb57d31046" x="50.87" y="177.767338" style="stroke: #000000; stroke-width: 0.8"/>
      </g>
     </g>
     <g id="text_9">
      <!-- 25 -->
      <g transform="translate(31.145 181.566557) scale(0.1 -0.1)">
       <use xlink:href="#DejaVuSans-32"/>
       <use xlink:href="#DejaVuSans-35" x="63.623047"/>
      </g>
     </g>
    </g>
    <g id="ytick_3">
     <g id="line2d_9">
      <g>
       <use xlink:href="#mfb57d31046" x="50.87" y="154.37104" style="stroke: #000000; stroke-width: 0.8"/>
      </g>
     </g>
     <g id="text_10">
      <!-- 50 -->
      <g transform="translate(31.145 158.170259) scale(0.1 -0.1)">
       <use xlink:href="#DejaVuSans-35"/>
       <use xlink:href="#DejaVuSans-30" x="63.623047"/>
      </g>
     </g>
    </g>
    <g id="ytick_4">
     <g id="line2d_10">
      <g>
       <use xlink:href="#mfb57d31046" x="50.87" y="130.974742" style="stroke: #000000; stroke-width: 0.8"/>
      </g>
     </g>
     <g id="text_11">
      <!-- 75 -->
      <g transform="translate(31.145 134.773961) scale(0.1 -0.1)">
       <defs>
        <path id="DejaVuSans-37" d="M 525 4666 
L 3525 4666 
L 3525 4397 
L 1831 0 
L 1172 0 
L 2766 4134 
L 525 4134 
L 525 4666 
z
" transform="scale(0.015625)"/>
       </defs>
       <use xlink:href="#DejaVuSans-37"/>
       <use xlink:href="#DejaVuSans-35" x="63.623047"/>
      </g>
     </g>
    </g>
    <g id="ytick_5">
     <g id="line2d_11">
      <g>
       <use xlink:href="#mfb57d31046" x="50.87" y="107.578444" style="stroke: #000000; stroke-width: 0.8"/>
      </g>
     </g>
     <g id="text_12">
      <!-- 100 -->
      <g transform="translate(24.7825 111.377662) scale(0.1 -0.1)">
       <use xlink:href="#DejaVuSans-31"/>
       <use xlink:href="#DejaVuSans-30" x="63.623047"/>
       <use xlink:href="#DejaVuSans-30" x="127.246094"/>
      </g>
     </g>
    </g>
    <g id="ytick_6">
     <g id="line2d_12">
      <g>
       <use xlink:href="#mfb57d31046" x="50.87" y="84.182146" style="stroke: #000000; stroke-width: 0.8"/>
      </g>
     </g>
     <g id="text_13">
      <!-- 125 -->
      <g transform="translate(24.7825 87.981364) scale(0.1 -0.1)">
       <use xlink:href="#DejaVuSans-31"/>
       <use xlink:href="#DejaVuSans-32" x="63.623047"/>
       <use xlink:href="#DejaVuSans-35" x="127.246094"/>
      </g>
     </g>
    </g>
    <g id="ytick_7">
     <g id="line2d_13">
      <g>
       <use xlink:href="#mfb57d31046" x="50.87" y="60.785847" style="stroke: #000000; stroke-width: 0.8"/>
      </g>
     </g>
     <g id="text_14">
      <!-- 150 -->
      <g transform="translate(24.7825 64.585066) scale(0.1 -0.1)">
       <use xlink:href="#DejaVuSans-31"/>
       <use xlink:href="#DejaVuSans-35" x="63.623047"/>
       <use xlink:href="#DejaVuSans-30" x="127.246094"/>
      </g>
     </g>
    </g>
    <g id="ytick_8">
     <g id="line2d_14">
      <g>
       <use xlink:href="#mfb57d31046" x="50.87" y="37.389549" style="stroke: #000000; stroke-width: 0.8"/>
      </g>
     </g>
     <g id="text_15">
      <!-- 175 -->
      <g transform="translate(24.7825 41.188768) scale(0.1 -0.1)">
       <use xlink:href="#DejaVuSans-31"/>
       <use xlink:href="#DejaVuSans-37" x="63.623047"/>
       <use xlink:href="#DejaVuSans-35" x="127.246094"/>
      </g>
     </g>
    </g>
    <g id="text_16">
     <!-- flux -->
     <g transform="translate(18.702813 121.677344) rotate(-90) scale(0.1 -0.1)">
      <defs>
       <path id="DejaVuSans-66" d="M 2375 4863 
L 2375 4384 
L 1825 4384 
Q 1516 4384 1395 4259 
Q 1275 4134 1275 3809 
L 1275 3500 
L 2222 3500 
L 2222 3053 
L 1275 3053 
L 1275 0 
L 697 0 
L 697 3053 
L 147 3053 
L 147 3500 
L 697 3500 
L 697 3744 
Q 697 4328 969 4595 
Q 1241 4863 1831 4863 
L 2375 4863 
z
" transform="scale(0.015625)"/>
       <path id="DejaVuSans-6c" d="M 603 4863 
L 1178 4863 
L 1178 0 
L 603 0 
L 603 4863 
z
" transform="scale(0.015625)"/>
       <path id="DejaVuSans-75" d="M 544 1381 
L 544 3500 
L 1119 3500 
L 1119 1403 
Q 1119 906 1312 657 
Q 1506 409 1894 409 
Q 2359 409 2629 706 
Q 2900 1003 2900 1516 
L 2900 3500 
L 3475 3500 
L 3475 0 
L 2900 0 
L 2900 538 
Q 2691 219 2414 64 
Q 2138 -91 1772 -91 
Q 1169 -91 856 284 
Q 544 659 544 1381 
z
M 1991 3584 
L 1991 3584 
z
" transform="scale(0.015625)"/>
       <path id="DejaVuSans-78" d="M 3513 3500 
L 2247 1797 
L 3578 0 
L 2900 0 
L 1881 1375 
L 863 0 
L 184 0 
L 1544 1831 
L 300 3500 
L 978 3500 
L 1906 2253 
L 2834 3500 
L 3513 3500 
z
" transform="scale(0.015625)"/>
      </defs>
      <use xlink:href="#DejaVuSans-66"/>
      <use xlink:href="#DejaVuSans-6c" x="35.205078"/>
      <use xlink:href="#DejaVuSans-75" x="62.988281"/>
      <use xlink:href="#DejaVuSans-78" x="126.367188"/>
     </g>
    </g>
   </g>
   <g id="line2d_15">
    <defs>
     <path id="mbf719b4d9b" d="M 0 2.5 
C 0.663008 2.5 1.29895 2.236584 1.767767 1.767767 
C 2.236584 1.29895 2.5 0.663008 2.5 0 
C 2.5 -0.663008 2.236584 -1.29895 1.767767 -1.767767 
C 1.29895 -2.236584 0.663008 -2.5 0 -2.5 
C -0.663008 -2.5 -1.29895 -2.236584 -1.767767 -1.767767 
C -2.236584 -1.29895 -2.5 -0.663008 -2.5 0 
C -2.5 0.663008 -2.236584 1.29895 -1.767767 1.767767 
C -1.29895 2.236584 -0.663008 2.5 0 2.5 
z
" style="stroke: #23612b"/>
    </defs>
    <g clip-path="url(#pf8689ea9ed)">
     <use xlink:href="#mbf719b4d9b" x="182.166459" y="60.586129" style="fill: #4fa15a; stroke: #23612b"/>
     <use xlink:href="#mbf719b4d9b" x="179.14003" y="38.787134" style="fill: #4fa15a; stroke: #23612b"/>
     <use xlink:href="#mbf719b4d9b" x="190.508248" y="50.934689" style="fill: #4fa15a; stroke: #23612b"/>
     <use xlink:href="#mbf719b4d9b" x="63.182727" y="197.696192" style="fill: #4fa15a; stroke: #23612b"/>
     <use xlink:href="#mbf719b4d9b" x="63.182727" y="197.078398" style="fill: #4fa15a; stroke: #23612b"/>
     <use xlink:href="#mbf719b4d9b" x="63.182727" y="197.735297" style="fill: #4fa15a; stroke: #23612b"/>
     <use xlink:href="#mbf719b4d9b" x="307.432044" y="31.596706" style="fill: #4fa15a; stroke: #23612b"/>
     <use xlink:href="#mbf719b4d9b" x="302.947007" y="43.041401" style="fill: #4fa15a; stroke: #23612b"/>
     <use xlink:href="#mbf719b4d9b" x="309.437273" y="30.9697" style="fill: #4fa15a; stroke: #23612b"/>
     <use xlink:href="#mbf719b4d9b" x="108.381372" y="65.433092" style="fill: #4fa15a; stroke: #23612b"/>
     <use xlink:href="#mbf719b4d9b" x="107.487813" y="36.400076" style="fill: #4fa15a; stroke: #23612b"/>
     <use xlink:href="#mbf719b4d9b" x="106.173461" y="36.055393" style="fill: #4fa15a; stroke: #23612b"/>
     <use xlink:href="#mbf719b4d9b" x="90.772046" y="71.28084" style="fill: #4fa15a; stroke: #23612b"/>
     <use xlink:href="#mbf719b4d9b" x="90.658566" y="75.887656" style="fill: #4fa15a; stroke: #23612b"/>
     <use xlink:href="#mbf719b4d9b" x="90.800826" y="84.39124" style="fill: #4fa15a; stroke: #23612b"/>
     <use xlink:href="#mbf719b4d9b" x="67.284522" y="167.859082" style="fill: #4fa15a; stroke: #23612b"/>
     <use xlink:href="#mbf719b4d9b" x="68.402846" y="141.177684" style="fill: #4fa15a; stroke: #23612b"/>
     <use xlink:href="#mbf719b4d9b" x="69.255905" y="137.567528" style="fill: #4fa15a; stroke: #23612b"/>
     <use xlink:href="#mbf719b4d9b" x="92.244886" y="96.19861" style="fill: #4fa15a; stroke: #23612b"/>
     <use xlink:href="#mbf719b4d9b" x="80.441174" y="141.310652" style="fill: #4fa15a; stroke: #23612b"/>
     <use xlink:href="#mbf719b4d9b" x="78.64508" y="148.352365" style="fill: #4fa15a; stroke: #23612b"/>
    </g>
   </g>
   <g id="line2d_16">
    <path d="M 63.182727 201.163636 
L 64.414 187.827091 
L 65.645273 176.340294 
L 66.876545 166.343368 
L 68.107818 157.564106 
L 69.339091 149.792805 
L 70.570364 142.8653 
L 71.801636 136.651241 
L 73.032909 131.045812 
L 75.495455 121.335077 
L 77.958 113.214973 
L 80.420545 106.324263 
L 82.883091 100.403398 
L 85.345636 95.261086 
L 87.808182 90.753238 
L 90.270727 86.769257 
L 92.733273 83.222837 
L 95.195818 80.045645 
L 97.658364 77.182872 
L 100.120909 74.590045 
L 102.583455 72.230702 
L 106.277273 69.064846 
L 109.971091 66.275728 
L 113.664909 63.799878 
L 117.358727 61.587324 
L 121.052545 59.598185 
L 125.977636 57.238737 
L 130.902727 55.159259 
L 135.827818 53.312711 
L 141.984182 51.276363 
L 148.140545 49.490119 
L 155.528182 47.616341 
L 162.915818 45.983254 
L 171.534727 44.324635 
L 181.384909 42.691324 
L 191.235091 41.282485 
L 202.316545 39.912372 
L 214.629273 38.603616 
L 229.404545 37.267481 
L 245.411091 36.045579 
L 263.880182 34.860733 
L 284.811818 33.741224 
L 308.206 32.703062 
L 308.206 32.703062 
" clip-path="url(#pf8689ea9ed)" style="fill: none; stroke: #ef553b; stroke-width: 1.5; stroke-linecap: square"/>
   </g>
   <g id="patch_3">
    <path d="M 50.87 210.04 
L 50.87 14.76 
" style="fill: none; stroke: #000000; stroke-width: 0.8; stroke-linejoin: miter; stroke-linecap: square"/>
   </g>
   <g id="patch_4">
    <path d="M 321.75 210.04 
L 321.75 14.76 
" style="fill: none; stroke: #000000; stroke-width: 0.8; stroke-linejoin: miter; stroke-linecap: square"/>
   </g>
   <g id="patch_5">
    <path d="M 50.87 210.04 
L 321.75 210.04 
" style="fill: none; stroke: #000000; stroke-width: 0.8; stroke-linejoin: miter; stroke-linecap: square"/>
   </g>
   <g id="patch_6">
    <path d="M 50.87 14.76 
L 321.75 14.76 
" style="fill: none; stroke: #000000; stroke-width: 0.8; stroke-linejoin: miter; stroke-linecap: square"/>
   </g>
   <g id="legend_1">
    <g id="patch_7">
     <path d="M 201.403125 205.04 
L 314.75 205.04 
Q 316.75 205.04 316.75 203.04 
L 316.75 174.68375 
Q 316.75 172.68375 314.75 172.68375 
L 201.403125 172.68375 
Q 199.403125 172.68375 199.403125 174.68375 
L 199.403125 203.04 
Q 199.403125 205.04 201.403125 205.04 
z
" style="fill: #ffffff; opacity: 0.8; stroke: #cccccc; stroke-linejoin: miter"/>
    </g>
    <g id="line2d_17">
     <g>
      <use xlink:href="#mbf719b4d9b" x="213.403125" y="180.782188" style="fill: #4fa15a; stroke: #23612b"/>
     </g>
    </g>
    <g id="text_17">
     <!-- data -->
     <g transform="translate(231.403125 184.282188) scale(0.1 -0.1)">
      <defs>
       <path id="DejaVuSans-64" d="M 2906 2969 
L 2906 4863 
L 3481 4863 
L 3481 0 
L 2906 0 
L 2906 525 
Q 2725 213 2448 61 
Q 2172 -91 1784 -91 
Q 1150 -91 751 415 
Q 353 922 353 1747 
Q 353 2572 751 3078 
Q 1150 3584 1784 3584 
Q 2172 3584 2448 3432 
Q 2725 3281 2906 2969 
z
M 947 1747 
Q 947 1113 1208 752 
Q 1469 391 1925 391 
Q 2381 391 2643 752 
Q 2906 1113 2906 1747 
Q 2906 2381 2643 2742 
Q 2381 3103 1925 3103 
Q 1469 3103 1208 2742 
Q 947 2381 947 1747 
z
" transform="scale(0.015625)"/>
      </defs>
      <use xlink:href="#DejaVuSans-64"/>
      <use xlink:href="#DejaVuSans-61" x="63.476562"/>
      <use xlink:href="#DejaVuSans-74" x="124.755859"/>
      <use xlink:href="#DejaVuSans-61" x="163.964844"/>
     </g>
    </g>
    <g id="line2d_18">
     <path d="M 203.403125 195.460313 
L 213.403125 195.460313 
L 223.403125 195.460313 
" style="fill: none; stroke: #ef553b; stroke-width: 1.5; stroke-linecap: square"/>
    </g>
    <g id="text_18">
     <!-- best fit (95% CI) -->
     <g transform="translate(231.403125 198.960313) scale(0.1 -0.1)">
      <defs>
       <path id="DejaVuSans-62" d="M 3116 1747 
Q 3116 2381 2855 2742 
Q 2594 3103 2138 3103 
Q 1681 3103 1420 2742 
Q 1159 2381 1159 1747 
Q 1159 1113 1420 752 
Q 1681 391 2138 391 
Q 2594 391 2855 752 
Q 3116 1113 3116 1747 
z
M 1159 2969 
Q 1341 3281 1617 3432 
Q 1894 3584 2278 3584 
Q 2916 3584 3314 3078 
Q 3713 2572 3713 1747 
Q 3713 922 3314 415 
Q 2916 -91 2278 -91 
Q 1894 -91 1617 61 
Q 1341 213 1159 525 
L 1159 0 
L 581 0 
L 581 4863 
L 1159 4863 
L 1159 2969 
z
" transform="scale(0.015625)"/>
       <path id="DejaVuSans-73" d="M 2834 3397 
L 2834 2853 
Q 2591 2978 2328 3040 
Q 2066 3103 1784 3103 
Q 1356 3103 1142 2972 
Q 928 2841 928 2578 
Q 928 2378 1081 2264 
Q 1234 2150 1697 2047 
L 1894 2003 
Q 2506 1872 2764 1633 
Q 3022 1394 3022 966 
Q 3022 478 2636 193 
Q 2250 -91 1575 -91 
Q 1294 -91 989 -36 
Q 684 19 347 128 
L 347 722 
Q 666 556 975 473 
Q 1284 391 1588 391 
Q 1994 391 2212 530 
Q 2431 669 2431 922 
Q 2431 1156 2273 1281 
Q 2116 1406 1581 1522 
L 1381 1569 
Q 847 1681 609 1914 
Q 372 2147 372 2553 
Q 372 3047 722 3315 
Q 1072 3584 1716 3584 
Q 2034 3584 2315 3537 
Q 2597 3491 2834 3397 
z
" transform="scale(0.015625)"/>
       <path id="DejaVuSans-20" transform="scale(0.015625)"/>
       <path id="DejaVuSans-28" d="M 1984 4856 
Q 1566 4138 1362 3434 
Q 1159 2731 1159 2009 
Q 1159 1288 1364 580 
Q 1569 -128 1984 -844 
L 1484 -844 
Q 1016 -109 783 600 
Q 550 1309 550 2009 
Q 550 2706 781 3412 
Q 1013 4119 1484 4856 
L 1984 4856 
z
" transform="scale(0.015625)"/>
       <path id="DejaVuSans-39" d="M 703 97 
L 703 672 
Q 941 559 1184 500 
Q 1428 441 1663 441 
Q 2288 441 2617 861 
Q 2947 1281 2994 2138 
Q 2813 1869 2534 1725 
Q 2256 1581 1919 1581 
Q 1219 1581 811 2004 
Q 403 2428 403 3163 
Q 403 3881 828 4315 
Q 1253 4750 1959 4750 
Q 2769 4750 3195 4129 
Q 3622 3509 3622 2328 
Q 3622 1225 3098 567 
Q 2575 -91 1691 -91 
Q 1453 -91 1209 -44 
Q 966 3 703 97 
z
M 1959 2075 
Q 2384 2075 2632 2365 
Q 2881 2656 2881 3163 
Q 2881 3666 2632 3958 
Q 2384 4250 1959 4250 
Q 1534 4250 1286 3958 
Q 1038 3666 1038 3163 
Q 1038 2656 1286 2365 
Q 1534 2075 1959 2075 
z
" transform="scale(0.015625)"/>
       <path id="DejaVuSans-25" d="M 4653 2053 
Q 4381 2053 4226 1822 
Q 4072 1591 4072 1178 
Q 4072 772 4226 539 
Q 4381 306 4653 306 
Q 4919 306 5073 539 
Q 5228 772 5228 1178 
Q 5228 1588 5073 1820 
Q 4919 2053 4653 2053 
z
M 4653 2450 
Q 5147 2450 5437 2106 
Q 5728 1763 5728 1178 
Q 5728 594 5436 251 
Q 5144 -91 4653 -91 
Q 4153 -91 3862 251 
Q 3572 594 3572 1178 
Q 3572 1766 3864 2108 
Q 4156 2450 4653 2450 
z
M 1428 4353 
Q 1159 4353 1004 4120 
Q 850 3888 850 3481 
Q 850 3069 1003 2837 
Q 1156 2606 1428 2606 
Q 1700 2606 1854 2837 
Q 2009 3069 2009 3481 
Q 2009 3884 1853 4118 
Q 1697 4353 1428 4353 
z
M 4250 4750 
L 4750 4750 
L 1831 -91 
L 1331 -91 
L 4250 4750 
z
M 1428 4750 
Q 1922 4750 2215 4408 
Q 2509 4066 2509 3481 
Q 2509 2891 2217 2550 
Q 1925 2209 1428 2209 
Q 931 2209 642 2551 
Q 353 2894 353 3481 
Q 353 4063 643 4406 
Q 934 4750 1428 4750 
z
" transform="scale(0.015625)"/>
       <path id="DejaVuSans-43" d="M 4122 4306 
L 4122 3641 
Q 3803 3938 3442 4084 
Q 3081 4231 2675 4231 
Q 1875 4231 1450 3742 
Q 1025 3253 1025 2328 
Q 1025 1406 1450 917 
Q 1875 428 2675 428 
Q 3081 428 3442 575 
Q 3803 722 4122 1019 
L 4122 359 
Q 3791 134 3420 21 
Q 3050 -91 2638 -91 
Q 1578 -91 968 557 
Q 359 1206 359 2328 
Q 359 3453 968 4101 
Q 1578 4750 2638 4750 
Q 3056 4750 3426 4639 
Q 3797 4528 4122 4306 
z
" transform="scale(0.015625)"/>
       <path id="DejaVuSans-49" d="M 628 4666 
L 1259 4666 
L 1259 0 
L 628 0 
L 628 4666 
z
" transform="scale(0.015625)"/>
       <path id="DejaVuSans-29" d="M 513 4856 
L 1013 4856 
Q 1481 4119 1714 3412 
Q 1947 2706 1947 2009 
Q 1947 1309 1714 600 
Q 1481 -109 1013 -844 
L 513 -844 
Q 928 -128 1133 580 
Q 1338 1288 1338 2009 
Q 1338 2731 1133 3434 
Q 928 4138 513 4856 
z
" transform="scale(0.015625)"/>
      </defs>
      <use xlink:href="#DejaVuSans-62"/>
      <use xlink:href="#DejaVuSans-65" x="63.476562"/>
      <use xlink:href="#DejaVuSans-73" x="125"/>
      <use xlink:href="#DejaVuSans-74" x="177.099609"/>
      <use xlink:href="#DejaVuSans-20" x="216.308594"/>
      <use xlink:href="#DejaVuSans-66" x="248.095703"/>
      <use xlink:href="#DejaVuSans-69" x="283.300781"/>
      <use xlink:href="#DejaVuSans-74" x="311.083984"/>
      <use xlink:href="#DejaVuSans-20" x="350.292969"/>
      <use xlink:href="#DejaVuSans-28" x="382.080078"/>
      <use xlink:href="#DejaVuSans-39" x="421.09375"/>
      <use xlink:href="#DejaVuSans-35" x="484.716797"/>
      <use xlink:href="#DejaVuSans-25" x="548.339844"/>
      <use xlink:href="#DejaVuSans-20" x="643.359375"/>
      <use xlink:href="#DejaVuSans-43" x="675.146484"/>
      <use xlink:href="#DejaVuSans-49" x="744.970703"/>
      <use xlink:href="#DejaVuSans-29" x="774.462891"/>
     </g>
    </g>
   </g>
  </g>
  <g id="axes_2">
   <g id="patch_8">
    <path d="M 366.32 210.04 
L 583.024 210.04 
L 583.024 14.76 
L 366.32 14.76 
z
" style="fill: #ffffff"/>
   </g>
   <g id="QuadContourSet_1">
    <path clip-path="url(#p0c775fe293)" style="fill: #471365"/>
    <path d="M 472.460735 115.59702 
L 474.314407 114.392653 
L 472.460735 112.68634 
L 471.039392 114.392653 
z
M 476.883265 112.091391 
L 478.33023 110.407347 
L 476.883265 109.084725 
L 474.974544 110.407347 
z
" clip-path="url(#p0c775fe293)" style="fill: #463480"/>
    <path d="M 472.460735 116.952685 
L 476.400947 114.392653 
L 476.883265 113.960577 
L 479.936272 110.407347 
L 476.883265 107.616694 
L 472.85598 110.407347 
L 472.460735 110.765672 
L 469.439492 114.392653 
z
M 471.039392 114.392653 
L 472.460735 112.68634 
L 474.314407 114.392653 
L 472.460735 115.59702 
z
M 474.974544 110.407347 
L 476.883265 109.084725 
L 478.33023 110.407347 
L 476.883265 112.091391 
z
" clip-path="url(#p0c775fe293)" style="fill: #3b528b"/>
    <path d="M 468.038204 119.405542 
L 472.124447 118.377959 
L 472.460735 118.30835 
L 476.883265 115.276771 
L 477.914107 114.392653 
L 481.305796 110.626594 
L 481.50358 110.407347 
L 482.85187 106.422041 
L 481.305796 104.944803 
L 476.883265 106.184621 
L 476.561801 106.422041 
L 472.460735 109.390834 
L 471.360471 110.407347 
L 468.038204 114.20092 
L 467.872908 114.392653 
L 466.713519 118.377959 
z
M 469.439492 114.392653 
L 472.460735 110.765672 
L 472.85598 110.407347 
L 476.883265 107.616694 
L 479.936272 110.407347 
L 476.883265 113.960577 
L 476.400947 114.392653 
L 472.460735 116.952685 
z
" clip-path="url(#p0c775fe293)" style="fill: #2f6c8e"/>
    <path d="M 468.038204 121.052533 
L 472.460735 119.427726 
L 474.046618 118.377959 
L 476.883265 116.426703 
L 479.254877 114.392653 
L 481.305796 112.115356 
L 482.846601 110.407347 
L 484.942018 106.422041 
L 481.305796 102.947715 
L 476.883265 104.909677 
L 474.835542 106.422041 
L 472.460735 108.141182 
L 470.00786 110.407347 
L 468.038204 112.656424 
L 466.541374 114.392653 
L 464.590339 118.377959 
z
M 466.713519 118.377959 
L 467.872908 114.392653 
L 468.038204 114.20092 
L 471.360471 110.407347 
L 472.460735 109.390834 
L 476.561801 106.422041 
L 476.883265 106.184621 
L 481.305796 104.944803 
L 482.85187 106.422041 
L 481.50358 110.407347 
L 481.305796 110.626594 
L 477.914107 114.392653 
L 476.883265 115.276771 
L 472.460735 118.30835 
L 472.124447 118.377959 
L 468.038204 119.405542 
z
" clip-path="url(#p0c775fe293)" style="fill: #25848e"/>
    <path d="M 463.615673 122.899408 
L 468.038204 122.601679 
L 468.524446 122.363265 
L 472.460735 120.534312 
L 475.718338 118.377959 
L 476.883265 117.576636 
L 480.595647 114.392653 
L 481.305796 113.604119 
L 484.189622 110.407347 
L 485.728327 107.826977 
L 486.662727 106.422041 
L 487.232582 102.436735 
L 485.728327 100.897979 
L 481.305796 101.349366 
L 479.351289 102.436735 
L 476.883265 103.634733 
L 473.109283 106.422041 
L 472.460735 106.89153 
L 468.655249 110.407347 
L 468.038204 111.111927 
L 465.209839 114.392653 
L 463.615673 117.137688 
L 462.819295 118.377959 
L 462.848774 122.363265 
z
M 464.590339 118.377959 
L 466.541374 114.392653 
L 468.038204 112.656424 
L 470.00786 110.407347 
L 472.460735 108.141182 
L 474.835542 106.422041 
L 476.883265 104.909677 
L 481.305796 102.947715 
L 484.942018 106.422041 
L 482.846601 110.407347 
L 481.305796 112.115356 
L 479.254877 114.392653 
L 476.883265 116.426703 
L 474.046618 118.377959 
L 472.460735 119.427726 
L 468.038204 121.052533 
z
" clip-path="url(#p0c775fe293)" style="fill: #1e9c89"/>
    <path d="M 463.615673 124.683449 
L 468.038204 123.769422 
L 470.90605 122.363265 
L 472.460735 121.640898 
L 476.883265 118.707451 
L 477.310679 118.377959 
L 481.305796 114.959983 
L 481.924702 114.392653 
L 485.532643 110.407347 
L 485.728327 110.079191 
L 488.160637 106.422041 
L 489.643358 102.436735 
L 485.804829 98.451429 
L 485.728327 98.437904 
L 485.69301 98.451429 
L 481.305796 99.888118 
L 476.883265 102.358172 
L 476.779563 102.436735 
L 472.460735 105.629101 
L 471.557052 106.422041 
L 468.038204 109.678805 
L 467.316228 110.407347 
L 463.878305 114.392653 
L 463.615673 114.844885 
L 461.347087 118.377959 
L 460.296875 122.363265 
z
M 462.848774 122.363265 
L 462.819295 118.377959 
L 463.615673 117.137688 
L 465.209839 114.392653 
L 468.038204 111.111927 
L 468.655249 110.407347 
L 472.460735 106.89153 
L 473.109283 106.422041 
L 476.883265 103.634733 
L 479.351289 102.436735 
L 481.305796 101.349366 
L 485.728327 100.897979 
L 487.232582 102.436735 
L 486.662727 106.422041 
L 485.728327 107.826977 
L 484.189622 110.407347 
L 481.305796 113.604119 
L 480.595647 114.392653 
L 476.883265 117.576636 
L 475.718338 118.377959 
L 472.460735 120.534312 
L 468.524446 122.363265 
L 468.038204 122.601679 
L 463.615673 122.899408 
z
" clip-path="url(#p0c775fe293)" style="fill: #2fb47c"/>
    <path d="M 463.615673 126.430687 
L 463.846826 126.348571 
L 468.038204 124.937166 
L 472.460735 122.728127 
L 473.027187 122.363265 
L 476.883265 119.794322 
L 478.720558 118.377959 
L 481.305796 116.166188 
L 483.240565 114.392653 
L 485.728327 111.6477 
L 486.860956 110.407347 
L 489.658547 106.422041 
L 490.150857 105.250617 
L 491.476955 102.436735 
L 491.590121 98.451429 
L 490.150857 96.857589 
L 485.728327 96.729102 
L 481.305796 98.427825 
L 481.268962 98.451429 
L 476.883265 101.056428 
L 475.061269 102.436735 
L 472.460735 104.358983 
L 470.109548 106.422041 
L 468.038204 108.339111 
L 465.988609 110.407347 
L 463.615673 113.157481 
L 462.560756 114.392653 
L 459.874878 118.377959 
L 459.193143 120.168715 
L 458.249769 122.363265 
L 459.193143 125.815278 
L 461.705485 126.348571 
z
M 460.296875 122.363265 
L 461.347087 118.377959 
L 463.615673 114.844885 
L 463.878305 114.392653 
L 467.316228 110.407347 
L 468.038204 109.678805 
L 471.557052 106.422041 
L 472.460735 105.629101 
L 476.779563 102.436735 
L 476.883265 102.358172 
L 481.305796 99.888118 
L 485.69301 98.451429 
L 485.728327 98.437904 
L 485.804829 98.451429 
L 489.643358 102.436735 
L 488.160637 106.422041 
L 485.728327 110.079191 
L 485.532643 110.407347 
L 481.924702 114.392653 
L 481.305796 114.959983 
L 477.310679 118.377959 
L 476.883265 118.707451 
L 472.460735 121.640898 
L 470.90605 122.363265 
L 468.038204 123.769422 
L 463.615673 124.683449 
z
" clip-path="url(#p0c775fe293)" style="fill: #5ec962"/>
    <path d="M 459.193143 128.010705 
L 463.615673 127.662593 
L 467.314613 126.348571 
L 468.038204 126.104909 
L 472.460735 123.778963 
L 474.65862 122.363265 
L 476.883265 120.881193 
L 480.130437 118.377959 
L 481.305796 117.372394 
L 484.556428 114.392653 
L 485.728327 113.099601 
L 488.186761 110.407347 
L 490.150857 107.664846 
L 491.090031 106.422041 
L 493.156649 102.436735 
L 494.205177 98.451429 
L 491.321126 94.466122 
L 490.150857 94.120734 
L 488.60548 94.466122 
L 485.728327 95.0203 
L 481.305796 97.023405 
L 479.077387 98.451429 
L 476.883265 99.754685 
L 473.342976 102.436735 
L 472.460735 103.088864 
L 468.662045 106.422041 
L 468.038204 106.999418 
L 464.66099 110.407347 
L 463.615673 111.618825 
L 461.246642 114.392653 
L 459.193143 117.358788 
L 458.459303 118.377959 
L 456.587395 122.363265 
L 456.530413 126.348571 
z
M 461.705485 126.348571 
L 459.193143 125.815278 
L 458.249769 122.363265 
L 459.193143 120.168715 
L 459.874878 118.377959 
L 462.560756 114.392653 
L 463.615673 113.157481 
L 465.988609 110.407347 
L 468.038204 108.339111 
L 470.109548 106.422041 
L 472.460735 104.358983 
L 475.061269 102.436735 
L 476.883265 101.056428 
L 481.268962 98.451429 
L 481.305796 98.427825 
L 485.728327 96.729102 
L 490.150857 96.857589 
L 491.590121 98.451429 
L 491.476955 102.436735 
L 490.150857 105.250617 
L 489.658547 106.422041 
L 486.860956 110.407347 
L 485.728327 111.6477 
L 483.240565 114.392653 
L 481.305796 116.166188 
L 478.720558 118.377959 
L 476.883265 119.794322 
L 473.027187 122.363265 
L 472.460735 122.728127 
L 468.038204 124.937166 
L 463.846826 126.348571 
L 463.615673 126.430687 
z
" clip-path="url(#p0c775fe293)" style="fill: #9bd93c"/>
    <path d="M 454.770612 128.023807 
L 459.193143 129.832559 
L 463.615673 128.894499 
L 468.038204 127.182826 
L 469.602927 126.348571 
L 472.460735 124.829798 
L 476.290053 122.363265 
L 476.883265 121.968063 
L 481.305796 118.562779 
L 481.530066 118.377959 
L 485.728327 114.527927 
L 485.871649 114.392653 
L 489.512565 110.407347 
L 490.150857 109.516089 
L 492.488994 106.422041 
L 494.573388 102.815658 
L 494.808283 102.436735 
L 496.160334 98.451429 
L 495.989622 94.466122 
L 494.573388 92.758981 
L 490.150857 92.137932 
L 485.728327 93.416153 
L 483.731585 94.466122 
L 481.305796 95.618985 
L 476.885813 98.451429 
L 476.883265 98.452942 
L 472.460735 101.800343 
L 471.72456 102.436735 
L 468.038204 105.6675 
L 467.250669 106.422041 
L 463.615673 110.108857 
L 463.334619 110.407347 
L 459.932529 114.392653 
L 459.193143 115.460644 
L 457.092572 118.377959 
L 454.925021 122.363265 
L 454.770612 123.118836 
L 454.029788 126.348571 
z
M 456.530413 126.348571 
L 456.587395 122.363265 
L 458.459303 118.377959 
L 459.193143 117.358788 
L 461.246642 114.392653 
L 463.615673 111.618825 
L 464.66099 110.407347 
L 468.038204 106.999418 
L 468.662045 106.422041 
L 472.460735 103.088864 
L 473.342976 102.436735 
L 476.883265 99.754685 
L 479.077387 98.451429 
L 481.305796 97.023405 
L 485.728327 95.0203 
L 488.60548 94.466122 
L 490.150857 94.120734 
L 491.321126 94.466122 
L 494.205177 98.451429 
L 493.156649 102.436735 
L 491.090031 106.422041 
L 490.150857 107.664846 
L 488.186761 110.407347 
L 485.728327 113.099601 
L 484.556428 114.392653 
L 481.305796 117.372394 
L 480.130437 118.377959 
L 476.883265 120.881193 
L 474.65862 122.363265 
L 472.460735 123.778963 
L 468.038204 126.104909 
L 467.314613 126.348571 
L 463.615673 127.662593 
L 459.193143 128.010705 
z
" clip-path="url(#p0c775fe293)" style="fill: #dfe318"/>
   </g>
   <g id="matplotlib.axis_3">
    <g id="xtick_7">
     <g id="line2d_19">
      <g>
       <use xlink:href="#mff1163e391" x="369.613514" y="210.04" style="stroke: #000000; stroke-width: 0.8"/>
      </g>
     </g>
     <g id="text_19">
      <!-- 140 -->
      <g transform="translate(360.069764 224.638438) scale(0.1 -0.1)">
       <defs>
        <path id="DejaVuSans-34" d="M 2419 4116 
L 825 1625 
L 2419 1625 
L 2419 4116 
z
M 2253 4666 
L 3047 4666 
L 3047 1625 
L 3713 1625 
L 3713 1100 
L 3047 1100 
L 3047 0 
L 2419 0 
L 2419 1100 
L 313 1100 
L 313 1709 
L 2253 4666 
z
" transform="scale(0.015625)"/>
       </defs>
       <use xlink:href="#DejaVuSans-31"/>
       <use xlink:href="#DejaVuSans-34" x="63.623047"/>
       <use xlink:href="#DejaVuSans-30" x="127.246094"/>
      </g>
     </g>
    </g>
    <g id="xtick_8">
     <g id="line2d_20">
      <g>
       <use xlink:href="#mff1163e391" x="410.618157" y="210.04" style="stroke: #000000; stroke-width: 0.8"/>
      </g>
     </g>
     <g id="text_20">
      <!-- 160 -->
      <g transform="translate(401.074407 224.638438) scale(0.1 -0.1)">
       <defs>
        <path id="DejaVuSans-36" d="M 2113 2584 
Q 1688 2584 1439 2293 
Q 1191 2003 1191 1497 
Q 1191 994 1439 701 
Q 1688 409 2113 409 
Q 2538 409 2786 701 
Q 3034 994 3034 1497 
Q 3034 2003 2786 2293 
Q 2538 2584 2113 2584 
z
M 3366 4563 
L 3366 3988 
Q 3128 4100 2886 4159 
Q 2644 4219 2406 4219 
Q 1781 4219 1451 3797 
Q 1122 3375 1075 2522 
Q 1259 2794 1537 2939 
Q 1816 3084 2150 3084 
Q 2853 3084 3261 2657 
Q 3669 2231 3669 1497 
Q 3669 778 3244 343 
Q 2819 -91 2113 -91 
Q 1303 -91 875 529 
Q 447 1150 447 2328 
Q 447 3434 972 4092 
Q 1497 4750 2381 4750 
Q 2619 4750 2861 4703 
Q 3103 4656 3366 4563 
z
" transform="scale(0.015625)"/>
       </defs>
       <use xlink:href="#DejaVuSans-31"/>
       <use xlink:href="#DejaVuSans-36" x="63.623047"/>
       <use xlink:href="#DejaVuSans-30" x="127.246094"/>
      </g>
     </g>
    </g>
    <g id="xtick_9">
     <g id="line2d_21">
      <g>
       <use xlink:href="#mff1163e391" x="451.622801" y="210.04" style="stroke: #000000; stroke-width: 0.8"/>
      </g>
     </g>
     <g id="text_21">
      <!-- 180 -->
      <g transform="translate(442.079051 224.638438) scale(0.1 -0.1)">
       <defs>
        <path id="DejaVuSans-38" d="M 2034 2216 
Q 1584 2216 1326 1975 
Q 1069 1734 1069 1313 
Q 1069 891 1326 650 
Q 1584 409 2034 409 
Q 2484 409 2743 651 
Q 3003 894 3003 1313 
Q 3003 1734 2745 1975 
Q 2488 2216 2034 2216 
z
M 1403 2484 
Q 997 2584 770 2862 
Q 544 3141 544 3541 
Q 544 4100 942 4425 
Q 1341 4750 2034 4750 
Q 2731 4750 3128 4425 
Q 3525 4100 3525 3541 
Q 3525 3141 3298 2862 
Q 3072 2584 2669 2484 
Q 3125 2378 3379 2068 
Q 3634 1759 3634 1313 
Q 3634 634 3220 271 
Q 2806 -91 2034 -91 
Q 1263 -91 848 271 
Q 434 634 434 1313 
Q 434 1759 690 2068 
Q 947 2378 1403 2484 
z
M 1172 3481 
Q 1172 3119 1398 2916 
Q 1625 2713 2034 2713 
Q 2441 2713 2670 2916 
Q 2900 3119 2900 3481 
Q 2900 3844 2670 4047 
Q 2441 4250 2034 4250 
Q 1625 4250 1398 4047 
Q 1172 3844 1172 3481 
z
" transform="scale(0.015625)"/>
       </defs>
       <use xlink:href="#DejaVuSans-31"/>
       <use xlink:href="#DejaVuSans-38" x="63.623047"/>
       <use xlink:href="#DejaVuSans-30" x="127.246094"/>
      </g>
     </g>
    </g>
    <g id="xtick_10">
     <g id="line2d_22">
      <g>
       <use xlink:href="#mff1163e391" x="492.627445" y="210.04" style="stroke: #000000; stroke-width: 0.8"/>
      </g>
     </g>
     <g id="text_22">
      <!-- 200 -->
      <g transform="translate(483.083695 224.638438) scale(0.1 -0.1)">
       <use xlink:href="#DejaVuSans-32"/>
       <use xlink:href="#DejaVuSans-30" x="63.623047"/>
       <use xlink:href="#DejaVuSans-30" x="127.246094"/>
      </g>
     </g>
    </g>
    <g id="xtick_11">
     <g id="line2d_23">
      <g>
       <use xlink:href="#mff1163e391" x="533.632089" y="210.04" style="stroke: #000000; stroke-width: 0.8"/>
      </g>
     </g>
     <g id="text_23">
      <!-- 220 -->
      <g transform="translate(524.088339 224.638438) scale(0.1 -0.1)">
       <use xlink:href="#DejaVuSans-32"/>
       <use xlink:href="#DejaVuSans-32" x="63.623047"/>
       <use xlink:href="#DejaVuSans-30" x="127.246094"/>
      </g>
     </g>
    </g>
    <g id="xtick_12">
     <g id="line2d_24">
      <g>
       <use xlink:href="#mff1163e391" x="574.636732" y="210.04" style="stroke: #000000; stroke-width: 0.8"/>
      </g>
     </g>
     <g id="text_24">
      <!-- 240 -->
      <g transform="translate(565.092982 224.638438) scale(0.1 -0.1)">
       <use xlink:href="#DejaVuSans-32"/>
       <use xlink:href="#DejaVuSans-34" x="63.623047"/>
       <use xlink:href="#DejaVuSans-30" x="127.246094"/>
      </g>
     </g>
    </g>
    <g id="text_25">
     <!-- vmax -->
     <g transform="translate(460.818875 238.316563) scale(0.1 -0.1)">
      <defs>
       <path id="DejaVuSans-76" d="M 191 3500 
L 800 3500 
L 1894 563 
L 2988 3500 
L 3597 3500 
L 2284 0 
L 1503 0 
L 191 3500 
z
" transform="scale(0.015625)"/>
       <path id="DejaVuSans-6d" d="M 3328 2828 
Q 3544 3216 3844 3400 
Q 4144 3584 4550 3584 
Q 5097 3584 5394 3201 
Q 5691 2819 5691 2113 
L 5691 0 
L 5113 0 
L 5113 2094 
Q 5113 2597 4934 2840 
Q 4756 3084 4391 3084 
Q 3944 3084 3684 2787 
Q 3425 2491 3425 1978 
L 3425 0 
L 2847 0 
L 2847 2094 
Q 2847 2600 2669 2842 
Q 2491 3084 2119 3084 
Q 1678 3084 1418 2786 
Q 1159 2488 1159 1978 
L 1159 0 
L 581 0 
L 581 3500 
L 1159 3500 
L 1159 2956 
Q 1356 3278 1631 3431 
Q 1906 3584 2284 3584 
Q 2666 3584 2933 3390 
Q 3200 3197 3328 2828 
z
" transform="scale(0.015625)"/>
      </defs>
      <use xlink:href="#DejaVuSans-76"/>
      <use xlink:href="#DejaVuSans-6d" x="59.179688"/>
      <use xlink:href="#DejaVuSans-61" x="156.591797"/>
      <use xlink:href="#DejaVuSans-78" x="217.871094"/>
     </g>
    </g>
   </g>
   <g id="matplotlib.axis_4">
    <g id="ytick_9">
     <g id="line2d_25">
      <g>
       <use xlink:href="#mfb57d31046" x="366.32" y="202.340097" style="stroke: #000000; stroke-width: 0.8"/>
      </g>
     </g>
     <g id="text_26">
      <!-- 0 -->
      <g transform="translate(352.9575 206.139316) scale(0.1 -0.1)">
       <use xlink:href="#DejaVuSans-30"/>
      </g>
     </g>
    </g>
    <g id="ytick_10">
     <g id="line2d_26">
      <g>
       <use xlink:href="#mfb57d31046" x="366.32" y="175.777851" style="stroke: #000000; stroke-width: 0.8"/>
      </g>
     </g>
     <g id="text_27">
      <!-- 5 -->
      <g transform="translate(352.9575 179.57707) scale(0.1 -0.1)">
       <use xlink:href="#DejaVuSans-35"/>
      </g>
     </g>
    </g>
    <g id="ytick_11">
     <g id="line2d_27">
      <g>
       <use xlink:href="#mfb57d31046" x="366.32" y="149.215605" style="stroke: #000000; stroke-width: 0.8"/>
      </g>
     </g>
     <g id="text_28">
      <!-- 10 -->
      <g transform="translate(346.595 153.014823) scale(0.1 -0.1)">
       <use xlink:href="#DejaVuSans-31"/>
       <use xlink:href="#DejaVuSans-30" x="63.623047"/>
      </g>
     </g>
    </g>
    <g id="ytick_12">
     <g id="line2d_28">
      <g>
       <use xlink:href="#mfb57d31046" x="366.32" y="122.653358" style="stroke: #000000; stroke-width: 0.8"/>
      </g>
     </g>
     <g id="text_29">
      <!-- 15 -->
      <g transform="translate(346.595 126.452577) scale(0.1 -0.1)">
       <use xlink:href="#DejaVuSans-31"/>
       <use xlink:href="#DejaVuSans-35" x="63.623047"/>
      </g>
     </g>
    </g>
    <g id="ytick_13">
     <g id="line2d_29">
      <g>
       <use xlink:href="#mfb57d31046" x="366.32" y="96.091112" style="stroke: #000000; stroke-width: 0.8"/>
      </g>
     </g>
     <g id="text_30">
      <!-- 20 -->
      <g transform="translate(346.595 99.890331) scale(0.1 -0.1)">
       <use xlink:href="#DejaVuSans-32"/>
       <use xlink:href="#DejaVuSans-30" x="63.623047"/>
      </g>
     </g>
    </g>
    <g id="ytick_14">
     <g id="line2d_30">
      <g>
       <use xlink:href="#mfb57d31046" x="366.32" y="69.528866" style="stroke: #000000; stroke-width: 0.8"/>
      </g>
     </g>
     <g id="text_31">
      <!-- 25 -->
      <g transform="translate(346.595 73.328084) scale(0.1 -0.1)">
       <use xlink:href="#DejaVuSans-32"/>
       <use xlink:href="#DejaVuSans-35" x="63.623047"/>
      </g>
     </g>
    </g>
    <g id="ytick_15">
     <g id="line2d_31">
      <g>
       <use xlink:href="#mfb57d31046" x="366.32" y="42.966619" style="stroke: #000000; stroke-width: 0.8"/>
      </g>
     </g>
     <g id="text_32">
      <!-- 30 -->
      <g transform="translate(346.595 46.765838) scale(0.1 -0.1)">
       <defs>
        <path id="DejaVuSans-33" d="M 2597 2516 
Q 3050 2419 3304 2112 
Q 3559 1806 3559 1356 
Q 3559 666 3084 287 
Q 2609 -91 1734 -91 
Q 1441 -91 1130 -33 
Q 819 25 488 141 
L 488 750 
Q 750 597 1062 519 
Q 1375 441 1716 441 
Q 2309 441 2620 675 
Q 2931 909 2931 1356 
Q 2931 1769 2642 2001 
Q 2353 2234 1838 2234 
L 1294 2234 
L 1294 2753 
L 1863 2753 
Q 2328 2753 2575 2939 
Q 2822 3125 2822 3475 
Q 2822 3834 2567 4026 
Q 2313 4219 1838 4219 
Q 1578 4219 1281 4162 
Q 984 4106 628 3988 
L 628 4550 
Q 988 4650 1302 4700 
Q 1616 4750 1894 4750 
Q 2613 4750 3031 4423 
Q 3450 4097 3450 3541 
Q 3450 3153 3228 2886 
Q 3006 2619 2597 2516 
z
" transform="scale(0.015625)"/>
       </defs>
       <use xlink:href="#DejaVuSans-33"/>
       <use xlink:href="#DejaVuSans-30" x="63.623047"/>
      </g>
     </g>
    </g>
    <g id="ytick_16">
     <g id="line2d_32">
      <g>
       <use xlink:href="#mfb57d31046" x="366.32" y="16.404373" style="stroke: #000000; stroke-width: 0.8"/>
      </g>
     </g>
     <g id="text_33">
      <!-- 35 -->
      <g transform="translate(346.595 20.203592) scale(0.1 -0.1)">
       <use xlink:href="#DejaVuSans-33"/>
       <use xlink:href="#DejaVuSans-35" x="63.623047"/>
      </g>
     </g>
    </g>
    <g id="text_34">
     <!-- km -->
     <g transform="translate(340.515312 120.165625) rotate(-90) scale(0.1 -0.1)">
      <defs>
       <path id="DejaVuSans-6b" d="M 581 4863 
L 1159 4863 
L 1159 1991 
L 2875 3500 
L 3609 3500 
L 1753 1863 
L 3688 0 
L 2938 0 
L 1159 1709 
L 1159 0 
L 581 0 
L 581 4863 
z
" transform="scale(0.015625)"/>
      </defs>
      <use xlink:href="#DejaVuSans-6b"/>
      <use xlink:href="#DejaVuSans-6d" x="57.910156"/>
     </g>
    </g>
   </g>
   <g id="patch_9">
    <path d="M 366.32 210.04 
L 366.32 14.76 
" style="fill: none; stroke: #000000; stroke-width: 0.8; stroke-linejoin: miter; stroke-linecap: square"/>
   </g>
   <g id="patch_10">
    <path d="M 583.024 210.04 
L 583.024 14.76 
" style="fill: none; stroke: #000000; stroke-width: 0.8; stroke-linejoin: miter; stroke-linecap: square"/>
   </g>
   <g id="patch_11">
    <path d="M 366.32 210.04 
L 583.024 210.04 
" style="fill: none; stroke: #000000; stroke-width: 0.8; stroke-linejoin: miter; stroke-linecap: square"/>
   </g>
   <g id="patch_12">
    <path d="M 366.32 14.76 
L 583.024 14.76 
" style="fill: none; stroke: #000000; stroke-width: 0.8; stroke-linejoin: miter; stroke-linecap: square"/>
   </g>
  </g>
  <g id="axes_3">
   <g id="patch_13">
    <path d="M 596.568 210.04 
L 606.332 210.04 
L 606.332 14.76 
L 596.568 14.76 
z
" style="fill: #ffffff"/>
   </g>
   <g id="QuadMesh_1">
    <path d="M 596.568 210.04 
L 606.332 210.04 
L 606.332 190.512 
L 596.568 190.512 
L 596.568 210.04 
" clip-path="url(#pd378e36611)" style="fill: #471365"/>
    <path d="M 596.568 190.512 
L 606.332 190.512 
L 606.332 170.984 
L 596.568 170.984 
L 596.568 190.512 
" clip-path="url(#pd378e36611)" style="fill: #463480"/>
    <path d="M 596.568 170.984 
L 606.332 170.984 
L 606.332 151.456 
L 596.568 151.456 
L 596.568 170.984 
" clip-path="url(#pd378e36611)" style="fill: #3b528b"/>
    <path d="M 596.568 151.456 
L 606.332 151.456 
L 606.332 131.928 
L 596.568 131.928 
L 596.568 151.456 
" clip-path="url(#pd378e36611)" style="fill: #2f6c8e"/>
    <path d="M 596.568 131.928 
L 606.332 131.928 
L 606.332 112.4 
L 596.568 112.4 
L 596.568 131.928 
" clip-path="url(#pd378e36611)" style="fill: #25848e"/>
    <path d="M 596.568 112.4 
L 606.332 112.4 
L 606.332 92.872 
L 596.568 92.872 
L 596.568 112.4 
" clip-path="url(#pd378e36611)" style="fill: #1e9c89"/>
    <path d="M 596.568 92.872 
L 606.332 92.872 
L 606.332 73.344 
L 596.568 73.344 
L 596.568 92.872 
" clip-path="url(#pd378e36611)" style="fill: #2fb47c"/>
    <path d="M 596.568 73.344 
L 606.332 73.344 
L 606.332 53.816 
L 596.568 53.816 
L 596.568 73.344 
" clip-path="url(#pd378e36611)" style="fill: #5ec962"/>
    <path d="M 596.568 53.816 
L 606.332 53.816 
L 606.332 34.288 
L 596.568 34.288 
L 596.568 53.816 
" clip-path="url(#pd378e36611)" style="fill: #9bd93c"/>
    <path d="M 596.568 34.288 
L 606.332 34.288 
L 606.332 14.76 
L 596.568 14.76 
L 596.568 34.288 
" clip-path="url(#pd378e36611)" style="fill: #dfe318"/>
   </g>
   <g id="matplotlib.axis_5"/>
   <g id="matplotlib.axis_6">
    <g id="ytick_17">
     <g id="line2d_33">
      <defs>
       <path id="m0dbce8127f" d="M 0 0 
L 3.5 0 
" style="stroke: #000000; stroke-width: 0.8"/>
      </defs>
      <g>
       <use xlink:href="#m0dbce8127f" x="606.332" y="210.04" style="stroke: #000000; stroke-width: 0.8"/>
      </g>
     </g>
     <g id="text_35">
      <!-- 0.0 -->
      <g transform="translate(613.332 213.839219) scale(0.1 -0.1)">
       <defs>
        <path id="DejaVuSans-2e" d="M 684 794 
L 1344 794 
L 1344 0 
L 684 0 
L 684 794 
z
" transform="scale(0.015625)"/>
       </defs>
       <use xlink:href="#DejaVuSans-30"/>
       <use xlink:href="#DejaVuSans-2e" x="63.623047"/>
       <use xlink:href="#DejaVuSans-30" x="95.410156"/>
      </g>
     </g>
    </g>
    <g id="ytick_18">
     <g id="line2d_34">
      <g>
       <use xlink:href="#m0dbce8127f" x="606.332" y="170.984" style="stroke: #000000; stroke-width: 0.8"/>
      </g>
     </g>
     <g id="text_36">
      <!-- 0.2 -->
      <g transform="translate(613.332 174.783219) scale(0.1 -0.1)">
       <use xlink:href="#DejaVuSans-30"/>
       <use xlink:href="#DejaVuSans-2e" x="63.623047"/>
       <use xlink:href="#DejaVuSans-32" x="95.410156"/>
      </g>
     </g>
    </g>
    <g id="ytick_19">
     <g id="line2d_35">
      <g>
       <use xlink:href="#m0dbce8127f" x="606.332" y="131.928" style="stroke: #000000; stroke-width: 0.8"/>
      </g>
     </g>
     <g id="text_37">
      <!-- 0.4 -->
      <g transform="translate(613.332 135.727219) scale(0.1 -0.1)">
       <use xlink:href="#DejaVuSans-30"/>
       <use xlink:href="#DejaVuSans-2e" x="63.623047"/>
       <use xlink:href="#DejaVuSans-34" x="95.410156"/>
      </g>
     </g>
    </g>
    <g id="ytick_20">
     <g id="line2d_36">
      <g>
       <use xlink:href="#m0dbce8127f" x="606.332" y="92.872" style="stroke: #000000; stroke-width: 0.8"/>
      </g>
     </g>
     <g id="text_38">
      <!-- 0.6 -->
      <g transform="translate(613.332 96.671219) scale(0.1 -0.1)">
       <use xlink:href="#DejaVuSans-30"/>
       <use xlink:href="#DejaVuSans-2e" x="63.623047"/>
       <use xlink:href="#DejaVuSans-36" x="95.410156"/>
      </g>
     </g>
    </g>
    <g id="ytick_21">
     <g id="line2d_37">
      <g>
       <use xlink:href="#m0dbce8127f" x="606.332" y="53.816" style="stroke: #000000; stroke-width: 0.8"/>
      </g>
     </g>
     <g id="text_39">
      <!-- 0.8 -->
      <g transform="translate(613.332 57.615219) scale(0.1 -0.1)">
       <use xlink:href="#DejaVuSans-30"/>
       <use xlink:href="#DejaVuSans-2e" x="63.623047"/>
       <use xlink:href="#DejaVuSans-38" x="95.410156"/>
      </g>
     </g>
    </g>
    <g id="ytick_22">
     <g id="line2d_38">
      <g>
       <use xlink:href="#m0dbce8127f" x="606.332" y="14.76" style="stroke: #000000; stroke-width: 0.8"/>
      </g>
     </g>
     <g id="text_40">
      <!-- 1.0 -->
      <g transform="translate(613.332 18.559219) scale(0.1 -0.1)">
       <use xlink:href="#DejaVuSans-31"/>
       <use xlink:href="#DejaVuSans-2e" x="63.623047"/>
       <use xlink:href="#DejaVuSans-30" x="95.410156"/>
      </g>
     </g>
    </g>
   </g>
   <g id="LineCollection_1"/>
   <g id="patch_14">
    <path d="M 596.568 210.04 
L 601.45 210.04 
L 606.332 210.04 
L 606.332 14.76 
L 601.45 14.76 
L 596.568 14.76 
L 596.568 210.04 
z
" style="fill: none; stroke: #000000; stroke-width: 0.8; stroke-linejoin: miter; stroke-linecap: square"/>
   </g>
  </g>
 </g>
 <defs>
  <clipPath id="pf8689ea9ed">
   <rect x="50.87" y="14.76" width="270.88" height="195.28"/>
  </clipPath>
  <clipPath id="p0c775fe293">
   <rect x="366.32" y="14.76" width="216.704" height="195.28"/>
  </clipPath>
  <clipPath id="pd378e36611">
   <rect x="596.568" y="14.76" width="9.764" height="195.28"/>
  </clipPath>
 </defs>
</svg>
