<?xml version="1.0" encoding="utf-8" standalone="no"?>
<!DOCTYPE svg PUBLIC "-//W3C//DTD SVG 1.1//EN"
  "http://www.w3.org/Graphics/SVG/1.1/DTD/svg11.dtd">
<svg xmlns:xlink="http://www.w3.org/1999/xlink" width="792pt" height="252pt" viewBox="0 0 792 252" xmlns="http://www.w3.org/2000/svg" version="1.1">
 <metadata>
  <rdf:RDF xmlns:dc="http://purl.org/dc/elements/1.1/" xmlns:cc="http://creativecommons.org/ns#" xmlns:rdf="http://www.w3.org/1999/02/22-rdf-syntax-ns#">
   <cc:Work>
    <dc:type rdf:resource="http://purl.org/dc/dcmitype/StillImage"/>
    <dc:date>2023-12-20T15:26:49.979948</dc:date>
    <dc:format>image/svg+xml</dc:format>
    <dc:creator>
     <cc:Agent>
      <dc:title>Matplotlib v3.8.1, https://matplotlib.org/</dc:title>
     </cc:Agent>
    </dc:creator>
   </cc:Work>
  </rdf:RDF>
 </metadata>
 <defs>
  <style type="text/css">*{stroke-linejoin: round; stroke-linecap: butt}</style>
 </defs>
 <g id="figure_1">
  <g id="patch_1">
   <path d="M 0 252 
L 792 252 
L 792 0 
L 0 0 
z
" style="fill: #ffffff"/>
  </g>
  <g id="axes_1">
   <g id="patch_2">
    <path d="M 48.62 210.04 
L 252.438275 210.04 
L 252.438275 14.76 
L 48.62 14.76 
z
" style="fill: #ffffff"/>
   </g>
   <g id="matplotlib.axis_1">
    <g id="xtick_1">
     <g id="line2d_1">
      <defs>
       <path id="m4d9ac48d50" d="M 0 0 
L 0 3.5 
" style="stroke: #262626; stroke-width: 0.8"/>
      </defs>
      <g>
       <use xlink:href="#m4d9ac48d50" x="57.884467" y="210.04" style="fill: #262626; stroke: #262626; stroke-width: 0.8"/>
      </g>
     </g>
     <g id="text_1">
      <!-- 0 -->
      <g style="fill: #262626" transform="translate(55.103998 224.197812) scale(0.1 -0.1)">
       <defs>
        <path id="ArialMT-30" d="M 266 2259 
Q 266 3072 433 3567 
Q 600 4063 929 4331 
Q 1259 4600 1759 4600 
Q 2128 4600 2406 4451 
Q 2684 4303 2865 4023 
Q 3047 3744 3150 3342 
Q 3253 2941 3253 2259 
Q 3253 1453 3087 958 
Q 2922 463 2592 192 
Q 2263 -78 1759 -78 
Q 1097 -78 719 397 
Q 266 969 266 2259 
z
M 844 2259 
Q 844 1131 1108 757 
Q 1372 384 1759 384 
Q 2147 384 2411 759 
Q 2675 1134 2675 2259 
Q 2675 3391 2411 3762 
Q 2147 4134 1753 4134 
Q 1366 4134 1134 3806 
Q 844 3388 844 2259 
z
" transform="scale(0.015625)"/>
       </defs>
       <use xlink:href="#ArialMT-30"/>
      </g>
     </g>
    </g>
    <g id="xtick_2">
     <g id="line2d_2">
      <g>
       <use xlink:href="#m4d9ac48d50" x="91.866407" y="210.04" style="fill: #262626; stroke: #262626; stroke-width: 0.8"/>
      </g>
     </g>
     <g id="text_2">
      <!-- 50 -->
      <g style="fill: #262626" transform="translate(86.30547 224.197812) scale(0.1 -0.1)">
       <defs>
        <path id="ArialMT-35" d="M 266 1200 
L 856 1250 
Q 922 819 1161 601 
Q 1400 384 1738 384 
Q 2144 384 2425 690 
Q 2706 997 2706 1503 
Q 2706 1984 2436 2262 
Q 2166 2541 1728 2541 
Q 1456 2541 1237 2417 
Q 1019 2294 894 2097 
L 366 2166 
L 809 4519 
L 3088 4519 
L 3088 3981 
L 1259 3981 
L 1013 2750 
Q 1425 3038 1878 3038 
Q 2478 3038 2890 2622 
Q 3303 2206 3303 1553 
Q 3303 931 2941 478 
Q 2500 -78 1738 -78 
Q 1113 -78 717 272 
Q 322 622 266 1200 
z
" transform="scale(0.015625)"/>
       </defs>
       <use xlink:href="#ArialMT-35"/>
       <use xlink:href="#ArialMT-30" x="55.615234"/>
      </g>
     </g>
    </g>
    <g id="xtick_3">
     <g id="line2d_3">
      <g>
       <use xlink:href="#m4d9ac48d50" x="125.848348" y="210.04" style="fill: #262626; stroke: #262626; stroke-width: 0.8"/>
      </g>
     </g>
     <g id="text_3">
      <!-- 100 -->
      <g style="fill: #262626" transform="translate(117.506942 224.197812) scale(0.1 -0.1)">
       <defs>
        <path id="ArialMT-31" d="M 2384 0 
L 1822 0 
L 1822 3584 
Q 1619 3391 1289 3197 
Q 959 3003 697 2906 
L 697 3450 
Q 1169 3672 1522 3987 
Q 1875 4303 2022 4600 
L 2384 4600 
L 2384 0 
z
" transform="scale(0.015625)"/>
       </defs>
       <use xlink:href="#ArialMT-31"/>
       <use xlink:href="#ArialMT-30" x="55.615234"/>
       <use xlink:href="#ArialMT-30" x="111.230469"/>
      </g>
     </g>
    </g>
    <g id="xtick_4">
     <g id="line2d_4">
      <g>
       <use xlink:href="#m4d9ac48d50" x="159.830288" y="210.04" style="fill: #262626; stroke: #262626; stroke-width: 0.8"/>
      </g>
     </g>
     <g id="text_4">
      <!-- 150 -->
      <g style="fill: #262626" transform="translate(151.488882 224.197812) scale(0.1 -0.1)">
       <use xlink:href="#ArialMT-31"/>
       <use xlink:href="#ArialMT-35" x="55.615234"/>
       <use xlink:href="#ArialMT-30" x="111.230469"/>
      </g>
     </g>
    </g>
    <g id="xtick_5">
     <g id="line2d_5">
      <g>
       <use xlink:href="#m4d9ac48d50" x="193.812229" y="210.04" style="fill: #262626; stroke: #262626; stroke-width: 0.8"/>
      </g>
     </g>
     <g id="text_5">
      <!-- 200 -->
      <g style="fill: #262626" transform="translate(185.470822 224.197812) scale(0.1 -0.1)">
       <defs>
        <path id="ArialMT-32" d="M 3222 541 
L 3222 0 
L 194 0 
Q 188 203 259 391 
Q 375 700 629 1000 
Q 884 1300 1366 1694 
Q 2113 2306 2375 2664 
Q 2638 3022 2638 3341 
Q 2638 3675 2398 3904 
Q 2159 4134 1775 4134 
Q 1369 4134 1125 3890 
Q 881 3647 878 3216 
L 300 3275 
Q 359 3922 746 4261 
Q 1134 4600 1788 4600 
Q 2447 4600 2831 4234 
Q 3216 3869 3216 3328 
Q 3216 3053 3103 2787 
Q 2991 2522 2730 2228 
Q 2469 1934 1863 1422 
Q 1356 997 1212 845 
Q 1069 694 975 541 
L 3222 541 
z
" transform="scale(0.015625)"/>
       </defs>
       <use xlink:href="#ArialMT-32"/>
       <use xlink:href="#ArialMT-30" x="55.615234"/>
       <use xlink:href="#ArialMT-30" x="111.230469"/>
      </g>
     </g>
    </g>
    <g id="xtick_6">
     <g id="line2d_6">
      <g>
       <use xlink:href="#m4d9ac48d50" x="227.794169" y="210.04" style="fill: #262626; stroke: #262626; stroke-width: 0.8"/>
      </g>
     </g>
     <g id="text_6">
      <!-- 250 -->
      <g style="fill: #262626" transform="translate(219.452763 224.197812) scale(0.1 -0.1)">
       <use xlink:href="#ArialMT-32"/>
       <use xlink:href="#ArialMT-35" x="55.615234"/>
       <use xlink:href="#ArialMT-30" x="111.230469"/>
      </g>
     </g>
    </g>
    <g id="text_7">
     <!-- [Phytoene] (µM) -->
     <g style="fill: #262626" transform="translate(114.859606 237.465) scale(0.1 -0.1)">
      <defs>
       <path id="ArialMT-5b" d="M 434 -1272 
L 434 4581 
L 1675 4581 
L 1675 4116 
L 997 4116 
L 997 -806 
L 1675 -806 
L 1675 -1272 
L 434 -1272 
z
" transform="scale(0.015625)"/>
       <path id="ArialMT-50" d="M 494 0 
L 494 4581 
L 2222 4581 
Q 2678 4581 2919 4538 
Q 3256 4481 3484 4323 
Q 3713 4166 3852 3881 
Q 3991 3597 3991 3256 
Q 3991 2672 3619 2267 
Q 3247 1863 2275 1863 
L 1100 1863 
L 1100 0 
L 494 0 
z
M 1100 2403 
L 2284 2403 
Q 2872 2403 3119 2622 
Q 3366 2841 3366 3238 
Q 3366 3525 3220 3729 
Q 3075 3934 2838 4000 
Q 2684 4041 2272 4041 
L 1100 4041 
L 1100 2403 
z
" transform="scale(0.015625)"/>
       <path id="ArialMT-68" d="M 422 0 
L 422 4581 
L 984 4581 
L 984 2938 
Q 1378 3394 1978 3394 
Q 2347 3394 2619 3248 
Q 2891 3103 3008 2847 
Q 3125 2591 3125 2103 
L 3125 0 
L 2563 0 
L 2563 2103 
Q 2563 2525 2380 2717 
Q 2197 2909 1863 2909 
Q 1613 2909 1392 2779 
Q 1172 2650 1078 2428 
Q 984 2206 984 1816 
L 984 0 
L 422 0 
z
" transform="scale(0.015625)"/>
       <path id="ArialMT-79" d="M 397 -1278 
L 334 -750 
Q 519 -800 656 -800 
Q 844 -800 956 -737 
Q 1069 -675 1141 -563 
Q 1194 -478 1313 -144 
Q 1328 -97 1363 -6 
L 103 3319 
L 709 3319 
L 1400 1397 
Q 1534 1031 1641 628 
Q 1738 1016 1872 1384 
L 2581 3319 
L 3144 3319 
L 1881 -56 
Q 1678 -603 1566 -809 
Q 1416 -1088 1222 -1217 
Q 1028 -1347 759 -1347 
Q 597 -1347 397 -1278 
z
" transform="scale(0.015625)"/>
       <path id="ArialMT-74" d="M 1650 503 
L 1731 6 
Q 1494 -44 1306 -44 
Q 1000 -44 831 53 
Q 663 150 594 308 
Q 525 466 525 972 
L 525 2881 
L 113 2881 
L 113 3319 
L 525 3319 
L 525 4141 
L 1084 4478 
L 1084 3319 
L 1650 3319 
L 1650 2881 
L 1084 2881 
L 1084 941 
Q 1084 700 1114 631 
Q 1144 563 1211 522 
Q 1278 481 1403 481 
Q 1497 481 1650 503 
z
" transform="scale(0.015625)"/>
       <path id="ArialMT-6f" d="M 213 1659 
Q 213 2581 725 3025 
Q 1153 3394 1769 3394 
Q 2453 3394 2887 2945 
Q 3322 2497 3322 1706 
Q 3322 1066 3130 698 
Q 2938 331 2570 128 
Q 2203 -75 1769 -75 
Q 1072 -75 642 372 
Q 213 819 213 1659 
z
M 791 1659 
Q 791 1022 1069 705 
Q 1347 388 1769 388 
Q 2188 388 2466 706 
Q 2744 1025 2744 1678 
Q 2744 2294 2464 2611 
Q 2184 2928 1769 2928 
Q 1347 2928 1069 2612 
Q 791 2297 791 1659 
z
" transform="scale(0.015625)"/>
       <path id="ArialMT-65" d="M 2694 1069 
L 3275 997 
Q 3138 488 2766 206 
Q 2394 -75 1816 -75 
Q 1088 -75 661 373 
Q 234 822 234 1631 
Q 234 2469 665 2931 
Q 1097 3394 1784 3394 
Q 2450 3394 2872 2941 
Q 3294 2488 3294 1666 
Q 3294 1616 3291 1516 
L 816 1516 
Q 847 969 1125 678 
Q 1403 388 1819 388 
Q 2128 388 2347 550 
Q 2566 713 2694 1069 
z
M 847 1978 
L 2700 1978 
Q 2663 2397 2488 2606 
Q 2219 2931 1791 2931 
Q 1403 2931 1139 2672 
Q 875 2413 847 1978 
z
" transform="scale(0.015625)"/>
       <path id="ArialMT-6e" d="M 422 0 
L 422 3319 
L 928 3319 
L 928 2847 
Q 1294 3394 1984 3394 
Q 2284 3394 2536 3286 
Q 2788 3178 2913 3003 
Q 3038 2828 3088 2588 
Q 3119 2431 3119 2041 
L 3119 0 
L 2556 0 
L 2556 2019 
Q 2556 2363 2490 2533 
Q 2425 2703 2258 2804 
Q 2091 2906 1866 2906 
Q 1506 2906 1245 2678 
Q 984 2450 984 1813 
L 984 0 
L 422 0 
z
" transform="scale(0.015625)"/>
       <path id="ArialMT-5d" d="M 1363 -1272 
L 122 -1272 
L 122 -806 
L 800 -806 
L 800 4116 
L 122 4116 
L 122 4581 
L 1363 4581 
L 1363 -1272 
z
" transform="scale(0.015625)"/>
       <path id="ArialMT-20" transform="scale(0.015625)"/>
       <path id="ArialMT-28" d="M 1497 -1347 
Q 1031 -759 709 28 
Q 388 816 388 1659 
Q 388 2403 628 3084 
Q 909 3875 1497 4659 
L 1900 4659 
Q 1522 4009 1400 3731 
Q 1209 3300 1100 2831 
Q 966 2247 966 1656 
Q 966 153 1900 -1347 
L 1497 -1347 
z
" transform="scale(0.015625)"/>
       <path id="ArialMT-b5" d="M 3181 3319 
L 3181 0 
L 2678 0 
L 2678 394 
Q 2516 144 2356 50 
Q 2138 -78 1847 -78 
Q 1588 -78 1388 25 
Q 1238 103 1056 334 
L 1056 -1272 
L 500 -1272 
L 500 3319 
L 1056 3319 
L 1056 1913 
Q 1056 1147 1137 920 
Q 1219 694 1401 562 
Q 1584 431 1822 431 
Q 2072 431 2269 568 
Q 2466 706 2547 923 
Q 2628 1141 2628 1903 
L 2628 3319 
L 3181 3319 
z
" transform="scale(0.015625)"/>
       <path id="ArialMT-4d" d="M 475 0 
L 475 4581 
L 1388 4581 
L 2472 1338 
Q 2622 884 2691 659 
Q 2769 909 2934 1394 
L 4031 4581 
L 4847 4581 
L 4847 0 
L 4263 0 
L 4263 3834 
L 2931 0 
L 2384 0 
L 1059 3900 
L 1059 0 
L 475 0 
z
" transform="scale(0.015625)"/>
       <path id="ArialMT-29" d="M 791 -1347 
L 388 -1347 
Q 1322 153 1322 1656 
Q 1322 2244 1188 2822 
Q 1081 3291 891 3722 
Q 769 4003 388 4659 
L 791 4659 
Q 1378 3875 1659 3084 
Q 1900 2403 1900 1659 
Q 1900 816 1576 28 
Q 1253 -759 791 -1347 
z
" transform="scale(0.015625)"/>
      </defs>
      <use xlink:href="#ArialMT-5b"/>
      <use xlink:href="#ArialMT-50" x="27.783203"/>
      <use xlink:href="#ArialMT-68" x="94.482422"/>
      <use xlink:href="#ArialMT-79" x="150.097656"/>
      <use xlink:href="#ArialMT-74" x="200.097656"/>
      <use xlink:href="#ArialMT-6f" x="227.880859"/>
      <use xlink:href="#ArialMT-65" x="283.496094"/>
      <use xlink:href="#ArialMT-6e" x="339.111328"/>
      <use xlink:href="#ArialMT-65" x="394.726562"/>
      <use xlink:href="#ArialMT-5d" x="450.341797"/>
      <use xlink:href="#ArialMT-20" x="478.125"/>
      <use xlink:href="#ArialMT-28" x="505.908203"/>
      <use xlink:href="#ArialMT-b5" x="539.208984"/>
      <use xlink:href="#ArialMT-4d" x="596.826172"/>
      <use xlink:href="#ArialMT-29" x="680.126953"/>
     </g>
    </g>
   </g>
   <g id="matplotlib.axis_2">
    <g id="ytick_1">
     <g id="line2d_7">
      <defs>
       <path id="m8a3d6c2987" d="M 0 0 
L -3.5 0 
" style="stroke: #262626; stroke-width: 0.8"/>
      </defs>
      <g>
       <use xlink:href="#m8a3d6c2987" x="48.62" y="201.163636" style="fill: #262626; stroke: #262626; stroke-width: 0.8"/>
      </g>
     </g>
     <g id="text_8">
      <!-- 0 -->
      <g style="fill: #262626" transform="translate(36.059063 204.742543) scale(0.1 -0.1)">
       <use xlink:href="#ArialMT-30"/>
      </g>
     </g>
    </g>
    <g id="ytick_2">
     <g id="line2d_8">
      <g>
       <use xlink:href="#m8a3d6c2987" x="48.62" y="177.979877" style="fill: #262626; stroke: #262626; stroke-width: 0.8"/>
      </g>
     </g>
     <g id="text_9">
      <!-- 25 -->
      <g style="fill: #262626" transform="translate(30.498125 181.558783) scale(0.1 -0.1)">
       <use xlink:href="#ArialMT-32"/>
       <use xlink:href="#ArialMT-35" x="55.615234"/>
      </g>
     </g>
    </g>
    <g id="ytick_3">
     <g id="line2d_9">
      <g>
       <use xlink:href="#m8a3d6c2987" x="48.62" y="154.796118" style="fill: #262626; stroke: #262626; stroke-width: 0.8"/>
      </g>
     </g>
     <g id="text_10">
      <!-- 50 -->
      <g style="fill: #262626" transform="translate(30.498125 158.375024) scale(0.1 -0.1)">
       <use xlink:href="#ArialMT-35"/>
       <use xlink:href="#ArialMT-30" x="55.615234"/>
      </g>
     </g>
    </g>
    <g id="ytick_4">
     <g id="line2d_10">
      <g>
       <use xlink:href="#m8a3d6c2987" x="48.62" y="131.612359" style="fill: #262626; stroke: #262626; stroke-width: 0.8"/>
      </g>
     </g>
     <g id="text_11">
      <!-- 75 -->
      <g style="fill: #262626" transform="translate(30.498125 135.191265) scale(0.1 -0.1)">
       <defs>
        <path id="ArialMT-37" d="M 303 3981 
L 303 4522 
L 3269 4522 
L 3269 4084 
Q 2831 3619 2401 2847 
Q 1972 2075 1738 1259 
Q 1569 684 1522 0 
L 944 0 
Q 953 541 1156 1306 
Q 1359 2072 1739 2783 
Q 2119 3494 2547 3981 
L 303 3981 
z
" transform="scale(0.015625)"/>
       </defs>
       <use xlink:href="#ArialMT-37"/>
       <use xlink:href="#ArialMT-35" x="55.615234"/>
      </g>
     </g>
    </g>
    <g id="ytick_5">
     <g id="line2d_11">
      <g>
       <use xlink:href="#m8a3d6c2987" x="48.62" y="108.428599" style="fill: #262626; stroke: #262626; stroke-width: 0.8"/>
      </g>
     </g>
     <g id="text_12">
      <!-- 100 -->
      <g style="fill: #262626" transform="translate(24.937188 112.007506) scale(0.1 -0.1)">
       <use xlink:href="#ArialMT-31"/>
       <use xlink:href="#ArialMT-30" x="55.615234"/>
       <use xlink:href="#ArialMT-30" x="111.230469"/>
      </g>
     </g>
    </g>
    <g id="ytick_6">
     <g id="line2d_12">
      <g>
       <use xlink:href="#m8a3d6c2987" x="48.62" y="85.24484" style="fill: #262626; stroke: #262626; stroke-width: 0.8"/>
      </g>
     </g>
     <g id="text_13">
      <!-- 125 -->
      <g style="fill: #262626" transform="translate(24.937188 88.823746) scale(0.1 -0.1)">
       <use xlink:href="#ArialMT-31"/>
       <use xlink:href="#ArialMT-32" x="55.615234"/>
       <use xlink:href="#ArialMT-35" x="111.230469"/>
      </g>
     </g>
    </g>
    <g id="ytick_7">
     <g id="line2d_13">
      <g>
       <use xlink:href="#m8a3d6c2987" x="48.62" y="62.061081" style="fill: #262626; stroke: #262626; stroke-width: 0.8"/>
      </g>
     </g>
     <g id="text_14">
      <!-- 150 -->
      <g style="fill: #262626" transform="translate(24.937188 65.639987) scale(0.1 -0.1)">
       <use xlink:href="#ArialMT-31"/>
       <use xlink:href="#ArialMT-35" x="55.615234"/>
       <use xlink:href="#ArialMT-30" x="111.230469"/>
      </g>
     </g>
    </g>
    <g id="ytick_8">
     <g id="line2d_14">
      <g>
       <use xlink:href="#m8a3d6c2987" x="48.62" y="38.877322" style="fill: #262626; stroke: #262626; stroke-width: 0.8"/>
      </g>
     </g>
     <g id="text_15">
      <!-- 175 -->
      <g style="fill: #262626" transform="translate(24.937188 42.456228) scale(0.1 -0.1)">
       <use xlink:href="#ArialMT-31"/>
       <use xlink:href="#ArialMT-37" x="55.615234"/>
       <use xlink:href="#ArialMT-35" x="111.230469"/>
      </g>
     </g>
    </g>
    <g id="ytick_9">
     <g id="line2d_15">
      <g>
       <use xlink:href="#m8a3d6c2987" x="48.62" y="15.693562" style="fill: #262626; stroke: #262626; stroke-width: 0.8"/>
      </g>
     </g>
     <g id="text_16">
      <!-- 200 -->
      <g style="fill: #262626" transform="translate(24.937188 19.272469) scale(0.1 -0.1)">
       <use xlink:href="#ArialMT-32"/>
       <use xlink:href="#ArialMT-30" x="55.615234"/>
       <use xlink:href="#ArialMT-30" x="111.230469"/>
      </g>
     </g>
    </g>
    <g id="text_17">
     <!-- Lycopene flux (µM/h) -->
     <g style="fill: #262626" transform="translate(18.8325 158.999219) rotate(-90) scale(0.1 -0.1)">
      <defs>
       <path id="ArialMT-4c" d="M 469 0 
L 469 4581 
L 1075 4581 
L 1075 541 
L 3331 541 
L 3331 0 
L 469 0 
z
" transform="scale(0.015625)"/>
       <path id="ArialMT-63" d="M 2588 1216 
L 3141 1144 
Q 3050 572 2676 248 
Q 2303 -75 1759 -75 
Q 1078 -75 664 370 
Q 250 816 250 1647 
Q 250 2184 428 2587 
Q 606 2991 970 3192 
Q 1334 3394 1763 3394 
Q 2303 3394 2647 3120 
Q 2991 2847 3088 2344 
L 2541 2259 
Q 2463 2594 2264 2762 
Q 2066 2931 1784 2931 
Q 1359 2931 1093 2626 
Q 828 2322 828 1663 
Q 828 994 1084 691 
Q 1341 388 1753 388 
Q 2084 388 2306 591 
Q 2528 794 2588 1216 
z
" transform="scale(0.015625)"/>
       <path id="ArialMT-70" d="M 422 -1272 
L 422 3319 
L 934 3319 
L 934 2888 
Q 1116 3141 1344 3267 
Q 1572 3394 1897 3394 
Q 2322 3394 2647 3175 
Q 2972 2956 3137 2557 
Q 3303 2159 3303 1684 
Q 3303 1175 3120 767 
Q 2938 359 2589 142 
Q 2241 -75 1856 -75 
Q 1575 -75 1351 44 
Q 1128 163 984 344 
L 984 -1272 
L 422 -1272 
z
M 931 1641 
Q 931 1000 1190 694 
Q 1450 388 1819 388 
Q 2194 388 2461 705 
Q 2728 1022 2728 1688 
Q 2728 2322 2467 2637 
Q 2206 2953 1844 2953 
Q 1484 2953 1207 2617 
Q 931 2281 931 1641 
z
" transform="scale(0.015625)"/>
       <path id="ArialMT-66" d="M 556 0 
L 556 2881 
L 59 2881 
L 59 3319 
L 556 3319 
L 556 3672 
Q 556 4006 616 4169 
Q 697 4388 901 4523 
Q 1106 4659 1475 4659 
Q 1713 4659 2000 4603 
L 1916 4113 
Q 1741 4144 1584 4144 
Q 1328 4144 1222 4034 
Q 1116 3925 1116 3625 
L 1116 3319 
L 1763 3319 
L 1763 2881 
L 1116 2881 
L 1116 0 
L 556 0 
z
" transform="scale(0.015625)"/>
       <path id="ArialMT-6c" d="M 409 0 
L 409 4581 
L 972 4581 
L 972 0 
L 409 0 
z
" transform="scale(0.015625)"/>
       <path id="ArialMT-75" d="M 2597 0 
L 2597 488 
Q 2209 -75 1544 -75 
Q 1250 -75 995 37 
Q 741 150 617 320 
Q 494 491 444 738 
Q 409 903 409 1263 
L 409 3319 
L 972 3319 
L 972 1478 
Q 972 1038 1006 884 
Q 1059 663 1231 536 
Q 1403 409 1656 409 
Q 1909 409 2131 539 
Q 2353 669 2445 892 
Q 2538 1116 2538 1541 
L 2538 3319 
L 3100 3319 
L 3100 0 
L 2597 0 
z
" transform="scale(0.015625)"/>
       <path id="ArialMT-78" d="M 47 0 
L 1259 1725 
L 138 3319 
L 841 3319 
L 1350 2541 
Q 1494 2319 1581 2169 
Q 1719 2375 1834 2534 
L 2394 3319 
L 3066 3319 
L 1919 1756 
L 3153 0 
L 2463 0 
L 1781 1031 
L 1600 1309 
L 728 0 
L 47 0 
z
" transform="scale(0.015625)"/>
       <path id="ArialMT-2f" d="M 0 -78 
L 1328 4659 
L 1778 4659 
L 453 -78 
L 0 -78 
z
" transform="scale(0.015625)"/>
      </defs>
      <use xlink:href="#ArialMT-4c"/>
      <use xlink:href="#ArialMT-79" x="51.865234"/>
      <use xlink:href="#ArialMT-63" x="101.865234"/>
      <use xlink:href="#ArialMT-6f" x="151.865234"/>
      <use xlink:href="#ArialMT-70" x="207.480469"/>
      <use xlink:href="#ArialMT-65" x="263.095703"/>
      <use xlink:href="#ArialMT-6e" x="318.710938"/>
      <use xlink:href="#ArialMT-65" x="374.326172"/>
      <use xlink:href="#ArialMT-20" x="429.941406"/>
      <use xlink:href="#ArialMT-66" x="457.724609"/>
      <use xlink:href="#ArialMT-6c" x="485.507812"/>
      <use xlink:href="#ArialMT-75" x="507.724609"/>
      <use xlink:href="#ArialMT-78" x="563.339844"/>
      <use xlink:href="#ArialMT-20" x="613.339844"/>
      <use xlink:href="#ArialMT-28" x="641.123047"/>
      <use xlink:href="#ArialMT-b5" x="674.423828"/>
      <use xlink:href="#ArialMT-4d" x="732.041016"/>
      <use xlink:href="#ArialMT-2f" x="815.341797"/>
      <use xlink:href="#ArialMT-68" x="843.125"/>
      <use xlink:href="#ArialMT-29" x="898.740234"/>
     </g>
    </g>
   </g>
   <g id="PolyCollection_1">
    <defs>
     <path id="me07aaac6ef" d="M 57.884467 -50.836364 
L 57.884467 -50.836364 
L 58.810914 -61.403018 
L 59.73736 -70.841586 
L 60.663807 -79.330924 
L 61.590254 -86.979231 
L 62.516701 -93.917955 
L 63.443147 -100.18388 
L 64.369594 -105.979543 
L 65.296041 -111.368553 
L 66.222487 -116.329955 
L 67.148934 -120.827106 
L 68.075381 -125.122355 
L 69.001827 -129.015082 
L 69.928274 -132.580136 
L 70.854721 -136.046913 
L 71.781168 -139.195792 
L 72.707614 -142.126451 
L 73.634061 -144.896144 
L 74.560508 -147.58819 
L 75.486954 -150.022181 
L 76.413401 -152.238494 
L 77.339848 -154.488083 
L 78.266294 -156.545904 
L 79.192741 -158.474413 
L 80.119188 -160.257618 
L 81.045635 -162.031348 
L 81.972081 -163.712166 
L 82.898528 -165.314432 
L 83.824975 -166.744908 
L 84.751421 -168.015863 
L 85.677868 -169.438095 
L 86.604315 -170.800712 
L 87.530761 -171.926522 
L 88.457208 -173.005361 
L 89.383655 -173.958054 
L 90.310102 -174.95089 
L 91.236548 -175.969755 
L 92.162995 -176.949687 
L 93.089442 -177.833336 
L 94.015888 -178.739962 
L 94.942335 -179.545074 
L 95.868782 -180.249985 
L 96.795229 -181.097283 
L 97.721675 -181.811187 
L 98.648122 -182.479323 
L 99.574569 -183.113786 
L 100.501015 -183.732093 
L 101.427462 -184.396449 
L 102.353909 -185.080386 
L 103.280355 -185.662238 
L 104.206802 -186.176191 
L 105.133249 -186.726384 
L 106.059696 -187.254332 
L 106.986142 -187.720221 
L 107.912589 -188.166989 
L 108.839036 -188.626739 
L 109.765482 -189.033727 
L 110.691929 -189.507431 
L 111.618376 -189.894103 
L 112.544822 -190.338616 
L 113.471269 -190.64576 
L 114.397716 -190.988517 
L 115.324163 -191.339173 
L 116.250609 -191.692651 
L 117.177056 -192.001332 
L 118.103503 -192.291135 
L 119.029949 -192.578345 
L 119.956396 -192.908237 
L 120.882843 -193.205787 
L 121.809289 -193.48187 
L 122.735736 -193.752077 
L 123.662183 -194.016062 
L 124.58863 -194.273652 
L 125.515076 -194.523361 
L 126.441523 -194.766844 
L 127.36797 -195.004628 
L 128.294416 -195.236912 
L 129.220863 -195.463883 
L 130.14731 -195.68644 
L 131.073757 -195.904434 
L 132.000203 -196.118185 
L 132.92665 -196.327265 
L 133.853097 -196.531827 
L 134.779543 -196.732015 
L 135.70599 -196.928943 
L 136.632437 -197.120409 
L 137.558883 -197.307697 
L 138.48533 -197.515275 
L 139.411777 -197.719836 
L 140.338224 -197.897439 
L 141.26467 -198.029163 
L 142.191117 -198.17018 
L 143.117564 -198.295161 
L 144.04401 -198.425307 
L 144.970457 -198.574018 
L 145.896904 -198.720241 
L 146.82335 -198.864357 
L 147.749797 -199.005773 
L 148.676244 -199.144566 
L 149.602691 -199.280808 
L 150.529137 -199.419583 
L 151.455584 -199.561559 
L 152.382031 -199.722768 
L 153.308477 -199.883826 
L 154.234924 -200.042126 
L 155.161371 -200.197737 
L 156.087817 -200.350729 
L 157.014264 -200.499605 
L 157.940711 -200.623559 
L 158.867158 -200.745989 
L 159.793604 -200.866355 
L 160.720051 -200.986152 
L 161.646498 -201.075302 
L 162.572944 -201.173705 
L 163.499391 -201.272136 
L 164.425838 -201.36898 
L 165.352284 -201.464802 
L 166.278731 -201.559349 
L 167.205178 -201.652408 
L 168.131625 -201.744016 
L 169.058071 -201.845011 
L 169.984518 -201.94661 
L 170.910965 -202.046677 
L 171.837411 -202.145311 
L 172.763858 -202.242766 
L 173.690305 -202.338785 
L 174.616752 -202.433398 
L 175.543198 -202.518114 
L 176.469645 -202.59843 
L 177.396092 -202.677584 
L 178.322538 -202.758041 
L 179.248985 -202.845019 
L 180.175432 -202.91967 
L 181.101878 -202.993271 
L 182.028325 -203.065842 
L 182.954772 -203.137406 
L 183.881219 -203.207984 
L 184.807665 -203.277595 
L 185.734112 -203.346259 
L 186.660559 -203.413997 
L 187.587005 -203.480825 
L 188.513452 -203.546763 
L 189.439899 -203.611845 
L 190.366345 -203.689364 
L 191.292792 -203.769231 
L 192.219239 -203.848079 
L 193.145686 -203.925926 
L 194.072132 -204.002792 
L 194.998579 -204.078694 
L 195.925026 -204.145043 
L 196.851472 -204.198431 
L 197.777919 -204.251149 
L 198.704366 -204.315113 
L 199.630812 -204.380786 
L 200.557259 -204.445662 
L 201.483706 -204.509755 
L 202.410153 -204.573079 
L 203.336599 -204.631442 
L 204.263046 -204.685338 
L 205.189493 -204.738593 
L 206.115939 -204.791218 
L 207.042386 -204.843225 
L 207.968833 -204.894625 
L 208.89528 -204.945427 
L 209.821726 -204.995643 
L 210.748173 -205.045282 
L 211.67462 -205.094355 
L 212.601066 -205.142951 
L 213.527513 -205.191048 
L 214.45396 -205.238606 
L 215.380406 -205.285634 
L 216.306853 -205.332139 
L 217.2333 -205.378131 
L 218.159747 -205.423618 
L 219.086193 -205.468609 
L 220.01264 -205.513111 
L 220.939087 -205.557133 
L 221.865533 -205.600682 
L 222.79198 -205.643766 
L 223.718427 -205.686392 
L 224.644873 -205.728568 
L 225.57132 -205.7703 
L 226.497767 -205.811596 
L 227.424214 -205.852462 
L 228.35066 -205.892905 
L 229.277107 -205.932931 
L 230.203554 -205.972548 
L 231.13 -206.01176 
L 232.056447 -206.050575 
L 232.982894 -206.088999 
L 233.90934 -206.127036 
L 234.835787 -206.164694 
L 235.762234 -206.201978 
L 236.688681 -206.238892 
L 237.615127 -206.275444 
L 238.541574 -206.311637 
L 239.468021 -206.347478 
L 240.394467 -206.382971 
L 241.320914 -206.418122 
L 242.247361 -206.452935 
L 242.247361 -228.363636 
L 242.247361 -228.363636 
L 241.320914 -228.301358 
L 240.394467 -228.242301 
L 239.468021 -228.183009 
L 238.541574 -228.12315 
L 237.615127 -228.060892 
L 236.688681 -227.985188 
L 235.762234 -227.915868 
L 234.835787 -227.849686 
L 233.90934 -227.782858 
L 232.982894 -227.715374 
L 232.056447 -227.647224 
L 231.13 -227.578399 
L 230.203554 -227.508888 
L 229.277107 -227.438682 
L 228.35066 -227.367769 
L 227.424214 -227.296138 
L 226.497767 -227.22378 
L 225.57132 -227.150682 
L 224.644873 -227.076834 
L 223.718427 -227.002224 
L 222.79198 -226.926839 
L 221.865533 -226.850669 
L 220.939087 -226.773699 
L 220.01264 -226.695919 
L 219.086193 -226.617314 
L 218.159747 -226.537872 
L 217.2333 -226.45758 
L 216.306853 -226.376423 
L 215.380406 -226.294387 
L 214.45396 -226.211459 
L 213.527513 -226.127623 
L 212.601066 -226.042865 
L 211.67462 -225.957169 
L 210.748173 -225.87052 
L 209.821726 -225.782901 
L 208.89528 -225.694296 
L 207.968833 -225.604689 
L 207.042386 -225.514063 
L 206.115939 -225.422399 
L 205.189493 -225.329545 
L 204.263046 -225.239687 
L 203.336599 -225.153011 
L 202.410153 -225.065311 
L 201.483706 -224.97657 
L 200.557259 -224.886769 
L 199.630812 -224.795888 
L 198.704366 -224.703909 
L 197.777919 -224.61081 
L 196.851472 -224.516572 
L 195.925026 -224.410875 
L 194.998579 -224.29335 
L 194.072132 -224.174389 
L 193.145686 -224.053965 
L 192.219239 -223.932051 
L 191.292792 -223.808618 
L 190.366345 -223.683639 
L 189.439899 -223.56863 
L 188.513452 -223.453399 
L 187.587005 -223.336117 
L 186.660559 -223.21714 
L 185.734112 -223.096606 
L 184.807665 -222.974485 
L 183.881219 -222.855355 
L 182.954772 -222.738176 
L 182.028325 -222.619412 
L 181.101878 -222.490735 
L 180.175432 -222.373963 
L 179.248985 -222.254981 
L 178.322538 -222.130413 
L 177.396092 -222.004098 
L 176.469645 -221.876 
L 175.543198 -221.746081 
L 174.616752 -221.614302 
L 173.690305 -221.480622 
L 172.763858 -221.345001 
L 171.837411 -221.207395 
L 170.910965 -221.06776 
L 169.984518 -220.929275 
L 169.058071 -220.791283 
L 168.131625 -220.651202 
L 167.205178 -220.508982 
L 166.278731 -220.372209 
L 165.352284 -220.245472 
L 164.425838 -220.07767 
L 163.499391 -219.91772 
L 162.572944 -219.764041 
L 161.646498 -219.607905 
L 160.720051 -219.449252 
L 159.793604 -219.28802 
L 158.867158 -219.124147 
L 157.940711 -218.957543 
L 157.014264 -218.787631 
L 156.087817 -218.614866 
L 155.161371 -218.418903 
L 154.234924 -218.217859 
L 153.308477 -218.013409 
L 152.382031 -217.805463 
L 151.455584 -217.593932 
L 150.529137 -217.378721 
L 149.602691 -217.170967 
L 148.676244 -216.965199 
L 147.749797 -216.755713 
L 146.82335 -216.542406 
L 145.896904 -216.325162 
L 144.970457 -216.102889 
L 144.04401 -215.876451 
L 143.117564 -215.645301 
L 142.191117 -215.409604 
L 141.26467 -215.134489 
L 140.338224 -214.834536 
L 139.411777 -214.585726 
L 138.48533 -214.335915 
L 137.558883 -214.054712 
L 136.632437 -213.790002 
L 135.70599 -213.526168 
L 134.779543 -213.25686 
L 133.853097 -212.981906 
L 132.92665 -212.67579 
L 132.000203 -212.34281 
L 131.073757 -212.074567 
L 130.14731 -211.76779 
L 129.220863 -211.478814 
L 128.294416 -211.143374 
L 127.36797 -210.738046 
L 126.441523 -210.379193 
L 125.515076 -210.083377 
L 124.58863 -209.800945 
L 123.662183 -209.44651 
L 122.735736 -209.038819 
L 121.809289 -208.6145 
L 120.882843 -208.195885 
L 119.956396 -207.760375 
L 119.029949 -207.314182 
L 118.103503 -206.85691 
L 117.177056 -206.38814 
L 116.250609 -205.921409 
L 115.324163 -205.492687 
L 114.397716 -205.05239 
L 113.471269 -204.5988 
L 112.544822 -204.177624 
L 111.618376 -203.680147 
L 110.691929 -203.161325 
L 109.765482 -202.654829 
L 108.839036 -202.097425 
L 107.912589 -201.549953 
L 106.986142 -201.04712 
L 106.059696 -200.477049 
L 105.133249 -199.897443 
L 104.206802 -199.336294 
L 103.280355 -198.796118 
L 102.353909 -198.149463 
L 101.427462 -197.457467 
L 100.501015 -196.852994 
L 99.574569 -196.136206 
L 98.648122 -195.439346 
L 97.721675 -194.706947 
L 96.795229 -193.87273 
L 95.868782 -193.11604 
L 94.942335 -192.414414 
L 94.015888 -191.637594 
L 93.089442 -190.706494 
L 92.162995 -189.891877 
L 91.236548 -189.019834 
L 90.310102 -188.074046 
L 89.383655 -187.074571 
L 88.457208 -186.086154 
L 87.530761 -185.045539 
L 86.604315 -183.989674 
L 85.677868 -182.962055 
L 84.751421 -181.821666 
L 83.824975 -180.610588 
L 82.898528 -179.341924 
L 81.972081 -177.889299 
L 81.045635 -176.457726 
L 80.119188 -175.039385 
L 79.192741 -173.460774 
L 78.266294 -171.725307 
L 77.339848 -169.966232 
L 76.413401 -168.122238 
L 75.486954 -166.28984 
L 74.560508 -164.161911 
L 73.634061 -161.881482 
L 72.707614 -159.356112 
L 71.781168 -156.843954 
L 70.854721 -154.106089 
L 69.928274 -151.121143 
L 69.001827 -147.827414 
L 68.075381 -144.211986 
L 67.148934 -140.155475 
L 66.222487 -135.709284 
L 65.296041 -130.66234 
L 64.369594 -125.139175 
L 63.443147 -118.928788 
L 62.516701 -111.72918 
L 61.590254 -103.348259 
L 60.663807 -93.427237 
L 59.73736 -81.888093 
L 58.810914 -67.965844 
L 57.884467 -50.836364 
z
" style="stroke: #ef553b; stroke-opacity: 0.3"/>
    </defs>
    <g clip-path="url(#p0dbb95cfbe)">
     <use xlink:href="#me07aaac6ef" x="0" y="252" style="fill: #ef553b; fill-opacity: 0.3; stroke: #ef553b; stroke-opacity: 0.3"/>
    </g>
   </g>
   <g id="line2d_16">
    <defs>
     <path id="m63f9912419" d="M 0 2.5 
C 0.663008 2.5 1.29895 2.236584 1.767767 1.767767 
C 2.236584 1.29895 2.5 0.663008 2.5 0 
C 2.5 -0.663008 2.236584 -1.29895 1.767767 -1.767767 
C 1.29895 -2.236584 0.663008 -2.5 0 -2.5 
C -0.663008 -2.5 -1.29895 -2.236584 -1.767767 -1.767767 
C -2.236584 -1.29895 -2.5 -0.663008 -2.5 0 
C -2.5 0.663008 -2.236584 1.29895 -1.767767 1.767767 
C -1.29895 2.236584 -0.663008 2.5 0 2.5 
z
" style="stroke: #23612b"/>
    </defs>
    <g clip-path="url(#p0dbb95cfbe)">
     <use xlink:href="#m63f9912419" x="147.411412" y="61.863177" style="fill: #4fa15a; stroke: #23612b"/>
     <use xlink:href="#m63f9912419" x="145.134236" y="40.26221" style="fill: #4fa15a; stroke: #23612b"/>
     <use xlink:href="#m63f9912419" x="153.688026" y="52.299414" style="fill: #4fa15a; stroke: #23612b"/>
     <use xlink:href="#m63f9912419" x="57.884467" y="197.727691" style="fill: #4fa15a; stroke: #23612b"/>
     <use xlink:href="#m63f9912419" x="57.884467" y="197.11551" style="fill: #4fa15a; stroke: #23612b"/>
     <use xlink:href="#m63f9912419" x="57.884467" y="197.766441" style="fill: #4fa15a; stroke: #23612b"/>
     <use xlink:href="#m63f9912419" x="241.665013" y="33.137102" style="fill: #4fa15a; stroke: #23612b"/>
     <use xlink:href="#m63f9912419" x="238.290336" y="44.47783" style="fill: #4fa15a; stroke: #23612b"/>
     <use xlink:href="#m63f9912419" x="243.173807" y="32.515792" style="fill: #4fa15a; stroke: #23612b"/>
     <use xlink:href="#m63f9912419" x="91.893289" y="66.666109" style="fill: #4fa15a; stroke: #23612b"/>
     <use xlink:href="#m63f9912419" x="91.220948" y="37.896837" style="fill: #4fa15a; stroke: #23612b"/>
     <use xlink:href="#m63f9912419" x="90.231991" y="37.555285" style="fill: #4fa15a; stroke: #23612b"/>
     <use xlink:href="#m63f9912419" x="78.643502" y="72.460734" style="fill: #4fa15a; stroke: #23612b"/>
     <use xlink:href="#m63f9912419" x="78.558116" y="77.0257" style="fill: #4fa15a; stroke: #23612b"/>
     <use xlink:href="#m63f9912419" x="78.665156" y="85.452035" style="fill: #4fa15a; stroke: #23612b"/>
     <use xlink:href="#m63f9912419" x="60.970781" y="168.16163" style="fill: #4fa15a; stroke: #23612b"/>
     <use xlink:href="#m63f9912419" x="61.812241" y="141.722614" style="fill: #4fa15a; stroke: #23612b"/>
     <use xlink:href="#m63f9912419" x="62.454109" y="138.145254" style="fill: #4fa15a; stroke: #23612b"/>
     <use xlink:href="#m63f9912419" x="79.751711" y="97.152144" style="fill: #4fa15a; stroke: #23612b"/>
     <use xlink:href="#m63f9912419" x="70.870243" y="141.854374" style="fill: #4fa15a; stroke: #23612b"/>
     <use xlink:href="#m63f9912419" x="69.518807" y="148.832118" style="fill: #4fa15a; stroke: #23612b"/>
    </g>
   </g>
   <g id="line2d_17">
    <path d="M 57.884467 201.163636 
L 58.810914 187.948244 
L 59.73736 176.565796 
L 60.663807 166.659686 
L 62.516701 150.259473 
L 64.369594 137.237291 
L 66.222487 126.646906 
L 68.075381 117.86531 
L 69.928274 110.465562 
L 71.781168 104.145287 
L 73.634061 98.684334 
L 75.486954 93.918604 
L 77.339848 89.723281 
L 79.192741 86.00174 
L 81.045635 82.678014 
L 82.898528 79.691552 
L 85.677868 75.739877 
L 88.457208 72.310223 
L 91.236548 69.305557 
L 94.015888 66.651496 
L 96.795229 64.290055 
L 99.574569 62.175369 
L 103.280355 59.677135 
L 106.986142 57.484402 
L 110.691929 55.544362 
L 115.324163 53.412586 
L 119.956396 51.549229 
L 124.58863 49.906596 
L 130.14731 48.175238 
L 136.632437 46.424865 
L 143.117564 44.909171 
L 150.529137 43.408077 
L 158.867158 41.955785 
L 168.131625 40.575423 
L 178.322538 39.280913 
L 190.366345 37.987283 
L 203.336599 36.816163 
L 219.086193 35.630568 
L 236.688681 34.537712 
L 242.247361 34.233408 
L 242.247361 34.233408 
" clip-path="url(#p0dbb95cfbe)" style="fill: none; stroke: #ef553b; stroke-width: 1.5; stroke-linecap: round"/>
   </g>
   <g id="patch_3">
    <path d="M 48.62 210.04 
L 48.62 14.76 
" style="fill: none; stroke: #262626; stroke-width: 0.8; stroke-linejoin: miter; stroke-linecap: square"/>
   </g>
   <g id="patch_4">
    <path d="M 252.438275 210.04 
L 252.438275 14.76 
" style="fill: none; stroke: #262626; stroke-width: 0.8; stroke-linejoin: miter; stroke-linecap: square"/>
   </g>
   <g id="patch_5">
    <path d="M 48.62 210.04 
L 252.438275 210.04 
" style="fill: none; stroke: #262626; stroke-width: 0.8; stroke-linejoin: miter; stroke-linecap: square"/>
   </g>
   <g id="patch_6">
    <path d="M 48.62 14.76 
L 252.438275 14.76 
" style="fill: none; stroke: #262626; stroke-width: 0.8; stroke-linejoin: miter; stroke-linecap: square"/>
   </g>
   <g id="legend_1">
    <g id="patch_7">
     <path d="M 141.752337 205.04 
L 245.438275 205.04 
Q 247.438275 205.04 247.438275 203.04 
L 247.438275 175.510312 
Q 247.438275 173.510312 245.438275 173.510312 
L 141.752337 173.510312 
Q 139.752337 173.510312 139.752337 175.510312 
L 139.752337 203.04 
Q 139.752337 205.04 141.752337 205.04 
z
" style="fill: #ffffff; opacity: 0.8; stroke: #cccccc; stroke-linejoin: miter"/>
    </g>
    <g id="line2d_18">
     <g>
      <use xlink:href="#m63f9912419" x="153.752337" y="181.168125" style="fill: #4fa15a; stroke: #23612b"/>
     </g>
    </g>
    <g id="text_18">
     <!-- BtCrtI -->
     <g style="fill: #262626" transform="translate(171.752337 184.668125) scale(0.1 -0.1)">
      <defs>
       <path id="ArialMT-42" d="M 469 0 
L 469 4581 
L 2188 4581 
Q 2713 4581 3030 4442 
Q 3347 4303 3526 4014 
Q 3706 3725 3706 3409 
Q 3706 3116 3547 2856 
Q 3388 2597 3066 2438 
Q 3481 2316 3704 2022 
Q 3928 1728 3928 1328 
Q 3928 1006 3792 729 
Q 3656 453 3456 303 
Q 3256 153 2954 76 
Q 2653 0 2216 0 
L 469 0 
z
M 1075 2656 
L 2066 2656 
Q 2469 2656 2644 2709 
Q 2875 2778 2992 2937 
Q 3109 3097 3109 3338 
Q 3109 3566 3000 3739 
Q 2891 3913 2687 3977 
Q 2484 4041 1991 4041 
L 1075 4041 
L 1075 2656 
z
M 1075 541 
L 2216 541 
Q 2509 541 2628 563 
Q 2838 600 2978 687 
Q 3119 775 3209 942 
Q 3300 1109 3300 1328 
Q 3300 1584 3169 1773 
Q 3038 1963 2805 2039 
Q 2572 2116 2134 2116 
L 1075 2116 
L 1075 541 
z
" transform="scale(0.015625)"/>
       <path id="ArialMT-43" d="M 3763 1606 
L 4369 1453 
Q 4178 706 3683 314 
Q 3188 -78 2472 -78 
Q 1731 -78 1267 223 
Q 803 525 561 1097 
Q 319 1669 319 2325 
Q 319 3041 592 3573 
Q 866 4106 1370 4382 
Q 1875 4659 2481 4659 
Q 3169 4659 3637 4309 
Q 4106 3959 4291 3325 
L 3694 3184 
Q 3534 3684 3231 3912 
Q 2928 4141 2469 4141 
Q 1941 4141 1586 3887 
Q 1231 3634 1087 3207 
Q 944 2781 944 2328 
Q 944 1744 1114 1308 
Q 1284 872 1643 656 
Q 2003 441 2422 441 
Q 2931 441 3284 734 
Q 3638 1028 3763 1606 
z
" transform="scale(0.015625)"/>
       <path id="ArialMT-72" d="M 416 0 
L 416 3319 
L 922 3319 
L 922 2816 
Q 1116 3169 1280 3281 
Q 1444 3394 1641 3394 
Q 1925 3394 2219 3213 
L 2025 2691 
Q 1819 2813 1613 2813 
Q 1428 2813 1281 2702 
Q 1134 2591 1072 2394 
Q 978 2094 978 1738 
L 978 0 
L 416 0 
z
" transform="scale(0.015625)"/>
       <path id="ArialMT-49" d="M 597 0 
L 597 4581 
L 1203 4581 
L 1203 0 
L 597 0 
z
" transform="scale(0.015625)"/>
      </defs>
      <use xlink:href="#ArialMT-42"/>
      <use xlink:href="#ArialMT-74" x="66.699219"/>
      <use xlink:href="#ArialMT-43" x="94.482422"/>
      <use xlink:href="#ArialMT-72" x="166.699219"/>
      <use xlink:href="#ArialMT-74" x="200"/>
      <use xlink:href="#ArialMT-49" x="227.783203"/>
     </g>
    </g>
    <g id="line2d_19">
     <path d="M 143.752337 195.435313 
L 153.752337 195.435313 
L 163.752337 195.435313 
" style="fill: none; stroke: #ef553b; stroke-width: 1.5; stroke-linecap: round"/>
    </g>
    <g id="text_19">
     <!-- best fit (95% CI) -->
     <g style="fill: #262626" transform="translate(171.752337 198.935313) scale(0.1 -0.1)">
      <defs>
       <path id="ArialMT-62" d="M 941 0 
L 419 0 
L 419 4581 
L 981 4581 
L 981 2947 
Q 1338 3394 1891 3394 
Q 2197 3394 2470 3270 
Q 2744 3147 2920 2923 
Q 3097 2700 3197 2384 
Q 3297 2069 3297 1709 
Q 3297 856 2875 390 
Q 2453 -75 1863 -75 
Q 1275 -75 941 416 
L 941 0 
z
M 934 1684 
Q 934 1088 1097 822 
Q 1363 388 1816 388 
Q 2184 388 2453 708 
Q 2722 1028 2722 1663 
Q 2722 2313 2464 2622 
Q 2206 2931 1841 2931 
Q 1472 2931 1203 2611 
Q 934 2291 934 1684 
z
" transform="scale(0.015625)"/>
       <path id="ArialMT-73" d="M 197 991 
L 753 1078 
Q 800 744 1014 566 
Q 1228 388 1613 388 
Q 2000 388 2187 545 
Q 2375 703 2375 916 
Q 2375 1106 2209 1216 
Q 2094 1291 1634 1406 
Q 1016 1563 777 1677 
Q 538 1791 414 1992 
Q 291 2194 291 2438 
Q 291 2659 392 2848 
Q 494 3038 669 3163 
Q 800 3259 1026 3326 
Q 1253 3394 1513 3394 
Q 1903 3394 2198 3281 
Q 2494 3169 2634 2976 
Q 2775 2784 2828 2463 
L 2278 2388 
Q 2241 2644 2061 2787 
Q 1881 2931 1553 2931 
Q 1166 2931 1000 2803 
Q 834 2675 834 2503 
Q 834 2394 903 2306 
Q 972 2216 1119 2156 
Q 1203 2125 1616 2013 
Q 2213 1853 2448 1751 
Q 2684 1650 2818 1456 
Q 2953 1263 2953 975 
Q 2953 694 2789 445 
Q 2625 197 2315 61 
Q 2006 -75 1616 -75 
Q 969 -75 630 194 
Q 291 463 197 991 
z
" transform="scale(0.015625)"/>
       <path id="ArialMT-69" d="M 425 3934 
L 425 4581 
L 988 4581 
L 988 3934 
L 425 3934 
z
M 425 0 
L 425 3319 
L 988 3319 
L 988 0 
L 425 0 
z
" transform="scale(0.015625)"/>
       <path id="ArialMT-39" d="M 350 1059 
L 891 1109 
Q 959 728 1153 556 
Q 1347 384 1650 384 
Q 1909 384 2104 503 
Q 2300 622 2425 820 
Q 2550 1019 2634 1356 
Q 2719 1694 2719 2044 
Q 2719 2081 2716 2156 
Q 2547 1888 2255 1720 
Q 1963 1553 1622 1553 
Q 1053 1553 659 1965 
Q 266 2378 266 3053 
Q 266 3750 677 4175 
Q 1088 4600 1706 4600 
Q 2153 4600 2523 4359 
Q 2894 4119 3086 3673 
Q 3278 3228 3278 2384 
Q 3278 1506 3087 986 
Q 2897 466 2520 194 
Q 2144 -78 1638 -78 
Q 1100 -78 759 220 
Q 419 519 350 1059 
z
M 2653 3081 
Q 2653 3566 2395 3850 
Q 2138 4134 1775 4134 
Q 1400 4134 1122 3828 
Q 844 3522 844 3034 
Q 844 2597 1108 2323 
Q 1372 2050 1759 2050 
Q 2150 2050 2401 2323 
Q 2653 2597 2653 3081 
z
" transform="scale(0.015625)"/>
       <path id="ArialMT-25" d="M 372 3481 
Q 372 3972 619 4315 
Q 866 4659 1334 4659 
Q 1766 4659 2048 4351 
Q 2331 4044 2331 3447 
Q 2331 2866 2045 2552 
Q 1759 2238 1341 2238 
Q 925 2238 648 2547 
Q 372 2856 372 3481 
z
M 1350 4272 
Q 1141 4272 1002 4090 
Q 863 3909 863 3425 
Q 863 2984 1003 2804 
Q 1144 2625 1350 2625 
Q 1563 2625 1702 2806 
Q 1841 2988 1841 3469 
Q 1841 3913 1700 4092 
Q 1559 4272 1350 4272 
z
M 1353 -169 
L 3859 4659 
L 4316 4659 
L 1819 -169 
L 1353 -169 
z
M 3334 1075 
Q 3334 1569 3581 1911 
Q 3828 2253 4300 2253 
Q 4731 2253 5014 1945 
Q 5297 1638 5297 1041 
Q 5297 459 5011 145 
Q 4725 -169 4303 -169 
Q 3888 -169 3611 142 
Q 3334 453 3334 1075 
z
M 4316 1866 
Q 4103 1866 3964 1684 
Q 3825 1503 3825 1019 
Q 3825 581 3965 400 
Q 4106 219 4313 219 
Q 4528 219 4667 400 
Q 4806 581 4806 1063 
Q 4806 1506 4665 1686 
Q 4525 1866 4316 1866 
z
" transform="scale(0.015625)"/>
      </defs>
      <use xlink:href="#ArialMT-62"/>
      <use xlink:href="#ArialMT-65" x="55.615234"/>
      <use xlink:href="#ArialMT-73" x="111.230469"/>
      <use xlink:href="#ArialMT-74" x="161.230469"/>
      <use xlink:href="#ArialMT-20" x="189.013672"/>
      <use xlink:href="#ArialMT-66" x="216.796875"/>
      <use xlink:href="#ArialMT-69" x="244.580078"/>
      <use xlink:href="#ArialMT-74" x="266.796875"/>
      <use xlink:href="#ArialMT-20" x="294.580078"/>
      <use xlink:href="#ArialMT-28" x="322.363281"/>
      <use xlink:href="#ArialMT-39" x="355.664062"/>
      <use xlink:href="#ArialMT-35" x="411.279297"/>
      <use xlink:href="#ArialMT-25" x="466.894531"/>
      <use xlink:href="#ArialMT-20" x="555.810547"/>
      <use xlink:href="#ArialMT-43" x="583.59375"/>
      <use xlink:href="#ArialMT-49" x="655.810547"/>
      <use xlink:href="#ArialMT-29" x="683.59375"/>
     </g>
    </g>
   </g>
  </g>
  <g id="axes_2">
   <g id="patch_8">
    <path d="M 313.000863 210.04 
L 476.055482 210.04 
L 476.055482 14.76 
L 313.000863 14.76 
z
" style="fill: #ffffff"/>
   </g>
   <g id="matplotlib.axis_3">
    <g id="xtick_7">
     <g id="line2d_20">
      <g>
       <use xlink:href="#m4d9ac48d50" x="330.905566" y="210.04" style="fill: #262626; stroke: #262626; stroke-width: 0.8"/>
      </g>
     </g>
     <g id="text_20">
      <!-- 150 -->
      <g style="fill: #262626" transform="translate(322.56416 224.197812) scale(0.1 -0.1)">
       <use xlink:href="#ArialMT-31"/>
       <use xlink:href="#ArialMT-35" x="55.615234"/>
       <use xlink:href="#ArialMT-30" x="111.230469"/>
      </g>
     </g>
    </g>
    <g id="xtick_8">
     <g id="line2d_21">
      <g>
       <use xlink:href="#m4d9ac48d50" x="369.471978" y="210.04" style="fill: #262626; stroke: #262626; stroke-width: 0.8"/>
      </g>
     </g>
     <g id="text_21">
      <!-- 175 -->
      <g style="fill: #262626" transform="translate(361.130572 224.197812) scale(0.1 -0.1)">
       <use xlink:href="#ArialMT-31"/>
       <use xlink:href="#ArialMT-37" x="55.615234"/>
       <use xlink:href="#ArialMT-35" x="111.230469"/>
      </g>
     </g>
    </g>
    <g id="xtick_9">
     <g id="line2d_22">
      <g>
       <use xlink:href="#m4d9ac48d50" x="408.03839" y="210.04" style="fill: #262626; stroke: #262626; stroke-width: 0.8"/>
      </g>
     </g>
     <g id="text_22">
      <!-- 200 -->
      <g style="fill: #262626" transform="translate(399.696984 224.197812) scale(0.1 -0.1)">
       <use xlink:href="#ArialMT-32"/>
       <use xlink:href="#ArialMT-30" x="55.615234"/>
       <use xlink:href="#ArialMT-30" x="111.230469"/>
      </g>
     </g>
    </g>
    <g id="xtick_10">
     <g id="line2d_23">
      <g>
       <use xlink:href="#m4d9ac48d50" x="446.604802" y="210.04" style="fill: #262626; stroke: #262626; stroke-width: 0.8"/>
      </g>
     </g>
     <g id="text_23">
      <!-- 225 -->
      <g style="fill: #262626" transform="translate(438.263396 224.197812) scale(0.1 -0.1)">
       <use xlink:href="#ArialMT-32"/>
       <use xlink:href="#ArialMT-32" x="55.615234"/>
       <use xlink:href="#ArialMT-35" x="111.230469"/>
      </g>
     </g>
    </g>
    <g id="text_24">
     <!-- vmax -->
     <g style="fill: #262626" transform="translate(382.58286 237.343125) scale(0.1 -0.1)">
      <defs>
       <path id="ArialMT-76" d="M 1344 0 
L 81 3319 
L 675 3319 
L 1388 1331 
Q 1503 1009 1600 663 
Q 1675 925 1809 1294 
L 2547 3319 
L 3125 3319 
L 1869 0 
L 1344 0 
z
" transform="scale(0.015625)"/>
       <path id="ArialMT-6d" d="M 422 0 
L 422 3319 
L 925 3319 
L 925 2853 
Q 1081 3097 1340 3245 
Q 1600 3394 1931 3394 
Q 2300 3394 2536 3241 
Q 2772 3088 2869 2813 
Q 3263 3394 3894 3394 
Q 4388 3394 4653 3120 
Q 4919 2847 4919 2278 
L 4919 0 
L 4359 0 
L 4359 2091 
Q 4359 2428 4304 2576 
Q 4250 2725 4106 2815 
Q 3963 2906 3769 2906 
Q 3419 2906 3187 2673 
Q 2956 2441 2956 1928 
L 2956 0 
L 2394 0 
L 2394 2156 
Q 2394 2531 2256 2718 
Q 2119 2906 1806 2906 
Q 1569 2906 1367 2781 
Q 1166 2656 1075 2415 
Q 984 2175 984 1722 
L 984 0 
L 422 0 
z
" transform="scale(0.015625)"/>
       <path id="ArialMT-61" d="M 2588 409 
Q 2275 144 1986 34 
Q 1697 -75 1366 -75 
Q 819 -75 525 192 
Q 231 459 231 875 
Q 231 1119 342 1320 
Q 453 1522 633 1644 
Q 813 1766 1038 1828 
Q 1203 1872 1538 1913 
Q 2219 1994 2541 2106 
Q 2544 2222 2544 2253 
Q 2544 2597 2384 2738 
Q 2169 2928 1744 2928 
Q 1347 2928 1158 2789 
Q 969 2650 878 2297 
L 328 2372 
Q 403 2725 575 2942 
Q 747 3159 1072 3276 
Q 1397 3394 1825 3394 
Q 2250 3394 2515 3294 
Q 2781 3194 2906 3042 
Q 3031 2891 3081 2659 
Q 3109 2516 3109 2141 
L 3109 1391 
Q 3109 606 3145 398 
Q 3181 191 3288 0 
L 2700 0 
Q 2613 175 2588 409 
z
M 2541 1666 
Q 2234 1541 1622 1453 
Q 1275 1403 1131 1340 
Q 988 1278 909 1158 
Q 831 1038 831 891 
Q 831 666 1001 516 
Q 1172 366 1500 366 
Q 1825 366 2078 508 
Q 2331 650 2450 897 
Q 2541 1088 2541 1459 
L 2541 1666 
z
" transform="scale(0.015625)"/>
      </defs>
      <use xlink:href="#ArialMT-76"/>
      <use xlink:href="#ArialMT-6d" x="50"/>
      <use xlink:href="#ArialMT-61" x="133.300781"/>
      <use xlink:href="#ArialMT-78" x="188.916016"/>
     </g>
    </g>
   </g>
   <g id="matplotlib.axis_4">
    <g id="ytick_10">
     <g id="line2d_24">
      <g>
       <use xlink:href="#m8a3d6c2987" x="313.000863" y="202.340097" style="fill: #262626; stroke: #262626; stroke-width: 0.8"/>
      </g>
     </g>
     <g id="text_25">
      <!-- 0 -->
      <g style="fill: #262626" transform="translate(300.439925 205.919003) scale(0.1 -0.1)">
       <use xlink:href="#ArialMT-30"/>
      </g>
     </g>
    </g>
    <g id="ytick_11">
     <g id="line2d_25">
      <g>
       <use xlink:href="#m8a3d6c2987" x="313.000863" y="175.777851" style="fill: #262626; stroke: #262626; stroke-width: 0.8"/>
      </g>
     </g>
     <g id="text_26">
      <!-- 5 -->
      <g style="fill: #262626" transform="translate(300.439925 179.356757) scale(0.1 -0.1)">
       <use xlink:href="#ArialMT-35"/>
      </g>
     </g>
    </g>
    <g id="ytick_12">
     <g id="line2d_26">
      <g>
       <use xlink:href="#m8a3d6c2987" x="313.000863" y="149.215605" style="fill: #262626; stroke: #262626; stroke-width: 0.8"/>
      </g>
     </g>
     <g id="text_27">
      <!-- 10 -->
      <g style="fill: #262626" transform="translate(294.878988 152.794511) scale(0.1 -0.1)">
       <use xlink:href="#ArialMT-31"/>
       <use xlink:href="#ArialMT-30" x="55.615234"/>
      </g>
     </g>
    </g>
    <g id="ytick_13">
     <g id="line2d_27">
      <g>
       <use xlink:href="#m8a3d6c2987" x="313.000863" y="122.653358" style="fill: #262626; stroke: #262626; stroke-width: 0.8"/>
      </g>
     </g>
     <g id="text_28">
      <!-- 15 -->
      <g style="fill: #262626" transform="translate(294.878988 126.232265) scale(0.1 -0.1)">
       <use xlink:href="#ArialMT-31"/>
       <use xlink:href="#ArialMT-35" x="55.615234"/>
      </g>
     </g>
    </g>
    <g id="ytick_14">
     <g id="line2d_28">
      <g>
       <use xlink:href="#m8a3d6c2987" x="313.000863" y="96.091112" style="fill: #262626; stroke: #262626; stroke-width: 0.8"/>
      </g>
     </g>
     <g id="text_29">
      <!-- 20 -->
      <g style="fill: #262626" transform="translate(294.878988 99.670018) scale(0.1 -0.1)">
       <use xlink:href="#ArialMT-32"/>
       <use xlink:href="#ArialMT-30" x="55.615234"/>
      </g>
     </g>
    </g>
    <g id="ytick_15">
     <g id="line2d_29">
      <g>
       <use xlink:href="#m8a3d6c2987" x="313.000863" y="69.528866" style="fill: #262626; stroke: #262626; stroke-width: 0.8"/>
      </g>
     </g>
     <g id="text_30">
      <!-- 25 -->
      <g style="fill: #262626" transform="translate(294.878988 73.107772) scale(0.1 -0.1)">
       <use xlink:href="#ArialMT-32"/>
       <use xlink:href="#ArialMT-35" x="55.615234"/>
      </g>
     </g>
    </g>
    <g id="ytick_16">
     <g id="line2d_30">
      <g>
       <use xlink:href="#m8a3d6c2987" x="313.000863" y="42.966619" style="fill: #262626; stroke: #262626; stroke-width: 0.8"/>
      </g>
     </g>
     <g id="text_31">
      <!-- 30 -->
      <g style="fill: #262626" transform="translate(294.878988 46.545526) scale(0.1 -0.1)">
       <defs>
        <path id="ArialMT-33" d="M 269 1209 
L 831 1284 
Q 928 806 1161 595 
Q 1394 384 1728 384 
Q 2125 384 2398 659 
Q 2672 934 2672 1341 
Q 2672 1728 2419 1979 
Q 2166 2231 1775 2231 
Q 1616 2231 1378 2169 
L 1441 2663 
Q 1497 2656 1531 2656 
Q 1891 2656 2178 2843 
Q 2466 3031 2466 3422 
Q 2466 3731 2256 3934 
Q 2047 4138 1716 4138 
Q 1388 4138 1169 3931 
Q 950 3725 888 3313 
L 325 3413 
Q 428 3978 793 4289 
Q 1159 4600 1703 4600 
Q 2078 4600 2393 4439 
Q 2709 4278 2876 4000 
Q 3044 3722 3044 3409 
Q 3044 3113 2884 2869 
Q 2725 2625 2413 2481 
Q 2819 2388 3044 2092 
Q 3269 1797 3269 1353 
Q 3269 753 2831 336 
Q 2394 -81 1725 -81 
Q 1122 -81 723 278 
Q 325 638 269 1209 
z
" transform="scale(0.015625)"/>
       </defs>
       <use xlink:href="#ArialMT-33"/>
       <use xlink:href="#ArialMT-30" x="55.615234"/>
      </g>
     </g>
    </g>
    <g id="ytick_17">
     <g id="line2d_31">
      <g>
       <use xlink:href="#m8a3d6c2987" x="313.000863" y="16.404373" style="fill: #262626; stroke: #262626; stroke-width: 0.8"/>
      </g>
     </g>
     <g id="text_32">
      <!-- 35 -->
      <g style="fill: #262626" transform="translate(294.878988 19.983279) scale(0.1 -0.1)">
       <use xlink:href="#ArialMT-33"/>
       <use xlink:href="#ArialMT-35" x="55.615234"/>
      </g>
     </g>
    </g>
    <g id="text_33">
     <!-- km -->
     <g style="fill: #262626" transform="translate(288.891488 119.064844) rotate(-90) scale(0.1 -0.1)">
      <defs>
       <path id="ArialMT-6b" d="M 425 0 
L 425 4581 
L 988 4581 
L 988 1969 
L 2319 3319 
L 3047 3319 
L 1778 2088 
L 3175 0 
L 2481 0 
L 1384 1697 
L 988 1316 
L 988 0 
L 425 0 
z
" transform="scale(0.015625)"/>
      </defs>
      <use xlink:href="#ArialMT-6b"/>
      <use xlink:href="#ArialMT-6d" x="50"/>
     </g>
    </g>
   </g>
   <g id="QuadContourSet_1">
    <path clip-path="url(#p9f5aa37bee)" style="fill: #130d25"/>
    <path d="M 392.86435 115.59702 
L 394.259109 114.392653 
L 392.86435 112.68634 
L 391.794888 114.392653 
z
M 396.191995 112.091391 
L 397.280735 110.407347 
L 396.191995 109.084725 
L 394.755816 110.407347 
z
" clip-path="url(#p9f5aa37bee)" style="fill: #381a40"/>
    <path d="M 392.86435 116.952685 
L 395.829084 114.392653 
L 396.191995 113.960577 
L 398.48917 110.407347 
L 396.191995 107.616694 
L 393.161744 110.407347 
L 392.86435 110.765672 
L 390.591076 114.392653 
z
M 391.794888 114.392653 
L 392.86435 112.68634 
L 394.259109 114.392653 
L 392.86435 115.59702 
z
M 394.755816 110.407347 
L 396.191995 109.084725 
L 397.280735 110.407347 
L 396.191995 112.091391 
z
" clip-path="url(#p9f5aa37bee)" style="fill: #611f53"/>
    <path d="M 389.536705 119.405542 
L 392.611317 118.377959 
L 392.86435 118.30835 
L 396.191995 115.276771 
L 396.967631 114.392653 
L 399.51964 110.626594 
L 399.668459 110.407347 
L 400.682953 106.422041 
L 399.51964 104.944803 
L 396.191995 106.184621 
L 395.950116 106.422041 
L 392.86435 109.390834 
L 392.036478 110.407347 
L 389.536705 114.20092 
L 389.412331 114.392653 
L 388.539972 118.377959 
z
M 390.591076 114.392653 
L 392.86435 110.765672 
L 393.161744 110.407347 
L 396.191995 107.616694 
L 398.48917 110.407347 
L 396.191995 113.960577 
L 395.829084 114.392653 
L 392.86435 116.952685 
z
" clip-path="url(#p9f5aa37bee)" style="fill: #8b1d5b"/>
    <path d="M 389.536705 121.052533 
L 392.86435 119.427726 
L 394.057616 118.377959 
L 396.191995 116.426703 
L 397.976467 114.392653 
L 399.51964 112.115356 
L 400.678989 110.407347 
L 402.255644 106.422041 
L 399.51964 102.947715 
L 396.191995 104.909677 
L 394.651227 106.422041 
L 392.86435 108.141182 
L 391.018733 110.407347 
L 389.536705 112.656424 
L 388.410444 114.392653 
L 386.942427 118.377959 
z
M 388.539972 118.377959 
L 389.412331 114.392653 
L 389.536705 114.20092 
L 392.036478 110.407347 
L 392.86435 109.390834 
L 395.950116 106.422041 
L 396.191995 106.184621 
L 399.51964 104.944803 
L 400.682953 106.422041 
L 399.668459 110.407347 
L 399.51964 110.626594 
L 396.967631 114.392653 
L 396.191995 115.276771 
L 392.86435 118.30835 
L 392.611317 118.377959 
L 389.536705 119.405542 
z
" clip-path="url(#p9f5aa37bee)" style="fill: #b71657"/>
    <path d="M 386.209059 122.899408 
L 389.536705 122.601679 
L 389.902568 122.363265 
L 392.86435 120.534312 
L 395.315469 118.377959 
L 396.191995 117.576636 
L 398.985303 114.392653 
L 399.51964 113.604119 
L 401.689518 110.407347 
L 402.847286 107.826977 
L 403.550357 106.422041 
L 403.979133 102.436735 
L 402.847286 100.897979 
L 399.51964 101.349366 
L 398.049011 102.436735 
L 396.191995 103.634733 
L 393.352337 106.422041 
L 392.86435 106.89153 
L 390.000987 110.407347 
L 389.536705 111.111927 
L 387.408558 114.392653 
L 386.209059 117.137688 
L 385.60984 118.377959 
L 385.632021 122.363265 
z
M 386.942427 118.377959 
L 388.410444 114.392653 
L 389.536705 112.656424 
L 391.018733 110.407347 
L 392.86435 108.141182 
L 394.651227 106.422041 
L 396.191995 104.909677 
L 399.51964 102.947715 
L 402.255644 106.422041 
L 400.678989 110.407347 
L 399.51964 112.115356 
L 397.976467 114.392653 
L 396.191995 116.426703 
L 394.057616 118.377959 
L 392.86435 119.427726 
L 389.536705 121.052533 
z
" clip-path="url(#p9f5aa37bee)" style="fill: #db2946"/>
    <path d="M 386.209059 124.683449 
L 389.536705 123.769422 
L 391.694558 122.363265 
L 392.86435 121.640898 
L 396.191995 118.707451 
L 396.513594 118.377959 
L 399.51964 114.959983 
L 399.985324 114.392653 
L 402.700048 110.407347 
L 402.847286 110.079191 
L 404.677429 106.422041 
L 405.793074 102.436735 
L 402.904849 98.451429 
L 402.847286 98.437904 
L 402.820712 98.451429 
L 399.51964 99.888118 
L 396.191995 102.358172 
L 396.113966 102.436735 
L 392.86435 105.629101 
L 392.184392 106.422041 
L 389.536705 109.678805 
L 388.993468 110.407347 
L 386.406671 114.392653 
L 386.209059 114.844885 
L 384.502106 118.377959 
L 383.711895 122.363265 
z
M 385.632021 122.363265 
L 385.60984 118.377959 
L 386.209059 117.137688 
L 387.408558 114.392653 
L 389.536705 111.111927 
L 390.000987 110.407347 
L 392.86435 106.89153 
L 393.352337 106.422041 
L 396.191995 103.634733 
L 398.049011 102.436735 
L 399.51964 101.349366 
L 402.847286 100.897979 
L 403.979133 102.436735 
L 403.550357 106.422041 
L 402.847286 107.826977 
L 401.689518 110.407347 
L 399.51964 113.604119 
L 398.985303 114.392653 
L 396.191995 117.576636 
L 395.315469 118.377959 
L 392.86435 120.534312 
L 389.902568 122.363265 
L 389.536705 122.601679 
L 386.209059 122.899408 
z
" clip-path="url(#p9f5aa37bee)" style="fill: #ef5840"/>
    <path d="M 386.209059 126.430687 
L 386.382985 126.348571 
L 389.536705 124.937166 
L 392.86435 122.728127 
L 393.290565 122.363265 
L 396.191995 119.794322 
L 397.57443 118.377959 
L 399.51964 116.166188 
L 400.975419 114.392653 
L 402.847286 111.6477 
L 403.699511 110.407347 
L 405.804502 106.422041 
L 406.174931 105.250617 
L 407.172727 102.436735 
L 407.257876 98.451429 
L 406.174931 96.857589 
L 402.847286 96.729102 
L 399.51964 98.427825 
L 399.491926 98.451429 
L 396.191995 101.056428 
L 394.82107 102.436735 
L 392.86435 104.358983 
L 391.095246 106.422041 
L 389.536705 108.339111 
L 387.994528 110.407347 
L 386.209059 113.157481 
L 385.415307 114.392653 
L 383.394372 118.377959 
L 382.881414 120.168715 
L 382.171591 122.363265 
L 382.881414 125.815278 
L 384.771776 126.348571 
z
M 383.711895 122.363265 
L 384.502106 118.377959 
L 386.209059 114.844885 
L 386.406671 114.392653 
L 388.993468 110.407347 
L 389.536705 109.678805 
L 392.184392 106.422041 
L 392.86435 105.629101 
L 396.113966 102.436735 
L 396.191995 102.358172 
L 399.51964 99.888118 
L 402.820712 98.451429 
L 402.847286 98.437904 
L 402.904849 98.451429 
L 405.793074 102.436735 
L 404.677429 106.422041 
L 402.847286 110.079191 
L 402.700048 110.407347 
L 399.985324 114.392653 
L 399.51964 114.959983 
L 396.513594 118.377959 
L 396.191995 118.707451 
L 392.86435 121.640898 
L 391.694558 122.363265 
L 389.536705 123.769422 
L 386.209059 124.683449 
z
" clip-path="url(#p9f5aa37bee)" style="fill: #f58860"/>
    <path d="M 382.881414 128.010705 
L 386.209059 127.662593 
L 388.992253 126.348571 
L 389.536705 126.104909 
L 392.86435 123.778963 
L 394.518105 122.363265 
L 396.191995 120.881193 
L 398.635265 118.377959 
L 399.51964 117.372394 
L 401.965514 114.392653 
L 402.847286 113.099601 
L 404.697086 110.407347 
L 406.174931 107.664846 
L 406.881593 106.422041 
L 408.43658 102.436735 
L 409.225523 98.451429 
L 407.055477 94.466122 
L 406.174931 94.120734 
L 405.012143 94.466122 
L 402.847286 95.0203 
L 399.51964 97.023405 
L 397.842919 98.451429 
L 396.191995 99.754685 
L 393.528175 102.436735 
L 392.86435 103.088864 
L 390.006101 106.422041 
L 389.536705 106.999418 
L 386.995587 110.407347 
L 386.209059 111.618825 
L 384.426529 114.392653 
L 382.881414 117.358788 
L 382.329251 118.377959 
L 380.920771 122.363265 
L 380.877896 126.348571 
z
M 384.771776 126.348571 
L 382.881414 125.815278 
L 382.171591 122.363265 
L 382.881414 120.168715 
L 383.394372 118.377959 
L 385.415307 114.392653 
L 386.209059 113.157481 
L 387.994528 110.407347 
L 389.536705 108.339111 
L 391.095246 106.422041 
L 392.86435 104.358983 
L 394.82107 102.436735 
L 396.191995 101.056428 
L 399.491926 98.451429 
L 399.51964 98.427825 
L 402.847286 96.729102 
L 406.174931 96.857589 
L 407.257876 98.451429 
L 407.172727 102.436735 
L 406.174931 105.250617 
L 405.804502 106.422041 
L 403.699511 110.407347 
L 402.847286 111.6477 
L 400.975419 114.392653 
L 399.51964 116.166188 
L 397.57443 118.377959 
L 396.191995 119.794322 
L 393.290565 122.363265 
L 392.86435 122.728127 
L 389.536705 124.937166 
L 386.382985 126.348571 
L 386.209059 126.430687 
z
" clip-path="url(#p9f5aa37bee)" style="fill: #f6b18b"/>
    <path d="M 379.553769 128.023807 
L 382.881414 129.832559 
L 386.209059 128.894499 
L 389.536705 127.182826 
L 390.71405 126.348571 
L 392.86435 124.829798 
L 395.745644 122.363265 
L 396.191995 121.968063 
L 399.51964 118.562779 
L 399.688388 118.377959 
L 402.847286 114.527927 
L 402.955126 114.392653 
L 405.694661 110.407347 
L 406.174931 109.516089 
L 407.934216 106.422041 
L 409.502576 102.815658 
L 409.679319 102.436735 
L 410.696642 98.451429 
L 410.568194 94.466122 
L 409.502576 92.758981 
L 406.174931 92.137932 
L 402.847286 93.416153 
L 401.344878 94.466122 
L 399.51964 95.618985 
L 396.193912 98.451429 
L 396.191995 98.452942 
L 392.86435 101.800343 
L 392.31043 102.436735 
L 389.536705 105.6675 
L 388.944139 106.422041 
L 386.209059 110.108857 
L 385.997585 110.407347 
L 383.43775 114.392653 
L 382.881414 115.460644 
L 381.300881 118.377959 
L 379.66995 122.363265 
L 379.553769 123.118836 
L 378.996351 126.348571 
z
M 380.877896 126.348571 
L 380.920771 122.363265 
L 382.329251 118.377959 
L 382.881414 117.358788 
L 384.426529 114.392653 
L 386.209059 111.618825 
L 386.995587 110.407347 
L 389.536705 106.999418 
L 390.006101 106.422041 
L 392.86435 103.088864 
L 393.528175 102.436735 
L 396.191995 99.754685 
L 397.842919 98.451429 
L 399.51964 97.023405 
L 402.847286 95.0203 
L 405.012143 94.466122 
L 406.174931 94.120734 
L 407.055477 94.466122 
L 409.225523 98.451429 
L 408.43658 102.436735 
L 406.881593 106.422041 
L 406.174931 107.664846 
L 404.697086 110.407347 
L 402.847286 113.099601 
L 401.965514 114.392653 
L 399.51964 117.372394 
L 398.635265 118.377959 
L 396.191995 120.881193 
L 394.518105 122.363265 
L 392.86435 123.778963 
L 389.536705 126.104909 
L 388.992253 126.348571 
L 386.209059 127.662593 
L 382.881414 128.010705 
z
" clip-path="url(#p9f5aa37bee)" style="fill: #f8d9c3"/>
   </g>
   <g id="patch_9">
    <path d="M 313.000863 210.04 
L 313.000863 14.76 
" style="fill: none; stroke: #262626; stroke-width: 0.8; stroke-linejoin: miter; stroke-linecap: square"/>
   </g>
   <g id="patch_10">
    <path d="M 476.055482 210.04 
L 476.055482 14.76 
" style="fill: none; stroke: #262626; stroke-width: 0.8; stroke-linejoin: miter; stroke-linecap: square"/>
   </g>
   <g id="patch_11">
    <path d="M 313.000863 210.04 
L 476.055482 210.04 
" style="fill: none; stroke: #262626; stroke-width: 0.8; stroke-linejoin: miter; stroke-linecap: square"/>
   </g>
   <g id="patch_12">
    <path d="M 313.000863 14.76 
L 476.055482 14.76 
" style="fill: none; stroke: #262626; stroke-width: 0.8; stroke-linejoin: miter; stroke-linecap: square"/>
   </g>
  </g>
  <g id="axes_3">
   <g id="patch_13">
    <path d="M 577.381725 210.04 
L 781.2 210.04 
L 781.2 14.76 
L 577.381725 14.76 
z
" style="fill: #ffffff"/>
   </g>
   <g id="matplotlib.axis_5">
    <g id="xtick_11">
     <g id="line2d_32">
      <g>
       <use xlink:href="#m4d9ac48d50" x="580.271536" y="210.04" style="fill: #262626; stroke: #262626; stroke-width: 0.8"/>
      </g>
     </g>
     <g id="text_34">
      <!-- −75 -->
      <g style="fill: #262626" transform="translate(571.790286 224.197812) scale(0.1 -0.1)">
       <defs>
        <path id="ArialMT-2212" d="M 3381 1997 
L 356 1997 
L 356 2522 
L 3381 2522 
L 3381 1997 
z
" transform="scale(0.015625)"/>
       </defs>
       <use xlink:href="#ArialMT-2212"/>
       <use xlink:href="#ArialMT-37" x="58.398438"/>
       <use xlink:href="#ArialMT-35" x="114.013672"/>
      </g>
     </g>
    </g>
    <g id="xtick_12">
     <g id="line2d_33">
      <g>
       <use xlink:href="#m4d9ac48d50" x="614.265516" y="210.04" style="fill: #262626; stroke: #262626; stroke-width: 0.8"/>
      </g>
     </g>
     <g id="text_35">
      <!-- −50 -->
      <g style="fill: #262626" transform="translate(605.784266 224.197812) scale(0.1 -0.1)">
       <use xlink:href="#ArialMT-2212"/>
       <use xlink:href="#ArialMT-35" x="58.398438"/>
       <use xlink:href="#ArialMT-30" x="114.013672"/>
      </g>
     </g>
    </g>
    <g id="xtick_13">
     <g id="line2d_34">
      <g>
       <use xlink:href="#m4d9ac48d50" x="648.259497" y="210.04" style="fill: #262626; stroke: #262626; stroke-width: 0.8"/>
      </g>
     </g>
     <g id="text_36">
      <!-- −25 -->
      <g style="fill: #262626" transform="translate(639.778247 224.197812) scale(0.1 -0.1)">
       <use xlink:href="#ArialMT-2212"/>
       <use xlink:href="#ArialMT-32" x="58.398438"/>
       <use xlink:href="#ArialMT-35" x="114.013672"/>
      </g>
     </g>
    </g>
    <g id="xtick_14">
     <g id="line2d_35">
      <g>
       <use xlink:href="#m4d9ac48d50" x="682.253477" y="210.04" style="fill: #262626; stroke: #262626; stroke-width: 0.8"/>
      </g>
     </g>
     <g id="text_37">
      <!-- 0 -->
      <g style="fill: #262626" transform="translate(679.473008 224.197812) scale(0.1 -0.1)">
       <use xlink:href="#ArialMT-30"/>
      </g>
     </g>
    </g>
    <g id="xtick_15">
     <g id="line2d_36">
      <g>
       <use xlink:href="#m4d9ac48d50" x="716.247457" y="210.04" style="fill: #262626; stroke: #262626; stroke-width: 0.8"/>
      </g>
     </g>
     <g id="text_38">
      <!-- 25 -->
      <g style="fill: #262626" transform="translate(710.686519 224.197812) scale(0.1 -0.1)">
       <use xlink:href="#ArialMT-32"/>
       <use xlink:href="#ArialMT-35" x="55.615234"/>
      </g>
     </g>
    </g>
    <g id="xtick_16">
     <g id="line2d_37">
      <g>
       <use xlink:href="#m4d9ac48d50" x="750.241437" y="210.04" style="fill: #262626; stroke: #262626; stroke-width: 0.8"/>
      </g>
     </g>
     <g id="text_39">
      <!-- 50 -->
      <g style="fill: #262626" transform="translate(744.6805 224.197812) scale(0.1 -0.1)">
       <use xlink:href="#ArialMT-35"/>
       <use xlink:href="#ArialMT-30" x="55.615234"/>
      </g>
     </g>
    </g>
    <g id="text_40">
     <!-- residual -->
     <g style="fill: #262626" transform="translate(661.782269 237.343125) scale(0.1 -0.1)">
      <defs>
       <path id="ArialMT-64" d="M 2575 0 
L 2575 419 
Q 2259 -75 1647 -75 
Q 1250 -75 917 144 
Q 584 363 401 755 
Q 219 1147 219 1656 
Q 219 2153 384 2558 
Q 550 2963 881 3178 
Q 1213 3394 1622 3394 
Q 1922 3394 2156 3267 
Q 2391 3141 2538 2938 
L 2538 4581 
L 3097 4581 
L 3097 0 
L 2575 0 
z
M 797 1656 
Q 797 1019 1065 703 
Q 1334 388 1700 388 
Q 2069 388 2326 689 
Q 2584 991 2584 1609 
Q 2584 2291 2321 2609 
Q 2059 2928 1675 2928 
Q 1300 2928 1048 2622 
Q 797 2316 797 1656 
z
" transform="scale(0.015625)"/>
      </defs>
      <use xlink:href="#ArialMT-72"/>
      <use xlink:href="#ArialMT-65" x="33.300781"/>
      <use xlink:href="#ArialMT-73" x="88.916016"/>
      <use xlink:href="#ArialMT-69" x="138.916016"/>
      <use xlink:href="#ArialMT-64" x="161.132812"/>
      <use xlink:href="#ArialMT-75" x="216.748047"/>
      <use xlink:href="#ArialMT-61" x="272.363281"/>
      <use xlink:href="#ArialMT-6c" x="327.978516"/>
     </g>
    </g>
   </g>
   <g id="matplotlib.axis_6">
    <g id="ytick_18">
     <g id="line2d_38">
      <g>
       <use xlink:href="#m8a3d6c2987" x="577.381725" y="210.04" style="fill: #262626; stroke: #262626; stroke-width: 0.8"/>
      </g>
     </g>
     <g id="text_41">
      <!-- 0.000 -->
      <g style="fill: #262626" transform="translate(545.35985 213.618906) scale(0.1 -0.1)">
       <defs>
        <path id="ArialMT-2e" d="M 581 0 
L 581 641 
L 1222 641 
L 1222 0 
L 581 0 
z
" transform="scale(0.015625)"/>
       </defs>
       <use xlink:href="#ArialMT-30"/>
       <use xlink:href="#ArialMT-2e" x="55.615234"/>
       <use xlink:href="#ArialMT-30" x="83.398438"/>
       <use xlink:href="#ArialMT-30" x="139.013672"/>
       <use xlink:href="#ArialMT-30" x="194.628906"/>
      </g>
     </g>
    </g>
    <g id="ytick_19">
     <g id="line2d_39">
      <g>
       <use xlink:href="#m8a3d6c2987" x="577.381725" y="179.494885" style="fill: #262626; stroke: #262626; stroke-width: 0.8"/>
      </g>
     </g>
     <g id="text_42">
      <!-- 0.005 -->
      <g style="fill: #262626" transform="translate(545.35985 183.073792) scale(0.1 -0.1)">
       <use xlink:href="#ArialMT-30"/>
       <use xlink:href="#ArialMT-2e" x="55.615234"/>
       <use xlink:href="#ArialMT-30" x="83.398438"/>
       <use xlink:href="#ArialMT-30" x="139.013672"/>
       <use xlink:href="#ArialMT-35" x="194.628906"/>
      </g>
     </g>
    </g>
    <g id="ytick_20">
     <g id="line2d_40">
      <g>
       <use xlink:href="#m8a3d6c2987" x="577.381725" y="148.949771" style="fill: #262626; stroke: #262626; stroke-width: 0.8"/>
      </g>
     </g>
     <g id="text_43">
      <!-- 0.010 -->
      <g style="fill: #262626" transform="translate(545.35985 152.528677) scale(0.1 -0.1)">
       <use xlink:href="#ArialMT-30"/>
       <use xlink:href="#ArialMT-2e" x="55.615234"/>
       <use xlink:href="#ArialMT-30" x="83.398438"/>
       <use xlink:href="#ArialMT-31" x="139.013672"/>
       <use xlink:href="#ArialMT-30" x="194.628906"/>
      </g>
     </g>
    </g>
    <g id="ytick_21">
     <g id="line2d_41">
      <g>
       <use xlink:href="#m8a3d6c2987" x="577.381725" y="118.404656" style="fill: #262626; stroke: #262626; stroke-width: 0.8"/>
      </g>
     </g>
     <g id="text_44">
      <!-- 0.015 -->
      <g style="fill: #262626" transform="translate(545.35985 121.983562) scale(0.1 -0.1)">
       <use xlink:href="#ArialMT-30"/>
       <use xlink:href="#ArialMT-2e" x="55.615234"/>
       <use xlink:href="#ArialMT-30" x="83.398438"/>
       <use xlink:href="#ArialMT-31" x="139.013672"/>
       <use xlink:href="#ArialMT-35" x="194.628906"/>
      </g>
     </g>
    </g>
    <g id="ytick_22">
     <g id="line2d_42">
      <g>
       <use xlink:href="#m8a3d6c2987" x="577.381725" y="87.859541" style="fill: #262626; stroke: #262626; stroke-width: 0.8"/>
      </g>
     </g>
     <g id="text_45">
      <!-- 0.020 -->
      <g style="fill: #262626" transform="translate(545.35985 91.438447) scale(0.1 -0.1)">
       <use xlink:href="#ArialMT-30"/>
       <use xlink:href="#ArialMT-2e" x="55.615234"/>
       <use xlink:href="#ArialMT-30" x="83.398438"/>
       <use xlink:href="#ArialMT-32" x="139.013672"/>
       <use xlink:href="#ArialMT-30" x="194.628906"/>
      </g>
     </g>
    </g>
    <g id="ytick_23">
     <g id="line2d_43">
      <g>
       <use xlink:href="#m8a3d6c2987" x="577.381725" y="57.314426" style="fill: #262626; stroke: #262626; stroke-width: 0.8"/>
      </g>
     </g>
     <g id="text_46">
      <!-- 0.025 -->
      <g style="fill: #262626" transform="translate(545.35985 60.893333) scale(0.1 -0.1)">
       <use xlink:href="#ArialMT-30"/>
       <use xlink:href="#ArialMT-2e" x="55.615234"/>
       <use xlink:href="#ArialMT-30" x="83.398438"/>
       <use xlink:href="#ArialMT-32" x="139.013672"/>
       <use xlink:href="#ArialMT-35" x="194.628906"/>
      </g>
     </g>
    </g>
    <g id="ytick_24">
     <g id="line2d_44">
      <g>
       <use xlink:href="#m8a3d6c2987" x="577.381725" y="26.769312" style="fill: #262626; stroke: #262626; stroke-width: 0.8"/>
      </g>
     </g>
     <g id="text_47">
      <!-- 0.030 -->
      <g style="fill: #262626" transform="translate(545.35985 30.348218) scale(0.1 -0.1)">
       <use xlink:href="#ArialMT-30"/>
       <use xlink:href="#ArialMT-2e" x="55.615234"/>
       <use xlink:href="#ArialMT-30" x="83.398438"/>
       <use xlink:href="#ArialMT-33" x="139.013672"/>
       <use xlink:href="#ArialMT-30" x="194.628906"/>
      </g>
     </g>
    </g>
    <g id="text_48">
     <!-- Density -->
     <g style="fill: #262626" transform="translate(539.255163 129.071875) rotate(-90) scale(0.1 -0.1)">
      <defs>
       <path id="ArialMT-44" d="M 494 0 
L 494 4581 
L 2072 4581 
Q 2606 4581 2888 4516 
Q 3281 4425 3559 4188 
Q 3922 3881 4101 3404 
Q 4281 2928 4281 2316 
Q 4281 1794 4159 1391 
Q 4038 988 3847 723 
Q 3656 459 3429 307 
Q 3203 156 2883 78 
Q 2563 0 2147 0 
L 494 0 
z
M 1100 541 
L 2078 541 
Q 2531 541 2789 625 
Q 3047 709 3200 863 
Q 3416 1078 3536 1442 
Q 3656 1806 3656 2325 
Q 3656 3044 3420 3430 
Q 3184 3816 2847 3947 
Q 2603 4041 2063 4041 
L 1100 4041 
L 1100 541 
z
" transform="scale(0.015625)"/>
      </defs>
      <use xlink:href="#ArialMT-44"/>
      <use xlink:href="#ArialMT-65" x="72.216797"/>
      <use xlink:href="#ArialMT-6e" x="127.832031"/>
      <use xlink:href="#ArialMT-73" x="183.447266"/>
      <use xlink:href="#ArialMT-69" x="233.447266"/>
      <use xlink:href="#ArialMT-74" x="255.664062"/>
      <use xlink:href="#ArialMT-79" x="283.447266"/>
     </g>
    </g>
   </g>
   <g id="patch_14">
    <path d="M 628.245388 210.04 
L 645.260546 210.04 
L 645.260546 163.544762 
L 628.245388 163.544762 
z
" clip-path="url(#p0d9e47cbae)" style="fill: #23612b; fill-opacity: 0.5; stroke: #ffffff; stroke-linejoin: miter"/>
   </g>
   <g id="patch_15">
    <path d="M 645.260546 210.04 
L 662.275705 210.04 
L 662.275705 186.792381 
L 645.260546 186.792381 
z
" clip-path="url(#p0d9e47cbae)" style="fill: #23612b; fill-opacity: 0.5; stroke: #ffffff; stroke-linejoin: miter"/>
   </g>
   <g id="patch_16">
    <path d="M 662.275705 210.04 
L 679.290863 210.04 
L 679.290863 117.049524 
L 662.275705 117.049524 
z
" clip-path="url(#p0d9e47cbae)" style="fill: #23612b; fill-opacity: 0.5; stroke: #ffffff; stroke-linejoin: miter"/>
   </g>
   <g id="patch_17">
    <path d="M 679.290863 210.04 
L 696.306021 210.04 
L 696.306021 24.059048 
L 679.290863 24.059048 
z
" clip-path="url(#p0d9e47cbae)" style="fill: #23612b; fill-opacity: 0.5; stroke: #ffffff; stroke-linejoin: miter"/>
   </g>
   <g id="patch_18">
    <path d="M 696.306021 210.04 
L 713.321179 210.04 
L 713.321179 117.049524 
L 696.306021 117.049524 
z
" clip-path="url(#p0d9e47cbae)" style="fill: #23612b; fill-opacity: 0.5; stroke: #ffffff; stroke-linejoin: miter"/>
   </g>
   <g id="patch_19">
    <path d="M 713.321179 210.04 
L 730.336337 210.04 
L 730.336337 163.544762 
L 713.321179 163.544762 
z
" clip-path="url(#p0d9e47cbae)" style="fill: #23612b; fill-opacity: 0.5; stroke: #ffffff; stroke-linejoin: miter"/>
   </g>
   <g id="line2d_45">
    <path d="M 586.646193 209.850428 
L 591.301704 209.536575 
L 595.026112 209.024974 
L 597.819419 208.400845 
L 600.612726 207.496536 
L 602.47493 206.705599 
L 604.337135 205.74522 
L 606.199339 204.604772 
L 608.061543 203.281066 
L 610.85485 200.96851 
L 613.648157 198.32812 
L 622.959179 189.059642 
L 624.821383 187.520113 
L 626.683588 186.18476 
L 628.545792 185.066302 
L 630.407997 184.155261 
L 633.201303 183.099137 
L 638.787916 181.246195 
L 640.650121 180.369866 
L 642.512325 179.201013 
L 644.37453 177.651428 
L 646.236734 175.647771 
L 648.098939 173.135565 
L 649.961143 170.081241 
L 651.823347 166.472236 
L 653.685552 162.31541 
L 655.547756 157.634302 
L 657.409961 152.465894 
L 660.203267 143.905539 
L 662.996574 134.550956 
L 666.720983 121.251565 
L 673.238698 97.815428 
L 676.032005 88.811394 
L 677.894209 83.542707 
L 679.756414 79.055708 
L 680.687516 77.155752 
L 681.618618 75.509869 
L 682.54972 74.1351 
L 683.480823 73.046694 
L 684.411925 72.257799 
L 685.343027 71.779182 
L 686.274129 71.618986 
L 687.205232 71.78253 
L 688.136334 72.27216 
L 689.067436 73.08715 
L 689.998538 74.223665 
L 690.92964 75.674772 
L 691.860743 77.430515 
L 692.791845 79.478035 
L 694.654049 84.383537 
L 696.516254 90.23797 
L 698.378458 96.856676 
L 701.171765 107.764456 
L 707.68948 134.084135 
L 710.482787 144.240153 
L 712.344991 150.309465 
L 714.207196 155.741494 
L 716.0694 160.515984 
L 717.931605 164.650473 
L 719.793809 168.195608 
L 721.656013 171.228341 
L 723.518218 173.843529 
L 725.380422 176.144644 
L 728.173729 179.229892 
L 736.553649 188.140542 
L 745.864671 198.54183 
L 748.657978 201.243027 
L 751.451284 203.557576 
L 753.313489 204.862979 
L 755.175693 205.976397 
L 757.037898 206.905515 
L 759.831204 207.985358 
L 762.624511 208.745728 
L 765.417817 209.256658 
L 769.142226 209.663225 
L 771.935533 209.832363 
L 771.935533 209.832363 
" clip-path="url(#p0d9e47cbae)" style="fill: none; stroke: #23612b; stroke-width: 1.5; stroke-linecap: round"/>
   </g>
   <g id="patch_20">
    <path d="M 577.381725 210.04 
L 577.381725 14.76 
" style="fill: none; stroke: #262626; stroke-width: 0.8; stroke-linejoin: miter; stroke-linecap: square"/>
   </g>
   <g id="patch_21">
    <path d="M 781.2 210.04 
L 781.2 14.76 
" style="fill: none; stroke: #262626; stroke-width: 0.8; stroke-linejoin: miter; stroke-linecap: square"/>
   </g>
   <g id="patch_22">
    <path d="M 577.381725 210.04 
L 781.2 210.04 
" style="fill: none; stroke: #262626; stroke-width: 0.8; stroke-linejoin: miter; stroke-linecap: square"/>
   </g>
   <g id="patch_23">
    <path d="M 577.381725 14.76 
L 781.2 14.76 
" style="fill: none; stroke: #262626; stroke-width: 0.8; stroke-linejoin: miter; stroke-linecap: square"/>
   </g>
  </g>
  <g id="axes_4">
   <g id="patch_24">
    <path d="M 486.246396 210.04 
L 496.010396 210.04 
L 496.010396 14.76 
L 486.246396 14.76 
z
" style="fill: #ffffff"/>
   </g>
   <g id="matplotlib.axis_7"/>
   <g id="matplotlib.axis_8">
    <g id="ytick_25">
     <g id="line2d_46">
      <defs>
       <path id="m0609ba2e1f" d="M 0 0 
L 3.5 0 
" style="stroke: #262626; stroke-width: 0.8"/>
      </defs>
      <g>
       <use xlink:href="#m0609ba2e1f" x="496.010396" y="210.04" style="fill: #262626; stroke: #262626; stroke-width: 0.8"/>
      </g>
     </g>
     <g id="text_49">
      <!-- 0.0 -->
      <g style="fill: #262626" transform="translate(503.010396 213.618906) scale(0.1 -0.1)">
       <use xlink:href="#ArialMT-30"/>
       <use xlink:href="#ArialMT-2e" x="55.615234"/>
       <use xlink:href="#ArialMT-30" x="83.398438"/>
      </g>
     </g>
    </g>
    <g id="ytick_26">
     <g id="line2d_47">
      <g>
       <use xlink:href="#m0609ba2e1f" x="496.010396" y="170.984" style="fill: #262626; stroke: #262626; stroke-width: 0.8"/>
      </g>
     </g>
     <g id="text_50">
      <!-- 0.2 -->
      <g style="fill: #262626" transform="translate(503.010396 174.562906) scale(0.1 -0.1)">
       <use xlink:href="#ArialMT-30"/>
       <use xlink:href="#ArialMT-2e" x="55.615234"/>
       <use xlink:href="#ArialMT-32" x="83.398438"/>
      </g>
     </g>
    </g>
    <g id="ytick_27">
     <g id="line2d_48">
      <g>
       <use xlink:href="#m0609ba2e1f" x="496.010396" y="131.928" style="fill: #262626; stroke: #262626; stroke-width: 0.8"/>
      </g>
     </g>
     <g id="text_51">
      <!-- 0.4 -->
      <g style="fill: #262626" transform="translate(503.010396 135.506906) scale(0.1 -0.1)">
       <defs>
        <path id="ArialMT-34" d="M 2069 0 
L 2069 1097 
L 81 1097 
L 81 1613 
L 2172 4581 
L 2631 4581 
L 2631 1613 
L 3250 1613 
L 3250 1097 
L 2631 1097 
L 2631 0 
L 2069 0 
z
M 2069 1613 
L 2069 3678 
L 634 1613 
L 2069 1613 
z
" transform="scale(0.015625)"/>
       </defs>
       <use xlink:href="#ArialMT-30"/>
       <use xlink:href="#ArialMT-2e" x="55.615234"/>
       <use xlink:href="#ArialMT-34" x="83.398438"/>
      </g>
     </g>
    </g>
    <g id="ytick_28">
     <g id="line2d_49">
      <g>
       <use xlink:href="#m0609ba2e1f" x="496.010396" y="92.872" style="fill: #262626; stroke: #262626; stroke-width: 0.8"/>
      </g>
     </g>
     <g id="text_52">
      <!-- 0.6 -->
      <g style="fill: #262626" transform="translate(503.010396 96.450906) scale(0.1 -0.1)">
       <defs>
        <path id="ArialMT-36" d="M 3184 3459 
L 2625 3416 
Q 2550 3747 2413 3897 
Q 2184 4138 1850 4138 
Q 1581 4138 1378 3988 
Q 1113 3794 959 3422 
Q 806 3050 800 2363 
Q 1003 2672 1297 2822 
Q 1591 2972 1913 2972 
Q 2475 2972 2870 2558 
Q 3266 2144 3266 1488 
Q 3266 1056 3080 686 
Q 2894 316 2569 119 
Q 2244 -78 1831 -78 
Q 1128 -78 684 439 
Q 241 956 241 2144 
Q 241 3472 731 4075 
Q 1159 4600 1884 4600 
Q 2425 4600 2770 4297 
Q 3116 3994 3184 3459 
z
M 888 1484 
Q 888 1194 1011 928 
Q 1134 663 1356 523 
Q 1578 384 1822 384 
Q 2178 384 2434 671 
Q 2691 959 2691 1453 
Q 2691 1928 2437 2201 
Q 2184 2475 1800 2475 
Q 1419 2475 1153 2201 
Q 888 1928 888 1484 
z
" transform="scale(0.015625)"/>
       </defs>
       <use xlink:href="#ArialMT-30"/>
       <use xlink:href="#ArialMT-2e" x="55.615234"/>
       <use xlink:href="#ArialMT-36" x="83.398438"/>
      </g>
     </g>
    </g>
    <g id="ytick_29">
     <g id="line2d_50">
      <g>
       <use xlink:href="#m0609ba2e1f" x="496.010396" y="53.816" style="fill: #262626; stroke: #262626; stroke-width: 0.8"/>
      </g>
     </g>
     <g id="text_53">
      <!-- 0.8 -->
      <g style="fill: #262626" transform="translate(503.010396 57.394906) scale(0.1 -0.1)">
       <defs>
        <path id="ArialMT-38" d="M 1131 2484 
Q 781 2613 612 2850 
Q 444 3088 444 3419 
Q 444 3919 803 4259 
Q 1163 4600 1759 4600 
Q 2359 4600 2725 4251 
Q 3091 3903 3091 3403 
Q 3091 3084 2923 2848 
Q 2756 2613 2416 2484 
Q 2838 2347 3058 2040 
Q 3278 1734 3278 1309 
Q 3278 722 2862 322 
Q 2447 -78 1769 -78 
Q 1091 -78 675 323 
Q 259 725 259 1325 
Q 259 1772 486 2073 
Q 713 2375 1131 2484 
z
M 1019 3438 
Q 1019 3113 1228 2906 
Q 1438 2700 1772 2700 
Q 2097 2700 2305 2904 
Q 2513 3109 2513 3406 
Q 2513 3716 2298 3927 
Q 2084 4138 1766 4138 
Q 1444 4138 1231 3931 
Q 1019 3725 1019 3438 
z
M 838 1322 
Q 838 1081 952 856 
Q 1066 631 1291 507 
Q 1516 384 1775 384 
Q 2178 384 2440 643 
Q 2703 903 2703 1303 
Q 2703 1709 2433 1975 
Q 2163 2241 1756 2241 
Q 1359 2241 1098 1978 
Q 838 1716 838 1322 
z
" transform="scale(0.015625)"/>
       </defs>
       <use xlink:href="#ArialMT-30"/>
       <use xlink:href="#ArialMT-2e" x="55.615234"/>
       <use xlink:href="#ArialMT-38" x="83.398438"/>
      </g>
     </g>
    </g>
    <g id="ytick_30">
     <g id="line2d_51">
      <g>
       <use xlink:href="#m0609ba2e1f" x="496.010396" y="14.76" style="fill: #262626; stroke: #262626; stroke-width: 0.8"/>
      </g>
     </g>
     <g id="text_54">
      <!-- 1.0 -->
      <g style="fill: #262626" transform="translate(503.010396 18.338906) scale(0.1 -0.1)">
       <use xlink:href="#ArialMT-31"/>
       <use xlink:href="#ArialMT-2e" x="55.615234"/>
       <use xlink:href="#ArialMT-30" x="83.398438"/>
      </g>
     </g>
    </g>
   </g>
   <g id="QuadMesh_1">
    <path d="M 486.246396 210.04 
L 496.010396 210.04 
L 496.010396 190.512 
L 486.246396 190.512 
L 486.246396 210.04 
" clip-path="url(#p781df6143b)" style="fill: #130d25"/>
    <path d="M 486.246396 190.512 
L 496.010396 190.512 
L 496.010396 170.984 
L 486.246396 170.984 
L 486.246396 190.512 
" clip-path="url(#p781df6143b)" style="fill: #381a40"/>
    <path d="M 486.246396 170.984 
L 496.010396 170.984 
L 496.010396 151.456 
L 486.246396 151.456 
L 486.246396 170.984 
" clip-path="url(#p781df6143b)" style="fill: #611f53"/>
    <path d="M 486.246396 151.456 
L 496.010396 151.456 
L 496.010396 131.928 
L 486.246396 131.928 
L 486.246396 151.456 
" clip-path="url(#p781df6143b)" style="fill: #8b1d5b"/>
    <path d="M 486.246396 131.928 
L 496.010396 131.928 
L 496.010396 112.4 
L 486.246396 112.4 
L 486.246396 131.928 
" clip-path="url(#p781df6143b)" style="fill: #b71657"/>
    <path d="M 486.246396 112.4 
L 496.010396 112.4 
L 496.010396 92.872 
L 486.246396 92.872 
L 486.246396 112.4 
" clip-path="url(#p781df6143b)" style="fill: #db2946"/>
    <path d="M 486.246396 92.872 
L 496.010396 92.872 
L 496.010396 73.344 
L 486.246396 73.344 
L 486.246396 92.872 
" clip-path="url(#p781df6143b)" style="fill: #ef5840"/>
    <path d="M 486.246396 73.344 
L 496.010396 73.344 
L 496.010396 53.816 
L 486.246396 53.816 
L 486.246396 73.344 
" clip-path="url(#p781df6143b)" style="fill: #f58860"/>
    <path d="M 486.246396 53.816 
L 496.010396 53.816 
L 496.010396 34.288 
L 486.246396 34.288 
L 486.246396 53.816 
" clip-path="url(#p781df6143b)" style="fill: #f6b18b"/>
    <path d="M 486.246396 34.288 
L 496.010396 34.288 
L 496.010396 14.76 
L 486.246396 14.76 
L 486.246396 34.288 
" clip-path="url(#p781df6143b)" style="fill: #f8d9c3"/>
   </g>
   <g id="LineCollection_1"/>
   <g id="patch_25">
    <path d="M 486.246396 210.04 
L 491.128396 210.04 
L 496.010396 210.04 
L 496.010396 14.76 
L 491.128396 14.76 
L 486.246396 14.76 
L 486.246396 210.04 
z
" style="fill: none; stroke: #262626; stroke-width: 0.8; stroke-linejoin: miter; stroke-linecap: square"/>
   </g>
  </g>
 </g>
 <defs>
  <clipPath id="p0dbb95cfbe">
   <rect x="48.62" y="14.76" width="203.818275" height="195.28"/>
  </clipPath>
  <clipPath id="p9f5aa37bee">
   <rect x="313.000863" y="14.76" width="163.05462" height="195.28"/>
  </clipPath>
  <clipPath id="p0d9e47cbae">
   <rect x="577.381725" y="14.76" width="203.818275" height="195.28"/>
  </clipPath>
  <clipPath id="p781df6143b">
   <rect x="486.246396" y="14.76" width="9.764" height="195.28"/>
  </clipPath>
 </defs>
</svg>
