<?xml version="1.0" encoding="utf-8" standalone="no"?>
<!DOCTYPE svg PUBLIC "-//W3C//DTD SVG 1.1//EN"
  "http://www.w3.org/Graphics/SVG/1.1/DTD/svg11.dtd">
<svg xmlns:xlink="http://www.w3.org/1999/xlink" width="792pt" height="252pt" viewBox="0 0 792 252" xmlns="http://www.w3.org/2000/svg" version="1.1">
 <metadata>
  <rdf:RDF xmlns:dc="http://purl.org/dc/elements/1.1/" xmlns:cc="http://creativecommons.org/ns#" xmlns:rdf="http://www.w3.org/1999/02/22-rdf-syntax-ns#">
   <cc:Work>
    <dc:type rdf:resource="http://purl.org/dc/dcmitype/StillImage"/>
    <dc:date>2024-01-30T16:25:34.408105</dc:date>
    <dc:format>image/svg+xml</dc:format>
    <dc:creator>
     <cc:Agent>
      <dc:title>Matplotlib v3.8.1, https://matplotlib.org/</dc:title>
     </cc:Agent>
    </dc:creator>
   </cc:Work>
  </rdf:RDF>
 </metadata>
 <defs>
  <style type="text/css">*{stroke-linejoin: round; stroke-linecap: butt}</style>
 </defs>
 <g id="figure_1">
  <g id="patch_1">
   <path d="M 0 252 
L 792 252 
L 792 0 
L 0 0 
z
" style="fill: #ffffff"/>
  </g>
  <g id="axes_1">
   <g id="patch_2">
    <path d="M 48.62 210.04 
L 252.438275 210.04 
L 252.438275 14.76 
L 48.62 14.76 
z
" style="fill: #ffffff"/>
   </g>
   <g id="matplotlib.axis_1">
    <g id="xtick_1">
     <g id="line2d_1">
      <defs>
       <path id="m7917883b4d" d="M 0 0 
L 0 3.5 
" style="stroke: #262626; stroke-width: 0.8"/>
      </defs>
      <g>
       <use xlink:href="#m7917883b4d" x="57.884467" y="210.04" style="fill: #262626; stroke: #262626; stroke-width: 0.8"/>
      </g>
     </g>
     <g id="text_1">
      <!-- 0 -->
      <g style="fill: #262626" transform="translate(55.103998 224.197812) scale(0.1 -0.1)">
       <defs>
        <path id="ArialMT-30" d="M 266 2259 
Q 266 3072 433 3567 
Q 600 4063 929 4331 
Q 1259 4600 1759 4600 
Q 2128 4600 2406 4451 
Q 2684 4303 2865 4023 
Q 3047 3744 3150 3342 
Q 3253 2941 3253 2259 
Q 3253 1453 3087 958 
Q 2922 463 2592 192 
Q 2263 -78 1759 -78 
Q 1097 -78 719 397 
Q 266 969 266 2259 
z
M 844 2259 
Q 844 1131 1108 757 
Q 1372 384 1759 384 
Q 2147 384 2411 759 
Q 2675 1134 2675 2259 
Q 2675 3391 2411 3762 
Q 2147 4134 1753 4134 
Q 1366 4134 1134 3806 
Q 844 3388 844 2259 
z
" transform="scale(0.015625)"/>
       </defs>
       <use xlink:href="#ArialMT-30"/>
      </g>
     </g>
    </g>
    <g id="xtick_2">
     <g id="line2d_2">
      <g>
       <use xlink:href="#m7917883b4d" x="91.866407" y="210.04" style="fill: #262626; stroke: #262626; stroke-width: 0.8"/>
      </g>
     </g>
     <g id="text_2">
      <!-- 50 -->
      <g style="fill: #262626" transform="translate(86.30547 224.197812) scale(0.1 -0.1)">
       <defs>
        <path id="ArialMT-35" d="M 266 1200 
L 856 1250 
Q 922 819 1161 601 
Q 1400 384 1738 384 
Q 2144 384 2425 690 
Q 2706 997 2706 1503 
Q 2706 1984 2436 2262 
Q 2166 2541 1728 2541 
Q 1456 2541 1237 2417 
Q 1019 2294 894 2097 
L 366 2166 
L 809 4519 
L 3088 4519 
L 3088 3981 
L 1259 3981 
L 1013 2750 
Q 1425 3038 1878 3038 
Q 2478 3038 2890 2622 
Q 3303 2206 3303 1553 
Q 3303 931 2941 478 
Q 2500 -78 1738 -78 
Q 1113 -78 717 272 
Q 322 622 266 1200 
z
" transform="scale(0.015625)"/>
       </defs>
       <use xlink:href="#ArialMT-35"/>
       <use xlink:href="#ArialMT-30" x="55.615234"/>
      </g>
     </g>
    </g>
    <g id="xtick_3">
     <g id="line2d_3">
      <g>
       <use xlink:href="#m7917883b4d" x="125.848348" y="210.04" style="fill: #262626; stroke: #262626; stroke-width: 0.8"/>
      </g>
     </g>
     <g id="text_3">
      <!-- 100 -->
      <g style="fill: #262626" transform="translate(117.506942 224.197812) scale(0.1 -0.1)">
       <defs>
        <path id="ArialMT-31" d="M 2384 0 
L 1822 0 
L 1822 3584 
Q 1619 3391 1289 3197 
Q 959 3003 697 2906 
L 697 3450 
Q 1169 3672 1522 3987 
Q 1875 4303 2022 4600 
L 2384 4600 
L 2384 0 
z
" transform="scale(0.015625)"/>
       </defs>
       <use xlink:href="#ArialMT-31"/>
       <use xlink:href="#ArialMT-30" x="55.615234"/>
       <use xlink:href="#ArialMT-30" x="111.230469"/>
      </g>
     </g>
    </g>
    <g id="xtick_4">
     <g id="line2d_4">
      <g>
       <use xlink:href="#m7917883b4d" x="159.830288" y="210.04" style="fill: #262626; stroke: #262626; stroke-width: 0.8"/>
      </g>
     </g>
     <g id="text_4">
      <!-- 150 -->
      <g style="fill: #262626" transform="translate(151.488882 224.197812) scale(0.1 -0.1)">
       <use xlink:href="#ArialMT-31"/>
       <use xlink:href="#ArialMT-35" x="55.615234"/>
       <use xlink:href="#ArialMT-30" x="111.230469"/>
      </g>
     </g>
    </g>
    <g id="xtick_5">
     <g id="line2d_5">
      <g>
       <use xlink:href="#m7917883b4d" x="193.812229" y="210.04" style="fill: #262626; stroke: #262626; stroke-width: 0.8"/>
      </g>
     </g>
     <g id="text_5">
      <!-- 200 -->
      <g style="fill: #262626" transform="translate(185.470822 224.197812) scale(0.1 -0.1)">
       <defs>
        <path id="ArialMT-32" d="M 3222 541 
L 3222 0 
L 194 0 
Q 188 203 259 391 
Q 375 700 629 1000 
Q 884 1300 1366 1694 
Q 2113 2306 2375 2664 
Q 2638 3022 2638 3341 
Q 2638 3675 2398 3904 
Q 2159 4134 1775 4134 
Q 1369 4134 1125 3890 
Q 881 3647 878 3216 
L 300 3275 
Q 359 3922 746 4261 
Q 1134 4600 1788 4600 
Q 2447 4600 2831 4234 
Q 3216 3869 3216 3328 
Q 3216 3053 3103 2787 
Q 2991 2522 2730 2228 
Q 2469 1934 1863 1422 
Q 1356 997 1212 845 
Q 1069 694 975 541 
L 3222 541 
z
" transform="scale(0.015625)"/>
       </defs>
       <use xlink:href="#ArialMT-32"/>
       <use xlink:href="#ArialMT-30" x="55.615234"/>
       <use xlink:href="#ArialMT-30" x="111.230469"/>
      </g>
     </g>
    </g>
    <g id="xtick_6">
     <g id="line2d_6">
      <g>
       <use xlink:href="#m7917883b4d" x="227.794169" y="210.04" style="fill: #262626; stroke: #262626; stroke-width: 0.8"/>
      </g>
     </g>
     <g id="text_6">
      <!-- 250 -->
      <g style="fill: #262626" transform="translate(219.452763 224.197812) scale(0.1 -0.1)">
       <use xlink:href="#ArialMT-32"/>
       <use xlink:href="#ArialMT-35" x="55.615234"/>
       <use xlink:href="#ArialMT-30" x="111.230469"/>
      </g>
     </g>
    </g>
    <g id="text_7">
     <!-- [Phytoene] (µM) -->
     <g style="fill: #262626" transform="translate(114.859606 237.465) scale(0.1 -0.1)">
      <defs>
       <path id="ArialMT-5b" d="M 434 -1272 
L 434 4581 
L 1675 4581 
L 1675 4116 
L 997 4116 
L 997 -806 
L 1675 -806 
L 1675 -1272 
L 434 -1272 
z
" transform="scale(0.015625)"/>
       <path id="ArialMT-50" d="M 494 0 
L 494 4581 
L 2222 4581 
Q 2678 4581 2919 4538 
Q 3256 4481 3484 4323 
Q 3713 4166 3852 3881 
Q 3991 3597 3991 3256 
Q 3991 2672 3619 2267 
Q 3247 1863 2275 1863 
L 1100 1863 
L 1100 0 
L 494 0 
z
M 1100 2403 
L 2284 2403 
Q 2872 2403 3119 2622 
Q 3366 2841 3366 3238 
Q 3366 3525 3220 3729 
Q 3075 3934 2838 4000 
Q 2684 4041 2272 4041 
L 1100 4041 
L 1100 2403 
z
" transform="scale(0.015625)"/>
       <path id="ArialMT-68" d="M 422 0 
L 422 4581 
L 984 4581 
L 984 2938 
Q 1378 3394 1978 3394 
Q 2347 3394 2619 3248 
Q 2891 3103 3008 2847 
Q 3125 2591 3125 2103 
L 3125 0 
L 2563 0 
L 2563 2103 
Q 2563 2525 2380 2717 
Q 2197 2909 1863 2909 
Q 1613 2909 1392 2779 
Q 1172 2650 1078 2428 
Q 984 2206 984 1816 
L 984 0 
L 422 0 
z
" transform="scale(0.015625)"/>
       <path id="ArialMT-79" d="M 397 -1278 
L 334 -750 
Q 519 -800 656 -800 
Q 844 -800 956 -737 
Q 1069 -675 1141 -563 
Q 1194 -478 1313 -144 
Q 1328 -97 1363 -6 
L 103 3319 
L 709 3319 
L 1400 1397 
Q 1534 1031 1641 628 
Q 1738 1016 1872 1384 
L 2581 3319 
L 3144 3319 
L 1881 -56 
Q 1678 -603 1566 -809 
Q 1416 -1088 1222 -1217 
Q 1028 -1347 759 -1347 
Q 597 -1347 397 -1278 
z
" transform="scale(0.015625)"/>
       <path id="ArialMT-74" d="M 1650 503 
L 1731 6 
Q 1494 -44 1306 -44 
Q 1000 -44 831 53 
Q 663 150 594 308 
Q 525 466 525 972 
L 525 2881 
L 113 2881 
L 113 3319 
L 525 3319 
L 525 4141 
L 1084 4478 
L 1084 3319 
L 1650 3319 
L 1650 2881 
L 1084 2881 
L 1084 941 
Q 1084 700 1114 631 
Q 1144 563 1211 522 
Q 1278 481 1403 481 
Q 1497 481 1650 503 
z
" transform="scale(0.015625)"/>
       <path id="ArialMT-6f" d="M 213 1659 
Q 213 2581 725 3025 
Q 1153 3394 1769 3394 
Q 2453 3394 2887 2945 
Q 3322 2497 3322 1706 
Q 3322 1066 3130 698 
Q 2938 331 2570 128 
Q 2203 -75 1769 -75 
Q 1072 -75 642 372 
Q 213 819 213 1659 
z
M 791 1659 
Q 791 1022 1069 705 
Q 1347 388 1769 388 
Q 2188 388 2466 706 
Q 2744 1025 2744 1678 
Q 2744 2294 2464 2611 
Q 2184 2928 1769 2928 
Q 1347 2928 1069 2612 
Q 791 2297 791 1659 
z
" transform="scale(0.015625)"/>
       <path id="ArialMT-65" d="M 2694 1069 
L 3275 997 
Q 3138 488 2766 206 
Q 2394 -75 1816 -75 
Q 1088 -75 661 373 
Q 234 822 234 1631 
Q 234 2469 665 2931 
Q 1097 3394 1784 3394 
Q 2450 3394 2872 2941 
Q 3294 2488 3294 1666 
Q 3294 1616 3291 1516 
L 816 1516 
Q 847 969 1125 678 
Q 1403 388 1819 388 
Q 2128 388 2347 550 
Q 2566 713 2694 1069 
z
M 847 1978 
L 2700 1978 
Q 2663 2397 2488 2606 
Q 2219 2931 1791 2931 
Q 1403 2931 1139 2672 
Q 875 2413 847 1978 
z
" transform="scale(0.015625)"/>
       <path id="ArialMT-6e" d="M 422 0 
L 422 3319 
L 928 3319 
L 928 2847 
Q 1294 3394 1984 3394 
Q 2284 3394 2536 3286 
Q 2788 3178 2913 3003 
Q 3038 2828 3088 2588 
Q 3119 2431 3119 2041 
L 3119 0 
L 2556 0 
L 2556 2019 
Q 2556 2363 2490 2533 
Q 2425 2703 2258 2804 
Q 2091 2906 1866 2906 
Q 1506 2906 1245 2678 
Q 984 2450 984 1813 
L 984 0 
L 422 0 
z
" transform="scale(0.015625)"/>
       <path id="ArialMT-5d" d="M 1363 -1272 
L 122 -1272 
L 122 -806 
L 800 -806 
L 800 4116 
L 122 4116 
L 122 4581 
L 1363 4581 
L 1363 -1272 
z
" transform="scale(0.015625)"/>
       <path id="ArialMT-20" transform="scale(0.015625)"/>
       <path id="ArialMT-28" d="M 1497 -1347 
Q 1031 -759 709 28 
Q 388 816 388 1659 
Q 388 2403 628 3084 
Q 909 3875 1497 4659 
L 1900 4659 
Q 1522 4009 1400 3731 
Q 1209 3300 1100 2831 
Q 966 2247 966 1656 
Q 966 153 1900 -1347 
L 1497 -1347 
z
" transform="scale(0.015625)"/>
       <path id="ArialMT-b5" d="M 3181 3319 
L 3181 0 
L 2678 0 
L 2678 394 
Q 2516 144 2356 50 
Q 2138 -78 1847 -78 
Q 1588 -78 1388 25 
Q 1238 103 1056 334 
L 1056 -1272 
L 500 -1272 
L 500 3319 
L 1056 3319 
L 1056 1913 
Q 1056 1147 1137 920 
Q 1219 694 1401 562 
Q 1584 431 1822 431 
Q 2072 431 2269 568 
Q 2466 706 2547 923 
Q 2628 1141 2628 1903 
L 2628 3319 
L 3181 3319 
z
" transform="scale(0.015625)"/>
       <path id="ArialMT-4d" d="M 475 0 
L 475 4581 
L 1388 4581 
L 2472 1338 
Q 2622 884 2691 659 
Q 2769 909 2934 1394 
L 4031 4581 
L 4847 4581 
L 4847 0 
L 4263 0 
L 4263 3834 
L 2931 0 
L 2384 0 
L 1059 3900 
L 1059 0 
L 475 0 
z
" transform="scale(0.015625)"/>
       <path id="ArialMT-29" d="M 791 -1347 
L 388 -1347 
Q 1322 153 1322 1656 
Q 1322 2244 1188 2822 
Q 1081 3291 891 3722 
Q 769 4003 388 4659 
L 791 4659 
Q 1378 3875 1659 3084 
Q 1900 2403 1900 1659 
Q 1900 816 1576 28 
Q 1253 -759 791 -1347 
z
" transform="scale(0.015625)"/>
      </defs>
      <use xlink:href="#ArialMT-5b"/>
      <use xlink:href="#ArialMT-50" x="27.783203"/>
      <use xlink:href="#ArialMT-68" x="94.482422"/>
      <use xlink:href="#ArialMT-79" x="150.097656"/>
      <use xlink:href="#ArialMT-74" x="200.097656"/>
      <use xlink:href="#ArialMT-6f" x="227.880859"/>
      <use xlink:href="#ArialMT-65" x="283.496094"/>
      <use xlink:href="#ArialMT-6e" x="339.111328"/>
      <use xlink:href="#ArialMT-65" x="394.726562"/>
      <use xlink:href="#ArialMT-5d" x="450.341797"/>
      <use xlink:href="#ArialMT-20" x="478.125"/>
      <use xlink:href="#ArialMT-28" x="505.908203"/>
      <use xlink:href="#ArialMT-b5" x="539.208984"/>
      <use xlink:href="#ArialMT-4d" x="596.826172"/>
      <use xlink:href="#ArialMT-29" x="680.126953"/>
     </g>
    </g>
   </g>
   <g id="matplotlib.axis_2">
    <g id="ytick_1">
     <g id="line2d_7">
      <defs>
       <path id="m488e41ebdb" d="M 0 0 
L -3.5 0 
" style="stroke: #262626; stroke-width: 0.8"/>
      </defs>
      <g>
       <use xlink:href="#m488e41ebdb" x="48.62" y="201.163636" style="fill: #262626; stroke: #262626; stroke-width: 0.8"/>
      </g>
     </g>
     <g id="text_8">
      <!-- 0 -->
      <g style="fill: #262626" transform="translate(36.059063 204.742543) scale(0.1 -0.1)">
       <use xlink:href="#ArialMT-30"/>
      </g>
     </g>
    </g>
    <g id="ytick_2">
     <g id="line2d_8">
      <g>
       <use xlink:href="#m488e41ebdb" x="48.62" y="178.466559" style="fill: #262626; stroke: #262626; stroke-width: 0.8"/>
      </g>
     </g>
     <g id="text_9">
      <!-- 25 -->
      <g style="fill: #262626" transform="translate(30.498125 182.045465) scale(0.1 -0.1)">
       <use xlink:href="#ArialMT-32"/>
       <use xlink:href="#ArialMT-35" x="55.615234"/>
      </g>
     </g>
    </g>
    <g id="ytick_3">
     <g id="line2d_9">
      <g>
       <use xlink:href="#m488e41ebdb" x="48.62" y="155.769482" style="fill: #262626; stroke: #262626; stroke-width: 0.8"/>
      </g>
     </g>
     <g id="text_10">
      <!-- 50 -->
      <g style="fill: #262626" transform="translate(30.498125 159.348388) scale(0.1 -0.1)">
       <use xlink:href="#ArialMT-35"/>
       <use xlink:href="#ArialMT-30" x="55.615234"/>
      </g>
     </g>
    </g>
    <g id="ytick_4">
     <g id="line2d_10">
      <g>
       <use xlink:href="#m488e41ebdb" x="48.62" y="133.072405" style="fill: #262626; stroke: #262626; stroke-width: 0.8"/>
      </g>
     </g>
     <g id="text_11">
      <!-- 75 -->
      <g style="fill: #262626" transform="translate(30.498125 136.651311) scale(0.1 -0.1)">
       <defs>
        <path id="ArialMT-37" d="M 303 3981 
L 303 4522 
L 3269 4522 
L 3269 4084 
Q 2831 3619 2401 2847 
Q 1972 2075 1738 1259 
Q 1569 684 1522 0 
L 944 0 
Q 953 541 1156 1306 
Q 1359 2072 1739 2783 
Q 2119 3494 2547 3981 
L 303 3981 
z
" transform="scale(0.015625)"/>
       </defs>
       <use xlink:href="#ArialMT-37"/>
       <use xlink:href="#ArialMT-35" x="55.615234"/>
      </g>
     </g>
    </g>
    <g id="ytick_5">
     <g id="line2d_11">
      <g>
       <use xlink:href="#m488e41ebdb" x="48.62" y="110.375327" style="fill: #262626; stroke: #262626; stroke-width: 0.8"/>
      </g>
     </g>
     <g id="text_12">
      <!-- 100 -->
      <g style="fill: #262626" transform="translate(24.937188 113.954234) scale(0.1 -0.1)">
       <use xlink:href="#ArialMT-31"/>
       <use xlink:href="#ArialMT-30" x="55.615234"/>
       <use xlink:href="#ArialMT-30" x="111.230469"/>
      </g>
     </g>
    </g>
    <g id="ytick_6">
     <g id="line2d_12">
      <g>
       <use xlink:href="#m488e41ebdb" x="48.62" y="87.67825" style="fill: #262626; stroke: #262626; stroke-width: 0.8"/>
      </g>
     </g>
     <g id="text_13">
      <!-- 125 -->
      <g style="fill: #262626" transform="translate(24.937188 91.257156) scale(0.1 -0.1)">
       <use xlink:href="#ArialMT-31"/>
       <use xlink:href="#ArialMT-32" x="55.615234"/>
       <use xlink:href="#ArialMT-35" x="111.230469"/>
      </g>
     </g>
    </g>
    <g id="ytick_7">
     <g id="line2d_13">
      <g>
       <use xlink:href="#m488e41ebdb" x="48.62" y="64.981173" style="fill: #262626; stroke: #262626; stroke-width: 0.8"/>
      </g>
     </g>
     <g id="text_14">
      <!-- 150 -->
      <g style="fill: #262626" transform="translate(24.937188 68.560079) scale(0.1 -0.1)">
       <use xlink:href="#ArialMT-31"/>
       <use xlink:href="#ArialMT-35" x="55.615234"/>
       <use xlink:href="#ArialMT-30" x="111.230469"/>
      </g>
     </g>
    </g>
    <g id="ytick_8">
     <g id="line2d_14">
      <g>
       <use xlink:href="#m488e41ebdb" x="48.62" y="42.284096" style="fill: #262626; stroke: #262626; stroke-width: 0.8"/>
      </g>
     </g>
     <g id="text_15">
      <!-- 175 -->
      <g style="fill: #262626" transform="translate(24.937188 45.863002) scale(0.1 -0.1)">
       <use xlink:href="#ArialMT-31"/>
       <use xlink:href="#ArialMT-37" x="55.615234"/>
       <use xlink:href="#ArialMT-35" x="111.230469"/>
      </g>
     </g>
    </g>
    <g id="ytick_9">
     <g id="line2d_15">
      <g>
       <use xlink:href="#m488e41ebdb" x="48.62" y="19.587018" style="fill: #262626; stroke: #262626; stroke-width: 0.8"/>
      </g>
     </g>
     <g id="text_16">
      <!-- 200 -->
      <g style="fill: #262626" transform="translate(24.937188 23.165925) scale(0.1 -0.1)">
       <use xlink:href="#ArialMT-32"/>
       <use xlink:href="#ArialMT-30" x="55.615234"/>
       <use xlink:href="#ArialMT-30" x="111.230469"/>
      </g>
     </g>
    </g>
    <g id="text_17">
     <!-- Lycopene flux (µM/h) -->
     <g style="fill: #262626" transform="translate(18.8325 158.999219) rotate(-90) scale(0.1 -0.1)">
      <defs>
       <path id="ArialMT-4c" d="M 469 0 
L 469 4581 
L 1075 4581 
L 1075 541 
L 3331 541 
L 3331 0 
L 469 0 
z
" transform="scale(0.015625)"/>
       <path id="ArialMT-63" d="M 2588 1216 
L 3141 1144 
Q 3050 572 2676 248 
Q 2303 -75 1759 -75 
Q 1078 -75 664 370 
Q 250 816 250 1647 
Q 250 2184 428 2587 
Q 606 2991 970 3192 
Q 1334 3394 1763 3394 
Q 2303 3394 2647 3120 
Q 2991 2847 3088 2344 
L 2541 2259 
Q 2463 2594 2264 2762 
Q 2066 2931 1784 2931 
Q 1359 2931 1093 2626 
Q 828 2322 828 1663 
Q 828 994 1084 691 
Q 1341 388 1753 388 
Q 2084 388 2306 591 
Q 2528 794 2588 1216 
z
" transform="scale(0.015625)"/>
       <path id="ArialMT-70" d="M 422 -1272 
L 422 3319 
L 934 3319 
L 934 2888 
Q 1116 3141 1344 3267 
Q 1572 3394 1897 3394 
Q 2322 3394 2647 3175 
Q 2972 2956 3137 2557 
Q 3303 2159 3303 1684 
Q 3303 1175 3120 767 
Q 2938 359 2589 142 
Q 2241 -75 1856 -75 
Q 1575 -75 1351 44 
Q 1128 163 984 344 
L 984 -1272 
L 422 -1272 
z
M 931 1641 
Q 931 1000 1190 694 
Q 1450 388 1819 388 
Q 2194 388 2461 705 
Q 2728 1022 2728 1688 
Q 2728 2322 2467 2637 
Q 2206 2953 1844 2953 
Q 1484 2953 1207 2617 
Q 931 2281 931 1641 
z
" transform="scale(0.015625)"/>
       <path id="ArialMT-66" d="M 556 0 
L 556 2881 
L 59 2881 
L 59 3319 
L 556 3319 
L 556 3672 
Q 556 4006 616 4169 
Q 697 4388 901 4523 
Q 1106 4659 1475 4659 
Q 1713 4659 2000 4603 
L 1916 4113 
Q 1741 4144 1584 4144 
Q 1328 4144 1222 4034 
Q 1116 3925 1116 3625 
L 1116 3319 
L 1763 3319 
L 1763 2881 
L 1116 2881 
L 1116 0 
L 556 0 
z
" transform="scale(0.015625)"/>
       <path id="ArialMT-6c" d="M 409 0 
L 409 4581 
L 972 4581 
L 972 0 
L 409 0 
z
" transform="scale(0.015625)"/>
       <path id="ArialMT-75" d="M 2597 0 
L 2597 488 
Q 2209 -75 1544 -75 
Q 1250 -75 995 37 
Q 741 150 617 320 
Q 494 491 444 738 
Q 409 903 409 1263 
L 409 3319 
L 972 3319 
L 972 1478 
Q 972 1038 1006 884 
Q 1059 663 1231 536 
Q 1403 409 1656 409 
Q 1909 409 2131 539 
Q 2353 669 2445 892 
Q 2538 1116 2538 1541 
L 2538 3319 
L 3100 3319 
L 3100 0 
L 2597 0 
z
" transform="scale(0.015625)"/>
       <path id="ArialMT-78" d="M 47 0 
L 1259 1725 
L 138 3319 
L 841 3319 
L 1350 2541 
Q 1494 2319 1581 2169 
Q 1719 2375 1834 2534 
L 2394 3319 
L 3066 3319 
L 1919 1756 
L 3153 0 
L 2463 0 
L 1781 1031 
L 1600 1309 
L 728 0 
L 47 0 
z
" transform="scale(0.015625)"/>
       <path id="ArialMT-2f" d="M 0 -78 
L 1328 4659 
L 1778 4659 
L 453 -78 
L 0 -78 
z
" transform="scale(0.015625)"/>
      </defs>
      <use xlink:href="#ArialMT-4c"/>
      <use xlink:href="#ArialMT-79" x="51.865234"/>
      <use xlink:href="#ArialMT-63" x="101.865234"/>
      <use xlink:href="#ArialMT-6f" x="151.865234"/>
      <use xlink:href="#ArialMT-70" x="207.480469"/>
      <use xlink:href="#ArialMT-65" x="263.095703"/>
      <use xlink:href="#ArialMT-6e" x="318.710938"/>
      <use xlink:href="#ArialMT-65" x="374.326172"/>
      <use xlink:href="#ArialMT-20" x="429.941406"/>
      <use xlink:href="#ArialMT-66" x="457.724609"/>
      <use xlink:href="#ArialMT-6c" x="485.507812"/>
      <use xlink:href="#ArialMT-75" x="507.724609"/>
      <use xlink:href="#ArialMT-78" x="563.339844"/>
      <use xlink:href="#ArialMT-20" x="613.339844"/>
      <use xlink:href="#ArialMT-28" x="641.123047"/>
      <use xlink:href="#ArialMT-b5" x="674.423828"/>
      <use xlink:href="#ArialMT-4d" x="732.041016"/>
      <use xlink:href="#ArialMT-2f" x="815.341797"/>
      <use xlink:href="#ArialMT-68" x="843.125"/>
      <use xlink:href="#ArialMT-29" x="898.740234"/>
     </g>
    </g>
   </g>
   <g id="PolyCollection_1">
    <defs>
     <path id="m3d92cf61a8" d="M 57.884467 -50.836364 
L 57.884467 -50.836364 
L 58.810914 -60.501391 
L 59.73736 -69.267722 
L 60.663807 -77.144157 
L 61.590254 -84.259497 
L 62.516701 -90.821634 
L 63.443147 -96.85782 
L 64.369594 -102.421711 
L 65.296041 -107.5047 
L 66.222487 -112.315595 
L 67.148934 -116.707697 
L 68.075381 -120.831427 
L 69.001827 -124.548889 
L 69.928274 -128.021371 
L 70.854721 -131.380081 
L 71.781168 -134.582588 
L 72.707614 -137.601839 
L 73.634061 -140.381491 
L 74.560508 -143.018747 
L 75.486954 -145.504156 
L 76.413401 -147.84812 
L 77.339848 -149.999778 
L 78.266294 -152.092887 
L 79.192741 -154.033483 
L 80.119188 -155.820529 
L 81.045635 -157.565731 
L 81.972081 -159.137435 
L 82.898528 -160.618471 
L 83.824975 -162.104752 
L 84.751421 -163.459371 
L 85.677868 -164.786773 
L 86.604315 -166.104508 
L 87.530761 -167.371513 
L 88.457208 -168.555019 
L 89.383655 -169.615027 
L 90.310102 -170.631447 
L 91.236548 -171.619183 
L 92.162995 -172.566154 
L 93.089442 -173.456259 
L 94.015888 -174.314592 
L 94.942335 -175.145602 
L 95.868782 -175.989305 
L 96.795229 -176.749112 
L 97.721675 -177.482221 
L 98.648122 -178.190015 
L 99.574569 -178.874191 
L 100.501015 -179.511646 
L 101.427462 -179.975047 
L 102.353909 -180.586281 
L 103.280355 -181.327778 
L 104.206802 -181.798344 
L 105.133249 -182.275623 
L 106.059696 -182.727458 
L 106.986142 -183.336136 
L 107.912589 -183.874859 
L 108.839036 -184.308523 
L 109.765482 -184.858987 
L 110.691929 -185.271992 
L 111.618376 -185.637275 
L 112.544822 -186.112901 
L 113.471269 -186.489081 
L 114.397716 -186.880364 
L 115.324163 -187.207712 
L 116.250609 -187.498037 
L 117.177056 -187.770126 
L 118.103503 -188.036502 
L 119.029949 -188.31528 
L 119.956396 -188.626943 
L 120.882843 -188.902921 
L 121.809289 -189.146886 
L 122.735736 -189.384708 
L 123.662183 -189.619748 
L 124.58863 -189.887552 
L 125.515076 -190.086515 
L 126.441523 -190.280648 
L 127.36797 -190.489624 
L 128.294416 -190.694707 
L 129.220863 -190.895356 
L 130.14731 -191.092348 
L 131.073757 -191.26747 
L 132.000203 -191.440672 
L 132.92665 -191.636902 
L 133.853097 -191.841444 
L 134.779543 -192.042087 
L 135.70599 -192.310599 
L 136.632437 -192.560587 
L 137.558883 -192.780301 
L 138.48533 -192.995505 
L 139.411777 -193.206449 
L 140.338224 -193.413259 
L 141.26467 -193.616054 
L 142.191117 -193.765453 
L 143.117564 -193.903551 
L 144.04401 -194.038938 
L 144.970457 -194.171693 
L 145.896904 -194.301891 
L 146.82335 -194.429607 
L 147.749797 -194.55491 
L 148.676244 -194.677869 
L 149.602691 -194.798556 
L 150.529137 -194.918729 
L 151.455584 -195.036718 
L 152.382031 -195.15495 
L 153.308477 -195.316285 
L 154.234924 -195.436391 
L 155.161371 -195.54506 
L 156.087817 -195.651838 
L 157.014264 -195.756772 
L 157.940711 -195.859912 
L 158.867158 -195.961302 
L 159.793604 -196.060986 
L 160.720051 -196.159008 
L 161.646498 -196.255836 
L 162.572944 -196.351333 
L 163.499391 -196.45291 
L 164.425838 -196.570288 
L 165.352284 -196.685827 
L 166.278731 -196.79957 
L 167.205178 -196.911559 
L 168.131625 -197.021833 
L 169.058071 -197.130432 
L 169.984518 -197.237394 
L 170.910965 -197.342755 
L 171.837411 -197.446551 
L 172.763858 -197.548817 
L 173.690305 -197.649586 
L 174.616752 -197.748891 
L 175.543198 -197.846764 
L 176.469645 -197.928292 
L 177.396092 -197.99304 
L 178.322538 -198.056848 
L 179.248985 -198.119737 
L 180.175432 -198.181725 
L 181.101878 -198.242832 
L 182.028325 -198.303078 
L 182.954772 -198.362479 
L 183.881219 -198.421053 
L 184.807665 -198.478818 
L 185.734112 -198.53579 
L 186.660559 -198.591986 
L 187.587005 -198.647421 
L 188.513452 -198.702111 
L 189.439899 -198.776483 
L 190.366345 -198.850544 
L 191.292792 -198.923648 
L 192.219239 -198.995816 
L 193.145686 -199.067357 
L 194.072132 -199.138232 
L 194.998579 -199.208216 
L 195.925026 -199.277326 
L 196.851472 -199.345577 
L 197.777919 -199.412986 
L 198.704366 -199.479568 
L 199.630812 -199.545338 
L 200.557259 -199.610311 
L 201.483706 -199.674501 
L 202.410153 -199.737923 
L 203.336599 -199.80059 
L 204.263046 -199.862515 
L 205.189493 -199.923712 
L 206.115939 -199.984194 
L 207.042386 -200.043972 
L 207.968833 -200.103059 
L 208.89528 -200.161467 
L 209.821726 -200.219229 
L 210.748173 -200.276465 
L 211.67462 -200.333054 
L 212.601066 -200.389008 
L 213.527513 -200.444337 
L 214.45396 -200.499052 
L 215.380406 -200.553162 
L 216.306853 -200.595006 
L 217.2333 -200.632123 
L 218.159747 -200.677279 
L 219.086193 -200.718783 
L 220.01264 -200.758626 
L 220.939087 -200.79813 
L 221.865533 -200.837658 
L 222.79198 -200.890161 
L 223.718427 -200.94518 
L 224.644873 -200.999628 
L 225.57132 -201.053513 
L 226.497767 -201.106844 
L 227.424214 -201.159629 
L 228.35066 -201.209732 
L 229.277107 -201.250986 
L 230.203554 -201.29182 
L 231.13 -201.332238 
L 232.056447 -201.372248 
L 232.982894 -201.411855 
L 233.90934 -201.450938 
L 234.835787 -201.483305 
L 235.762234 -201.522654 
L 236.688681 -201.565025 
L 237.615127 -201.603313 
L 238.541574 -201.640353 
L 239.468021 -201.677034 
L 240.394467 -201.71336 
L 241.320914 -201.749336 
L 242.247361 -201.784967 
L 242.247361 -228.363636 
L 242.247361 -228.363636 
L 241.320914 -228.298883 
L 240.394467 -228.233519 
L 239.468021 -228.167538 
L 238.541574 -228.100931 
L 237.615127 -228.033687 
L 236.688681 -227.965799 
L 235.762234 -227.897256 
L 234.835787 -227.82805 
L 233.90934 -227.75817 
L 232.982894 -227.687608 
L 232.056447 -227.616352 
L 231.13 -227.544392 
L 230.203554 -227.471718 
L 229.277107 -227.39832 
L 228.35066 -227.324186 
L 227.424214 -227.249305 
L 226.497767 -227.173666 
L 225.57132 -227.097258 
L 224.644873 -227.020068 
L 223.718427 -226.942084 
L 222.79198 -226.850392 
L 221.865533 -226.742394 
L 220.939087 -226.65532 
L 220.01264 -226.576503 
L 219.086193 -226.496852 
L 218.159747 -226.416354 
L 217.2333 -226.334995 
L 216.306853 -226.252761 
L 215.380406 -226.169638 
L 214.45396 -226.09039 
L 213.527513 -226.016794 
L 212.601066 -225.942379 
L 211.67462 -225.860089 
L 210.748173 -225.770764 
L 209.821726 -225.680441 
L 208.89528 -225.589106 
L 207.968833 -225.49674 
L 207.042386 -225.41148 
L 206.115939 -225.330279 
L 205.189493 -225.248133 
L 204.263046 -225.139587 
L 203.336599 -225.026072 
L 202.410153 -224.918112 
L 201.483706 -224.818012 
L 200.557259 -224.71673 
L 199.630812 -224.614244 
L 198.704366 -224.509632 
L 197.777919 -224.403427 
L 196.851472 -224.296562 
L 195.925026 -224.189991 
L 194.998579 -224.077908 
L 194.072132 -223.967372 
L 193.145686 -223.83714 
L 192.219239 -223.690027 
L 191.292792 -223.541127 
L 190.366345 -223.390405 
L 189.439899 -223.23783 
L 188.513452 -223.08274 
L 187.587005 -222.925587 
L 186.660559 -222.766466 
L 185.734112 -222.605338 
L 184.807665 -222.446318 
L 183.881219 -222.328689 
L 182.954772 -222.238621 
L 182.028325 -222.147308 
L 181.101878 -221.982797 
L 180.175432 -221.814954 
L 179.248985 -221.644885 
L 178.322538 -221.473342 
L 177.396092 -221.3282 
L 176.469645 -221.194664 
L 175.543198 -221.059239 
L 174.616752 -220.921885 
L 173.690305 -220.774698 
L 172.763858 -220.625027 
L 171.837411 -220.489621 
L 170.910965 -220.352216 
L 169.984518 -220.206159 
L 169.058071 -220.056803 
L 168.131625 -219.905207 
L 167.205178 -219.75132 
L 166.278731 -219.602646 
L 165.352284 -219.460204 
L 164.425838 -219.315532 
L 163.499391 -219.168576 
L 162.572944 -219.019282 
L 161.646498 -218.860058 
L 160.720051 -218.69785 
L 159.793604 -218.533015 
L 158.867158 -218.365487 
L 157.940711 -218.20727 
L 157.014264 -218.060845 
L 156.087817 -217.864312 
L 155.161371 -217.66709 
L 154.234924 -217.48505 
L 153.308477 -217.298053 
L 152.382031 -217.060427 
L 151.455584 -216.826867 
L 150.529137 -216.608899 
L 149.602691 -216.387118 
L 148.676244 -216.161422 
L 147.749797 -215.931243 
L 146.82335 -215.696894 
L 145.896904 -215.45686 
L 144.970457 -215.212394 
L 144.04401 -214.972406 
L 143.117564 -214.72848 
L 142.191117 -214.487108 
L 141.26467 -214.239449 
L 140.338224 -213.986285 
L 139.411777 -213.728178 
L 138.48533 -213.454602 
L 137.558883 -213.146749 
L 136.632437 -212.909964 
L 135.70599 -212.64768 
L 134.779543 -212.364862 
L 133.853097 -212.074647 
L 132.92665 -211.778346 
L 132.000203 -211.475766 
L 131.073757 -211.166705 
L 130.14731 -210.850952 
L 129.220863 -210.528288 
L 128.294416 -210.193594 
L 127.36797 -209.856163 
L 126.441523 -209.499506 
L 125.515076 -209.13474 
L 124.58863 -208.804248 
L 123.662183 -208.437114 
L 122.735736 -208.058123 
L 121.809289 -207.679159 
L 120.882843 -207.33877 
L 119.956396 -206.986241 
L 119.029949 -206.535188 
L 118.103503 -206.070589 
L 117.177056 -205.611214 
L 116.250609 -205.197624 
L 115.324163 -204.72479 
L 114.397716 -204.283951 
L 113.471269 -203.835661 
L 112.544822 -203.376342 
L 111.618376 -202.911805 
L 110.691929 -202.482007 
L 109.765482 -202.012919 
L 108.839036 -201.544271 
L 107.912589 -201.061264 
L 106.986142 -200.561009 
L 106.059696 -199.985667 
L 105.133249 -199.447973 
L 104.206802 -198.82372 
L 103.280355 -198.255693 
L 102.353909 -197.613949 
L 101.427462 -196.94864 
L 100.501015 -196.259737 
L 99.574569 -195.582776 
L 98.648122 -194.941612 
L 97.721675 -194.261618 
L 96.795229 -193.61652 
L 95.868782 -192.94205 
L 94.942335 -192.130485 
L 94.015888 -191.332117 
L 93.089442 -190.592513 
L 92.162995 -189.766726 
L 91.236548 -188.928501 
L 90.310102 -188.010369 
L 89.383655 -187.061229 
L 88.457208 -185.951678 
L 87.530761 -184.954629 
L 86.604315 -183.984032 
L 85.677868 -182.880098 
L 84.751421 -181.705038 
L 83.824975 -180.39483 
L 82.898528 -179.00425 
L 81.972081 -177.416418 
L 81.045635 -175.994455 
L 80.119188 -174.711144 
L 79.192741 -173.053801 
L 78.266294 -171.421574 
L 77.339848 -169.701862 
L 76.413401 -167.935085 
L 75.486954 -166.042616 
L 74.560508 -163.766266 
L 73.634061 -161.457057 
L 72.707614 -159.253845 
L 71.781168 -156.653493 
L 70.854721 -153.742242 
L 69.928274 -150.542283 
L 69.001827 -147.064474 
L 68.075381 -143.325506 
L 67.148934 -139.333054 
L 66.222487 -135.008703 
L 65.296041 -130.150091 
L 64.369594 -124.705213 
L 63.443147 -118.49421 
L 62.516701 -111.494175 
L 61.590254 -103.281907 
L 60.663807 -93.727779 
L 59.73736 -82.2678 
L 58.810914 -68.255266 
L 57.884467 -50.836364 
z
" style="stroke: #ef553b; stroke-opacity: 0.3"/>
    </defs>
    <g clip-path="url(#pbee906e223)">
     <use xlink:href="#m3d92cf61a8" x="0" y="252" style="fill: #ef553b; fill-opacity: 0.3; stroke: #ef553b; stroke-opacity: 0.3"/>
    </g>
   </g>
   <g id="line2d_16">
    <defs>
     <path id="m9204bd2262" d="M 0 2.5 
C 0.663008 2.5 1.29895 2.236584 1.767767 1.767767 
C 2.236584 1.29895 2.5 0.663008 2.5 0 
C 2.5 -0.663008 2.236584 -1.29895 1.767767 -1.767767 
C 1.29895 -2.236584 0.663008 -2.5 0 -2.5 
C -0.663008 -2.5 -1.29895 -2.236584 -1.767767 -1.767767 
C -2.236584 -1.29895 -2.5 -0.663008 -2.5 0 
C -2.5 0.663008 -2.236584 1.29895 -1.767767 1.767767 
C -1.29895 2.236584 -0.663008 2.5 0 2.5 
z
" style="stroke: #23612b"/>
    </defs>
    <g clip-path="url(#pbee906e223)">
     <use xlink:href="#m9204bd2262" x="147.411412" y="64.787424" style="fill: #4fa15a; stroke: #23612b"/>
     <use xlink:href="#m9204bd2262" x="145.134236" y="43.639912" style="fill: #4fa15a; stroke: #23612b"/>
     <use xlink:href="#m9204bd2262" x="153.688026" y="55.424426" style="fill: #4fa15a; stroke: #23612b"/>
     <use xlink:href="#m9204bd2262" x="57.884467" y="197.79982" style="fill: #4fa15a; stroke: #23612b"/>
     <use xlink:href="#m9204bd2262" x="57.884467" y="197.200489" style="fill: #4fa15a; stroke: #23612b"/>
     <use xlink:href="#m9204bd2262" x="57.884467" y="197.837757" style="fill: #4fa15a; stroke: #23612b"/>
     <use xlink:href="#m9204bd2262" x="241.665013" y="36.664377" style="fill: #4fa15a; stroke: #23612b"/>
     <use xlink:href="#m9204bd2262" x="238.290336" y="47.767036" style="fill: #4fa15a; stroke: #23612b"/>
     <use xlink:href="#m9204bd2262" x="243.173807" y="36.05611" style="fill: #4fa15a; stroke: #23612b"/>
     <use xlink:href="#m9204bd2262" x="91.893289" y="69.489531" style="fill: #4fa15a; stroke: #23612b"/>
     <use xlink:href="#m9204bd2262" x="91.220948" y="41.324194" style="fill: #4fa15a; stroke: #23612b"/>
     <use xlink:href="#m9204bd2262" x="90.231991" y="40.989812" style="fill: #4fa15a; stroke: #23612b"/>
     <use xlink:href="#m9204bd2262" x="78.643502" y="75.162512" style="fill: #4fa15a; stroke: #23612b"/>
     <use xlink:href="#m9204bd2262" x="78.558116" y="79.631649" style="fill: #4fa15a; stroke: #23612b"/>
     <use xlink:href="#m9204bd2262" x="78.665156" y="87.881096" style="fill: #4fa15a; stroke: #23612b"/>
     <use xlink:href="#m9204bd2262" x="60.970781" y="168.854421" style="fill: #4fa15a; stroke: #23612b"/>
     <use xlink:href="#m9204bd2262" x="61.812241" y="142.970422" style="fill: #4fa15a; stroke: #23612b"/>
     <use xlink:href="#m9204bd2262" x="62.454109" y="139.468159" style="fill: #4fa15a; stroke: #23612b"/>
     <use xlink:href="#m9204bd2262" x="79.751711" y="99.335591" style="fill: #4fa15a; stroke: #23612b"/>
     <use xlink:href="#m9204bd2262" x="70.870243" y="143.099416" style="fill: #4fa15a; stroke: #23612b"/>
     <use xlink:href="#m9204bd2262" x="69.518807" y="149.93068" style="fill: #4fa15a; stroke: #23612b"/>
    </g>
   </g>
   <g id="line2d_17">
    <path d="M 57.884467 201.163636 
L 58.810914 188.225666 
L 59.73736 177.082163 
L 60.663807 167.384005 
L 62.516701 151.328072 
L 64.369594 138.579256 
L 66.222487 128.211189 
L 68.075381 119.613939 
L 69.928274 112.369529 
L 71.781168 106.181932 
L 73.634061 100.835617 
L 75.486954 96.169931 
L 77.339848 92.062678 
L 79.192741 88.419261 
L 81.045635 85.165307 
L 82.898528 82.241538 
L 85.677868 78.372819 
L 88.457208 75.015161 
L 91.236548 72.07357 
L 94.015888 69.475224 
L 96.795229 67.163355 
L 99.574569 65.093062 
L 103.280355 62.647271 
L 106.986142 60.500569 
L 110.691929 58.601255 
L 115.324163 56.51423 
L 119.956396 54.689989 
L 124.58863 53.08184 
L 130.14731 51.386827 
L 136.632437 49.673198 
L 143.117564 48.189322 
L 150.529137 46.71974 
L 158.867158 45.297935 
L 168.131625 43.946549 
L 178.322538 42.679215 
L 190.366345 41.412741 
L 204.263046 40.191518 
L 220.01264 39.043779 
L 237.615127 37.984729 
L 242.247361 37.737669 
L 242.247361 37.737669 
" clip-path="url(#pbee906e223)" style="fill: none; stroke: #ef553b; stroke-width: 1.5; stroke-linecap: round"/>
   </g>
   <g id="patch_3">
    <path d="M 48.62 210.04 
L 48.62 14.76 
" style="fill: none; stroke: #262626; stroke-width: 0.8; stroke-linejoin: miter; stroke-linecap: square"/>
   </g>
   <g id="patch_4">
    <path d="M 252.438275 210.04 
L 252.438275 14.76 
" style="fill: none; stroke: #262626; stroke-width: 0.8; stroke-linejoin: miter; stroke-linecap: square"/>
   </g>
   <g id="patch_5">
    <path d="M 48.62 210.04 
L 252.438275 210.04 
" style="fill: none; stroke: #262626; stroke-width: 0.8; stroke-linejoin: miter; stroke-linecap: square"/>
   </g>
   <g id="patch_6">
    <path d="M 48.62 14.76 
L 252.438275 14.76 
" style="fill: none; stroke: #262626; stroke-width: 0.8; stroke-linejoin: miter; stroke-linecap: square"/>
   </g>
   <g id="legend_1">
    <g id="patch_7">
     <path d="M 141.752337 205.04 
L 245.438275 205.04 
Q 247.438275 205.04 247.438275 203.04 
L 247.438275 175.510312 
Q 247.438275 173.510312 245.438275 173.510312 
L 141.752337 173.510312 
Q 139.752337 173.510312 139.752337 175.510312 
L 139.752337 203.04 
Q 139.752337 205.04 141.752337 205.04 
z
" style="fill: #ffffff; opacity: 0.8; stroke: #cccccc; stroke-linejoin: miter"/>
    </g>
    <g id="line2d_18">
     <g>
      <use xlink:href="#m9204bd2262" x="153.752337" y="181.168125" style="fill: #4fa15a; stroke: #23612b"/>
     </g>
    </g>
    <g id="text_18">
     <!-- BtCrtI -->
     <g style="fill: #262626" transform="translate(171.752337 184.668125) scale(0.1 -0.1)">
      <defs>
       <path id="ArialMT-42" d="M 469 0 
L 469 4581 
L 2188 4581 
Q 2713 4581 3030 4442 
Q 3347 4303 3526 4014 
Q 3706 3725 3706 3409 
Q 3706 3116 3547 2856 
Q 3388 2597 3066 2438 
Q 3481 2316 3704 2022 
Q 3928 1728 3928 1328 
Q 3928 1006 3792 729 
Q 3656 453 3456 303 
Q 3256 153 2954 76 
Q 2653 0 2216 0 
L 469 0 
z
M 1075 2656 
L 2066 2656 
Q 2469 2656 2644 2709 
Q 2875 2778 2992 2937 
Q 3109 3097 3109 3338 
Q 3109 3566 3000 3739 
Q 2891 3913 2687 3977 
Q 2484 4041 1991 4041 
L 1075 4041 
L 1075 2656 
z
M 1075 541 
L 2216 541 
Q 2509 541 2628 563 
Q 2838 600 2978 687 
Q 3119 775 3209 942 
Q 3300 1109 3300 1328 
Q 3300 1584 3169 1773 
Q 3038 1963 2805 2039 
Q 2572 2116 2134 2116 
L 1075 2116 
L 1075 541 
z
" transform="scale(0.015625)"/>
       <path id="ArialMT-43" d="M 3763 1606 
L 4369 1453 
Q 4178 706 3683 314 
Q 3188 -78 2472 -78 
Q 1731 -78 1267 223 
Q 803 525 561 1097 
Q 319 1669 319 2325 
Q 319 3041 592 3573 
Q 866 4106 1370 4382 
Q 1875 4659 2481 4659 
Q 3169 4659 3637 4309 
Q 4106 3959 4291 3325 
L 3694 3184 
Q 3534 3684 3231 3912 
Q 2928 4141 2469 4141 
Q 1941 4141 1586 3887 
Q 1231 3634 1087 3207 
Q 944 2781 944 2328 
Q 944 1744 1114 1308 
Q 1284 872 1643 656 
Q 2003 441 2422 441 
Q 2931 441 3284 734 
Q 3638 1028 3763 1606 
z
" transform="scale(0.015625)"/>
       <path id="ArialMT-72" d="M 416 0 
L 416 3319 
L 922 3319 
L 922 2816 
Q 1116 3169 1280 3281 
Q 1444 3394 1641 3394 
Q 1925 3394 2219 3213 
L 2025 2691 
Q 1819 2813 1613 2813 
Q 1428 2813 1281 2702 
Q 1134 2591 1072 2394 
Q 978 2094 978 1738 
L 978 0 
L 416 0 
z
" transform="scale(0.015625)"/>
       <path id="ArialMT-49" d="M 597 0 
L 597 4581 
L 1203 4581 
L 1203 0 
L 597 0 
z
" transform="scale(0.015625)"/>
      </defs>
      <use xlink:href="#ArialMT-42"/>
      <use xlink:href="#ArialMT-74" x="66.699219"/>
      <use xlink:href="#ArialMT-43" x="94.482422"/>
      <use xlink:href="#ArialMT-72" x="166.699219"/>
      <use xlink:href="#ArialMT-74" x="200"/>
      <use xlink:href="#ArialMT-49" x="227.783203"/>
     </g>
    </g>
    <g id="line2d_19">
     <path d="M 143.752337 195.435313 
L 153.752337 195.435313 
L 163.752337 195.435313 
" style="fill: none; stroke: #ef553b; stroke-width: 1.5; stroke-linecap: round"/>
    </g>
    <g id="text_19">
     <!-- best fit (95% CI) -->
     <g style="fill: #262626" transform="translate(171.752337 198.935313) scale(0.1 -0.1)">
      <defs>
       <path id="ArialMT-62" d="M 941 0 
L 419 0 
L 419 4581 
L 981 4581 
L 981 2947 
Q 1338 3394 1891 3394 
Q 2197 3394 2470 3270 
Q 2744 3147 2920 2923 
Q 3097 2700 3197 2384 
Q 3297 2069 3297 1709 
Q 3297 856 2875 390 
Q 2453 -75 1863 -75 
Q 1275 -75 941 416 
L 941 0 
z
M 934 1684 
Q 934 1088 1097 822 
Q 1363 388 1816 388 
Q 2184 388 2453 708 
Q 2722 1028 2722 1663 
Q 2722 2313 2464 2622 
Q 2206 2931 1841 2931 
Q 1472 2931 1203 2611 
Q 934 2291 934 1684 
z
" transform="scale(0.015625)"/>
       <path id="ArialMT-73" d="M 197 991 
L 753 1078 
Q 800 744 1014 566 
Q 1228 388 1613 388 
Q 2000 388 2187 545 
Q 2375 703 2375 916 
Q 2375 1106 2209 1216 
Q 2094 1291 1634 1406 
Q 1016 1563 777 1677 
Q 538 1791 414 1992 
Q 291 2194 291 2438 
Q 291 2659 392 2848 
Q 494 3038 669 3163 
Q 800 3259 1026 3326 
Q 1253 3394 1513 3394 
Q 1903 3394 2198 3281 
Q 2494 3169 2634 2976 
Q 2775 2784 2828 2463 
L 2278 2388 
Q 2241 2644 2061 2787 
Q 1881 2931 1553 2931 
Q 1166 2931 1000 2803 
Q 834 2675 834 2503 
Q 834 2394 903 2306 
Q 972 2216 1119 2156 
Q 1203 2125 1616 2013 
Q 2213 1853 2448 1751 
Q 2684 1650 2818 1456 
Q 2953 1263 2953 975 
Q 2953 694 2789 445 
Q 2625 197 2315 61 
Q 2006 -75 1616 -75 
Q 969 -75 630 194 
Q 291 463 197 991 
z
" transform="scale(0.015625)"/>
       <path id="ArialMT-69" d="M 425 3934 
L 425 4581 
L 988 4581 
L 988 3934 
L 425 3934 
z
M 425 0 
L 425 3319 
L 988 3319 
L 988 0 
L 425 0 
z
" transform="scale(0.015625)"/>
       <path id="ArialMT-39" d="M 350 1059 
L 891 1109 
Q 959 728 1153 556 
Q 1347 384 1650 384 
Q 1909 384 2104 503 
Q 2300 622 2425 820 
Q 2550 1019 2634 1356 
Q 2719 1694 2719 2044 
Q 2719 2081 2716 2156 
Q 2547 1888 2255 1720 
Q 1963 1553 1622 1553 
Q 1053 1553 659 1965 
Q 266 2378 266 3053 
Q 266 3750 677 4175 
Q 1088 4600 1706 4600 
Q 2153 4600 2523 4359 
Q 2894 4119 3086 3673 
Q 3278 3228 3278 2384 
Q 3278 1506 3087 986 
Q 2897 466 2520 194 
Q 2144 -78 1638 -78 
Q 1100 -78 759 220 
Q 419 519 350 1059 
z
M 2653 3081 
Q 2653 3566 2395 3850 
Q 2138 4134 1775 4134 
Q 1400 4134 1122 3828 
Q 844 3522 844 3034 
Q 844 2597 1108 2323 
Q 1372 2050 1759 2050 
Q 2150 2050 2401 2323 
Q 2653 2597 2653 3081 
z
" transform="scale(0.015625)"/>
       <path id="ArialMT-25" d="M 372 3481 
Q 372 3972 619 4315 
Q 866 4659 1334 4659 
Q 1766 4659 2048 4351 
Q 2331 4044 2331 3447 
Q 2331 2866 2045 2552 
Q 1759 2238 1341 2238 
Q 925 2238 648 2547 
Q 372 2856 372 3481 
z
M 1350 4272 
Q 1141 4272 1002 4090 
Q 863 3909 863 3425 
Q 863 2984 1003 2804 
Q 1144 2625 1350 2625 
Q 1563 2625 1702 2806 
Q 1841 2988 1841 3469 
Q 1841 3913 1700 4092 
Q 1559 4272 1350 4272 
z
M 1353 -169 
L 3859 4659 
L 4316 4659 
L 1819 -169 
L 1353 -169 
z
M 3334 1075 
Q 3334 1569 3581 1911 
Q 3828 2253 4300 2253 
Q 4731 2253 5014 1945 
Q 5297 1638 5297 1041 
Q 5297 459 5011 145 
Q 4725 -169 4303 -169 
Q 3888 -169 3611 142 
Q 3334 453 3334 1075 
z
M 4316 1866 
Q 4103 1866 3964 1684 
Q 3825 1503 3825 1019 
Q 3825 581 3965 400 
Q 4106 219 4313 219 
Q 4528 219 4667 400 
Q 4806 581 4806 1063 
Q 4806 1506 4665 1686 
Q 4525 1866 4316 1866 
z
" transform="scale(0.015625)"/>
      </defs>
      <use xlink:href="#ArialMT-62"/>
      <use xlink:href="#ArialMT-65" x="55.615234"/>
      <use xlink:href="#ArialMT-73" x="111.230469"/>
      <use xlink:href="#ArialMT-74" x="161.230469"/>
      <use xlink:href="#ArialMT-20" x="189.013672"/>
      <use xlink:href="#ArialMT-66" x="216.796875"/>
      <use xlink:href="#ArialMT-69" x="244.580078"/>
      <use xlink:href="#ArialMT-74" x="266.796875"/>
      <use xlink:href="#ArialMT-20" x="294.580078"/>
      <use xlink:href="#ArialMT-28" x="322.363281"/>
      <use xlink:href="#ArialMT-39" x="355.664062"/>
      <use xlink:href="#ArialMT-35" x="411.279297"/>
      <use xlink:href="#ArialMT-25" x="466.894531"/>
      <use xlink:href="#ArialMT-20" x="555.810547"/>
      <use xlink:href="#ArialMT-43" x="583.59375"/>
      <use xlink:href="#ArialMT-49" x="655.810547"/>
      <use xlink:href="#ArialMT-29" x="683.59375"/>
     </g>
    </g>
   </g>
  </g>
  <g id="axes_2">
   <g id="patch_8">
    <path d="M 313.000863 210.04 
L 476.055482 210.04 
L 476.055482 14.76 
L 313.000863 14.76 
z
" style="fill: #ffffff"/>
   </g>
   <g id="matplotlib.axis_3">
    <g id="xtick_7">
     <g id="line2d_20">
      <g>
       <use xlink:href="#m7917883b4d" x="330.905566" y="210.04" style="fill: #262626; stroke: #262626; stroke-width: 0.8"/>
      </g>
     </g>
     <g id="text_20">
      <!-- 150 -->
      <g style="fill: #262626" transform="translate(322.56416 224.197812) scale(0.1 -0.1)">
       <use xlink:href="#ArialMT-31"/>
       <use xlink:href="#ArialMT-35" x="55.615234"/>
       <use xlink:href="#ArialMT-30" x="111.230469"/>
      </g>
     </g>
    </g>
    <g id="xtick_8">
     <g id="line2d_21">
      <g>
       <use xlink:href="#m7917883b4d" x="369.471978" y="210.04" style="fill: #262626; stroke: #262626; stroke-width: 0.8"/>
      </g>
     </g>
     <g id="text_21">
      <!-- 175 -->
      <g style="fill: #262626" transform="translate(361.130572 224.197812) scale(0.1 -0.1)">
       <use xlink:href="#ArialMT-31"/>
       <use xlink:href="#ArialMT-37" x="55.615234"/>
       <use xlink:href="#ArialMT-35" x="111.230469"/>
      </g>
     </g>
    </g>
    <g id="xtick_9">
     <g id="line2d_22">
      <g>
       <use xlink:href="#m7917883b4d" x="408.03839" y="210.04" style="fill: #262626; stroke: #262626; stroke-width: 0.8"/>
      </g>
     </g>
     <g id="text_22">
      <!-- 200 -->
      <g style="fill: #262626" transform="translate(399.696984 224.197812) scale(0.1 -0.1)">
       <use xlink:href="#ArialMT-32"/>
       <use xlink:href="#ArialMT-30" x="55.615234"/>
       <use xlink:href="#ArialMT-30" x="111.230469"/>
      </g>
     </g>
    </g>
    <g id="xtick_10">
     <g id="line2d_23">
      <g>
       <use xlink:href="#m7917883b4d" x="446.604802" y="210.04" style="fill: #262626; stroke: #262626; stroke-width: 0.8"/>
      </g>
     </g>
     <g id="text_23">
      <!-- 225 -->
      <g style="fill: #262626" transform="translate(438.263396 224.197812) scale(0.1 -0.1)">
       <use xlink:href="#ArialMT-32"/>
       <use xlink:href="#ArialMT-32" x="55.615234"/>
       <use xlink:href="#ArialMT-35" x="111.230469"/>
      </g>
     </g>
    </g>
    <g id="text_24">
     <!-- vmax -->
     <g style="fill: #262626" transform="translate(382.58286 237.343125) scale(0.1 -0.1)">
      <defs>
       <path id="ArialMT-76" d="M 1344 0 
L 81 3319 
L 675 3319 
L 1388 1331 
Q 1503 1009 1600 663 
Q 1675 925 1809 1294 
L 2547 3319 
L 3125 3319 
L 1869 0 
L 1344 0 
z
" transform="scale(0.015625)"/>
       <path id="ArialMT-6d" d="M 422 0 
L 422 3319 
L 925 3319 
L 925 2853 
Q 1081 3097 1340 3245 
Q 1600 3394 1931 3394 
Q 2300 3394 2536 3241 
Q 2772 3088 2869 2813 
Q 3263 3394 3894 3394 
Q 4388 3394 4653 3120 
Q 4919 2847 4919 2278 
L 4919 0 
L 4359 0 
L 4359 2091 
Q 4359 2428 4304 2576 
Q 4250 2725 4106 2815 
Q 3963 2906 3769 2906 
Q 3419 2906 3187 2673 
Q 2956 2441 2956 1928 
L 2956 0 
L 2394 0 
L 2394 2156 
Q 2394 2531 2256 2718 
Q 2119 2906 1806 2906 
Q 1569 2906 1367 2781 
Q 1166 2656 1075 2415 
Q 984 2175 984 1722 
L 984 0 
L 422 0 
z
" transform="scale(0.015625)"/>
       <path id="ArialMT-61" d="M 2588 409 
Q 2275 144 1986 34 
Q 1697 -75 1366 -75 
Q 819 -75 525 192 
Q 231 459 231 875 
Q 231 1119 342 1320 
Q 453 1522 633 1644 
Q 813 1766 1038 1828 
Q 1203 1872 1538 1913 
Q 2219 1994 2541 2106 
Q 2544 2222 2544 2253 
Q 2544 2597 2384 2738 
Q 2169 2928 1744 2928 
Q 1347 2928 1158 2789 
Q 969 2650 878 2297 
L 328 2372 
Q 403 2725 575 2942 
Q 747 3159 1072 3276 
Q 1397 3394 1825 3394 
Q 2250 3394 2515 3294 
Q 2781 3194 2906 3042 
Q 3031 2891 3081 2659 
Q 3109 2516 3109 2141 
L 3109 1391 
Q 3109 606 3145 398 
Q 3181 191 3288 0 
L 2700 0 
Q 2613 175 2588 409 
z
M 2541 1666 
Q 2234 1541 1622 1453 
Q 1275 1403 1131 1340 
Q 988 1278 909 1158 
Q 831 1038 831 891 
Q 831 666 1001 516 
Q 1172 366 1500 366 
Q 1825 366 2078 508 
Q 2331 650 2450 897 
Q 2541 1088 2541 1459 
L 2541 1666 
z
" transform="scale(0.015625)"/>
      </defs>
      <use xlink:href="#ArialMT-76"/>
      <use xlink:href="#ArialMT-6d" x="50"/>
      <use xlink:href="#ArialMT-61" x="133.300781"/>
      <use xlink:href="#ArialMT-78" x="188.916016"/>
     </g>
    </g>
   </g>
   <g id="matplotlib.axis_4">
    <g id="ytick_10">
     <g id="line2d_24">
      <g>
       <use xlink:href="#m488e41ebdb" x="313.000863" y="202.340097" style="fill: #262626; stroke: #262626; stroke-width: 0.8"/>
      </g>
     </g>
     <g id="text_25">
      <!-- 0 -->
      <g style="fill: #262626" transform="translate(300.439925 205.919003) scale(0.1 -0.1)">
       <use xlink:href="#ArialMT-30"/>
      </g>
     </g>
    </g>
    <g id="ytick_11">
     <g id="line2d_25">
      <g>
       <use xlink:href="#m488e41ebdb" x="313.000863" y="175.777851" style="fill: #262626; stroke: #262626; stroke-width: 0.8"/>
      </g>
     </g>
     <g id="text_26">
      <!-- 5 -->
      <g style="fill: #262626" transform="translate(300.439925 179.356757) scale(0.1 -0.1)">
       <use xlink:href="#ArialMT-35"/>
      </g>
     </g>
    </g>
    <g id="ytick_12">
     <g id="line2d_26">
      <g>
       <use xlink:href="#m488e41ebdb" x="313.000863" y="149.215605" style="fill: #262626; stroke: #262626; stroke-width: 0.8"/>
      </g>
     </g>
     <g id="text_27">
      <!-- 10 -->
      <g style="fill: #262626" transform="translate(294.878988 152.794511) scale(0.1 -0.1)">
       <use xlink:href="#ArialMT-31"/>
       <use xlink:href="#ArialMT-30" x="55.615234"/>
      </g>
     </g>
    </g>
    <g id="ytick_13">
     <g id="line2d_27">
      <g>
       <use xlink:href="#m488e41ebdb" x="313.000863" y="122.653358" style="fill: #262626; stroke: #262626; stroke-width: 0.8"/>
      </g>
     </g>
     <g id="text_28">
      <!-- 15 -->
      <g style="fill: #262626" transform="translate(294.878988 126.232265) scale(0.1 -0.1)">
       <use xlink:href="#ArialMT-31"/>
       <use xlink:href="#ArialMT-35" x="55.615234"/>
      </g>
     </g>
    </g>
    <g id="ytick_14">
     <g id="line2d_28">
      <g>
       <use xlink:href="#m488e41ebdb" x="313.000863" y="96.091112" style="fill: #262626; stroke: #262626; stroke-width: 0.8"/>
      </g>
     </g>
     <g id="text_29">
      <!-- 20 -->
      <g style="fill: #262626" transform="translate(294.878988 99.670018) scale(0.1 -0.1)">
       <use xlink:href="#ArialMT-32"/>
       <use xlink:href="#ArialMT-30" x="55.615234"/>
      </g>
     </g>
    </g>
    <g id="ytick_15">
     <g id="line2d_29">
      <g>
       <use xlink:href="#m488e41ebdb" x="313.000863" y="69.528866" style="fill: #262626; stroke: #262626; stroke-width: 0.8"/>
      </g>
     </g>
     <g id="text_30">
      <!-- 25 -->
      <g style="fill: #262626" transform="translate(294.878988 73.107772) scale(0.1 -0.1)">
       <use xlink:href="#ArialMT-32"/>
       <use xlink:href="#ArialMT-35" x="55.615234"/>
      </g>
     </g>
    </g>
    <g id="ytick_16">
     <g id="line2d_30">
      <g>
       <use xlink:href="#m488e41ebdb" x="313.000863" y="42.966619" style="fill: #262626; stroke: #262626; stroke-width: 0.8"/>
      </g>
     </g>
     <g id="text_31">
      <!-- 30 -->
      <g style="fill: #262626" transform="translate(294.878988 46.545526) scale(0.1 -0.1)">
       <defs>
        <path id="ArialMT-33" d="M 269 1209 
L 831 1284 
Q 928 806 1161 595 
Q 1394 384 1728 384 
Q 2125 384 2398 659 
Q 2672 934 2672 1341 
Q 2672 1728 2419 1979 
Q 2166 2231 1775 2231 
Q 1616 2231 1378 2169 
L 1441 2663 
Q 1497 2656 1531 2656 
Q 1891 2656 2178 2843 
Q 2466 3031 2466 3422 
Q 2466 3731 2256 3934 
Q 2047 4138 1716 4138 
Q 1388 4138 1169 3931 
Q 950 3725 888 3313 
L 325 3413 
Q 428 3978 793 4289 
Q 1159 4600 1703 4600 
Q 2078 4600 2393 4439 
Q 2709 4278 2876 4000 
Q 3044 3722 3044 3409 
Q 3044 3113 2884 2869 
Q 2725 2625 2413 2481 
Q 2819 2388 3044 2092 
Q 3269 1797 3269 1353 
Q 3269 753 2831 336 
Q 2394 -81 1725 -81 
Q 1122 -81 723 278 
Q 325 638 269 1209 
z
" transform="scale(0.015625)"/>
       </defs>
       <use xlink:href="#ArialMT-33"/>
       <use xlink:href="#ArialMT-30" x="55.615234"/>
      </g>
     </g>
    </g>
    <g id="ytick_17">
     <g id="line2d_31">
      <g>
       <use xlink:href="#m488e41ebdb" x="313.000863" y="16.404373" style="fill: #262626; stroke: #262626; stroke-width: 0.8"/>
      </g>
     </g>
     <g id="text_32">
      <!-- 35 -->
      <g style="fill: #262626" transform="translate(294.878988 19.983279) scale(0.1 -0.1)">
       <use xlink:href="#ArialMT-33"/>
       <use xlink:href="#ArialMT-35" x="55.615234"/>
      </g>
     </g>
    </g>
    <g id="text_33">
     <!-- km -->
     <g style="fill: #262626" transform="translate(288.891488 119.064844) rotate(-90) scale(0.1 -0.1)">
      <defs>
       <path id="ArialMT-6b" d="M 425 0 
L 425 4581 
L 988 4581 
L 988 1969 
L 2319 3319 
L 3047 3319 
L 1778 2088 
L 3175 0 
L 2481 0 
L 1384 1697 
L 988 1316 
L 988 0 
L 425 0 
z
" transform="scale(0.015625)"/>
      </defs>
      <use xlink:href="#ArialMT-6b"/>
      <use xlink:href="#ArialMT-6d" x="50"/>
     </g>
    </g>
   </g>
   <g id="QuadContourSet_1">
    <path clip-path="url(#p0755369c41)" style="fill: #130d25"/>
    <path d="M 392.86435 115.59702 
L 394.259109 114.392653 
L 392.86435 112.68634 
L 391.794888 114.392653 
z
M 396.191995 112.091391 
L 397.280735 110.407347 
L 396.191995 109.084725 
L 394.755816 110.407347 
z
" clip-path="url(#p0755369c41)" style="fill: #381a40"/>
    <path d="M 392.86435 116.952685 
L 395.829084 114.392653 
L 396.191995 113.960577 
L 398.48917 110.407347 
L 396.191995 107.616694 
L 393.161744 110.407347 
L 392.86435 110.765672 
L 390.591076 114.392653 
z
M 391.794888 114.392653 
L 392.86435 112.68634 
L 394.259109 114.392653 
L 392.86435 115.59702 
z
M 394.755816 110.407347 
L 396.191995 109.084725 
L 397.280735 110.407347 
L 396.191995 112.091391 
z
" clip-path="url(#p0755369c41)" style="fill: #611f53"/>
    <path d="M 389.536705 119.405542 
L 392.611317 118.377959 
L 392.86435 118.30835 
L 396.191995 115.276771 
L 396.967631 114.392653 
L 399.51964 110.626594 
L 399.668459 110.407347 
L 400.682953 106.422041 
L 399.51964 104.944803 
L 396.191995 106.184621 
L 395.950116 106.422041 
L 392.86435 109.390834 
L 392.036478 110.407347 
L 389.536705 114.20092 
L 389.412331 114.392653 
L 388.539972 118.377959 
z
M 390.591076 114.392653 
L 392.86435 110.765672 
L 393.161744 110.407347 
L 396.191995 107.616694 
L 398.48917 110.407347 
L 396.191995 113.960577 
L 395.829084 114.392653 
L 392.86435 116.952685 
z
" clip-path="url(#p0755369c41)" style="fill: #8b1d5b"/>
    <path d="M 389.536705 121.052533 
L 392.86435 119.427726 
L 394.057616 118.377959 
L 396.191995 116.426703 
L 397.976467 114.392653 
L 399.51964 112.115356 
L 400.678989 110.407347 
L 402.255644 106.422041 
L 399.51964 102.947715 
L 396.191995 104.909677 
L 394.651227 106.422041 
L 392.86435 108.141182 
L 391.018733 110.407347 
L 389.536705 112.656424 
L 388.410444 114.392653 
L 386.942427 118.377959 
z
M 388.539972 118.377959 
L 389.412331 114.392653 
L 389.536705 114.20092 
L 392.036478 110.407347 
L 392.86435 109.390834 
L 395.950116 106.422041 
L 396.191995 106.184621 
L 399.51964 104.944803 
L 400.682953 106.422041 
L 399.668459 110.407347 
L 399.51964 110.626594 
L 396.967631 114.392653 
L 396.191995 115.276771 
L 392.86435 118.30835 
L 392.611317 118.377959 
L 389.536705 119.405542 
z
" clip-path="url(#p0755369c41)" style="fill: #b71657"/>
    <path d="M 386.209059 122.899408 
L 389.536705 122.601679 
L 389.902568 122.363265 
L 392.86435 120.534312 
L 395.315469 118.377959 
L 396.191995 117.576636 
L 398.985303 114.392653 
L 399.51964 113.604119 
L 401.689518 110.407347 
L 402.847286 107.826977 
L 403.550357 106.422041 
L 403.979133 102.436735 
L 402.847286 100.897979 
L 399.51964 101.349366 
L 398.049011 102.436735 
L 396.191995 103.634733 
L 393.352337 106.422041 
L 392.86435 106.89153 
L 390.000987 110.407347 
L 389.536705 111.111927 
L 387.408558 114.392653 
L 386.209059 117.137688 
L 385.60984 118.377959 
L 385.632021 122.363265 
z
M 386.942427 118.377959 
L 388.410444 114.392653 
L 389.536705 112.656424 
L 391.018733 110.407347 
L 392.86435 108.141182 
L 394.651227 106.422041 
L 396.191995 104.909677 
L 399.51964 102.947715 
L 402.255644 106.422041 
L 400.678989 110.407347 
L 399.51964 112.115356 
L 397.976467 114.392653 
L 396.191995 116.426703 
L 394.057616 118.377959 
L 392.86435 119.427726 
L 389.536705 121.052533 
z
" clip-path="url(#p0755369c41)" style="fill: #db2946"/>
    <path d="M 386.209059 124.683449 
L 389.536705 123.769422 
L 391.694558 122.363265 
L 392.86435 121.640898 
L 396.191995 118.707451 
L 396.513594 118.377959 
L 399.51964 114.959983 
L 399.985324 114.392653 
L 402.700048 110.407347 
L 402.847286 110.079191 
L 404.677429 106.422041 
L 405.793074 102.436735 
L 402.904849 98.451429 
L 402.847286 98.437904 
L 402.820712 98.451429 
L 399.51964 99.888118 
L 396.191995 102.358172 
L 396.113966 102.436735 
L 392.86435 105.629101 
L 392.184392 106.422041 
L 389.536705 109.678805 
L 388.993468 110.407347 
L 386.406671 114.392653 
L 386.209059 114.844885 
L 384.502106 118.377959 
L 383.711895 122.363265 
z
M 385.632021 122.363265 
L 385.60984 118.377959 
L 386.209059 117.137688 
L 387.408558 114.392653 
L 389.536705 111.111927 
L 390.000987 110.407347 
L 392.86435 106.89153 
L 393.352337 106.422041 
L 396.191995 103.634733 
L 398.049011 102.436735 
L 399.51964 101.349366 
L 402.847286 100.897979 
L 403.979133 102.436735 
L 403.550357 106.422041 
L 402.847286 107.826977 
L 401.689518 110.407347 
L 399.51964 113.604119 
L 398.985303 114.392653 
L 396.191995 117.576636 
L 395.315469 118.377959 
L 392.86435 120.534312 
L 389.902568 122.363265 
L 389.536705 122.601679 
L 386.209059 122.899408 
z
" clip-path="url(#p0755369c41)" style="fill: #ef5840"/>
    <path d="M 386.209059 126.430687 
L 386.382985 126.348571 
L 389.536705 124.937166 
L 392.86435 122.728127 
L 393.290565 122.363265 
L 396.191995 119.794322 
L 397.57443 118.377959 
L 399.51964 116.166188 
L 400.975419 114.392653 
L 402.847286 111.6477 
L 403.699511 110.407347 
L 405.804502 106.422041 
L 406.174931 105.250617 
L 407.172727 102.436735 
L 407.257876 98.451429 
L 406.174931 96.857589 
L 402.847286 96.729102 
L 399.51964 98.427825 
L 399.491926 98.451429 
L 396.191995 101.056428 
L 394.82107 102.436735 
L 392.86435 104.358983 
L 391.095246 106.422041 
L 389.536705 108.339111 
L 387.994528 110.407347 
L 386.209059 113.157481 
L 385.415307 114.392653 
L 383.394372 118.377959 
L 382.881414 120.168715 
L 382.171591 122.363265 
L 382.881414 125.815278 
L 384.771776 126.348571 
z
M 383.711895 122.363265 
L 384.502106 118.377959 
L 386.209059 114.844885 
L 386.406671 114.392653 
L 388.993468 110.407347 
L 389.536705 109.678805 
L 392.184392 106.422041 
L 392.86435 105.629101 
L 396.113966 102.436735 
L 396.191995 102.358172 
L 399.51964 99.888118 
L 402.820712 98.451429 
L 402.847286 98.437904 
L 402.904849 98.451429 
L 405.793074 102.436735 
L 404.677429 106.422041 
L 402.847286 110.079191 
L 402.700048 110.407347 
L 399.985324 114.392653 
L 399.51964 114.959983 
L 396.513594 118.377959 
L 396.191995 118.707451 
L 392.86435 121.640898 
L 391.694558 122.363265 
L 389.536705 123.769422 
L 386.209059 124.683449 
z
" clip-path="url(#p0755369c41)" style="fill: #f58860"/>
    <path d="M 382.881414 128.010705 
L 386.209059 127.662593 
L 388.992253 126.348571 
L 389.536705 126.104909 
L 392.86435 123.778963 
L 394.518105 122.363265 
L 396.191995 120.881193 
L 398.635265 118.377959 
L 399.51964 117.372394 
L 401.965514 114.392653 
L 402.847286 113.099601 
L 404.697086 110.407347 
L 406.174931 107.664846 
L 406.881593 106.422041 
L 408.43658 102.436735 
L 409.225523 98.451429 
L 407.055477 94.466122 
L 406.174931 94.120734 
L 405.012143 94.466122 
L 402.847286 95.0203 
L 399.51964 97.023405 
L 397.842919 98.451429 
L 396.191995 99.754685 
L 393.528175 102.436735 
L 392.86435 103.088864 
L 390.006101 106.422041 
L 389.536705 106.999418 
L 386.995587 110.407347 
L 386.209059 111.618825 
L 384.426529 114.392653 
L 382.881414 117.358788 
L 382.329251 118.377959 
L 380.920771 122.363265 
L 380.877896 126.348571 
z
M 384.771776 126.348571 
L 382.881414 125.815278 
L 382.171591 122.363265 
L 382.881414 120.168715 
L 383.394372 118.377959 
L 385.415307 114.392653 
L 386.209059 113.157481 
L 387.994528 110.407347 
L 389.536705 108.339111 
L 391.095246 106.422041 
L 392.86435 104.358983 
L 394.82107 102.436735 
L 396.191995 101.056428 
L 399.491926 98.451429 
L 399.51964 98.427825 
L 402.847286 96.729102 
L 406.174931 96.857589 
L 407.257876 98.451429 
L 407.172727 102.436735 
L 406.174931 105.250617 
L 405.804502 106.422041 
L 403.699511 110.407347 
L 402.847286 111.6477 
L 400.975419 114.392653 
L 399.51964 116.166188 
L 397.57443 118.377959 
L 396.191995 119.794322 
L 393.290565 122.363265 
L 392.86435 122.728127 
L 389.536705 124.937166 
L 386.382985 126.348571 
L 386.209059 126.430687 
z
" clip-path="url(#p0755369c41)" style="fill: #f6b18b"/>
    <path d="M 379.553769 128.023807 
L 382.881414 129.832559 
L 386.209059 128.894499 
L 389.536705 127.182826 
L 390.71405 126.348571 
L 392.86435 124.829798 
L 395.745644 122.363265 
L 396.191995 121.968063 
L 399.51964 118.562779 
L 399.688388 118.377959 
L 402.847286 114.527927 
L 402.955126 114.392653 
L 405.694661 110.407347 
L 406.174931 109.516089 
L 407.934216 106.422041 
L 409.502576 102.815658 
L 409.679319 102.436735 
L 410.696642 98.451429 
L 410.568194 94.466122 
L 409.502576 92.758981 
L 406.174931 92.137932 
L 402.847286 93.416153 
L 401.344878 94.466122 
L 399.51964 95.618985 
L 396.193912 98.451429 
L 396.191995 98.452942 
L 392.86435 101.800343 
L 392.31043 102.436735 
L 389.536705 105.6675 
L 388.944139 106.422041 
L 386.209059 110.108857 
L 385.997585 110.407347 
L 383.43775 114.392653 
L 382.881414 115.460644 
L 381.300881 118.377959 
L 379.66995 122.363265 
L 379.553769 123.118836 
L 378.996351 126.348571 
z
M 380.877896 126.348571 
L 380.920771 122.363265 
L 382.329251 118.377959 
L 382.881414 117.358788 
L 384.426529 114.392653 
L 386.209059 111.618825 
L 386.995587 110.407347 
L 389.536705 106.999418 
L 390.006101 106.422041 
L 392.86435 103.088864 
L 393.528175 102.436735 
L 396.191995 99.754685 
L 397.842919 98.451429 
L 399.51964 97.023405 
L 402.847286 95.0203 
L 405.012143 94.466122 
L 406.174931 94.120734 
L 407.055477 94.466122 
L 409.225523 98.451429 
L 408.43658 102.436735 
L 406.881593 106.422041 
L 406.174931 107.664846 
L 404.697086 110.407347 
L 402.847286 113.099601 
L 401.965514 114.392653 
L 399.51964 117.372394 
L 398.635265 118.377959 
L 396.191995 120.881193 
L 394.518105 122.363265 
L 392.86435 123.778963 
L 389.536705 126.104909 
L 388.992253 126.348571 
L 386.209059 127.662593 
L 382.881414 128.010705 
z
" clip-path="url(#p0755369c41)" style="fill: #f8d9c3"/>
   </g>
   <g id="patch_9">
    <path d="M 313.000863 210.04 
L 313.000863 14.76 
" style="fill: none; stroke: #262626; stroke-width: 0.8; stroke-linejoin: miter; stroke-linecap: square"/>
   </g>
   <g id="patch_10">
    <path d="M 476.055482 210.04 
L 476.055482 14.76 
" style="fill: none; stroke: #262626; stroke-width: 0.8; stroke-linejoin: miter; stroke-linecap: square"/>
   </g>
   <g id="patch_11">
    <path d="M 313.000863 210.04 
L 476.055482 210.04 
" style="fill: none; stroke: #262626; stroke-width: 0.8; stroke-linejoin: miter; stroke-linecap: square"/>
   </g>
   <g id="patch_12">
    <path d="M 313.000863 14.76 
L 476.055482 14.76 
" style="fill: none; stroke: #262626; stroke-width: 0.8; stroke-linejoin: miter; stroke-linecap: square"/>
   </g>
  </g>
  <g id="axes_3">
   <g id="patch_13">
    <path d="M 577.381725 210.04 
L 781.2 210.04 
L 781.2 14.76 
L 577.381725 14.76 
z
" style="fill: #ffffff"/>
   </g>
   <g id="matplotlib.axis_5">
    <g id="xtick_11">
     <g id="line2d_32">
      <g>
       <use xlink:href="#m7917883b4d" x="580.271536" y="210.04" style="fill: #262626; stroke: #262626; stroke-width: 0.8"/>
      </g>
     </g>
     <g id="text_34">
      <!-- −75 -->
      <g style="fill: #262626" transform="translate(571.790286 224.197812) scale(0.1 -0.1)">
       <defs>
        <path id="ArialMT-2212" d="M 3381 1997 
L 356 1997 
L 356 2522 
L 3381 2522 
L 3381 1997 
z
" transform="scale(0.015625)"/>
       </defs>
       <use xlink:href="#ArialMT-2212"/>
       <use xlink:href="#ArialMT-37" x="58.398438"/>
       <use xlink:href="#ArialMT-35" x="114.013672"/>
      </g>
     </g>
    </g>
    <g id="xtick_12">
     <g id="line2d_33">
      <g>
       <use xlink:href="#m7917883b4d" x="614.265516" y="210.04" style="fill: #262626; stroke: #262626; stroke-width: 0.8"/>
      </g>
     </g>
     <g id="text_35">
      <!-- −50 -->
      <g style="fill: #262626" transform="translate(605.784266 224.197812) scale(0.1 -0.1)">
       <use xlink:href="#ArialMT-2212"/>
       <use xlink:href="#ArialMT-35" x="58.398438"/>
       <use xlink:href="#ArialMT-30" x="114.013672"/>
      </g>
     </g>
    </g>
    <g id="xtick_13">
     <g id="line2d_34">
      <g>
       <use xlink:href="#m7917883b4d" x="648.259497" y="210.04" style="fill: #262626; stroke: #262626; stroke-width: 0.8"/>
      </g>
     </g>
     <g id="text_36">
      <!-- −25 -->
      <g style="fill: #262626" transform="translate(639.778247 224.197812) scale(0.1 -0.1)">
       <use xlink:href="#ArialMT-2212"/>
       <use xlink:href="#ArialMT-32" x="58.398438"/>
       <use xlink:href="#ArialMT-35" x="114.013672"/>
      </g>
     </g>
    </g>
    <g id="xtick_14">
     <g id="line2d_35">
      <g>
       <use xlink:href="#m7917883b4d" x="682.253477" y="210.04" style="fill: #262626; stroke: #262626; stroke-width: 0.8"/>
      </g>
     </g>
     <g id="text_37">
      <!-- 0 -->
      <g style="fill: #262626" transform="translate(679.473008 224.197812) scale(0.1 -0.1)">
       <use xlink:href="#ArialMT-30"/>
      </g>
     </g>
    </g>
    <g id="xtick_15">
     <g id="line2d_36">
      <g>
       <use xlink:href="#m7917883b4d" x="716.247457" y="210.04" style="fill: #262626; stroke: #262626; stroke-width: 0.8"/>
      </g>
     </g>
     <g id="text_38">
      <!-- 25 -->
      <g style="fill: #262626" transform="translate(710.686519 224.197812) scale(0.1 -0.1)">
       <use xlink:href="#ArialMT-32"/>
       <use xlink:href="#ArialMT-35" x="55.615234"/>
      </g>
     </g>
    </g>
    <g id="xtick_16">
     <g id="line2d_37">
      <g>
       <use xlink:href="#m7917883b4d" x="750.241437" y="210.04" style="fill: #262626; stroke: #262626; stroke-width: 0.8"/>
      </g>
     </g>
     <g id="text_39">
      <!-- 50 -->
      <g style="fill: #262626" transform="translate(744.6805 224.197812) scale(0.1 -0.1)">
       <use xlink:href="#ArialMT-35"/>
       <use xlink:href="#ArialMT-30" x="55.615234"/>
      </g>
     </g>
    </g>
    <g id="text_40">
     <!-- residual -->
     <g style="fill: #262626" transform="translate(661.782269 237.343125) scale(0.1 -0.1)">
      <defs>
       <path id="ArialMT-64" d="M 2575 0 
L 2575 419 
Q 2259 -75 1647 -75 
Q 1250 -75 917 144 
Q 584 363 401 755 
Q 219 1147 219 1656 
Q 219 2153 384 2558 
Q 550 2963 881 3178 
Q 1213 3394 1622 3394 
Q 1922 3394 2156 3267 
Q 2391 3141 2538 2938 
L 2538 4581 
L 3097 4581 
L 3097 0 
L 2575 0 
z
M 797 1656 
Q 797 1019 1065 703 
Q 1334 388 1700 388 
Q 2069 388 2326 689 
Q 2584 991 2584 1609 
Q 2584 2291 2321 2609 
Q 2059 2928 1675 2928 
Q 1300 2928 1048 2622 
Q 797 2316 797 1656 
z
" transform="scale(0.015625)"/>
      </defs>
      <use xlink:href="#ArialMT-72"/>
      <use xlink:href="#ArialMT-65" x="33.300781"/>
      <use xlink:href="#ArialMT-73" x="88.916016"/>
      <use xlink:href="#ArialMT-69" x="138.916016"/>
      <use xlink:href="#ArialMT-64" x="161.132812"/>
      <use xlink:href="#ArialMT-75" x="216.748047"/>
      <use xlink:href="#ArialMT-61" x="272.363281"/>
      <use xlink:href="#ArialMT-6c" x="327.978516"/>
     </g>
    </g>
   </g>
   <g id="matplotlib.axis_6">
    <g id="ytick_18">
     <g id="line2d_38">
      <g>
       <use xlink:href="#m488e41ebdb" x="577.381725" y="210.04" style="fill: #262626; stroke: #262626; stroke-width: 0.8"/>
      </g>
     </g>
     <g id="text_41">
      <!-- 0.000 -->
      <g style="fill: #262626" transform="translate(545.35985 213.618906) scale(0.1 -0.1)">
       <defs>
        <path id="ArialMT-2e" d="M 581 0 
L 581 641 
L 1222 641 
L 1222 0 
L 581 0 
z
" transform="scale(0.015625)"/>
       </defs>
       <use xlink:href="#ArialMT-30"/>
       <use xlink:href="#ArialMT-2e" x="55.615234"/>
       <use xlink:href="#ArialMT-30" x="83.398438"/>
       <use xlink:href="#ArialMT-30" x="139.013672"/>
       <use xlink:href="#ArialMT-30" x="194.628906"/>
      </g>
     </g>
    </g>
    <g id="ytick_19">
     <g id="line2d_39">
      <g>
       <use xlink:href="#m488e41ebdb" x="577.381725" y="179.494885" style="fill: #262626; stroke: #262626; stroke-width: 0.8"/>
      </g>
     </g>
     <g id="text_42">
      <!-- 0.005 -->
      <g style="fill: #262626" transform="translate(545.35985 183.073792) scale(0.1 -0.1)">
       <use xlink:href="#ArialMT-30"/>
       <use xlink:href="#ArialMT-2e" x="55.615234"/>
       <use xlink:href="#ArialMT-30" x="83.398438"/>
       <use xlink:href="#ArialMT-30" x="139.013672"/>
       <use xlink:href="#ArialMT-35" x="194.628906"/>
      </g>
     </g>
    </g>
    <g id="ytick_20">
     <g id="line2d_40">
      <g>
       <use xlink:href="#m488e41ebdb" x="577.381725" y="148.949771" style="fill: #262626; stroke: #262626; stroke-width: 0.8"/>
      </g>
     </g>
     <g id="text_43">
      <!-- 0.010 -->
      <g style="fill: #262626" transform="translate(545.35985 152.528677) scale(0.1 -0.1)">
       <use xlink:href="#ArialMT-30"/>
       <use xlink:href="#ArialMT-2e" x="55.615234"/>
       <use xlink:href="#ArialMT-30" x="83.398438"/>
       <use xlink:href="#ArialMT-31" x="139.013672"/>
       <use xlink:href="#ArialMT-30" x="194.628906"/>
      </g>
     </g>
    </g>
    <g id="ytick_21">
     <g id="line2d_41">
      <g>
       <use xlink:href="#m488e41ebdb" x="577.381725" y="118.404656" style="fill: #262626; stroke: #262626; stroke-width: 0.8"/>
      </g>
     </g>
     <g id="text_44">
      <!-- 0.015 -->
      <g style="fill: #262626" transform="translate(545.35985 121.983562) scale(0.1 -0.1)">
       <use xlink:href="#ArialMT-30"/>
       <use xlink:href="#ArialMT-2e" x="55.615234"/>
       <use xlink:href="#ArialMT-30" x="83.398438"/>
       <use xlink:href="#ArialMT-31" x="139.013672"/>
       <use xlink:href="#ArialMT-35" x="194.628906"/>
      </g>
     </g>
    </g>
    <g id="ytick_22">
     <g id="line2d_42">
      <g>
       <use xlink:href="#m488e41ebdb" x="577.381725" y="87.859541" style="fill: #262626; stroke: #262626; stroke-width: 0.8"/>
      </g>
     </g>
     <g id="text_45">
      <!-- 0.020 -->
      <g style="fill: #262626" transform="translate(545.35985 91.438447) scale(0.1 -0.1)">
       <use xlink:href="#ArialMT-30"/>
       <use xlink:href="#ArialMT-2e" x="55.615234"/>
       <use xlink:href="#ArialMT-30" x="83.398438"/>
       <use xlink:href="#ArialMT-32" x="139.013672"/>
       <use xlink:href="#ArialMT-30" x="194.628906"/>
      </g>
     </g>
    </g>
    <g id="ytick_23">
     <g id="line2d_43">
      <g>
       <use xlink:href="#m488e41ebdb" x="577.381725" y="57.314426" style="fill: #262626; stroke: #262626; stroke-width: 0.8"/>
      </g>
     </g>
     <g id="text_46">
      <!-- 0.025 -->
      <g style="fill: #262626" transform="translate(545.35985 60.893333) scale(0.1 -0.1)">
       <use xlink:href="#ArialMT-30"/>
       <use xlink:href="#ArialMT-2e" x="55.615234"/>
       <use xlink:href="#ArialMT-30" x="83.398438"/>
       <use xlink:href="#ArialMT-32" x="139.013672"/>
       <use xlink:href="#ArialMT-35" x="194.628906"/>
      </g>
     </g>
    </g>
    <g id="ytick_24">
     <g id="line2d_44">
      <g>
       <use xlink:href="#m488e41ebdb" x="577.381725" y="26.769312" style="fill: #262626; stroke: #262626; stroke-width: 0.8"/>
      </g>
     </g>
     <g id="text_47">
      <!-- 0.030 -->
      <g style="fill: #262626" transform="translate(545.35985 30.348218) scale(0.1 -0.1)">
       <use xlink:href="#ArialMT-30"/>
       <use xlink:href="#ArialMT-2e" x="55.615234"/>
       <use xlink:href="#ArialMT-30" x="83.398438"/>
       <use xlink:href="#ArialMT-33" x="139.013672"/>
       <use xlink:href="#ArialMT-30" x="194.628906"/>
      </g>
     </g>
    </g>
    <g id="text_48">
     <!-- Density -->
     <g style="fill: #262626" transform="translate(539.255163 129.071875) rotate(-90) scale(0.1 -0.1)">
      <defs>
       <path id="ArialMT-44" d="M 494 0 
L 494 4581 
L 2072 4581 
Q 2606 4581 2888 4516 
Q 3281 4425 3559 4188 
Q 3922 3881 4101 3404 
Q 4281 2928 4281 2316 
Q 4281 1794 4159 1391 
Q 4038 988 3847 723 
Q 3656 459 3429 307 
Q 3203 156 2883 78 
Q 2563 0 2147 0 
L 494 0 
z
M 1100 541 
L 2078 541 
Q 2531 541 2789 625 
Q 3047 709 3200 863 
Q 3416 1078 3536 1442 
Q 3656 1806 3656 2325 
Q 3656 3044 3420 3430 
Q 3184 3816 2847 3947 
Q 2603 4041 2063 4041 
L 1100 4041 
L 1100 541 
z
" transform="scale(0.015625)"/>
      </defs>
      <use xlink:href="#ArialMT-44"/>
      <use xlink:href="#ArialMT-65" x="72.216797"/>
      <use xlink:href="#ArialMT-6e" x="127.832031"/>
      <use xlink:href="#ArialMT-73" x="183.447266"/>
      <use xlink:href="#ArialMT-69" x="233.447266"/>
      <use xlink:href="#ArialMT-74" x="255.664062"/>
      <use xlink:href="#ArialMT-79" x="283.447266"/>
     </g>
    </g>
   </g>
   <g id="patch_14">
    <path d="M 628.245388 210.04 
L 645.260546 210.04 
L 645.260546 163.544762 
L 628.245388 163.544762 
z
" clip-path="url(#p9abb304584)" style="fill: #23612b; fill-opacity: 0.5; stroke: #ffffff; stroke-linejoin: miter"/>
   </g>
   <g id="patch_15">
    <path d="M 645.260546 210.04 
L 662.275705 210.04 
L 662.275705 186.792381 
L 645.260546 186.792381 
z
" clip-path="url(#p9abb304584)" style="fill: #23612b; fill-opacity: 0.5; stroke: #ffffff; stroke-linejoin: miter"/>
   </g>
   <g id="patch_16">
    <path d="M 662.275705 210.04 
L 679.290863 210.04 
L 679.290863 117.049524 
L 662.275705 117.049524 
z
" clip-path="url(#p9abb304584)" style="fill: #23612b; fill-opacity: 0.5; stroke: #ffffff; stroke-linejoin: miter"/>
   </g>
   <g id="patch_17">
    <path d="M 679.290863 210.04 
L 696.306021 210.04 
L 696.306021 24.059048 
L 679.290863 24.059048 
z
" clip-path="url(#p9abb304584)" style="fill: #23612b; fill-opacity: 0.5; stroke: #ffffff; stroke-linejoin: miter"/>
   </g>
   <g id="patch_18">
    <path d="M 696.306021 210.04 
L 713.321179 210.04 
L 713.321179 117.049524 
L 696.306021 117.049524 
z
" clip-path="url(#p9abb304584)" style="fill: #23612b; fill-opacity: 0.5; stroke: #ffffff; stroke-linejoin: miter"/>
   </g>
   <g id="patch_19">
    <path d="M 713.321179 210.04 
L 730.336337 210.04 
L 730.336337 163.544762 
L 713.321179 163.544762 
z
" clip-path="url(#p9abb304584)" style="fill: #23612b; fill-opacity: 0.5; stroke: #ffffff; stroke-linejoin: miter"/>
   </g>
   <g id="line2d_45">
    <path d="M 586.646193 209.850428 
L 591.301704 209.536575 
L 595.026112 209.024974 
L 597.819419 208.400845 
L 600.612726 207.496536 
L 602.47493 206.705599 
L 604.337135 205.74522 
L 606.199339 204.604772 
L 608.061543 203.281066 
L 610.85485 200.96851 
L 613.648157 198.32812 
L 622.959179 189.059642 
L 624.821383 187.520113 
L 626.683588 186.18476 
L 628.545792 185.066302 
L 630.407997 184.155261 
L 633.201303 183.099137 
L 638.787916 181.246195 
L 640.650121 180.369866 
L 642.512325 179.201013 
L 644.37453 177.651428 
L 646.236734 175.647771 
L 648.098939 173.135565 
L 649.961143 170.081241 
L 651.823347 166.472236 
L 653.685552 162.31541 
L 655.547756 157.634302 
L 657.409961 152.465894 
L 660.203267 143.905539 
L 662.996574 134.550956 
L 666.720983 121.251565 
L 673.238698 97.815428 
L 676.032005 88.811394 
L 677.894209 83.542707 
L 679.756414 79.055708 
L 680.687516 77.155752 
L 681.618618 75.509869 
L 682.54972 74.1351 
L 683.480823 73.046694 
L 684.411925 72.257799 
L 685.343027 71.779182 
L 686.274129 71.618986 
L 687.205232 71.78253 
L 688.136334 72.27216 
L 689.067436 73.08715 
L 689.998538 74.223665 
L 690.92964 75.674772 
L 691.860743 77.430515 
L 692.791845 79.478035 
L 694.654049 84.383537 
L 696.516254 90.23797 
L 698.378458 96.856676 
L 701.171765 107.764456 
L 707.68948 134.084135 
L 710.482787 144.240153 
L 712.344991 150.309465 
L 714.207196 155.741494 
L 716.0694 160.515984 
L 717.931605 164.650473 
L 719.793809 168.195608 
L 721.656013 171.228341 
L 723.518218 173.843529 
L 725.380422 176.144644 
L 728.173729 179.229892 
L 736.553649 188.140542 
L 745.864671 198.54183 
L 748.657978 201.243027 
L 751.451284 203.557576 
L 753.313489 204.862979 
L 755.175693 205.976397 
L 757.037898 206.905515 
L 759.831204 207.985358 
L 762.624511 208.745728 
L 765.417817 209.256658 
L 769.142226 209.663225 
L 771.935533 209.832363 
L 771.935533 209.832363 
" clip-path="url(#p9abb304584)" style="fill: none; stroke: #23612b; stroke-width: 1.5; stroke-linecap: round"/>
   </g>
   <g id="patch_20">
    <path d="M 577.381725 210.04 
L 577.381725 14.76 
" style="fill: none; stroke: #262626; stroke-width: 0.8; stroke-linejoin: miter; stroke-linecap: square"/>
   </g>
   <g id="patch_21">
    <path d="M 781.2 210.04 
L 781.2 14.76 
" style="fill: none; stroke: #262626; stroke-width: 0.8; stroke-linejoin: miter; stroke-linecap: square"/>
   </g>
   <g id="patch_22">
    <path d="M 577.381725 210.04 
L 781.2 210.04 
" style="fill: none; stroke: #262626; stroke-width: 0.8; stroke-linejoin: miter; stroke-linecap: square"/>
   </g>
   <g id="patch_23">
    <path d="M 577.381725 14.76 
L 781.2 14.76 
" style="fill: none; stroke: #262626; stroke-width: 0.8; stroke-linejoin: miter; stroke-linecap: square"/>
   </g>
  </g>
  <g id="axes_4">
   <g id="patch_24">
    <path d="M 486.246396 210.04 
L 496.010396 210.04 
L 496.010396 14.76 
L 486.246396 14.76 
z
" style="fill: #ffffff"/>
   </g>
   <g id="matplotlib.axis_7"/>
   <g id="matplotlib.axis_8">
    <g id="ytick_25">
     <g id="line2d_46">
      <defs>
       <path id="mcba9adf743" d="M 0 0 
L 3.5 0 
" style="stroke: #262626; stroke-width: 0.8"/>
      </defs>
      <g>
       <use xlink:href="#mcba9adf743" x="496.010396" y="210.04" style="fill: #262626; stroke: #262626; stroke-width: 0.8"/>
      </g>
     </g>
     <g id="text_49">
      <!-- 0.0 -->
      <g style="fill: #262626" transform="translate(503.010396 213.618906) scale(0.1 -0.1)">
       <use xlink:href="#ArialMT-30"/>
       <use xlink:href="#ArialMT-2e" x="55.615234"/>
       <use xlink:href="#ArialMT-30" x="83.398438"/>
      </g>
     </g>
    </g>
    <g id="ytick_26">
     <g id="line2d_47">
      <g>
       <use xlink:href="#mcba9adf743" x="496.010396" y="170.984" style="fill: #262626; stroke: #262626; stroke-width: 0.8"/>
      </g>
     </g>
     <g id="text_50">
      <!-- 0.2 -->
      <g style="fill: #262626" transform="translate(503.010396 174.562906) scale(0.1 -0.1)">
       <use xlink:href="#ArialMT-30"/>
       <use xlink:href="#ArialMT-2e" x="55.615234"/>
       <use xlink:href="#ArialMT-32" x="83.398438"/>
      </g>
     </g>
    </g>
    <g id="ytick_27">
     <g id="line2d_48">
      <g>
       <use xlink:href="#mcba9adf743" x="496.010396" y="131.928" style="fill: #262626; stroke: #262626; stroke-width: 0.8"/>
      </g>
     </g>
     <g id="text_51">
      <!-- 0.4 -->
      <g style="fill: #262626" transform="translate(503.010396 135.506906) scale(0.1 -0.1)">
       <defs>
        <path id="ArialMT-34" d="M 2069 0 
L 2069 1097 
L 81 1097 
L 81 1613 
L 2172 4581 
L 2631 4581 
L 2631 1613 
L 3250 1613 
L 3250 1097 
L 2631 1097 
L 2631 0 
L 2069 0 
z
M 2069 1613 
L 2069 3678 
L 634 1613 
L 2069 1613 
z
" transform="scale(0.015625)"/>
       </defs>
       <use xlink:href="#ArialMT-30"/>
       <use xlink:href="#ArialMT-2e" x="55.615234"/>
       <use xlink:href="#ArialMT-34" x="83.398438"/>
      </g>
     </g>
    </g>
    <g id="ytick_28">
     <g id="line2d_49">
      <g>
       <use xlink:href="#mcba9adf743" x="496.010396" y="92.872" style="fill: #262626; stroke: #262626; stroke-width: 0.8"/>
      </g>
     </g>
     <g id="text_52">
      <!-- 0.6 -->
      <g style="fill: #262626" transform="translate(503.010396 96.450906) scale(0.1 -0.1)">
       <defs>
        <path id="ArialMT-36" d="M 3184 3459 
L 2625 3416 
Q 2550 3747 2413 3897 
Q 2184 4138 1850 4138 
Q 1581 4138 1378 3988 
Q 1113 3794 959 3422 
Q 806 3050 800 2363 
Q 1003 2672 1297 2822 
Q 1591 2972 1913 2972 
Q 2475 2972 2870 2558 
Q 3266 2144 3266 1488 
Q 3266 1056 3080 686 
Q 2894 316 2569 119 
Q 2244 -78 1831 -78 
Q 1128 -78 684 439 
Q 241 956 241 2144 
Q 241 3472 731 4075 
Q 1159 4600 1884 4600 
Q 2425 4600 2770 4297 
Q 3116 3994 3184 3459 
z
M 888 1484 
Q 888 1194 1011 928 
Q 1134 663 1356 523 
Q 1578 384 1822 384 
Q 2178 384 2434 671 
Q 2691 959 2691 1453 
Q 2691 1928 2437 2201 
Q 2184 2475 1800 2475 
Q 1419 2475 1153 2201 
Q 888 1928 888 1484 
z
" transform="scale(0.015625)"/>
       </defs>
       <use xlink:href="#ArialMT-30"/>
       <use xlink:href="#ArialMT-2e" x="55.615234"/>
       <use xlink:href="#ArialMT-36" x="83.398438"/>
      </g>
     </g>
    </g>
    <g id="ytick_29">
     <g id="line2d_50">
      <g>
       <use xlink:href="#mcba9adf743" x="496.010396" y="53.816" style="fill: #262626; stroke: #262626; stroke-width: 0.8"/>
      </g>
     </g>
     <g id="text_53">
      <!-- 0.8 -->
      <g style="fill: #262626" transform="translate(503.010396 57.394906) scale(0.1 -0.1)">
       <defs>
        <path id="ArialMT-38" d="M 1131 2484 
Q 781 2613 612 2850 
Q 444 3088 444 3419 
Q 444 3919 803 4259 
Q 1163 4600 1759 4600 
Q 2359 4600 2725 4251 
Q 3091 3903 3091 3403 
Q 3091 3084 2923 2848 
Q 2756 2613 2416 2484 
Q 2838 2347 3058 2040 
Q 3278 1734 3278 1309 
Q 3278 722 2862 322 
Q 2447 -78 1769 -78 
Q 1091 -78 675 323 
Q 259 725 259 1325 
Q 259 1772 486 2073 
Q 713 2375 1131 2484 
z
M 1019 3438 
Q 1019 3113 1228 2906 
Q 1438 2700 1772 2700 
Q 2097 2700 2305 2904 
Q 2513 3109 2513 3406 
Q 2513 3716 2298 3927 
Q 2084 4138 1766 4138 
Q 1444 4138 1231 3931 
Q 1019 3725 1019 3438 
z
M 838 1322 
Q 838 1081 952 856 
Q 1066 631 1291 507 
Q 1516 384 1775 384 
Q 2178 384 2440 643 
Q 2703 903 2703 1303 
Q 2703 1709 2433 1975 
Q 2163 2241 1756 2241 
Q 1359 2241 1098 1978 
Q 838 1716 838 1322 
z
" transform="scale(0.015625)"/>
       </defs>
       <use xlink:href="#ArialMT-30"/>
       <use xlink:href="#ArialMT-2e" x="55.615234"/>
       <use xlink:href="#ArialMT-38" x="83.398438"/>
      </g>
     </g>
    </g>
    <g id="ytick_30">
     <g id="line2d_51">
      <g>
       <use xlink:href="#mcba9adf743" x="496.010396" y="14.76" style="fill: #262626; stroke: #262626; stroke-width: 0.8"/>
      </g>
     </g>
     <g id="text_54">
      <!-- 1.0 -->
      <g style="fill: #262626" transform="translate(503.010396 18.338906) scale(0.1 -0.1)">
       <use xlink:href="#ArialMT-31"/>
       <use xlink:href="#ArialMT-2e" x="55.615234"/>
       <use xlink:href="#ArialMT-30" x="83.398438"/>
      </g>
     </g>
    </g>
   </g>
   <g id="QuadMesh_1">
    <path d="M 486.246396 210.04 
L 496.010396 210.04 
L 496.010396 190.512 
L 486.246396 190.512 
L 486.246396 210.04 
" clip-path="url(#pd9a9eae061)" style="fill: #130d25"/>
    <path d="M 486.246396 190.512 
L 496.010396 190.512 
L 496.010396 170.984 
L 486.246396 170.984 
L 486.246396 190.512 
" clip-path="url(#pd9a9eae061)" style="fill: #381a40"/>
    <path d="M 486.246396 170.984 
L 496.010396 170.984 
L 496.010396 151.456 
L 486.246396 151.456 
L 486.246396 170.984 
" clip-path="url(#pd9a9eae061)" style="fill: #611f53"/>
    <path d="M 486.246396 151.456 
L 496.010396 151.456 
L 496.010396 131.928 
L 486.246396 131.928 
L 486.246396 151.456 
" clip-path="url(#pd9a9eae061)" style="fill: #8b1d5b"/>
    <path d="M 486.246396 131.928 
L 496.010396 131.928 
L 496.010396 112.4 
L 486.246396 112.4 
L 486.246396 131.928 
" clip-path="url(#pd9a9eae061)" style="fill: #b71657"/>
    <path d="M 486.246396 112.4 
L 496.010396 112.4 
L 496.010396 92.872 
L 486.246396 92.872 
L 486.246396 112.4 
" clip-path="url(#pd9a9eae061)" style="fill: #db2946"/>
    <path d="M 486.246396 92.872 
L 496.010396 92.872 
L 496.010396 73.344 
L 486.246396 73.344 
L 486.246396 92.872 
" clip-path="url(#pd9a9eae061)" style="fill: #ef5840"/>
    <path d="M 486.246396 73.344 
L 496.010396 73.344 
L 496.010396 53.816 
L 486.246396 53.816 
L 486.246396 73.344 
" clip-path="url(#pd9a9eae061)" style="fill: #f58860"/>
    <path d="M 486.246396 53.816 
L 496.010396 53.816 
L 496.010396 34.288 
L 486.246396 34.288 
L 486.246396 53.816 
" clip-path="url(#pd9a9eae061)" style="fill: #f6b18b"/>
    <path d="M 486.246396 34.288 
L 496.010396 34.288 
L 496.010396 14.76 
L 486.246396 14.76 
L 486.246396 34.288 
" clip-path="url(#pd9a9eae061)" style="fill: #f8d9c3"/>
   </g>
   <g id="LineCollection_1"/>
   <g id="patch_25">
    <path d="M 486.246396 210.04 
L 491.128396 210.04 
L 496.010396 210.04 
L 496.010396 14.76 
L 491.128396 14.76 
L 486.246396 14.76 
L 486.246396 210.04 
z
" style="fill: none; stroke: #262626; stroke-width: 0.8; stroke-linejoin: miter; stroke-linecap: square"/>
   </g>
  </g>
 </g>
 <defs>
  <clipPath id="pbee906e223">
   <rect x="48.62" y="14.76" width="203.818275" height="195.28"/>
  </clipPath>
  <clipPath id="p0755369c41">
   <rect x="313.000863" y="14.76" width="163.05462" height="195.28"/>
  </clipPath>
  <clipPath id="p9abb304584">
   <rect x="577.381725" y="14.76" width="203.818275" height="195.28"/>
  </clipPath>
  <clipPath id="pd9a9eae061">
   <rect x="486.246396" y="14.76" width="9.764" height="195.28"/>
  </clipPath>
 </defs>
</svg>
