<?xml version="1.0" encoding="utf-8" standalone="no"?>
<!DOCTYPE svg PUBLIC "-//W3C//DTD SVG 1.1//EN"
  "http://www.w3.org/Graphics/SVG/1.1/DTD/svg11.dtd">
<svg xmlns:xlink="http://www.w3.org/1999/xlink" width="792pt" height="252pt" viewBox="0 0 792 252" xmlns="http://www.w3.org/2000/svg" version="1.1">
 <metadata>
  <rdf:RDF xmlns:dc="http://purl.org/dc/elements/1.1/" xmlns:cc="http://creativecommons.org/ns#" xmlns:rdf="http://www.w3.org/1999/02/22-rdf-syntax-ns#">
   <cc:Work>
    <dc:type rdf:resource="http://purl.org/dc/dcmitype/StillImage"/>
    <dc:date>2024-07-25T16:35:26.277210</dc:date>
    <dc:format>image/svg+xml</dc:format>
    <dc:creator>
     <cc:Agent>
      <dc:title>Matplotlib v3.9.1, https://matplotlib.org/</dc:title>
     </cc:Agent>
    </dc:creator>
   </cc:Work>
  </rdf:RDF>
 </metadata>
 <defs>
  <style type="text/css">*{stroke-linejoin: round; stroke-linecap: butt}</style>
 </defs>
 <g id="figure_1">
  <g id="patch_1">
   <path d="M 0 252 
L 792 252 
L 792 0 
L 0 0 
z
" style="fill: #ffffff"/>
  </g>
  <g id="axes_1">
   <g id="patch_2">
    <path d="M 48.62 210.04 
L 252.438275 210.04 
L 252.438275 14.76 
L 48.62 14.76 
z
" style="fill: #ffffff"/>
   </g>
   <g id="matplotlib.axis_1">
    <g id="xtick_1">
     <g id="line2d_1">
      <defs>
       <path id="mfa566c1dbb" d="M 0 0 
L 0 3.5 
" style="stroke: #262626; stroke-width: 0.8"/>
      </defs>
      <g>
       <use xlink:href="#mfa566c1dbb" x="57.884467" y="210.04" style="fill: #262626; stroke: #262626; stroke-width: 0.8"/>
      </g>
     </g>
     <g id="text_1">
      <!-- 0 -->
      <g style="fill: #262626" transform="translate(55.103998 224.197812) scale(0.1 -0.1)">
       <defs>
        <path id="ArialMT-30" d="M 266 2259 
Q 266 3072 433 3567 
Q 600 4063 929 4331 
Q 1259 4600 1759 4600 
Q 2128 4600 2406 4451 
Q 2684 4303 2865 4023 
Q 3047 3744 3150 3342 
Q 3253 2941 3253 2259 
Q 3253 1453 3087 958 
Q 2922 463 2592 192 
Q 2263 -78 1759 -78 
Q 1097 -78 719 397 
Q 266 969 266 2259 
z
M 844 2259 
Q 844 1131 1108 757 
Q 1372 384 1759 384 
Q 2147 384 2411 759 
Q 2675 1134 2675 2259 
Q 2675 3391 2411 3762 
Q 2147 4134 1753 4134 
Q 1366 4134 1134 3806 
Q 844 3388 844 2259 
z
" transform="scale(0.015625)"/>
       </defs>
       <use xlink:href="#ArialMT-30"/>
      </g>
     </g>
    </g>
    <g id="xtick_2">
     <g id="line2d_2">
      <g>
       <use xlink:href="#mfa566c1dbb" x="101.823197" y="210.04" style="fill: #262626; stroke: #262626; stroke-width: 0.8"/>
      </g>
     </g>
     <g id="text_2">
      <!-- 200 -->
      <g style="fill: #262626" transform="translate(93.481791 224.197812) scale(0.1 -0.1)">
       <defs>
        <path id="ArialMT-32" d="M 3222 541 
L 3222 0 
L 194 0 
Q 188 203 259 391 
Q 375 700 629 1000 
Q 884 1300 1366 1694 
Q 2113 2306 2375 2664 
Q 2638 3022 2638 3341 
Q 2638 3675 2398 3904 
Q 2159 4134 1775 4134 
Q 1369 4134 1125 3890 
Q 881 3647 878 3216 
L 300 3275 
Q 359 3922 746 4261 
Q 1134 4600 1788 4600 
Q 2447 4600 2831 4234 
Q 3216 3869 3216 3328 
Q 3216 3053 3103 2787 
Q 2991 2522 2730 2228 
Q 2469 1934 1863 1422 
Q 1356 997 1212 845 
Q 1069 694 975 541 
L 3222 541 
z
" transform="scale(0.015625)"/>
       </defs>
       <use xlink:href="#ArialMT-32"/>
       <use xlink:href="#ArialMT-30" x="55.615234"/>
       <use xlink:href="#ArialMT-30" x="111.230469"/>
      </g>
     </g>
    </g>
    <g id="xtick_3">
     <g id="line2d_3">
      <g>
       <use xlink:href="#mfa566c1dbb" x="145.761927" y="210.04" style="fill: #262626; stroke: #262626; stroke-width: 0.8"/>
      </g>
     </g>
     <g id="text_3">
      <!-- 400 -->
      <g style="fill: #262626" transform="translate(137.420521 224.197812) scale(0.1 -0.1)">
       <defs>
        <path id="ArialMT-34" d="M 2069 0 
L 2069 1097 
L 81 1097 
L 81 1613 
L 2172 4581 
L 2631 4581 
L 2631 1613 
L 3250 1613 
L 3250 1097 
L 2631 1097 
L 2631 0 
L 2069 0 
z
M 2069 1613 
L 2069 3678 
L 634 1613 
L 2069 1613 
z
" transform="scale(0.015625)"/>
       </defs>
       <use xlink:href="#ArialMT-34"/>
       <use xlink:href="#ArialMT-30" x="55.615234"/>
       <use xlink:href="#ArialMT-30" x="111.230469"/>
      </g>
     </g>
    </g>
    <g id="xtick_4">
     <g id="line2d_4">
      <g>
       <use xlink:href="#mfa566c1dbb" x="189.700657" y="210.04" style="fill: #262626; stroke: #262626; stroke-width: 0.8"/>
      </g>
     </g>
     <g id="text_4">
      <!-- 600 -->
      <g style="fill: #262626" transform="translate(181.35925 224.197812) scale(0.1 -0.1)">
       <defs>
        <path id="ArialMT-36" d="M 3184 3459 
L 2625 3416 
Q 2550 3747 2413 3897 
Q 2184 4138 1850 4138 
Q 1581 4138 1378 3988 
Q 1113 3794 959 3422 
Q 806 3050 800 2363 
Q 1003 2672 1297 2822 
Q 1591 2972 1913 2972 
Q 2475 2972 2870 2558 
Q 3266 2144 3266 1488 
Q 3266 1056 3080 686 
Q 2894 316 2569 119 
Q 2244 -78 1831 -78 
Q 1128 -78 684 439 
Q 241 956 241 2144 
Q 241 3472 731 4075 
Q 1159 4600 1884 4600 
Q 2425 4600 2770 4297 
Q 3116 3994 3184 3459 
z
M 888 1484 
Q 888 1194 1011 928 
Q 1134 663 1356 523 
Q 1578 384 1822 384 
Q 2178 384 2434 671 
Q 2691 959 2691 1453 
Q 2691 1928 2437 2201 
Q 2184 2475 1800 2475 
Q 1419 2475 1153 2201 
Q 888 1928 888 1484 
z
" transform="scale(0.015625)"/>
       </defs>
       <use xlink:href="#ArialMT-36"/>
       <use xlink:href="#ArialMT-30" x="55.615234"/>
       <use xlink:href="#ArialMT-30" x="111.230469"/>
      </g>
     </g>
    </g>
    <g id="xtick_5">
     <g id="line2d_5">
      <g>
       <use xlink:href="#mfa566c1dbb" x="233.639387" y="210.04" style="fill: #262626; stroke: #262626; stroke-width: 0.8"/>
      </g>
     </g>
     <g id="text_5">
      <!-- 800 -->
      <g style="fill: #262626" transform="translate(225.29798 224.197812) scale(0.1 -0.1)">
       <defs>
        <path id="ArialMT-38" d="M 1131 2484 
Q 781 2613 612 2850 
Q 444 3088 444 3419 
Q 444 3919 803 4259 
Q 1163 4600 1759 4600 
Q 2359 4600 2725 4251 
Q 3091 3903 3091 3403 
Q 3091 3084 2923 2848 
Q 2756 2613 2416 2484 
Q 2838 2347 3058 2040 
Q 3278 1734 3278 1309 
Q 3278 722 2862 322 
Q 2447 -78 1769 -78 
Q 1091 -78 675 323 
Q 259 725 259 1325 
Q 259 1772 486 2073 
Q 713 2375 1131 2484 
z
M 1019 3438 
Q 1019 3113 1228 2906 
Q 1438 2700 1772 2700 
Q 2097 2700 2305 2904 
Q 2513 3109 2513 3406 
Q 2513 3716 2298 3927 
Q 2084 4138 1766 4138 
Q 1444 4138 1231 3931 
Q 1019 3725 1019 3438 
z
M 838 1322 
Q 838 1081 952 856 
Q 1066 631 1291 507 
Q 1516 384 1775 384 
Q 2178 384 2440 643 
Q 2703 903 2703 1303 
Q 2703 1709 2433 1975 
Q 2163 2241 1756 2241 
Q 1359 2241 1098 1978 
Q 838 1716 838 1322 
z
" transform="scale(0.015625)"/>
       </defs>
       <use xlink:href="#ArialMT-38"/>
       <use xlink:href="#ArialMT-30" x="55.615234"/>
       <use xlink:href="#ArialMT-30" x="111.230469"/>
      </g>
     </g>
    </g>
    <g id="text_6">
     <!-- [Phytoene] (µM) -->
     <g style="fill: #262626" transform="translate(114.859606 237.465) scale(0.1 -0.1)">
      <defs>
       <path id="ArialMT-5b" d="M 434 -1272 
L 434 4581 
L 1675 4581 
L 1675 4116 
L 997 4116 
L 997 -806 
L 1675 -806 
L 1675 -1272 
L 434 -1272 
z
" transform="scale(0.015625)"/>
       <path id="ArialMT-50" d="M 494 0 
L 494 4581 
L 2222 4581 
Q 2678 4581 2919 4538 
Q 3256 4481 3484 4323 
Q 3713 4166 3852 3881 
Q 3991 3597 3991 3256 
Q 3991 2672 3619 2267 
Q 3247 1863 2275 1863 
L 1100 1863 
L 1100 0 
L 494 0 
z
M 1100 2403 
L 2284 2403 
Q 2872 2403 3119 2622 
Q 3366 2841 3366 3238 
Q 3366 3525 3220 3729 
Q 3075 3934 2838 4000 
Q 2684 4041 2272 4041 
L 1100 4041 
L 1100 2403 
z
" transform="scale(0.015625)"/>
       <path id="ArialMT-68" d="M 422 0 
L 422 4581 
L 984 4581 
L 984 2938 
Q 1378 3394 1978 3394 
Q 2347 3394 2619 3248 
Q 2891 3103 3008 2847 
Q 3125 2591 3125 2103 
L 3125 0 
L 2563 0 
L 2563 2103 
Q 2563 2525 2380 2717 
Q 2197 2909 1863 2909 
Q 1613 2909 1392 2779 
Q 1172 2650 1078 2428 
Q 984 2206 984 1816 
L 984 0 
L 422 0 
z
" transform="scale(0.015625)"/>
       <path id="ArialMT-79" d="M 397 -1278 
L 334 -750 
Q 519 -800 656 -800 
Q 844 -800 956 -737 
Q 1069 -675 1141 -563 
Q 1194 -478 1313 -144 
Q 1328 -97 1363 -6 
L 103 3319 
L 709 3319 
L 1400 1397 
Q 1534 1031 1641 628 
Q 1738 1016 1872 1384 
L 2581 3319 
L 3144 3319 
L 1881 -56 
Q 1678 -603 1566 -809 
Q 1416 -1088 1222 -1217 
Q 1028 -1347 759 -1347 
Q 597 -1347 397 -1278 
z
" transform="scale(0.015625)"/>
       <path id="ArialMT-74" d="M 1650 503 
L 1731 6 
Q 1494 -44 1306 -44 
Q 1000 -44 831 53 
Q 663 150 594 308 
Q 525 466 525 972 
L 525 2881 
L 113 2881 
L 113 3319 
L 525 3319 
L 525 4141 
L 1084 4478 
L 1084 3319 
L 1650 3319 
L 1650 2881 
L 1084 2881 
L 1084 941 
Q 1084 700 1114 631 
Q 1144 563 1211 522 
Q 1278 481 1403 481 
Q 1497 481 1650 503 
z
" transform="scale(0.015625)"/>
       <path id="ArialMT-6f" d="M 213 1659 
Q 213 2581 725 3025 
Q 1153 3394 1769 3394 
Q 2453 3394 2887 2945 
Q 3322 2497 3322 1706 
Q 3322 1066 3130 698 
Q 2938 331 2570 128 
Q 2203 -75 1769 -75 
Q 1072 -75 642 372 
Q 213 819 213 1659 
z
M 791 1659 
Q 791 1022 1069 705 
Q 1347 388 1769 388 
Q 2188 388 2466 706 
Q 2744 1025 2744 1678 
Q 2744 2294 2464 2611 
Q 2184 2928 1769 2928 
Q 1347 2928 1069 2612 
Q 791 2297 791 1659 
z
" transform="scale(0.015625)"/>
       <path id="ArialMT-65" d="M 2694 1069 
L 3275 997 
Q 3138 488 2766 206 
Q 2394 -75 1816 -75 
Q 1088 -75 661 373 
Q 234 822 234 1631 
Q 234 2469 665 2931 
Q 1097 3394 1784 3394 
Q 2450 3394 2872 2941 
Q 3294 2488 3294 1666 
Q 3294 1616 3291 1516 
L 816 1516 
Q 847 969 1125 678 
Q 1403 388 1819 388 
Q 2128 388 2347 550 
Q 2566 713 2694 1069 
z
M 847 1978 
L 2700 1978 
Q 2663 2397 2488 2606 
Q 2219 2931 1791 2931 
Q 1403 2931 1139 2672 
Q 875 2413 847 1978 
z
" transform="scale(0.015625)"/>
       <path id="ArialMT-6e" d="M 422 0 
L 422 3319 
L 928 3319 
L 928 2847 
Q 1294 3394 1984 3394 
Q 2284 3394 2536 3286 
Q 2788 3178 2913 3003 
Q 3038 2828 3088 2588 
Q 3119 2431 3119 2041 
L 3119 0 
L 2556 0 
L 2556 2019 
Q 2556 2363 2490 2533 
Q 2425 2703 2258 2804 
Q 2091 2906 1866 2906 
Q 1506 2906 1245 2678 
Q 984 2450 984 1813 
L 984 0 
L 422 0 
z
" transform="scale(0.015625)"/>
       <path id="ArialMT-5d" d="M 1363 -1272 
L 122 -1272 
L 122 -806 
L 800 -806 
L 800 4116 
L 122 4116 
L 122 4581 
L 1363 4581 
L 1363 -1272 
z
" transform="scale(0.015625)"/>
       <path id="ArialMT-20" transform="scale(0.015625)"/>
       <path id="ArialMT-28" d="M 1497 -1347 
Q 1031 -759 709 28 
Q 388 816 388 1659 
Q 388 2403 628 3084 
Q 909 3875 1497 4659 
L 1900 4659 
Q 1522 4009 1400 3731 
Q 1209 3300 1100 2831 
Q 966 2247 966 1656 
Q 966 153 1900 -1347 
L 1497 -1347 
z
" transform="scale(0.015625)"/>
       <path id="ArialMT-b5" d="M 3181 3319 
L 3181 0 
L 2678 0 
L 2678 394 
Q 2516 144 2356 50 
Q 2138 -78 1847 -78 
Q 1588 -78 1388 25 
Q 1238 103 1056 334 
L 1056 -1272 
L 500 -1272 
L 500 3319 
L 1056 3319 
L 1056 1913 
Q 1056 1147 1137 920 
Q 1219 694 1401 562 
Q 1584 431 1822 431 
Q 2072 431 2269 568 
Q 2466 706 2547 923 
Q 2628 1141 2628 1903 
L 2628 3319 
L 3181 3319 
z
" transform="scale(0.015625)"/>
       <path id="ArialMT-4d" d="M 475 0 
L 475 4581 
L 1388 4581 
L 2472 1338 
Q 2622 884 2691 659 
Q 2769 909 2934 1394 
L 4031 4581 
L 4847 4581 
L 4847 0 
L 4263 0 
L 4263 3834 
L 2931 0 
L 2384 0 
L 1059 3900 
L 1059 0 
L 475 0 
z
" transform="scale(0.015625)"/>
       <path id="ArialMT-29" d="M 791 -1347 
L 388 -1347 
Q 1322 153 1322 1656 
Q 1322 2244 1188 2822 
Q 1081 3291 891 3722 
Q 769 4003 388 4659 
L 791 4659 
Q 1378 3875 1659 3084 
Q 1900 2403 1900 1659 
Q 1900 816 1576 28 
Q 1253 -759 791 -1347 
z
" transform="scale(0.015625)"/>
      </defs>
      <use xlink:href="#ArialMT-5b"/>
      <use xlink:href="#ArialMT-50" x="27.783203"/>
      <use xlink:href="#ArialMT-68" x="94.482422"/>
      <use xlink:href="#ArialMT-79" x="150.097656"/>
      <use xlink:href="#ArialMT-74" x="200.097656"/>
      <use xlink:href="#ArialMT-6f" x="227.880859"/>
      <use xlink:href="#ArialMT-65" x="283.496094"/>
      <use xlink:href="#ArialMT-6e" x="339.111328"/>
      <use xlink:href="#ArialMT-65" x="394.726562"/>
      <use xlink:href="#ArialMT-5d" x="450.341797"/>
      <use xlink:href="#ArialMT-20" x="478.125"/>
      <use xlink:href="#ArialMT-28" x="505.908203"/>
      <use xlink:href="#ArialMT-b5" x="539.208984"/>
      <use xlink:href="#ArialMT-4d" x="596.826172"/>
      <use xlink:href="#ArialMT-29" x="680.126953"/>
     </g>
    </g>
   </g>
   <g id="matplotlib.axis_2">
    <g id="ytick_1">
     <g id="line2d_6">
      <defs>
       <path id="m2a4d66b2df" d="M 0 0 
L -3.5 0 
" style="stroke: #262626; stroke-width: 0.8"/>
      </defs>
      <g>
       <use xlink:href="#m2a4d66b2df" x="48.62" y="201.163636" style="fill: #262626; stroke: #262626; stroke-width: 0.8"/>
      </g>
     </g>
     <g id="text_7">
      <!-- 0 -->
      <g style="fill: #262626" transform="translate(36.059063 204.742543) scale(0.1 -0.1)">
       <use xlink:href="#ArialMT-30"/>
      </g>
     </g>
    </g>
    <g id="ytick_2">
     <g id="line2d_7">
      <g>
       <use xlink:href="#m2a4d66b2df" x="48.62" y="174.487537" style="fill: #262626; stroke: #262626; stroke-width: 0.8"/>
      </g>
     </g>
     <g id="text_8">
      <!-- 50 -->
      <g style="fill: #262626" transform="translate(30.498125 178.066443) scale(0.1 -0.1)">
       <defs>
        <path id="ArialMT-35" d="M 266 1200 
L 856 1250 
Q 922 819 1161 601 
Q 1400 384 1738 384 
Q 2144 384 2425 690 
Q 2706 997 2706 1503 
Q 2706 1984 2436 2262 
Q 2166 2541 1728 2541 
Q 1456 2541 1237 2417 
Q 1019 2294 894 2097 
L 366 2166 
L 809 4519 
L 3088 4519 
L 3088 3981 
L 1259 3981 
L 1013 2750 
Q 1425 3038 1878 3038 
Q 2478 3038 2890 2622 
Q 3303 2206 3303 1553 
Q 3303 931 2941 478 
Q 2500 -78 1738 -78 
Q 1113 -78 717 272 
Q 322 622 266 1200 
z
" transform="scale(0.015625)"/>
       </defs>
       <use xlink:href="#ArialMT-35"/>
       <use xlink:href="#ArialMT-30" x="55.615234"/>
      </g>
     </g>
    </g>
    <g id="ytick_3">
     <g id="line2d_8">
      <g>
       <use xlink:href="#m2a4d66b2df" x="48.62" y="147.811437" style="fill: #262626; stroke: #262626; stroke-width: 0.8"/>
      </g>
     </g>
     <g id="text_9">
      <!-- 100 -->
      <g style="fill: #262626" transform="translate(24.937188 151.390344) scale(0.1 -0.1)">
       <defs>
        <path id="ArialMT-31" d="M 2384 0 
L 1822 0 
L 1822 3584 
Q 1619 3391 1289 3197 
Q 959 3003 697 2906 
L 697 3450 
Q 1169 3672 1522 3987 
Q 1875 4303 2022 4600 
L 2384 4600 
L 2384 0 
z
" transform="scale(0.015625)"/>
       </defs>
       <use xlink:href="#ArialMT-31"/>
       <use xlink:href="#ArialMT-30" x="55.615234"/>
       <use xlink:href="#ArialMT-30" x="111.230469"/>
      </g>
     </g>
    </g>
    <g id="ytick_4">
     <g id="line2d_9">
      <g>
       <use xlink:href="#m2a4d66b2df" x="48.62" y="121.135338" style="fill: #262626; stroke: #262626; stroke-width: 0.8"/>
      </g>
     </g>
     <g id="text_10">
      <!-- 150 -->
      <g style="fill: #262626" transform="translate(24.937188 124.714244) scale(0.1 -0.1)">
       <use xlink:href="#ArialMT-31"/>
       <use xlink:href="#ArialMT-35" x="55.615234"/>
       <use xlink:href="#ArialMT-30" x="111.230469"/>
      </g>
     </g>
    </g>
    <g id="ytick_5">
     <g id="line2d_10">
      <g>
       <use xlink:href="#m2a4d66b2df" x="48.62" y="94.459238" style="fill: #262626; stroke: #262626; stroke-width: 0.8"/>
      </g>
     </g>
     <g id="text_11">
      <!-- 200 -->
      <g style="fill: #262626" transform="translate(24.937188 98.038145) scale(0.1 -0.1)">
       <use xlink:href="#ArialMT-32"/>
       <use xlink:href="#ArialMT-30" x="55.615234"/>
       <use xlink:href="#ArialMT-30" x="111.230469"/>
      </g>
     </g>
    </g>
    <g id="ytick_6">
     <g id="line2d_11">
      <g>
       <use xlink:href="#m2a4d66b2df" x="48.62" y="67.783139" style="fill: #262626; stroke: #262626; stroke-width: 0.8"/>
      </g>
     </g>
     <g id="text_12">
      <!-- 250 -->
      <g style="fill: #262626" transform="translate(24.937188 71.362045) scale(0.1 -0.1)">
       <use xlink:href="#ArialMT-32"/>
       <use xlink:href="#ArialMT-35" x="55.615234"/>
       <use xlink:href="#ArialMT-30" x="111.230469"/>
      </g>
     </g>
    </g>
    <g id="ytick_7">
     <g id="line2d_12">
      <g>
       <use xlink:href="#m2a4d66b2df" x="48.62" y="41.107039" style="fill: #262626; stroke: #262626; stroke-width: 0.8"/>
      </g>
     </g>
     <g id="text_13">
      <!-- 300 -->
      <g style="fill: #262626" transform="translate(24.937188 44.685945) scale(0.1 -0.1)">
       <defs>
        <path id="ArialMT-33" d="M 269 1209 
L 831 1284 
Q 928 806 1161 595 
Q 1394 384 1728 384 
Q 2125 384 2398 659 
Q 2672 934 2672 1341 
Q 2672 1728 2419 1979 
Q 2166 2231 1775 2231 
Q 1616 2231 1378 2169 
L 1441 2663 
Q 1497 2656 1531 2656 
Q 1891 2656 2178 2843 
Q 2466 3031 2466 3422 
Q 2466 3731 2256 3934 
Q 2047 4138 1716 4138 
Q 1388 4138 1169 3931 
Q 950 3725 888 3313 
L 325 3413 
Q 428 3978 793 4289 
Q 1159 4600 1703 4600 
Q 2078 4600 2393 4439 
Q 2709 4278 2876 4000 
Q 3044 3722 3044 3409 
Q 3044 3113 2884 2869 
Q 2725 2625 2413 2481 
Q 2819 2388 3044 2092 
Q 3269 1797 3269 1353 
Q 3269 753 2831 336 
Q 2394 -81 1725 -81 
Q 1122 -81 723 278 
Q 325 638 269 1209 
z
" transform="scale(0.015625)"/>
       </defs>
       <use xlink:href="#ArialMT-33"/>
       <use xlink:href="#ArialMT-30" x="55.615234"/>
       <use xlink:href="#ArialMT-30" x="111.230469"/>
      </g>
     </g>
    </g>
    <g id="text_14">
     <!-- Lycopene flux (µM/h) -->
     <g style="fill: #262626" transform="translate(18.8325 158.999219) rotate(-90) scale(0.1 -0.1)">
      <defs>
       <path id="ArialMT-4c" d="M 469 0 
L 469 4581 
L 1075 4581 
L 1075 541 
L 3331 541 
L 3331 0 
L 469 0 
z
" transform="scale(0.015625)"/>
       <path id="ArialMT-63" d="M 2588 1216 
L 3141 1144 
Q 3050 572 2676 248 
Q 2303 -75 1759 -75 
Q 1078 -75 664 370 
Q 250 816 250 1647 
Q 250 2184 428 2587 
Q 606 2991 970 3192 
Q 1334 3394 1763 3394 
Q 2303 3394 2647 3120 
Q 2991 2847 3088 2344 
L 2541 2259 
Q 2463 2594 2264 2762 
Q 2066 2931 1784 2931 
Q 1359 2931 1093 2626 
Q 828 2322 828 1663 
Q 828 994 1084 691 
Q 1341 388 1753 388 
Q 2084 388 2306 591 
Q 2528 794 2588 1216 
z
" transform="scale(0.015625)"/>
       <path id="ArialMT-70" d="M 422 -1272 
L 422 3319 
L 934 3319 
L 934 2888 
Q 1116 3141 1344 3267 
Q 1572 3394 1897 3394 
Q 2322 3394 2647 3175 
Q 2972 2956 3137 2557 
Q 3303 2159 3303 1684 
Q 3303 1175 3120 767 
Q 2938 359 2589 142 
Q 2241 -75 1856 -75 
Q 1575 -75 1351 44 
Q 1128 163 984 344 
L 984 -1272 
L 422 -1272 
z
M 931 1641 
Q 931 1000 1190 694 
Q 1450 388 1819 388 
Q 2194 388 2461 705 
Q 2728 1022 2728 1688 
Q 2728 2322 2467 2637 
Q 2206 2953 1844 2953 
Q 1484 2953 1207 2617 
Q 931 2281 931 1641 
z
" transform="scale(0.015625)"/>
       <path id="ArialMT-66" d="M 556 0 
L 556 2881 
L 59 2881 
L 59 3319 
L 556 3319 
L 556 3672 
Q 556 4006 616 4169 
Q 697 4388 901 4523 
Q 1106 4659 1475 4659 
Q 1713 4659 2000 4603 
L 1916 4113 
Q 1741 4144 1584 4144 
Q 1328 4144 1222 4034 
Q 1116 3925 1116 3625 
L 1116 3319 
L 1763 3319 
L 1763 2881 
L 1116 2881 
L 1116 0 
L 556 0 
z
" transform="scale(0.015625)"/>
       <path id="ArialMT-6c" d="M 409 0 
L 409 4581 
L 972 4581 
L 972 0 
L 409 0 
z
" transform="scale(0.015625)"/>
       <path id="ArialMT-75" d="M 2597 0 
L 2597 488 
Q 2209 -75 1544 -75 
Q 1250 -75 995 37 
Q 741 150 617 320 
Q 494 491 444 738 
Q 409 903 409 1263 
L 409 3319 
L 972 3319 
L 972 1478 
Q 972 1038 1006 884 
Q 1059 663 1231 536 
Q 1403 409 1656 409 
Q 1909 409 2131 539 
Q 2353 669 2445 892 
Q 2538 1116 2538 1541 
L 2538 3319 
L 3100 3319 
L 3100 0 
L 2597 0 
z
" transform="scale(0.015625)"/>
       <path id="ArialMT-78" d="M 47 0 
L 1259 1725 
L 138 3319 
L 841 3319 
L 1350 2541 
Q 1494 2319 1581 2169 
Q 1719 2375 1834 2534 
L 2394 3319 
L 3066 3319 
L 1919 1756 
L 3153 0 
L 2463 0 
L 1781 1031 
L 1600 1309 
L 728 0 
L 47 0 
z
" transform="scale(0.015625)"/>
       <path id="ArialMT-2f" d="M 0 -78 
L 1328 4659 
L 1778 4659 
L 453 -78 
L 0 -78 
z
" transform="scale(0.015625)"/>
      </defs>
      <use xlink:href="#ArialMT-4c"/>
      <use xlink:href="#ArialMT-79" x="51.865234"/>
      <use xlink:href="#ArialMT-63" x="101.865234"/>
      <use xlink:href="#ArialMT-6f" x="151.865234"/>
      <use xlink:href="#ArialMT-70" x="207.480469"/>
      <use xlink:href="#ArialMT-65" x="263.095703"/>
      <use xlink:href="#ArialMT-6e" x="318.710938"/>
      <use xlink:href="#ArialMT-65" x="374.326172"/>
      <use xlink:href="#ArialMT-20" x="429.941406"/>
      <use xlink:href="#ArialMT-66" x="457.724609"/>
      <use xlink:href="#ArialMT-6c" x="485.507812"/>
      <use xlink:href="#ArialMT-75" x="507.724609"/>
      <use xlink:href="#ArialMT-78" x="563.339844"/>
      <use xlink:href="#ArialMT-20" x="613.339844"/>
      <use xlink:href="#ArialMT-28" x="641.123047"/>
      <use xlink:href="#ArialMT-b5" x="674.423828"/>
      <use xlink:href="#ArialMT-4d" x="732.041016"/>
      <use xlink:href="#ArialMT-2f" x="815.341797"/>
      <use xlink:href="#ArialMT-68" x="843.125"/>
      <use xlink:href="#ArialMT-29" x="898.740234"/>
     </g>
    </g>
   </g>
   <g id="PolyCollection_1">
    <defs>
     <path id="m1a5a14c98a" d="M 57.884467 -50.836364 
L 57.884467 -50.836364 
L 58.810914 -61.053801 
L 59.73736 -70.120899 
L 60.663807 -78.250124 
L 61.590254 -85.715554 
L 62.516701 -92.530929 
L 63.443147 -98.775824 
L 64.369594 -104.322663 
L 65.296041 -109.549312 
L 66.222487 -114.407312 
L 67.148934 -118.754952 
L 68.075381 -122.799831 
L 69.001827 -126.669197 
L 69.928274 -130.096397 
L 70.854721 -132.890494 
L 71.781168 -135.888391 
L 72.707614 -138.734277 
L 73.634061 -141.496012 
L 74.560508 -143.81347 
L 75.486954 -145.985126 
L 76.413401 -147.95471 
L 77.339848 -149.905971 
L 78.266294 -151.785953 
L 79.192741 -153.501149 
L 80.119188 -155.104581 
L 81.045635 -156.370152 
L 81.972081 -157.838631 
L 82.898528 -159.488007 
L 83.824975 -160.882714 
L 84.751421 -162.148114 
L 85.677868 -163.356485 
L 86.604315 -164.299379 
L 87.530761 -165.417476 
L 88.457208 -166.252495 
L 89.383655 -167.186233 
L 90.310102 -167.989833 
L 91.236548 -168.903326 
L 92.162995 -169.876308 
L 93.089442 -170.553363 
L 94.015888 -171.170539 
L 94.942335 -171.769332 
L 95.868782 -172.291498 
L 96.795229 -172.900284 
L 97.721675 -173.428215 
L 98.648122 -173.771894 
L 99.574569 -174.12217 
L 100.501015 -174.692681 
L 101.427462 -175.288294 
L 102.353909 -175.801999 
L 103.280355 -176.214467 
L 104.206802 -176.614801 
L 105.133249 -177.040154 
L 106.059696 -177.426076 
L 106.986142 -177.759095 
L 107.912589 -177.982889 
L 108.839036 -178.325756 
L 109.765482 -178.644174 
L 110.691929 -178.949536 
L 111.618376 -179.280003 
L 112.544822 -179.5978 
L 113.471269 -179.893971 
L 114.397716 -180.136925 
L 115.324163 -180.33054 
L 116.250609 -180.506169 
L 117.177056 -180.676765 
L 118.103503 -180.84254 
L 119.029949 -181.003697 
L 119.956396 -181.234276 
L 120.882843 -181.570204 
L 121.809289 -181.854569 
L 122.735736 -182.043873 
L 123.662183 -182.229582 
L 124.58863 -182.412967 
L 125.515076 -182.591823 
L 126.441523 -182.740671 
L 127.36797 -182.867383 
L 128.294416 -183.099203 
L 129.220863 -183.258127 
L 130.14731 -183.396609 
L 131.073757 -183.561386 
L 132.000203 -183.719459 
L 132.92665 -183.864876 
L 133.853097 -183.998413 
L 134.779543 -184.096578 
L 135.70599 -184.192546 
L 136.632437 -184.286762 
L 137.558883 -184.450349 
L 138.48533 -184.561211 
L 139.411777 -184.651693 
L 140.338224 -184.755294 
L 141.26467 -184.895499 
L 142.191117 -185.033797 
L 143.117564 -185.167765 
L 144.04401 -185.299837 
L 144.970457 -185.430079 
L 145.896904 -185.557924 
L 146.82335 -185.683342 
L 147.749797 -185.806401 
L 148.676244 -185.926121 
L 149.602691 -186.045062 
L 150.529137 -186.160634 
L 151.455584 -186.274109 
L 152.382031 -186.385545 
L 153.308477 -186.494994 
L 154.234924 -186.581458 
L 155.161371 -186.651362 
L 156.087817 -186.709413 
L 157.014264 -186.787458 
L 157.940711 -186.85515 
L 158.867158 -186.938803 
L 159.793604 -187.021036 
L 160.720051 -187.101885 
L 161.646498 -187.181678 
L 162.572944 -187.260877 
L 163.499391 -187.338777 
L 164.425838 -187.415606 
L 165.352284 -187.511336 
L 166.278731 -187.605561 
L 167.205178 -187.691319 
L 168.131625 -187.753301 
L 169.058071 -187.814305 
L 169.984518 -187.874354 
L 170.910965 -187.93347 
L 171.837411 -187.991675 
L 172.763858 -188.048989 
L 173.690305 -188.113064 
L 174.616752 -188.176896 
L 175.543198 -188.239781 
L 176.469645 -188.30174 
L 177.396092 -188.362792 
L 178.322538 -188.405567 
L 179.248985 -188.442219 
L 180.175432 -188.478335 
L 181.101878 -188.539266 
L 182.028325 -188.607934 
L 182.954772 -188.654827 
L 183.881219 -188.701061 
L 184.807665 -188.746651 
L 185.734112 -188.79161 
L 186.660559 -188.835951 
L 187.587005 -188.879686 
L 188.513452 -188.922827 
L 189.439899 -188.965388 
L 190.366345 -189.007379 
L 191.292792 -189.048812 
L 192.219239 -189.089697 
L 193.145686 -189.130047 
L 194.072132 -189.16987 
L 194.998579 -189.209178 
L 195.925026 -189.24798 
L 196.851472 -189.286286 
L 197.777919 -189.324105 
L 198.704366 -189.361447 
L 199.630812 -189.398321 
L 200.557259 -189.434735 
L 201.483706 -189.470698 
L 202.410153 -189.506218 
L 203.336599 -189.541675 
L 204.263046 -189.577538 
L 205.189493 -189.612968 
L 206.115939 -189.647973 
L 207.042386 -189.68256 
L 207.968833 -189.716737 
L 208.89528 -189.750512 
L 209.821726 -189.78389 
L 210.748173 -189.81688 
L 211.67462 -189.849488 
L 212.601066 -189.88172 
L 213.527513 -189.913583 
L 214.45396 -189.945084 
L 215.380406 -189.976228 
L 216.306853 -190.007021 
L 217.2333 -190.03747 
L 218.159747 -190.067579 
L 219.086193 -190.097356 
L 220.01264 -190.126805 
L 220.939087 -190.155931 
L 221.865533 -190.18474 
L 222.79198 -190.213237 
L 223.718427 -190.241428 
L 224.644873 -190.269316 
L 225.57132 -190.296907 
L 226.497767 -190.324205 
L 227.424214 -190.351216 
L 228.35066 -190.377944 
L 229.277107 -190.404392 
L 230.203554 -190.430566 
L 231.13 -190.45647 
L 232.056447 -190.482108 
L 232.982894 -190.507484 
L 233.90934 -190.532601 
L 234.835787 -190.557465 
L 235.762234 -190.582078 
L 236.688681 -190.606445 
L 237.615127 -190.630569 
L 238.541574 -190.654453 
L 239.468021 -190.678102 
L 240.394467 -190.701519 
L 241.320914 -190.724707 
L 242.247361 -190.74767 
L 242.247361 -228.363636 
L 242.247361 -228.363636 
L 241.320914 -228.315279 
L 240.394467 -228.266457 
L 239.468021 -228.217165 
L 238.541574 -228.167395 
L 237.615127 -228.11714 
L 236.688681 -228.066393 
L 235.762234 -228.015147 
L 234.835787 -227.963395 
L 233.90934 -227.911129 
L 232.982894 -227.858342 
L 232.056447 -227.805024 
L 231.13 -227.75117 
L 230.203554 -227.696769 
L 229.277107 -227.641815 
L 228.35066 -227.586298 
L 227.424214 -227.53021 
L 226.497767 -227.473541 
L 225.57132 -227.416284 
L 224.644873 -227.358428 
L 223.718427 -227.299965 
L 222.79198 -227.240884 
L 221.865533 -227.181176 
L 220.939087 -227.114893 
L 220.01264 -227.034056 
L 219.086193 -226.951981 
L 218.159747 -226.869034 
L 217.2333 -226.785203 
L 216.306853 -226.693174 
L 215.380406 -226.593681 
L 214.45396 -226.493106 
L 213.527513 -226.39145 
L 212.601066 -226.288698 
L 211.67462 -226.184829 
L 210.748173 -226.079827 
L 209.821726 -225.973672 
L 208.89528 -225.884347 
L 207.968833 -225.801906 
L 207.042386 -225.718521 
L 206.115939 -225.634174 
L 205.189493 -225.548849 
L 204.263046 -225.45346 
L 203.336599 -225.350126 
L 202.410153 -225.245593 
L 201.483706 -225.139838 
L 200.557259 -225.032841 
L 199.630812 -224.924268 
L 198.704366 -224.814403 
L 197.777919 -224.703224 
L 196.851472 -224.590708 
L 195.925026 -224.47683 
L 194.998579 -224.361565 
L 194.072132 -224.244888 
L 193.145686 -224.126773 
L 192.219239 -224.007192 
L 191.292792 -223.886119 
L 190.366345 -223.766142 
L 189.439899 -223.668335 
L 188.513452 -223.569254 
L 187.587005 -223.468873 
L 186.660559 -223.367167 
L 185.734112 -223.26411 
L 184.807665 -223.159674 
L 183.881219 -223.034898 
L 182.954772 -222.905663 
L 182.028325 -222.774698 
L 181.101878 -222.641967 
L 180.175432 -222.507435 
L 179.248985 -222.371064 
L 178.322538 -222.232817 
L 177.396092 -222.092655 
L 176.469645 -221.94994 
L 175.543198 -221.803962 
L 174.616752 -221.65981 
L 173.690305 -221.526198 
L 172.763858 -221.388506 
L 171.837411 -221.256257 
L 170.910965 -221.118734 
L 169.984518 -220.979165 
L 169.058071 -220.815073 
L 168.131625 -220.649737 
L 167.205178 -220.498455 
L 166.278731 -220.344864 
L 165.352284 -220.18891 
L 164.425838 -220.030538 
L 163.499391 -219.869692 
L 162.572944 -219.706312 
L 161.646498 -219.540338 
L 160.720051 -219.371709 
L 159.793604 -219.20036 
L 158.867158 -219.026225 
L 157.940711 -218.849235 
L 157.014264 -218.669319 
L 156.087817 -218.485707 
L 155.161371 -218.298801 
L 154.234924 -218.108729 
L 153.308477 -217.910631 
L 152.382031 -217.68367 
L 151.455584 -217.471049 
L 150.529137 -217.296069 
L 149.602691 -217.1115 
L 148.676244 -216.902209 
L 147.749797 -216.689145 
L 146.82335 -216.472205 
L 145.896904 -216.341758 
L 144.970457 -216.181666 
L 144.04401 -215.982848 
L 143.117564 -215.768822 
L 142.191117 -215.538218 
L 141.26467 -215.313997 
L 140.338224 -215.132861 
L 139.411777 -214.842884 
L 138.48533 -214.569883 
L 137.558883 -214.36733 
L 136.632437 -214.162754 
L 135.70599 -213.913846 
L 134.779543 -213.610752 
L 133.853097 -213.301361 
L 132.92665 -212.984839 
L 132.000203 -212.675801 
L 131.073757 -212.381801 
L 130.14731 -212.081369 
L 129.220863 -211.774014 
L 128.294416 -211.463286 
L 127.36797 -211.224067 
L 126.441523 -210.998491 
L 125.515076 -210.779673 
L 124.58863 -210.47123 
L 123.662183 -210.197056 
L 122.735736 -209.838757 
L 121.809289 -209.471755 
L 120.882843 -209.118296 
L 119.956396 -208.79414 
L 119.029949 -208.460811 
L 118.103503 -208.118695 
L 117.177056 -207.76744 
L 116.250609 -207.406674 
L 115.324163 -207.050854 
L 114.397716 -206.706375 
L 113.471269 -206.273765 
L 112.544822 -205.860346 
L 111.618376 -205.445697 
L 110.691929 -205.010537 
L 109.765482 -204.540257 
L 108.839036 -204.042113 
L 107.912589 -203.556142 
L 106.986142 -203.040234 
L 106.059696 -202.50816 
L 105.133249 -201.973344 
L 104.206802 -201.41816 
L 103.280355 -200.861829 
L 102.353909 -200.397224 
L 101.427462 -199.713213 
L 100.501015 -199.220254 
L 99.574569 -198.717819 
L 98.648122 -198.04178 
L 97.721675 -197.263947 
L 96.795229 -196.507787 
L 95.868782 -195.877433 
L 94.942335 -195.192497 
L 94.015888 -194.428374 
L 93.089442 -193.61109 
L 92.162995 -192.764261 
L 91.236548 -191.87029 
L 90.310102 -191.005417 
L 89.383655 -190.158808 
L 88.457208 -189.649301 
L 87.530761 -188.912267 
L 86.604315 -187.949075 
L 85.677868 -186.944723 
L 84.751421 -186.015703 
L 83.824975 -185.01593 
L 82.898528 -183.704748 
L 81.972081 -182.490127 
L 81.045635 -181.369398 
L 80.119188 -180.260425 
L 79.192741 -178.767597 
L 78.266294 -177.184091 
L 77.339848 -175.632053 
L 76.413401 -174.078446 
L 75.486954 -172.339952 
L 74.560508 -170.597537 
L 73.634061 -168.722897 
L 72.707614 -166.942735 
L 71.781168 -164.876834 
L 70.854721 -162.596301 
L 69.928274 -159.956629 
L 69.001827 -156.985152 
L 68.075381 -153.776191 
L 67.148934 -150.307289 
L 66.222487 -146.278938 
L 65.296041 -141.684059 
L 64.369594 -136.475891 
L 63.443147 -130.872944 
L 62.516701 -123.897369 
L 61.590254 -115.219083 
L 60.663807 -104.81618 
L 59.73736 -91.505358 
L 58.810914 -74.111977 
L 57.884467 -50.836364 
z
" style="stroke: #ef553b; stroke-opacity: 0.3"/>
    </defs>
    <g clip-path="url(#pede365cd4d)">
     <use xlink:href="#m1a5a14c98a" x="0" y="252" style="fill: #ef553b; fill-opacity: 0.3; stroke: #ef553b; stroke-opacity: 0.3"/>
    </g>
   </g>
   <g id="line2d_13">
    <defs>
     <path id="mf4ea8942e0" d="M 0 2.5 
C 0.663008 2.5 1.29895 2.236584 1.767767 1.767767 
C 2.236584 1.29895 2.5 0.663008 2.5 0 
C 2.5 -0.663008 2.236584 -1.29895 1.767767 -1.767767 
C 1.29895 -2.236584 0.663008 -2.5 0 -2.5 
C -0.663008 -2.5 -1.29895 -2.236584 -1.767767 -1.767767 
C -2.236584 -1.29895 -2.5 -0.663008 -2.5 0 
C -2.5 0.663008 -2.236584 1.29895 -1.767767 1.767767 
C -1.29895 2.236584 -0.663008 2.5 0 2.5 
z
" style="stroke: #23612b"/>
    </defs>
    <g clip-path="url(#pede365cd4d)">
     <use xlink:href="#mf4ea8942e0" x="57.884467" y="197.369285" style="fill: #4fa15a; stroke: #23612b"/>
     <use xlink:href="#mf4ea8942e0" x="57.884467" y="196.862905" style="fill: #4fa15a; stroke: #23612b"/>
     <use xlink:href="#mf4ea8942e0" x="57.884467" y="197.166946" style="fill: #4fa15a; stroke: #23612b"/>
     <use xlink:href="#mf4ea8942e0" x="151.451552" y="56.959415" style="fill: #4fa15a; stroke: #23612b"/>
     <use xlink:href="#mf4ea8942e0" x="160.264148" y="30.820581" style="fill: #4fa15a; stroke: #23612b"/>
     <use xlink:href="#mf4ea8942e0" x="156.872159" y="49.083446" style="fill: #4fa15a; stroke: #23612b"/>
     <use xlink:href="#mf4ea8942e0" x="234.602088" y="40.649209" style="fill: #4fa15a; stroke: #23612b"/>
     <use xlink:href="#mf4ea8942e0" x="233.680648" y="58.824201" style="fill: #4fa15a; stroke: #23612b"/>
     <use xlink:href="#mf4ea8942e0" x="243.173807" y="37.056379" style="fill: #4fa15a; stroke: #23612b"/>
     <use xlink:href="#mf4ea8942e0" x="63.521714" y="66.069053" style="fill: #4fa15a; stroke: #23612b"/>
     <use xlink:href="#mf4ea8942e0" x="93.753051" y="40.488766" style="fill: #4fa15a; stroke: #23612b"/>
     <use xlink:href="#mf4ea8942e0" x="91.647917" y="58.212858" style="fill: #4fa15a; stroke: #23612b"/>
     <use xlink:href="#mf4ea8942e0" x="80.905306" y="79.631503" style="fill: #4fa15a; stroke: #23612b"/>
     <use xlink:href="#mf4ea8942e0" x="79.881674" y="88.6086" style="fill: #4fa15a; stroke: #23612b"/>
     <use xlink:href="#mf4ea8942e0" x="81.686284" y="85.658584" style="fill: #4fa15a; stroke: #23612b"/>
     <use xlink:href="#mf4ea8942e0" x="60.94587" y="166.116191" style="fill: #4fa15a; stroke: #23612b"/>
     <use xlink:href="#mf4ea8942e0" x="63.323919" y="135.328439" style="fill: #4fa15a; stroke: #23612b"/>
     <use xlink:href="#mf4ea8942e0" x="62.836612" y="134.188727" style="fill: #4fa15a; stroke: #23612b"/>
     <use xlink:href="#mf4ea8942e0" x="81.663472" y="99.954487" style="fill: #4fa15a; stroke: #23612b"/>
     <use xlink:href="#mf4ea8942e0" x="72.966457" y="140.895901" style="fill: #4fa15a; stroke: #23612b"/>
     <use xlink:href="#mf4ea8942e0" x="70.941661" y="150.113772" style="fill: #4fa15a; stroke: #23612b"/>
    </g>
   </g>
   <g id="line2d_14">
    <path d="M 57.884467 201.163636 
L 58.810914 185.82756 
L 59.73736 173.099163 
L 60.663807 162.365463 
L 61.590254 153.19164 
L 62.516701 145.260694 
L 64.369594 132.237663 
L 66.222487 121.991067 
L 68.075381 113.718554 
L 69.928274 106.899767 
L 71.781168 101.182462 
L 73.634061 96.319689 
L 75.486954 92.133189 
L 77.339848 88.491057 
L 79.192741 85.293599 
L 81.045635 82.464065 
L 82.898528 79.942404 
L 85.677868 76.635552 
L 88.457208 73.792687 
L 91.236548 71.322557 
L 94.015888 69.156366 
L 96.795229 67.241269 
L 100.501015 65.00835 
L 104.206802 63.074338 
L 107.912589 61.382978 
L 112.544822 59.545498 
L 117.177056 57.957126 
L 122.735736 56.313942 
L 128.294416 54.900676 
L 134.779543 53.482935 
L 142.191117 52.103862 
L 150.529137 50.792695 
L 159.793604 49.566969 
L 170.910965 48.341685 
L 182.954772 47.24353 
L 196.851472 46.198502 
L 213.527513 45.177268 
L 232.982894 44.219606 
L 242.247361 43.831295 
L 242.247361 43.831295 
" clip-path="url(#pede365cd4d)" style="fill: none; stroke: #ef553b; stroke-width: 1.5; stroke-linecap: round"/>
   </g>
   <g id="patch_3">
    <path d="M 48.62 210.04 
L 48.62 14.76 
" style="fill: none; stroke: #262626; stroke-width: 0.8; stroke-linejoin: miter; stroke-linecap: square"/>
   </g>
   <g id="patch_4">
    <path d="M 252.438275 210.04 
L 252.438275 14.76 
" style="fill: none; stroke: #262626; stroke-width: 0.8; stroke-linejoin: miter; stroke-linecap: square"/>
   </g>
   <g id="patch_5">
    <path d="M 48.62 210.04 
L 252.438275 210.04 
" style="fill: none; stroke: #262626; stroke-width: 0.8; stroke-linejoin: miter; stroke-linecap: square"/>
   </g>
   <g id="patch_6">
    <path d="M 48.62 14.76 
L 252.438275 14.76 
" style="fill: none; stroke: #262626; stroke-width: 0.8; stroke-linejoin: miter; stroke-linecap: square"/>
   </g>
   <g id="legend_1">
    <g id="line2d_15">
     <g>
      <use xlink:href="#mf4ea8942e0" x="153.752337" y="181.168125" style="fill: #4fa15a; stroke: #23612b"/>
     </g>
    </g>
    <g id="text_15">
     <!-- BtCrtI -->
     <g style="fill: #262626" transform="translate(171.752337 184.668125) scale(0.1 -0.1)">
      <defs>
       <path id="ArialMT-42" d="M 469 0 
L 469 4581 
L 2188 4581 
Q 2713 4581 3030 4442 
Q 3347 4303 3526 4014 
Q 3706 3725 3706 3409 
Q 3706 3116 3547 2856 
Q 3388 2597 3066 2438 
Q 3481 2316 3704 2022 
Q 3928 1728 3928 1328 
Q 3928 1006 3792 729 
Q 3656 453 3456 303 
Q 3256 153 2954 76 
Q 2653 0 2216 0 
L 469 0 
z
M 1075 2656 
L 2066 2656 
Q 2469 2656 2644 2709 
Q 2875 2778 2992 2937 
Q 3109 3097 3109 3338 
Q 3109 3566 3000 3739 
Q 2891 3913 2687 3977 
Q 2484 4041 1991 4041 
L 1075 4041 
L 1075 2656 
z
M 1075 541 
L 2216 541 
Q 2509 541 2628 563 
Q 2838 600 2978 687 
Q 3119 775 3209 942 
Q 3300 1109 3300 1328 
Q 3300 1584 3169 1773 
Q 3038 1963 2805 2039 
Q 2572 2116 2134 2116 
L 1075 2116 
L 1075 541 
z
" transform="scale(0.015625)"/>
       <path id="ArialMT-43" d="M 3763 1606 
L 4369 1453 
Q 4178 706 3683 314 
Q 3188 -78 2472 -78 
Q 1731 -78 1267 223 
Q 803 525 561 1097 
Q 319 1669 319 2325 
Q 319 3041 592 3573 
Q 866 4106 1370 4382 
Q 1875 4659 2481 4659 
Q 3169 4659 3637 4309 
Q 4106 3959 4291 3325 
L 3694 3184 
Q 3534 3684 3231 3912 
Q 2928 4141 2469 4141 
Q 1941 4141 1586 3887 
Q 1231 3634 1087 3207 
Q 944 2781 944 2328 
Q 944 1744 1114 1308 
Q 1284 872 1643 656 
Q 2003 441 2422 441 
Q 2931 441 3284 734 
Q 3638 1028 3763 1606 
z
" transform="scale(0.015625)"/>
       <path id="ArialMT-72" d="M 416 0 
L 416 3319 
L 922 3319 
L 922 2816 
Q 1116 3169 1280 3281 
Q 1444 3394 1641 3394 
Q 1925 3394 2219 3213 
L 2025 2691 
Q 1819 2813 1613 2813 
Q 1428 2813 1281 2702 
Q 1134 2591 1072 2394 
Q 978 2094 978 1738 
L 978 0 
L 416 0 
z
" transform="scale(0.015625)"/>
       <path id="ArialMT-49" d="M 597 0 
L 597 4581 
L 1203 4581 
L 1203 0 
L 597 0 
z
" transform="scale(0.015625)"/>
      </defs>
      <use xlink:href="#ArialMT-42"/>
      <use xlink:href="#ArialMT-74" x="66.699219"/>
      <use xlink:href="#ArialMT-43" x="94.482422"/>
      <use xlink:href="#ArialMT-72" x="166.699219"/>
      <use xlink:href="#ArialMT-74" x="200"/>
      <use xlink:href="#ArialMT-49" x="227.783203"/>
     </g>
    </g>
    <g id="line2d_16">
     <path d="M 143.752337 195.435313 
L 153.752337 195.435313 
L 163.752337 195.435313 
" style="fill: none; stroke: #ef553b; stroke-width: 1.5; stroke-linecap: round"/>
    </g>
    <g id="text_16">
     <!-- best fit (95% CI) -->
     <g style="fill: #262626" transform="translate(171.752337 198.935313) scale(0.1 -0.1)">
      <defs>
       <path id="ArialMT-62" d="M 941 0 
L 419 0 
L 419 4581 
L 981 4581 
L 981 2947 
Q 1338 3394 1891 3394 
Q 2197 3394 2470 3270 
Q 2744 3147 2920 2923 
Q 3097 2700 3197 2384 
Q 3297 2069 3297 1709 
Q 3297 856 2875 390 
Q 2453 -75 1863 -75 
Q 1275 -75 941 416 
L 941 0 
z
M 934 1684 
Q 934 1088 1097 822 
Q 1363 388 1816 388 
Q 2184 388 2453 708 
Q 2722 1028 2722 1663 
Q 2722 2313 2464 2622 
Q 2206 2931 1841 2931 
Q 1472 2931 1203 2611 
Q 934 2291 934 1684 
z
" transform="scale(0.015625)"/>
       <path id="ArialMT-73" d="M 197 991 
L 753 1078 
Q 800 744 1014 566 
Q 1228 388 1613 388 
Q 2000 388 2187 545 
Q 2375 703 2375 916 
Q 2375 1106 2209 1216 
Q 2094 1291 1634 1406 
Q 1016 1563 777 1677 
Q 538 1791 414 1992 
Q 291 2194 291 2438 
Q 291 2659 392 2848 
Q 494 3038 669 3163 
Q 800 3259 1026 3326 
Q 1253 3394 1513 3394 
Q 1903 3394 2198 3281 
Q 2494 3169 2634 2976 
Q 2775 2784 2828 2463 
L 2278 2388 
Q 2241 2644 2061 2787 
Q 1881 2931 1553 2931 
Q 1166 2931 1000 2803 
Q 834 2675 834 2503 
Q 834 2394 903 2306 
Q 972 2216 1119 2156 
Q 1203 2125 1616 2013 
Q 2213 1853 2448 1751 
Q 2684 1650 2818 1456 
Q 2953 1263 2953 975 
Q 2953 694 2789 445 
Q 2625 197 2315 61 
Q 2006 -75 1616 -75 
Q 969 -75 630 194 
Q 291 463 197 991 
z
" transform="scale(0.015625)"/>
       <path id="ArialMT-69" d="M 425 3934 
L 425 4581 
L 988 4581 
L 988 3934 
L 425 3934 
z
M 425 0 
L 425 3319 
L 988 3319 
L 988 0 
L 425 0 
z
" transform="scale(0.015625)"/>
       <path id="ArialMT-39" d="M 350 1059 
L 891 1109 
Q 959 728 1153 556 
Q 1347 384 1650 384 
Q 1909 384 2104 503 
Q 2300 622 2425 820 
Q 2550 1019 2634 1356 
Q 2719 1694 2719 2044 
Q 2719 2081 2716 2156 
Q 2547 1888 2255 1720 
Q 1963 1553 1622 1553 
Q 1053 1553 659 1965 
Q 266 2378 266 3053 
Q 266 3750 677 4175 
Q 1088 4600 1706 4600 
Q 2153 4600 2523 4359 
Q 2894 4119 3086 3673 
Q 3278 3228 3278 2384 
Q 3278 1506 3087 986 
Q 2897 466 2520 194 
Q 2144 -78 1638 -78 
Q 1100 -78 759 220 
Q 419 519 350 1059 
z
M 2653 3081 
Q 2653 3566 2395 3850 
Q 2138 4134 1775 4134 
Q 1400 4134 1122 3828 
Q 844 3522 844 3034 
Q 844 2597 1108 2323 
Q 1372 2050 1759 2050 
Q 2150 2050 2401 2323 
Q 2653 2597 2653 3081 
z
" transform="scale(0.015625)"/>
       <path id="ArialMT-25" d="M 372 3481 
Q 372 3972 619 4315 
Q 866 4659 1334 4659 
Q 1766 4659 2048 4351 
Q 2331 4044 2331 3447 
Q 2331 2866 2045 2552 
Q 1759 2238 1341 2238 
Q 925 2238 648 2547 
Q 372 2856 372 3481 
z
M 1350 4272 
Q 1141 4272 1002 4090 
Q 863 3909 863 3425 
Q 863 2984 1003 2804 
Q 1144 2625 1350 2625 
Q 1563 2625 1702 2806 
Q 1841 2988 1841 3469 
Q 1841 3913 1700 4092 
Q 1559 4272 1350 4272 
z
M 1353 -169 
L 3859 4659 
L 4316 4659 
L 1819 -169 
L 1353 -169 
z
M 3334 1075 
Q 3334 1569 3581 1911 
Q 3828 2253 4300 2253 
Q 4731 2253 5014 1945 
Q 5297 1638 5297 1041 
Q 5297 459 5011 145 
Q 4725 -169 4303 -169 
Q 3888 -169 3611 142 
Q 3334 453 3334 1075 
z
M 4316 1866 
Q 4103 1866 3964 1684 
Q 3825 1503 3825 1019 
Q 3825 581 3965 400 
Q 4106 219 4313 219 
Q 4528 219 4667 400 
Q 4806 581 4806 1063 
Q 4806 1506 4665 1686 
Q 4525 1866 4316 1866 
z
" transform="scale(0.015625)"/>
      </defs>
      <use xlink:href="#ArialMT-62"/>
      <use xlink:href="#ArialMT-65" x="55.615234"/>
      <use xlink:href="#ArialMT-73" x="111.230469"/>
      <use xlink:href="#ArialMT-74" x="161.230469"/>
      <use xlink:href="#ArialMT-20" x="189.013672"/>
      <use xlink:href="#ArialMT-66" x="216.796875"/>
      <use xlink:href="#ArialMT-69" x="244.580078"/>
      <use xlink:href="#ArialMT-74" x="266.796875"/>
      <use xlink:href="#ArialMT-20" x="294.580078"/>
      <use xlink:href="#ArialMT-28" x="322.363281"/>
      <use xlink:href="#ArialMT-39" x="355.664062"/>
      <use xlink:href="#ArialMT-35" x="411.279297"/>
      <use xlink:href="#ArialMT-25" x="466.894531"/>
      <use xlink:href="#ArialMT-20" x="555.810547"/>
      <use xlink:href="#ArialMT-43" x="583.59375"/>
      <use xlink:href="#ArialMT-49" x="655.810547"/>
      <use xlink:href="#ArialMT-29" x="683.59375"/>
     </g>
    </g>
   </g>
  </g>
  <g id="axes_2">
   <g id="patch_7">
    <path d="M 313.000863 210.04 
L 476.055482 210.04 
L 476.055482 14.76 
L 313.000863 14.76 
z
" style="fill: #ffffff"/>
   </g>
   <g id="matplotlib.axis_3">
    <g id="xtick_6">
     <g id="line2d_17">
      <g>
       <use xlink:href="#mfa566c1dbb" x="316.239119" y="210.04" style="fill: #262626; stroke: #262626; stroke-width: 0.8"/>
      </g>
     </g>
     <g id="text_17">
      <!-- 200 -->
      <g style="fill: #262626" transform="translate(307.897713 224.197812) scale(0.1 -0.1)">
       <use xlink:href="#ArialMT-32"/>
       <use xlink:href="#ArialMT-30" x="55.615234"/>
       <use xlink:href="#ArialMT-30" x="111.230469"/>
      </g>
     </g>
    </g>
    <g id="xtick_7">
     <g id="line2d_18">
      <g>
       <use xlink:href="#mfa566c1dbb" x="352.033218" y="210.04" style="fill: #262626; stroke: #262626; stroke-width: 0.8"/>
      </g>
     </g>
     <g id="text_18">
      <!-- 250 -->
      <g style="fill: #262626" transform="translate(343.691812 224.197812) scale(0.1 -0.1)">
       <use xlink:href="#ArialMT-32"/>
       <use xlink:href="#ArialMT-35" x="55.615234"/>
       <use xlink:href="#ArialMT-30" x="111.230469"/>
      </g>
     </g>
    </g>
    <g id="xtick_8">
     <g id="line2d_19">
      <g>
       <use xlink:href="#mfa566c1dbb" x="387.827318" y="210.04" style="fill: #262626; stroke: #262626; stroke-width: 0.8"/>
      </g>
     </g>
     <g id="text_19">
      <!-- 300 -->
      <g style="fill: #262626" transform="translate(379.485912 224.197812) scale(0.1 -0.1)">
       <use xlink:href="#ArialMT-33"/>
       <use xlink:href="#ArialMT-30" x="55.615234"/>
       <use xlink:href="#ArialMT-30" x="111.230469"/>
      </g>
     </g>
    </g>
    <g id="xtick_9">
     <g id="line2d_20">
      <g>
       <use xlink:href="#mfa566c1dbb" x="423.621417" y="210.04" style="fill: #262626; stroke: #262626; stroke-width: 0.8"/>
      </g>
     </g>
     <g id="text_20">
      <!-- 350 -->
      <g style="fill: #262626" transform="translate(415.280011 224.197812) scale(0.1 -0.1)">
       <use xlink:href="#ArialMT-33"/>
       <use xlink:href="#ArialMT-35" x="55.615234"/>
       <use xlink:href="#ArialMT-30" x="111.230469"/>
      </g>
     </g>
    </g>
    <g id="xtick_10">
     <g id="line2d_21">
      <g>
       <use xlink:href="#mfa566c1dbb" x="459.415517" y="210.04" style="fill: #262626; stroke: #262626; stroke-width: 0.8"/>
      </g>
     </g>
     <g id="text_21">
      <!-- 400 -->
      <g style="fill: #262626" transform="translate(451.074111 224.197812) scale(0.1 -0.1)">
       <use xlink:href="#ArialMT-34"/>
       <use xlink:href="#ArialMT-30" x="55.615234"/>
       <use xlink:href="#ArialMT-30" x="111.230469"/>
      </g>
     </g>
    </g>
    <g id="text_22">
     <!-- vmax -->
     <g style="fill: #262626" transform="translate(382.58286 237.343125) scale(0.1 -0.1)">
      <defs>
       <path id="ArialMT-76" d="M 1344 0 
L 81 3319 
L 675 3319 
L 1388 1331 
Q 1503 1009 1600 663 
Q 1675 925 1809 1294 
L 2547 3319 
L 3125 3319 
L 1869 0 
L 1344 0 
z
" transform="scale(0.015625)"/>
       <path id="ArialMT-6d" d="M 422 0 
L 422 3319 
L 925 3319 
L 925 2853 
Q 1081 3097 1340 3245 
Q 1600 3394 1931 3394 
Q 2300 3394 2536 3241 
Q 2772 3088 2869 2813 
Q 3263 3394 3894 3394 
Q 4388 3394 4653 3120 
Q 4919 2847 4919 2278 
L 4919 0 
L 4359 0 
L 4359 2091 
Q 4359 2428 4304 2576 
Q 4250 2725 4106 2815 
Q 3963 2906 3769 2906 
Q 3419 2906 3187 2673 
Q 2956 2441 2956 1928 
L 2956 0 
L 2394 0 
L 2394 2156 
Q 2394 2531 2256 2718 
Q 2119 2906 1806 2906 
Q 1569 2906 1367 2781 
Q 1166 2656 1075 2415 
Q 984 2175 984 1722 
L 984 0 
L 422 0 
z
" transform="scale(0.015625)"/>
       <path id="ArialMT-61" d="M 2588 409 
Q 2275 144 1986 34 
Q 1697 -75 1366 -75 
Q 819 -75 525 192 
Q 231 459 231 875 
Q 231 1119 342 1320 
Q 453 1522 633 1644 
Q 813 1766 1038 1828 
Q 1203 1872 1538 1913 
Q 2219 1994 2541 2106 
Q 2544 2222 2544 2253 
Q 2544 2597 2384 2738 
Q 2169 2928 1744 2928 
Q 1347 2928 1158 2789 
Q 969 2650 878 2297 
L 328 2372 
Q 403 2725 575 2942 
Q 747 3159 1072 3276 
Q 1397 3394 1825 3394 
Q 2250 3394 2515 3294 
Q 2781 3194 2906 3042 
Q 3031 2891 3081 2659 
Q 3109 2516 3109 2141 
L 3109 1391 
Q 3109 606 3145 398 
Q 3181 191 3288 0 
L 2700 0 
Q 2613 175 2588 409 
z
M 2541 1666 
Q 2234 1541 1622 1453 
Q 1275 1403 1131 1340 
Q 988 1278 909 1158 
Q 831 1038 831 891 
Q 831 666 1001 516 
Q 1172 366 1500 366 
Q 1825 366 2078 508 
Q 2331 650 2450 897 
Q 2541 1088 2541 1459 
L 2541 1666 
z
" transform="scale(0.015625)"/>
      </defs>
      <use xlink:href="#ArialMT-76"/>
      <use xlink:href="#ArialMT-6d" x="50"/>
      <use xlink:href="#ArialMT-61" x="133.300781"/>
      <use xlink:href="#ArialMT-78" x="188.916016"/>
     </g>
    </g>
   </g>
   <g id="matplotlib.axis_4">
    <g id="ytick_8">
     <g id="line2d_22">
      <g>
       <use xlink:href="#m2a4d66b2df" x="313.000863" y="206.151272" style="fill: #262626; stroke: #262626; stroke-width: 0.8"/>
      </g>
     </g>
     <g id="text_23">
      <!-- −20 -->
      <g style="fill: #262626" transform="translate(289.038363 209.730178) scale(0.1 -0.1)">
       <defs>
        <path id="ArialMT-2212" d="M 3381 1997 
L 356 1997 
L 356 2522 
L 3381 2522 
L 3381 1997 
z
" transform="scale(0.015625)"/>
       </defs>
       <use xlink:href="#ArialMT-2212"/>
       <use xlink:href="#ArialMT-32" x="58.398438"/>
       <use xlink:href="#ArialMT-30" x="114.013672"/>
      </g>
     </g>
    </g>
    <g id="ytick_9">
     <g id="line2d_23">
      <g>
       <use xlink:href="#m2a4d66b2df" x="313.000863" y="175.49722" style="fill: #262626; stroke: #262626; stroke-width: 0.8"/>
      </g>
     </g>
     <g id="text_24">
      <!-- 0 -->
      <g style="fill: #262626" transform="translate(300.439925 179.076126) scale(0.1 -0.1)">
       <use xlink:href="#ArialMT-30"/>
      </g>
     </g>
    </g>
    <g id="ytick_10">
     <g id="line2d_24">
      <g>
       <use xlink:href="#m2a4d66b2df" x="313.000863" y="144.843169" style="fill: #262626; stroke: #262626; stroke-width: 0.8"/>
      </g>
     </g>
     <g id="text_25">
      <!-- 20 -->
      <g style="fill: #262626" transform="translate(294.878988 148.422075) scale(0.1 -0.1)">
       <use xlink:href="#ArialMT-32"/>
       <use xlink:href="#ArialMT-30" x="55.615234"/>
      </g>
     </g>
    </g>
    <g id="ytick_11">
     <g id="line2d_25">
      <g>
       <use xlink:href="#m2a4d66b2df" x="313.000863" y="114.189117" style="fill: #262626; stroke: #262626; stroke-width: 0.8"/>
      </g>
     </g>
     <g id="text_26">
      <!-- 40 -->
      <g style="fill: #262626" transform="translate(294.878988 117.768023) scale(0.1 -0.1)">
       <use xlink:href="#ArialMT-34"/>
       <use xlink:href="#ArialMT-30" x="55.615234"/>
      </g>
     </g>
    </g>
    <g id="ytick_12">
     <g id="line2d_26">
      <g>
       <use xlink:href="#m2a4d66b2df" x="313.000863" y="83.535066" style="fill: #262626; stroke: #262626; stroke-width: 0.8"/>
      </g>
     </g>
     <g id="text_27">
      <!-- 60 -->
      <g style="fill: #262626" transform="translate(294.878988 87.113972) scale(0.1 -0.1)">
       <use xlink:href="#ArialMT-36"/>
       <use xlink:href="#ArialMT-30" x="55.615234"/>
      </g>
     </g>
    </g>
    <g id="ytick_13">
     <g id="line2d_27">
      <g>
       <use xlink:href="#m2a4d66b2df" x="313.000863" y="52.881014" style="fill: #262626; stroke: #262626; stroke-width: 0.8"/>
      </g>
     </g>
     <g id="text_28">
      <!-- 80 -->
      <g style="fill: #262626" transform="translate(294.878988 56.45992) scale(0.1 -0.1)">
       <use xlink:href="#ArialMT-38"/>
       <use xlink:href="#ArialMT-30" x="55.615234"/>
      </g>
     </g>
    </g>
    <g id="ytick_14">
     <g id="line2d_28">
      <g>
       <use xlink:href="#m2a4d66b2df" x="313.000863" y="22.226963" style="fill: #262626; stroke: #262626; stroke-width: 0.8"/>
      </g>
     </g>
     <g id="text_29">
      <!-- 100 -->
      <g style="fill: #262626" transform="translate(289.31805 25.805869) scale(0.1 -0.1)">
       <use xlink:href="#ArialMT-31"/>
       <use xlink:href="#ArialMT-30" x="55.615234"/>
       <use xlink:href="#ArialMT-30" x="111.230469"/>
      </g>
     </g>
    </g>
    <g id="text_30">
     <!-- km -->
     <g style="fill: #262626" transform="translate(283.050863 119.064844) rotate(-90) scale(0.1 -0.1)">
      <defs>
       <path id="ArialMT-6b" d="M 425 0 
L 425 4581 
L 988 4581 
L 988 1969 
L 2319 3319 
L 3047 3319 
L 1778 2088 
L 3175 0 
L 2481 0 
L 1384 1697 
L 988 1316 
L 988 0 
L 425 0 
z
" transform="scale(0.015625)"/>
      </defs>
      <use xlink:href="#ArialMT-6b"/>
      <use xlink:href="#ArialMT-6d" x="50"/>
     </g>
    </g>
   </g>
   <g id="QuadContourSet_1">
    <path d="M 396.191995 110.413055 
L 396.195554 110.407347 
L 396.191995 110.402497 
L 396.187091 110.407347 
z
" clip-path="url(#p9ccd411fe8)" style="fill: #130d25"/>
    <path d="M 392.86435 115.893871 
L 394.535639 114.392653 
L 396.191995 112.424458 
L 397.449742 110.407347 
L 396.191995 108.693327 
L 394.459098 110.407347 
L 392.86435 112.332769 
L 391.631307 114.392653 
z
M 396.187091 110.407347 
L 396.191995 110.402497 
L 396.195554 110.407347 
L 396.191995 110.413055 
z
" clip-path="url(#p9ccd411fe8)" style="fill: #381a40"/>
    <path d="M 392.86435 117.414339 
L 396.191995 114.419726 
L 396.214986 114.392653 
L 398.703929 110.407347 
L 399.51964 106.705716 
L 399.59765 106.422041 
L 399.51964 106.296857 
L 399.0817 106.422041 
L 396.191995 106.984157 
L 392.86435 110.29811 
L 392.780899 110.407347 
L 390.382453 114.392653 
z
M 391.631307 114.392653 
L 392.86435 112.332769 
L 394.459098 110.407347 
L 396.191995 108.693327 
L 397.449742 110.407347 
L 396.191995 112.424458 
L 394.535639 114.392653 
L 392.86435 115.893871 
z
" clip-path="url(#p9ccd411fe8)" style="fill: #611f53"/>
    <path d="M 389.536705 120.077875 
L 392.86435 118.815711 
L 393.350473 118.377959 
L 396.191995 115.680013 
L 397.285247 114.392653 
L 399.51964 110.979 
L 399.895205 110.407347 
L 401.162771 106.422041 
L 399.51964 103.785283 
L 396.191995 105.440369 
L 395.264265 106.422041 
L 392.86435 108.881466 
L 391.698665 110.407347 
L 389.536705 113.838291 
L 389.193725 114.392653 
L 388.076619 118.377959 
z
M 390.382453 114.392653 
L 392.780899 110.407347 
L 392.86435 110.29811 
L 396.191995 106.984157 
L 399.0817 106.422041 
L 399.51964 106.296857 
L 399.59765 106.422041 
L 399.51964 106.705716 
L 398.703929 110.407347 
L 396.214986 114.392653 
L 396.191995 114.419726 
L 392.86435 117.414339 
z
" clip-path="url(#p9ccd411fe8)" style="fill: #8b1d5b"/>
    <path d="M 389.536705 121.941159 
L 392.86435 120.01099 
L 394.677828 118.377959 
L 396.191995 116.9403 
L 398.355507 114.392653 
L 399.51964 112.614118 
L 400.969446 110.407347 
L 402.727891 106.422041 
L 402.847286 105.059277 
L 403.104925 102.436735 
L 402.847286 101.947604 
L 399.51964 101.635186 
L 398.503534 102.436735 
L 396.191995 103.977628 
L 393.881899 106.422041 
L 392.86435 107.464822 
L 390.616432 110.407347 
L 389.536705 112.12083 
L 388.131147 114.392653 
L 386.476216 118.377959 
z
M 388.076619 118.377959 
L 389.193725 114.392653 
L 389.536705 113.838291 
L 391.698665 110.407347 
L 392.86435 108.881466 
L 395.264265 106.422041 
L 396.191995 105.440369 
L 399.51964 103.785283 
L 401.162771 106.422041 
L 399.895205 110.407347 
L 399.51964 110.979 
L 397.285247 114.392653 
L 396.191995 115.680013 
L 393.350473 118.377959 
L 392.86435 118.815711 
L 389.536705 120.077875 
z
" clip-path="url(#p9ccd411fe8)" style="fill: #b71657"/>
    <path d="M 386.209059 123.877478 
L 389.536705 123.327647 
L 391.014685 122.363265 
L 392.86435 121.206269 
L 396.005184 118.377959 
L 396.191995 118.200587 
L 399.425768 114.392653 
L 399.51964 114.249236 
L 402.043687 110.407347 
L 402.847286 108.624061 
L 403.939103 106.422041 
L 404.859905 102.436735 
L 402.847286 98.615759 
L 399.51964 99.904228 
L 396.309233 102.436735 
L 396.191995 102.514887 
L 392.86435 106.037279 
L 392.558994 106.422041 
L 389.536705 110.403816 
L 389.534241 110.407347 
L 387.068568 114.392653 
L 386.209059 116.355961 
L 385.245286 118.377959 
L 384.765308 122.363265 
z
M 386.476216 118.377959 
L 388.131147 114.392653 
L 389.536705 112.12083 
L 390.616432 110.407347 
L 392.86435 107.464822 
L 393.881899 106.422041 
L 396.191995 103.977628 
L 398.503534 102.436735 
L 399.51964 101.635186 
L 402.847286 101.947604 
L 403.104925 102.436735 
L 402.847286 105.059277 
L 402.727891 106.422041 
L 400.969446 110.407347 
L 399.51964 112.614118 
L 398.355507 114.392653 
L 396.191995 116.9403 
L 394.677828 118.377959 
L 392.86435 120.01099 
L 389.536705 121.941159 
z
" clip-path="url(#p9ccd411fe8)" style="fill: #db2946"/>
    <path d="M 382.881414 122.411998 
L 386.209059 125.865045 
L 389.536705 124.574487 
L 392.86435 122.398881 
L 392.905675 122.363265 
L 396.191995 119.383276 
L 397.15399 118.377959 
L 399.51964 115.594434 
L 400.479159 114.392653 
L 402.847286 110.808405 
L 403.114911 110.407347 
L 405.121087 106.422041 
L 406.174931 103.311365 
L 406.501342 102.436735 
L 406.712859 98.451429 
L 406.174931 97.245236 
L 402.847286 96.44107 
L 399.51964 98.184966 
L 399.231414 98.451429 
L 396.191995 101.008428 
L 394.888342 102.436735 
L 392.86435 104.579335 
L 391.401935 106.422041 
L 389.536705 108.879427 
L 388.470472 110.407347 
L 386.209059 114.063931 
L 386.008331 114.392653 
L 384.088391 118.377959 
L 382.881414 122.340844 
L 382.873815 122.363265 
z
M 384.765308 122.363265 
L 385.245286 118.377959 
L 386.209059 116.355961 
L 387.068568 114.392653 
L 389.534241 110.407347 
L 389.536705 110.403816 
L 392.558994 106.422041 
L 392.86435 106.037279 
L 396.191995 102.514887 
L 396.309233 102.436735 
L 399.51964 99.904228 
L 402.847286 98.615759 
L 404.859905 102.436735 
L 403.939103 106.422041 
L 402.847286 108.624061 
L 402.043687 110.407347 
L 399.51964 114.249236 
L 399.425768 114.392653 
L 396.191995 118.200587 
L 396.005184 118.377959 
L 392.86435 121.206269 
L 391.014685 122.363265 
L 389.536705 123.327647 
L 386.209059 123.877478 
z
" clip-path="url(#p9ccd411fe8)" style="fill: #ef5840"/>
    <path d="M 382.881414 127.378832 
L 386.209059 127.326971 
L 388.343794 126.348571 
L 389.536705 125.821326 
L 392.86435 123.510889 
L 394.195923 122.363265 
L 396.191995 120.553256 
L 398.273552 118.377959 
L 399.51964 116.911758 
L 401.530929 114.392653 
L 402.847286 112.400298 
L 404.177177 110.407347 
L 406.174931 106.639254 
L 406.295919 106.422041 
L 407.803401 102.436735 
L 408.580404 98.451429 
L 407.465074 94.466122 
L 406.174931 93.600334 
L 402.847286 94.341559 
L 402.679311 94.466122 
L 399.51964 96.526796 
L 397.437805 98.451429 
L 396.191995 99.499502 
L 393.511105 102.436735 
L 392.86435 103.121391 
L 390.244877 106.422041 
L 389.536705 107.355037 
L 387.406702 110.407347 
L 386.209059 112.343872 
L 384.958008 114.392653 
L 382.931496 118.377959 
L 382.881414 118.542395 
L 381.586392 122.363265 
L 381.749077 126.348571 
z
M 382.873815 122.363265 
L 382.881414 122.340844 
L 384.088391 118.377959 
L 386.008331 114.392653 
L 386.209059 114.063931 
L 388.470472 110.407347 
L 389.536705 108.879427 
L 391.401935 106.422041 
L 392.86435 104.579335 
L 394.888342 102.436735 
L 396.191995 101.008428 
L 399.231414 98.451429 
L 399.51964 98.184966 
L 402.847286 96.44107 
L 406.174931 97.245236 
L 406.712859 98.451429 
L 406.501342 102.436735 
L 406.174931 103.311365 
L 405.121087 106.422041 
L 403.114911 110.407347 
L 402.847286 110.808405 
L 400.479159 114.392653 
L 399.51964 115.594434 
L 397.15399 118.377959 
L 396.191995 119.383276 
L 392.905675 122.363265 
L 392.86435 122.398881 
L 389.536705 124.574487 
L 386.209059 125.865045 
L 382.881414 122.411998 
z
" clip-path="url(#p9ccd411fe8)" style="fill: #f58860"/>
    <path d="M 382.881414 129.348048 
L 386.209059 128.619911 
L 389.536705 126.98059 
L 390.438776 126.348571 
L 392.86435 124.622897 
L 395.486172 122.363265 
L 396.191995 121.723235 
L 399.393113 118.377959 
L 399.51964 118.229082 
L 402.582699 114.392653 
L 402.847286 113.992192 
L 405.239443 110.407347 
L 406.174931 108.642863 
L 407.411933 106.422041 
L 409.105459 102.436735 
L 409.502576 100.938362 
L 410.215348 98.451429 
L 410.409347 94.466122 
L 409.502576 92.066492 
L 406.174931 91.026233 
L 402.847286 92.456131 
L 400.136807 94.466122 
L 399.51964 94.868626 
L 396.191995 97.971875 
L 395.768238 98.451429 
L 392.86435 101.630971 
L 392.22228 102.436735 
L 389.536705 105.828849 
L 389.106599 106.422041 
L 386.342933 110.407347 
L 386.209059 110.623814 
L 383.907686 114.392653 
L 382.881414 116.406318 
L 381.844726 118.377959 
L 380.298969 122.363265 
L 379.584755 126.348571 
z
M 381.749077 126.348571 
L 381.586392 122.363265 
L 382.881414 118.542395 
L 382.931496 118.377959 
L 384.958008 114.392653 
L 386.209059 112.343872 
L 387.406702 110.407347 
L 389.536705 107.355037 
L 390.244877 106.422041 
L 392.86435 103.121391 
L 393.511105 102.436735 
L 396.191995 99.499502 
L 397.437805 98.451429 
L 399.51964 96.526796 
L 402.679311 94.466122 
L 402.847286 94.341559 
L 406.174931 93.600334 
L 407.465074 94.466122 
L 408.580404 98.451429 
L 407.803401 102.436735 
L 406.295919 106.422041 
L 406.174931 106.639254 
L 404.177177 110.407347 
L 402.847286 112.400298 
L 401.530929 114.392653 
L 399.51964 116.911758 
L 398.273552 118.377959 
L 396.191995 120.553256 
L 394.195923 122.363265 
L 392.86435 123.510889 
L 389.536705 125.821326 
L 388.343794 126.348571 
L 386.209059 127.326971 
L 382.881414 127.378832 
z
" clip-path="url(#p9ccd411fe8)" style="fill: #f6b18b"/>
    <path d="M 379.553769 130.671407 
L 382.881414 130.983725 
L 384.895632 130.333878 
L 386.209059 129.912852 
L 389.536705 128.075686 
L 392.001792 126.348571 
L 392.86435 125.734904 
L 396.191995 122.860445 
L 396.710539 122.363265 
L 399.51964 119.436068 
L 400.470987 118.377959 
L 402.847286 115.398988 
L 403.631251 114.392653 
L 406.174931 110.594035 
L 406.301316 110.407347 
L 408.527946 106.422041 
L 409.502576 104.202839 
L 410.327197 102.436735 
L 411.623398 98.451429 
L 412.343527 94.466122 
L 411.787806 90.480816 
L 409.502576 88.340491 
L 406.174931 88.765203 
L 403.037101 90.480816 
L 402.847286 90.570704 
L 399.51964 93.195218 
L 398.253361 94.466122 
L 396.191995 96.401717 
L 394.380771 98.451429 
L 392.86435 100.111797 
L 391.011734 102.436735 
L 389.536705 104.299824 
L 387.99795 106.422041 
L 386.209059 109.006969 
L 385.282897 110.407347 
L 382.881414 114.352794 
L 382.85744 114.392653 
L 380.76113 118.377959 
L 379.553769 121.270062 
L 379.072002 122.363265 
L 378.141683 126.348571 
L 379.11396 130.333878 
z
M 379.584755 126.348571 
L 380.298969 122.363265 
L 381.844726 118.377959 
L 382.881414 116.406318 
L 383.907686 114.392653 
L 386.209059 110.623814 
L 386.342933 110.407347 
L 389.106599 106.422041 
L 389.536705 105.828849 
L 392.22228 102.436735 
L 392.86435 101.630971 
L 395.768238 98.451429 
L 396.191995 97.971875 
L 399.51964 94.868626 
L 400.136807 94.466122 
L 402.847286 92.456131 
L 406.174931 91.026233 
L 409.502576 92.066492 
L 410.409347 94.466122 
L 410.215348 98.451429 
L 409.502576 100.938362 
L 409.105459 102.436735 
L 407.411933 106.422041 
L 406.174931 108.642863 
L 405.239443 110.407347 
L 402.847286 113.992192 
L 402.582699 114.392653 
L 399.51964 118.229082 
L 399.393113 118.377959 
L 396.191995 121.723235 
L 395.486172 122.363265 
L 392.86435 124.622897 
L 390.438776 126.348571 
L 389.536705 126.98059 
L 386.209059 128.619911 
L 382.881414 129.348048 
z
" clip-path="url(#p9ccd411fe8)" style="fill: #f8d9c3"/>
   </g>
   <g id="patch_8">
    <path d="M 313.000863 210.04 
L 313.000863 14.76 
" style="fill: none; stroke: #262626; stroke-width: 0.8; stroke-linejoin: miter; stroke-linecap: square"/>
   </g>
   <g id="patch_9">
    <path d="M 476.055482 210.04 
L 476.055482 14.76 
" style="fill: none; stroke: #262626; stroke-width: 0.8; stroke-linejoin: miter; stroke-linecap: square"/>
   </g>
   <g id="patch_10">
    <path d="M 313.000863 210.04 
L 476.055482 210.04 
" style="fill: none; stroke: #262626; stroke-width: 0.8; stroke-linejoin: miter; stroke-linecap: square"/>
   </g>
   <g id="patch_11">
    <path d="M 313.000863 14.76 
L 476.055482 14.76 
" style="fill: none; stroke: #262626; stroke-width: 0.8; stroke-linejoin: miter; stroke-linecap: square"/>
   </g>
  </g>
  <g id="axes_3">
   <g id="patch_12">
    <path d="M 577.381725 210.04 
L 781.2 210.04 
L 781.2 14.76 
L 577.381725 14.76 
z
" style="fill: #ffffff"/>
   </g>
   <g id="matplotlib.axis_5">
    <g id="xtick_11">
     <g id="line2d_29">
      <g>
       <use xlink:href="#mfa566c1dbb" x="616.871115" y="210.04" style="fill: #262626; stroke: #262626; stroke-width: 0.8"/>
      </g>
     </g>
     <g id="text_31">
      <!-- −100 -->
      <g style="fill: #262626" transform="translate(605.609397 224.197812) scale(0.1 -0.1)">
       <use xlink:href="#ArialMT-2212"/>
       <use xlink:href="#ArialMT-31" x="58.398438"/>
       <use xlink:href="#ArialMT-30" x="114.013672"/>
       <use xlink:href="#ArialMT-30" x="169.628906"/>
      </g>
     </g>
    </g>
    <g id="xtick_12">
     <g id="line2d_30">
      <g>
       <use xlink:href="#mfa566c1dbb" x="667.342663" y="210.04" style="fill: #262626; stroke: #262626; stroke-width: 0.8"/>
      </g>
     </g>
     <g id="text_32">
      <!-- 0 -->
      <g style="fill: #262626" transform="translate(664.562194 224.197812) scale(0.1 -0.1)">
       <use xlink:href="#ArialMT-30"/>
      </g>
     </g>
    </g>
    <g id="xtick_13">
     <g id="line2d_31">
      <g>
       <use xlink:href="#mfa566c1dbb" x="717.81421" y="210.04" style="fill: #262626; stroke: #262626; stroke-width: 0.8"/>
      </g>
     </g>
     <g id="text_33">
      <!-- 100 -->
      <g style="fill: #262626" transform="translate(709.472804 224.197812) scale(0.1 -0.1)">
       <use xlink:href="#ArialMT-31"/>
       <use xlink:href="#ArialMT-30" x="55.615234"/>
       <use xlink:href="#ArialMT-30" x="111.230469"/>
      </g>
     </g>
    </g>
    <g id="xtick_14">
     <g id="line2d_32">
      <g>
       <use xlink:href="#mfa566c1dbb" x="768.285757" y="210.04" style="fill: #262626; stroke: #262626; stroke-width: 0.8"/>
      </g>
     </g>
     <g id="text_34">
      <!-- 200 -->
      <g style="fill: #262626" transform="translate(759.944351 224.197812) scale(0.1 -0.1)">
       <use xlink:href="#ArialMT-32"/>
       <use xlink:href="#ArialMT-30" x="55.615234"/>
       <use xlink:href="#ArialMT-30" x="111.230469"/>
      </g>
     </g>
    </g>
    <g id="text_35">
     <!-- residual -->
     <g style="fill: #262626" transform="translate(661.782269 237.343125) scale(0.1 -0.1)">
      <defs>
       <path id="ArialMT-64" d="M 2575 0 
L 2575 419 
Q 2259 -75 1647 -75 
Q 1250 -75 917 144 
Q 584 363 401 755 
Q 219 1147 219 1656 
Q 219 2153 384 2558 
Q 550 2963 881 3178 
Q 1213 3394 1622 3394 
Q 1922 3394 2156 3267 
Q 2391 3141 2538 2938 
L 2538 4581 
L 3097 4581 
L 3097 0 
L 2575 0 
z
M 797 1656 
Q 797 1019 1065 703 
Q 1334 388 1700 388 
Q 2069 388 2326 689 
Q 2584 991 2584 1609 
Q 2584 2291 2321 2609 
Q 2059 2928 1675 2928 
Q 1300 2928 1048 2622 
Q 797 2316 797 1656 
z
" transform="scale(0.015625)"/>
      </defs>
      <use xlink:href="#ArialMT-72"/>
      <use xlink:href="#ArialMT-65" x="33.300781"/>
      <use xlink:href="#ArialMT-73" x="88.916016"/>
      <use xlink:href="#ArialMT-69" x="138.916016"/>
      <use xlink:href="#ArialMT-64" x="161.132812"/>
      <use xlink:href="#ArialMT-75" x="216.748047"/>
      <use xlink:href="#ArialMT-61" x="272.363281"/>
      <use xlink:href="#ArialMT-6c" x="327.978516"/>
     </g>
    </g>
   </g>
   <g id="matplotlib.axis_6">
    <g id="ytick_15">
     <g id="line2d_33">
      <g>
       <use xlink:href="#m2a4d66b2df" x="577.381725" y="210.04" style="fill: #262626; stroke: #262626; stroke-width: 0.8"/>
      </g>
     </g>
     <g id="text_36">
      <!-- 0.000 -->
      <g style="fill: #262626" transform="translate(545.35985 213.618906) scale(0.1 -0.1)">
       <defs>
        <path id="ArialMT-2e" d="M 581 0 
L 581 641 
L 1222 641 
L 1222 0 
L 581 0 
z
" transform="scale(0.015625)"/>
       </defs>
       <use xlink:href="#ArialMT-30"/>
       <use xlink:href="#ArialMT-2e" x="55.615234"/>
       <use xlink:href="#ArialMT-30" x="83.398438"/>
       <use xlink:href="#ArialMT-30" x="139.013672"/>
       <use xlink:href="#ArialMT-30" x="194.628906"/>
      </g>
     </g>
    </g>
    <g id="ytick_16">
     <g id="line2d_34">
      <g>
       <use xlink:href="#m2a4d66b2df" x="577.381725" y="168.447514" style="fill: #262626; stroke: #262626; stroke-width: 0.8"/>
      </g>
     </g>
     <g id="text_37">
      <!-- 0.005 -->
      <g style="fill: #262626" transform="translate(545.35985 172.02642) scale(0.1 -0.1)">
       <use xlink:href="#ArialMT-30"/>
       <use xlink:href="#ArialMT-2e" x="55.615234"/>
       <use xlink:href="#ArialMT-30" x="83.398438"/>
       <use xlink:href="#ArialMT-30" x="139.013672"/>
       <use xlink:href="#ArialMT-35" x="194.628906"/>
      </g>
     </g>
    </g>
    <g id="ytick_17">
     <g id="line2d_35">
      <g>
       <use xlink:href="#m2a4d66b2df" x="577.381725" y="126.855027" style="fill: #262626; stroke: #262626; stroke-width: 0.8"/>
      </g>
     </g>
     <g id="text_38">
      <!-- 0.010 -->
      <g style="fill: #262626" transform="translate(545.35985 130.433934) scale(0.1 -0.1)">
       <use xlink:href="#ArialMT-30"/>
       <use xlink:href="#ArialMT-2e" x="55.615234"/>
       <use xlink:href="#ArialMT-30" x="83.398438"/>
       <use xlink:href="#ArialMT-31" x="139.013672"/>
       <use xlink:href="#ArialMT-30" x="194.628906"/>
      </g>
     </g>
    </g>
    <g id="ytick_18">
     <g id="line2d_36">
      <g>
       <use xlink:href="#m2a4d66b2df" x="577.381725" y="85.262541" style="fill: #262626; stroke: #262626; stroke-width: 0.8"/>
      </g>
     </g>
     <g id="text_39">
      <!-- 0.015 -->
      <g style="fill: #262626" transform="translate(545.35985 88.841447) scale(0.1 -0.1)">
       <use xlink:href="#ArialMT-30"/>
       <use xlink:href="#ArialMT-2e" x="55.615234"/>
       <use xlink:href="#ArialMT-30" x="83.398438"/>
       <use xlink:href="#ArialMT-31" x="139.013672"/>
       <use xlink:href="#ArialMT-35" x="194.628906"/>
      </g>
     </g>
    </g>
    <g id="ytick_19">
     <g id="line2d_37">
      <g>
       <use xlink:href="#m2a4d66b2df" x="577.381725" y="43.670055" style="fill: #262626; stroke: #262626; stroke-width: 0.8"/>
      </g>
     </g>
     <g id="text_40">
      <!-- 0.020 -->
      <g style="fill: #262626" transform="translate(545.35985 47.248961) scale(0.1 -0.1)">
       <use xlink:href="#ArialMT-30"/>
       <use xlink:href="#ArialMT-2e" x="55.615234"/>
       <use xlink:href="#ArialMT-30" x="83.398438"/>
       <use xlink:href="#ArialMT-32" x="139.013672"/>
       <use xlink:href="#ArialMT-30" x="194.628906"/>
      </g>
     </g>
    </g>
    <g id="text_41">
     <!-- Density -->
     <g style="fill: #262626" transform="translate(539.255163 129.071875) rotate(-90) scale(0.1 -0.1)">
      <defs>
       <path id="ArialMT-44" d="M 494 0 
L 494 4581 
L 2072 4581 
Q 2606 4581 2888 4516 
Q 3281 4425 3559 4188 
Q 3922 3881 4101 3404 
Q 4281 2928 4281 2316 
Q 4281 1794 4159 1391 
Q 4038 988 3847 723 
Q 3656 459 3429 307 
Q 3203 156 2883 78 
Q 2563 0 2147 0 
L 494 0 
z
M 1100 541 
L 2078 541 
Q 2531 541 2789 625 
Q 3047 709 3200 863 
Q 3416 1078 3536 1442 
Q 3656 1806 3656 2325 
Q 3656 3044 3420 3430 
Q 3184 3816 2847 3947 
Q 2603 4041 2063 4041 
L 1100 4041 
L 1100 541 
z
" transform="scale(0.015625)"/>
      </defs>
      <use xlink:href="#ArialMT-44"/>
      <use xlink:href="#ArialMT-65" x="72.216797"/>
      <use xlink:href="#ArialMT-6e" x="127.832031"/>
      <use xlink:href="#ArialMT-73" x="183.447266"/>
      <use xlink:href="#ArialMT-69" x="233.447266"/>
      <use xlink:href="#ArialMT-74" x="255.664062"/>
      <use xlink:href="#ArialMT-79" x="283.447266"/>
     </g>
    </g>
   </g>
   <g id="patch_13">
    <path d="M 623.391472 210.04 
L 631.991378 210.04 
L 631.991378 163.544762 
L 623.391472 163.544762 
z
" clip-path="url(#pe8c447f6f4)" style="fill: #23612b; fill-opacity: 0.5; stroke: #ffffff; stroke-width: 0.761726; stroke-linejoin: miter"/>
   </g>
   <g id="patch_14">
    <path d="M 631.991378 210.04 
L 640.591284 210.04 
L 640.591284 210.04 
L 631.991378 210.04 
z
" clip-path="url(#pe8c447f6f4)" style="fill: #23612b; fill-opacity: 0.5; stroke: #ffffff; stroke-width: 0.761726; stroke-linejoin: miter"/>
   </g>
   <g id="patch_15">
    <path d="M 640.591284 210.04 
L 649.191191 210.04 
L 649.191191 210.04 
L 640.591284 210.04 
z
" clip-path="url(#pe8c447f6f4)" style="fill: #23612b; fill-opacity: 0.5; stroke: #ffffff; stroke-width: 0.761726; stroke-linejoin: miter"/>
   </g>
   <g id="patch_16">
    <path d="M 649.191191 210.04 
L 657.791097 210.04 
L 657.791097 163.544762 
L 649.191191 163.544762 
z
" clip-path="url(#pe8c447f6f4)" style="fill: #23612b; fill-opacity: 0.5; stroke: #ffffff; stroke-width: 0.761726; stroke-linejoin: miter"/>
   </g>
   <g id="patch_17">
    <path d="M 657.791097 210.04 
L 666.391003 210.04 
L 666.391003 117.049524 
L 657.791097 117.049524 
z
" clip-path="url(#pe8c447f6f4)" style="fill: #23612b; fill-opacity: 0.5; stroke: #ffffff; stroke-width: 0.761726; stroke-linejoin: miter"/>
   </g>
   <g id="patch_18">
    <path d="M 666.391003 210.04 
L 674.99091 210.04 
L 674.99091 24.059048 
L 666.391003 24.059048 
z
" clip-path="url(#pe8c447f6f4)" style="fill: #23612b; fill-opacity: 0.5; stroke: #ffffff; stroke-width: 0.761726; stroke-linejoin: miter"/>
   </g>
   <g id="patch_19">
    <path d="M 674.99091 210.04 
L 683.590816 210.04 
L 683.590816 163.544762 
L 674.99091 163.544762 
z
" clip-path="url(#pe8c447f6f4)" style="fill: #23612b; fill-opacity: 0.5; stroke: #ffffff; stroke-width: 0.761726; stroke-linejoin: miter"/>
   </g>
   <g id="patch_20">
    <path d="M 683.590816 210.04 
L 692.190722 210.04 
L 692.190722 186.792381 
L 683.590816 186.792381 
z
" clip-path="url(#pe8c447f6f4)" style="fill: #23612b; fill-opacity: 0.5; stroke: #ffffff; stroke-width: 0.761726; stroke-linejoin: miter"/>
   </g>
   <g id="patch_21">
    <path d="M 692.190722 210.04 
L 700.790629 210.04 
L 700.790629 186.792381 
L 692.190722 186.792381 
z
" clip-path="url(#pe8c447f6f4)" style="fill: #23612b; fill-opacity: 0.5; stroke: #ffffff; stroke-width: 0.761726; stroke-linejoin: miter"/>
   </g>
   <g id="patch_22">
    <path d="M 700.790629 210.04 
L 709.390535 210.04 
L 709.390535 210.04 
L 700.790629 210.04 
z
" clip-path="url(#pe8c447f6f4)" style="fill: #23612b; fill-opacity: 0.5; stroke: #ffffff; stroke-width: 0.761726; stroke-linejoin: miter"/>
   </g>
   <g id="patch_23">
    <path d="M 709.390535 210.04 
L 717.990441 210.04 
L 717.990441 210.04 
L 709.390535 210.04 
z
" clip-path="url(#pe8c447f6f4)" style="fill: #23612b; fill-opacity: 0.5; stroke: #ffffff; stroke-width: 0.761726; stroke-linejoin: miter"/>
   </g>
   <g id="patch_24">
    <path d="M 717.990441 210.04 
L 726.590348 210.04 
L 726.590348 210.04 
L 717.990441 210.04 
z
" clip-path="url(#pe8c447f6f4)" style="fill: #23612b; fill-opacity: 0.5; stroke: #ffffff; stroke-width: 0.761726; stroke-linejoin: miter"/>
   </g>
   <g id="patch_25">
    <path d="M 726.590348 210.04 
L 735.190254 210.04 
L 735.190254 186.792381 
L 726.590348 186.792381 
z
" clip-path="url(#pe8c447f6f4)" style="fill: #23612b; fill-opacity: 0.5; stroke: #ffffff; stroke-width: 0.761726; stroke-linejoin: miter"/>
   </g>
   <g id="line2d_38">
    <path d="M 586.646193 209.937037 
L 591.301704 209.73058 
L 595.026112 209.366311 
L 597.819419 208.902247 
L 600.612726 208.213873 
L 603.406032 207.254024 
L 606.199339 205.998942 
L 608.992646 204.464811 
L 612.717054 202.109579 
L 618.303668 198.547719 
L 621.096974 197.075071 
L 623.890281 195.934696 
L 626.683588 195.10479 
L 632.270201 193.681688 
L 634.132405 192.954874 
L 635.99461 191.922126 
L 637.856814 190.474371 
L 639.719019 188.513166 
L 641.581223 185.95825 
L 643.443428 182.754095 
L 645.305632 178.875307 
L 647.167836 174.330883 
L 649.030041 169.167331 
L 651.823347 160.460115 
L 656.478859 144.628908 
L 659.272165 135.461153 
L 661.13437 129.986205 
L 662.996574 125.305796 
L 663.927676 123.334416 
L 664.858778 121.642564 
L 665.789881 120.251953 
L 666.720983 119.180895 
L 667.652085 118.443885 
L 668.583187 118.051252 
L 669.51429 118.008902 
L 670.445392 118.318157 
L 671.376494 118.975698 
L 672.307596 119.973619 
L 673.238698 121.299588 
L 674.169801 122.93712 
L 675.100903 124.86594 
L 676.963107 129.500198 
L 678.825312 134.983299 
L 681.618618 144.262159 
L 688.136334 166.731499 
L 690.92964 175.26663 
L 692.791845 180.339228 
L 694.654049 184.879864 
L 696.516254 188.88846 
L 698.378458 192.384497 
L 700.240663 195.399075 
L 702.102867 197.968372 
L 703.965071 200.128942 
L 705.827276 201.914896 
L 707.68948 203.356764 
L 709.551685 204.481653 
L 711.413889 205.314291 
L 713.276094 205.878541 
L 715.138298 206.199051 
L 717.000502 206.302771 
L 718.862707 206.220112 
L 721.656013 205.823321 
L 725.380422 204.996406 
L 730.035933 203.970051 
L 732.82924 203.593565 
L 735.622547 203.506521 
L 738.415853 203.738564 
L 741.20916 204.263862 
L 744.933569 205.292882 
L 754.244591 208.09821 
L 757.969 208.884732 
L 761.693409 209.413368 
L 765.417817 209.730123 
L 771.004431 209.949392 
L 771.935533 209.96766 
L 771.935533 209.96766 
" clip-path="url(#pe8c447f6f4)" style="fill: none; stroke: #23612b; stroke-width: 1.5; stroke-linecap: round"/>
   </g>
   <g id="patch_26">
    <path d="M 577.381725 210.04 
L 577.381725 14.76 
" style="fill: none; stroke: #262626; stroke-width: 0.8; stroke-linejoin: miter; stroke-linecap: square"/>
   </g>
   <g id="patch_27">
    <path d="M 781.2 210.04 
L 781.2 14.76 
" style="fill: none; stroke: #262626; stroke-width: 0.8; stroke-linejoin: miter; stroke-linecap: square"/>
   </g>
   <g id="patch_28">
    <path d="M 577.381725 210.04 
L 781.2 210.04 
" style="fill: none; stroke: #262626; stroke-width: 0.8; stroke-linejoin: miter; stroke-linecap: square"/>
   </g>
   <g id="patch_29">
    <path d="M 577.381725 14.76 
L 781.2 14.76 
" style="fill: none; stroke: #262626; stroke-width: 0.8; stroke-linejoin: miter; stroke-linecap: square"/>
   </g>
  </g>
  <g id="axes_4">
   <g id="patch_30">
    <path d="M 486.246396 210.04 
L 496.010396 210.04 
L 496.010396 14.76 
L 486.246396 14.76 
z
" style="fill: #ffffff"/>
   </g>
   <g id="matplotlib.axis_7"/>
   <g id="matplotlib.axis_8">
    <g id="ytick_20">
     <g id="line2d_39">
      <defs>
       <path id="mbd21b8e0f6" d="M 0 0 
L 3.5 0 
" style="stroke: #262626; stroke-width: 0.8"/>
      </defs>
      <g>
       <use xlink:href="#mbd21b8e0f6" x="496.010396" y="210.04" style="fill: #262626; stroke: #262626; stroke-width: 0.8"/>
      </g>
     </g>
     <g id="text_42">
      <!-- 0.0 -->
      <g style="fill: #262626" transform="translate(503.010396 213.618906) scale(0.1 -0.1)">
       <use xlink:href="#ArialMT-30"/>
       <use xlink:href="#ArialMT-2e" x="55.615234"/>
       <use xlink:href="#ArialMT-30" x="83.398438"/>
      </g>
     </g>
    </g>
    <g id="ytick_21">
     <g id="line2d_40">
      <g>
       <use xlink:href="#mbd21b8e0f6" x="496.010396" y="170.984" style="fill: #262626; stroke: #262626; stroke-width: 0.8"/>
      </g>
     </g>
     <g id="text_43">
      <!-- 0.2 -->
      <g style="fill: #262626" transform="translate(503.010396 174.562906) scale(0.1 -0.1)">
       <use xlink:href="#ArialMT-30"/>
       <use xlink:href="#ArialMT-2e" x="55.615234"/>
       <use xlink:href="#ArialMT-32" x="83.398438"/>
      </g>
     </g>
    </g>
    <g id="ytick_22">
     <g id="line2d_41">
      <g>
       <use xlink:href="#mbd21b8e0f6" x="496.010396" y="131.928" style="fill: #262626; stroke: #262626; stroke-width: 0.8"/>
      </g>
     </g>
     <g id="text_44">
      <!-- 0.4 -->
      <g style="fill: #262626" transform="translate(503.010396 135.506906) scale(0.1 -0.1)">
       <use xlink:href="#ArialMT-30"/>
       <use xlink:href="#ArialMT-2e" x="55.615234"/>
       <use xlink:href="#ArialMT-34" x="83.398438"/>
      </g>
     </g>
    </g>
    <g id="ytick_23">
     <g id="line2d_42">
      <g>
       <use xlink:href="#mbd21b8e0f6" x="496.010396" y="92.872" style="fill: #262626; stroke: #262626; stroke-width: 0.8"/>
      </g>
     </g>
     <g id="text_45">
      <!-- 0.6 -->
      <g style="fill: #262626" transform="translate(503.010396 96.450906) scale(0.1 -0.1)">
       <use xlink:href="#ArialMT-30"/>
       <use xlink:href="#ArialMT-2e" x="55.615234"/>
       <use xlink:href="#ArialMT-36" x="83.398438"/>
      </g>
     </g>
    </g>
    <g id="ytick_24">
     <g id="line2d_43">
      <g>
       <use xlink:href="#mbd21b8e0f6" x="496.010396" y="53.816" style="fill: #262626; stroke: #262626; stroke-width: 0.8"/>
      </g>
     </g>
     <g id="text_46">
      <!-- 0.8 -->
      <g style="fill: #262626" transform="translate(503.010396 57.394906) scale(0.1 -0.1)">
       <use xlink:href="#ArialMT-30"/>
       <use xlink:href="#ArialMT-2e" x="55.615234"/>
       <use xlink:href="#ArialMT-38" x="83.398438"/>
      </g>
     </g>
    </g>
    <g id="ytick_25">
     <g id="line2d_44">
      <g>
       <use xlink:href="#mbd21b8e0f6" x="496.010396" y="14.76" style="fill: #262626; stroke: #262626; stroke-width: 0.8"/>
      </g>
     </g>
     <g id="text_47">
      <!-- 1.0 -->
      <g style="fill: #262626" transform="translate(503.010396 18.338906) scale(0.1 -0.1)">
       <use xlink:href="#ArialMT-31"/>
       <use xlink:href="#ArialMT-2e" x="55.615234"/>
       <use xlink:href="#ArialMT-30" x="83.398438"/>
      </g>
     </g>
    </g>
   </g>
   <g id="QuadMesh_1">
    <path d="M 486.246396 210.04 
L 496.010396 210.04 
L 496.010396 190.512 
L 486.246396 190.512 
L 486.246396 210.04 
" clip-path="url(#p976af59b10)" style="fill: #130d25"/>
    <path d="M 486.246396 190.512 
L 496.010396 190.512 
L 496.010396 170.984 
L 486.246396 170.984 
L 486.246396 190.512 
" clip-path="url(#p976af59b10)" style="fill: #381a40"/>
    <path d="M 486.246396 170.984 
L 496.010396 170.984 
L 496.010396 151.456 
L 486.246396 151.456 
L 486.246396 170.984 
" clip-path="url(#p976af59b10)" style="fill: #611f53"/>
    <path d="M 486.246396 151.456 
L 496.010396 151.456 
L 496.010396 131.928 
L 486.246396 131.928 
L 486.246396 151.456 
" clip-path="url(#p976af59b10)" style="fill: #8b1d5b"/>
    <path d="M 486.246396 131.928 
L 496.010396 131.928 
L 496.010396 112.4 
L 486.246396 112.4 
L 486.246396 131.928 
" clip-path="url(#p976af59b10)" style="fill: #b71657"/>
    <path d="M 486.246396 112.4 
L 496.010396 112.4 
L 496.010396 92.872 
L 486.246396 92.872 
L 486.246396 112.4 
" clip-path="url(#p976af59b10)" style="fill: #db2946"/>
    <path d="M 486.246396 92.872 
L 496.010396 92.872 
L 496.010396 73.344 
L 486.246396 73.344 
L 486.246396 92.872 
" clip-path="url(#p976af59b10)" style="fill: #ef5840"/>
    <path d="M 486.246396 73.344 
L 496.010396 73.344 
L 496.010396 53.816 
L 486.246396 53.816 
L 486.246396 73.344 
" clip-path="url(#p976af59b10)" style="fill: #f58860"/>
    <path d="M 486.246396 53.816 
L 496.010396 53.816 
L 496.010396 34.288 
L 486.246396 34.288 
L 486.246396 53.816 
" clip-path="url(#p976af59b10)" style="fill: #f6b18b"/>
    <path d="M 486.246396 34.288 
L 496.010396 34.288 
L 496.010396 14.76 
L 486.246396 14.76 
L 486.246396 34.288 
" clip-path="url(#p976af59b10)" style="fill: #f8d9c3"/>
   </g>
   <g id="LineCollection_1"/>
   <g id="patch_31">
    <path d="M 486.246396 210.04 
L 491.128396 210.04 
L 496.010396 210.04 
L 496.010396 14.76 
L 491.128396 14.76 
L 486.246396 14.76 
L 486.246396 210.04 
z
" style="fill: none; stroke: #262626; stroke-width: 0.8; stroke-linejoin: miter; stroke-linecap: square"/>
   </g>
  </g>
 </g>
 <defs>
  <clipPath id="pede365cd4d">
   <rect x="48.62" y="14.76" width="203.818275" height="195.28"/>
  </clipPath>
  <clipPath id="p9ccd411fe8">
   <rect x="313.000863" y="14.76" width="163.05462" height="195.28"/>
  </clipPath>
  <clipPath id="pe8c447f6f4">
   <rect x="577.381725" y="14.76" width="203.818275" height="195.28"/>
  </clipPath>
  <clipPath id="p976af59b10">
   <rect x="486.246396" y="14.76" width="9.764" height="195.28"/>
  </clipPath>
 </defs>
</svg>
