<?xml version="1.0" encoding="utf-8" standalone="no"?>
<!DOCTYPE svg PUBLIC "-//W3C//DTD SVG 1.1//EN"
  "http://www.w3.org/Graphics/SVG/1.1/DTD/svg11.dtd">
<svg xmlns:xlink="http://www.w3.org/1999/xlink" width="648pt" height="252pt" viewBox="0 0 648 252" xmlns="http://www.w3.org/2000/svg" version="1.1">
 <metadata>
  <rdf:RDF xmlns:dc="http://purl.org/dc/elements/1.1/" xmlns:cc="http://creativecommons.org/ns#" xmlns:rdf="http://www.w3.org/1999/02/22-rdf-syntax-ns#">
   <cc:Work>
    <dc:type rdf:resource="http://purl.org/dc/dcmitype/StillImage"/>
    <dc:date>2023-12-04T23:11:34.325932</dc:date>
    <dc:format>image/svg+xml</dc:format>
    <dc:creator>
     <cc:Agent>
      <dc:title>Matplotlib v3.8.1, https://matplotlib.org/</dc:title>
     </cc:Agent>
    </dc:creator>
   </cc:Work>
  </rdf:RDF>
 </metadata>
 <defs>
  <style type="text/css">*{stroke-linejoin: round; stroke-linecap: butt}</style>
 </defs>
 <g id="figure_1">
  <g id="patch_1">
   <path d="M 0 252 
L 648 252 
L 648 0 
L 0 0 
z
" style="fill: #ffffff"/>
  </g>
  <g id="axes_1">
   <g id="patch_2">
    <path d="M 50.87 210.04 
L 321.75 210.04 
L 321.75 14.76 
L 50.87 14.76 
z
" style="fill: #ffffff"/>
   </g>
   <g id="PolyCollection_1">
    <defs>
     <path id="md23c032fe8" d="M 63.182727 -50.836364 
L 63.182727 -50.836364 
L 64.414 -62.179204 
L 65.645273 -72.232144 
L 66.876545 -81.17491 
L 68.107818 -89.1194 
L 69.339091 -96.264071 
L 70.570364 -102.736894 
L 71.801636 -108.533163 
L 73.032909 -113.822872 
L 74.264182 -118.826252 
L 75.495455 -123.504521 
L 76.726727 -127.844876 
L 77.958 -131.808989 
L 79.189273 -135.511085 
L 80.420545 -138.981042 
L 81.651818 -142.141237 
L 82.883091 -144.970607 
L 84.114364 -147.750986 
L 85.345636 -150.415173 
L 86.576909 -152.876726 
L 87.808182 -155.137036 
L 89.039455 -157.23844 
L 90.270727 -159.321565 
L 91.502 -161.280197 
L 92.733273 -163.065334 
L 93.964545 -164.759501 
L 95.195818 -166.327927 
L 96.427091 -167.913417 
L 97.658364 -169.367813 
L 98.889636 -170.717667 
L 100.120909 -171.993422 
L 101.352182 -173.175636 
L 102.583455 -174.319422 
L 103.814727 -175.410748 
L 105.046 -176.502355 
L 106.277273 -177.616506 
L 107.508545 -178.635594 
L 108.739818 -179.673845 
L 109.971091 -180.667289 
L 111.202364 -181.475892 
L 112.433636 -182.458534 
L 113.664909 -183.297734 
L 114.896182 -184.092868 
L 116.127455 -184.793101 
L 117.358727 -185.468498 
L 118.59 -186.069746 
L 119.821273 -186.743593 
L 121.052545 -187.458902 
L 122.283818 -188.12173 
L 123.515091 -188.653745 
L 124.746364 -189.185347 
L 125.977636 -189.733915 
L 127.208909 -190.248996 
L 128.440182 -190.688959 
L 129.671455 -191.132081 
L 130.902727 -191.661738 
L 132.134 -192.078674 
L 133.365273 -192.514461 
L 134.596545 -192.965206 
L 135.827818 -193.368192 
L 137.059091 -193.717712 
L 138.290364 -194.109536 
L 139.521636 -194.474277 
L 140.752909 -194.792742 
L 141.984182 -195.114311 
L 143.215455 -195.397164 
L 144.446727 -195.700824 
L 145.678 -195.996641 
L 146.909273 -196.310994 
L 148.140545 -196.582324 
L 149.371818 -196.846998 
L 150.603091 -197.117714 
L 151.834364 -197.395336 
L 153.065636 -197.666364 
L 154.296909 -197.931031 
L 155.528182 -198.189558 
L 156.759455 -198.44316 
L 157.990727 -198.6919 
L 159.222 -198.937754 
L 160.453273 -199.18168 
L 161.684545 -199.433459 
L 162.915818 -199.6977 
L 164.147091 -199.937285 
L 165.378364 -200.149223 
L 166.609636 -200.356697 
L 167.840909 -200.580001 
L 169.072182 -200.805183 
L 170.303455 -201.040942 
L 171.534727 -201.239448 
L 172.766 -201.448739 
L 173.997273 -201.643805 
L 175.228545 -201.818171 
L 176.459818 -201.990937 
L 177.691091 -202.160372 
L 178.922364 -202.325445 
L 180.153636 -202.491878 
L 181.384909 -202.651806 
L 182.616182 -202.792573 
L 183.847455 -202.918417 
L 185.078727 -203.049415 
L 186.31 -203.185299 
L 187.541273 -203.320196 
L 188.772545 -203.459015 
L 190.003818 -203.605534 
L 191.235091 -203.758434 
L 192.466364 -203.9199 
L 193.697636 -204.092282 
L 194.928909 -204.236291 
L 196.160182 -204.366215 
L 197.391455 -204.493968 
L 198.622727 -204.608949 
L 199.854 -204.711686 
L 201.085273 -204.82384 
L 202.316545 -204.946946 
L 203.547818 -205.068085 
L 204.779091 -205.187797 
L 206.010364 -205.288425 
L 207.241636 -205.38746 
L 208.472909 -205.503953 
L 209.704182 -205.624069 
L 210.935455 -205.743029 
L 212.166727 -205.860201 
L 213.398 -205.955611 
L 214.629273 -206.067532 
L 215.860545 -206.181405 
L 217.091818 -206.284709 
L 218.323091 -206.398107 
L 219.554364 -206.500977 
L 220.785636 -206.600222 
L 222.016909 -206.698053 
L 223.248182 -206.794498 
L 224.479455 -206.893608 
L 225.710727 -206.991998 
L 226.942 -207.078332 
L 228.173273 -207.161321 
L 229.404545 -207.239054 
L 230.635818 -207.31644 
L 231.867091 -207.393524 
L 233.098364 -207.469565 
L 234.329636 -207.544584 
L 235.560909 -207.618601 
L 236.792182 -207.691928 
L 238.023455 -207.767205 
L 239.254727 -207.844094 
L 240.486 -207.919989 
L 241.717273 -207.994909 
L 242.948545 -208.068872 
L 244.179818 -208.141898 
L 245.411091 -208.214003 
L 246.642364 -208.285205 
L 247.873636 -208.355521 
L 249.104909 -208.410924 
L 250.336182 -208.460398 
L 251.567455 -208.509428 
L 252.798727 -208.570298 
L 254.03 -208.637115 
L 255.261273 -208.703131 
L 256.492545 -208.768359 
L 257.723818 -208.832815 
L 258.955091 -208.896512 
L 260.186364 -208.959472 
L 261.417636 -209.022402 
L 262.648909 -209.077469 
L 263.880182 -209.129312 
L 265.111455 -209.19686 
L 266.342727 -209.263961 
L 267.574 -209.323664 
L 268.805273 -209.379634 
L 270.036545 -209.432846 
L 271.267818 -209.485463 
L 272.499091 -209.537496 
L 273.730364 -209.588953 
L 274.961636 -209.639845 
L 276.192909 -209.690271 
L 277.424182 -209.740269 
L 278.655455 -209.789728 
L 279.886727 -209.838654 
L 281.118 -209.887057 
L 282.349273 -209.934946 
L 283.580545 -209.982328 
L 284.811818 -210.029211 
L 286.043091 -210.075603 
L 287.274364 -210.121512 
L 288.505636 -210.166945 
L 289.736909 -210.21191 
L 290.968182 -210.256414 
L 292.199455 -210.300463 
L 293.430727 -210.344066 
L 294.662 -210.387228 
L 295.893273 -210.429957 
L 297.124545 -210.472258 
L 298.355818 -210.514138 
L 299.587091 -210.555859 
L 300.818364 -210.597224 
L 302.049636 -210.638184 
L 303.280909 -210.678745 
L 304.512182 -210.718911 
L 305.743455 -210.75869 
L 306.974727 -210.798087 
L 308.206 -210.837107 
L 308.206 -228.363636 
L 308.206 -228.363636 
L 306.974727 -228.305673 
L 305.743455 -228.24716 
L 304.512182 -228.188089 
L 303.280909 -228.128452 
L 302.049636 -228.068241 
L 300.818364 -228.007447 
L 299.587091 -227.946062 
L 298.355818 -227.884078 
L 297.124545 -227.821486 
L 295.893273 -227.758276 
L 294.662 -227.694439 
L 293.430727 -227.629967 
L 292.199455 -227.564849 
L 290.968182 -227.499076 
L 289.736909 -227.432638 
L 288.505636 -227.365524 
L 287.274364 -227.297725 
L 286.043091 -227.229229 
L 284.811818 -227.162346 
L 283.580545 -227.102915 
L 282.349273 -227.042858 
L 281.118 -226.982163 
L 279.886727 -226.920822 
L 278.655455 -226.855627 
L 277.424182 -226.779728 
L 276.192909 -226.702008 
L 274.961636 -226.623376 
L 273.730364 -226.542883 
L 272.499091 -226.456134 
L 271.267818 -226.368446 
L 270.036545 -226.279803 
L 268.805273 -226.190715 
L 267.574 -226.110346 
L 266.342727 -226.029077 
L 265.111455 -225.946716 
L 263.880182 -225.855285 
L 262.648909 -225.748551 
L 261.417636 -225.640623 
L 260.186364 -225.534072 
L 258.955091 -225.436267 
L 257.723818 -225.337233 
L 256.492545 -225.236971 
L 255.261273 -225.135146 
L 254.03 -225.03165 
L 252.798727 -224.926935 
L 251.567455 -224.820979 
L 250.336182 -224.713761 
L 249.104909 -224.605258 
L 247.873636 -224.495446 
L 246.642364 -224.384302 
L 245.411091 -224.2718 
L 244.179818 -224.157917 
L 242.948545 -224.042627 
L 241.717273 -223.926225 
L 240.486 -223.809055 
L 239.254727 -223.711021 
L 238.023455 -223.617004 
L 236.792182 -223.511724 
L 235.560909 -223.404392 
L 234.329636 -223.284992 
L 233.098364 -223.144327 
L 231.867091 -223.00944 
L 230.635818 -222.906083 
L 229.404545 -222.801321 
L 228.173273 -222.695127 
L 226.942 -222.586672 
L 225.710727 -222.437589 
L 224.479455 -222.279231 
L 223.248182 -222.118274 
L 222.016909 -221.98833 
L 220.785636 -221.87214 
L 219.554364 -221.754281 
L 218.323091 -221.634717 
L 217.091818 -221.513412 
L 215.860545 -221.390327 
L 214.629273 -221.265422 
L 213.398 -221.138657 
L 212.166727 -221.00999 
L 210.935455 -220.879377 
L 209.704182 -220.746775 
L 208.472909 -220.612138 
L 207.241636 -220.475418 
L 206.010364 -220.310298 
L 204.779091 -220.119334 
L 203.547818 -219.925461 
L 202.316545 -219.767785 
L 201.085273 -219.614104 
L 199.854 -219.457942 
L 198.622727 -219.299236 
L 197.391455 -219.132647 
L 196.160182 -218.952452 
L 194.928909 -218.769286 
L 193.697636 -218.583074 
L 192.466364 -218.402893 
L 191.235091 -218.224166 
L 190.003818 -218.042361 
L 188.772545 -217.857397 
L 187.541273 -217.666995 
L 186.31 -217.470539 
L 185.078727 -217.229854 
L 183.847455 -216.984974 
L 182.616182 -216.749409 
L 181.384909 -216.525848 
L 180.153636 -216.298202 
L 178.922364 -216.066357 
L 177.691091 -215.835556 
L 176.459818 -215.59315 
L 175.228545 -215.370391 
L 173.997273 -215.155191 
L 172.766 -214.904724 
L 171.534727 -214.625017 
L 170.303455 -214.379437 
L 169.072182 -214.151237 
L 167.840909 -213.859095 
L 166.609636 -213.557802 
L 165.378364 -213.263983 
L 164.147091 -212.958709 
L 162.915818 -212.65914 
L 161.684545 -212.376663 
L 160.453273 -212.086096 
L 159.222 -211.792665 
L 157.990727 -211.511751 
L 156.759455 -211.175338 
L 155.528182 -210.858685 
L 154.296909 -210.536833 
L 153.065636 -210.207509 
L 151.834364 -209.894383 
L 150.603091 -209.577438 
L 149.371818 -209.235625 
L 148.140545 -208.90248 
L 146.909273 -208.560998 
L 145.678 -208.210861 
L 144.446727 -207.850851 
L 143.215455 -207.482765 
L 141.984182 -207.089506 
L 140.752909 -206.693508 
L 139.521636 -206.259381 
L 138.290364 -205.801428 
L 137.059091 -205.338476 
L 135.827818 -204.869977 
L 134.596545 -204.43123 
L 133.365273 -204.000859 
L 132.134 -203.529462 
L 130.902727 -203.045149 
L 129.671455 -202.505421 
L 128.440182 -201.914125 
L 127.208909 -201.34545 
L 125.977636 -200.778652 
L 124.746364 -200.190048 
L 123.515091 -199.571311 
L 122.283818 -198.93021 
L 121.052545 -198.339796 
L 119.821273 -197.647534 
L 118.59 -196.959622 
L 117.358727 -196.26963 
L 116.127455 -195.533423 
L 114.896182 -194.838785 
L 113.664909 -194.068811 
L 112.433636 -193.246755 
L 111.202364 -192.345478 
L 109.971091 -191.579499 
L 108.739818 -190.645292 
L 107.508545 -189.76371 
L 106.277273 -188.855453 
L 105.046 -187.860009 
L 103.814727 -186.831356 
L 102.583455 -185.764953 
L 101.352182 -184.722853 
L 100.120909 -183.592589 
L 98.889636 -182.306862 
L 97.658364 -180.958688 
L 96.427091 -179.630364 
L 95.195818 -178.198937 
L 93.964545 -176.675421 
L 92.733273 -175.138903 
L 91.502 -173.543264 
L 90.270727 -171.703449 
L 89.039455 -169.86131 
L 87.808182 -167.918798 
L 86.576909 -165.944943 
L 85.345636 -163.694877 
L 84.114364 -161.407161 
L 82.883091 -158.995428 
L 81.651818 -156.295554 
L 80.420545 -153.362874 
L 79.189273 -150.183254 
L 77.958 -146.723758 
L 76.726727 -142.859192 
L 75.495455 -138.77169 
L 74.264182 -134.20946 
L 73.032909 -129.212172 
L 71.801636 -123.585217 
L 70.570364 -117.113807 
L 69.339091 -109.893785 
L 68.107818 -101.64746 
L 66.876545 -91.979508 
L 65.645273 -80.65748 
L 64.414 -67.169683 
L 63.182727 -50.836364 
z
" style="stroke: #ef553b; stroke-opacity: 0.3"/>
    </defs>
    <g clip-path="url(#p8fca929c8f)">
     <use xlink:href="#md23c032fe8" x="0" y="252" style="fill: #ef553b; fill-opacity: 0.3; stroke: #ef553b; stroke-opacity: 0.3"/>
    </g>
   </g>
   <g id="matplotlib.axis_1">
    <g id="xtick_1">
     <g id="line2d_1">
      <defs>
       <path id="m6d00bbe774" d="M 0 0 
L 0 3.5 
" style="stroke: #000000; stroke-width: 0.8"/>
      </defs>
      <g>
       <use xlink:href="#m6d00bbe774" x="63.182727" y="210.04" style="stroke: #000000; stroke-width: 0.8"/>
      </g>
     </g>
     <g id="text_1">
      <!-- 0 -->
      <g transform="translate(60.001477 224.638438) scale(0.1 -0.1)">
       <defs>
        <path id="DejaVuSans-30" d="M 2034 4250 
Q 1547 4250 1301 3770 
Q 1056 3291 1056 2328 
Q 1056 1369 1301 889 
Q 1547 409 2034 409 
Q 2525 409 2770 889 
Q 3016 1369 3016 2328 
Q 3016 3291 2770 3770 
Q 2525 4250 2034 4250 
z
M 2034 4750 
Q 2819 4750 3233 4129 
Q 3647 3509 3647 2328 
Q 3647 1150 3233 529 
Q 2819 -91 2034 -91 
Q 1250 -91 836 529 
Q 422 1150 422 2328 
Q 422 3509 836 4129 
Q 1250 4750 2034 4750 
z
" transform="scale(0.015625)"/>
       </defs>
       <use xlink:href="#DejaVuSans-30"/>
      </g>
     </g>
    </g>
    <g id="xtick_2">
     <g id="line2d_2">
      <g>
       <use xlink:href="#m6d00bbe774" x="108.345645" y="210.04" style="stroke: #000000; stroke-width: 0.8"/>
      </g>
     </g>
     <g id="text_2">
      <!-- 50 -->
      <g transform="translate(101.983145 224.638438) scale(0.1 -0.1)">
       <defs>
        <path id="DejaVuSans-35" d="M 691 4666 
L 3169 4666 
L 3169 4134 
L 1269 4134 
L 1269 2991 
Q 1406 3038 1543 3061 
Q 1681 3084 1819 3084 
Q 2600 3084 3056 2656 
Q 3513 2228 3513 1497 
Q 3513 744 3044 326 
Q 2575 -91 1722 -91 
Q 1428 -91 1123 -41 
Q 819 9 494 109 
L 494 744 
Q 775 591 1075 516 
Q 1375 441 1709 441 
Q 2250 441 2565 725 
Q 2881 1009 2881 1497 
Q 2881 1984 2565 2268 
Q 2250 2553 1709 2553 
Q 1456 2553 1204 2497 
Q 953 2441 691 2322 
L 691 4666 
z
" transform="scale(0.015625)"/>
       </defs>
       <use xlink:href="#DejaVuSans-35"/>
       <use xlink:href="#DejaVuSans-30" x="63.623047"/>
      </g>
     </g>
    </g>
    <g id="xtick_3">
     <g id="line2d_3">
      <g>
       <use xlink:href="#m6d00bbe774" x="153.508563" y="210.04" style="stroke: #000000; stroke-width: 0.8"/>
      </g>
     </g>
     <g id="text_3">
      <!-- 100 -->
      <g transform="translate(143.964813 224.638438) scale(0.1 -0.1)">
       <defs>
        <path id="DejaVuSans-31" d="M 794 531 
L 1825 531 
L 1825 4091 
L 703 3866 
L 703 4441 
L 1819 4666 
L 2450 4666 
L 2450 531 
L 3481 531 
L 3481 0 
L 794 0 
L 794 531 
z
" transform="scale(0.015625)"/>
       </defs>
       <use xlink:href="#DejaVuSans-31"/>
       <use xlink:href="#DejaVuSans-30" x="63.623047"/>
       <use xlink:href="#DejaVuSans-30" x="127.246094"/>
      </g>
     </g>
    </g>
    <g id="xtick_4">
     <g id="line2d_4">
      <g>
       <use xlink:href="#m6d00bbe774" x="198.671481" y="210.04" style="stroke: #000000; stroke-width: 0.8"/>
      </g>
     </g>
     <g id="text_4">
      <!-- 150 -->
      <g transform="translate(189.127731 224.638438) scale(0.1 -0.1)">
       <use xlink:href="#DejaVuSans-31"/>
       <use xlink:href="#DejaVuSans-35" x="63.623047"/>
       <use xlink:href="#DejaVuSans-30" x="127.246094"/>
      </g>
     </g>
    </g>
    <g id="xtick_5">
     <g id="line2d_5">
      <g>
       <use xlink:href="#m6d00bbe774" x="243.834399" y="210.04" style="stroke: #000000; stroke-width: 0.8"/>
      </g>
     </g>
     <g id="text_5">
      <!-- 200 -->
      <g transform="translate(234.290649 224.638438) scale(0.1 -0.1)">
       <defs>
        <path id="DejaVuSans-32" d="M 1228 531 
L 3431 531 
L 3431 0 
L 469 0 
L 469 531 
Q 828 903 1448 1529 
Q 2069 2156 2228 2338 
Q 2531 2678 2651 2914 
Q 2772 3150 2772 3378 
Q 2772 3750 2511 3984 
Q 2250 4219 1831 4219 
Q 1534 4219 1204 4116 
Q 875 4013 500 3803 
L 500 4441 
Q 881 4594 1212 4672 
Q 1544 4750 1819 4750 
Q 2544 4750 2975 4387 
Q 3406 4025 3406 3419 
Q 3406 3131 3298 2873 
Q 3191 2616 2906 2266 
Q 2828 2175 2409 1742 
Q 1991 1309 1228 531 
z
" transform="scale(0.015625)"/>
       </defs>
       <use xlink:href="#DejaVuSans-32"/>
       <use xlink:href="#DejaVuSans-30" x="63.623047"/>
       <use xlink:href="#DejaVuSans-30" x="127.246094"/>
      </g>
     </g>
    </g>
    <g id="xtick_6">
     <g id="line2d_6">
      <g>
       <use xlink:href="#m6d00bbe774" x="288.997317" y="210.04" style="stroke: #000000; stroke-width: 0.8"/>
      </g>
     </g>
     <g id="text_6">
      <!-- 250 -->
      <g transform="translate(279.453567 224.638438) scale(0.1 -0.1)">
       <use xlink:href="#DejaVuSans-32"/>
       <use xlink:href="#DejaVuSans-35" x="63.623047"/>
       <use xlink:href="#DejaVuSans-30" x="127.246094"/>
      </g>
     </g>
    </g>
    <g id="text_7">
     <!-- concentration -->
     <g transform="translate(151.681094 238.316563) scale(0.1 -0.1)">
      <defs>
       <path id="DejaVuSans-63" d="M 3122 3366 
L 3122 2828 
Q 2878 2963 2633 3030 
Q 2388 3097 2138 3097 
Q 1578 3097 1268 2742 
Q 959 2388 959 1747 
Q 959 1106 1268 751 
Q 1578 397 2138 397 
Q 2388 397 2633 464 
Q 2878 531 3122 666 
L 3122 134 
Q 2881 22 2623 -34 
Q 2366 -91 2075 -91 
Q 1284 -91 818 406 
Q 353 903 353 1747 
Q 353 2603 823 3093 
Q 1294 3584 2113 3584 
Q 2378 3584 2631 3529 
Q 2884 3475 3122 3366 
z
" transform="scale(0.015625)"/>
       <path id="DejaVuSans-6f" d="M 1959 3097 
Q 1497 3097 1228 2736 
Q 959 2375 959 1747 
Q 959 1119 1226 758 
Q 1494 397 1959 397 
Q 2419 397 2687 759 
Q 2956 1122 2956 1747 
Q 2956 2369 2687 2733 
Q 2419 3097 1959 3097 
z
M 1959 3584 
Q 2709 3584 3137 3096 
Q 3566 2609 3566 1747 
Q 3566 888 3137 398 
Q 2709 -91 1959 -91 
Q 1206 -91 779 398 
Q 353 888 353 1747 
Q 353 2609 779 3096 
Q 1206 3584 1959 3584 
z
" transform="scale(0.015625)"/>
       <path id="DejaVuSans-6e" d="M 3513 2113 
L 3513 0 
L 2938 0 
L 2938 2094 
Q 2938 2591 2744 2837 
Q 2550 3084 2163 3084 
Q 1697 3084 1428 2787 
Q 1159 2491 1159 1978 
L 1159 0 
L 581 0 
L 581 3500 
L 1159 3500 
L 1159 2956 
Q 1366 3272 1645 3428 
Q 1925 3584 2291 3584 
Q 2894 3584 3203 3211 
Q 3513 2838 3513 2113 
z
" transform="scale(0.015625)"/>
       <path id="DejaVuSans-65" d="M 3597 1894 
L 3597 1613 
L 953 1613 
Q 991 1019 1311 708 
Q 1631 397 2203 397 
Q 2534 397 2845 478 
Q 3156 559 3463 722 
L 3463 178 
Q 3153 47 2828 -22 
Q 2503 -91 2169 -91 
Q 1331 -91 842 396 
Q 353 884 353 1716 
Q 353 2575 817 3079 
Q 1281 3584 2069 3584 
Q 2775 3584 3186 3129 
Q 3597 2675 3597 1894 
z
M 3022 2063 
Q 3016 2534 2758 2815 
Q 2500 3097 2075 3097 
Q 1594 3097 1305 2825 
Q 1016 2553 972 2059 
L 3022 2063 
z
" transform="scale(0.015625)"/>
       <path id="DejaVuSans-74" d="M 1172 4494 
L 1172 3500 
L 2356 3500 
L 2356 3053 
L 1172 3053 
L 1172 1153 
Q 1172 725 1289 603 
Q 1406 481 1766 481 
L 2356 481 
L 2356 0 
L 1766 0 
Q 1100 0 847 248 
Q 594 497 594 1153 
L 594 3053 
L 172 3053 
L 172 3500 
L 594 3500 
L 594 4494 
L 1172 4494 
z
" transform="scale(0.015625)"/>
       <path id="DejaVuSans-72" d="M 2631 2963 
Q 2534 3019 2420 3045 
Q 2306 3072 2169 3072 
Q 1681 3072 1420 2755 
Q 1159 2438 1159 1844 
L 1159 0 
L 581 0 
L 581 3500 
L 1159 3500 
L 1159 2956 
Q 1341 3275 1631 3429 
Q 1922 3584 2338 3584 
Q 2397 3584 2469 3576 
Q 2541 3569 2628 3553 
L 2631 2963 
z
" transform="scale(0.015625)"/>
       <path id="DejaVuSans-61" d="M 2194 1759 
Q 1497 1759 1228 1600 
Q 959 1441 959 1056 
Q 959 750 1161 570 
Q 1363 391 1709 391 
Q 2188 391 2477 730 
Q 2766 1069 2766 1631 
L 2766 1759 
L 2194 1759 
z
M 3341 1997 
L 3341 0 
L 2766 0 
L 2766 531 
Q 2569 213 2275 61 
Q 1981 -91 1556 -91 
Q 1019 -91 701 211 
Q 384 513 384 1019 
Q 384 1609 779 1909 
Q 1175 2209 1959 2209 
L 2766 2209 
L 2766 2266 
Q 2766 2663 2505 2880 
Q 2244 3097 1772 3097 
Q 1472 3097 1187 3025 
Q 903 2953 641 2809 
L 641 3341 
Q 956 3463 1253 3523 
Q 1550 3584 1831 3584 
Q 2591 3584 2966 3190 
Q 3341 2797 3341 1997 
z
" transform="scale(0.015625)"/>
       <path id="DejaVuSans-69" d="M 603 3500 
L 1178 3500 
L 1178 0 
L 603 0 
L 603 3500 
z
M 603 4863 
L 1178 4863 
L 1178 4134 
L 603 4134 
L 603 4863 
z
" transform="scale(0.015625)"/>
      </defs>
      <use xlink:href="#DejaVuSans-63"/>
      <use xlink:href="#DejaVuSans-6f" x="54.980469"/>
      <use xlink:href="#DejaVuSans-6e" x="116.162109"/>
      <use xlink:href="#DejaVuSans-63" x="179.541016"/>
      <use xlink:href="#DejaVuSans-65" x="234.521484"/>
      <use xlink:href="#DejaVuSans-6e" x="296.044922"/>
      <use xlink:href="#DejaVuSans-74" x="359.423828"/>
      <use xlink:href="#DejaVuSans-72" x="398.632812"/>
      <use xlink:href="#DejaVuSans-61" x="439.746094"/>
      <use xlink:href="#DejaVuSans-74" x="501.025391"/>
      <use xlink:href="#DejaVuSans-69" x="540.234375"/>
      <use xlink:href="#DejaVuSans-6f" x="568.017578"/>
      <use xlink:href="#DejaVuSans-6e" x="629.199219"/>
     </g>
    </g>
   </g>
   <g id="matplotlib.axis_2">
    <g id="ytick_1">
     <g id="line2d_7">
      <defs>
       <path id="m2c61592f38" d="M 0 0 
L -3.5 0 
" style="stroke: #000000; stroke-width: 0.8"/>
      </defs>
      <g>
       <use xlink:href="#m2c61592f38" x="50.87" y="201.163636" style="stroke: #000000; stroke-width: 0.8"/>
      </g>
     </g>
     <g id="text_8">
      <!-- 0 -->
      <g transform="translate(37.5075 204.962855) scale(0.1 -0.1)">
       <use xlink:href="#DejaVuSans-30"/>
      </g>
     </g>
    </g>
    <g id="ytick_2">
     <g id="line2d_8">
      <g>
       <use xlink:href="#m2c61592f38" x="50.87" y="177.699835" style="stroke: #000000; stroke-width: 0.8"/>
      </g>
     </g>
     <g id="text_9">
      <!-- 25 -->
      <g transform="translate(31.145 181.499054) scale(0.1 -0.1)">
       <use xlink:href="#DejaVuSans-32"/>
       <use xlink:href="#DejaVuSans-35" x="63.623047"/>
      </g>
     </g>
    </g>
    <g id="ytick_3">
     <g id="line2d_9">
      <g>
       <use xlink:href="#m2c61592f38" x="50.87" y="154.236034" style="stroke: #000000; stroke-width: 0.8"/>
      </g>
     </g>
     <g id="text_10">
      <!-- 50 -->
      <g transform="translate(31.145 158.035253) scale(0.1 -0.1)">
       <use xlink:href="#DejaVuSans-35"/>
       <use xlink:href="#DejaVuSans-30" x="63.623047"/>
      </g>
     </g>
    </g>
    <g id="ytick_4">
     <g id="line2d_10">
      <g>
       <use xlink:href="#m2c61592f38" x="50.87" y="130.772233" style="stroke: #000000; stroke-width: 0.8"/>
      </g>
     </g>
     <g id="text_11">
      <!-- 75 -->
      <g transform="translate(31.145 134.571452) scale(0.1 -0.1)">
       <defs>
        <path id="DejaVuSans-37" d="M 525 4666 
L 3525 4666 
L 3525 4397 
L 1831 0 
L 1172 0 
L 2766 4134 
L 525 4134 
L 525 4666 
z
" transform="scale(0.015625)"/>
       </defs>
       <use xlink:href="#DejaVuSans-37"/>
       <use xlink:href="#DejaVuSans-35" x="63.623047"/>
      </g>
     </g>
    </g>
    <g id="ytick_5">
     <g id="line2d_11">
      <g>
       <use xlink:href="#m2c61592f38" x="50.87" y="107.308432" style="stroke: #000000; stroke-width: 0.8"/>
      </g>
     </g>
     <g id="text_12">
      <!-- 100 -->
      <g transform="translate(24.7825 111.107651) scale(0.1 -0.1)">
       <use xlink:href="#DejaVuSans-31"/>
       <use xlink:href="#DejaVuSans-30" x="63.623047"/>
       <use xlink:href="#DejaVuSans-30" x="127.246094"/>
      </g>
     </g>
    </g>
    <g id="ytick_6">
     <g id="line2d_12">
      <g>
       <use xlink:href="#m2c61592f38" x="50.87" y="83.844631" style="stroke: #000000; stroke-width: 0.8"/>
      </g>
     </g>
     <g id="text_13">
      <!-- 125 -->
      <g transform="translate(24.7825 87.64385) scale(0.1 -0.1)">
       <use xlink:href="#DejaVuSans-31"/>
       <use xlink:href="#DejaVuSans-32" x="63.623047"/>
       <use xlink:href="#DejaVuSans-35" x="127.246094"/>
      </g>
     </g>
    </g>
    <g id="ytick_7">
     <g id="line2d_13">
      <g>
       <use xlink:href="#m2c61592f38" x="50.87" y="60.38083" style="stroke: #000000; stroke-width: 0.8"/>
      </g>
     </g>
     <g id="text_14">
      <!-- 150 -->
      <g transform="translate(24.7825 64.180049) scale(0.1 -0.1)">
       <use xlink:href="#DejaVuSans-31"/>
       <use xlink:href="#DejaVuSans-35" x="63.623047"/>
       <use xlink:href="#DejaVuSans-30" x="127.246094"/>
      </g>
     </g>
    </g>
    <g id="ytick_8">
     <g id="line2d_14">
      <g>
       <use xlink:href="#m2c61592f38" x="50.87" y="36.917029" style="stroke: #000000; stroke-width: 0.8"/>
      </g>
     </g>
     <g id="text_15">
      <!-- 175 -->
      <g transform="translate(24.7825 40.716248) scale(0.1 -0.1)">
       <use xlink:href="#DejaVuSans-31"/>
       <use xlink:href="#DejaVuSans-37" x="63.623047"/>
       <use xlink:href="#DejaVuSans-35" x="127.246094"/>
      </g>
     </g>
    </g>
    <g id="text_16">
     <!-- flux -->
     <g transform="translate(18.702813 121.677344) rotate(-90) scale(0.1 -0.1)">
      <defs>
       <path id="DejaVuSans-66" d="M 2375 4863 
L 2375 4384 
L 1825 4384 
Q 1516 4384 1395 4259 
Q 1275 4134 1275 3809 
L 1275 3500 
L 2222 3500 
L 2222 3053 
L 1275 3053 
L 1275 0 
L 697 0 
L 697 3053 
L 147 3053 
L 147 3500 
L 697 3500 
L 697 3744 
Q 697 4328 969 4595 
Q 1241 4863 1831 4863 
L 2375 4863 
z
" transform="scale(0.015625)"/>
       <path id="DejaVuSans-6c" d="M 603 4863 
L 1178 4863 
L 1178 0 
L 603 0 
L 603 4863 
z
" transform="scale(0.015625)"/>
       <path id="DejaVuSans-75" d="M 544 1381 
L 544 3500 
L 1119 3500 
L 1119 1403 
Q 1119 906 1312 657 
Q 1506 409 1894 409 
Q 2359 409 2629 706 
Q 2900 1003 2900 1516 
L 2900 3500 
L 3475 3500 
L 3475 0 
L 2900 0 
L 2900 538 
Q 2691 219 2414 64 
Q 2138 -91 1772 -91 
Q 1169 -91 856 284 
Q 544 659 544 1381 
z
M 1991 3584 
L 1991 3584 
z
" transform="scale(0.015625)"/>
       <path id="DejaVuSans-78" d="M 3513 3500 
L 2247 1797 
L 3578 0 
L 2900 0 
L 1881 1375 
L 863 0 
L 184 0 
L 1544 1831 
L 300 3500 
L 978 3500 
L 1906 2253 
L 2834 3500 
L 3513 3500 
z
" transform="scale(0.015625)"/>
      </defs>
      <use xlink:href="#DejaVuSans-66"/>
      <use xlink:href="#DejaVuSans-6c" x="35.205078"/>
      <use xlink:href="#DejaVuSans-75" x="62.988281"/>
      <use xlink:href="#DejaVuSans-78" x="126.367188"/>
     </g>
    </g>
   </g>
   <g id="line2d_15">
    <defs>
     <path id="m9b17e05c76" d="M 0 2.5 
C 0.663008 2.5 1.29895 2.236584 1.767767 1.767767 
C 2.236584 1.29895 2.5 0.663008 2.5 0 
C 2.5 -0.663008 2.236584 -1.29895 1.767767 -1.767767 
C 1.29895 -2.236584 0.663008 -2.5 0 -2.5 
C -0.663008 -2.5 -1.29895 -2.236584 -1.767767 -1.767767 
C -2.236584 -1.29895 -2.5 -0.663008 -2.5 0 
C -2.5 0.663008 -2.236584 1.29895 -1.767767 1.767767 
C -1.29895 2.236584 -0.663008 2.5 0 2.5 
z
" style="stroke: #23612b"/>
    </defs>
    <g clip-path="url(#p8fca929c8f)">
     <use xlink:href="#m9b17e05c76" x="182.166459" y="60.180536" style="fill: #4fa15a; stroke: #23612b"/>
     <use xlink:href="#m9b17e05c76" x="179.14003" y="38.318646" style="fill: #4fa15a; stroke: #23612b"/>
     <use xlink:href="#m9b17e05c76" x="190.508248" y="50.50125" style="fill: #4fa15a; stroke: #23612b"/>
     <use xlink:href="#m9b17e05c76" x="63.182727" y="197.686188" style="fill: #4fa15a; stroke: #23612b"/>
     <use xlink:href="#m9b17e05c76" x="63.182727" y="197.066611" style="fill: #4fa15a; stroke: #23612b"/>
     <use xlink:href="#m9b17e05c76" x="63.182727" y="197.725406" style="fill: #4fa15a; stroke: #23612b"/>
     <use xlink:href="#m9b17e05c76" x="307.432044" y="31.107472" style="fill: #4fa15a; stroke: #23612b"/>
     <use xlink:href="#m9b17e05c76" x="302.947007" y="42.585188" style="fill: #4fa15a; stroke: #23612b"/>
     <use xlink:href="#m9b17e05c76" x="309.437273" y="30.478658" style="fill: #4fa15a; stroke: #23612b"/>
     <use xlink:href="#m9b17e05c76" x="108.381372" y="65.041484" style="fill: #4fa15a; stroke: #23612b"/>
     <use xlink:href="#m9b17e05c76" x="107.487813" y="35.924702" style="fill: #4fa15a; stroke: #23612b"/>
     <use xlink:href="#m9b17e05c76" x="106.173461" y="35.579024" style="fill: #4fa15a; stroke: #23612b"/>
     <use xlink:href="#m9b17e05c76" x="90.772046" y="70.906103" style="fill: #4fa15a; stroke: #23612b"/>
     <use xlink:href="#m9b17e05c76" x="90.658566" y="75.52621" style="fill: #4fa15a; stroke: #23612b"/>
     <use xlink:href="#m9b17e05c76" x="90.800826" y="84.054329" style="fill: #4fa15a; stroke: #23612b"/>
     <use xlink:href="#m9b17e05c76" x="67.284522" y="167.762992" style="fill: #4fa15a; stroke: #23612b"/>
     <use xlink:href="#m9b17e05c76" x="68.402846" y="141.004613" style="fill: #4fa15a; stroke: #23612b"/>
     <use xlink:href="#m9b17e05c76" x="69.255905" y="137.384041" style="fill: #4fa15a; stroke: #23612b"/>
     <use xlink:href="#m9b17e05c76" x="92.244886" y="95.895766" style="fill: #4fa15a; stroke: #23612b"/>
     <use xlink:href="#m9b17e05c76" x="80.441174" y="141.137965" style="fill: #4fa15a; stroke: #23612b"/>
     <use xlink:href="#m9b17e05c76" x="78.64508" y="148.199994" style="fill: #4fa15a; stroke: #23612b"/>
    </g>
   </g>
   <g id="line2d_16">
    <path d="M 63.182727 201.163636 
L 64.414 187.788612 
L 65.645273 176.268673 
L 66.876545 166.242905 
L 68.107818 157.438313 
L 69.339091 149.64459 
L 70.570364 142.697098 
L 71.801636 136.46511 
L 73.032909 130.843508 
L 75.495455 121.104757 
L 77.958 112.961224 
L 80.420545 106.050633 
L 82.883091 100.112685 
L 85.345636 94.955536 
L 87.808182 90.434683 
L 90.270727 86.439207 
L 92.733273 82.882555 
L 95.195818 79.696196 
L 97.658364 76.825163 
L 100.120909 74.224856 
L 102.583455 71.858706 
L 106.277273 68.683715 
L 109.971091 65.88655 
L 113.664909 63.403557 
L 117.358727 61.184619 
L 121.052545 59.189742 
L 125.977636 56.823486 
L 130.902727 54.738008 
L 135.827818 52.886133 
L 141.984182 50.843909 
L 148.140545 49.052511 
L 155.528182 47.173327 
L 162.915818 45.535528 
L 171.534727 43.872124 
L 180.153636 42.425511 
L 190.003818 40.987099 
L 201.085273 39.589988 
L 213.398 38.257064 
L 228.173273 36.897886 
L 244.179818 35.656349 
L 262.648909 34.453776 
L 283.580545 33.318701 
L 308.206 32.217021 
L 308.206 32.217021 
" clip-path="url(#p8fca929c8f)" style="fill: none; stroke: #ef553b; stroke-width: 1.5; stroke-linecap: square"/>
   </g>
   <g id="patch_3">
    <path d="M 50.87 210.04 
L 50.87 14.76 
" style="fill: none; stroke: #000000; stroke-width: 0.8; stroke-linejoin: miter; stroke-linecap: square"/>
   </g>
   <g id="patch_4">
    <path d="M 321.75 210.04 
L 321.75 14.76 
" style="fill: none; stroke: #000000; stroke-width: 0.8; stroke-linejoin: miter; stroke-linecap: square"/>
   </g>
   <g id="patch_5">
    <path d="M 50.87 210.04 
L 321.75 210.04 
" style="fill: none; stroke: #000000; stroke-width: 0.8; stroke-linejoin: miter; stroke-linecap: square"/>
   </g>
   <g id="patch_6">
    <path d="M 50.87 14.76 
L 321.75 14.76 
" style="fill: none; stroke: #000000; stroke-width: 0.8; stroke-linejoin: miter; stroke-linecap: square"/>
   </g>
   <g id="legend_1">
    <g id="patch_7">
     <path d="M 201.403125 205.04 
L 314.75 205.04 
Q 316.75 205.04 316.75 203.04 
L 316.75 174.68375 
Q 316.75 172.68375 314.75 172.68375 
L 201.403125 172.68375 
Q 199.403125 172.68375 199.403125 174.68375 
L 199.403125 203.04 
Q 199.403125 205.04 201.403125 205.04 
z
" style="fill: #ffffff; opacity: 0.8; stroke: #cccccc; stroke-linejoin: miter"/>
    </g>
    <g id="line2d_17">
     <g>
      <use xlink:href="#m9b17e05c76" x="213.403125" y="180.782188" style="fill: #4fa15a; stroke: #23612b"/>
     </g>
    </g>
    <g id="text_17">
     <!-- data -->
     <g transform="translate(231.403125 184.282188) scale(0.1 -0.1)">
      <defs>
       <path id="DejaVuSans-64" d="M 2906 2969 
L 2906 4863 
L 3481 4863 
L 3481 0 
L 2906 0 
L 2906 525 
Q 2725 213 2448 61 
Q 2172 -91 1784 -91 
Q 1150 -91 751 415 
Q 353 922 353 1747 
Q 353 2572 751 3078 
Q 1150 3584 1784 3584 
Q 2172 3584 2448 3432 
Q 2725 3281 2906 2969 
z
M 947 1747 
Q 947 1113 1208 752 
Q 1469 391 1925 391 
Q 2381 391 2643 752 
Q 2906 1113 2906 1747 
Q 2906 2381 2643 2742 
Q 2381 3103 1925 3103 
Q 1469 3103 1208 2742 
Q 947 2381 947 1747 
z
" transform="scale(0.015625)"/>
      </defs>
      <use xlink:href="#DejaVuSans-64"/>
      <use xlink:href="#DejaVuSans-61" x="63.476562"/>
      <use xlink:href="#DejaVuSans-74" x="124.755859"/>
      <use xlink:href="#DejaVuSans-61" x="163.964844"/>
     </g>
    </g>
    <g id="line2d_18">
     <path d="M 203.403125 195.460313 
L 213.403125 195.460313 
L 223.403125 195.460313 
" style="fill: none; stroke: #ef553b; stroke-width: 1.5; stroke-linecap: square"/>
    </g>
    <g id="text_18">
     <!-- best fit (95% CI) -->
     <g transform="translate(231.403125 198.960313) scale(0.1 -0.1)">
      <defs>
       <path id="DejaVuSans-62" d="M 3116 1747 
Q 3116 2381 2855 2742 
Q 2594 3103 2138 3103 
Q 1681 3103 1420 2742 
Q 1159 2381 1159 1747 
Q 1159 1113 1420 752 
Q 1681 391 2138 391 
Q 2594 391 2855 752 
Q 3116 1113 3116 1747 
z
M 1159 2969 
Q 1341 3281 1617 3432 
Q 1894 3584 2278 3584 
Q 2916 3584 3314 3078 
Q 3713 2572 3713 1747 
Q 3713 922 3314 415 
Q 2916 -91 2278 -91 
Q 1894 -91 1617 61 
Q 1341 213 1159 525 
L 1159 0 
L 581 0 
L 581 4863 
L 1159 4863 
L 1159 2969 
z
" transform="scale(0.015625)"/>
       <path id="DejaVuSans-73" d="M 2834 3397 
L 2834 2853 
Q 2591 2978 2328 3040 
Q 2066 3103 1784 3103 
Q 1356 3103 1142 2972 
Q 928 2841 928 2578 
Q 928 2378 1081 2264 
Q 1234 2150 1697 2047 
L 1894 2003 
Q 2506 1872 2764 1633 
Q 3022 1394 3022 966 
Q 3022 478 2636 193 
Q 2250 -91 1575 -91 
Q 1294 -91 989 -36 
Q 684 19 347 128 
L 347 722 
Q 666 556 975 473 
Q 1284 391 1588 391 
Q 1994 391 2212 530 
Q 2431 669 2431 922 
Q 2431 1156 2273 1281 
Q 2116 1406 1581 1522 
L 1381 1569 
Q 847 1681 609 1914 
Q 372 2147 372 2553 
Q 372 3047 722 3315 
Q 1072 3584 1716 3584 
Q 2034 3584 2315 3537 
Q 2597 3491 2834 3397 
z
" transform="scale(0.015625)"/>
       <path id="DejaVuSans-20" transform="scale(0.015625)"/>
       <path id="DejaVuSans-28" d="M 1984 4856 
Q 1566 4138 1362 3434 
Q 1159 2731 1159 2009 
Q 1159 1288 1364 580 
Q 1569 -128 1984 -844 
L 1484 -844 
Q 1016 -109 783 600 
Q 550 1309 550 2009 
Q 550 2706 781 3412 
Q 1013 4119 1484 4856 
L 1984 4856 
z
" transform="scale(0.015625)"/>
       <path id="DejaVuSans-39" d="M 703 97 
L 703 672 
Q 941 559 1184 500 
Q 1428 441 1663 441 
Q 2288 441 2617 861 
Q 2947 1281 2994 2138 
Q 2813 1869 2534 1725 
Q 2256 1581 1919 1581 
Q 1219 1581 811 2004 
Q 403 2428 403 3163 
Q 403 3881 828 4315 
Q 1253 4750 1959 4750 
Q 2769 4750 3195 4129 
Q 3622 3509 3622 2328 
Q 3622 1225 3098 567 
Q 2575 -91 1691 -91 
Q 1453 -91 1209 -44 
Q 966 3 703 97 
z
M 1959 2075 
Q 2384 2075 2632 2365 
Q 2881 2656 2881 3163 
Q 2881 3666 2632 3958 
Q 2384 4250 1959 4250 
Q 1534 4250 1286 3958 
Q 1038 3666 1038 3163 
Q 1038 2656 1286 2365 
Q 1534 2075 1959 2075 
z
" transform="scale(0.015625)"/>
       <path id="DejaVuSans-25" d="M 4653 2053 
Q 4381 2053 4226 1822 
Q 4072 1591 4072 1178 
Q 4072 772 4226 539 
Q 4381 306 4653 306 
Q 4919 306 5073 539 
Q 5228 772 5228 1178 
Q 5228 1588 5073 1820 
Q 4919 2053 4653 2053 
z
M 4653 2450 
Q 5147 2450 5437 2106 
Q 5728 1763 5728 1178 
Q 5728 594 5436 251 
Q 5144 -91 4653 -91 
Q 4153 -91 3862 251 
Q 3572 594 3572 1178 
Q 3572 1766 3864 2108 
Q 4156 2450 4653 2450 
z
M 1428 4353 
Q 1159 4353 1004 4120 
Q 850 3888 850 3481 
Q 850 3069 1003 2837 
Q 1156 2606 1428 2606 
Q 1700 2606 1854 2837 
Q 2009 3069 2009 3481 
Q 2009 3884 1853 4118 
Q 1697 4353 1428 4353 
z
M 4250 4750 
L 4750 4750 
L 1831 -91 
L 1331 -91 
L 4250 4750 
z
M 1428 4750 
Q 1922 4750 2215 4408 
Q 2509 4066 2509 3481 
Q 2509 2891 2217 2550 
Q 1925 2209 1428 2209 
Q 931 2209 642 2551 
Q 353 2894 353 3481 
Q 353 4063 643 4406 
Q 934 4750 1428 4750 
z
" transform="scale(0.015625)"/>
       <path id="DejaVuSans-43" d="M 4122 4306 
L 4122 3641 
Q 3803 3938 3442 4084 
Q 3081 4231 2675 4231 
Q 1875 4231 1450 3742 
Q 1025 3253 1025 2328 
Q 1025 1406 1450 917 
Q 1875 428 2675 428 
Q 3081 428 3442 575 
Q 3803 722 4122 1019 
L 4122 359 
Q 3791 134 3420 21 
Q 3050 -91 2638 -91 
Q 1578 -91 968 557 
Q 359 1206 359 2328 
Q 359 3453 968 4101 
Q 1578 4750 2638 4750 
Q 3056 4750 3426 4639 
Q 3797 4528 4122 4306 
z
" transform="scale(0.015625)"/>
       <path id="DejaVuSans-49" d="M 628 4666 
L 1259 4666 
L 1259 0 
L 628 0 
L 628 4666 
z
" transform="scale(0.015625)"/>
       <path id="DejaVuSans-29" d="M 513 4856 
L 1013 4856 
Q 1481 4119 1714 3412 
Q 1947 2706 1947 2009 
Q 1947 1309 1714 600 
Q 1481 -109 1013 -844 
L 513 -844 
Q 928 -128 1133 580 
Q 1338 1288 1338 2009 
Q 1338 2731 1133 3434 
Q 928 4138 513 4856 
z
" transform="scale(0.015625)"/>
      </defs>
      <use xlink:href="#DejaVuSans-62"/>
      <use xlink:href="#DejaVuSans-65" x="63.476562"/>
      <use xlink:href="#DejaVuSans-73" x="125"/>
      <use xlink:href="#DejaVuSans-74" x="177.099609"/>
      <use xlink:href="#DejaVuSans-20" x="216.308594"/>
      <use xlink:href="#DejaVuSans-66" x="248.095703"/>
      <use xlink:href="#DejaVuSans-69" x="283.300781"/>
      <use xlink:href="#DejaVuSans-74" x="311.083984"/>
      <use xlink:href="#DejaVuSans-20" x="350.292969"/>
      <use xlink:href="#DejaVuSans-28" x="382.080078"/>
      <use xlink:href="#DejaVuSans-39" x="421.09375"/>
      <use xlink:href="#DejaVuSans-35" x="484.716797"/>
      <use xlink:href="#DejaVuSans-25" x="548.339844"/>
      <use xlink:href="#DejaVuSans-20" x="643.359375"/>
      <use xlink:href="#DejaVuSans-43" x="675.146484"/>
      <use xlink:href="#DejaVuSans-49" x="744.970703"/>
      <use xlink:href="#DejaVuSans-29" x="774.462891"/>
     </g>
    </g>
   </g>
  </g>
  <g id="axes_2">
   <g id="patch_8">
    <path d="M 366.32 210.04 
L 583.024 210.04 
L 583.024 14.76 
L 366.32 14.76 
z
" style="fill: #ffffff"/>
   </g>
   <g id="QuadContourSet_1">
    <path clip-path="url(#p03eb39a3fa)" style="fill: #471365"/>
    <path d="M 472.460735 115.59702 
L 474.314407 114.392653 
L 472.460735 112.68634 
L 471.039392 114.392653 
z
M 476.883265 112.091391 
L 478.33023 110.407347 
L 476.883265 109.084725 
L 474.974544 110.407347 
z
" clip-path="url(#p03eb39a3fa)" style="fill: #463480"/>
    <path d="M 472.460735 116.952685 
L 476.400947 114.392653 
L 476.883265 113.960577 
L 479.936272 110.407347 
L 476.883265 107.616694 
L 472.85598 110.407347 
L 472.460735 110.765672 
L 469.439492 114.392653 
z
M 471.039392 114.392653 
L 472.460735 112.68634 
L 474.314407 114.392653 
L 472.460735 115.59702 
z
M 474.974544 110.407347 
L 476.883265 109.084725 
L 478.33023 110.407347 
L 476.883265 112.091391 
z
" clip-path="url(#p03eb39a3fa)" style="fill: #3b528b"/>
    <path d="M 468.038204 119.405542 
L 472.124447 118.377959 
L 472.460735 118.30835 
L 476.883265 115.276771 
L 477.914107 114.392653 
L 481.305796 110.626594 
L 481.50358 110.407347 
L 482.85187 106.422041 
L 481.305796 104.944803 
L 476.883265 106.184621 
L 476.561801 106.422041 
L 472.460735 109.390834 
L 471.360471 110.407347 
L 468.038204 114.20092 
L 467.872908 114.392653 
L 466.713519 118.377959 
z
M 469.439492 114.392653 
L 472.460735 110.765672 
L 472.85598 110.407347 
L 476.883265 107.616694 
L 479.936272 110.407347 
L 476.883265 113.960577 
L 476.400947 114.392653 
L 472.460735 116.952685 
z
" clip-path="url(#p03eb39a3fa)" style="fill: #2f6c8e"/>
    <path d="M 468.038204 121.052533 
L 472.460735 119.427726 
L 474.046618 118.377959 
L 476.883265 116.426703 
L 479.254877 114.392653 
L 481.305796 112.115356 
L 482.846601 110.407347 
L 484.942018 106.422041 
L 481.305796 102.947715 
L 476.883265 104.909677 
L 474.835542 106.422041 
L 472.460735 108.141182 
L 470.00786 110.407347 
L 468.038204 112.656424 
L 466.541374 114.392653 
L 464.590339 118.377959 
z
M 466.713519 118.377959 
L 467.872908 114.392653 
L 468.038204 114.20092 
L 471.360471 110.407347 
L 472.460735 109.390834 
L 476.561801 106.422041 
L 476.883265 106.184621 
L 481.305796 104.944803 
L 482.85187 106.422041 
L 481.50358 110.407347 
L 481.305796 110.626594 
L 477.914107 114.392653 
L 476.883265 115.276771 
L 472.460735 118.30835 
L 472.124447 118.377959 
L 468.038204 119.405542 
z
" clip-path="url(#p03eb39a3fa)" style="fill: #25848e"/>
    <path d="M 463.615673 122.899408 
L 468.038204 122.601679 
L 468.524446 122.363265 
L 472.460735 120.534312 
L 475.718338 118.377959 
L 476.883265 117.576636 
L 480.595647 114.392653 
L 481.305796 113.604119 
L 484.189622 110.407347 
L 485.728327 107.826977 
L 486.662727 106.422041 
L 487.232582 102.436735 
L 485.728327 100.897979 
L 481.305796 101.349366 
L 479.351289 102.436735 
L 476.883265 103.634733 
L 473.109283 106.422041 
L 472.460735 106.89153 
L 468.655249 110.407347 
L 468.038204 111.111927 
L 465.209839 114.392653 
L 463.615673 117.137688 
L 462.819295 118.377959 
L 462.848774 122.363265 
z
M 464.590339 118.377959 
L 466.541374 114.392653 
L 468.038204 112.656424 
L 470.00786 110.407347 
L 472.460735 108.141182 
L 474.835542 106.422041 
L 476.883265 104.909677 
L 481.305796 102.947715 
L 484.942018 106.422041 
L 482.846601 110.407347 
L 481.305796 112.115356 
L 479.254877 114.392653 
L 476.883265 116.426703 
L 474.046618 118.377959 
L 472.460735 119.427726 
L 468.038204 121.052533 
z
" clip-path="url(#p03eb39a3fa)" style="fill: #1e9c89"/>
    <path d="M 463.615673 124.683449 
L 468.038204 123.769422 
L 470.90605 122.363265 
L 472.460735 121.640898 
L 476.883265 118.707451 
L 477.310679 118.377959 
L 481.305796 114.959983 
L 481.924702 114.392653 
L 485.532643 110.407347 
L 485.728327 110.079191 
L 488.160637 106.422041 
L 489.643358 102.436735 
L 485.804829 98.451429 
L 485.728327 98.437904 
L 485.69301 98.451429 
L 481.305796 99.888118 
L 476.883265 102.358172 
L 476.779563 102.436735 
L 472.460735 105.629101 
L 471.557052 106.422041 
L 468.038204 109.678805 
L 467.316228 110.407347 
L 463.878305 114.392653 
L 463.615673 114.844885 
L 461.347087 118.377959 
L 460.296875 122.363265 
z
M 462.848774 122.363265 
L 462.819295 118.377959 
L 463.615673 117.137688 
L 465.209839 114.392653 
L 468.038204 111.111927 
L 468.655249 110.407347 
L 472.460735 106.89153 
L 473.109283 106.422041 
L 476.883265 103.634733 
L 479.351289 102.436735 
L 481.305796 101.349366 
L 485.728327 100.897979 
L 487.232582 102.436735 
L 486.662727 106.422041 
L 485.728327 107.826977 
L 484.189622 110.407347 
L 481.305796 113.604119 
L 480.595647 114.392653 
L 476.883265 117.576636 
L 475.718338 118.377959 
L 472.460735 120.534312 
L 468.524446 122.363265 
L 468.038204 122.601679 
L 463.615673 122.899408 
z
" clip-path="url(#p03eb39a3fa)" style="fill: #2fb47c"/>
    <path d="M 463.615673 126.430687 
L 463.846826 126.348571 
L 468.038204 124.937166 
L 472.460735 122.728127 
L 473.027187 122.363265 
L 476.883265 119.794322 
L 478.720558 118.377959 
L 481.305796 116.166188 
L 483.240565 114.392653 
L 485.728327 111.6477 
L 486.860956 110.407347 
L 489.658547 106.422041 
L 490.150857 105.250617 
L 491.476955 102.436735 
L 491.590121 98.451429 
L 490.150857 96.857589 
L 485.728327 96.729102 
L 481.305796 98.427825 
L 481.268962 98.451429 
L 476.883265 101.056428 
L 475.061269 102.436735 
L 472.460735 104.358983 
L 470.109548 106.422041 
L 468.038204 108.339111 
L 465.988609 110.407347 
L 463.615673 113.157481 
L 462.560756 114.392653 
L 459.874878 118.377959 
L 459.193143 120.168715 
L 458.249769 122.363265 
L 459.193143 125.815278 
L 461.705485 126.348571 
z
M 460.296875 122.363265 
L 461.347087 118.377959 
L 463.615673 114.844885 
L 463.878305 114.392653 
L 467.316228 110.407347 
L 468.038204 109.678805 
L 471.557052 106.422041 
L 472.460735 105.629101 
L 476.779563 102.436735 
L 476.883265 102.358172 
L 481.305796 99.888118 
L 485.69301 98.451429 
L 485.728327 98.437904 
L 485.804829 98.451429 
L 489.643358 102.436735 
L 488.160637 106.422041 
L 485.728327 110.079191 
L 485.532643 110.407347 
L 481.924702 114.392653 
L 481.305796 114.959983 
L 477.310679 118.377959 
L 476.883265 118.707451 
L 472.460735 121.640898 
L 470.90605 122.363265 
L 468.038204 123.769422 
L 463.615673 124.683449 
z
" clip-path="url(#p03eb39a3fa)" style="fill: #5ec962"/>
    <path d="M 459.193143 128.010705 
L 463.615673 127.662593 
L 467.314613 126.348571 
L 468.038204 126.104909 
L 472.460735 123.778963 
L 474.65862 122.363265 
L 476.883265 120.881193 
L 480.130437 118.377959 
L 481.305796 117.372394 
L 484.556428 114.392653 
L 485.728327 113.099601 
L 488.186761 110.407347 
L 490.150857 107.664846 
L 491.090031 106.422041 
L 493.156649 102.436735 
L 494.205177 98.451429 
L 491.321126 94.466122 
L 490.150857 94.120734 
L 488.60548 94.466122 
L 485.728327 95.0203 
L 481.305796 97.023405 
L 479.077387 98.451429 
L 476.883265 99.754685 
L 473.342976 102.436735 
L 472.460735 103.088864 
L 468.662045 106.422041 
L 468.038204 106.999418 
L 464.66099 110.407347 
L 463.615673 111.618825 
L 461.246642 114.392653 
L 459.193143 117.358788 
L 458.459303 118.377959 
L 456.587395 122.363265 
L 456.530413 126.348571 
z
M 461.705485 126.348571 
L 459.193143 125.815278 
L 458.249769 122.363265 
L 459.193143 120.168715 
L 459.874878 118.377959 
L 462.560756 114.392653 
L 463.615673 113.157481 
L 465.988609 110.407347 
L 468.038204 108.339111 
L 470.109548 106.422041 
L 472.460735 104.358983 
L 475.061269 102.436735 
L 476.883265 101.056428 
L 481.268962 98.451429 
L 481.305796 98.427825 
L 485.728327 96.729102 
L 490.150857 96.857589 
L 491.590121 98.451429 
L 491.476955 102.436735 
L 490.150857 105.250617 
L 489.658547 106.422041 
L 486.860956 110.407347 
L 485.728327 111.6477 
L 483.240565 114.392653 
L 481.305796 116.166188 
L 478.720558 118.377959 
L 476.883265 119.794322 
L 473.027187 122.363265 
L 472.460735 122.728127 
L 468.038204 124.937166 
L 463.846826 126.348571 
L 463.615673 126.430687 
z
" clip-path="url(#p03eb39a3fa)" style="fill: #9bd93c"/>
    <path d="M 454.770612 128.023807 
L 459.193143 129.832559 
L 463.615673 128.894499 
L 468.038204 127.182826 
L 469.602927 126.348571 
L 472.460735 124.829798 
L 476.290053 122.363265 
L 476.883265 121.968063 
L 481.305796 118.562779 
L 481.530066 118.377959 
L 485.728327 114.527927 
L 485.871649 114.392653 
L 489.512565 110.407347 
L 490.150857 109.516089 
L 492.488994 106.422041 
L 494.573388 102.815658 
L 494.808283 102.436735 
L 496.160334 98.451429 
L 495.989622 94.466122 
L 494.573388 92.758981 
L 490.150857 92.137932 
L 485.728327 93.416153 
L 483.731585 94.466122 
L 481.305796 95.618985 
L 476.885813 98.451429 
L 476.883265 98.452942 
L 472.460735 101.800343 
L 471.72456 102.436735 
L 468.038204 105.6675 
L 467.250669 106.422041 
L 463.615673 110.108857 
L 463.334619 110.407347 
L 459.932529 114.392653 
L 459.193143 115.460644 
L 457.092572 118.377959 
L 454.925021 122.363265 
L 454.770612 123.118836 
L 454.029788 126.348571 
z
M 456.530413 126.348571 
L 456.587395 122.363265 
L 458.459303 118.377959 
L 459.193143 117.358788 
L 461.246642 114.392653 
L 463.615673 111.618825 
L 464.66099 110.407347 
L 468.038204 106.999418 
L 468.662045 106.422041 
L 472.460735 103.088864 
L 473.342976 102.436735 
L 476.883265 99.754685 
L 479.077387 98.451429 
L 481.305796 97.023405 
L 485.728327 95.0203 
L 488.60548 94.466122 
L 490.150857 94.120734 
L 491.321126 94.466122 
L 494.205177 98.451429 
L 493.156649 102.436735 
L 491.090031 106.422041 
L 490.150857 107.664846 
L 488.186761 110.407347 
L 485.728327 113.099601 
L 484.556428 114.392653 
L 481.305796 117.372394 
L 480.130437 118.377959 
L 476.883265 120.881193 
L 474.65862 122.363265 
L 472.460735 123.778963 
L 468.038204 126.104909 
L 467.314613 126.348571 
L 463.615673 127.662593 
L 459.193143 128.010705 
z
" clip-path="url(#p03eb39a3fa)" style="fill: #dfe318"/>
   </g>
   <g id="matplotlib.axis_3">
    <g id="xtick_7">
     <g id="line2d_19">
      <g>
       <use xlink:href="#m6d00bbe774" x="369.613514" y="210.04" style="stroke: #000000; stroke-width: 0.8"/>
      </g>
     </g>
     <g id="text_19">
      <!-- 140 -->
      <g transform="translate(360.069764 224.638438) scale(0.1 -0.1)">
       <defs>
        <path id="DejaVuSans-34" d="M 2419 4116 
L 825 1625 
L 2419 1625 
L 2419 4116 
z
M 2253 4666 
L 3047 4666 
L 3047 1625 
L 3713 1625 
L 3713 1100 
L 3047 1100 
L 3047 0 
L 2419 0 
L 2419 1100 
L 313 1100 
L 313 1709 
L 2253 4666 
z
" transform="scale(0.015625)"/>
       </defs>
       <use xlink:href="#DejaVuSans-31"/>
       <use xlink:href="#DejaVuSans-34" x="63.623047"/>
       <use xlink:href="#DejaVuSans-30" x="127.246094"/>
      </g>
     </g>
    </g>
    <g id="xtick_8">
     <g id="line2d_20">
      <g>
       <use xlink:href="#m6d00bbe774" x="410.618157" y="210.04" style="stroke: #000000; stroke-width: 0.8"/>
      </g>
     </g>
     <g id="text_20">
      <!-- 160 -->
      <g transform="translate(401.074407 224.638438) scale(0.1 -0.1)">
       <defs>
        <path id="DejaVuSans-36" d="M 2113 2584 
Q 1688 2584 1439 2293 
Q 1191 2003 1191 1497 
Q 1191 994 1439 701 
Q 1688 409 2113 409 
Q 2538 409 2786 701 
Q 3034 994 3034 1497 
Q 3034 2003 2786 2293 
Q 2538 2584 2113 2584 
z
M 3366 4563 
L 3366 3988 
Q 3128 4100 2886 4159 
Q 2644 4219 2406 4219 
Q 1781 4219 1451 3797 
Q 1122 3375 1075 2522 
Q 1259 2794 1537 2939 
Q 1816 3084 2150 3084 
Q 2853 3084 3261 2657 
Q 3669 2231 3669 1497 
Q 3669 778 3244 343 
Q 2819 -91 2113 -91 
Q 1303 -91 875 529 
Q 447 1150 447 2328 
Q 447 3434 972 4092 
Q 1497 4750 2381 4750 
Q 2619 4750 2861 4703 
Q 3103 4656 3366 4563 
z
" transform="scale(0.015625)"/>
       </defs>
       <use xlink:href="#DejaVuSans-31"/>
       <use xlink:href="#DejaVuSans-36" x="63.623047"/>
       <use xlink:href="#DejaVuSans-30" x="127.246094"/>
      </g>
     </g>
    </g>
    <g id="xtick_9">
     <g id="line2d_21">
      <g>
       <use xlink:href="#m6d00bbe774" x="451.622801" y="210.04" style="stroke: #000000; stroke-width: 0.8"/>
      </g>
     </g>
     <g id="text_21">
      <!-- 180 -->
      <g transform="translate(442.079051 224.638438) scale(0.1 -0.1)">
       <defs>
        <path id="DejaVuSans-38" d="M 2034 2216 
Q 1584 2216 1326 1975 
Q 1069 1734 1069 1313 
Q 1069 891 1326 650 
Q 1584 409 2034 409 
Q 2484 409 2743 651 
Q 3003 894 3003 1313 
Q 3003 1734 2745 1975 
Q 2488 2216 2034 2216 
z
M 1403 2484 
Q 997 2584 770 2862 
Q 544 3141 544 3541 
Q 544 4100 942 4425 
Q 1341 4750 2034 4750 
Q 2731 4750 3128 4425 
Q 3525 4100 3525 3541 
Q 3525 3141 3298 2862 
Q 3072 2584 2669 2484 
Q 3125 2378 3379 2068 
Q 3634 1759 3634 1313 
Q 3634 634 3220 271 
Q 2806 -91 2034 -91 
Q 1263 -91 848 271 
Q 434 634 434 1313 
Q 434 1759 690 2068 
Q 947 2378 1403 2484 
z
M 1172 3481 
Q 1172 3119 1398 2916 
Q 1625 2713 2034 2713 
Q 2441 2713 2670 2916 
Q 2900 3119 2900 3481 
Q 2900 3844 2670 4047 
Q 2441 4250 2034 4250 
Q 1625 4250 1398 4047 
Q 1172 3844 1172 3481 
z
" transform="scale(0.015625)"/>
       </defs>
       <use xlink:href="#DejaVuSans-31"/>
       <use xlink:href="#DejaVuSans-38" x="63.623047"/>
       <use xlink:href="#DejaVuSans-30" x="127.246094"/>
      </g>
     </g>
    </g>
    <g id="xtick_10">
     <g id="line2d_22">
      <g>
       <use xlink:href="#m6d00bbe774" x="492.627445" y="210.04" style="stroke: #000000; stroke-width: 0.8"/>
      </g>
     </g>
     <g id="text_22">
      <!-- 200 -->
      <g transform="translate(483.083695 224.638438) scale(0.1 -0.1)">
       <use xlink:href="#DejaVuSans-32"/>
       <use xlink:href="#DejaVuSans-30" x="63.623047"/>
       <use xlink:href="#DejaVuSans-30" x="127.246094"/>
      </g>
     </g>
    </g>
    <g id="xtick_11">
     <g id="line2d_23">
      <g>
       <use xlink:href="#m6d00bbe774" x="533.632089" y="210.04" style="stroke: #000000; stroke-width: 0.8"/>
      </g>
     </g>
     <g id="text_23">
      <!-- 220 -->
      <g transform="translate(524.088339 224.638438) scale(0.1 -0.1)">
       <use xlink:href="#DejaVuSans-32"/>
       <use xlink:href="#DejaVuSans-32" x="63.623047"/>
       <use xlink:href="#DejaVuSans-30" x="127.246094"/>
      </g>
     </g>
    </g>
    <g id="xtick_12">
     <g id="line2d_24">
      <g>
       <use xlink:href="#m6d00bbe774" x="574.636732" y="210.04" style="stroke: #000000; stroke-width: 0.8"/>
      </g>
     </g>
     <g id="text_24">
      <!-- 240 -->
      <g transform="translate(565.092982 224.638438) scale(0.1 -0.1)">
       <use xlink:href="#DejaVuSans-32"/>
       <use xlink:href="#DejaVuSans-34" x="63.623047"/>
       <use xlink:href="#DejaVuSans-30" x="127.246094"/>
      </g>
     </g>
    </g>
    <g id="text_25">
     <!-- vmax -->
     <g transform="translate(460.818875 238.316563) scale(0.1 -0.1)">
      <defs>
       <path id="DejaVuSans-76" d="M 191 3500 
L 800 3500 
L 1894 563 
L 2988 3500 
L 3597 3500 
L 2284 0 
L 1503 0 
L 191 3500 
z
" transform="scale(0.015625)"/>
       <path id="DejaVuSans-6d" d="M 3328 2828 
Q 3544 3216 3844 3400 
Q 4144 3584 4550 3584 
Q 5097 3584 5394 3201 
Q 5691 2819 5691 2113 
L 5691 0 
L 5113 0 
L 5113 2094 
Q 5113 2597 4934 2840 
Q 4756 3084 4391 3084 
Q 3944 3084 3684 2787 
Q 3425 2491 3425 1978 
L 3425 0 
L 2847 0 
L 2847 2094 
Q 2847 2600 2669 2842 
Q 2491 3084 2119 3084 
Q 1678 3084 1418 2786 
Q 1159 2488 1159 1978 
L 1159 0 
L 581 0 
L 581 3500 
L 1159 3500 
L 1159 2956 
Q 1356 3278 1631 3431 
Q 1906 3584 2284 3584 
Q 2666 3584 2933 3390 
Q 3200 3197 3328 2828 
z
" transform="scale(0.015625)"/>
      </defs>
      <use xlink:href="#DejaVuSans-76"/>
      <use xlink:href="#DejaVuSans-6d" x="59.179688"/>
      <use xlink:href="#DejaVuSans-61" x="156.591797"/>
      <use xlink:href="#DejaVuSans-78" x="217.871094"/>
     </g>
    </g>
   </g>
   <g id="matplotlib.axis_4">
    <g id="ytick_9">
     <g id="line2d_25">
      <g>
       <use xlink:href="#m2c61592f38" x="366.32" y="202.340097" style="stroke: #000000; stroke-width: 0.8"/>
      </g>
     </g>
     <g id="text_26">
      <!-- 0 -->
      <g transform="translate(352.9575 206.139316) scale(0.1 -0.1)">
       <use xlink:href="#DejaVuSans-30"/>
      </g>
     </g>
    </g>
    <g id="ytick_10">
     <g id="line2d_26">
      <g>
       <use xlink:href="#m2c61592f38" x="366.32" y="175.777851" style="stroke: #000000; stroke-width: 0.8"/>
      </g>
     </g>
     <g id="text_27">
      <!-- 5 -->
      <g transform="translate(352.9575 179.57707) scale(0.1 -0.1)">
       <use xlink:href="#DejaVuSans-35"/>
      </g>
     </g>
    </g>
    <g id="ytick_11">
     <g id="line2d_27">
      <g>
       <use xlink:href="#m2c61592f38" x="366.32" y="149.215605" style="stroke: #000000; stroke-width: 0.8"/>
      </g>
     </g>
     <g id="text_28">
      <!-- 10 -->
      <g transform="translate(346.595 153.014823) scale(0.1 -0.1)">
       <use xlink:href="#DejaVuSans-31"/>
       <use xlink:href="#DejaVuSans-30" x="63.623047"/>
      </g>
     </g>
    </g>
    <g id="ytick_12">
     <g id="line2d_28">
      <g>
       <use xlink:href="#m2c61592f38" x="366.32" y="122.653358" style="stroke: #000000; stroke-width: 0.8"/>
      </g>
     </g>
     <g id="text_29">
      <!-- 15 -->
      <g transform="translate(346.595 126.452577) scale(0.1 -0.1)">
       <use xlink:href="#DejaVuSans-31"/>
       <use xlink:href="#DejaVuSans-35" x="63.623047"/>
      </g>
     </g>
    </g>
    <g id="ytick_13">
     <g id="line2d_29">
      <g>
       <use xlink:href="#m2c61592f38" x="366.32" y="96.091112" style="stroke: #000000; stroke-width: 0.8"/>
      </g>
     </g>
     <g id="text_30">
      <!-- 20 -->
      <g transform="translate(346.595 99.890331) scale(0.1 -0.1)">
       <use xlink:href="#DejaVuSans-32"/>
       <use xlink:href="#DejaVuSans-30" x="63.623047"/>
      </g>
     </g>
    </g>
    <g id="ytick_14">
     <g id="line2d_30">
      <g>
       <use xlink:href="#m2c61592f38" x="366.32" y="69.528866" style="stroke: #000000; stroke-width: 0.8"/>
      </g>
     </g>
     <g id="text_31">
      <!-- 25 -->
      <g transform="translate(346.595 73.328084) scale(0.1 -0.1)">
       <use xlink:href="#DejaVuSans-32"/>
       <use xlink:href="#DejaVuSans-35" x="63.623047"/>
      </g>
     </g>
    </g>
    <g id="ytick_15">
     <g id="line2d_31">
      <g>
       <use xlink:href="#m2c61592f38" x="366.32" y="42.966619" style="stroke: #000000; stroke-width: 0.8"/>
      </g>
     </g>
     <g id="text_32">
      <!-- 30 -->
      <g transform="translate(346.595 46.765838) scale(0.1 -0.1)">
       <defs>
        <path id="DejaVuSans-33" d="M 2597 2516 
Q 3050 2419 3304 2112 
Q 3559 1806 3559 1356 
Q 3559 666 3084 287 
Q 2609 -91 1734 -91 
Q 1441 -91 1130 -33 
Q 819 25 488 141 
L 488 750 
Q 750 597 1062 519 
Q 1375 441 1716 441 
Q 2309 441 2620 675 
Q 2931 909 2931 1356 
Q 2931 1769 2642 2001 
Q 2353 2234 1838 2234 
L 1294 2234 
L 1294 2753 
L 1863 2753 
Q 2328 2753 2575 2939 
Q 2822 3125 2822 3475 
Q 2822 3834 2567 4026 
Q 2313 4219 1838 4219 
Q 1578 4219 1281 4162 
Q 984 4106 628 3988 
L 628 4550 
Q 988 4650 1302 4700 
Q 1616 4750 1894 4750 
Q 2613 4750 3031 4423 
Q 3450 4097 3450 3541 
Q 3450 3153 3228 2886 
Q 3006 2619 2597 2516 
z
" transform="scale(0.015625)"/>
       </defs>
       <use xlink:href="#DejaVuSans-33"/>
       <use xlink:href="#DejaVuSans-30" x="63.623047"/>
      </g>
     </g>
    </g>
    <g id="ytick_16">
     <g id="line2d_32">
      <g>
       <use xlink:href="#m2c61592f38" x="366.32" y="16.404373" style="stroke: #000000; stroke-width: 0.8"/>
      </g>
     </g>
     <g id="text_33">
      <!-- 35 -->
      <g transform="translate(346.595 20.203592) scale(0.1 -0.1)">
       <use xlink:href="#DejaVuSans-33"/>
       <use xlink:href="#DejaVuSans-35" x="63.623047"/>
      </g>
     </g>
    </g>
    <g id="text_34">
     <!-- km -->
     <g transform="translate(340.515312 120.165625) rotate(-90) scale(0.1 -0.1)">
      <defs>
       <path id="DejaVuSans-6b" d="M 581 4863 
L 1159 4863 
L 1159 1991 
L 2875 3500 
L 3609 3500 
L 1753 1863 
L 3688 0 
L 2938 0 
L 1159 1709 
L 1159 0 
L 581 0 
L 581 4863 
z
" transform="scale(0.015625)"/>
      </defs>
      <use xlink:href="#DejaVuSans-6b"/>
      <use xlink:href="#DejaVuSans-6d" x="57.910156"/>
     </g>
    </g>
   </g>
   <g id="patch_9">
    <path d="M 366.32 210.04 
L 366.32 14.76 
" style="fill: none; stroke: #000000; stroke-width: 0.8; stroke-linejoin: miter; stroke-linecap: square"/>
   </g>
   <g id="patch_10">
    <path d="M 583.024 210.04 
L 583.024 14.76 
" style="fill: none; stroke: #000000; stroke-width: 0.8; stroke-linejoin: miter; stroke-linecap: square"/>
   </g>
   <g id="patch_11">
    <path d="M 366.32 210.04 
L 583.024 210.04 
" style="fill: none; stroke: #000000; stroke-width: 0.8; stroke-linejoin: miter; stroke-linecap: square"/>
   </g>
   <g id="patch_12">
    <path d="M 366.32 14.76 
L 583.024 14.76 
" style="fill: none; stroke: #000000; stroke-width: 0.8; stroke-linejoin: miter; stroke-linecap: square"/>
   </g>
  </g>
  <g id="axes_3">
   <g id="patch_13">
    <path d="M 596.568 210.04 
L 606.332 210.04 
L 606.332 14.76 
L 596.568 14.76 
z
" style="fill: #ffffff"/>
   </g>
   <g id="QuadMesh_1">
    <path d="M 596.568 210.04 
L 606.332 210.04 
L 606.332 190.512 
L 596.568 190.512 
L 596.568 210.04 
" clip-path="url(#p1988bcb396)" style="fill: #471365"/>
    <path d="M 596.568 190.512 
L 606.332 190.512 
L 606.332 170.984 
L 596.568 170.984 
L 596.568 190.512 
" clip-path="url(#p1988bcb396)" style="fill: #463480"/>
    <path d="M 596.568 170.984 
L 606.332 170.984 
L 606.332 151.456 
L 596.568 151.456 
L 596.568 170.984 
" clip-path="url(#p1988bcb396)" style="fill: #3b528b"/>
    <path d="M 596.568 151.456 
L 606.332 151.456 
L 606.332 131.928 
L 596.568 131.928 
L 596.568 151.456 
" clip-path="url(#p1988bcb396)" style="fill: #2f6c8e"/>
    <path d="M 596.568 131.928 
L 606.332 131.928 
L 606.332 112.4 
L 596.568 112.4 
L 596.568 131.928 
" clip-path="url(#p1988bcb396)" style="fill: #25848e"/>
    <path d="M 596.568 112.4 
L 606.332 112.4 
L 606.332 92.872 
L 596.568 92.872 
L 596.568 112.4 
" clip-path="url(#p1988bcb396)" style="fill: #1e9c89"/>
    <path d="M 596.568 92.872 
L 606.332 92.872 
L 606.332 73.344 
L 596.568 73.344 
L 596.568 92.872 
" clip-path="url(#p1988bcb396)" style="fill: #2fb47c"/>
    <path d="M 596.568 73.344 
L 606.332 73.344 
L 606.332 53.816 
L 596.568 53.816 
L 596.568 73.344 
" clip-path="url(#p1988bcb396)" style="fill: #5ec962"/>
    <path d="M 596.568 53.816 
L 606.332 53.816 
L 606.332 34.288 
L 596.568 34.288 
L 596.568 53.816 
" clip-path="url(#p1988bcb396)" style="fill: #9bd93c"/>
    <path d="M 596.568 34.288 
L 606.332 34.288 
L 606.332 14.76 
L 596.568 14.76 
L 596.568 34.288 
" clip-path="url(#p1988bcb396)" style="fill: #dfe318"/>
   </g>
   <g id="matplotlib.axis_5"/>
   <g id="matplotlib.axis_6">
    <g id="ytick_17">
     <g id="line2d_33">
      <defs>
       <path id="m970e22f0da" d="M 0 0 
L 3.5 0 
" style="stroke: #000000; stroke-width: 0.8"/>
      </defs>
      <g>
       <use xlink:href="#m970e22f0da" x="606.332" y="210.04" style="stroke: #000000; stroke-width: 0.8"/>
      </g>
     </g>
     <g id="text_35">
      <!-- 0.0 -->
      <g transform="translate(613.332 213.839219) scale(0.1 -0.1)">
       <defs>
        <path id="DejaVuSans-2e" d="M 684 794 
L 1344 794 
L 1344 0 
L 684 0 
L 684 794 
z
" transform="scale(0.015625)"/>
       </defs>
       <use xlink:href="#DejaVuSans-30"/>
       <use xlink:href="#DejaVuSans-2e" x="63.623047"/>
       <use xlink:href="#DejaVuSans-30" x="95.410156"/>
      </g>
     </g>
    </g>
    <g id="ytick_18">
     <g id="line2d_34">
      <g>
       <use xlink:href="#m970e22f0da" x="606.332" y="170.984" style="stroke: #000000; stroke-width: 0.8"/>
      </g>
     </g>
     <g id="text_36">
      <!-- 0.2 -->
      <g transform="translate(613.332 174.783219) scale(0.1 -0.1)">
       <use xlink:href="#DejaVuSans-30"/>
       <use xlink:href="#DejaVuSans-2e" x="63.623047"/>
       <use xlink:href="#DejaVuSans-32" x="95.410156"/>
      </g>
     </g>
    </g>
    <g id="ytick_19">
     <g id="line2d_35">
      <g>
       <use xlink:href="#m970e22f0da" x="606.332" y="131.928" style="stroke: #000000; stroke-width: 0.8"/>
      </g>
     </g>
     <g id="text_37">
      <!-- 0.4 -->
      <g transform="translate(613.332 135.727219) scale(0.1 -0.1)">
       <use xlink:href="#DejaVuSans-30"/>
       <use xlink:href="#DejaVuSans-2e" x="63.623047"/>
       <use xlink:href="#DejaVuSans-34" x="95.410156"/>
      </g>
     </g>
    </g>
    <g id="ytick_20">
     <g id="line2d_36">
      <g>
       <use xlink:href="#m970e22f0da" x="606.332" y="92.872" style="stroke: #000000; stroke-width: 0.8"/>
      </g>
     </g>
     <g id="text_38">
      <!-- 0.6 -->
      <g transform="translate(613.332 96.671219) scale(0.1 -0.1)">
       <use xlink:href="#DejaVuSans-30"/>
       <use xlink:href="#DejaVuSans-2e" x="63.623047"/>
       <use xlink:href="#DejaVuSans-36" x="95.410156"/>
      </g>
     </g>
    </g>
    <g id="ytick_21">
     <g id="line2d_37">
      <g>
       <use xlink:href="#m970e22f0da" x="606.332" y="53.816" style="stroke: #000000; stroke-width: 0.8"/>
      </g>
     </g>
     <g id="text_39">
      <!-- 0.8 -->
      <g transform="translate(613.332 57.615219) scale(0.1 -0.1)">
       <use xlink:href="#DejaVuSans-30"/>
       <use xlink:href="#DejaVuSans-2e" x="63.623047"/>
       <use xlink:href="#DejaVuSans-38" x="95.410156"/>
      </g>
     </g>
    </g>
    <g id="ytick_22">
     <g id="line2d_38">
      <g>
       <use xlink:href="#m970e22f0da" x="606.332" y="14.76" style="stroke: #000000; stroke-width: 0.8"/>
      </g>
     </g>
     <g id="text_40">
      <!-- 1.0 -->
      <g transform="translate(613.332 18.559219) scale(0.1 -0.1)">
       <use xlink:href="#DejaVuSans-31"/>
       <use xlink:href="#DejaVuSans-2e" x="63.623047"/>
       <use xlink:href="#DejaVuSans-30" x="95.410156"/>
      </g>
     </g>
    </g>
   </g>
   <g id="LineCollection_1"/>
   <g id="patch_14">
    <path d="M 596.568 210.04 
L 601.45 210.04 
L 606.332 210.04 
L 606.332 14.76 
L 601.45 14.76 
L 596.568 14.76 
L 596.568 210.04 
z
" style="fill: none; stroke: #000000; stroke-width: 0.8; stroke-linejoin: miter; stroke-linecap: square"/>
   </g>
  </g>
 </g>
 <defs>
  <clipPath id="p8fca929c8f">
   <rect x="50.87" y="14.76" width="270.88" height="195.28"/>
  </clipPath>
  <clipPath id="p03eb39a3fa">
   <rect x="366.32" y="14.76" width="216.704" height="195.28"/>
  </clipPath>
  <clipPath id="p1988bcb396">
   <rect x="596.568" y="14.76" width="9.764" height="195.28"/>
  </clipPath>
 </defs>
</svg>
