<?xml version="1.0" encoding="utf-8" standalone="no"?>
<!DOCTYPE svg PUBLIC "-//W3C//DTD SVG 1.1//EN"
  "http://www.w3.org/Graphics/SVG/1.1/DTD/svg11.dtd">
<svg xmlns:xlink="http://www.w3.org/1999/xlink" width="792pt" height="252pt" viewBox="0 0 792 252" xmlns="http://www.w3.org/2000/svg" version="1.1">
 <metadata>
  <rdf:RDF xmlns:dc="http://purl.org/dc/elements/1.1/" xmlns:cc="http://creativecommons.org/ns#" xmlns:rdf="http://www.w3.org/1999/02/22-rdf-syntax-ns#">
   <cc:Work>
    <dc:type rdf:resource="http://purl.org/dc/dcmitype/StillImage"/>
    <dc:date>2023-12-20T15:26:07.484326</dc:date>
    <dc:format>image/svg+xml</dc:format>
    <dc:creator>
     <cc:Agent>
      <dc:title>Matplotlib v3.8.1, https://matplotlib.org/</dc:title>
     </cc:Agent>
    </dc:creator>
   </cc:Work>
  </rdf:RDF>
 </metadata>
 <defs>
  <style type="text/css">*{stroke-linejoin: round; stroke-linecap: butt}</style>
 </defs>
 <g id="figure_1">
  <g id="patch_1">
   <path d="M 0 252 
L 792 252 
L 792 0 
L 0 0 
z
" style="fill: #ffffff"/>
  </g>
  <g id="axes_1">
   <g id="patch_2">
    <path d="M 48.62 210.04 
L 252.092337 210.04 
L 252.092337 14.76 
L 48.62 14.76 
z
" style="fill: #ffffff"/>
   </g>
   <g id="matplotlib.axis_1">
    <g id="xtick_1">
     <g id="line2d_1">
      <defs>
       <path id="md595f2627f" d="M 0 0 
L 0 3.5 
" style="stroke: #262626; stroke-width: 0.8"/>
      </defs>
      <g>
       <use xlink:href="#md595f2627f" x="57.868743" y="210.04" style="fill: #262626; stroke: #262626; stroke-width: 0.8"/>
      </g>
     </g>
     <g id="text_1">
      <!-- 0 -->
      <g style="fill: #262626" transform="translate(55.088274 224.197812) scale(0.1 -0.1)">
       <defs>
        <path id="ArialMT-30" d="M 266 2259 
Q 266 3072 433 3567 
Q 600 4063 929 4331 
Q 1259 4600 1759 4600 
Q 2128 4600 2406 4451 
Q 2684 4303 2865 4023 
Q 3047 3744 3150 3342 
Q 3253 2941 3253 2259 
Q 3253 1453 3087 958 
Q 2922 463 2592 192 
Q 2263 -78 1759 -78 
Q 1097 -78 719 397 
Q 266 969 266 2259 
z
M 844 2259 
Q 844 1131 1108 757 
Q 1372 384 1759 384 
Q 2147 384 2411 759 
Q 2675 1134 2675 2259 
Q 2675 3391 2411 3762 
Q 2147 4134 1753 4134 
Q 1366 4134 1134 3806 
Q 844 3388 844 2259 
z
" transform="scale(0.015625)"/>
       </defs>
       <use xlink:href="#ArialMT-30"/>
      </g>
     </g>
    </g>
    <g id="xtick_2">
     <g id="line2d_2">
      <g>
       <use xlink:href="#md595f2627f" x="101.609726" y="210.04" style="fill: #262626; stroke: #262626; stroke-width: 0.8"/>
      </g>
     </g>
     <g id="text_2">
      <!-- 50 -->
      <g style="fill: #262626" transform="translate(96.048789 224.197812) scale(0.1 -0.1)">
       <defs>
        <path id="ArialMT-35" d="M 266 1200 
L 856 1250 
Q 922 819 1161 601 
Q 1400 384 1738 384 
Q 2144 384 2425 690 
Q 2706 997 2706 1503 
Q 2706 1984 2436 2262 
Q 2166 2541 1728 2541 
Q 1456 2541 1237 2417 
Q 1019 2294 894 2097 
L 366 2166 
L 809 4519 
L 3088 4519 
L 3088 3981 
L 1259 3981 
L 1013 2750 
Q 1425 3038 1878 3038 
Q 2478 3038 2890 2622 
Q 3303 2206 3303 1553 
Q 3303 931 2941 478 
Q 2500 -78 1738 -78 
Q 1113 -78 717 272 
Q 322 622 266 1200 
z
" transform="scale(0.015625)"/>
       </defs>
       <use xlink:href="#ArialMT-35"/>
       <use xlink:href="#ArialMT-30" x="55.615234"/>
      </g>
     </g>
    </g>
    <g id="xtick_3">
     <g id="line2d_3">
      <g>
       <use xlink:href="#md595f2627f" x="145.35071" y="210.04" style="fill: #262626; stroke: #262626; stroke-width: 0.8"/>
      </g>
     </g>
     <g id="text_3">
      <!-- 100 -->
      <g style="fill: #262626" transform="translate(137.009303 224.197812) scale(0.1 -0.1)">
       <defs>
        <path id="ArialMT-31" d="M 2384 0 
L 1822 0 
L 1822 3584 
Q 1619 3391 1289 3197 
Q 959 3003 697 2906 
L 697 3450 
Q 1169 3672 1522 3987 
Q 1875 4303 2022 4600 
L 2384 4600 
L 2384 0 
z
" transform="scale(0.015625)"/>
       </defs>
       <use xlink:href="#ArialMT-31"/>
       <use xlink:href="#ArialMT-30" x="55.615234"/>
       <use xlink:href="#ArialMT-30" x="111.230469"/>
      </g>
     </g>
    </g>
    <g id="xtick_4">
     <g id="line2d_4">
      <g>
       <use xlink:href="#md595f2627f" x="189.091693" y="210.04" style="fill: #262626; stroke: #262626; stroke-width: 0.8"/>
      </g>
     </g>
     <g id="text_4">
      <!-- 150 -->
      <g style="fill: #262626" transform="translate(180.750287 224.197812) scale(0.1 -0.1)">
       <use xlink:href="#ArialMT-31"/>
       <use xlink:href="#ArialMT-35" x="55.615234"/>
       <use xlink:href="#ArialMT-30" x="111.230469"/>
      </g>
     </g>
    </g>
    <g id="xtick_5">
     <g id="line2d_5">
      <g>
       <use xlink:href="#md595f2627f" x="232.832677" y="210.04" style="fill: #262626; stroke: #262626; stroke-width: 0.8"/>
      </g>
     </g>
     <g id="text_5">
      <!-- 200 -->
      <g style="fill: #262626" transform="translate(224.49127 224.197812) scale(0.1 -0.1)">
       <defs>
        <path id="ArialMT-32" d="M 3222 541 
L 3222 0 
L 194 0 
Q 188 203 259 391 
Q 375 700 629 1000 
Q 884 1300 1366 1694 
Q 2113 2306 2375 2664 
Q 2638 3022 2638 3341 
Q 2638 3675 2398 3904 
Q 2159 4134 1775 4134 
Q 1369 4134 1125 3890 
Q 881 3647 878 3216 
L 300 3275 
Q 359 3922 746 4261 
Q 1134 4600 1788 4600 
Q 2447 4600 2831 4234 
Q 3216 3869 3216 3328 
Q 3216 3053 3103 2787 
Q 2991 2522 2730 2228 
Q 2469 1934 1863 1422 
Q 1356 997 1212 845 
Q 1069 694 975 541 
L 3222 541 
z
" transform="scale(0.015625)"/>
       </defs>
       <use xlink:href="#ArialMT-32"/>
       <use xlink:href="#ArialMT-30" x="55.615234"/>
       <use xlink:href="#ArialMT-30" x="111.230469"/>
      </g>
     </g>
    </g>
    <g id="text_6">
     <!-- [GGPP] (µM) -->
     <g style="fill: #262626" transform="translate(121.364762 237.465) scale(0.1 -0.1)">
      <defs>
       <path id="ArialMT-5b" d="M 434 -1272 
L 434 4581 
L 1675 4581 
L 1675 4116 
L 997 4116 
L 997 -806 
L 1675 -806 
L 1675 -1272 
L 434 -1272 
z
" transform="scale(0.015625)"/>
       <path id="ArialMT-47" d="M 2638 1797 
L 2638 2334 
L 4578 2338 
L 4578 638 
Q 4131 281 3656 101 
Q 3181 -78 2681 -78 
Q 2006 -78 1454 211 
Q 903 500 622 1047 
Q 341 1594 341 2269 
Q 341 2938 620 3517 
Q 900 4097 1425 4378 
Q 1950 4659 2634 4659 
Q 3131 4659 3532 4498 
Q 3934 4338 4162 4050 
Q 4391 3763 4509 3300 
L 3963 3150 
Q 3859 3500 3706 3700 
Q 3553 3900 3268 4020 
Q 2984 4141 2638 4141 
Q 2222 4141 1919 4014 
Q 1616 3888 1430 3681 
Q 1244 3475 1141 3228 
Q 966 2803 966 2306 
Q 966 1694 1177 1281 
Q 1388 869 1791 669 
Q 2194 469 2647 469 
Q 3041 469 3416 620 
Q 3791 772 3984 944 
L 3984 1797 
L 2638 1797 
z
" transform="scale(0.015625)"/>
       <path id="ArialMT-50" d="M 494 0 
L 494 4581 
L 2222 4581 
Q 2678 4581 2919 4538 
Q 3256 4481 3484 4323 
Q 3713 4166 3852 3881 
Q 3991 3597 3991 3256 
Q 3991 2672 3619 2267 
Q 3247 1863 2275 1863 
L 1100 1863 
L 1100 0 
L 494 0 
z
M 1100 2403 
L 2284 2403 
Q 2872 2403 3119 2622 
Q 3366 2841 3366 3238 
Q 3366 3525 3220 3729 
Q 3075 3934 2838 4000 
Q 2684 4041 2272 4041 
L 1100 4041 
L 1100 2403 
z
" transform="scale(0.015625)"/>
       <path id="ArialMT-5d" d="M 1363 -1272 
L 122 -1272 
L 122 -806 
L 800 -806 
L 800 4116 
L 122 4116 
L 122 4581 
L 1363 4581 
L 1363 -1272 
z
" transform="scale(0.015625)"/>
       <path id="ArialMT-20" transform="scale(0.015625)"/>
       <path id="ArialMT-28" d="M 1497 -1347 
Q 1031 -759 709 28 
Q 388 816 388 1659 
Q 388 2403 628 3084 
Q 909 3875 1497 4659 
L 1900 4659 
Q 1522 4009 1400 3731 
Q 1209 3300 1100 2831 
Q 966 2247 966 1656 
Q 966 153 1900 -1347 
L 1497 -1347 
z
" transform="scale(0.015625)"/>
       <path id="ArialMT-b5" d="M 3181 3319 
L 3181 0 
L 2678 0 
L 2678 394 
Q 2516 144 2356 50 
Q 2138 -78 1847 -78 
Q 1588 -78 1388 25 
Q 1238 103 1056 334 
L 1056 -1272 
L 500 -1272 
L 500 3319 
L 1056 3319 
L 1056 1913 
Q 1056 1147 1137 920 
Q 1219 694 1401 562 
Q 1584 431 1822 431 
Q 2072 431 2269 568 
Q 2466 706 2547 923 
Q 2628 1141 2628 1903 
L 2628 3319 
L 3181 3319 
z
" transform="scale(0.015625)"/>
       <path id="ArialMT-4d" d="M 475 0 
L 475 4581 
L 1388 4581 
L 2472 1338 
Q 2622 884 2691 659 
Q 2769 909 2934 1394 
L 4031 4581 
L 4847 4581 
L 4847 0 
L 4263 0 
L 4263 3834 
L 2931 0 
L 2384 0 
L 1059 3900 
L 1059 0 
L 475 0 
z
" transform="scale(0.015625)"/>
       <path id="ArialMT-29" d="M 791 -1347 
L 388 -1347 
Q 1322 153 1322 1656 
Q 1322 2244 1188 2822 
Q 1081 3291 891 3722 
Q 769 4003 388 4659 
L 791 4659 
Q 1378 3875 1659 3084 
Q 1900 2403 1900 1659 
Q 1900 816 1576 28 
Q 1253 -759 791 -1347 
z
" transform="scale(0.015625)"/>
      </defs>
      <use xlink:href="#ArialMT-5b"/>
      <use xlink:href="#ArialMT-47" x="27.783203"/>
      <use xlink:href="#ArialMT-47" x="105.566406"/>
      <use xlink:href="#ArialMT-50" x="183.349609"/>
      <use xlink:href="#ArialMT-50" x="250.048828"/>
      <use xlink:href="#ArialMT-5d" x="316.748047"/>
      <use xlink:href="#ArialMT-20" x="344.53125"/>
      <use xlink:href="#ArialMT-28" x="372.314453"/>
      <use xlink:href="#ArialMT-b5" x="405.615234"/>
      <use xlink:href="#ArialMT-4d" x="463.232422"/>
      <use xlink:href="#ArialMT-29" x="546.533203"/>
     </g>
    </g>
   </g>
   <g id="matplotlib.axis_2">
    <g id="ytick_1">
     <g id="line2d_6">
      <defs>
       <path id="m6e6befd59c" d="M 0 0 
L -3.5 0 
" style="stroke: #262626; stroke-width: 0.8"/>
      </defs>
      <g>
       <use xlink:href="#m6e6befd59c" x="48.62" y="201.163636" style="fill: #262626; stroke: #262626; stroke-width: 0.8"/>
      </g>
     </g>
     <g id="text_7">
      <!-- 0 -->
      <g style="fill: #262626" transform="translate(36.059063 204.742543) scale(0.1 -0.1)">
       <use xlink:href="#ArialMT-30"/>
      </g>
     </g>
    </g>
    <g id="ytick_2">
     <g id="line2d_7">
      <g>
       <use xlink:href="#m6e6befd59c" x="48.62" y="163.103502" style="fill: #262626; stroke: #262626; stroke-width: 0.8"/>
      </g>
     </g>
     <g id="text_8">
      <!-- 100 -->
      <g style="fill: #262626" transform="translate(24.937188 166.682409) scale(0.1 -0.1)">
       <use xlink:href="#ArialMT-31"/>
       <use xlink:href="#ArialMT-30" x="55.615234"/>
       <use xlink:href="#ArialMT-30" x="111.230469"/>
      </g>
     </g>
    </g>
    <g id="ytick_3">
     <g id="line2d_8">
      <g>
       <use xlink:href="#m6e6befd59c" x="48.62" y="125.043369" style="fill: #262626; stroke: #262626; stroke-width: 0.8"/>
      </g>
     </g>
     <g id="text_9">
      <!-- 200 -->
      <g style="fill: #262626" transform="translate(24.937188 128.622275) scale(0.1 -0.1)">
       <use xlink:href="#ArialMT-32"/>
       <use xlink:href="#ArialMT-30" x="55.615234"/>
       <use xlink:href="#ArialMT-30" x="111.230469"/>
      </g>
     </g>
    </g>
    <g id="ytick_4">
     <g id="line2d_9">
      <g>
       <use xlink:href="#m6e6befd59c" x="48.62" y="86.983235" style="fill: #262626; stroke: #262626; stroke-width: 0.8"/>
      </g>
     </g>
     <g id="text_10">
      <!-- 300 -->
      <g style="fill: #262626" transform="translate(24.937188 90.562141) scale(0.1 -0.1)">
       <defs>
        <path id="ArialMT-33" d="M 269 1209 
L 831 1284 
Q 928 806 1161 595 
Q 1394 384 1728 384 
Q 2125 384 2398 659 
Q 2672 934 2672 1341 
Q 2672 1728 2419 1979 
Q 2166 2231 1775 2231 
Q 1616 2231 1378 2169 
L 1441 2663 
Q 1497 2656 1531 2656 
Q 1891 2656 2178 2843 
Q 2466 3031 2466 3422 
Q 2466 3731 2256 3934 
Q 2047 4138 1716 4138 
Q 1388 4138 1169 3931 
Q 950 3725 888 3313 
L 325 3413 
Q 428 3978 793 4289 
Q 1159 4600 1703 4600 
Q 2078 4600 2393 4439 
Q 2709 4278 2876 4000 
Q 3044 3722 3044 3409 
Q 3044 3113 2884 2869 
Q 2725 2625 2413 2481 
Q 2819 2388 3044 2092 
Q 3269 1797 3269 1353 
Q 3269 753 2831 336 
Q 2394 -81 1725 -81 
Q 1122 -81 723 278 
Q 325 638 269 1209 
z
" transform="scale(0.015625)"/>
       </defs>
       <use xlink:href="#ArialMT-33"/>
       <use xlink:href="#ArialMT-30" x="55.615234"/>
       <use xlink:href="#ArialMT-30" x="111.230469"/>
      </g>
     </g>
    </g>
    <g id="ytick_5">
     <g id="line2d_10">
      <g>
       <use xlink:href="#m6e6befd59c" x="48.62" y="48.923101" style="fill: #262626; stroke: #262626; stroke-width: 0.8"/>
      </g>
     </g>
     <g id="text_11">
      <!-- 400 -->
      <g style="fill: #262626" transform="translate(24.937188 52.502007) scale(0.1 -0.1)">
       <defs>
        <path id="ArialMT-34" d="M 2069 0 
L 2069 1097 
L 81 1097 
L 81 1613 
L 2172 4581 
L 2631 4581 
L 2631 1613 
L 3250 1613 
L 3250 1097 
L 2631 1097 
L 2631 0 
L 2069 0 
z
M 2069 1613 
L 2069 3678 
L 634 1613 
L 2069 1613 
z
" transform="scale(0.015625)"/>
       </defs>
       <use xlink:href="#ArialMT-34"/>
       <use xlink:href="#ArialMT-30" x="55.615234"/>
       <use xlink:href="#ArialMT-30" x="111.230469"/>
      </g>
     </g>
    </g>
    <g id="text_12">
     <!-- Phytoene flux (µM/h) -->
     <g style="fill: #262626" transform="translate(18.8325 158.630469) rotate(-90) scale(0.1 -0.1)">
      <defs>
       <path id="ArialMT-68" d="M 422 0 
L 422 4581 
L 984 4581 
L 984 2938 
Q 1378 3394 1978 3394 
Q 2347 3394 2619 3248 
Q 2891 3103 3008 2847 
Q 3125 2591 3125 2103 
L 3125 0 
L 2563 0 
L 2563 2103 
Q 2563 2525 2380 2717 
Q 2197 2909 1863 2909 
Q 1613 2909 1392 2779 
Q 1172 2650 1078 2428 
Q 984 2206 984 1816 
L 984 0 
L 422 0 
z
" transform="scale(0.015625)"/>
       <path id="ArialMT-79" d="M 397 -1278 
L 334 -750 
Q 519 -800 656 -800 
Q 844 -800 956 -737 
Q 1069 -675 1141 -563 
Q 1194 -478 1313 -144 
Q 1328 -97 1363 -6 
L 103 3319 
L 709 3319 
L 1400 1397 
Q 1534 1031 1641 628 
Q 1738 1016 1872 1384 
L 2581 3319 
L 3144 3319 
L 1881 -56 
Q 1678 -603 1566 -809 
Q 1416 -1088 1222 -1217 
Q 1028 -1347 759 -1347 
Q 597 -1347 397 -1278 
z
" transform="scale(0.015625)"/>
       <path id="ArialMT-74" d="M 1650 503 
L 1731 6 
Q 1494 -44 1306 -44 
Q 1000 -44 831 53 
Q 663 150 594 308 
Q 525 466 525 972 
L 525 2881 
L 113 2881 
L 113 3319 
L 525 3319 
L 525 4141 
L 1084 4478 
L 1084 3319 
L 1650 3319 
L 1650 2881 
L 1084 2881 
L 1084 941 
Q 1084 700 1114 631 
Q 1144 563 1211 522 
Q 1278 481 1403 481 
Q 1497 481 1650 503 
z
" transform="scale(0.015625)"/>
       <path id="ArialMT-6f" d="M 213 1659 
Q 213 2581 725 3025 
Q 1153 3394 1769 3394 
Q 2453 3394 2887 2945 
Q 3322 2497 3322 1706 
Q 3322 1066 3130 698 
Q 2938 331 2570 128 
Q 2203 -75 1769 -75 
Q 1072 -75 642 372 
Q 213 819 213 1659 
z
M 791 1659 
Q 791 1022 1069 705 
Q 1347 388 1769 388 
Q 2188 388 2466 706 
Q 2744 1025 2744 1678 
Q 2744 2294 2464 2611 
Q 2184 2928 1769 2928 
Q 1347 2928 1069 2612 
Q 791 2297 791 1659 
z
" transform="scale(0.015625)"/>
       <path id="ArialMT-65" d="M 2694 1069 
L 3275 997 
Q 3138 488 2766 206 
Q 2394 -75 1816 -75 
Q 1088 -75 661 373 
Q 234 822 234 1631 
Q 234 2469 665 2931 
Q 1097 3394 1784 3394 
Q 2450 3394 2872 2941 
Q 3294 2488 3294 1666 
Q 3294 1616 3291 1516 
L 816 1516 
Q 847 969 1125 678 
Q 1403 388 1819 388 
Q 2128 388 2347 550 
Q 2566 713 2694 1069 
z
M 847 1978 
L 2700 1978 
Q 2663 2397 2488 2606 
Q 2219 2931 1791 2931 
Q 1403 2931 1139 2672 
Q 875 2413 847 1978 
z
" transform="scale(0.015625)"/>
       <path id="ArialMT-6e" d="M 422 0 
L 422 3319 
L 928 3319 
L 928 2847 
Q 1294 3394 1984 3394 
Q 2284 3394 2536 3286 
Q 2788 3178 2913 3003 
Q 3038 2828 3088 2588 
Q 3119 2431 3119 2041 
L 3119 0 
L 2556 0 
L 2556 2019 
Q 2556 2363 2490 2533 
Q 2425 2703 2258 2804 
Q 2091 2906 1866 2906 
Q 1506 2906 1245 2678 
Q 984 2450 984 1813 
L 984 0 
L 422 0 
z
" transform="scale(0.015625)"/>
       <path id="ArialMT-66" d="M 556 0 
L 556 2881 
L 59 2881 
L 59 3319 
L 556 3319 
L 556 3672 
Q 556 4006 616 4169 
Q 697 4388 901 4523 
Q 1106 4659 1475 4659 
Q 1713 4659 2000 4603 
L 1916 4113 
Q 1741 4144 1584 4144 
Q 1328 4144 1222 4034 
Q 1116 3925 1116 3625 
L 1116 3319 
L 1763 3319 
L 1763 2881 
L 1116 2881 
L 1116 0 
L 556 0 
z
" transform="scale(0.015625)"/>
       <path id="ArialMT-6c" d="M 409 0 
L 409 4581 
L 972 4581 
L 972 0 
L 409 0 
z
" transform="scale(0.015625)"/>
       <path id="ArialMT-75" d="M 2597 0 
L 2597 488 
Q 2209 -75 1544 -75 
Q 1250 -75 995 37 
Q 741 150 617 320 
Q 494 491 444 738 
Q 409 903 409 1263 
L 409 3319 
L 972 3319 
L 972 1478 
Q 972 1038 1006 884 
Q 1059 663 1231 536 
Q 1403 409 1656 409 
Q 1909 409 2131 539 
Q 2353 669 2445 892 
Q 2538 1116 2538 1541 
L 2538 3319 
L 3100 3319 
L 3100 0 
L 2597 0 
z
" transform="scale(0.015625)"/>
       <path id="ArialMT-78" d="M 47 0 
L 1259 1725 
L 138 3319 
L 841 3319 
L 1350 2541 
Q 1494 2319 1581 2169 
Q 1719 2375 1834 2534 
L 2394 3319 
L 3066 3319 
L 1919 1756 
L 3153 0 
L 2463 0 
L 1781 1031 
L 1600 1309 
L 728 0 
L 47 0 
z
" transform="scale(0.015625)"/>
       <path id="ArialMT-2f" d="M 0 -78 
L 1328 4659 
L 1778 4659 
L 453 -78 
L 0 -78 
z
" transform="scale(0.015625)"/>
      </defs>
      <use xlink:href="#ArialMT-50"/>
      <use xlink:href="#ArialMT-68" x="66.699219"/>
      <use xlink:href="#ArialMT-79" x="122.314453"/>
      <use xlink:href="#ArialMT-74" x="172.314453"/>
      <use xlink:href="#ArialMT-6f" x="200.097656"/>
      <use xlink:href="#ArialMT-65" x="255.712891"/>
      <use xlink:href="#ArialMT-6e" x="311.328125"/>
      <use xlink:href="#ArialMT-65" x="366.943359"/>
      <use xlink:href="#ArialMT-20" x="422.558594"/>
      <use xlink:href="#ArialMT-66" x="450.341797"/>
      <use xlink:href="#ArialMT-6c" x="478.125"/>
      <use xlink:href="#ArialMT-75" x="500.341797"/>
      <use xlink:href="#ArialMT-78" x="555.957031"/>
      <use xlink:href="#ArialMT-20" x="605.957031"/>
      <use xlink:href="#ArialMT-28" x="633.740234"/>
      <use xlink:href="#ArialMT-b5" x="667.041016"/>
      <use xlink:href="#ArialMT-4d" x="724.658203"/>
      <use xlink:href="#ArialMT-2f" x="807.958984"/>
      <use xlink:href="#ArialMT-68" x="835.742188"/>
      <use xlink:href="#ArialMT-29" x="891.357422"/>
     </g>
    </g>
   </g>
   <g id="PolyCollection_1">
    <defs>
     <path id="m3764fe0d85" d="M 57.868743 -50.836364 
L 57.868743 -50.836364 
L 58.793617 -52.576505 
L 59.718491 -54.299004 
L 60.643365 -56.004129 
L 61.56824 -57.692141 
L 62.493114 -59.363297 
L 63.417988 -61.017847 
L 64.342862 -62.656038 
L 65.267737 -64.278641 
L 66.192611 -65.88579 
L 67.117485 -67.47747 
L 68.042359 -69.053901 
L 68.967234 -70.615303 
L 69.892108 -72.161889 
L 70.816982 -73.69387 
L 71.741856 -75.21145 
L 72.666731 -76.714832 
L 73.591605 -78.204215 
L 74.516479 -79.679793 
L 75.441354 -81.141757 
L 76.366228 -82.590294 
L 77.291102 -84.02559 
L 78.215976 -85.447823 
L 79.140851 -86.857439 
L 80.065725 -88.254478 
L 80.990599 -89.642501 
L 81.915473 -91.02544 
L 82.840348 -92.38442 
L 83.765222 -93.731252 
L 84.690096 -95.065932 
L 85.61497 -96.388963 
L 86.539845 -97.700357 
L 87.464719 -99.000266 
L 88.389593 -100.28884 
L 89.314467 -101.566227 
L 90.239342 -102.832572 
L 91.164216 -104.088017 
L 92.08909 -105.332703 
L 93.013964 -106.566767 
L 93.938839 -107.793556 
L 94.863713 -109.018127 
L 95.788587 -110.233109 
L 96.713461 -111.441585 
L 97.638336 -112.634351 
L 98.56321 -113.798324 
L 99.488084 -114.951971 
L 100.412959 -116.107456 
L 101.337833 -117.263983 
L 102.262707 -118.411744 
L 103.187581 -119.550554 
L 104.112456 -120.667722 
L 105.03733 -121.765176 
L 105.962204 -122.853449 
L 106.887078 -123.932656 
L 107.811953 -125.002911 
L 108.736827 -126.091711 
L 109.661701 -127.163054 
L 110.586575 -128.196859 
L 111.51145 -129.242349 
L 112.436324 -130.269712 
L 113.361198 -131.288749 
L 114.286072 -132.302255 
L 115.210947 -133.316921 
L 116.135821 -134.323755 
L 117.060695 -135.322846 
L 117.985569 -136.308601 
L 118.910444 -137.27452 
L 119.835318 -138.2327 
L 120.760192 -139.183393 
L 121.685066 -140.13577 
L 122.609941 -141.084649 
L 123.534815 -142.013165 
L 124.459689 -142.941073 
L 125.384564 -143.858601 
L 126.309438 -144.775821 
L 127.234312 -145.698886 
L 128.159186 -146.613372 
L 129.084061 -147.500958 
L 130.008935 -148.386743 
L 130.933809 -149.262337 
L 131.858683 -150.117228 
L 132.783558 -150.980901 
L 133.708432 -151.844824 
L 134.633306 -152.699658 
L 135.55818 -153.525911 
L 136.483055 -154.337449 
L 137.407929 -155.168474 
L 138.332803 -155.981084 
L 139.257677 -156.799525 
L 140.182552 -157.608222 
L 141.107426 -158.403563 
L 142.0323 -159.192968 
L 142.957174 -159.973045 
L 143.882049 -160.753435 
L 144.806923 -161.518901 
L 145.731797 -162.255892 
L 146.656671 -163.012979 
L 147.581546 -163.758877 
L 148.50642 -164.486856 
L 149.431294 -165.21209 
L 150.356169 -165.906504 
L 151.281043 -166.623696 
L 152.205917 -167.340035 
L 153.130791 -168.044193 
L 154.055666 -168.790056 
L 154.98054 -169.486765 
L 155.905414 -170.202482 
L 156.830288 -170.878459 
L 157.755163 -171.600102 
L 158.680037 -172.249074 
L 159.604911 -172.879875 
L 160.529785 -173.530805 
L 161.45466 -174.191081 
L 162.379534 -174.83144 
L 163.304408 -175.457621 
L 164.229282 -176.090739 
L 165.154157 -176.722365 
L 166.079031 -177.345689 
L 167.003905 -177.956986 
L 167.928779 -178.543857 
L 168.853654 -179.102189 
L 169.778528 -179.684615 
L 170.703402 -180.266007 
L 171.628276 -180.845306 
L 172.553151 -181.422026 
L 173.478025 -181.987538 
L 174.402899 -182.526245 
L 175.327774 -183.075731 
L 176.252648 -183.620638 
L 177.177522 -184.170862 
L 178.102396 -184.721185 
L 179.027271 -185.296212 
L 179.952145 -185.871536 
L 180.877019 -186.409945 
L 181.801893 -186.944532 
L 182.726768 -187.464682 
L 183.651642 -187.959012 
L 184.576516 -188.449636 
L 185.50139 -188.939881 
L 186.426265 -189.446737 
L 187.351139 -189.91282 
L 188.276013 -190.394872 
L 189.200887 -190.871707 
L 190.125762 -191.361295 
L 191.050636 -191.838769 
L 191.97551 -192.261663 
L 192.900384 -192.738694 
L 193.825259 -193.213286 
L 194.750133 -193.684635 
L 195.675007 -194.158685 
L 196.599881 -194.652356 
L 197.524756 -195.120319 
L 198.44963 -195.548732 
L 199.374504 -195.992871 
L 200.299379 -196.44659 
L 201.224253 -196.900135 
L 202.149127 -197.350646 
L 203.074001 -197.798152 
L 203.998876 -198.242683 
L 204.92375 -198.660357 
L 205.848624 -199.093068 
L 206.773498 -199.503781 
L 207.698373 -199.875502 
L 208.623247 -200.218553 
L 209.548121 -200.575734 
L 210.472995 -200.992081 
L 211.39787 -201.405693 
L 212.322744 -201.817818 
L 213.247618 -202.224975 
L 214.172492 -202.603775 
L 215.097367 -202.979985 
L 216.022241 -203.353632 
L 216.947115 -203.724742 
L 217.871989 -204.093341 
L 218.796864 -204.459454 
L 219.721738 -204.823106 
L 220.646612 -205.184323 
L 221.571486 -205.543128 
L 222.496361 -205.899545 
L 223.421235 -206.253599 
L 224.346109 -206.605312 
L 225.270984 -206.954708 
L 226.195858 -207.30181 
L 227.120732 -207.64664 
L 228.045606 -207.98922 
L 228.970481 -208.321569 
L 229.895355 -208.651815 
L 230.820229 -208.999091 
L 231.745103 -209.343987 
L 232.669978 -209.686497 
L 233.594852 -210.026861 
L 234.519726 -210.365101 
L 235.4446 -210.698343 
L 236.369475 -211.024893 
L 237.294349 -211.368666 
L 238.219223 -211.699143 
L 239.144097 -212.029396 
L 240.068972 -212.353446 
L 240.993846 -212.677891 
L 241.91872 -213.009678 
L 241.91872 -228.363636 
L 241.91872 -228.363636 
L 240.993846 -227.912755 
L 240.068972 -227.484748 
L 239.144097 -227.05447 
L 238.219223 -226.621902 
L 237.294349 -226.159965 
L 236.369475 -225.713907 
L 235.4446 -225.269499 
L 234.519726 -224.822726 
L 233.594852 -224.372672 
L 232.669978 -223.917415 
L 231.745103 -223.467141 
L 230.820229 -223.01144 
L 229.895355 -222.552715 
L 228.970481 -222.091132 
L 228.045606 -221.625239 
L 227.120732 -221.08569 
L 226.195858 -220.543423 
L 225.270984 -219.998667 
L 224.346109 -219.514496 
L 223.421235 -219.059713 
L 222.496361 -218.601881 
L 221.571486 -218.1413 
L 220.646612 -217.678051 
L 219.721738 -217.212111 
L 218.796864 -216.741409 
L 217.871989 -216.228476 
L 216.947115 -215.712796 
L 216.022241 -215.193397 
L 215.097367 -214.671111 
L 214.172492 -214.146012 
L 213.247618 -213.626446 
L 212.322744 -213.14144 
L 211.39787 -212.653526 
L 210.472995 -212.121519 
L 209.548121 -211.584875 
L 208.623247 -211.045271 
L 207.698373 -210.502684 
L 206.773498 -209.989028 
L 205.848624 -209.483497 
L 204.92375 -208.974333 
L 203.998876 -208.447158 
L 203.074001 -207.946133 
L 202.149127 -207.430007 
L 201.224253 -206.842824 
L 200.299379 -206.32254 
L 199.374504 -205.7982 
L 198.44963 -205.248933 
L 197.524756 -204.703457 
L 196.599881 -204.184035 
L 195.675007 -203.634633 
L 194.750133 -203.065997 
L 193.825259 -202.492757 
L 192.900384 -201.915229 
L 191.97551 -201.345824 
L 191.050636 -200.753021 
L 190.125762 -200.166971 
L 189.200887 -199.596278 
L 188.276013 -199.032608 
L 187.351139 -198.46388 
L 186.426265 -197.891411 
L 185.50139 -197.314265 
L 184.576516 -196.738579 
L 183.651642 -196.160831 
L 182.726768 -195.580951 
L 181.801893 -195.033785 
L 180.877019 -194.457701 
L 179.952145 -193.839761 
L 179.027271 -193.21194 
L 178.102396 -192.580076 
L 177.177522 -191.950027 
L 176.252648 -191.367665 
L 175.327774 -190.781148 
L 174.402899 -190.170536 
L 173.478025 -189.51712 
L 172.553151 -188.85808 
L 171.628276 -188.214035 
L 170.703402 -187.573577 
L 169.778528 -186.954157 
L 168.853654 -186.316356 
L 167.928779 -185.671683 
L 167.003905 -185.02536 
L 166.079031 -184.376393 
L 165.154157 -183.780247 
L 164.229282 -183.103613 
L 163.304408 -182.46046 
L 162.379534 -181.829581 
L 161.45466 -181.166721 
L 160.529785 -180.494835 
L 159.604911 -179.807249 
L 158.680037 -179.122311 
L 157.755163 -178.406696 
L 156.830288 -177.691622 
L 155.905414 -177.014951 
L 154.98054 -176.331943 
L 154.055666 -175.642823 
L 153.130791 -174.957419 
L 152.205917 -174.248177 
L 151.281043 -173.543123 
L 150.356169 -172.819484 
L 149.431294 -172.072413 
L 148.50642 -171.36884 
L 147.581546 -170.659132 
L 146.656671 -169.928778 
L 145.731797 -169.195046 
L 144.806923 -168.440712 
L 143.882049 -167.686292 
L 142.957174 -166.926504 
L 142.0323 -166.225628 
L 141.107426 -165.444333 
L 140.182552 -164.656136 
L 139.257677 -163.860952 
L 138.332803 -163.058361 
L 137.407929 -162.248819 
L 136.483055 -161.503567 
L 135.55818 -160.715858 
L 134.633306 -159.897231 
L 133.708432 -159.112804 
L 132.783558 -158.249913 
L 131.858683 -157.457871 
L 130.933809 -156.634494 
L 130.008935 -155.736878 
L 129.084061 -154.857978 
L 128.159186 -154.026148 
L 127.234312 -153.15193 
L 126.309438 -152.32001 
L 125.384564 -151.447459 
L 124.459689 -150.548393 
L 123.534815 -149.642759 
L 122.609941 -148.720991 
L 121.685066 -147.794817 
L 120.760192 -146.891894 
L 119.835318 -145.987147 
L 118.910444 -145.072609 
L 117.985569 -144.148151 
L 117.060695 -143.219578 
L 116.135821 -142.282067 
L 115.210947 -141.310005 
L 114.286072 -140.29323 
L 113.361198 -139.269823 
L 112.436324 -138.244591 
L 111.51145 -137.208055 
L 110.586575 -136.168264 
L 109.661701 -135.16521 
L 108.736827 -134.117606 
L 107.811953 -133.075929 
L 106.887078 -132.022143 
L 105.962204 -130.956035 
L 105.03733 -129.876164 
L 104.112456 -128.78309 
L 103.187581 -127.677056 
L 102.262707 -126.562997 
L 101.337833 -125.425623 
L 100.412959 -124.280367 
L 99.488084 -123.121166 
L 98.56321 -121.947906 
L 97.638336 -120.771882 
L 96.713461 -119.580867 
L 95.788587 -118.373841 
L 94.863713 -117.122871 
L 93.938839 -115.857461 
L 93.013964 -114.592115 
L 92.08909 -113.307687 
L 91.164216 -112.013567 
L 90.239342 -110.699697 
L 89.314467 -109.368579 
L 88.389593 -108.010953 
L 87.464719 -106.624058 
L 86.539845 -105.219497 
L 85.61497 -103.797216 
L 84.690096 -102.356875 
L 83.765222 -100.916084 
L 82.840348 -99.463622 
L 81.915473 -97.970633 
L 80.990599 -96.449096 
L 80.065725 -94.907872 
L 79.140851 -93.361692 
L 78.215976 -91.807844 
L 77.291102 -90.213886 
L 76.366228 -88.605532 
L 75.441354 -86.983566 
L 74.516479 -85.337135 
L 73.591605 -83.662716 
L 72.666731 -81.947895 
L 71.741856 -80.220059 
L 70.816982 -78.468053 
L 69.892108 -76.68941 
L 68.967234 -74.883517 
L 68.042359 -73.049744 
L 67.117485 -71.187441 
L 66.192611 -69.295935 
L 65.267737 -67.374457 
L 64.342862 -65.422233 
L 63.417988 -63.438721 
L 62.493114 -61.423163 
L 61.56824 -59.374777 
L 60.643365 -57.291594 
L 59.718491 -55.17358 
L 58.793617 -53.022103 
L 57.868743 -50.836364 
z
" style="stroke: #ef553b; stroke-opacity: 0.3"/>
    </defs>
    <g clip-path="url(#pdf8235f2b8)">
     <use xlink:href="#m3764fe0d85" x="0" y="252" style="fill: #ef553b; fill-opacity: 0.3; stroke: #ef553b; stroke-opacity: 0.3"/>
    </g>
   </g>
   <g id="line2d_11">
    <defs>
     <path id="m7f00215d3c" d="M 0 2.5 
C 0.663008 2.5 1.29895 2.236584 1.767767 1.767767 
C 2.236584 1.29895 2.5 0.663008 2.5 0 
C 2.5 -0.663008 2.236584 -1.29895 1.767767 -1.767767 
C 1.29895 -2.236584 0.663008 -2.5 0 -2.5 
C -0.663008 -2.5 -1.29895 -2.236584 -1.767767 -1.767767 
C -2.236584 -1.29895 -2.5 -0.663008 -2.5 0 
C -2.5 0.663008 -2.236584 1.29895 -1.767767 1.767767 
C -1.29895 2.236584 -0.663008 2.5 0 2.5 
z
" style="stroke: #7c0a02"/>
    </defs>
    <g clip-path="url(#pdf8235f2b8)">
     <use xlink:href="#m7f00215d3c" x="61.286756" y="199.73082" style="fill: #cd5c5c; stroke: #7c0a02"/>
     <use xlink:href="#m7f00215d3c" x="63.096293" y="199.510387" style="fill: #cd5c5c; stroke: #7c0a02"/>
     <use xlink:href="#m7f00215d3c" x="62.694174" y="199.478022" style="fill: #cd5c5c; stroke: #7c0a02"/>
     <use xlink:href="#m7f00215d3c" x="77.974705" y="169.192063" style="fill: #cd5c5c; stroke: #7c0a02"/>
     <use xlink:href="#m7f00215d3c" x="81.995897" y="180.16999" style="fill: #cd5c5c; stroke: #7c0a02"/>
     <use xlink:href="#m7f00215d3c" x="86.01709" y="170.696607" style="fill: #cd5c5c; stroke: #7c0a02"/>
     <use xlink:href="#m7f00215d3c" x="124.218418" y="104.942758" style="fill: #cd5c5c; stroke: #7c0a02"/>
     <use xlink:href="#m7f00215d3c" x="142.313784" y="107.129596" style="fill: #cd5c5c; stroke: #7c0a02"/>
     <use xlink:href="#m7f00215d3c" x="120.197225" y="112.640428" style="fill: #cd5c5c; stroke: #7c0a02"/>
     <use xlink:href="#m7f00215d3c" x="126.229014" y="90.946994" style="fill: #cd5c5c; stroke: #7c0a02"/>
     <use xlink:href="#m7f00215d3c" x="122.207821" y="84.561426" style="fill: #cd5c5c; stroke: #7c0a02"/>
     <use xlink:href="#m7f00215d3c" x="142.313784" y="91.996676" style="fill: #cd5c5c; stroke: #7c0a02"/>
     <use xlink:href="#m7f00215d3c" x="218.71644" y="54.907901" style="fill: #cd5c5c; stroke: #7c0a02"/>
     <use xlink:href="#m7f00215d3c" x="194.589285" y="39.774981" style="fill: #cd5c5c; stroke: #7c0a02"/>
     <use xlink:href="#m7f00215d3c" x="206.652863" y="36.713407" style="fill: #cd5c5c; stroke: #7c0a02"/>
     <use xlink:href="#m7f00215d3c" x="134.271399" y="38.287931" style="fill: #cd5c5c; stroke: #7c0a02"/>
     <use xlink:href="#m7f00215d3c" x="236.811806" y="41.961819" style="fill: #cd5c5c; stroke: #7c0a02"/>
     <use xlink:href="#m7f00215d3c" x="242.843594" y="36.101093" style="fill: #cd5c5c; stroke: #7c0a02"/>
     <use xlink:href="#m7f00215d3c" x="59.879339" y="200.482218" style="fill: #cd5c5c; stroke: #7c0a02"/>
     <use xlink:href="#m7f00215d3c" x="59.879339" y="200.338761" style="fill: #cd5c5c; stroke: #7c0a02"/>
     <use xlink:href="#m7f00215d3c" x="59.879339" y="199.908391" style="fill: #cd5c5c; stroke: #7c0a02"/>
     <use xlink:href="#m7f00215d3c" x="138.292591" y="105.642546" style="fill: #cd5c5c; stroke: #7c0a02"/>
     <use xlink:href="#m7f00215d3c" x="132.260803" y="112.990322" style="fill: #cd5c5c; stroke: #7c0a02"/>
     <use xlink:href="#m7f00215d3c" x="114.165437" y="116.66421" style="fill: #cd5c5c; stroke: #7c0a02"/>
     <use xlink:href="#m7f00215d3c" x="61.889935" y="197.684814" style="fill: #cd5c5c; stroke: #7c0a02"/>
     <use xlink:href="#m7f00215d3c" x="59.879339" y="198.258641" style="fill: #cd5c5c; stroke: #7c0a02"/>
     <use xlink:href="#m7f00215d3c" x="59.879339" y="198.437961" style="fill: #cd5c5c; stroke: #7c0a02"/>
     <use xlink:href="#m7f00215d3c" x="134.271399" y="105.642546" style="fill: #cd5c5c; stroke: #7c0a02"/>
     <use xlink:href="#m7f00215d3c" x="120.197225" y="98.29477" style="fill: #cd5c5c; stroke: #7c0a02"/>
     <use xlink:href="#m7f00215d3c" x="102.101859" y="138.707539" style="fill: #cd5c5c; stroke: #7c0a02"/>
     <use xlink:href="#m7f00215d3c" x="61.487816" y="192.713694" style="fill: #cd5c5c; stroke: #7c0a02"/>
     <use xlink:href="#m7f00215d3c" x="61.688875" y="193.632166" style="fill: #cd5c5c; stroke: #7c0a02"/>
     <use xlink:href="#m7f00215d3c" x="61.889935" y="191.366601" style="fill: #cd5c5c; stroke: #7c0a02"/>
     <use xlink:href="#m7f00215d3c" x="58.874041" y="200.581063" style="fill: #cd5c5c; stroke: #7c0a02"/>
     <use xlink:href="#m7f00215d3c" x="60.482518" y="194.550638" style="fill: #cd5c5c; stroke: #7c0a02"/>
     <use xlink:href="#m7f00215d3c" x="60.482518" y="195.512847" style="fill: #cd5c5c; stroke: #7c0a02"/>
     <use xlink:href="#m7f00215d3c" x="60.884637" y="193.85085" style="fill: #cd5c5c; stroke: #7c0a02"/>
     <use xlink:href="#m7f00215d3c" x="60.281458" y="195.705288" style="fill: #cd5c5c; stroke: #7c0a02"/>
     <use xlink:href="#m7f00215d3c" x="59.678279" y="197.927116" style="fill: #cd5c5c; stroke: #7c0a02"/>
     <use xlink:href="#m7f00215d3c" x="60.281458" y="195.661552" style="fill: #cd5c5c; stroke: #7c0a02"/>
     <use xlink:href="#m7f00215d3c" x="59.47722" y="194.690595" style="fill: #cd5c5c; stroke: #7c0a02"/>
     <use xlink:href="#m7f00215d3c" x="60.884637" y="194.865542" style="fill: #cd5c5c; stroke: #7c0a02"/>
     <use xlink:href="#m7f00215d3c" x="59.27616" y="200.628298" style="fill: #cd5c5c; stroke: #7c0a02"/>
     <use xlink:href="#m7f00215d3c" x="58.471921" y="200.439356" style="fill: #cd5c5c; stroke: #7c0a02"/>
    </g>
   </g>
   <g id="line2d_12">
    <path d="M 57.868743 201.163636 
L 62.493114 191.75084 
L 67.117485 182.903768 
L 71.741856 174.572907 
L 76.366228 166.714357 
L 80.990599 159.28906 
L 85.61497 152.262148 
L 90.239342 145.602397 
L 94.863713 139.281764 
L 100.412959 132.109249 
L 105.962204 125.34977 
L 111.51145 118.968646 
L 117.060695 112.934975 
L 122.609941 107.221132 
L 128.159186 101.802342 
L 133.708432 96.656328 
L 140.182552 90.970708 
L 146.656671 85.600474 
L 153.130791 80.520092 
L 159.604911 75.706712 
L 167.003905 70.506434 
L 174.402899 65.600805 
L 181.801893 60.965473 
L 189.200887 56.578697 
L 197.524756 51.916511 
L 205.848624 47.519571 
L 214.172492 43.365865 
L 223.421235 39.012095 
L 232.669978 34.910436 
L 241.91872 31.039606 
L 241.91872 31.039606 
" clip-path="url(#pdf8235f2b8)" style="fill: none; stroke: #ef553b; stroke-width: 1.5; stroke-linecap: round"/>
   </g>
   <g id="patch_3">
    <path d="M 48.62 210.04 
L 48.62 14.76 
" style="fill: none; stroke: #262626; stroke-width: 0.8; stroke-linejoin: miter; stroke-linecap: square"/>
   </g>
   <g id="patch_4">
    <path d="M 252.092337 210.04 
L 252.092337 14.76 
" style="fill: none; stroke: #262626; stroke-width: 0.8; stroke-linejoin: miter; stroke-linecap: square"/>
   </g>
   <g id="patch_5">
    <path d="M 48.62 210.04 
L 252.092337 210.04 
" style="fill: none; stroke: #262626; stroke-width: 0.8; stroke-linejoin: miter; stroke-linecap: square"/>
   </g>
   <g id="patch_6">
    <path d="M 48.62 14.76 
L 252.092337 14.76 
" style="fill: none; stroke: #262626; stroke-width: 0.8; stroke-linejoin: miter; stroke-linecap: square"/>
   </g>
   <g id="legend_1">
    <g id="patch_7">
     <path d="M 141.4064 205.04 
L 245.092337 205.04 
Q 247.092337 205.04 247.092337 203.04 
L 247.092337 175.388438 
Q 247.092337 173.388438 245.092337 173.388438 
L 141.4064 173.388438 
Q 139.4064 173.388438 139.4064 175.388438 
L 139.4064 203.04 
Q 139.4064 205.04 141.4064 205.04 
z
" style="fill: #ffffff; opacity: 0.8; stroke: #cccccc; stroke-linejoin: miter"/>
    </g>
    <g id="line2d_13">
     <g>
      <use xlink:href="#m7f00215d3c" x="153.4064" y="181.168125" style="fill: #cd5c5c; stroke: #7c0a02"/>
     </g>
    </g>
    <g id="text_13">
     <!-- PGIp_CrtB -->
     <g style="fill: #262626" transform="translate(171.4064 184.668125) scale(0.1 -0.1)">
      <defs>
       <path id="ArialMT-49" d="M 597 0 
L 597 4581 
L 1203 4581 
L 1203 0 
L 597 0 
z
" transform="scale(0.015625)"/>
       <path id="ArialMT-70" d="M 422 -1272 
L 422 3319 
L 934 3319 
L 934 2888 
Q 1116 3141 1344 3267 
Q 1572 3394 1897 3394 
Q 2322 3394 2647 3175 
Q 2972 2956 3137 2557 
Q 3303 2159 3303 1684 
Q 3303 1175 3120 767 
Q 2938 359 2589 142 
Q 2241 -75 1856 -75 
Q 1575 -75 1351 44 
Q 1128 163 984 344 
L 984 -1272 
L 422 -1272 
z
M 931 1641 
Q 931 1000 1190 694 
Q 1450 388 1819 388 
Q 2194 388 2461 705 
Q 2728 1022 2728 1688 
Q 2728 2322 2467 2637 
Q 2206 2953 1844 2953 
Q 1484 2953 1207 2617 
Q 931 2281 931 1641 
z
" transform="scale(0.015625)"/>
       <path id="ArialMT-5f" d="M -97 -1272 
L -97 -866 
L 3631 -866 
L 3631 -1272 
L -97 -1272 
z
" transform="scale(0.015625)"/>
       <path id="ArialMT-43" d="M 3763 1606 
L 4369 1453 
Q 4178 706 3683 314 
Q 3188 -78 2472 -78 
Q 1731 -78 1267 223 
Q 803 525 561 1097 
Q 319 1669 319 2325 
Q 319 3041 592 3573 
Q 866 4106 1370 4382 
Q 1875 4659 2481 4659 
Q 3169 4659 3637 4309 
Q 4106 3959 4291 3325 
L 3694 3184 
Q 3534 3684 3231 3912 
Q 2928 4141 2469 4141 
Q 1941 4141 1586 3887 
Q 1231 3634 1087 3207 
Q 944 2781 944 2328 
Q 944 1744 1114 1308 
Q 1284 872 1643 656 
Q 2003 441 2422 441 
Q 2931 441 3284 734 
Q 3638 1028 3763 1606 
z
" transform="scale(0.015625)"/>
       <path id="ArialMT-72" d="M 416 0 
L 416 3319 
L 922 3319 
L 922 2816 
Q 1116 3169 1280 3281 
Q 1444 3394 1641 3394 
Q 1925 3394 2219 3213 
L 2025 2691 
Q 1819 2813 1613 2813 
Q 1428 2813 1281 2702 
Q 1134 2591 1072 2394 
Q 978 2094 978 1738 
L 978 0 
L 416 0 
z
" transform="scale(0.015625)"/>
       <path id="ArialMT-42" d="M 469 0 
L 469 4581 
L 2188 4581 
Q 2713 4581 3030 4442 
Q 3347 4303 3526 4014 
Q 3706 3725 3706 3409 
Q 3706 3116 3547 2856 
Q 3388 2597 3066 2438 
Q 3481 2316 3704 2022 
Q 3928 1728 3928 1328 
Q 3928 1006 3792 729 
Q 3656 453 3456 303 
Q 3256 153 2954 76 
Q 2653 0 2216 0 
L 469 0 
z
M 1075 2656 
L 2066 2656 
Q 2469 2656 2644 2709 
Q 2875 2778 2992 2937 
Q 3109 3097 3109 3338 
Q 3109 3566 3000 3739 
Q 2891 3913 2687 3977 
Q 2484 4041 1991 4041 
L 1075 4041 
L 1075 2656 
z
M 1075 541 
L 2216 541 
Q 2509 541 2628 563 
Q 2838 600 2978 687 
Q 3119 775 3209 942 
Q 3300 1109 3300 1328 
Q 3300 1584 3169 1773 
Q 3038 1963 2805 2039 
Q 2572 2116 2134 2116 
L 1075 2116 
L 1075 541 
z
" transform="scale(0.015625)"/>
      </defs>
      <use xlink:href="#ArialMT-50"/>
      <use xlink:href="#ArialMT-47" x="66.699219"/>
      <use xlink:href="#ArialMT-49" x="144.482422"/>
      <use xlink:href="#ArialMT-70" x="172.265625"/>
      <use xlink:href="#ArialMT-5f" x="227.880859"/>
      <use xlink:href="#ArialMT-43" x="283.496094"/>
      <use xlink:href="#ArialMT-72" x="355.712891"/>
      <use xlink:href="#ArialMT-74" x="389.013672"/>
      <use xlink:href="#ArialMT-42" x="416.796875"/>
     </g>
    </g>
    <g id="line2d_14">
     <path d="M 143.4064 195.435313 
L 153.4064 195.435313 
L 163.4064 195.435313 
" style="fill: none; stroke: #ef553b; stroke-width: 1.5; stroke-linecap: round"/>
    </g>
    <g id="text_14">
     <!-- best fit (95% CI) -->
     <g style="fill: #262626" transform="translate(171.4064 198.935313) scale(0.1 -0.1)">
      <defs>
       <path id="ArialMT-62" d="M 941 0 
L 419 0 
L 419 4581 
L 981 4581 
L 981 2947 
Q 1338 3394 1891 3394 
Q 2197 3394 2470 3270 
Q 2744 3147 2920 2923 
Q 3097 2700 3197 2384 
Q 3297 2069 3297 1709 
Q 3297 856 2875 390 
Q 2453 -75 1863 -75 
Q 1275 -75 941 416 
L 941 0 
z
M 934 1684 
Q 934 1088 1097 822 
Q 1363 388 1816 388 
Q 2184 388 2453 708 
Q 2722 1028 2722 1663 
Q 2722 2313 2464 2622 
Q 2206 2931 1841 2931 
Q 1472 2931 1203 2611 
Q 934 2291 934 1684 
z
" transform="scale(0.015625)"/>
       <path id="ArialMT-73" d="M 197 991 
L 753 1078 
Q 800 744 1014 566 
Q 1228 388 1613 388 
Q 2000 388 2187 545 
Q 2375 703 2375 916 
Q 2375 1106 2209 1216 
Q 2094 1291 1634 1406 
Q 1016 1563 777 1677 
Q 538 1791 414 1992 
Q 291 2194 291 2438 
Q 291 2659 392 2848 
Q 494 3038 669 3163 
Q 800 3259 1026 3326 
Q 1253 3394 1513 3394 
Q 1903 3394 2198 3281 
Q 2494 3169 2634 2976 
Q 2775 2784 2828 2463 
L 2278 2388 
Q 2241 2644 2061 2787 
Q 1881 2931 1553 2931 
Q 1166 2931 1000 2803 
Q 834 2675 834 2503 
Q 834 2394 903 2306 
Q 972 2216 1119 2156 
Q 1203 2125 1616 2013 
Q 2213 1853 2448 1751 
Q 2684 1650 2818 1456 
Q 2953 1263 2953 975 
Q 2953 694 2789 445 
Q 2625 197 2315 61 
Q 2006 -75 1616 -75 
Q 969 -75 630 194 
Q 291 463 197 991 
z
" transform="scale(0.015625)"/>
       <path id="ArialMT-69" d="M 425 3934 
L 425 4581 
L 988 4581 
L 988 3934 
L 425 3934 
z
M 425 0 
L 425 3319 
L 988 3319 
L 988 0 
L 425 0 
z
" transform="scale(0.015625)"/>
       <path id="ArialMT-39" d="M 350 1059 
L 891 1109 
Q 959 728 1153 556 
Q 1347 384 1650 384 
Q 1909 384 2104 503 
Q 2300 622 2425 820 
Q 2550 1019 2634 1356 
Q 2719 1694 2719 2044 
Q 2719 2081 2716 2156 
Q 2547 1888 2255 1720 
Q 1963 1553 1622 1553 
Q 1053 1553 659 1965 
Q 266 2378 266 3053 
Q 266 3750 677 4175 
Q 1088 4600 1706 4600 
Q 2153 4600 2523 4359 
Q 2894 4119 3086 3673 
Q 3278 3228 3278 2384 
Q 3278 1506 3087 986 
Q 2897 466 2520 194 
Q 2144 -78 1638 -78 
Q 1100 -78 759 220 
Q 419 519 350 1059 
z
M 2653 3081 
Q 2653 3566 2395 3850 
Q 2138 4134 1775 4134 
Q 1400 4134 1122 3828 
Q 844 3522 844 3034 
Q 844 2597 1108 2323 
Q 1372 2050 1759 2050 
Q 2150 2050 2401 2323 
Q 2653 2597 2653 3081 
z
" transform="scale(0.015625)"/>
       <path id="ArialMT-25" d="M 372 3481 
Q 372 3972 619 4315 
Q 866 4659 1334 4659 
Q 1766 4659 2048 4351 
Q 2331 4044 2331 3447 
Q 2331 2866 2045 2552 
Q 1759 2238 1341 2238 
Q 925 2238 648 2547 
Q 372 2856 372 3481 
z
M 1350 4272 
Q 1141 4272 1002 4090 
Q 863 3909 863 3425 
Q 863 2984 1003 2804 
Q 1144 2625 1350 2625 
Q 1563 2625 1702 2806 
Q 1841 2988 1841 3469 
Q 1841 3913 1700 4092 
Q 1559 4272 1350 4272 
z
M 1353 -169 
L 3859 4659 
L 4316 4659 
L 1819 -169 
L 1353 -169 
z
M 3334 1075 
Q 3334 1569 3581 1911 
Q 3828 2253 4300 2253 
Q 4731 2253 5014 1945 
Q 5297 1638 5297 1041 
Q 5297 459 5011 145 
Q 4725 -169 4303 -169 
Q 3888 -169 3611 142 
Q 3334 453 3334 1075 
z
M 4316 1866 
Q 4103 1866 3964 1684 
Q 3825 1503 3825 1019 
Q 3825 581 3965 400 
Q 4106 219 4313 219 
Q 4528 219 4667 400 
Q 4806 581 4806 1063 
Q 4806 1506 4665 1686 
Q 4525 1866 4316 1866 
z
" transform="scale(0.015625)"/>
      </defs>
      <use xlink:href="#ArialMT-62"/>
      <use xlink:href="#ArialMT-65" x="55.615234"/>
      <use xlink:href="#ArialMT-73" x="111.230469"/>
      <use xlink:href="#ArialMT-74" x="161.230469"/>
      <use xlink:href="#ArialMT-20" x="189.013672"/>
      <use xlink:href="#ArialMT-66" x="216.796875"/>
      <use xlink:href="#ArialMT-69" x="244.580078"/>
      <use xlink:href="#ArialMT-74" x="266.796875"/>
      <use xlink:href="#ArialMT-20" x="294.580078"/>
      <use xlink:href="#ArialMT-28" x="322.363281"/>
      <use xlink:href="#ArialMT-39" x="355.664062"/>
      <use xlink:href="#ArialMT-35" x="411.279297"/>
      <use xlink:href="#ArialMT-25" x="466.894531"/>
      <use xlink:href="#ArialMT-20" x="555.810547"/>
      <use xlink:href="#ArialMT-43" x="583.59375"/>
      <use xlink:href="#ArialMT-49" x="655.810547"/>
      <use xlink:href="#ArialMT-29" x="683.59375"/>
     </g>
    </g>
   </g>
  </g>
  <g id="axes_2">
   <g id="patch_8">
    <path d="M 312.654925 210.04 
L 475.432795 210.04 
L 475.432795 14.76 
L 312.654925 14.76 
z
" style="fill: #ffffff"/>
   </g>
   <g id="matplotlib.axis_3">
    <g id="xtick_6">
     <g id="line2d_15">
      <g>
       <use xlink:href="#md595f2627f" x="346.973826" y="210.04" style="fill: #262626; stroke: #262626; stroke-width: 0.8"/>
      </g>
     </g>
     <g id="text_15">
      <!-- 500 -->
      <g style="fill: #262626" transform="translate(338.63242 224.197812) scale(0.1 -0.1)">
       <use xlink:href="#ArialMT-35"/>
       <use xlink:href="#ArialMT-30" x="55.615234"/>
       <use xlink:href="#ArialMT-30" x="111.230469"/>
      </g>
     </g>
    </g>
    <g id="xtick_7">
     <g id="line2d_16">
      <g>
       <use xlink:href="#md595f2627f" x="386.428443" y="210.04" style="fill: #262626; stroke: #262626; stroke-width: 0.8"/>
      </g>
     </g>
     <g id="text_16">
      <!-- 750 -->
      <g style="fill: #262626" transform="translate(378.087037 224.197812) scale(0.1 -0.1)">
       <defs>
        <path id="ArialMT-37" d="M 303 3981 
L 303 4522 
L 3269 4522 
L 3269 4084 
Q 2831 3619 2401 2847 
Q 1972 2075 1738 1259 
Q 1569 684 1522 0 
L 944 0 
Q 953 541 1156 1306 
Q 1359 2072 1739 2783 
Q 2119 3494 2547 3981 
L 303 3981 
z
" transform="scale(0.015625)"/>
       </defs>
       <use xlink:href="#ArialMT-37"/>
       <use xlink:href="#ArialMT-35" x="55.615234"/>
       <use xlink:href="#ArialMT-30" x="111.230469"/>
      </g>
     </g>
    </g>
    <g id="xtick_8">
     <g id="line2d_17">
      <g>
       <use xlink:href="#md595f2627f" x="425.88306" y="210.04" style="fill: #262626; stroke: #262626; stroke-width: 0.8"/>
      </g>
     </g>
     <g id="text_17">
      <!-- 1000 -->
      <g style="fill: #262626" transform="translate(414.761185 224.197812) scale(0.1 -0.1)">
       <use xlink:href="#ArialMT-31"/>
       <use xlink:href="#ArialMT-30" x="55.615234"/>
       <use xlink:href="#ArialMT-30" x="111.230469"/>
       <use xlink:href="#ArialMT-30" x="166.845703"/>
      </g>
     </g>
    </g>
    <g id="xtick_9">
     <g id="line2d_18">
      <g>
       <use xlink:href="#md595f2627f" x="465.337677" y="210.04" style="fill: #262626; stroke: #262626; stroke-width: 0.8"/>
      </g>
     </g>
     <g id="text_18">
      <!-- 1250 -->
      <g style="fill: #262626" transform="translate(454.215802 224.197812) scale(0.1 -0.1)">
       <use xlink:href="#ArialMT-31"/>
       <use xlink:href="#ArialMT-32" x="55.615234"/>
       <use xlink:href="#ArialMT-35" x="111.230469"/>
       <use xlink:href="#ArialMT-30" x="166.845703"/>
      </g>
     </g>
    </g>
    <g id="text_19">
     <!-- vmax -->
     <g style="fill: #262626" transform="translate(382.098548 237.343125) scale(0.1 -0.1)">
      <defs>
       <path id="ArialMT-76" d="M 1344 0 
L 81 3319 
L 675 3319 
L 1388 1331 
Q 1503 1009 1600 663 
Q 1675 925 1809 1294 
L 2547 3319 
L 3125 3319 
L 1869 0 
L 1344 0 
z
" transform="scale(0.015625)"/>
       <path id="ArialMT-6d" d="M 422 0 
L 422 3319 
L 925 3319 
L 925 2853 
Q 1081 3097 1340 3245 
Q 1600 3394 1931 3394 
Q 2300 3394 2536 3241 
Q 2772 3088 2869 2813 
Q 3263 3394 3894 3394 
Q 4388 3394 4653 3120 
Q 4919 2847 4919 2278 
L 4919 0 
L 4359 0 
L 4359 2091 
Q 4359 2428 4304 2576 
Q 4250 2725 4106 2815 
Q 3963 2906 3769 2906 
Q 3419 2906 3187 2673 
Q 2956 2441 2956 1928 
L 2956 0 
L 2394 0 
L 2394 2156 
Q 2394 2531 2256 2718 
Q 2119 2906 1806 2906 
Q 1569 2906 1367 2781 
Q 1166 2656 1075 2415 
Q 984 2175 984 1722 
L 984 0 
L 422 0 
z
" transform="scale(0.015625)"/>
       <path id="ArialMT-61" d="M 2588 409 
Q 2275 144 1986 34 
Q 1697 -75 1366 -75 
Q 819 -75 525 192 
Q 231 459 231 875 
Q 231 1119 342 1320 
Q 453 1522 633 1644 
Q 813 1766 1038 1828 
Q 1203 1872 1538 1913 
Q 2219 1994 2541 2106 
Q 2544 2222 2544 2253 
Q 2544 2597 2384 2738 
Q 2169 2928 1744 2928 
Q 1347 2928 1158 2789 
Q 969 2650 878 2297 
L 328 2372 
Q 403 2725 575 2942 
Q 747 3159 1072 3276 
Q 1397 3394 1825 3394 
Q 2250 3394 2515 3294 
Q 2781 3194 2906 3042 
Q 3031 2891 3081 2659 
Q 3109 2516 3109 2141 
L 3109 1391 
Q 3109 606 3145 398 
Q 3181 191 3288 0 
L 2700 0 
Q 2613 175 2588 409 
z
M 2541 1666 
Q 2234 1541 1622 1453 
Q 1275 1403 1131 1340 
Q 988 1278 909 1158 
Q 831 1038 831 891 
Q 831 666 1001 516 
Q 1172 366 1500 366 
Q 1825 366 2078 508 
Q 2331 650 2450 897 
Q 2541 1088 2541 1459 
L 2541 1666 
z
" transform="scale(0.015625)"/>
      </defs>
      <use xlink:href="#ArialMT-76"/>
      <use xlink:href="#ArialMT-6d" x="50"/>
      <use xlink:href="#ArialMT-61" x="133.300781"/>
      <use xlink:href="#ArialMT-78" x="188.916016"/>
     </g>
    </g>
   </g>
   <g id="matplotlib.axis_4">
    <g id="ytick_6">
     <g id="line2d_19">
      <g>
       <use xlink:href="#m6e6befd59c" x="312.654925" y="201.23519" style="fill: #262626; stroke: #262626; stroke-width: 0.8"/>
      </g>
     </g>
     <g id="text_20">
      <!-- 0 -->
      <g style="fill: #262626" transform="translate(300.093988 204.814096) scale(0.1 -0.1)">
       <use xlink:href="#ArialMT-30"/>
      </g>
     </g>
    </g>
    <g id="ytick_7">
     <g id="line2d_20">
      <g>
       <use xlink:href="#m6e6befd59c" x="312.654925" y="174.369621" style="fill: #262626; stroke: #262626; stroke-width: 0.8"/>
      </g>
     </g>
     <g id="text_21">
      <!-- 50 -->
      <g style="fill: #262626" transform="translate(294.53305 177.948527) scale(0.1 -0.1)">
       <use xlink:href="#ArialMT-35"/>
       <use xlink:href="#ArialMT-30" x="55.615234"/>
      </g>
     </g>
    </g>
    <g id="ytick_8">
     <g id="line2d_21">
      <g>
       <use xlink:href="#m6e6befd59c" x="312.654925" y="147.504052" style="fill: #262626; stroke: #262626; stroke-width: 0.8"/>
      </g>
     </g>
     <g id="text_22">
      <!-- 100 -->
      <g style="fill: #262626" transform="translate(288.972113 151.082958) scale(0.1 -0.1)">
       <use xlink:href="#ArialMT-31"/>
       <use xlink:href="#ArialMT-30" x="55.615234"/>
       <use xlink:href="#ArialMT-30" x="111.230469"/>
      </g>
     </g>
    </g>
    <g id="ytick_9">
     <g id="line2d_22">
      <g>
       <use xlink:href="#m6e6befd59c" x="312.654925" y="120.638483" style="fill: #262626; stroke: #262626; stroke-width: 0.8"/>
      </g>
     </g>
     <g id="text_23">
      <!-- 150 -->
      <g style="fill: #262626" transform="translate(288.972113 124.217389) scale(0.1 -0.1)">
       <use xlink:href="#ArialMT-31"/>
       <use xlink:href="#ArialMT-35" x="55.615234"/>
       <use xlink:href="#ArialMT-30" x="111.230469"/>
      </g>
     </g>
    </g>
    <g id="ytick_10">
     <g id="line2d_23">
      <g>
       <use xlink:href="#m6e6befd59c" x="312.654925" y="93.772914" style="fill: #262626; stroke: #262626; stroke-width: 0.8"/>
      </g>
     </g>
     <g id="text_24">
      <!-- 200 -->
      <g style="fill: #262626" transform="translate(288.972113 97.35182) scale(0.1 -0.1)">
       <use xlink:href="#ArialMT-32"/>
       <use xlink:href="#ArialMT-30" x="55.615234"/>
       <use xlink:href="#ArialMT-30" x="111.230469"/>
      </g>
     </g>
    </g>
    <g id="ytick_11">
     <g id="line2d_24">
      <g>
       <use xlink:href="#m6e6befd59c" x="312.654925" y="66.907345" style="fill: #262626; stroke: #262626; stroke-width: 0.8"/>
      </g>
     </g>
     <g id="text_25">
      <!-- 250 -->
      <g style="fill: #262626" transform="translate(288.972113 70.486251) scale(0.1 -0.1)">
       <use xlink:href="#ArialMT-32"/>
       <use xlink:href="#ArialMT-35" x="55.615234"/>
       <use xlink:href="#ArialMT-30" x="111.230469"/>
      </g>
     </g>
    </g>
    <g id="ytick_12">
     <g id="line2d_25">
      <g>
       <use xlink:href="#m6e6befd59c" x="312.654925" y="40.041776" style="fill: #262626; stroke: #262626; stroke-width: 0.8"/>
      </g>
     </g>
     <g id="text_26">
      <!-- 300 -->
      <g style="fill: #262626" transform="translate(288.972113 43.620682) scale(0.1 -0.1)">
       <use xlink:href="#ArialMT-33"/>
       <use xlink:href="#ArialMT-30" x="55.615234"/>
       <use xlink:href="#ArialMT-30" x="111.230469"/>
      </g>
     </g>
    </g>
    <g id="text_27">
     <!-- km -->
     <g style="fill: #262626" transform="translate(282.984613 119.064844) rotate(-90) scale(0.1 -0.1)">
      <defs>
       <path id="ArialMT-6b" d="M 425 0 
L 425 4581 
L 988 4581 
L 988 1969 
L 2319 3319 
L 3047 3319 
L 1778 2088 
L 3175 0 
L 2481 0 
L 1384 1697 
L 988 1316 
L 988 0 
L 425 0 
z
" transform="scale(0.015625)"/>
      </defs>
      <use xlink:href="#ArialMT-6b"/>
      <use xlink:href="#ArialMT-6d" x="50"/>
     </g>
    </g>
   </g>
   <g id="QuadContourSet_1">
    <path clip-path="url(#p481aebcf10)" style="fill: #130d25"/>
    <path d="M 392.382861 114.744739 
L 392.694503 114.392653 
L 392.382861 114.007374 
L 392.077265 114.392653 
z
M 395.704859 110.792674 
L 396.028682 110.407347 
L 395.704859 110.00766 
L 395.373893 110.407347 
z
" clip-path="url(#p481aebcf10)" style="fill: #381a40"/>
    <path d="M 392.382861 115.136849 
L 393.041571 114.392653 
L 392.382861 113.578297 
L 391.736928 114.392653 
z
M 392.077265 114.392653 
L 392.382861 114.007374 
L 392.694503 114.392653 
L 392.382861 114.744739 
z
M 395.704859 111.207721 
L 396.377482 110.407347 
L 395.704859 109.577146 
L 395.0174 110.407347 
z
M 395.373893 110.407347 
L 395.704859 110.00766 
L 396.028682 110.407347 
L 395.704859 110.792674 
z
" clip-path="url(#p481aebcf10)" style="fill: #611f53"/>
    <path d="M 389.060864 118.644358 
L 389.31449 118.377959 
L 389.060864 118.057269 
L 388.822183 118.377959 
z
M 392.382861 115.528959 
L 393.388639 114.392653 
L 392.382861 113.14922 
L 391.396591 114.392653 
z
M 391.736928 114.392653 
L 392.382861 113.578297 
L 393.041571 114.392653 
L 392.382861 115.136849 
z
M 395.704859 111.622768 
L 396.726281 110.407347 
L 395.704859 109.146632 
L 394.660907 110.407347 
z
M 395.0174 110.407347 
L 395.704859 109.577146 
L 396.377482 110.407347 
L 395.704859 111.207721 
z
M 399.026856 106.885359 
L 399.394966 106.422041 
L 399.026856 105.960763 
L 398.626323 106.422041 
z
" clip-path="url(#p481aebcf10)" style="fill: #8b1d5b"/>
    <path d="M 389.060864 119.087927 
L 389.736793 118.377959 
L 389.060864 117.523301 
L 388.424766 118.377959 
z
M 388.822183 118.377959 
L 389.060864 118.057269 
L 389.31449 118.377959 
L 389.060864 118.644358 
z
M 392.382861 115.92107 
L 393.735708 114.392653 
L 392.382861 112.720143 
L 391.056254 114.392653 
z
M 391.396591 114.392653 
L 392.382861 113.14922 
L 393.388639 114.392653 
L 392.382861 115.528959 
z
M 395.704859 112.037814 
L 397.07508 110.407347 
L 395.704859 108.716118 
L 394.304415 110.407347 
z
M 394.660907 110.407347 
L 395.704859 109.146632 
L 396.726281 110.407347 
L 395.704859 111.622768 
z
M 399.026856 107.419341 
L 399.819219 106.422041 
L 399.026856 105.429131 
L 398.164701 106.422041 
z
M 398.626323 106.422041 
L 399.026856 105.960763 
L 399.394966 106.422041 
L 399.026856 106.885359 
z
" clip-path="url(#p481aebcf10)" style="fill: #b71657"/>
    <path d="M 385.738867 122.444955 
L 385.823694 122.363265 
L 385.738867 122.250755 
L 385.661912 122.363265 
z
M 389.060864 119.531496 
L 390.159095 118.377959 
L 389.060864 116.989333 
L 388.027348 118.377959 
z
M 388.424766 118.377959 
L 389.060864 117.523301 
L 389.736793 118.377959 
L 389.060864 119.087927 
z
M 392.382861 116.31318 
L 394.082776 114.392653 
L 395.704859 112.452861 
L 397.42388 110.407347 
L 395.704859 108.285604 
L 393.947922 110.407347 
L 392.382861 112.291065 
L 390.715918 114.392653 
z
M 391.056254 114.392653 
L 392.382861 112.720143 
L 393.735708 114.392653 
L 392.382861 115.92107 
z
M 394.304415 110.407347 
L 395.704859 108.716118 
L 397.07508 110.407347 
L 395.704859 112.037814 
z
M 399.026856 107.953324 
L 400.243473 106.422041 
L 399.026856 104.897499 
L 397.703079 106.422041 
z
M 398.164701 106.422041 
L 399.026856 105.429131 
L 399.819219 106.422041 
L 399.026856 107.419341 
z
M 402.348853 103.054561 
L 402.808523 102.436735 
L 402.348853 101.844389 
L 401.802817 102.436735 
z
" clip-path="url(#p481aebcf10)" style="fill: #db2946"/>
    <path d="M 385.738867 122.933272 
L 386.330765 122.363265 
L 385.738867 121.578205 
L 385.201902 122.363265 
z
M 385.661912 122.363265 
L 385.738867 122.250755 
L 385.823694 122.363265 
L 385.738867 122.444955 
z
M 389.060864 119.975065 
L 390.581398 118.377959 
L 392.382861 116.70529 
L 394.429844 114.392653 
L 395.704859 112.867908 
L 397.772679 110.407347 
L 399.026856 108.487307 
L 400.667726 106.422041 
L 399.026856 104.365867 
L 397.241457 106.422041 
L 395.704859 107.85509 
L 393.59143 110.407347 
L 392.382861 111.861988 
L 390.375581 114.392653 
L 389.060864 116.455366 
L 387.62993 118.377959 
z
M 388.027348 118.377959 
L 389.060864 116.989333 
L 390.159095 118.377959 
L 389.060864 119.531496 
z
M 390.715918 114.392653 
L 392.382861 112.291065 
L 393.947922 110.407347 
L 395.704859 108.285604 
L 397.42388 110.407347 
L 395.704859 112.452861 
L 394.082776 114.392653 
L 392.382861 116.31318 
z
M 397.703079 106.422041 
L 399.026856 104.897499 
L 400.243473 106.422041 
L 399.026856 107.953324 
z
M 402.348853 103.733139 
L 403.313392 102.436735 
L 402.348853 101.193798 
L 401.203089 102.436735 
z
M 401.802817 102.436735 
L 402.348853 101.844389 
L 402.808523 102.436735 
L 402.348853 103.054561 
z
M 405.670851 98.492405 
L 405.699328 98.451429 
L 405.670851 98.413207 
L 405.633056 98.451429 
z
" clip-path="url(#p481aebcf10)" style="fill: #ef5840"/>
    <path d="M 385.738867 123.421589 
L 386.837837 122.363265 
L 385.738867 120.905656 
L 384.741892 122.363265 
z
M 385.201902 122.363265 
L 385.738867 121.578205 
L 386.330765 122.363265 
L 385.738867 122.933272 
z
M 389.060864 120.418635 
L 391.0037 118.377959 
L 392.382861 117.0974 
L 394.776912 114.392653 
L 395.704859 113.282955 
L 398.121478 110.407347 
L 399.026856 109.021289 
L 401.09198 106.422041 
L 402.348853 104.411717 
L 403.818261 102.436735 
L 402.348853 100.543207 
L 400.603361 102.436735 
L 399.026856 103.834235 
L 396.779835 106.422041 
L 395.704859 107.424576 
L 393.234937 110.407347 
L 392.382861 111.432911 
L 390.035244 114.392653 
L 389.060864 115.921398 
L 387.232513 118.377959 
z
M 387.62993 118.377959 
L 389.060864 116.455366 
L 390.375581 114.392653 
L 392.382861 111.861988 
L 393.59143 110.407347 
L 395.704859 107.85509 
L 397.241457 106.422041 
L 399.026856 104.365867 
L 400.667726 106.422041 
L 399.026856 108.487307 
L 397.772679 110.407347 
L 395.704859 112.867908 
L 394.429844 114.392653 
L 392.382861 116.70529 
L 390.581398 118.377959 
L 389.060864 119.975065 
z
M 401.203089 102.436735 
L 402.348853 101.193798 
L 403.313392 102.436735 
L 402.348853 103.733139 
z
M 405.670851 99.337115 
L 406.286371 98.451429 
L 405.670851 97.62528 
L 404.853922 98.451429 
z
M 405.633056 98.451429 
L 405.670851 98.413207 
L 405.699328 98.451429 
L 405.670851 98.492405 
z
" clip-path="url(#p481aebcf10)" style="fill: #f58860"/>
    <path d="M 382.416869 126.653586 
L 382.764614 126.348571 
L 382.416869 125.846867 
L 382.108857 126.348571 
z
M 385.738867 123.909905 
L 387.344908 122.363265 
L 389.060864 120.862204 
L 391.426003 118.377959 
L 392.382861 117.489511 
L 395.123981 114.392653 
L 395.704859 113.698001 
L 398.470278 110.407347 
L 399.026856 109.555272 
L 401.516233 106.422041 
L 402.348853 105.090295 
L 404.32313 102.436735 
L 405.670851 100.181826 
L 406.873414 98.451429 
L 405.670851 96.837354 
L 404.074788 98.451429 
L 402.348853 99.892616 
L 400.003633 102.436735 
L 399.026856 103.302603 
L 396.318213 106.422041 
L 395.704859 106.994062 
L 392.878444 110.407347 
L 392.382861 111.003834 
L 389.694908 114.392653 
L 389.060864 115.38743 
L 386.835095 118.377959 
L 385.738867 120.233106 
L 384.281882 122.363265 
z
M 384.741892 122.363265 
L 385.738867 120.905656 
L 386.837837 122.363265 
L 385.738867 123.421589 
z
M 387.232513 118.377959 
L 389.060864 115.921398 
L 390.035244 114.392653 
L 392.382861 111.432911 
L 393.234937 110.407347 
L 395.704859 107.424576 
L 396.779835 106.422041 
L 399.026856 103.834235 
L 400.603361 102.436735 
L 402.348853 100.543207 
L 403.818261 102.436735 
L 402.348853 104.411717 
L 401.09198 106.422041 
L 399.026856 109.021289 
L 398.121478 110.407347 
L 395.704859 113.282955 
L 394.776912 114.392653 
L 392.382861 117.0974 
L 391.0037 118.377959 
L 389.060864 120.418635 
z
M 404.853922 98.451429 
L 405.670851 97.62528 
L 406.286371 98.451429 
L 405.670851 99.337115 
z
M 408.992848 94.747624 
L 409.176134 94.466122 
L 408.992848 94.206876 
L 408.715262 94.466122 
z
" clip-path="url(#p481aebcf10)" style="fill: #f6b18b"/>
    <path d="M 382.416869 127.175965 
L 383.360176 126.348571 
L 382.416869 124.987628 
L 381.581344 126.348571 
z
M 382.108857 126.348571 
L 382.416869 125.846867 
L 382.764614 126.348571 
L 382.416869 126.653586 
z
M 385.738867 124.398222 
L 387.85198 122.363265 
L 389.060864 121.305773 
L 391.848305 118.377959 
L 392.382861 117.881621 
L 395.471049 114.392653 
L 395.704859 114.113048 
L 398.819077 110.407347 
L 399.026856 110.089254 
L 401.940487 106.422041 
L 402.348853 105.768873 
L 404.827999 102.436735 
L 405.670851 101.026536 
L 407.460457 98.451429 
L 405.670851 96.049428 
L 403.295655 98.451429 
L 402.348853 99.242025 
L 399.403905 102.436735 
L 399.026856 102.770971 
L 395.856591 106.422041 
L 395.704859 106.563548 
L 392.521952 110.407347 
L 392.382861 110.574757 
L 389.354571 114.392653 
L 389.060864 114.853462 
L 386.437677 118.377959 
L 385.738867 119.560556 
L 383.821872 122.363265 
z
M 384.281882 122.363265 
L 385.738867 120.233106 
L 386.835095 118.377959 
L 389.060864 115.38743 
L 389.694908 114.392653 
L 392.382861 111.003834 
L 392.878444 110.407347 
L 395.704859 106.994062 
L 396.318213 106.422041 
L 399.026856 103.302603 
L 400.003633 102.436735 
L 402.348853 99.892616 
L 404.074788 98.451429 
L 405.670851 96.837354 
L 406.873414 98.451429 
L 405.670851 100.181826 
L 404.32313 102.436735 
L 402.348853 105.090295 
L 401.516233 106.422041 
L 399.026856 109.555272 
L 398.470278 110.407347 
L 395.704859 113.698001 
L 395.123981 114.392653 
L 392.382861 117.489511 
L 391.426003 118.377959 
L 389.060864 120.862204 
L 387.344908 122.363265 
L 385.738867 123.909905 
z
M 408.992848 95.773508 
L 409.844088 94.466122 
L 408.992848 93.262097 
L 407.703648 94.466122 
z
M 408.715262 94.466122 
L 408.992848 94.206876 
L 409.176134 94.466122 
L 408.992848 94.747624 
z
" clip-path="url(#p481aebcf10)" style="fill: #f8d9c3"/>
   </g>
   <g id="patch_9">
    <path d="M 312.654925 210.04 
L 312.654925 14.76 
" style="fill: none; stroke: #262626; stroke-width: 0.8; stroke-linejoin: miter; stroke-linecap: square"/>
   </g>
   <g id="patch_10">
    <path d="M 475.432795 210.04 
L 475.432795 14.76 
" style="fill: none; stroke: #262626; stroke-width: 0.8; stroke-linejoin: miter; stroke-linecap: square"/>
   </g>
   <g id="patch_11">
    <path d="M 312.654925 210.04 
L 475.432795 210.04 
" style="fill: none; stroke: #262626; stroke-width: 0.8; stroke-linejoin: miter; stroke-linecap: square"/>
   </g>
   <g id="patch_12">
    <path d="M 312.654925 14.76 
L 475.432795 14.76 
" style="fill: none; stroke: #262626; stroke-width: 0.8; stroke-linejoin: miter; stroke-linecap: square"/>
   </g>
  </g>
  <g id="axes_3">
   <g id="patch_13">
    <path d="M 576.689851 210.04 
L 780.162188 210.04 
L 780.162188 14.76 
L 576.689851 14.76 
z
" style="fill: #ffffff"/>
   </g>
   <g id="matplotlib.axis_5">
    <g id="xtick_10">
     <g id="line2d_26">
      <g>
       <use xlink:href="#md595f2627f" x="589.179577" y="210.04" style="fill: #262626; stroke: #262626; stroke-width: 0.8"/>
      </g>
     </g>
     <g id="text_28">
      <!-- −100 -->
      <g style="fill: #262626" transform="translate(577.917858 224.197812) scale(0.1 -0.1)">
       <defs>
        <path id="ArialMT-2212" d="M 3381 1997 
L 356 1997 
L 356 2522 
L 3381 2522 
L 3381 1997 
z
" transform="scale(0.015625)"/>
       </defs>
       <use xlink:href="#ArialMT-2212"/>
       <use xlink:href="#ArialMT-31" x="58.398438"/>
       <use xlink:href="#ArialMT-30" x="114.013672"/>
       <use xlink:href="#ArialMT-30" x="169.628906"/>
      </g>
     </g>
    </g>
    <g id="xtick_11">
     <g id="line2d_27">
      <g>
       <use xlink:href="#md595f2627f" x="650.085776" y="210.04" style="fill: #262626; stroke: #262626; stroke-width: 0.8"/>
      </g>
     </g>
     <g id="text_29">
      <!-- 0 -->
      <g style="fill: #262626" transform="translate(647.305307 224.197812) scale(0.1 -0.1)">
       <use xlink:href="#ArialMT-30"/>
      </g>
     </g>
    </g>
    <g id="xtick_12">
     <g id="line2d_28">
      <g>
       <use xlink:href="#md595f2627f" x="710.991976" y="210.04" style="fill: #262626; stroke: #262626; stroke-width: 0.8"/>
      </g>
     </g>
     <g id="text_30">
      <!-- 100 -->
      <g style="fill: #262626" transform="translate(702.650569 224.197812) scale(0.1 -0.1)">
       <use xlink:href="#ArialMT-31"/>
       <use xlink:href="#ArialMT-30" x="55.615234"/>
       <use xlink:href="#ArialMT-30" x="111.230469"/>
      </g>
     </g>
    </g>
    <g id="xtick_13">
     <g id="line2d_29">
      <g>
       <use xlink:href="#md595f2627f" x="771.898175" y="210.04" style="fill: #262626; stroke: #262626; stroke-width: 0.8"/>
      </g>
     </g>
     <g id="text_31">
      <!-- 200 -->
      <g style="fill: #262626" transform="translate(763.556769 224.197812) scale(0.1 -0.1)">
       <use xlink:href="#ArialMT-32"/>
       <use xlink:href="#ArialMT-30" x="55.615234"/>
       <use xlink:href="#ArialMT-30" x="111.230469"/>
      </g>
     </g>
    </g>
    <g id="text_32">
     <!-- residual -->
     <g style="fill: #262626" transform="translate(660.917425 237.343125) scale(0.1 -0.1)">
      <defs>
       <path id="ArialMT-64" d="M 2575 0 
L 2575 419 
Q 2259 -75 1647 -75 
Q 1250 -75 917 144 
Q 584 363 401 755 
Q 219 1147 219 1656 
Q 219 2153 384 2558 
Q 550 2963 881 3178 
Q 1213 3394 1622 3394 
Q 1922 3394 2156 3267 
Q 2391 3141 2538 2938 
L 2538 4581 
L 3097 4581 
L 3097 0 
L 2575 0 
z
M 797 1656 
Q 797 1019 1065 703 
Q 1334 388 1700 388 
Q 2069 388 2326 689 
Q 2584 991 2584 1609 
Q 2584 2291 2321 2609 
Q 2059 2928 1675 2928 
Q 1300 2928 1048 2622 
Q 797 2316 797 1656 
z
" transform="scale(0.015625)"/>
      </defs>
      <use xlink:href="#ArialMT-72"/>
      <use xlink:href="#ArialMT-65" x="33.300781"/>
      <use xlink:href="#ArialMT-73" x="88.916016"/>
      <use xlink:href="#ArialMT-69" x="138.916016"/>
      <use xlink:href="#ArialMT-64" x="161.132812"/>
      <use xlink:href="#ArialMT-75" x="216.748047"/>
      <use xlink:href="#ArialMT-61" x="272.363281"/>
      <use xlink:href="#ArialMT-6c" x="327.978516"/>
     </g>
    </g>
   </g>
   <g id="matplotlib.axis_6">
    <g id="ytick_13">
     <g id="line2d_30">
      <g>
       <use xlink:href="#m6e6befd59c" x="576.689851" y="210.04" style="fill: #262626; stroke: #262626; stroke-width: 0.8"/>
      </g>
     </g>
     <g id="text_33">
      <!-- 0.000 -->
      <g style="fill: #262626" transform="translate(544.667976 213.618906) scale(0.1 -0.1)">
       <defs>
        <path id="ArialMT-2e" d="M 581 0 
L 581 641 
L 1222 641 
L 1222 0 
L 581 0 
z
" transform="scale(0.015625)"/>
       </defs>
       <use xlink:href="#ArialMT-30"/>
       <use xlink:href="#ArialMT-2e" x="55.615234"/>
       <use xlink:href="#ArialMT-30" x="83.398438"/>
       <use xlink:href="#ArialMT-30" x="139.013672"/>
       <use xlink:href="#ArialMT-30" x="194.628906"/>
      </g>
     </g>
    </g>
    <g id="ytick_14">
     <g id="line2d_31">
      <g>
       <use xlink:href="#m6e6befd59c" x="576.689851" y="180.677019" style="fill: #262626; stroke: #262626; stroke-width: 0.8"/>
      </g>
     </g>
     <g id="text_34">
      <!-- 0.005 -->
      <g style="fill: #262626" transform="translate(544.667976 184.255925) scale(0.1 -0.1)">
       <use xlink:href="#ArialMT-30"/>
       <use xlink:href="#ArialMT-2e" x="55.615234"/>
       <use xlink:href="#ArialMT-30" x="83.398438"/>
       <use xlink:href="#ArialMT-30" x="139.013672"/>
       <use xlink:href="#ArialMT-35" x="194.628906"/>
      </g>
     </g>
    </g>
    <g id="ytick_15">
     <g id="line2d_32">
      <g>
       <use xlink:href="#m6e6befd59c" x="576.689851" y="151.314037" style="fill: #262626; stroke: #262626; stroke-width: 0.8"/>
      </g>
     </g>
     <g id="text_35">
      <!-- 0.010 -->
      <g style="fill: #262626" transform="translate(544.667976 154.892943) scale(0.1 -0.1)">
       <use xlink:href="#ArialMT-30"/>
       <use xlink:href="#ArialMT-2e" x="55.615234"/>
       <use xlink:href="#ArialMT-30" x="83.398438"/>
       <use xlink:href="#ArialMT-31" x="139.013672"/>
       <use xlink:href="#ArialMT-30" x="194.628906"/>
      </g>
     </g>
    </g>
    <g id="ytick_16">
     <g id="line2d_33">
      <g>
       <use xlink:href="#m6e6befd59c" x="576.689851" y="121.951056" style="fill: #262626; stroke: #262626; stroke-width: 0.8"/>
      </g>
     </g>
     <g id="text_36">
      <!-- 0.015 -->
      <g style="fill: #262626" transform="translate(544.667976 125.529962) scale(0.1 -0.1)">
       <use xlink:href="#ArialMT-30"/>
       <use xlink:href="#ArialMT-2e" x="55.615234"/>
       <use xlink:href="#ArialMT-30" x="83.398438"/>
       <use xlink:href="#ArialMT-31" x="139.013672"/>
       <use xlink:href="#ArialMT-35" x="194.628906"/>
      </g>
     </g>
    </g>
    <g id="ytick_17">
     <g id="line2d_34">
      <g>
       <use xlink:href="#m6e6befd59c" x="576.689851" y="92.588074" style="fill: #262626; stroke: #262626; stroke-width: 0.8"/>
      </g>
     </g>
     <g id="text_37">
      <!-- 0.020 -->
      <g style="fill: #262626" transform="translate(544.667976 96.166981) scale(0.1 -0.1)">
       <use xlink:href="#ArialMT-30"/>
       <use xlink:href="#ArialMT-2e" x="55.615234"/>
       <use xlink:href="#ArialMT-30" x="83.398438"/>
       <use xlink:href="#ArialMT-32" x="139.013672"/>
       <use xlink:href="#ArialMT-30" x="194.628906"/>
      </g>
     </g>
    </g>
    <g id="ytick_18">
     <g id="line2d_35">
      <g>
       <use xlink:href="#m6e6befd59c" x="576.689851" y="63.225093" style="fill: #262626; stroke: #262626; stroke-width: 0.8"/>
      </g>
     </g>
     <g id="text_38">
      <!-- 0.025 -->
      <g style="fill: #262626" transform="translate(544.667976 66.803999) scale(0.1 -0.1)">
       <use xlink:href="#ArialMT-30"/>
       <use xlink:href="#ArialMT-2e" x="55.615234"/>
       <use xlink:href="#ArialMT-30" x="83.398438"/>
       <use xlink:href="#ArialMT-32" x="139.013672"/>
       <use xlink:href="#ArialMT-35" x="194.628906"/>
      </g>
     </g>
    </g>
    <g id="ytick_19">
     <g id="line2d_36">
      <g>
       <use xlink:href="#m6e6befd59c" x="576.689851" y="33.862112" style="fill: #262626; stroke: #262626; stroke-width: 0.8"/>
      </g>
     </g>
     <g id="text_39">
      <!-- 0.030 -->
      <g style="fill: #262626" transform="translate(544.667976 37.441018) scale(0.1 -0.1)">
       <use xlink:href="#ArialMT-30"/>
       <use xlink:href="#ArialMT-2e" x="55.615234"/>
       <use xlink:href="#ArialMT-30" x="83.398438"/>
       <use xlink:href="#ArialMT-33" x="139.013672"/>
       <use xlink:href="#ArialMT-30" x="194.628906"/>
      </g>
     </g>
    </g>
    <g id="text_40">
     <!-- Density -->
     <g style="fill: #262626" transform="translate(538.563288 129.071875) rotate(-90) scale(0.1 -0.1)">
      <defs>
       <path id="ArialMT-44" d="M 494 0 
L 494 4581 
L 2072 4581 
Q 2606 4581 2888 4516 
Q 3281 4425 3559 4188 
Q 3922 3881 4101 3404 
Q 4281 2928 4281 2316 
Q 4281 1794 4159 1391 
Q 4038 988 3847 723 
Q 3656 459 3429 307 
Q 3203 156 2883 78 
Q 2563 0 2147 0 
L 494 0 
z
M 1100 541 
L 2078 541 
Q 2531 541 2789 625 
Q 3047 709 3200 863 
Q 3416 1078 3536 1442 
Q 3656 1806 3656 2325 
Q 3656 3044 3420 3430 
Q 3184 3816 2847 3947 
Q 2603 4041 2063 4041 
L 1100 4041 
L 1100 541 
z
" transform="scale(0.015625)"/>
      </defs>
      <use xlink:href="#ArialMT-44"/>
      <use xlink:href="#ArialMT-65" x="72.216797"/>
      <use xlink:href="#ArialMT-6e" x="127.832031"/>
      <use xlink:href="#ArialMT-73" x="183.447266"/>
      <use xlink:href="#ArialMT-69" x="233.447266"/>
      <use xlink:href="#ArialMT-74" x="255.664062"/>
      <use xlink:href="#ArialMT-79" x="283.447266"/>
     </g>
    </g>
   </g>
   <g id="patch_14">
    <path d="M 614.173844 210.04 
L 620.293098 210.04 
L 620.293098 183.471293 
L 614.173844 183.471293 
z
" clip-path="url(#pe876120232)" style="fill: #7c0a02; fill-opacity: 0.5; stroke: #ffffff; stroke-width: 0.542927; stroke-linejoin: miter"/>
   </g>
   <g id="patch_15">
    <path d="M 620.293098 210.04 
L 626.412353 210.04 
L 626.412353 183.471293 
L 620.293098 183.471293 
z
" clip-path="url(#pe876120232)" style="fill: #7c0a02; fill-opacity: 0.5; stroke: #ffffff; stroke-width: 0.542927; stroke-linejoin: miter"/>
   </g>
   <g id="patch_16">
    <path d="M 626.412353 210.04 
L 632.531608 210.04 
L 632.531608 183.471293 
L 626.412353 183.471293 
z
" clip-path="url(#pe876120232)" style="fill: #7c0a02; fill-opacity: 0.5; stroke: #ffffff; stroke-width: 0.542927; stroke-linejoin: miter"/>
   </g>
   <g id="patch_17">
    <path d="M 632.531608 210.04 
L 638.650863 210.04 
L 638.650863 143.618231 
L 632.531608 143.618231 
z
" clip-path="url(#pe876120232)" style="fill: #7c0a02; fill-opacity: 0.5; stroke: #ffffff; stroke-width: 0.542927; stroke-linejoin: miter"/>
   </g>
   <g id="patch_18">
    <path d="M 638.650863 210.04 
L 644.770118 210.04 
L 644.770118 130.333878 
L 638.650863 130.333878 
z
" clip-path="url(#pe876120232)" style="fill: #7c0a02; fill-opacity: 0.5; stroke: #ffffff; stroke-width: 0.542927; stroke-linejoin: miter"/>
   </g>
   <g id="patch_19">
    <path d="M 644.770118 210.04 
L 650.889372 210.04 
L 650.889372 24.059048 
L 644.770118 24.059048 
z
" clip-path="url(#pe876120232)" style="fill: #7c0a02; fill-opacity: 0.5; stroke: #ffffff; stroke-width: 0.542927; stroke-linejoin: miter"/>
   </g>
   <g id="patch_20">
    <path d="M 650.889372 210.04 
L 657.008627 210.04 
L 657.008627 117.049524 
L 650.889372 117.049524 
z
" clip-path="url(#pe876120232)" style="fill: #7c0a02; fill-opacity: 0.5; stroke: #ffffff; stroke-width: 0.542927; stroke-linejoin: miter"/>
   </g>
   <g id="patch_21">
    <path d="M 657.008627 210.04 
L 663.127882 210.04 
L 663.127882 210.04 
L 657.008627 210.04 
z
" clip-path="url(#pe876120232)" style="fill: #7c0a02; fill-opacity: 0.5; stroke: #ffffff; stroke-width: 0.542927; stroke-linejoin: miter"/>
   </g>
   <g id="patch_22">
    <path d="M 663.127882 210.04 
L 669.247137 210.04 
L 669.247137 183.471293 
L 663.127882 183.471293 
z
" clip-path="url(#pe876120232)" style="fill: #7c0a02; fill-opacity: 0.5; stroke: #ffffff; stroke-width: 0.542927; stroke-linejoin: miter"/>
   </g>
   <g id="patch_23">
    <path d="M 669.247137 210.04 
L 675.366392 210.04 
L 675.366392 183.471293 
L 669.247137 183.471293 
z
" clip-path="url(#pe876120232)" style="fill: #7c0a02; fill-opacity: 0.5; stroke: #ffffff; stroke-width: 0.542927; stroke-linejoin: miter"/>
   </g>
   <g id="patch_24">
    <path d="M 675.366392 210.04 
L 681.485646 210.04 
L 681.485646 210.04 
L 675.366392 210.04 
z
" clip-path="url(#pe876120232)" style="fill: #7c0a02; fill-opacity: 0.5; stroke: #ffffff; stroke-width: 0.542927; stroke-linejoin: miter"/>
   </g>
   <g id="patch_25">
    <path d="M 681.485646 210.04 
L 687.604901 210.04 
L 687.604901 196.755646 
L 681.485646 196.755646 
z
" clip-path="url(#pe876120232)" style="fill: #7c0a02; fill-opacity: 0.5; stroke: #ffffff; stroke-width: 0.542927; stroke-linejoin: miter"/>
   </g>
   <g id="patch_26">
    <path d="M 687.604901 210.04 
L 693.724156 210.04 
L 693.724156 210.04 
L 687.604901 210.04 
z
" clip-path="url(#pe876120232)" style="fill: #7c0a02; fill-opacity: 0.5; stroke: #ffffff; stroke-width: 0.542927; stroke-linejoin: miter"/>
   </g>
   <g id="patch_27">
    <path d="M 693.724156 210.04 
L 699.843411 210.04 
L 699.843411 210.04 
L 693.724156 210.04 
z
" clip-path="url(#pe876120232)" style="fill: #7c0a02; fill-opacity: 0.5; stroke: #ffffff; stroke-width: 0.542927; stroke-linejoin: miter"/>
   </g>
   <g id="patch_28">
    <path d="M 699.843411 210.04 
L 705.962666 210.04 
L 705.962666 210.04 
L 699.843411 210.04 
z
" clip-path="url(#pe876120232)" style="fill: #7c0a02; fill-opacity: 0.5; stroke: #ffffff; stroke-width: 0.542927; stroke-linejoin: miter"/>
   </g>
   <g id="patch_29">
    <path d="M 705.962666 210.04 
L 712.08192 210.04 
L 712.08192 210.04 
L 705.962666 210.04 
z
" clip-path="url(#pe876120232)" style="fill: #7c0a02; fill-opacity: 0.5; stroke: #ffffff; stroke-width: 0.542927; stroke-linejoin: miter"/>
   </g>
   <g id="patch_30">
    <path d="M 712.08192 210.04 
L 718.201175 210.04 
L 718.201175 210.04 
L 712.08192 210.04 
z
" clip-path="url(#pe876120232)" style="fill: #7c0a02; fill-opacity: 0.5; stroke: #ffffff; stroke-width: 0.542927; stroke-linejoin: miter"/>
   </g>
   <g id="patch_31">
    <path d="M 718.201175 210.04 
L 724.32043 210.04 
L 724.32043 210.04 
L 718.201175 210.04 
z
" clip-path="url(#pe876120232)" style="fill: #7c0a02; fill-opacity: 0.5; stroke: #ffffff; stroke-width: 0.542927; stroke-linejoin: miter"/>
   </g>
   <g id="patch_32">
    <path d="M 724.32043 210.04 
L 730.439685 210.04 
L 730.439685 210.04 
L 724.32043 210.04 
z
" clip-path="url(#pe876120232)" style="fill: #7c0a02; fill-opacity: 0.5; stroke: #ffffff; stroke-width: 0.542927; stroke-linejoin: miter"/>
   </g>
   <g id="patch_33">
    <path d="M 730.439685 210.04 
L 736.55894 210.04 
L 736.55894 210.04 
L 730.439685 210.04 
z
" clip-path="url(#pe876120232)" style="fill: #7c0a02; fill-opacity: 0.5; stroke: #ffffff; stroke-width: 0.542927; stroke-linejoin: miter"/>
   </g>
   <g id="patch_34">
    <path d="M 736.55894 210.04 
L 742.678194 210.04 
L 742.678194 196.755646 
L 736.55894 196.755646 
z
" clip-path="url(#pe876120232)" style="fill: #7c0a02; fill-opacity: 0.5; stroke: #ffffff; stroke-width: 0.542927; stroke-linejoin: miter"/>
   </g>
   <g id="line2d_37">
    <path d="M 585.938593 209.992497 
L 591.515724 209.780316 
L 594.30429 209.499633 
L 597.092856 208.996752 
L 598.951899 208.486443 
L 600.810943 207.797653 
L 602.669987 206.899705 
L 604.52903 205.767772 
L 606.388074 204.385962 
L 608.247118 202.749109 
L 610.106162 200.862502 
L 611.965205 198.739081 
L 614.753771 195.142324 
L 617.542337 191.069402 
L 620.330902 186.463459 
L 622.189946 183.016572 
L 624.04899 179.179987 
L 625.908033 174.8623 
L 627.767077 169.97451 
L 629.626121 164.4511 
L 631.485165 158.275428 
L 634.27373 147.944256 
L 639.850861 126.425644 
L 641.709905 120.492621 
L 642.639427 118.040409 
L 643.568949 116.012879 
L 644.498471 114.464576 
L 645.427993 113.441769 
L 646.357515 112.980288 
L 647.287036 113.103689 
L 648.216558 113.821846 
L 649.14608 115.130101 
L 650.075602 117.009009 
L 651.005124 119.424755 
L 651.934646 122.330209 
L 653.79369 129.365761 
L 655.652733 137.548372 
L 660.300343 158.98984 
L 662.159386 166.622178 
L 664.01843 173.260366 
L 665.877474 178.834307 
L 667.736518 183.409731 
L 669.595561 187.137431 
L 671.454605 190.199974 
L 673.313649 192.768426 
L 675.172692 194.976336 
L 677.031736 196.912096 
L 679.820302 199.407513 
L 682.608867 201.478384 
L 685.397433 203.181221 
L 688.185999 204.591287 
L 691.904086 206.152515 
L 695.622174 207.446871 
L 699.340261 208.476053 
L 702.128827 209.05273 
L 705.846914 209.564742 
L 709.565002 209.836492 
L 714.212611 209.951573 
L 719.789742 209.852956 
L 723.50783 209.605245 
L 727.225917 209.144364 
L 730.944005 208.455981 
L 738.38018 206.935481 
L 741.168745 206.638321 
L 743.957311 206.625966 
L 746.745876 206.901532 
L 750.463964 207.592744 
L 757.900139 209.10831 
L 761.618226 209.585115 
L 765.336314 209.849999 
L 770.913445 210.001722 
L 770.913445 210.001722 
" clip-path="url(#pe876120232)" style="fill: none; stroke: #7c0a02; stroke-width: 1.5; stroke-linecap: round"/>
   </g>
   <g id="patch_35">
    <path d="M 576.689851 210.04 
L 576.689851 14.76 
" style="fill: none; stroke: #262626; stroke-width: 0.8; stroke-linejoin: miter; stroke-linecap: square"/>
   </g>
   <g id="patch_36">
    <path d="M 780.162188 210.04 
L 780.162188 14.76 
" style="fill: none; stroke: #262626; stroke-width: 0.8; stroke-linejoin: miter; stroke-linecap: square"/>
   </g>
   <g id="patch_37">
    <path d="M 576.689851 210.04 
L 780.162188 210.04 
" style="fill: none; stroke: #262626; stroke-width: 0.8; stroke-linejoin: miter; stroke-linecap: square"/>
   </g>
   <g id="patch_38">
    <path d="M 576.689851 14.76 
L 780.162188 14.76 
" style="fill: none; stroke: #262626; stroke-width: 0.8; stroke-linejoin: miter; stroke-linecap: square"/>
   </g>
  </g>
  <g id="axes_4">
   <g id="patch_39">
    <path d="M 485.606412 210.04 
L 495.370412 210.04 
L 495.370412 14.76 
L 485.606412 14.76 
z
" style="fill: #ffffff"/>
   </g>
   <g id="matplotlib.axis_7"/>
   <g id="matplotlib.axis_8">
    <g id="ytick_20">
     <g id="line2d_38">
      <defs>
       <path id="mcb31e1bd84" d="M 0 0 
L 3.5 0 
" style="stroke: #262626; stroke-width: 0.8"/>
      </defs>
      <g>
       <use xlink:href="#mcb31e1bd84" x="495.370412" y="210.04" style="fill: #262626; stroke: #262626; stroke-width: 0.8"/>
      </g>
     </g>
     <g id="text_41">
      <!-- 0.0 -->
      <g style="fill: #262626" transform="translate(502.370412 213.618906) scale(0.1 -0.1)">
       <use xlink:href="#ArialMT-30"/>
       <use xlink:href="#ArialMT-2e" x="55.615234"/>
       <use xlink:href="#ArialMT-30" x="83.398438"/>
      </g>
     </g>
    </g>
    <g id="ytick_21">
     <g id="line2d_39">
      <g>
       <use xlink:href="#mcb31e1bd84" x="495.370412" y="170.984" style="fill: #262626; stroke: #262626; stroke-width: 0.8"/>
      </g>
     </g>
     <g id="text_42">
      <!-- 0.2 -->
      <g style="fill: #262626" transform="translate(502.370412 174.562906) scale(0.1 -0.1)">
       <use xlink:href="#ArialMT-30"/>
       <use xlink:href="#ArialMT-2e" x="55.615234"/>
       <use xlink:href="#ArialMT-32" x="83.398438"/>
      </g>
     </g>
    </g>
    <g id="ytick_22">
     <g id="line2d_40">
      <g>
       <use xlink:href="#mcb31e1bd84" x="495.370412" y="131.928" style="fill: #262626; stroke: #262626; stroke-width: 0.8"/>
      </g>
     </g>
     <g id="text_43">
      <!-- 0.4 -->
      <g style="fill: #262626" transform="translate(502.370412 135.506906) scale(0.1 -0.1)">
       <use xlink:href="#ArialMT-30"/>
       <use xlink:href="#ArialMT-2e" x="55.615234"/>
       <use xlink:href="#ArialMT-34" x="83.398438"/>
      </g>
     </g>
    </g>
    <g id="ytick_23">
     <g id="line2d_41">
      <g>
       <use xlink:href="#mcb31e1bd84" x="495.370412" y="92.872" style="fill: #262626; stroke: #262626; stroke-width: 0.8"/>
      </g>
     </g>
     <g id="text_44">
      <!-- 0.6 -->
      <g style="fill: #262626" transform="translate(502.370412 96.450906) scale(0.1 -0.1)">
       <defs>
        <path id="ArialMT-36" d="M 3184 3459 
L 2625 3416 
Q 2550 3747 2413 3897 
Q 2184 4138 1850 4138 
Q 1581 4138 1378 3988 
Q 1113 3794 959 3422 
Q 806 3050 800 2363 
Q 1003 2672 1297 2822 
Q 1591 2972 1913 2972 
Q 2475 2972 2870 2558 
Q 3266 2144 3266 1488 
Q 3266 1056 3080 686 
Q 2894 316 2569 119 
Q 2244 -78 1831 -78 
Q 1128 -78 684 439 
Q 241 956 241 2144 
Q 241 3472 731 4075 
Q 1159 4600 1884 4600 
Q 2425 4600 2770 4297 
Q 3116 3994 3184 3459 
z
M 888 1484 
Q 888 1194 1011 928 
Q 1134 663 1356 523 
Q 1578 384 1822 384 
Q 2178 384 2434 671 
Q 2691 959 2691 1453 
Q 2691 1928 2437 2201 
Q 2184 2475 1800 2475 
Q 1419 2475 1153 2201 
Q 888 1928 888 1484 
z
" transform="scale(0.015625)"/>
       </defs>
       <use xlink:href="#ArialMT-30"/>
       <use xlink:href="#ArialMT-2e" x="55.615234"/>
       <use xlink:href="#ArialMT-36" x="83.398438"/>
      </g>
     </g>
    </g>
    <g id="ytick_24">
     <g id="line2d_42">
      <g>
       <use xlink:href="#mcb31e1bd84" x="495.370412" y="53.816" style="fill: #262626; stroke: #262626; stroke-width: 0.8"/>
      </g>
     </g>
     <g id="text_45">
      <!-- 0.8 -->
      <g style="fill: #262626" transform="translate(502.370412 57.394906) scale(0.1 -0.1)">
       <defs>
        <path id="ArialMT-38" d="M 1131 2484 
Q 781 2613 612 2850 
Q 444 3088 444 3419 
Q 444 3919 803 4259 
Q 1163 4600 1759 4600 
Q 2359 4600 2725 4251 
Q 3091 3903 3091 3403 
Q 3091 3084 2923 2848 
Q 2756 2613 2416 2484 
Q 2838 2347 3058 2040 
Q 3278 1734 3278 1309 
Q 3278 722 2862 322 
Q 2447 -78 1769 -78 
Q 1091 -78 675 323 
Q 259 725 259 1325 
Q 259 1772 486 2073 
Q 713 2375 1131 2484 
z
M 1019 3438 
Q 1019 3113 1228 2906 
Q 1438 2700 1772 2700 
Q 2097 2700 2305 2904 
Q 2513 3109 2513 3406 
Q 2513 3716 2298 3927 
Q 2084 4138 1766 4138 
Q 1444 4138 1231 3931 
Q 1019 3725 1019 3438 
z
M 838 1322 
Q 838 1081 952 856 
Q 1066 631 1291 507 
Q 1516 384 1775 384 
Q 2178 384 2440 643 
Q 2703 903 2703 1303 
Q 2703 1709 2433 1975 
Q 2163 2241 1756 2241 
Q 1359 2241 1098 1978 
Q 838 1716 838 1322 
z
" transform="scale(0.015625)"/>
       </defs>
       <use xlink:href="#ArialMT-30"/>
       <use xlink:href="#ArialMT-2e" x="55.615234"/>
       <use xlink:href="#ArialMT-38" x="83.398438"/>
      </g>
     </g>
    </g>
    <g id="ytick_25">
     <g id="line2d_43">
      <g>
       <use xlink:href="#mcb31e1bd84" x="495.370412" y="14.76" style="fill: #262626; stroke: #262626; stroke-width: 0.8"/>
      </g>
     </g>
     <g id="text_46">
      <!-- 1.0 -->
      <g style="fill: #262626" transform="translate(502.370412 18.338906) scale(0.1 -0.1)">
       <use xlink:href="#ArialMT-31"/>
       <use xlink:href="#ArialMT-2e" x="55.615234"/>
       <use xlink:href="#ArialMT-30" x="83.398438"/>
      </g>
     </g>
    </g>
   </g>
   <g id="QuadMesh_1">
    <path d="M 485.606412 210.04 
L 495.370412 210.04 
L 495.370412 190.512 
L 485.606412 190.512 
L 485.606412 210.04 
" clip-path="url(#p0c319c2d5a)" style="fill: #130d25"/>
    <path d="M 485.606412 190.512 
L 495.370412 190.512 
L 495.370412 170.984 
L 485.606412 170.984 
L 485.606412 190.512 
" clip-path="url(#p0c319c2d5a)" style="fill: #381a40"/>
    <path d="M 485.606412 170.984 
L 495.370412 170.984 
L 495.370412 151.456 
L 485.606412 151.456 
L 485.606412 170.984 
" clip-path="url(#p0c319c2d5a)" style="fill: #611f53"/>
    <path d="M 485.606412 151.456 
L 495.370412 151.456 
L 495.370412 131.928 
L 485.606412 131.928 
L 485.606412 151.456 
" clip-path="url(#p0c319c2d5a)" style="fill: #8b1d5b"/>
    <path d="M 485.606412 131.928 
L 495.370412 131.928 
L 495.370412 112.4 
L 485.606412 112.4 
L 485.606412 131.928 
" clip-path="url(#p0c319c2d5a)" style="fill: #b71657"/>
    <path d="M 485.606412 112.4 
L 495.370412 112.4 
L 495.370412 92.872 
L 485.606412 92.872 
L 485.606412 112.4 
" clip-path="url(#p0c319c2d5a)" style="fill: #db2946"/>
    <path d="M 485.606412 92.872 
L 495.370412 92.872 
L 495.370412 73.344 
L 485.606412 73.344 
L 485.606412 92.872 
" clip-path="url(#p0c319c2d5a)" style="fill: #ef5840"/>
    <path d="M 485.606412 73.344 
L 495.370412 73.344 
L 495.370412 53.816 
L 485.606412 53.816 
L 485.606412 73.344 
" clip-path="url(#p0c319c2d5a)" style="fill: #f58860"/>
    <path d="M 485.606412 53.816 
L 495.370412 53.816 
L 495.370412 34.288 
L 485.606412 34.288 
L 485.606412 53.816 
" clip-path="url(#p0c319c2d5a)" style="fill: #f6b18b"/>
    <path d="M 485.606412 34.288 
L 495.370412 34.288 
L 495.370412 14.76 
L 485.606412 14.76 
L 485.606412 34.288 
" clip-path="url(#p0c319c2d5a)" style="fill: #f8d9c3"/>
   </g>
   <g id="LineCollection_1"/>
   <g id="patch_40">
    <path d="M 485.606412 210.04 
L 490.488412 210.04 
L 495.370412 210.04 
L 495.370412 14.76 
L 490.488412 14.76 
L 485.606412 14.76 
L 485.606412 210.04 
z
" style="fill: none; stroke: #262626; stroke-width: 0.8; stroke-linejoin: miter; stroke-linecap: square"/>
   </g>
  </g>
 </g>
 <defs>
  <clipPath id="pdf8235f2b8">
   <rect x="48.62" y="14.76" width="203.472337" height="195.28"/>
  </clipPath>
  <clipPath id="p481aebcf10">
   <rect x="312.654925" y="14.76" width="162.77787" height="195.28"/>
  </clipPath>
  <clipPath id="pe876120232">
   <rect x="576.689851" y="14.76" width="203.472337" height="195.28"/>
  </clipPath>
  <clipPath id="p0c319c2d5a">
   <rect x="485.606412" y="14.76" width="9.764" height="195.28"/>
  </clipPath>
 </defs>
</svg>
