<?xml version="1.0" encoding="utf-8" standalone="no"?>
<!DOCTYPE svg PUBLIC "-//W3C//DTD SVG 1.1//EN"
  "http://www.w3.org/Graphics/SVG/1.1/DTD/svg11.dtd">
<svg xmlns:xlink="http://www.w3.org/1999/xlink" width="792pt" height="252pt" viewBox="0 0 792 252" xmlns="http://www.w3.org/2000/svg" version="1.1">
 <metadata>
  <rdf:RDF xmlns:dc="http://purl.org/dc/elements/1.1/" xmlns:cc="http://creativecommons.org/ns#" xmlns:rdf="http://www.w3.org/1999/02/22-rdf-syntax-ns#">
   <cc:Work>
    <dc:type rdf:resource="http://purl.org/dc/dcmitype/StillImage"/>
    <dc:date>2024-01-31T09:47:39.929158</dc:date>
    <dc:format>image/svg+xml</dc:format>
    <dc:creator>
     <cc:Agent>
      <dc:title>Matplotlib v3.8.1, https://matplotlib.org/</dc:title>
     </cc:Agent>
    </dc:creator>
   </cc:Work>
  </rdf:RDF>
 </metadata>
 <defs>
  <style type="text/css">*{stroke-linejoin: round; stroke-linecap: butt}</style>
 </defs>
 <g id="figure_1">
  <g id="patch_1">
   <path d="M 0 252 
L 792 252 
L 792 0 
L 0 0 
z
" style="fill: #ffffff"/>
  </g>
  <g id="axes_1">
   <g id="patch_2">
    <path d="M 48.62 210.04 
L 252.438275 210.04 
L 252.438275 14.76 
L 48.62 14.76 
z
" style="fill: #ffffff"/>
   </g>
   <g id="matplotlib.axis_1">
    <g id="xtick_1">
     <g id="line2d_1">
      <defs>
       <path id="mec40efc148" d="M 0 0 
L 0 3.5 
" style="stroke: #262626; stroke-width: 0.8"/>
      </defs>
      <g>
       <use xlink:href="#mec40efc148" x="48.62" y="210.04" style="fill: #262626; stroke: #262626; stroke-width: 0.8"/>
      </g>
     </g>
     <g id="text_1">
      <!-- 0 -->
      <g style="fill: #262626" transform="translate(45.839531 224.197812) scale(0.1 -0.1)">
       <defs>
        <path id="ArialMT-30" d="M 266 2259 
Q 266 3072 433 3567 
Q 600 4063 929 4331 
Q 1259 4600 1759 4600 
Q 2128 4600 2406 4451 
Q 2684 4303 2865 4023 
Q 3047 3744 3150 3342 
Q 3253 2941 3253 2259 
Q 3253 1453 3087 958 
Q 2922 463 2592 192 
Q 2263 -78 1759 -78 
Q 1097 -78 719 397 
Q 266 969 266 2259 
z
M 844 2259 
Q 844 1131 1108 757 
Q 1372 384 1759 384 
Q 2147 384 2411 759 
Q 2675 1134 2675 2259 
Q 2675 3391 2411 3762 
Q 2147 4134 1753 4134 
Q 1366 4134 1134 3806 
Q 844 3388 844 2259 
z
" transform="scale(0.015625)"/>
       </defs>
       <use xlink:href="#ArialMT-30"/>
      </g>
     </g>
    </g>
    <g id="xtick_2">
     <g id="line2d_2">
      <g>
       <use xlink:href="#mec40efc148" x="82.589712" y="210.04" style="fill: #262626; stroke: #262626; stroke-width: 0.8"/>
      </g>
     </g>
     <g id="text_2">
      <!-- 50 -->
      <g style="fill: #262626" transform="translate(77.028775 224.197812) scale(0.1 -0.1)">
       <defs>
        <path id="ArialMT-35" d="M 266 1200 
L 856 1250 
Q 922 819 1161 601 
Q 1400 384 1738 384 
Q 2144 384 2425 690 
Q 2706 997 2706 1503 
Q 2706 1984 2436 2262 
Q 2166 2541 1728 2541 
Q 1456 2541 1237 2417 
Q 1019 2294 894 2097 
L 366 2166 
L 809 4519 
L 3088 4519 
L 3088 3981 
L 1259 3981 
L 1013 2750 
Q 1425 3038 1878 3038 
Q 2478 3038 2890 2622 
Q 3303 2206 3303 1553 
Q 3303 931 2941 478 
Q 2500 -78 1738 -78 
Q 1113 -78 717 272 
Q 322 622 266 1200 
z
" transform="scale(0.015625)"/>
       </defs>
       <use xlink:href="#ArialMT-35"/>
       <use xlink:href="#ArialMT-30" x="55.615234"/>
      </g>
     </g>
    </g>
    <g id="xtick_3">
     <g id="line2d_3">
      <g>
       <use xlink:href="#mec40efc148" x="116.559425" y="210.04" style="fill: #262626; stroke: #262626; stroke-width: 0.8"/>
      </g>
     </g>
     <g id="text_3">
      <!-- 100 -->
      <g style="fill: #262626" transform="translate(108.218019 224.197812) scale(0.1 -0.1)">
       <defs>
        <path id="ArialMT-31" d="M 2384 0 
L 1822 0 
L 1822 3584 
Q 1619 3391 1289 3197 
Q 959 3003 697 2906 
L 697 3450 
Q 1169 3672 1522 3987 
Q 1875 4303 2022 4600 
L 2384 4600 
L 2384 0 
z
" transform="scale(0.015625)"/>
       </defs>
       <use xlink:href="#ArialMT-31"/>
       <use xlink:href="#ArialMT-30" x="55.615234"/>
       <use xlink:href="#ArialMT-30" x="111.230469"/>
      </g>
     </g>
    </g>
    <g id="xtick_4">
     <g id="line2d_4">
      <g>
       <use xlink:href="#mec40efc148" x="150.529137" y="210.04" style="fill: #262626; stroke: #262626; stroke-width: 0.8"/>
      </g>
     </g>
     <g id="text_4">
      <!-- 150 -->
      <g style="fill: #262626" transform="translate(142.187731 224.197812) scale(0.1 -0.1)">
       <use xlink:href="#ArialMT-31"/>
       <use xlink:href="#ArialMT-35" x="55.615234"/>
       <use xlink:href="#ArialMT-30" x="111.230469"/>
      </g>
     </g>
    </g>
    <g id="xtick_5">
     <g id="line2d_5">
      <g>
       <use xlink:href="#mec40efc148" x="184.49885" y="210.04" style="fill: #262626; stroke: #262626; stroke-width: 0.8"/>
      </g>
     </g>
     <g id="text_5">
      <!-- 200 -->
      <g style="fill: #262626" transform="translate(176.157443 224.197812) scale(0.1 -0.1)">
       <defs>
        <path id="ArialMT-32" d="M 3222 541 
L 3222 0 
L 194 0 
Q 188 203 259 391 
Q 375 700 629 1000 
Q 884 1300 1366 1694 
Q 2113 2306 2375 2664 
Q 2638 3022 2638 3341 
Q 2638 3675 2398 3904 
Q 2159 4134 1775 4134 
Q 1369 4134 1125 3890 
Q 881 3647 878 3216 
L 300 3275 
Q 359 3922 746 4261 
Q 1134 4600 1788 4600 
Q 2447 4600 2831 4234 
Q 3216 3869 3216 3328 
Q 3216 3053 3103 2787 
Q 2991 2522 2730 2228 
Q 2469 1934 1863 1422 
Q 1356 997 1212 845 
Q 1069 694 975 541 
L 3222 541 
z
" transform="scale(0.015625)"/>
       </defs>
       <use xlink:href="#ArialMT-32"/>
       <use xlink:href="#ArialMT-30" x="55.615234"/>
       <use xlink:href="#ArialMT-30" x="111.230469"/>
      </g>
     </g>
    </g>
    <g id="xtick_6">
     <g id="line2d_6">
      <g>
       <use xlink:href="#mec40efc148" x="218.468562" y="210.04" style="fill: #262626; stroke: #262626; stroke-width: 0.8"/>
      </g>
     </g>
     <g id="text_6">
      <!-- 250 -->
      <g style="fill: #262626" transform="translate(210.127156 224.197812) scale(0.1 -0.1)">
       <use xlink:href="#ArialMT-32"/>
       <use xlink:href="#ArialMT-35" x="55.615234"/>
       <use xlink:href="#ArialMT-30" x="111.230469"/>
      </g>
     </g>
    </g>
    <g id="xtick_7">
     <g id="line2d_7">
      <g>
       <use xlink:href="#mec40efc148" x="252.438275" y="210.04" style="fill: #262626; stroke: #262626; stroke-width: 0.8"/>
      </g>
     </g>
     <g id="text_7">
      <!-- 300 -->
      <g style="fill: #262626" transform="translate(244.096868 224.197812) scale(0.1 -0.1)">
       <defs>
        <path id="ArialMT-33" d="M 269 1209 
L 831 1284 
Q 928 806 1161 595 
Q 1394 384 1728 384 
Q 2125 384 2398 659 
Q 2672 934 2672 1341 
Q 2672 1728 2419 1979 
Q 2166 2231 1775 2231 
Q 1616 2231 1378 2169 
L 1441 2663 
Q 1497 2656 1531 2656 
Q 1891 2656 2178 2843 
Q 2466 3031 2466 3422 
Q 2466 3731 2256 3934 
Q 2047 4138 1716 4138 
Q 1388 4138 1169 3931 
Q 950 3725 888 3313 
L 325 3413 
Q 428 3978 793 4289 
Q 1159 4600 1703 4600 
Q 2078 4600 2393 4439 
Q 2709 4278 2876 4000 
Q 3044 3722 3044 3409 
Q 3044 3113 2884 2869 
Q 2725 2625 2413 2481 
Q 2819 2388 3044 2092 
Q 3269 1797 3269 1353 
Q 3269 753 2831 336 
Q 2394 -81 1725 -81 
Q 1122 -81 723 278 
Q 325 638 269 1209 
z
" transform="scale(0.015625)"/>
       </defs>
       <use xlink:href="#ArialMT-33"/>
       <use xlink:href="#ArialMT-30" x="55.615234"/>
       <use xlink:href="#ArialMT-30" x="111.230469"/>
      </g>
     </g>
    </g>
    <g id="text_8">
     <!-- [GGPP] (µM) -->
     <g style="fill: #262626" transform="translate(121.537731 237.465) scale(0.1 -0.1)">
      <defs>
       <path id="ArialMT-5b" d="M 434 -1272 
L 434 4581 
L 1675 4581 
L 1675 4116 
L 997 4116 
L 997 -806 
L 1675 -806 
L 1675 -1272 
L 434 -1272 
z
" transform="scale(0.015625)"/>
       <path id="ArialMT-47" d="M 2638 1797 
L 2638 2334 
L 4578 2338 
L 4578 638 
Q 4131 281 3656 101 
Q 3181 -78 2681 -78 
Q 2006 -78 1454 211 
Q 903 500 622 1047 
Q 341 1594 341 2269 
Q 341 2938 620 3517 
Q 900 4097 1425 4378 
Q 1950 4659 2634 4659 
Q 3131 4659 3532 4498 
Q 3934 4338 4162 4050 
Q 4391 3763 4509 3300 
L 3963 3150 
Q 3859 3500 3706 3700 
Q 3553 3900 3268 4020 
Q 2984 4141 2638 4141 
Q 2222 4141 1919 4014 
Q 1616 3888 1430 3681 
Q 1244 3475 1141 3228 
Q 966 2803 966 2306 
Q 966 1694 1177 1281 
Q 1388 869 1791 669 
Q 2194 469 2647 469 
Q 3041 469 3416 620 
Q 3791 772 3984 944 
L 3984 1797 
L 2638 1797 
z
" transform="scale(0.015625)"/>
       <path id="ArialMT-50" d="M 494 0 
L 494 4581 
L 2222 4581 
Q 2678 4581 2919 4538 
Q 3256 4481 3484 4323 
Q 3713 4166 3852 3881 
Q 3991 3597 3991 3256 
Q 3991 2672 3619 2267 
Q 3247 1863 2275 1863 
L 1100 1863 
L 1100 0 
L 494 0 
z
M 1100 2403 
L 2284 2403 
Q 2872 2403 3119 2622 
Q 3366 2841 3366 3238 
Q 3366 3525 3220 3729 
Q 3075 3934 2838 4000 
Q 2684 4041 2272 4041 
L 1100 4041 
L 1100 2403 
z
" transform="scale(0.015625)"/>
       <path id="ArialMT-5d" d="M 1363 -1272 
L 122 -1272 
L 122 -806 
L 800 -806 
L 800 4116 
L 122 4116 
L 122 4581 
L 1363 4581 
L 1363 -1272 
z
" transform="scale(0.015625)"/>
       <path id="ArialMT-20" transform="scale(0.015625)"/>
       <path id="ArialMT-28" d="M 1497 -1347 
Q 1031 -759 709 28 
Q 388 816 388 1659 
Q 388 2403 628 3084 
Q 909 3875 1497 4659 
L 1900 4659 
Q 1522 4009 1400 3731 
Q 1209 3300 1100 2831 
Q 966 2247 966 1656 
Q 966 153 1900 -1347 
L 1497 -1347 
z
" transform="scale(0.015625)"/>
       <path id="ArialMT-b5" d="M 3181 3319 
L 3181 0 
L 2678 0 
L 2678 394 
Q 2516 144 2356 50 
Q 2138 -78 1847 -78 
Q 1588 -78 1388 25 
Q 1238 103 1056 334 
L 1056 -1272 
L 500 -1272 
L 500 3319 
L 1056 3319 
L 1056 1913 
Q 1056 1147 1137 920 
Q 1219 694 1401 562 
Q 1584 431 1822 431 
Q 2072 431 2269 568 
Q 2466 706 2547 923 
Q 2628 1141 2628 1903 
L 2628 3319 
L 3181 3319 
z
" transform="scale(0.015625)"/>
       <path id="ArialMT-4d" d="M 475 0 
L 475 4581 
L 1388 4581 
L 2472 1338 
Q 2622 884 2691 659 
Q 2769 909 2934 1394 
L 4031 4581 
L 4847 4581 
L 4847 0 
L 4263 0 
L 4263 3834 
L 2931 0 
L 2384 0 
L 1059 3900 
L 1059 0 
L 475 0 
z
" transform="scale(0.015625)"/>
       <path id="ArialMT-29" d="M 791 -1347 
L 388 -1347 
Q 1322 153 1322 1656 
Q 1322 2244 1188 2822 
Q 1081 3291 891 3722 
Q 769 4003 388 4659 
L 791 4659 
Q 1378 3875 1659 3084 
Q 1900 2403 1900 1659 
Q 1900 816 1576 28 
Q 1253 -759 791 -1347 
z
" transform="scale(0.015625)"/>
      </defs>
      <use xlink:href="#ArialMT-5b"/>
      <use xlink:href="#ArialMT-47" x="27.783203"/>
      <use xlink:href="#ArialMT-47" x="105.566406"/>
      <use xlink:href="#ArialMT-50" x="183.349609"/>
      <use xlink:href="#ArialMT-50" x="250.048828"/>
      <use xlink:href="#ArialMT-5d" x="316.748047"/>
      <use xlink:href="#ArialMT-20" x="344.53125"/>
      <use xlink:href="#ArialMT-28" x="372.314453"/>
      <use xlink:href="#ArialMT-b5" x="405.615234"/>
      <use xlink:href="#ArialMT-4d" x="463.232422"/>
      <use xlink:href="#ArialMT-29" x="546.533203"/>
     </g>
    </g>
   </g>
   <g id="matplotlib.axis_2">
    <g id="ytick_1">
     <g id="line2d_8">
      <defs>
       <path id="m0d3fd9113b" d="M 0 0 
L -3.5 0 
" style="stroke: #262626; stroke-width: 0.8"/>
      </defs>
      <g>
       <use xlink:href="#m0d3fd9113b" x="48.62" y="201.163636" style="fill: #262626; stroke: #262626; stroke-width: 0.8"/>
      </g>
     </g>
     <g id="text_9">
      <!-- 0 -->
      <g style="fill: #262626" transform="translate(36.059063 204.742543) scale(0.1 -0.1)">
       <use xlink:href="#ArialMT-30"/>
      </g>
     </g>
    </g>
    <g id="ytick_2">
     <g id="line2d_9">
      <g>
       <use xlink:href="#m0d3fd9113b" x="48.62" y="169.355945" style="fill: #262626; stroke: #262626; stroke-width: 0.8"/>
      </g>
     </g>
     <g id="text_10">
      <!-- 100 -->
      <g style="fill: #262626" transform="translate(24.937188 172.934852) scale(0.1 -0.1)">
       <use xlink:href="#ArialMT-31"/>
       <use xlink:href="#ArialMT-30" x="55.615234"/>
       <use xlink:href="#ArialMT-30" x="111.230469"/>
      </g>
     </g>
    </g>
    <g id="ytick_3">
     <g id="line2d_10">
      <g>
       <use xlink:href="#m0d3fd9113b" x="48.62" y="137.548255" style="fill: #262626; stroke: #262626; stroke-width: 0.8"/>
      </g>
     </g>
     <g id="text_11">
      <!-- 200 -->
      <g style="fill: #262626" transform="translate(24.937188 141.127161) scale(0.1 -0.1)">
       <use xlink:href="#ArialMT-32"/>
       <use xlink:href="#ArialMT-30" x="55.615234"/>
       <use xlink:href="#ArialMT-30" x="111.230469"/>
      </g>
     </g>
    </g>
    <g id="ytick_4">
     <g id="line2d_11">
      <g>
       <use xlink:href="#m0d3fd9113b" x="48.62" y="105.740564" style="fill: #262626; stroke: #262626; stroke-width: 0.8"/>
      </g>
     </g>
     <g id="text_12">
      <!-- 300 -->
      <g style="fill: #262626" transform="translate(24.937188 109.31947) scale(0.1 -0.1)">
       <use xlink:href="#ArialMT-33"/>
       <use xlink:href="#ArialMT-30" x="55.615234"/>
       <use xlink:href="#ArialMT-30" x="111.230469"/>
      </g>
     </g>
    </g>
    <g id="ytick_5">
     <g id="line2d_12">
      <g>
       <use xlink:href="#m0d3fd9113b" x="48.62" y="73.932873" style="fill: #262626; stroke: #262626; stroke-width: 0.8"/>
      </g>
     </g>
     <g id="text_13">
      <!-- 400 -->
      <g style="fill: #262626" transform="translate(24.937188 77.511779) scale(0.1 -0.1)">
       <defs>
        <path id="ArialMT-34" d="M 2069 0 
L 2069 1097 
L 81 1097 
L 81 1613 
L 2172 4581 
L 2631 4581 
L 2631 1613 
L 3250 1613 
L 3250 1097 
L 2631 1097 
L 2631 0 
L 2069 0 
z
M 2069 1613 
L 2069 3678 
L 634 1613 
L 2069 1613 
z
" transform="scale(0.015625)"/>
       </defs>
       <use xlink:href="#ArialMT-34"/>
       <use xlink:href="#ArialMT-30" x="55.615234"/>
       <use xlink:href="#ArialMT-30" x="111.230469"/>
      </g>
     </g>
    </g>
    <g id="ytick_6">
     <g id="line2d_13">
      <g>
       <use xlink:href="#m0d3fd9113b" x="48.62" y="42.125182" style="fill: #262626; stroke: #262626; stroke-width: 0.8"/>
      </g>
     </g>
     <g id="text_14">
      <!-- 500 -->
      <g style="fill: #262626" transform="translate(24.937188 45.704088) scale(0.1 -0.1)">
       <use xlink:href="#ArialMT-35"/>
       <use xlink:href="#ArialMT-30" x="55.615234"/>
       <use xlink:href="#ArialMT-30" x="111.230469"/>
      </g>
     </g>
    </g>
    <g id="text_15">
     <!-- Phytoene flux (µM/h) -->
     <g style="fill: #262626" transform="translate(18.8325 158.630469) rotate(-90) scale(0.1 -0.1)">
      <defs>
       <path id="ArialMT-68" d="M 422 0 
L 422 4581 
L 984 4581 
L 984 2938 
Q 1378 3394 1978 3394 
Q 2347 3394 2619 3248 
Q 2891 3103 3008 2847 
Q 3125 2591 3125 2103 
L 3125 0 
L 2563 0 
L 2563 2103 
Q 2563 2525 2380 2717 
Q 2197 2909 1863 2909 
Q 1613 2909 1392 2779 
Q 1172 2650 1078 2428 
Q 984 2206 984 1816 
L 984 0 
L 422 0 
z
" transform="scale(0.015625)"/>
       <path id="ArialMT-79" d="M 397 -1278 
L 334 -750 
Q 519 -800 656 -800 
Q 844 -800 956 -737 
Q 1069 -675 1141 -563 
Q 1194 -478 1313 -144 
Q 1328 -97 1363 -6 
L 103 3319 
L 709 3319 
L 1400 1397 
Q 1534 1031 1641 628 
Q 1738 1016 1872 1384 
L 2581 3319 
L 3144 3319 
L 1881 -56 
Q 1678 -603 1566 -809 
Q 1416 -1088 1222 -1217 
Q 1028 -1347 759 -1347 
Q 597 -1347 397 -1278 
z
" transform="scale(0.015625)"/>
       <path id="ArialMT-74" d="M 1650 503 
L 1731 6 
Q 1494 -44 1306 -44 
Q 1000 -44 831 53 
Q 663 150 594 308 
Q 525 466 525 972 
L 525 2881 
L 113 2881 
L 113 3319 
L 525 3319 
L 525 4141 
L 1084 4478 
L 1084 3319 
L 1650 3319 
L 1650 2881 
L 1084 2881 
L 1084 941 
Q 1084 700 1114 631 
Q 1144 563 1211 522 
Q 1278 481 1403 481 
Q 1497 481 1650 503 
z
" transform="scale(0.015625)"/>
       <path id="ArialMT-6f" d="M 213 1659 
Q 213 2581 725 3025 
Q 1153 3394 1769 3394 
Q 2453 3394 2887 2945 
Q 3322 2497 3322 1706 
Q 3322 1066 3130 698 
Q 2938 331 2570 128 
Q 2203 -75 1769 -75 
Q 1072 -75 642 372 
Q 213 819 213 1659 
z
M 791 1659 
Q 791 1022 1069 705 
Q 1347 388 1769 388 
Q 2188 388 2466 706 
Q 2744 1025 2744 1678 
Q 2744 2294 2464 2611 
Q 2184 2928 1769 2928 
Q 1347 2928 1069 2612 
Q 791 2297 791 1659 
z
" transform="scale(0.015625)"/>
       <path id="ArialMT-65" d="M 2694 1069 
L 3275 997 
Q 3138 488 2766 206 
Q 2394 -75 1816 -75 
Q 1088 -75 661 373 
Q 234 822 234 1631 
Q 234 2469 665 2931 
Q 1097 3394 1784 3394 
Q 2450 3394 2872 2941 
Q 3294 2488 3294 1666 
Q 3294 1616 3291 1516 
L 816 1516 
Q 847 969 1125 678 
Q 1403 388 1819 388 
Q 2128 388 2347 550 
Q 2566 713 2694 1069 
z
M 847 1978 
L 2700 1978 
Q 2663 2397 2488 2606 
Q 2219 2931 1791 2931 
Q 1403 2931 1139 2672 
Q 875 2413 847 1978 
z
" transform="scale(0.015625)"/>
       <path id="ArialMT-6e" d="M 422 0 
L 422 3319 
L 928 3319 
L 928 2847 
Q 1294 3394 1984 3394 
Q 2284 3394 2536 3286 
Q 2788 3178 2913 3003 
Q 3038 2828 3088 2588 
Q 3119 2431 3119 2041 
L 3119 0 
L 2556 0 
L 2556 2019 
Q 2556 2363 2490 2533 
Q 2425 2703 2258 2804 
Q 2091 2906 1866 2906 
Q 1506 2906 1245 2678 
Q 984 2450 984 1813 
L 984 0 
L 422 0 
z
" transform="scale(0.015625)"/>
       <path id="ArialMT-66" d="M 556 0 
L 556 2881 
L 59 2881 
L 59 3319 
L 556 3319 
L 556 3672 
Q 556 4006 616 4169 
Q 697 4388 901 4523 
Q 1106 4659 1475 4659 
Q 1713 4659 2000 4603 
L 1916 4113 
Q 1741 4144 1584 4144 
Q 1328 4144 1222 4034 
Q 1116 3925 1116 3625 
L 1116 3319 
L 1763 3319 
L 1763 2881 
L 1116 2881 
L 1116 0 
L 556 0 
z
" transform="scale(0.015625)"/>
       <path id="ArialMT-6c" d="M 409 0 
L 409 4581 
L 972 4581 
L 972 0 
L 409 0 
z
" transform="scale(0.015625)"/>
       <path id="ArialMT-75" d="M 2597 0 
L 2597 488 
Q 2209 -75 1544 -75 
Q 1250 -75 995 37 
Q 741 150 617 320 
Q 494 491 444 738 
Q 409 903 409 1263 
L 409 3319 
L 972 3319 
L 972 1478 
Q 972 1038 1006 884 
Q 1059 663 1231 536 
Q 1403 409 1656 409 
Q 1909 409 2131 539 
Q 2353 669 2445 892 
Q 2538 1116 2538 1541 
L 2538 3319 
L 3100 3319 
L 3100 0 
L 2597 0 
z
" transform="scale(0.015625)"/>
       <path id="ArialMT-78" d="M 47 0 
L 1259 1725 
L 138 3319 
L 841 3319 
L 1350 2541 
Q 1494 2319 1581 2169 
Q 1719 2375 1834 2534 
L 2394 3319 
L 3066 3319 
L 1919 1756 
L 3153 0 
L 2463 0 
L 1781 1031 
L 1600 1309 
L 728 0 
L 47 0 
z
" transform="scale(0.015625)"/>
       <path id="ArialMT-2f" d="M 0 -78 
L 1328 4659 
L 1778 4659 
L 453 -78 
L 0 -78 
z
" transform="scale(0.015625)"/>
      </defs>
      <use xlink:href="#ArialMT-50"/>
      <use xlink:href="#ArialMT-68" x="66.699219"/>
      <use xlink:href="#ArialMT-79" x="122.314453"/>
      <use xlink:href="#ArialMT-74" x="172.314453"/>
      <use xlink:href="#ArialMT-6f" x="200.097656"/>
      <use xlink:href="#ArialMT-65" x="255.712891"/>
      <use xlink:href="#ArialMT-6e" x="311.328125"/>
      <use xlink:href="#ArialMT-65" x="366.943359"/>
      <use xlink:href="#ArialMT-20" x="422.558594"/>
      <use xlink:href="#ArialMT-66" x="450.341797"/>
      <use xlink:href="#ArialMT-6c" x="478.125"/>
      <use xlink:href="#ArialMT-75" x="500.341797"/>
      <use xlink:href="#ArialMT-78" x="555.957031"/>
      <use xlink:href="#ArialMT-20" x="605.957031"/>
      <use xlink:href="#ArialMT-28" x="633.740234"/>
      <use xlink:href="#ArialMT-b5" x="667.041016"/>
      <use xlink:href="#ArialMT-4d" x="724.658203"/>
      <use xlink:href="#ArialMT-2f" x="807.958984"/>
      <use xlink:href="#ArialMT-68" x="835.742188"/>
      <use xlink:href="#ArialMT-29" x="891.357422"/>
     </g>
    </g>
   </g>
   <g id="PolyCollection_1">
    <defs>
     <path id="mc5262225db" d="M 48.62 -50.836364 
L 48.62 -50.836364 
L 49.639091 -52.717885 
L 50.658183 -54.577561 
L 51.677274 -56.415681 
L 52.696365 -58.231974 
L 53.715457 -60.027159 
L 54.734548 -61.801622 
L 55.75364 -63.553751 
L 56.772731 -65.289682 
L 57.791822 -67.005603 
L 58.810914 -68.704184 
L 59.830005 -70.377948 
L 60.849096 -72.032573 
L 61.868188 -73.670094 
L 62.887279 -75.290478 
L 63.906371 -76.893029 
L 64.925462 -78.478041 
L 65.944553 -80.045799 
L 66.963645 -81.596584 
L 67.982736 -83.130859 
L 69.001827 -84.648791 
L 70.020919 -86.150575 
L 71.04001 -87.636252 
L 72.059102 -89.096383 
L 73.078193 -90.528806 
L 74.097284 -91.945109 
L 75.116376 -93.356111 
L 76.135467 -94.759409 
L 77.154558 -96.158437 
L 78.17365 -97.520199 
L 79.192741 -98.878991 
L 80.211833 -100.224265 
L 81.230924 -101.54075 
L 82.250015 -102.873067 
L 83.269107 -104.177731 
L 84.288198 -105.426928 
L 85.307289 -106.659904 
L 86.326381 -107.90231 
L 87.345472 -109.182731 
L 88.364564 -110.450509 
L 89.383655 -111.707029 
L 90.402746 -112.920233 
L 91.421838 -114.101128 
L 92.440929 -115.332819 
L 93.46002 -116.529474 
L 94.479112 -117.700532 
L 95.498203 -118.869062 
L 96.517295 -120.006795 
L 97.536386 -121.142478 
L 98.555477 -122.267692 
L 99.574569 -123.38333 
L 100.59366 -124.487553 
L 101.612751 -125.584447 
L 102.631843 -126.657884 
L 103.650934 -127.703073 
L 104.670025 -128.746606 
L 105.689117 -129.78006 
L 106.708208 -130.790526 
L 107.7273 -131.791582 
L 108.746391 -132.780705 
L 109.765482 -133.764569 
L 110.784574 -134.728211 
L 111.803665 -135.691249 
L 112.822756 -136.663809 
L 113.841848 -137.579092 
L 114.860939 -138.509759 
L 115.880031 -139.432944 
L 116.899122 -140.347908 
L 117.918213 -141.24025 
L 118.937305 -142.112406 
L 119.956396 -142.974216 
L 120.975487 -143.800118 
L 121.994579 -144.667045 
L 123.01367 -145.458962 
L 124.032762 -146.282808 
L 125.051853 -147.126517 
L 126.070944 -147.975455 
L 127.090036 -148.78136 
L 128.109127 -149.561911 
L 129.128218 -150.365087 
L 130.14731 -151.170519 
L 131.166401 -151.984711 
L 132.185493 -152.729567 
L 133.204584 -153.502622 
L 134.223675 -154.211645 
L 135.242767 -154.968723 
L 136.261858 -155.744025 
L 137.280949 -156.516005 
L 138.300041 -157.258536 
L 139.319132 -157.971904 
L 140.338224 -158.704944 
L 141.357315 -159.428168 
L 142.376406 -160.092987 
L 143.395498 -160.80249 
L 144.414589 -161.40139 
L 145.43368 -162.064068 
L 146.452772 -162.700675 
L 147.471863 -163.28183 
L 148.490955 -163.886872 
L 149.510046 -164.509082 
L 150.529137 -165.103485 
L 151.548229 -165.689574 
L 152.56732 -166.270038 
L 153.586411 -166.844956 
L 154.605503 -167.414409 
L 155.624594 -167.959117 
L 156.643685 -168.515135 
L 157.662777 -169.123055 
L 158.681868 -169.709468 
L 159.70096 -170.273418 
L 160.720051 -170.799143 
L 161.739142 -171.262039 
L 162.758234 -171.789499 
L 163.777325 -172.307675 
L 164.796416 -172.793333 
L 165.815508 -173.261481 
L 166.834599 -173.768542 
L 167.853691 -174.238556 
L 168.872782 -174.702507 
L 169.891873 -175.184687 
L 170.910965 -175.736397 
L 171.930056 -176.281711 
L 172.949147 -176.762061 
L 173.968239 -177.182211 
L 174.98733 -177.656076 
L 176.006422 -178.155867 
L 177.025513 -178.653137 
L 178.044604 -179.147636 
L 179.063696 -179.626624 
L 180.082787 -180.079302 
L 181.101878 -180.507277 
L 182.12097 -180.929557 
L 183.140061 -181.347897 
L 184.159153 -181.813202 
L 185.178244 -182.233234 
L 186.197335 -182.649686 
L 187.216427 -183.062604 
L 188.235518 -183.470075 
L 189.254609 -183.861605 
L 190.273701 -184.24977 
L 191.292792 -184.634614 
L 192.311884 -185.016178 
L 193.330975 -185.394504 
L 194.350066 -185.764298 
L 195.369158 -186.114953 
L 196.388249 -186.474122 
L 197.40734 -186.84496 
L 198.426432 -187.212744 
L 199.445523 -187.577513 
L 200.464615 -187.939303 
L 201.483706 -188.298719 
L 202.502797 -188.656381 
L 203.521889 -189.007312 
L 204.54098 -189.361029 
L 205.560071 -189.710873 
L 206.579163 -190.05606 
L 207.598254 -190.398509 
L 208.617345 -190.738252 
L 209.636437 -191.075321 
L 210.655528 -191.409748 
L 211.67462 -191.741563 
L 212.693711 -192.070864 
L 213.712802 -192.398234 
L 214.731894 -192.72308 
L 215.750985 -193.057432 
L 216.770076 -193.397864 
L 217.789168 -193.735798 
L 218.808259 -194.071262 
L 219.827351 -194.402497 
L 220.846442 -194.698451 
L 221.865533 -194.992124 
L 222.884625 -195.283543 
L 223.903716 -195.572734 
L 224.922807 -195.859721 
L 225.941899 -196.144531 
L 226.96099 -196.435168 
L 227.980082 -196.741869 
L 228.999173 -197.046377 
L 230.018264 -197.348716 
L 231.037356 -197.648908 
L 232.056447 -197.936413 
L 233.075538 -198.214562 
L 234.09463 -198.490692 
L 235.113721 -198.764823 
L 236.132813 -199.036978 
L 237.151904 -199.307177 
L 238.170995 -199.575443 
L 239.190087 -199.841795 
L 240.209178 -200.106254 
L 241.228269 -200.36884 
L 242.247361 -200.629572 
L 243.266452 -200.888472 
L 244.285544 -201.148965 
L 245.304635 -201.409237 
L 246.323726 -201.667991 
L 247.342818 -201.930853 
L 248.361909 -202.19476 
L 249.381 -202.453729 
L 250.400092 -202.684912 
L 251.419183 -202.934292 
L 251.419183 -228.363636 
L 251.419183 -228.363636 
L 250.400092 -227.958268 
L 249.381 -227.522014 
L 248.361909 -227.083484 
L 247.342818 -226.642662 
L 246.323726 -226.199529 
L 245.304635 -225.754067 
L 244.285544 -225.306258 
L 243.266452 -224.856083 
L 242.247361 -224.403523 
L 241.228269 -223.948559 
L 240.209178 -223.491172 
L 239.190087 -223.031091 
L 238.170995 -222.568432 
L 237.151904 -222.103292 
L 236.132813 -221.63565 
L 235.113721 -221.165485 
L 234.09463 -220.692778 
L 233.075538 -220.217508 
L 232.056447 -219.739653 
L 231.037356 -219.259193 
L 230.018264 -218.776107 
L 228.999173 -218.290372 
L 227.980082 -217.801966 
L 226.96099 -217.310869 
L 225.941899 -216.825905 
L 224.922807 -216.342147 
L 223.903716 -215.855624 
L 222.884625 -215.366313 
L 221.865533 -214.87419 
L 220.846442 -214.37923 
L 219.827351 -213.88141 
L 218.808259 -213.380703 
L 217.789168 -212.87799 
L 216.770076 -212.394545 
L 215.750985 -211.908134 
L 214.731894 -211.418729 
L 213.712802 -210.905158 
L 212.693711 -210.376148 
L 211.67462 -209.843586 
L 210.655528 -209.331271 
L 209.636437 -208.79834 
L 208.617345 -208.258282 
L 207.598254 -207.756873 
L 206.579163 -207.25224 
L 205.560071 -206.744352 
L 204.54098 -206.227081 
L 203.521889 -205.698669 
L 202.502797 -205.157554 
L 201.483706 -204.631029 
L 200.464615 -204.092846 
L 199.445523 -203.551219 
L 198.426432 -203.006466 
L 197.40734 -202.463598 
L 196.388249 -201.917183 
L 195.369158 -201.372473 
L 194.350066 -200.827139 
L 193.330975 -200.277778 
L 192.311884 -199.696066 
L 191.292792 -199.144774 
L 190.273701 -198.582573 
L 189.254609 -198.013323 
L 188.235518 -197.41713 
L 187.216427 -196.876144 
L 186.197335 -196.335118 
L 185.178244 -195.757427 
L 184.159153 -195.174505 
L 183.140061 -194.587419 
L 182.12097 -194.020741 
L 181.101878 -193.416559 
L 180.082787 -192.808136 
L 179.063696 -192.200193 
L 178.044604 -191.630606 
L 177.025513 -191.069983 
L 176.006422 -190.453735 
L 174.98733 -189.774305 
L 173.968239 -189.189575 
L 172.949147 -188.575419 
L 171.930056 -187.941428 
L 170.910965 -187.302826 
L 169.891873 -186.658284 
L 168.872782 -186.006835 
L 167.853691 -185.350632 
L 166.834599 -184.630065 
L 165.815508 -183.948395 
L 164.796416 -183.301561 
L 163.777325 -182.624871 
L 162.758234 -181.948245 
L 161.739142 -181.318053 
L 160.720051 -180.612599 
L 159.70096 -179.938668 
L 158.681868 -179.276088 
L 157.662777 -178.634945 
L 156.643685 -177.972041 
L 155.624594 -177.302678 
L 154.605503 -176.627119 
L 153.586411 -175.945698 
L 152.56732 -175.255459 
L 151.548229 -174.512459 
L 150.529137 -173.823745 
L 149.510046 -173.066743 
L 148.490955 -172.358362 
L 147.471863 -171.663151 
L 146.452772 -170.960728 
L 145.43368 -170.165042 
L 144.414589 -169.423984 
L 143.395498 -168.665949 
L 142.376406 -167.943346 
L 141.357315 -167.193854 
L 140.338224 -166.437864 
L 139.319132 -165.65584 
L 138.300041 -164.904805 
L 137.280949 -164.035452 
L 136.261858 -163.214822 
L 135.242767 -162.417212 
L 134.223675 -161.637655 
L 133.204584 -160.819105 
L 132.185493 -160.022818 
L 131.166401 -159.250854 
L 130.14731 -158.448216 
L 129.128218 -157.631017 
L 128.109127 -156.796132 
L 127.090036 -155.888003 
L 126.070944 -155.030337 
L 125.051853 -154.20698 
L 124.032762 -153.326961 
L 123.01367 -152.47944 
L 121.994579 -151.665259 
L 120.975487 -150.79236 
L 119.956396 -149.92536 
L 118.937305 -148.992807 
L 117.918213 -148.103422 
L 116.899122 -147.182344 
L 115.880031 -146.234596 
L 114.860939 -145.314008 
L 113.841848 -144.391371 
L 112.822756 -143.418115 
L 111.803665 -142.484191 
L 110.784574 -141.55182 
L 109.765482 -140.601612 
L 108.746391 -139.626351 
L 107.7273 -138.653616 
L 106.708208 -137.641415 
L 105.689117 -136.65293 
L 104.670025 -135.676115 
L 103.650934 -134.675955 
L 102.631843 -133.616133 
L 101.612751 -132.599418 
L 100.59366 -131.569393 
L 99.574569 -130.52543 
L 98.555477 -129.460813 
L 97.536386 -128.371458 
L 96.517295 -127.267591 
L 95.498203 -126.165004 
L 94.479112 -125.081187 
L 93.46002 -123.931612 
L 92.440929 -122.777743 
L 91.421838 -121.583461 
L 90.402746 -120.385055 
L 89.383655 -119.169661 
L 88.364564 -117.955142 
L 87.345472 -116.720856 
L 86.326381 -115.474637 
L 85.307289 -114.221824 
L 84.288198 -112.938101 
L 83.269107 -111.615151 
L 82.250015 -110.259894 
L 81.230924 -108.857922 
L 80.211833 -107.480802 
L 79.192741 -106.11186 
L 78.17365 -104.690881 
L 77.154558 -103.241078 
L 76.135467 -101.768008 
L 75.116376 -100.28282 
L 74.097284 -98.769714 
L 73.078193 -97.215195 
L 72.059102 -95.649846 
L 71.04001 -94.069775 
L 70.020919 -92.435378 
L 69.001827 -90.785959 
L 67.982736 -89.119367 
L 66.963645 -87.423053 
L 65.944553 -85.703347 
L 64.925462 -83.943728 
L 63.906371 -82.151812 
L 62.887279 -80.330989 
L 61.868188 -78.476353 
L 60.849096 -76.587026 
L 59.830005 -74.662163 
L 58.810914 -72.700894 
L 57.791822 -70.702199 
L 56.772731 -68.664995 
L 55.75364 -66.588159 
L 54.734548 -64.470447 
L 53.715457 -62.31106 
L 52.696365 -60.108377 
L 51.677274 -57.860859 
L 50.658183 -55.567604 
L 49.639091 -53.227238 
L 48.62 -50.836364 
z
" style="stroke: #ef553b; stroke-opacity: 0.3"/>
    </defs>
    <g clip-path="url(#pd4911f9abf)">
     <use xlink:href="#mc5262225db" x="0" y="252" style="fill: #ef553b; fill-opacity: 0.3; stroke: #ef553b; stroke-opacity: 0.3"/>
    </g>
   </g>
   <g id="line2d_14">
    <defs>
     <path id="m4c1c2387be" d="M 0 2.5 
C 0.663008 2.5 1.29895 2.236584 1.767767 1.767767 
C 2.236584 1.29895 2.5 0.663008 2.5 0 
C 2.5 -0.663008 2.236584 -1.29895 1.767767 -1.767767 
C 1.29895 -2.236584 0.663008 -2.5 0 -2.5 
C -0.663008 -2.5 -1.29895 -2.236584 -1.767767 -1.767767 
C -2.236584 -1.29895 -2.5 -0.663008 -2.5 0 
C -2.5 0.663008 -2.236584 1.29895 -1.767767 1.767767 
C -1.29895 2.236584 -0.663008 2.5 0 2.5 
z
" style="stroke: #81624c"/>
    </defs>
    <g clip-path="url(#pd4911f9abf)">
     <use xlink:href="#m4c1c2387be" x="51.274466" y="199.9662" style="fill: #feb886; stroke: #81624c"/>
     <use xlink:href="#m4c1c2387be" x="52.679771" y="199.781979" style="fill: #feb886; stroke: #81624c"/>
     <use xlink:href="#m4c1c2387be" x="52.367481" y="199.754931" style="fill: #feb886; stroke: #81624c"/>
     <use xlink:href="#m4c1c2387be" x="64.234504" y="174.444289" style="fill: #feb886; stroke: #81624c"/>
     <use xlink:href="#m4c1c2387be" x="67.357405" y="183.618785" style="fill: #feb886; stroke: #81624c"/>
     <use xlink:href="#m4c1c2387be" x="70.480305" y="175.70167" style="fill: #feb886; stroke: #81624c"/>
     <use xlink:href="#m4c1c2387be" x="100.147862" y="120.749732" style="fill: #feb886; stroke: #81624c"/>
     <use xlink:href="#m4c1c2387be" x="114.200916" y="122.577321" style="fill: #feb886; stroke: #81624c"/>
     <use xlink:href="#m4c1c2387be" x="97.024962" y="127.182844" style="fill: #feb886; stroke: #81624c"/>
     <use xlink:href="#m4c1c2387be" x="101.709313" y="109.053164" style="fill: #feb886; stroke: #81624c"/>
     <use xlink:href="#m4c1c2387be" x="98.586412" y="103.716605" style="fill: #feb886; stroke: #81624c"/>
     <use xlink:href="#m4c1c2387be" x="114.200916" y="109.930407" style="fill: #feb886; stroke: #81624c"/>
     <use xlink:href="#m4c1c2387be" x="173.53603" y="78.934502" style="fill: #feb886; stroke: #81624c"/>
     <use xlink:href="#m4c1c2387be" x="154.798626" y="66.287588" style="fill: #feb886; stroke: #81624c"/>
     <use xlink:href="#m4c1c2387be" x="164.167328" y="63.728963" style="fill: #feb886; stroke: #81624c"/>
     <use xlink:href="#m4c1c2387be" x="187.589084" y="68.115176" style="fill: #feb886; stroke: #81624c"/>
     <use xlink:href="#m4c1c2387be" x="192.273435" y="63.217239" style="fill: #feb886; stroke: #81624c"/>
     <use xlink:href="#m4c1c2387be" x="50.18145" y="200.59416" style="fill: #feb886; stroke: #81624c"/>
     <use xlink:href="#m4c1c2387be" x="50.18145" y="200.47427" style="fill: #feb886; stroke: #81624c"/>
     <use xlink:href="#m4c1c2387be" x="50.18145" y="200.1146" style="fill: #feb886; stroke: #81624c"/>
     <use xlink:href="#m4c1c2387be" x="111.078015" y="121.33456" style="fill: #feb886; stroke: #81624c"/>
     <use xlink:href="#m4c1c2387be" x="106.393664" y="127.475259" style="fill: #feb886; stroke: #81624c"/>
     <use xlink:href="#m4c1c2387be" x="92.340611" y="130.545608" style="fill: #feb886; stroke: #81624c"/>
     <use xlink:href="#m4c1c2387be" x="51.742901" y="198.256308" style="fill: #feb886; stroke: #81624c"/>
     <use xlink:href="#m4c1c2387be" x="50.18145" y="198.735867" style="fill: #feb886; stroke: #81624c"/>
     <use xlink:href="#m4c1c2387be" x="50.18145" y="198.88573" style="fill: #feb886; stroke: #81624c"/>
     <use xlink:href="#m4c1c2387be" x="107.955114" y="121.33456" style="fill: #feb886; stroke: #81624c"/>
     <use xlink:href="#m4c1c2387be" x="97.024962" y="115.193862" style="fill: #feb886; stroke: #81624c"/>
     <use xlink:href="#m4c1c2387be" x="82.971908" y="148.967702" style="fill: #feb886; stroke: #81624c"/>
     <use xlink:href="#m4c1c2387be" x="51.430611" y="194.101833" style="fill: #feb886; stroke: #81624c"/>
     <use xlink:href="#m4c1c2387be" x="51.586756" y="194.869421" style="fill: #feb886; stroke: #81624c"/>
     <use xlink:href="#m4c1c2387be" x="51.742901" y="192.976039" style="fill: #feb886; stroke: #81624c"/>
     <use xlink:href="#m4c1c2387be" x="49.400725" y="200.676767" style="fill: #feb886; stroke: #81624c"/>
     <use xlink:href="#m4c1c2387be" x="50.649885" y="195.637008" style="fill: #feb886; stroke: #81624c"/>
     <use xlink:href="#m4c1c2387be" x="50.649885" y="196.441147" style="fill: #feb886; stroke: #81624c"/>
     <use xlink:href="#m4c1c2387be" x="50.962176" y="195.05218" style="fill: #feb886; stroke: #81624c"/>
     <use xlink:href="#m4c1c2387be" x="50.49374" y="196.601975" style="fill: #feb886; stroke: #81624c"/>
     <use xlink:href="#m4c1c2387be" x="50.025305" y="198.458805" style="fill: #feb886; stroke: #81624c"/>
     <use xlink:href="#m4c1c2387be" x="50.49374" y="196.565423" style="fill: #feb886; stroke: #81624c"/>
     <use xlink:href="#m4c1c2387be" x="49.86916" y="195.753974" style="fill: #feb886; stroke: #81624c"/>
     <use xlink:href="#m4c1c2387be" x="50.962176" y="195.900181" style="fill: #feb886; stroke: #81624c"/>
     <use xlink:href="#m4c1c2387be" x="49.713015" y="200.716243" style="fill: #feb886; stroke: #81624c"/>
     <use xlink:href="#m4c1c2387be" x="49.088435" y="200.558339" style="fill: #feb886; stroke: #81624c"/>
    </g>
   </g>
   <g id="line2d_15">
    <path d="M 48.62 201.163636 
L 52.696365 192.947247 
L 56.772731 185.216821 
L 60.849096 177.930481 
L 64.925462 171.051029 
L 69.001827 164.545309 
L 73.078193 158.383671 
L 78.17365 151.125234 
L 83.269107 144.316906 
L 88.364564 137.918077 
L 93.46002 131.892881 
L 98.555477 126.209521 
L 103.650934 120.839709 
L 108.746391 115.758194 
L 114.860939 110.009258 
L 120.975487 104.608287 
L 127.090036 99.524615 
L 133.204584 94.73108 
L 139.319132 90.203533 
L 145.43368 85.920432 
L 152.56732 81.20683 
L 159.70096 76.77254 
L 166.834599 72.593451 
L 173.968239 68.648148 
L 182.12097 64.401114 
L 190.273701 60.40929 
L 198.426432 56.650346 
L 207.598254 52.675328 
L 216.770076 48.945127 
L 226.96099 45.060993 
L 237.151904 41.425635 
L 247.342818 38.015893 
L 251.419183 36.710522 
L 251.419183 36.710522 
" clip-path="url(#pd4911f9abf)" style="fill: none; stroke: #ef553b; stroke-width: 1.5; stroke-linecap: round"/>
   </g>
   <g id="patch_3">
    <path d="M 48.62 210.04 
L 48.62 14.76 
" style="fill: none; stroke: #262626; stroke-width: 0.8; stroke-linejoin: miter; stroke-linecap: square"/>
   </g>
   <g id="patch_4">
    <path d="M 252.438275 210.04 
L 252.438275 14.76 
" style="fill: none; stroke: #262626; stroke-width: 0.8; stroke-linejoin: miter; stroke-linecap: square"/>
   </g>
   <g id="patch_5">
    <path d="M 48.62 210.04 
L 252.438275 210.04 
" style="fill: none; stroke: #262626; stroke-width: 0.8; stroke-linejoin: miter; stroke-linecap: square"/>
   </g>
   <g id="patch_6">
    <path d="M 48.62 14.76 
L 252.438275 14.76 
" style="fill: none; stroke: #262626; stroke-width: 0.8; stroke-linejoin: miter; stroke-linecap: square"/>
   </g>
   <g id="legend_1">
    <g id="line2d_16">
     <g>
      <use xlink:href="#m4c1c2387be" x="67.62" y="27.539688" style="fill: #feb886; stroke: #81624c"/>
     </g>
    </g>
    <g id="text_16">
     <!-- PGIp_CrtB -->
     <g style="fill: #262626" transform="translate(85.62 31.039688) scale(0.1 -0.1)">
      <defs>
       <path id="ArialMT-49" d="M 597 0 
L 597 4581 
L 1203 4581 
L 1203 0 
L 597 0 
z
" transform="scale(0.015625)"/>
       <path id="ArialMT-70" d="M 422 -1272 
L 422 3319 
L 934 3319 
L 934 2888 
Q 1116 3141 1344 3267 
Q 1572 3394 1897 3394 
Q 2322 3394 2647 3175 
Q 2972 2956 3137 2557 
Q 3303 2159 3303 1684 
Q 3303 1175 3120 767 
Q 2938 359 2589 142 
Q 2241 -75 1856 -75 
Q 1575 -75 1351 44 
Q 1128 163 984 344 
L 984 -1272 
L 422 -1272 
z
M 931 1641 
Q 931 1000 1190 694 
Q 1450 388 1819 388 
Q 2194 388 2461 705 
Q 2728 1022 2728 1688 
Q 2728 2322 2467 2637 
Q 2206 2953 1844 2953 
Q 1484 2953 1207 2617 
Q 931 2281 931 1641 
z
" transform="scale(0.015625)"/>
       <path id="ArialMT-5f" d="M -97 -1272 
L -97 -866 
L 3631 -866 
L 3631 -1272 
L -97 -1272 
z
" transform="scale(0.015625)"/>
       <path id="ArialMT-43" d="M 3763 1606 
L 4369 1453 
Q 4178 706 3683 314 
Q 3188 -78 2472 -78 
Q 1731 -78 1267 223 
Q 803 525 561 1097 
Q 319 1669 319 2325 
Q 319 3041 592 3573 
Q 866 4106 1370 4382 
Q 1875 4659 2481 4659 
Q 3169 4659 3637 4309 
Q 4106 3959 4291 3325 
L 3694 3184 
Q 3534 3684 3231 3912 
Q 2928 4141 2469 4141 
Q 1941 4141 1586 3887 
Q 1231 3634 1087 3207 
Q 944 2781 944 2328 
Q 944 1744 1114 1308 
Q 1284 872 1643 656 
Q 2003 441 2422 441 
Q 2931 441 3284 734 
Q 3638 1028 3763 1606 
z
" transform="scale(0.015625)"/>
       <path id="ArialMT-72" d="M 416 0 
L 416 3319 
L 922 3319 
L 922 2816 
Q 1116 3169 1280 3281 
Q 1444 3394 1641 3394 
Q 1925 3394 2219 3213 
L 2025 2691 
Q 1819 2813 1613 2813 
Q 1428 2813 1281 2702 
Q 1134 2591 1072 2394 
Q 978 2094 978 1738 
L 978 0 
L 416 0 
z
" transform="scale(0.015625)"/>
       <path id="ArialMT-42" d="M 469 0 
L 469 4581 
L 2188 4581 
Q 2713 4581 3030 4442 
Q 3347 4303 3526 4014 
Q 3706 3725 3706 3409 
Q 3706 3116 3547 2856 
Q 3388 2597 3066 2438 
Q 3481 2316 3704 2022 
Q 3928 1728 3928 1328 
Q 3928 1006 3792 729 
Q 3656 453 3456 303 
Q 3256 153 2954 76 
Q 2653 0 2216 0 
L 469 0 
z
M 1075 2656 
L 2066 2656 
Q 2469 2656 2644 2709 
Q 2875 2778 2992 2937 
Q 3109 3097 3109 3338 
Q 3109 3566 3000 3739 
Q 2891 3913 2687 3977 
Q 2484 4041 1991 4041 
L 1075 4041 
L 1075 2656 
z
M 1075 541 
L 2216 541 
Q 2509 541 2628 563 
Q 2838 600 2978 687 
Q 3119 775 3209 942 
Q 3300 1109 3300 1328 
Q 3300 1584 3169 1773 
Q 3038 1963 2805 2039 
Q 2572 2116 2134 2116 
L 1075 2116 
L 1075 541 
z
" transform="scale(0.015625)"/>
      </defs>
      <use xlink:href="#ArialMT-50"/>
      <use xlink:href="#ArialMT-47" x="66.699219"/>
      <use xlink:href="#ArialMT-49" x="144.482422"/>
      <use xlink:href="#ArialMT-70" x="172.265625"/>
      <use xlink:href="#ArialMT-5f" x="227.880859"/>
      <use xlink:href="#ArialMT-43" x="283.496094"/>
      <use xlink:href="#ArialMT-72" x="355.712891"/>
      <use xlink:href="#ArialMT-74" x="389.013672"/>
      <use xlink:href="#ArialMT-42" x="416.796875"/>
     </g>
    </g>
    <g id="line2d_17">
     <path d="M 57.62 41.806875 
L 67.62 41.806875 
L 77.62 41.806875 
" style="fill: none; stroke: #ef553b; stroke-width: 1.5; stroke-linecap: round"/>
    </g>
    <g id="text_17">
     <!-- best fit (95% CI) -->
     <g style="fill: #262626" transform="translate(85.62 45.306875) scale(0.1 -0.1)">
      <defs>
       <path id="ArialMT-62" d="M 941 0 
L 419 0 
L 419 4581 
L 981 4581 
L 981 2947 
Q 1338 3394 1891 3394 
Q 2197 3394 2470 3270 
Q 2744 3147 2920 2923 
Q 3097 2700 3197 2384 
Q 3297 2069 3297 1709 
Q 3297 856 2875 390 
Q 2453 -75 1863 -75 
Q 1275 -75 941 416 
L 941 0 
z
M 934 1684 
Q 934 1088 1097 822 
Q 1363 388 1816 388 
Q 2184 388 2453 708 
Q 2722 1028 2722 1663 
Q 2722 2313 2464 2622 
Q 2206 2931 1841 2931 
Q 1472 2931 1203 2611 
Q 934 2291 934 1684 
z
" transform="scale(0.015625)"/>
       <path id="ArialMT-73" d="M 197 991 
L 753 1078 
Q 800 744 1014 566 
Q 1228 388 1613 388 
Q 2000 388 2187 545 
Q 2375 703 2375 916 
Q 2375 1106 2209 1216 
Q 2094 1291 1634 1406 
Q 1016 1563 777 1677 
Q 538 1791 414 1992 
Q 291 2194 291 2438 
Q 291 2659 392 2848 
Q 494 3038 669 3163 
Q 800 3259 1026 3326 
Q 1253 3394 1513 3394 
Q 1903 3394 2198 3281 
Q 2494 3169 2634 2976 
Q 2775 2784 2828 2463 
L 2278 2388 
Q 2241 2644 2061 2787 
Q 1881 2931 1553 2931 
Q 1166 2931 1000 2803 
Q 834 2675 834 2503 
Q 834 2394 903 2306 
Q 972 2216 1119 2156 
Q 1203 2125 1616 2013 
Q 2213 1853 2448 1751 
Q 2684 1650 2818 1456 
Q 2953 1263 2953 975 
Q 2953 694 2789 445 
Q 2625 197 2315 61 
Q 2006 -75 1616 -75 
Q 969 -75 630 194 
Q 291 463 197 991 
z
" transform="scale(0.015625)"/>
       <path id="ArialMT-69" d="M 425 3934 
L 425 4581 
L 988 4581 
L 988 3934 
L 425 3934 
z
M 425 0 
L 425 3319 
L 988 3319 
L 988 0 
L 425 0 
z
" transform="scale(0.015625)"/>
       <path id="ArialMT-39" d="M 350 1059 
L 891 1109 
Q 959 728 1153 556 
Q 1347 384 1650 384 
Q 1909 384 2104 503 
Q 2300 622 2425 820 
Q 2550 1019 2634 1356 
Q 2719 1694 2719 2044 
Q 2719 2081 2716 2156 
Q 2547 1888 2255 1720 
Q 1963 1553 1622 1553 
Q 1053 1553 659 1965 
Q 266 2378 266 3053 
Q 266 3750 677 4175 
Q 1088 4600 1706 4600 
Q 2153 4600 2523 4359 
Q 2894 4119 3086 3673 
Q 3278 3228 3278 2384 
Q 3278 1506 3087 986 
Q 2897 466 2520 194 
Q 2144 -78 1638 -78 
Q 1100 -78 759 220 
Q 419 519 350 1059 
z
M 2653 3081 
Q 2653 3566 2395 3850 
Q 2138 4134 1775 4134 
Q 1400 4134 1122 3828 
Q 844 3522 844 3034 
Q 844 2597 1108 2323 
Q 1372 2050 1759 2050 
Q 2150 2050 2401 2323 
Q 2653 2597 2653 3081 
z
" transform="scale(0.015625)"/>
       <path id="ArialMT-25" d="M 372 3481 
Q 372 3972 619 4315 
Q 866 4659 1334 4659 
Q 1766 4659 2048 4351 
Q 2331 4044 2331 3447 
Q 2331 2866 2045 2552 
Q 1759 2238 1341 2238 
Q 925 2238 648 2547 
Q 372 2856 372 3481 
z
M 1350 4272 
Q 1141 4272 1002 4090 
Q 863 3909 863 3425 
Q 863 2984 1003 2804 
Q 1144 2625 1350 2625 
Q 1563 2625 1702 2806 
Q 1841 2988 1841 3469 
Q 1841 3913 1700 4092 
Q 1559 4272 1350 4272 
z
M 1353 -169 
L 3859 4659 
L 4316 4659 
L 1819 -169 
L 1353 -169 
z
M 3334 1075 
Q 3334 1569 3581 1911 
Q 3828 2253 4300 2253 
Q 4731 2253 5014 1945 
Q 5297 1638 5297 1041 
Q 5297 459 5011 145 
Q 4725 -169 4303 -169 
Q 3888 -169 3611 142 
Q 3334 453 3334 1075 
z
M 4316 1866 
Q 4103 1866 3964 1684 
Q 3825 1503 3825 1019 
Q 3825 581 3965 400 
Q 4106 219 4313 219 
Q 4528 219 4667 400 
Q 4806 581 4806 1063 
Q 4806 1506 4665 1686 
Q 4525 1866 4316 1866 
z
" transform="scale(0.015625)"/>
      </defs>
      <use xlink:href="#ArialMT-62"/>
      <use xlink:href="#ArialMT-65" x="55.615234"/>
      <use xlink:href="#ArialMT-73" x="111.230469"/>
      <use xlink:href="#ArialMT-74" x="161.230469"/>
      <use xlink:href="#ArialMT-20" x="189.013672"/>
      <use xlink:href="#ArialMT-66" x="216.796875"/>
      <use xlink:href="#ArialMT-69" x="244.580078"/>
      <use xlink:href="#ArialMT-74" x="266.796875"/>
      <use xlink:href="#ArialMT-20" x="294.580078"/>
      <use xlink:href="#ArialMT-28" x="322.363281"/>
      <use xlink:href="#ArialMT-39" x="355.664062"/>
      <use xlink:href="#ArialMT-35" x="411.279297"/>
      <use xlink:href="#ArialMT-25" x="466.894531"/>
      <use xlink:href="#ArialMT-20" x="555.810547"/>
      <use xlink:href="#ArialMT-43" x="583.59375"/>
      <use xlink:href="#ArialMT-49" x="655.810547"/>
      <use xlink:href="#ArialMT-29" x="683.59375"/>
     </g>
    </g>
   </g>
  </g>
  <g id="axes_2">
   <g id="patch_7">
    <path d="M 313.000863 210.04 
L 476.055482 210.04 
L 476.055482 14.76 
L 313.000863 14.76 
z
" style="fill: #ffffff"/>
   </g>
   <g id="matplotlib.axis_3">
    <g id="xtick_8">
     <g id="line2d_18">
      <g>
       <use xlink:href="#mec40efc148" x="347.536629" y="210.04" style="fill: #262626; stroke: #262626; stroke-width: 0.8"/>
      </g>
     </g>
     <g id="text_18">
      <!-- 600 -->
      <g style="fill: #262626" transform="translate(339.195223 224.197812) scale(0.1 -0.1)">
       <defs>
        <path id="ArialMT-36" d="M 3184 3459 
L 2625 3416 
Q 2550 3747 2413 3897 
Q 2184 4138 1850 4138 
Q 1581 4138 1378 3988 
Q 1113 3794 959 3422 
Q 806 3050 800 2363 
Q 1003 2672 1297 2822 
Q 1591 2972 1913 2972 
Q 2475 2972 2870 2558 
Q 3266 2144 3266 1488 
Q 3266 1056 3080 686 
Q 2894 316 2569 119 
Q 2244 -78 1831 -78 
Q 1128 -78 684 439 
Q 241 956 241 2144 
Q 241 3472 731 4075 
Q 1159 4600 1884 4600 
Q 2425 4600 2770 4297 
Q 3116 3994 3184 3459 
z
M 888 1484 
Q 888 1194 1011 928 
Q 1134 663 1356 523 
Q 1578 384 1822 384 
Q 2178 384 2434 671 
Q 2691 959 2691 1453 
Q 2691 1928 2437 2201 
Q 2184 2475 1800 2475 
Q 1419 2475 1153 2201 
Q 888 1928 888 1484 
z
" transform="scale(0.015625)"/>
       </defs>
       <use xlink:href="#ArialMT-36"/>
       <use xlink:href="#ArialMT-30" x="55.615234"/>
       <use xlink:href="#ArialMT-30" x="111.230469"/>
      </g>
     </g>
    </g>
    <g id="xtick_9">
     <g id="line2d_19">
      <g>
       <use xlink:href="#mec40efc148" x="385.485462" y="210.04" style="fill: #262626; stroke: #262626; stroke-width: 0.8"/>
      </g>
     </g>
     <g id="text_19">
      <!-- 800 -->
      <g style="fill: #262626" transform="translate(377.144056 224.197812) scale(0.1 -0.1)">
       <defs>
        <path id="ArialMT-38" d="M 1131 2484 
Q 781 2613 612 2850 
Q 444 3088 444 3419 
Q 444 3919 803 4259 
Q 1163 4600 1759 4600 
Q 2359 4600 2725 4251 
Q 3091 3903 3091 3403 
Q 3091 3084 2923 2848 
Q 2756 2613 2416 2484 
Q 2838 2347 3058 2040 
Q 3278 1734 3278 1309 
Q 3278 722 2862 322 
Q 2447 -78 1769 -78 
Q 1091 -78 675 323 
Q 259 725 259 1325 
Q 259 1772 486 2073 
Q 713 2375 1131 2484 
z
M 1019 3438 
Q 1019 3113 1228 2906 
Q 1438 2700 1772 2700 
Q 2097 2700 2305 2904 
Q 2513 3109 2513 3406 
Q 2513 3716 2298 3927 
Q 2084 4138 1766 4138 
Q 1444 4138 1231 3931 
Q 1019 3725 1019 3438 
z
M 838 1322 
Q 838 1081 952 856 
Q 1066 631 1291 507 
Q 1516 384 1775 384 
Q 2178 384 2440 643 
Q 2703 903 2703 1303 
Q 2703 1709 2433 1975 
Q 2163 2241 1756 2241 
Q 1359 2241 1098 1978 
Q 838 1716 838 1322 
z
" transform="scale(0.015625)"/>
       </defs>
       <use xlink:href="#ArialMT-38"/>
       <use xlink:href="#ArialMT-30" x="55.615234"/>
       <use xlink:href="#ArialMT-30" x="111.230469"/>
      </g>
     </g>
    </g>
    <g id="xtick_10">
     <g id="line2d_20">
      <g>
       <use xlink:href="#mec40efc148" x="423.434295" y="210.04" style="fill: #262626; stroke: #262626; stroke-width: 0.8"/>
      </g>
     </g>
     <g id="text_20">
      <!-- 1000 -->
      <g style="fill: #262626" transform="translate(412.31242 224.197812) scale(0.1 -0.1)">
       <use xlink:href="#ArialMT-31"/>
       <use xlink:href="#ArialMT-30" x="55.615234"/>
       <use xlink:href="#ArialMT-30" x="111.230469"/>
       <use xlink:href="#ArialMT-30" x="166.845703"/>
      </g>
     </g>
    </g>
    <g id="xtick_11">
     <g id="line2d_21">
      <g>
       <use xlink:href="#mec40efc148" x="461.383128" y="210.04" style="fill: #262626; stroke: #262626; stroke-width: 0.8"/>
      </g>
     </g>
     <g id="text_21">
      <!-- 1200 -->
      <g style="fill: #262626" transform="translate(450.261253 224.197812) scale(0.1 -0.1)">
       <use xlink:href="#ArialMT-31"/>
       <use xlink:href="#ArialMT-32" x="55.615234"/>
       <use xlink:href="#ArialMT-30" x="111.230469"/>
       <use xlink:href="#ArialMT-30" x="166.845703"/>
      </g>
     </g>
    </g>
    <g id="text_22">
     <!-- vmax -->
     <g style="fill: #262626" transform="translate(382.58286 237.343125) scale(0.1 -0.1)">
      <defs>
       <path id="ArialMT-76" d="M 1344 0 
L 81 3319 
L 675 3319 
L 1388 1331 
Q 1503 1009 1600 663 
Q 1675 925 1809 1294 
L 2547 3319 
L 3125 3319 
L 1869 0 
L 1344 0 
z
" transform="scale(0.015625)"/>
       <path id="ArialMT-6d" d="M 422 0 
L 422 3319 
L 925 3319 
L 925 2853 
Q 1081 3097 1340 3245 
Q 1600 3394 1931 3394 
Q 2300 3394 2536 3241 
Q 2772 3088 2869 2813 
Q 3263 3394 3894 3394 
Q 4388 3394 4653 3120 
Q 4919 2847 4919 2278 
L 4919 0 
L 4359 0 
L 4359 2091 
Q 4359 2428 4304 2576 
Q 4250 2725 4106 2815 
Q 3963 2906 3769 2906 
Q 3419 2906 3187 2673 
Q 2956 2441 2956 1928 
L 2956 0 
L 2394 0 
L 2394 2156 
Q 2394 2531 2256 2718 
Q 2119 2906 1806 2906 
Q 1569 2906 1367 2781 
Q 1166 2656 1075 2415 
Q 984 2175 984 1722 
L 984 0 
L 422 0 
z
" transform="scale(0.015625)"/>
       <path id="ArialMT-61" d="M 2588 409 
Q 2275 144 1986 34 
Q 1697 -75 1366 -75 
Q 819 -75 525 192 
Q 231 459 231 875 
Q 231 1119 342 1320 
Q 453 1522 633 1644 
Q 813 1766 1038 1828 
Q 1203 1872 1538 1913 
Q 2219 1994 2541 2106 
Q 2544 2222 2544 2253 
Q 2544 2597 2384 2738 
Q 2169 2928 1744 2928 
Q 1347 2928 1158 2789 
Q 969 2650 878 2297 
L 328 2372 
Q 403 2725 575 2942 
Q 747 3159 1072 3276 
Q 1397 3394 1825 3394 
Q 2250 3394 2515 3294 
Q 2781 3194 2906 3042 
Q 3031 2891 3081 2659 
Q 3109 2516 3109 2141 
L 3109 1391 
Q 3109 606 3145 398 
Q 3181 191 3288 0 
L 2700 0 
Q 2613 175 2588 409 
z
M 2541 1666 
Q 2234 1541 1622 1453 
Q 1275 1403 1131 1340 
Q 988 1278 909 1158 
Q 831 1038 831 891 
Q 831 666 1001 516 
Q 1172 366 1500 366 
Q 1825 366 2078 508 
Q 2331 650 2450 897 
Q 2541 1088 2541 1459 
L 2541 1666 
z
" transform="scale(0.015625)"/>
      </defs>
      <use xlink:href="#ArialMT-76"/>
      <use xlink:href="#ArialMT-6d" x="50"/>
      <use xlink:href="#ArialMT-61" x="133.300781"/>
      <use xlink:href="#ArialMT-78" x="188.916016"/>
     </g>
    </g>
   </g>
   <g id="matplotlib.axis_4">
    <g id="ytick_7">
     <g id="line2d_22">
      <g>
       <use xlink:href="#m0d3fd9113b" x="313.000863" y="199.506423" style="fill: #262626; stroke: #262626; stroke-width: 0.8"/>
      </g>
     </g>
     <g id="text_23">
      <!-- 50 -->
      <g style="fill: #262626" transform="translate(294.878988 203.085329) scale(0.1 -0.1)">
       <use xlink:href="#ArialMT-35"/>
       <use xlink:href="#ArialMT-30" x="55.615234"/>
      </g>
     </g>
    </g>
    <g id="ytick_8">
     <g id="line2d_23">
      <g>
       <use xlink:href="#m0d3fd9113b" x="313.000863" y="168.593413" style="fill: #262626; stroke: #262626; stroke-width: 0.8"/>
      </g>
     </g>
     <g id="text_24">
      <!-- 100 -->
      <g style="fill: #262626" transform="translate(289.31805 172.17232) scale(0.1 -0.1)">
       <use xlink:href="#ArialMT-31"/>
       <use xlink:href="#ArialMT-30" x="55.615234"/>
       <use xlink:href="#ArialMT-30" x="111.230469"/>
      </g>
     </g>
    </g>
    <g id="ytick_9">
     <g id="line2d_24">
      <g>
       <use xlink:href="#m0d3fd9113b" x="313.000863" y="137.680404" style="fill: #262626; stroke: #262626; stroke-width: 0.8"/>
      </g>
     </g>
     <g id="text_25">
      <!-- 150 -->
      <g style="fill: #262626" transform="translate(289.31805 141.25931) scale(0.1 -0.1)">
       <use xlink:href="#ArialMT-31"/>
       <use xlink:href="#ArialMT-35" x="55.615234"/>
       <use xlink:href="#ArialMT-30" x="111.230469"/>
      </g>
     </g>
    </g>
    <g id="ytick_10">
     <g id="line2d_25">
      <g>
       <use xlink:href="#m0d3fd9113b" x="313.000863" y="106.767394" style="fill: #262626; stroke: #262626; stroke-width: 0.8"/>
      </g>
     </g>
     <g id="text_26">
      <!-- 200 -->
      <g style="fill: #262626" transform="translate(289.31805 110.346301) scale(0.1 -0.1)">
       <use xlink:href="#ArialMT-32"/>
       <use xlink:href="#ArialMT-30" x="55.615234"/>
       <use xlink:href="#ArialMT-30" x="111.230469"/>
      </g>
     </g>
    </g>
    <g id="ytick_11">
     <g id="line2d_26">
      <g>
       <use xlink:href="#m0d3fd9113b" x="313.000863" y="75.854385" style="fill: #262626; stroke: #262626; stroke-width: 0.8"/>
      </g>
     </g>
     <g id="text_27">
      <!-- 250 -->
      <g style="fill: #262626" transform="translate(289.31805 79.433291) scale(0.1 -0.1)">
       <use xlink:href="#ArialMT-32"/>
       <use xlink:href="#ArialMT-35" x="55.615234"/>
       <use xlink:href="#ArialMT-30" x="111.230469"/>
      </g>
     </g>
    </g>
    <g id="ytick_12">
     <g id="line2d_27">
      <g>
       <use xlink:href="#m0d3fd9113b" x="313.000863" y="44.941375" style="fill: #262626; stroke: #262626; stroke-width: 0.8"/>
      </g>
     </g>
     <g id="text_28">
      <!-- 300 -->
      <g style="fill: #262626" transform="translate(289.31805 48.520282) scale(0.1 -0.1)">
       <use xlink:href="#ArialMT-33"/>
       <use xlink:href="#ArialMT-30" x="55.615234"/>
       <use xlink:href="#ArialMT-30" x="111.230469"/>
      </g>
     </g>
    </g>
    <g id="text_29">
     <!-- km -->
     <g style="fill: #262626" transform="translate(283.33055 119.064844) rotate(-90) scale(0.1 -0.1)">
      <defs>
       <path id="ArialMT-6b" d="M 425 0 
L 425 4581 
L 988 4581 
L 988 1969 
L 2319 3319 
L 3047 3319 
L 1778 2088 
L 3175 0 
L 2481 0 
L 1384 1697 
L 988 1316 
L 988 0 
L 425 0 
z
" transform="scale(0.015625)"/>
      </defs>
      <use xlink:href="#ArialMT-6b"/>
      <use xlink:href="#ArialMT-6d" x="50"/>
     </g>
    </g>
   </g>
   <g id="QuadContourSet_1">
    <path clip-path="url(#p9691c817ef)" style="fill: #130d25"/>
    <path d="M 392.86435 114.732116 
L 393.161401 114.392653 
L 392.86435 114.028519 
L 392.572347 114.392653 
z
M 396.191995 110.770906 
L 396.496952 110.407347 
L 396.191995 110.03372 
L 395.881301 110.407347 
z
" clip-path="url(#p9691c817ef)" style="fill: #381a40"/>
    <path d="M 392.86435 115.100244 
L 393.483537 114.392653 
L 392.86435 113.633636 
L 392.255687 114.392653 
z
M 392.572347 114.392653 
L 392.86435 114.028519 
L 393.161401 114.392653 
L 392.86435 114.732116 
z
M 396.191995 111.155878 
L 396.81987 110.407347 
L 396.191995 109.638087 
L 395.552307 110.407347 
z
M 395.881301 110.407347 
L 396.191995 110.03372 
L 396.496952 110.407347 
L 396.191995 110.770906 
z
" clip-path="url(#p9691c817ef)" style="fill: #611f53"/>
    <path d="M 389.536705 118.667503 
L 389.805214 118.377959 
L 389.536705 118.044059 
L 389.282404 118.377959 
z
M 392.86435 115.468373 
L 393.805672 114.392653 
L 392.86435 113.238752 
L 391.939026 114.392653 
z
M 392.255687 114.392653 
L 392.86435 113.633636 
L 393.483537 114.392653 
L 392.86435 115.100244 
z
M 396.191995 111.54085 
L 397.142788 110.407347 
L 396.191995 109.242453 
L 395.223313 110.407347 
z
M 395.552307 110.407347 
L 396.191995 109.638087 
L 396.81987 110.407347 
L 396.191995 111.155878 
z
M 399.51964 106.855969 
L 399.867187 106.422041 
L 399.51964 105.991424 
L 399.146863 106.422041 
z
" clip-path="url(#p9691c817ef)" style="fill: #8b1d5b"/>
    <path d="M 389.536705 119.084873 
L 390.192264 118.377959 
L 389.536705 117.562751 
L 388.915836 118.377959 
z
M 389.282404 118.377959 
L 389.536705 118.044059 
L 389.805214 118.377959 
L 389.536705 118.667503 
z
M 392.86435 115.836501 
L 394.127808 114.392653 
L 392.86435 112.843869 
L 391.622365 114.392653 
z
M 391.939026 114.392653 
L 392.86435 113.238752 
L 393.805672 114.392653 
L 392.86435 115.468373 
z
M 396.191995 111.925822 
L 397.465706 110.407347 
L 396.191995 108.84682 
L 394.894319 110.407347 
z
M 395.223313 110.407347 
L 396.191995 109.242453 
L 397.142788 110.407347 
L 396.191995 111.54085 
z
M 399.51964 107.338458 
L 400.253627 106.422041 
L 399.51964 105.512618 
L 398.732369 106.422041 
z
M 399.146863 106.422041 
L 399.51964 105.991424 
L 399.867187 106.422041 
L 399.51964 106.855969 
z
" clip-path="url(#p9691c817ef)" style="fill: #b71657"/>
    <path d="M 386.209059 122.53173 
L 386.376545 122.363265 
L 386.209059 122.148684 
L 386.056138 122.363265 
z
M 389.536705 119.502244 
L 390.579314 118.377959 
L 389.536705 117.081443 
L 388.549268 118.377959 
z
M 388.915836 118.377959 
L 389.536705 117.562751 
L 390.192264 118.377959 
L 389.536705 119.084873 
z
M 392.86435 116.20463 
L 394.449943 114.392653 
L 392.86435 112.448986 
L 391.305704 114.392653 
z
M 391.622365 114.392653 
L 392.86435 112.843869 
L 394.127808 114.392653 
L 392.86435 115.836501 
z
M 396.191995 112.310793 
L 397.788624 110.407347 
L 396.191995 108.451187 
L 394.565325 110.407347 
z
M 394.894319 110.407347 
L 396.191995 108.84682 
L 397.465706 110.407347 
L 396.191995 111.925822 
z
M 399.51964 107.820946 
L 400.640067 106.422041 
L 399.51964 105.033812 
L 398.317875 106.422041 
z
M 398.732369 106.422041 
L 399.51964 105.512618 
L 400.253627 106.422041 
L 399.51964 107.338458 
z
M 402.847286 102.998373 
L 403.27331 102.436735 
L 402.847286 101.8981 
L 402.357127 102.436735 
z
" clip-path="url(#p9691c817ef)" style="fill: #db2946"/>
    <path d="M 386.209059 122.995434 
L 386.837553 122.363265 
L 386.209059 121.558041 
L 385.635217 122.363265 
z
M 386.056138 122.363265 
L 386.209059 122.148684 
L 386.376545 122.363265 
L 386.209059 122.53173 
z
M 389.536705 119.919614 
L 390.966364 118.377959 
L 392.86435 116.572758 
L 394.772079 114.392653 
L 396.191995 112.695765 
L 398.111543 110.407347 
L 399.51964 108.303435 
L 401.026507 106.422041 
L 399.51964 104.555006 
L 397.903381 106.422041 
L 396.191995 108.055554 
L 394.236331 110.407347 
L 392.86435 112.054102 
L 390.989044 114.392653 
L 389.536705 116.600134 
L 388.1827 118.377959 
z
M 388.549268 118.377959 
L 389.536705 117.081443 
L 390.579314 118.377959 
L 389.536705 119.502244 
z
M 391.305704 114.392653 
L 392.86435 112.448986 
L 394.449943 114.392653 
L 392.86435 116.20463 
z
M 394.565325 110.407347 
L 396.191995 108.451187 
L 397.788624 110.407347 
L 396.191995 112.310793 
z
M 398.317875 106.422041 
L 399.51964 105.033812 
L 400.640067 106.422041 
L 399.51964 107.820946 
z
M 402.847286 103.597789 
L 403.72799 102.436735 
L 402.847286 101.323235 
L 401.833998 102.436735 
z
M 402.357127 102.436735 
L 402.847286 101.8981 
L 403.27331 102.436735 
L 402.847286 102.998373 
z
M 406.174931 98.489532 
L 406.202211 98.451429 
L 406.174931 98.41591 
L 406.140682 98.451429 
z
" clip-path="url(#p9691c817ef)" style="fill: #ef5840"/>
    <path d="M 386.209059 123.459138 
L 387.298562 122.363265 
L 386.209059 120.967399 
L 385.214296 122.363265 
z
M 385.635217 122.363265 
L 386.209059 121.558041 
L 386.837553 122.363265 
L 386.209059 122.995434 
z
M 389.536705 120.336984 
L 391.353414 118.377959 
L 392.86435 116.940887 
L 395.094215 114.392653 
L 396.191995 113.080737 
L 398.434461 110.407347 
L 399.51964 108.785924 
L 401.412947 106.422041 
L 402.847286 104.197205 
L 404.18267 102.436735 
L 402.847286 100.74837 
L 401.310869 102.436735 
L 399.51964 104.0762 
L 397.488887 106.422041 
L 396.191995 107.65992 
L 393.907337 110.407347 
L 392.86435 111.659219 
L 390.672383 114.392653 
L 389.536705 116.118826 
L 387.816132 118.377959 
z
M 388.1827 118.377959 
L 389.536705 116.600134 
L 390.989044 114.392653 
L 392.86435 112.054102 
L 394.236331 110.407347 
L 396.191995 108.055554 
L 397.903381 106.422041 
L 399.51964 104.555006 
L 401.026507 106.422041 
L 399.51964 108.303435 
L 398.111543 110.407347 
L 396.191995 112.695765 
L 394.772079 114.392653 
L 392.86435 116.572758 
L 390.966364 118.377959 
L 389.536705 119.919614 
z
M 401.833998 102.436735 
L 402.847286 101.323235 
L 403.72799 102.436735 
L 402.847286 103.597789 
z
M 406.174931 99.222984 
L 406.727309 98.451429 
L 406.174931 97.732212 
L 405.481425 98.451429 
z
M 406.140682 98.451429 
L 406.174931 98.41591 
L 406.202211 98.451429 
L 406.174931 98.489532 
z
" clip-path="url(#p9691c817ef)" style="fill: #f58860"/>
    <path d="M 382.881414 126.813611 
L 383.380443 126.348571 
L 382.881414 125.675584 
L 382.439444 126.348571 
z
M 386.209059 123.922843 
L 387.759571 122.363265 
L 389.536705 120.754354 
L 391.740463 118.377959 
L 392.86435 117.309015 
L 395.41635 114.392653 
L 396.191995 113.465709 
L 398.757379 110.407347 
L 399.51964 109.268412 
L 401.799387 106.422041 
L 402.847286 104.79662 
L 404.63735 102.436735 
L 402.847286 100.173504 
L 400.78774 102.436735 
L 399.51964 103.597394 
L 397.074393 106.422041 
L 396.191995 107.264287 
L 393.578343 110.407347 
L 392.86435 111.264335 
L 390.355722 114.392653 
L 389.536705 115.637518 
L 387.449564 118.377959 
L 386.209059 120.376756 
L 384.793375 122.363265 
z
M 385.214296 122.363265 
L 386.209059 120.967399 
L 387.298562 122.363265 
L 386.209059 123.459138 
z
M 387.816132 118.377959 
L 389.536705 116.118826 
L 390.672383 114.392653 
L 392.86435 111.659219 
L 393.907337 110.407347 
L 396.191995 107.65992 
L 397.488887 106.422041 
L 399.51964 104.0762 
L 401.310869 102.436735 
L 402.847286 100.74837 
L 404.18267 102.436735 
L 402.847286 104.197205 
L 401.412947 106.422041 
L 399.51964 108.785924 
L 398.434461 110.407347 
L 396.191995 113.080737 
L 395.094215 114.392653 
L 392.86435 116.940887 
L 391.353414 118.377959 
L 389.536705 120.336984 
z
M 406.174931 99.956437 
L 407.252408 98.451429 
L 406.174931 97.048514 
L 404.822168 98.451429 
z
M 405.481425 98.451429 
L 406.174931 97.732212 
L 406.727309 98.451429 
L 406.174931 99.222984 
z
M 409.502576 94.677039 
L 409.645187 94.466122 
L 409.502576 94.273244 
L 409.304186 94.466122 
z
" clip-path="url(#p9691c817ef)" style="fill: #f6b18b"/>
    <path d="M 382.881414 127.317503 
L 383.921164 126.348571 
L 382.881414 124.946372 
L 381.960549 126.348571 
z
M 382.439444 126.348571 
L 382.881414 125.675584 
L 383.380443 126.348571 
L 382.881414 126.813611 
z
M 386.209059 124.386547 
L 388.22058 122.363265 
L 389.536705 121.171724 
L 392.127513 118.377959 
L 392.86435 117.677144 
L 395.738486 114.392653 
L 396.191995 113.850681 
L 399.080297 110.407347 
L 399.51964 109.750901 
L 402.185827 106.422041 
L 402.847286 105.396036 
L 405.09203 102.436735 
L 406.174931 100.689889 
L 407.777506 98.451429 
L 406.174931 96.364816 
L 404.16291 98.451429 
L 402.847286 99.598639 
L 400.264612 102.436735 
L 399.51964 103.118587 
L 396.659899 106.422041 
L 396.191995 106.868654 
L 393.249349 110.407347 
L 392.86435 110.869452 
L 390.039061 114.392653 
L 389.536705 115.15621 
L 387.082996 118.377959 
L 386.209059 119.786113 
L 384.372454 122.363265 
z
M 384.793375 122.363265 
L 386.209059 120.376756 
L 387.449564 118.377959 
L 389.536705 115.637518 
L 390.355722 114.392653 
L 392.86435 111.264335 
L 393.578343 110.407347 
L 396.191995 107.264287 
L 397.074393 106.422041 
L 399.51964 103.597394 
L 400.78774 102.436735 
L 402.847286 100.173504 
L 404.63735 102.436735 
L 402.847286 104.79662 
L 401.799387 106.422041 
L 399.51964 109.268412 
L 398.757379 110.407347 
L 396.191995 113.465709 
L 395.41635 114.392653 
L 392.86435 117.309015 
L 391.740463 118.377959 
L 389.536705 120.754354 
L 387.759571 122.363265 
L 386.209059 123.922843 
z
M 404.822168 98.451429 
L 406.174931 97.048514 
L 407.252408 98.451429 
L 406.174931 99.956437 
z
M 409.502576 95.557829 
L 410.240728 94.466122 
L 409.502576 93.46778 
L 408.475704 94.466122 
z
M 409.304186 94.466122 
L 409.502576 94.273244 
L 409.645187 94.466122 
L 409.502576 94.677039 
z
" clip-path="url(#p9691c817ef)" style="fill: #f8d9c3"/>
   </g>
   <g id="patch_8">
    <path d="M 313.000863 210.04 
L 313.000863 14.76 
" style="fill: none; stroke: #262626; stroke-width: 0.8; stroke-linejoin: miter; stroke-linecap: square"/>
   </g>
   <g id="patch_9">
    <path d="M 476.055482 210.04 
L 476.055482 14.76 
" style="fill: none; stroke: #262626; stroke-width: 0.8; stroke-linejoin: miter; stroke-linecap: square"/>
   </g>
   <g id="patch_10">
    <path d="M 313.000863 210.04 
L 476.055482 210.04 
" style="fill: none; stroke: #262626; stroke-width: 0.8; stroke-linejoin: miter; stroke-linecap: square"/>
   </g>
   <g id="patch_11">
    <path d="M 313.000863 14.76 
L 476.055482 14.76 
" style="fill: none; stroke: #262626; stroke-width: 0.8; stroke-linejoin: miter; stroke-linecap: square"/>
   </g>
  </g>
  <g id="axes_3">
   <g id="patch_12">
    <path d="M 577.381725 210.04 
L 781.2 210.04 
L 781.2 14.76 
L 577.381725 14.76 
z
" style="fill: #ffffff"/>
   </g>
   <g id="matplotlib.axis_5">
    <g id="xtick_12">
     <g id="line2d_28">
      <g>
       <use xlink:href="#mec40efc148" x="620.616621" y="210.04" style="fill: #262626; stroke: #262626; stroke-width: 0.8"/>
      </g>
     </g>
     <g id="text_30">
      <!-- −50 -->
      <g style="fill: #262626" transform="translate(612.135371 224.197812) scale(0.1 -0.1)">
       <defs>
        <path id="ArialMT-2212" d="M 3381 1997 
L 356 1997 
L 356 2522 
L 3381 2522 
L 3381 1997 
z
" transform="scale(0.015625)"/>
       </defs>
       <use xlink:href="#ArialMT-2212"/>
       <use xlink:href="#ArialMT-35" x="58.398438"/>
       <use xlink:href="#ArialMT-30" x="114.013672"/>
      </g>
     </g>
    </g>
    <g id="xtick_13">
     <g id="line2d_29">
      <g>
       <use xlink:href="#mec40efc148" x="670.022045" y="210.04" style="fill: #262626; stroke: #262626; stroke-width: 0.8"/>
      </g>
     </g>
     <g id="text_31">
      <!-- 0 -->
      <g style="fill: #262626" transform="translate(667.241576 224.197812) scale(0.1 -0.1)">
       <use xlink:href="#ArialMT-30"/>
      </g>
     </g>
    </g>
    <g id="xtick_14">
     <g id="line2d_30">
      <g>
       <use xlink:href="#mec40efc148" x="719.427469" y="210.04" style="fill: #262626; stroke: #262626; stroke-width: 0.8"/>
      </g>
     </g>
     <g id="text_32">
      <!-- 50 -->
      <g style="fill: #262626" transform="translate(713.866531 224.197812) scale(0.1 -0.1)">
       <use xlink:href="#ArialMT-35"/>
       <use xlink:href="#ArialMT-30" x="55.615234"/>
      </g>
     </g>
    </g>
    <g id="xtick_15">
     <g id="line2d_31">
      <g>
       <use xlink:href="#mec40efc148" x="768.832893" y="210.04" style="fill: #262626; stroke: #262626; stroke-width: 0.8"/>
      </g>
     </g>
     <g id="text_33">
      <!-- 100 -->
      <g style="fill: #262626" transform="translate(760.491487 224.197812) scale(0.1 -0.1)">
       <use xlink:href="#ArialMT-31"/>
       <use xlink:href="#ArialMT-30" x="55.615234"/>
       <use xlink:href="#ArialMT-30" x="111.230469"/>
      </g>
     </g>
    </g>
    <g id="text_34">
     <!-- residual -->
     <g style="fill: #262626" transform="translate(661.782269 237.343125) scale(0.1 -0.1)">
      <defs>
       <path id="ArialMT-64" d="M 2575 0 
L 2575 419 
Q 2259 -75 1647 -75 
Q 1250 -75 917 144 
Q 584 363 401 755 
Q 219 1147 219 1656 
Q 219 2153 384 2558 
Q 550 2963 881 3178 
Q 1213 3394 1622 3394 
Q 1922 3394 2156 3267 
Q 2391 3141 2538 2938 
L 2538 4581 
L 3097 4581 
L 3097 0 
L 2575 0 
z
M 797 1656 
Q 797 1019 1065 703 
Q 1334 388 1700 388 
Q 2069 388 2326 689 
Q 2584 991 2584 1609 
Q 2584 2291 2321 2609 
Q 2059 2928 1675 2928 
Q 1300 2928 1048 2622 
Q 797 2316 797 1656 
z
" transform="scale(0.015625)"/>
      </defs>
      <use xlink:href="#ArialMT-72"/>
      <use xlink:href="#ArialMT-65" x="33.300781"/>
      <use xlink:href="#ArialMT-73" x="88.916016"/>
      <use xlink:href="#ArialMT-69" x="138.916016"/>
      <use xlink:href="#ArialMT-64" x="161.132812"/>
      <use xlink:href="#ArialMT-75" x="216.748047"/>
      <use xlink:href="#ArialMT-61" x="272.363281"/>
      <use xlink:href="#ArialMT-6c" x="327.978516"/>
     </g>
    </g>
   </g>
   <g id="matplotlib.axis_6">
    <g id="ytick_13">
     <g id="line2d_32">
      <g>
       <use xlink:href="#m0d3fd9113b" x="577.381725" y="210.04" style="fill: #262626; stroke: #262626; stroke-width: 0.8"/>
      </g>
     </g>
     <g id="text_35">
      <!-- 0.000 -->
      <g style="fill: #262626" transform="translate(545.35985 213.618906) scale(0.1 -0.1)">
       <defs>
        <path id="ArialMT-2e" d="M 581 0 
L 581 641 
L 1222 641 
L 1222 0 
L 581 0 
z
" transform="scale(0.015625)"/>
       </defs>
       <use xlink:href="#ArialMT-30"/>
       <use xlink:href="#ArialMT-2e" x="55.615234"/>
       <use xlink:href="#ArialMT-30" x="83.398438"/>
       <use xlink:href="#ArialMT-30" x="139.013672"/>
       <use xlink:href="#ArialMT-30" x="194.628906"/>
      </g>
     </g>
    </g>
    <g id="ytick_14">
     <g id="line2d_33">
      <g>
       <use xlink:href="#m0d3fd9113b" x="577.381725" y="184.92902" style="fill: #262626; stroke: #262626; stroke-width: 0.8"/>
      </g>
     </g>
     <g id="text_36">
      <!-- 0.005 -->
      <g style="fill: #262626" transform="translate(545.35985 188.507926) scale(0.1 -0.1)">
       <use xlink:href="#ArialMT-30"/>
       <use xlink:href="#ArialMT-2e" x="55.615234"/>
       <use xlink:href="#ArialMT-30" x="83.398438"/>
       <use xlink:href="#ArialMT-30" x="139.013672"/>
       <use xlink:href="#ArialMT-35" x="194.628906"/>
      </g>
     </g>
    </g>
    <g id="ytick_15">
     <g id="line2d_34">
      <g>
       <use xlink:href="#m0d3fd9113b" x="577.381725" y="159.818039" style="fill: #262626; stroke: #262626; stroke-width: 0.8"/>
      </g>
     </g>
     <g id="text_37">
      <!-- 0.010 -->
      <g style="fill: #262626" transform="translate(545.35985 163.396945) scale(0.1 -0.1)">
       <use xlink:href="#ArialMT-30"/>
       <use xlink:href="#ArialMT-2e" x="55.615234"/>
       <use xlink:href="#ArialMT-30" x="83.398438"/>
       <use xlink:href="#ArialMT-31" x="139.013672"/>
       <use xlink:href="#ArialMT-30" x="194.628906"/>
      </g>
     </g>
    </g>
    <g id="ytick_16">
     <g id="line2d_35">
      <g>
       <use xlink:href="#m0d3fd9113b" x="577.381725" y="134.707059" style="fill: #262626; stroke: #262626; stroke-width: 0.8"/>
      </g>
     </g>
     <g id="text_38">
      <!-- 0.015 -->
      <g style="fill: #262626" transform="translate(545.35985 138.285965) scale(0.1 -0.1)">
       <use xlink:href="#ArialMT-30"/>
       <use xlink:href="#ArialMT-2e" x="55.615234"/>
       <use xlink:href="#ArialMT-30" x="83.398438"/>
       <use xlink:href="#ArialMT-31" x="139.013672"/>
       <use xlink:href="#ArialMT-35" x="194.628906"/>
      </g>
     </g>
    </g>
    <g id="ytick_17">
     <g id="line2d_36">
      <g>
       <use xlink:href="#m0d3fd9113b" x="577.381725" y="109.596078" style="fill: #262626; stroke: #262626; stroke-width: 0.8"/>
      </g>
     </g>
     <g id="text_39">
      <!-- 0.020 -->
      <g style="fill: #262626" transform="translate(545.35985 113.174985) scale(0.1 -0.1)">
       <use xlink:href="#ArialMT-30"/>
       <use xlink:href="#ArialMT-2e" x="55.615234"/>
       <use xlink:href="#ArialMT-30" x="83.398438"/>
       <use xlink:href="#ArialMT-32" x="139.013672"/>
       <use xlink:href="#ArialMT-30" x="194.628906"/>
      </g>
     </g>
    </g>
    <g id="ytick_18">
     <g id="line2d_37">
      <g>
       <use xlink:href="#m0d3fd9113b" x="577.381725" y="84.485098" style="fill: #262626; stroke: #262626; stroke-width: 0.8"/>
      </g>
     </g>
     <g id="text_40">
      <!-- 0.025 -->
      <g style="fill: #262626" transform="translate(545.35985 88.064004) scale(0.1 -0.1)">
       <use xlink:href="#ArialMT-30"/>
       <use xlink:href="#ArialMT-2e" x="55.615234"/>
       <use xlink:href="#ArialMT-30" x="83.398438"/>
       <use xlink:href="#ArialMT-32" x="139.013672"/>
       <use xlink:href="#ArialMT-35" x="194.628906"/>
      </g>
     </g>
    </g>
    <g id="ytick_19">
     <g id="line2d_38">
      <g>
       <use xlink:href="#m0d3fd9113b" x="577.381725" y="59.374118" style="fill: #262626; stroke: #262626; stroke-width: 0.8"/>
      </g>
     </g>
     <g id="text_41">
      <!-- 0.030 -->
      <g style="fill: #262626" transform="translate(545.35985 62.953024) scale(0.1 -0.1)">
       <use xlink:href="#ArialMT-30"/>
       <use xlink:href="#ArialMT-2e" x="55.615234"/>
       <use xlink:href="#ArialMT-30" x="83.398438"/>
       <use xlink:href="#ArialMT-33" x="139.013672"/>
       <use xlink:href="#ArialMT-30" x="194.628906"/>
      </g>
     </g>
    </g>
    <g id="ytick_20">
     <g id="line2d_39">
      <g>
       <use xlink:href="#m0d3fd9113b" x="577.381725" y="34.263137" style="fill: #262626; stroke: #262626; stroke-width: 0.8"/>
      </g>
     </g>
     <g id="text_42">
      <!-- 0.035 -->
      <g style="fill: #262626" transform="translate(545.35985 37.842043) scale(0.1 -0.1)">
       <use xlink:href="#ArialMT-30"/>
       <use xlink:href="#ArialMT-2e" x="55.615234"/>
       <use xlink:href="#ArialMT-30" x="83.398438"/>
       <use xlink:href="#ArialMT-33" x="139.013672"/>
       <use xlink:href="#ArialMT-35" x="194.628906"/>
      </g>
     </g>
    </g>
    <g id="text_43">
     <!-- Density -->
     <g style="fill: #262626" transform="translate(539.255163 129.071875) rotate(-90) scale(0.1 -0.1)">
      <defs>
       <path id="ArialMT-44" d="M 494 0 
L 494 4581 
L 2072 4581 
Q 2606 4581 2888 4516 
Q 3281 4425 3559 4188 
Q 3922 3881 4101 3404 
Q 4281 2928 4281 2316 
Q 4281 1794 4159 1391 
Q 4038 988 3847 723 
Q 3656 459 3429 307 
Q 3203 156 2883 78 
Q 2563 0 2147 0 
L 494 0 
z
M 1100 541 
L 2078 541 
Q 2531 541 2789 625 
Q 3047 709 3200 863 
Q 3416 1078 3536 1442 
Q 3656 1806 3656 2325 
Q 3656 3044 3420 3430 
Q 3184 3816 2847 3947 
Q 2603 4041 2063 4041 
L 1100 4041 
L 1100 541 
z
" transform="scale(0.015625)"/>
      </defs>
      <use xlink:href="#ArialMT-44"/>
      <use xlink:href="#ArialMT-65" x="72.216797"/>
      <use xlink:href="#ArialMT-6e" x="127.832031"/>
      <use xlink:href="#ArialMT-73" x="183.447266"/>
      <use xlink:href="#ArialMT-69" x="233.447266"/>
      <use xlink:href="#ArialMT-74" x="255.664062"/>
      <use xlink:href="#ArialMT-79" x="283.447266"/>
     </g>
    </g>
   </g>
   <g id="patch_13">
    <path d="M 618.789385 210.04 
L 628.097305 210.04 
L 628.097305 197.64127 
L 618.789385 197.64127 
z
" clip-path="url(#p35bb1b8c3f)" style="fill: #feb886; fill-opacity: 0.5; stroke: #ffffff; stroke-width: 0.824437; stroke-linejoin: miter"/>
   </g>
   <g id="patch_14">
    <path d="M 628.097305 210.04 
L 637.405224 210.04 
L 637.405224 185.24254 
L 628.097305 185.24254 
z
" clip-path="url(#p35bb1b8c3f)" style="fill: #feb886; fill-opacity: 0.5; stroke: #ffffff; stroke-width: 0.824437; stroke-linejoin: miter"/>
   </g>
   <g id="patch_15">
    <path d="M 637.405224 210.04 
L 646.713144 210.04 
L 646.713144 172.84381 
L 637.405224 172.84381 
z
" clip-path="url(#p35bb1b8c3f)" style="fill: #feb886; fill-opacity: 0.5; stroke: #ffffff; stroke-width: 0.824437; stroke-linejoin: miter"/>
   </g>
   <g id="patch_16">
    <path d="M 646.713144 210.04 
L 656.021064 210.04 
L 656.021064 160.445079 
L 646.713144 160.445079 
z
" clip-path="url(#p35bb1b8c3f)" style="fill: #feb886; fill-opacity: 0.5; stroke: #ffffff; stroke-width: 0.824437; stroke-linejoin: miter"/>
   </g>
   <g id="patch_17">
    <path d="M 656.021064 210.04 
L 665.328983 210.04 
L 665.328983 98.451429 
L 656.021064 98.451429 
z
" clip-path="url(#p35bb1b8c3f)" style="fill: #feb886; fill-opacity: 0.5; stroke: #ffffff; stroke-width: 0.824437; stroke-linejoin: miter"/>
   </g>
   <g id="patch_18">
    <path d="M 665.328983 210.04 
L 674.636903 210.04 
L 674.636903 24.059048 
L 665.328983 24.059048 
z
" clip-path="url(#p35bb1b8c3f)" style="fill: #feb886; fill-opacity: 0.5; stroke: #ffffff; stroke-width: 0.824437; stroke-linejoin: miter"/>
   </g>
   <g id="patch_19">
    <path d="M 674.636903 210.04 
L 683.944823 210.04 
L 683.944823 160.445079 
L 674.636903 160.445079 
z
" clip-path="url(#p35bb1b8c3f)" style="fill: #feb886; fill-opacity: 0.5; stroke: #ffffff; stroke-width: 0.824437; stroke-linejoin: miter"/>
   </g>
   <g id="patch_20">
    <path d="M 683.944823 210.04 
L 693.252742 210.04 
L 693.252742 210.04 
L 683.944823 210.04 
z
" clip-path="url(#p35bb1b8c3f)" style="fill: #feb886; fill-opacity: 0.5; stroke: #ffffff; stroke-width: 0.824437; stroke-linejoin: miter"/>
   </g>
   <g id="patch_21">
    <path d="M 693.252742 210.04 
L 702.560662 210.04 
L 702.560662 197.64127 
L 693.252742 197.64127 
z
" clip-path="url(#p35bb1b8c3f)" style="fill: #feb886; fill-opacity: 0.5; stroke: #ffffff; stroke-width: 0.824437; stroke-linejoin: miter"/>
   </g>
   <g id="patch_22">
    <path d="M 702.560662 210.04 
L 711.868582 210.04 
L 711.868582 197.64127 
L 702.560662 197.64127 
z
" clip-path="url(#p35bb1b8c3f)" style="fill: #feb886; fill-opacity: 0.5; stroke: #ffffff; stroke-width: 0.824437; stroke-linejoin: miter"/>
   </g>
   <g id="patch_23">
    <path d="M 711.868582 210.04 
L 721.176501 210.04 
L 721.176501 185.24254 
L 711.868582 185.24254 
z
" clip-path="url(#p35bb1b8c3f)" style="fill: #feb886; fill-opacity: 0.5; stroke: #ffffff; stroke-width: 0.824437; stroke-linejoin: miter"/>
   </g>
   <g id="patch_24">
    <path d="M 721.176501 210.04 
L 730.484421 210.04 
L 730.484421 210.04 
L 721.176501 210.04 
z
" clip-path="url(#p35bb1b8c3f)" style="fill: #feb886; fill-opacity: 0.5; stroke: #ffffff; stroke-width: 0.824437; stroke-linejoin: miter"/>
   </g>
   <g id="patch_25">
    <path d="M 730.484421 210.04 
L 739.792341 210.04 
L 739.792341 197.64127 
L 730.484421 197.64127 
z
" clip-path="url(#p35bb1b8c3f)" style="fill: #feb886; fill-opacity: 0.5; stroke: #ffffff; stroke-width: 0.824437; stroke-linejoin: miter"/>
   </g>
   <g id="line2d_40">
    <path d="M 586.646193 209.989584 
L 592.232806 209.822236 
L 595.957215 209.537514 
L 598.750521 209.163261 
L 601.543828 208.596551 
L 604.337135 207.79155 
L 607.130441 206.715368 
L 609.923748 205.355145 
L 612.717054 203.719656 
L 615.510361 201.833927 
L 619.23477 198.981813 
L 622.959179 195.782425 
L 625.752485 193.143651 
L 628.545792 190.252984 
L 631.339099 187.033409 
L 634.132405 183.376671 
L 635.99461 180.630439 
L 637.856814 177.586474 
L 639.719019 174.200101 
L 641.581223 170.429304 
L 643.443428 166.238872 
L 645.305632 161.605421 
L 647.167836 156.523241 
L 649.961143 148.107335 
L 652.75445 138.931071 
L 658.341063 120.146199 
L 660.203267 114.544936 
L 662.065472 109.730852 
L 662.996574 107.712057 
L 663.927676 106.000589 
L 664.858778 104.630605 
L 665.789881 103.633391 
L 666.720983 103.036431 
L 667.652085 102.86252 
L 668.583187 103.128934 
L 669.51429 103.846713 
L 670.445392 105.020075 
L 671.376494 106.646003 
L 672.307596 108.714018 
L 673.238698 111.206167 
L 674.169801 114.097222 
L 676.032005 120.941506 
L 677.894209 128.920521 
L 680.687516 142.139022 
L 684.411925 159.854605 
L 686.274129 167.880512 
L 688.136334 174.960759 
L 689.998538 180.91705 
L 691.860743 185.669077 
L 692.791845 187.593818 
L 693.722947 189.228314 
L 694.654049 190.586151 
L 695.585151 191.684729 
L 696.516254 192.544638 
L 697.447356 193.189033 
L 698.378458 193.642997 
L 699.30956 193.932921 
L 701.171765 194.129179 
L 703.033969 193.992997 
L 707.68948 193.445245 
L 709.551685 193.518593 
L 711.413889 193.882284 
L 713.276094 194.553232 
L 715.138298 195.505037 
L 717.931605 197.318596 
L 723.518218 201.230304 
L 725.380422 202.313932 
L 727.242627 203.200444 
L 729.104831 203.877958 
L 730.967036 204.360746 
L 733.760342 204.800575 
L 744.002467 205.923782 
L 747.726875 206.727573 
L 756.106795 208.689441 
L 759.831204 209.291946 
L 763.555613 209.672585 
L 768.211124 209.91249 
L 771.935533 209.992262 
L 771.935533 209.992262 
" clip-path="url(#p35bb1b8c3f)" style="fill: none; stroke: #feb886; stroke-width: 1.5; stroke-linecap: round"/>
   </g>
   <g id="patch_26">
    <path d="M 577.381725 210.04 
L 577.381725 14.76 
" style="fill: none; stroke: #262626; stroke-width: 0.8; stroke-linejoin: miter; stroke-linecap: square"/>
   </g>
   <g id="patch_27">
    <path d="M 781.2 210.04 
L 781.2 14.76 
" style="fill: none; stroke: #262626; stroke-width: 0.8; stroke-linejoin: miter; stroke-linecap: square"/>
   </g>
   <g id="patch_28">
    <path d="M 577.381725 210.04 
L 781.2 210.04 
" style="fill: none; stroke: #262626; stroke-width: 0.8; stroke-linejoin: miter; stroke-linecap: square"/>
   </g>
   <g id="patch_29">
    <path d="M 577.381725 14.76 
L 781.2 14.76 
" style="fill: none; stroke: #262626; stroke-width: 0.8; stroke-linejoin: miter; stroke-linecap: square"/>
   </g>
  </g>
  <g id="axes_4">
   <g id="patch_30">
    <path d="M 486.246396 210.04 
L 496.010396 210.04 
L 496.010396 14.76 
L 486.246396 14.76 
z
" style="fill: #ffffff"/>
   </g>
   <g id="matplotlib.axis_7"/>
   <g id="matplotlib.axis_8">
    <g id="ytick_21">
     <g id="line2d_41">
      <defs>
       <path id="m9ff078c08c" d="M 0 0 
L 3.5 0 
" style="stroke: #262626; stroke-width: 0.8"/>
      </defs>
      <g>
       <use xlink:href="#m9ff078c08c" x="496.010396" y="210.04" style="fill: #262626; stroke: #262626; stroke-width: 0.8"/>
      </g>
     </g>
     <g id="text_44">
      <!-- 0.0 -->
      <g style="fill: #262626" transform="translate(503.010396 213.618906) scale(0.1 -0.1)">
       <use xlink:href="#ArialMT-30"/>
       <use xlink:href="#ArialMT-2e" x="55.615234"/>
       <use xlink:href="#ArialMT-30" x="83.398438"/>
      </g>
     </g>
    </g>
    <g id="ytick_22">
     <g id="line2d_42">
      <g>
       <use xlink:href="#m9ff078c08c" x="496.010396" y="170.984" style="fill: #262626; stroke: #262626; stroke-width: 0.8"/>
      </g>
     </g>
     <g id="text_45">
      <!-- 0.2 -->
      <g style="fill: #262626" transform="translate(503.010396 174.562906) scale(0.1 -0.1)">
       <use xlink:href="#ArialMT-30"/>
       <use xlink:href="#ArialMT-2e" x="55.615234"/>
       <use xlink:href="#ArialMT-32" x="83.398438"/>
      </g>
     </g>
    </g>
    <g id="ytick_23">
     <g id="line2d_43">
      <g>
       <use xlink:href="#m9ff078c08c" x="496.010396" y="131.928" style="fill: #262626; stroke: #262626; stroke-width: 0.8"/>
      </g>
     </g>
     <g id="text_46">
      <!-- 0.4 -->
      <g style="fill: #262626" transform="translate(503.010396 135.506906) scale(0.1 -0.1)">
       <use xlink:href="#ArialMT-30"/>
       <use xlink:href="#ArialMT-2e" x="55.615234"/>
       <use xlink:href="#ArialMT-34" x="83.398438"/>
      </g>
     </g>
    </g>
    <g id="ytick_24">
     <g id="line2d_44">
      <g>
       <use xlink:href="#m9ff078c08c" x="496.010396" y="92.872" style="fill: #262626; stroke: #262626; stroke-width: 0.8"/>
      </g>
     </g>
     <g id="text_47">
      <!-- 0.6 -->
      <g style="fill: #262626" transform="translate(503.010396 96.450906) scale(0.1 -0.1)">
       <use xlink:href="#ArialMT-30"/>
       <use xlink:href="#ArialMT-2e" x="55.615234"/>
       <use xlink:href="#ArialMT-36" x="83.398438"/>
      </g>
     </g>
    </g>
    <g id="ytick_25">
     <g id="line2d_45">
      <g>
       <use xlink:href="#m9ff078c08c" x="496.010396" y="53.816" style="fill: #262626; stroke: #262626; stroke-width: 0.8"/>
      </g>
     </g>
     <g id="text_48">
      <!-- 0.8 -->
      <g style="fill: #262626" transform="translate(503.010396 57.394906) scale(0.1 -0.1)">
       <use xlink:href="#ArialMT-30"/>
       <use xlink:href="#ArialMT-2e" x="55.615234"/>
       <use xlink:href="#ArialMT-38" x="83.398438"/>
      </g>
     </g>
    </g>
    <g id="ytick_26">
     <g id="line2d_46">
      <g>
       <use xlink:href="#m9ff078c08c" x="496.010396" y="14.76" style="fill: #262626; stroke: #262626; stroke-width: 0.8"/>
      </g>
     </g>
     <g id="text_49">
      <!-- 1.0 -->
      <g style="fill: #262626" transform="translate(503.010396 18.338906) scale(0.1 -0.1)">
       <use xlink:href="#ArialMT-31"/>
       <use xlink:href="#ArialMT-2e" x="55.615234"/>
       <use xlink:href="#ArialMT-30" x="83.398438"/>
      </g>
     </g>
    </g>
   </g>
   <g id="QuadMesh_1">
    <path d="M 486.246396 210.04 
L 496.010396 210.04 
L 496.010396 190.512 
L 486.246396 190.512 
L 486.246396 210.04 
" clip-path="url(#p84836a1174)" style="fill: #130d25"/>
    <path d="M 486.246396 190.512 
L 496.010396 190.512 
L 496.010396 170.984 
L 486.246396 170.984 
L 486.246396 190.512 
" clip-path="url(#p84836a1174)" style="fill: #381a40"/>
    <path d="M 486.246396 170.984 
L 496.010396 170.984 
L 496.010396 151.456 
L 486.246396 151.456 
L 486.246396 170.984 
" clip-path="url(#p84836a1174)" style="fill: #611f53"/>
    <path d="M 486.246396 151.456 
L 496.010396 151.456 
L 496.010396 131.928 
L 486.246396 131.928 
L 486.246396 151.456 
" clip-path="url(#p84836a1174)" style="fill: #8b1d5b"/>
    <path d="M 486.246396 131.928 
L 496.010396 131.928 
L 496.010396 112.4 
L 486.246396 112.4 
L 486.246396 131.928 
" clip-path="url(#p84836a1174)" style="fill: #b71657"/>
    <path d="M 486.246396 112.4 
L 496.010396 112.4 
L 496.010396 92.872 
L 486.246396 92.872 
L 486.246396 112.4 
" clip-path="url(#p84836a1174)" style="fill: #db2946"/>
    <path d="M 486.246396 92.872 
L 496.010396 92.872 
L 496.010396 73.344 
L 486.246396 73.344 
L 486.246396 92.872 
" clip-path="url(#p84836a1174)" style="fill: #ef5840"/>
    <path d="M 486.246396 73.344 
L 496.010396 73.344 
L 496.010396 53.816 
L 486.246396 53.816 
L 486.246396 73.344 
" clip-path="url(#p84836a1174)" style="fill: #f58860"/>
    <path d="M 486.246396 53.816 
L 496.010396 53.816 
L 496.010396 34.288 
L 486.246396 34.288 
L 486.246396 53.816 
" clip-path="url(#p84836a1174)" style="fill: #f6b18b"/>
    <path d="M 486.246396 34.288 
L 496.010396 34.288 
L 496.010396 14.76 
L 486.246396 14.76 
L 486.246396 34.288 
" clip-path="url(#p84836a1174)" style="fill: #f8d9c3"/>
   </g>
   <g id="LineCollection_1"/>
   <g id="patch_31">
    <path d="M 486.246396 210.04 
L 491.128396 210.04 
L 496.010396 210.04 
L 496.010396 14.76 
L 491.128396 14.76 
L 486.246396 14.76 
L 486.246396 210.04 
z
" style="fill: none; stroke: #262626; stroke-width: 0.8; stroke-linejoin: miter; stroke-linecap: square"/>
   </g>
  </g>
 </g>
 <defs>
  <clipPath id="pd4911f9abf">
   <rect x="48.62" y="14.76" width="203.818275" height="195.28"/>
  </clipPath>
  <clipPath id="p9691c817ef">
   <rect x="313.000863" y="14.76" width="163.05462" height="195.28"/>
  </clipPath>
  <clipPath id="p35bb1b8c3f">
   <rect x="577.381725" y="14.76" width="203.818275" height="195.28"/>
  </clipPath>
  <clipPath id="p84836a1174">
   <rect x="486.246396" y="14.76" width="9.764" height="195.28"/>
  </clipPath>
 </defs>
</svg>
