<?xml version="1.0" encoding="utf-8" standalone="no"?>
<!DOCTYPE svg PUBLIC "-//W3C//DTD SVG 1.1//EN"
  "http://www.w3.org/Graphics/SVG/1.1/DTD/svg11.dtd">
<svg xmlns:xlink="http://www.w3.org/1999/xlink" width="648pt" height="252pt" viewBox="0 0 648 252" xmlns="http://www.w3.org/2000/svg" version="1.1">
 <metadata>
  <rdf:RDF xmlns:dc="http://purl.org/dc/elements/1.1/" xmlns:cc="http://creativecommons.org/ns#" xmlns:rdf="http://www.w3.org/1999/02/22-rdf-syntax-ns#">
   <cc:Work>
    <dc:type rdf:resource="http://purl.org/dc/dcmitype/StillImage"/>
    <dc:date>2023-12-05T09:49:44.799467</dc:date>
    <dc:format>image/svg+xml</dc:format>
    <dc:creator>
     <cc:Agent>
      <dc:title>Matplotlib v3.8.1, https://matplotlib.org/</dc:title>
     </cc:Agent>
    </dc:creator>
   </cc:Work>
  </rdf:RDF>
 </metadata>
 <defs>
  <style type="text/css">*{stroke-linejoin: round; stroke-linecap: butt}</style>
 </defs>
 <g id="figure_1">
  <g id="patch_1">
   <path d="M 0 252 
L 648 252 
L 648 0 
L 0 0 
z
" style="fill: #ffffff"/>
  </g>
  <g id="axes_1">
   <g id="patch_2">
    <path d="M 44.57 210.04 
L 320.105 210.04 
L 320.105 14.76 
L 44.57 14.76 
z
" style="fill: #ffffff"/>
   </g>
   <g id="PolyCollection_1">
    <defs>
     <path id="m092142b8b3" d="M 57.094318 -50.836364 
L 57.094318 -50.836364 
L 58.34675 -53.0029 
L 59.599182 -55.110879 
L 60.851614 -57.17492 
L 62.104045 -59.192358 
L 63.356477 -61.164757 
L 64.608909 -63.093612 
L 65.861341 -64.980782 
L 67.113773 -66.827592 
L 68.366205 -68.635779 
L 69.618636 -70.406031 
L 70.871068 -72.139529 
L 72.1235 -73.837406 
L 73.375932 -75.500749 
L 74.628364 -77.118535 
L 75.880795 -78.596009 
L 77.133227 -80.032148 
L 78.385659 -81.500853 
L 79.638091 -83.003012 
L 80.890523 -84.482262 
L 82.142955 -85.934938 
L 83.395386 -87.315369 
L 84.647818 -88.688206 
L 85.90025 -90.104996 
L 87.152682 -91.486012 
L 88.405114 -92.786035 
L 89.657545 -94.031364 
L 90.909977 -95.252235 
L 92.162409 -96.449363 
L 93.414841 -97.603382 
L 94.667273 -98.658348 
L 95.919705 -99.689994 
L 97.172136 -100.699676 
L 98.424568 -101.686959 
L 99.677 -102.670687 
L 100.929432 -103.777816 
L 102.181864 -104.954474 
L 103.434295 -106.038903 
L 104.686727 -107.088579 
L 105.939159 -108.192446 
L 107.191591 -109.208792 
L 108.444023 -110.131684 
L 109.696455 -110.952565 
L 110.948886 -111.597387 
L 112.201318 -112.235259 
L 113.45375 -113.134747 
L 114.706182 -114.072793 
L 115.958614 -115.085192 
L 117.211045 -115.974215 
L 118.463477 -116.74057 
L 119.715909 -117.493466 
L 120.968341 -118.338982 
L 122.220773 -119.152763 
L 123.473205 -120.100622 
L 124.725636 -120.679792 
L 125.978068 -121.039758 
L 127.2305 -121.704096 
L 128.482932 -122.367581 
L 129.735364 -122.663313 
L 130.987795 -123.154971 
L 132.240227 -123.722895 
L 133.492659 -123.867146 
L 134.745091 -124.048178 
L 135.997523 -124.589251 
L 137.249955 -125.213831 
L 138.502386 -125.549335 
L 139.754818 -125.859326 
L 141.00725 -126.214423 
L 142.259682 -126.67339 
L 143.512114 -126.761931 
L 144.764545 -127.279906 
L 146.016977 -127.763965 
L 147.269409 -128.098651 
L 148.521841 -128.341713 
L 149.774273 -128.56493 
L 151.026705 -128.677478 
L 152.279136 -128.863692 
L 153.531568 -129.101544 
L 154.784 -129.281006 
L 156.036432 -129.508444 
L 157.288864 -129.707801 
L 158.541295 -129.907004 
L 159.793727 -130.247059 
L 161.046159 -130.312564 
L 162.298591 -130.469138 
L 163.551023 -130.646442 
L 164.803455 -130.819728 
L 166.055886 -130.972367 
L 167.308318 -131.036199 
L 168.56075 -131.101122 
L 169.813182 -131.169603 
L 171.065614 -131.504219 
L 172.318045 -131.751541 
L 173.570477 -131.807803 
L 174.822909 -131.873201 
L 176.075341 -131.955864 
L 177.327773 -132.03697 
L 178.580205 -132.205853 
L 179.832636 -132.270999 
L 181.085068 -132.342213 
L 182.3375 -132.552554 
L 183.589932 -132.763312 
L 184.842364 -133.135254 
L 186.094795 -133.207613 
L 187.347227 -133.291065 
L 188.599659 -133.357198 
L 189.852091 -133.422187 
L 191.104523 -133.48606 
L 192.356955 -133.535331 
L 193.609386 -133.596339 
L 194.861818 -133.656326 
L 196.11425 -133.715318 
L 197.366682 -133.773339 
L 198.619114 -133.830414 
L 199.871545 -133.878162 
L 201.123977 -133.890985 
L 202.376409 -133.903591 
L 203.628841 -133.915985 
L 204.881273 -133.928172 
L 206.133705 -133.940663 
L 207.386136 -133.954317 
L 208.638568 -133.967753 
L 209.891 -133.980976 
L 211.143432 -134.063734 
L 212.395864 -134.145598 
L 213.648295 -134.185293 
L 214.900727 -134.20816 
L 216.153159 -134.230679 
L 217.405591 -134.252858 
L 218.658023 -134.27531 
L 219.910455 -134.297753 
L 221.162886 -134.319889 
L 222.415318 -134.342036 
L 223.66775 -134.363862 
L 224.920182 -134.385374 
L 226.172614 -134.408239 
L 227.425045 -134.463992 
L 228.677477 -134.50186 
L 229.929909 -134.512266 
L 231.182341 -134.52276 
L 232.434773 -134.560128 
L 233.687205 -134.599615 
L 234.939636 -134.638584 
L 236.192068 -134.677043 
L 237.4445 -134.715188 
L 238.696932 -134.752877 
L 239.949364 -134.772797 
L 241.201795 -134.774493 
L 242.454227 -134.776166 
L 243.706659 -134.777817 
L 244.959091 -134.779446 
L 246.211523 -134.781054 
L 247.463955 -134.782641 
L 248.716386 -134.784207 
L 249.968818 -134.785753 
L 251.22125 -134.78728 
L 252.473682 -134.788786 
L 253.726114 -134.790274 
L 254.978545 -134.803715 
L 256.230977 -134.81812 
L 257.483409 -134.83235 
L 258.735841 -134.846813 
L 259.988273 -134.861304 
L 261.240705 -134.875622 
L 262.493136 -134.889771 
L 263.745568 -134.909587 
L 264.998 -134.933319 
L 266.250432 -134.956781 
L 267.502864 -134.979976 
L 268.755295 -135.002909 
L 270.007727 -135.025585 
L 271.260159 -135.048008 
L 272.512591 -135.070182 
L 273.765023 -135.092111 
L 275.017455 -135.113799 
L 276.269886 -135.135251 
L 277.522318 -135.156469 
L 278.77475 -135.177458 
L 280.027182 -135.190988 
L 281.279614 -135.19696 
L 282.532045 -135.202866 
L 283.784477 -135.208708 
L 285.036909 -135.214486 
L 286.289341 -135.220202 
L 287.541773 -135.225857 
L 288.794205 -135.231451 
L 290.046636 -135.236986 
L 291.299068 -135.242463 
L 292.5515 -135.247882 
L 293.803932 -135.253244 
L 295.056364 -135.25855 
L 296.308795 -135.263802 
L 297.561227 -135.269 
L 298.813659 -135.274144 
L 300.066091 -135.279236 
L 301.318523 -135.284276 
L 302.570955 -135.289266 
L 303.823386 -135.294205 
L 305.075818 -135.299095 
L 306.32825 -135.303937 
L 306.32825 -194.278218 
L 306.32825 -194.278218 
L 305.075818 -194.163836 
L 303.823386 -194.048479 
L 302.570955 -193.932133 
L 301.318523 -193.814785 
L 300.066091 -193.69593 
L 298.813659 -193.573569 
L 297.561227 -193.45015 
L 296.308795 -193.265353 
L 295.056364 -193.029576 
L 293.803932 -192.78943 
L 292.5515 -192.545659 
L 291.299068 -192.300131 
L 290.046636 -192.044381 
L 288.794205 -191.732161 
L 287.541773 -191.41795 
L 286.289341 -191.101727 
L 285.036909 -190.783474 
L 283.784477 -190.563523 
L 282.532045 -190.393347 
L 281.279614 -190.221693 
L 280.027182 -190.022429 
L 278.77475 -189.762191 
L 277.522318 -189.499986 
L 276.269886 -189.235415 
L 275.017455 -188.966022 
L 273.765023 -188.694579 
L 272.512591 -188.421065 
L 271.260159 -188.191477 
L 270.007727 -187.96253 
L 268.755295 -187.631276 
L 267.502864 -187.337081 
L 266.250432 -187.028141 
L 264.998 -186.74526 
L 263.745568 -186.460148 
L 262.493136 -186.237266 
L 261.240705 -186.069809 
L 259.988273 -185.898618 
L 258.735841 -185.722805 
L 257.483409 -185.49969 
L 256.230977 -185.106997 
L 254.978545 -184.709778 
L 253.726114 -184.448965 
L 252.473682 -184.118427 
L 251.22125 -183.974676 
L 249.968818 -183.737808 
L 248.716386 -183.498715 
L 247.463955 -183.257365 
L 246.211523 -183.104874 
L 244.959091 -182.963669 
L 243.706659 -182.72911 
L 242.454227 -182.239399 
L 241.201795 -181.977554 
L 239.949364 -181.715923 
L 238.696932 -181.45621 
L 237.4445 -181.193947 
L 236.192068 -180.929096 
L 234.939636 -180.661618 
L 233.687205 -180.387038 
L 232.434773 -180.109582 
L 231.182341 -179.829346 
L 229.929909 -179.546289 
L 228.677477 -179.260367 
L 227.425045 -179.01281 
L 226.172614 -178.8655 
L 224.920182 -178.604919 
L 223.66775 -178.260323 
L 222.415318 -177.88628 
L 221.162886 -177.482163 
L 219.910455 -177.174913 
L 218.658023 -176.853387 
L 217.405591 -176.494279 
L 216.153159 -176.13208 
L 214.900727 -175.918178 
L 213.648295 -175.596067 
L 212.395864 -175.257922 
L 211.143432 -174.961328 
L 209.891 -174.681231 
L 208.638568 -174.421745 
L 207.386136 -174.21348 
L 206.133705 -174.035661 
L 204.881273 -173.855355 
L 203.628841 -173.672507 
L 202.376409 -173.487064 
L 201.123977 -173.232109 
L 199.871545 -172.838485 
L 198.619114 -172.599863 
L 197.366682 -172.352958 
L 196.11425 -171.920983 
L 194.861818 -171.432063 
L 193.609386 -171.096866 
L 192.356955 -170.930795 
L 191.104523 -170.762095 
L 189.852091 -170.58615 
L 188.599659 -170.197239 
L 187.347227 -169.855865 
L 186.094795 -169.567193 
L 184.842364 -169.422614 
L 183.589932 -169.269727 
L 182.3375 -168.717368 
L 181.085068 -168.137693 
L 179.832636 -167.86193 
L 178.580205 -167.599353 
L 177.327773 -167.330496 
L 176.075341 -167.096386 
L 174.822909 -166.786769 
L 173.570477 -166.506915 
L 172.318045 -166.217103 
L 171.065614 -165.904065 
L 169.813182 -165.45605 
L 168.56075 -165.175737 
L 167.308318 -164.914899 
L 166.055886 -164.661498 
L 164.803455 -164.394813 
L 163.551023 -164.074215 
L 162.298591 -163.744825 
L 161.046159 -163.409478 
L 159.793727 -163.119435 
L 158.541295 -162.735843 
L 157.288864 -162.372651 
L 156.036432 -162.036877 
L 154.784 -161.630352 
L 153.531568 -161.270738 
L 152.279136 -160.891682 
L 151.026705 -160.502425 
L 149.774273 -160.225198 
L 148.521841 -159.828521 
L 147.269409 -159.492026 
L 146.016977 -159.143352 
L 144.764545 -158.783291 
L 143.512114 -158.421549 
L 142.259682 -158.051692 
L 141.00725 -157.70785 
L 139.754818 -157.376121 
L 138.502386 -157.037572 
L 137.249955 -156.690689 
L 135.997523 -156.338551 
L 134.745091 -155.97798 
L 133.492659 -155.717105 
L 132.240227 -155.548495 
L 130.987795 -155.129121 
L 129.735364 -154.533969 
L 128.482932 -154.291608 
L 127.2305 -154.040497 
L 125.978068 -153.492282 
L 124.725636 -153.082313 
L 123.473205 -152.840784 
L 122.220773 -152.492578 
L 120.968341 -151.864772 
L 119.715909 -151.24922 
L 118.463477 -150.949697 
L 117.211045 -150.526224 
L 115.958614 -150.158019 
L 114.706182 -149.777365 
L 113.45375 -149.242428 
L 112.201318 -148.79655 
L 110.948886 -148.335068 
L 109.696455 -147.512473 
L 108.444023 -147.04704 
L 107.191591 -146.529916 
L 105.939159 -145.942901 
L 104.686727 -145.428082 
L 103.434295 -144.957099 
L 102.181864 -144.560738 
L 100.929432 -144.08094 
L 99.677 -143.463231 
L 98.424568 -142.925914 
L 97.172136 -142.37463 
L 95.919705 -141.886685 
L 94.667273 -141.22085 
L 93.414841 -140.589267 
L 92.162409 -139.832346 
L 90.909977 -139.06252 
L 89.657545 -138.310462 
L 88.405114 -137.68923 
L 87.152682 -136.860065 
L 85.90025 -136.076989 
L 84.647818 -135.097983 
L 83.395386 -133.993412 
L 82.142955 -133.275603 
L 80.890523 -131.905436 
L 79.638091 -130.633663 
L 78.385659 -129.518895 
L 77.133227 -128.199394 
L 75.880795 -127.084495 
L 74.628364 -125.921966 
L 73.375932 -124.236029 
L 72.1235 -122.850064 
L 70.871068 -121.254104 
L 69.618636 -118.955648 
L 68.366205 -116.988322 
L 67.113773 -114.564293 
L 65.861341 -111.578247 
L 64.608909 -108.083953 
L 63.356477 -104.024552 
L 62.104045 -99.110103 
L 60.851614 -92.059099 
L 59.599182 -82.63596 
L 58.34675 -69.791081 
L 57.094318 -50.836364 
z
" style="stroke: #ef553b; stroke-opacity: 0.3"/>
    </defs>
    <g clip-path="url(#pa057ee36c7)">
     <use xlink:href="#m092142b8b3" x="0" y="252" style="fill: #ef553b; fill-opacity: 0.3; stroke: #ef553b; stroke-opacity: 0.3"/>
    </g>
   </g>
   <g id="matplotlib.axis_1">
    <g id="xtick_1">
     <g id="line2d_1">
      <defs>
       <path id="m6871196d47" d="M 0 0 
L 0 3.5 
" style="stroke: #000000; stroke-width: 0.8"/>
      </defs>
      <g>
       <use xlink:href="#m6871196d47" x="57.094318" y="210.04" style="stroke: #000000; stroke-width: 0.8"/>
      </g>
     </g>
     <g id="text_1">
      <!-- 0 -->
      <g transform="translate(53.913068 224.638438) scale(0.1 -0.1)">
       <defs>
        <path id="DejaVuSans-30" d="M 2034 4250 
Q 1547 4250 1301 3770 
Q 1056 3291 1056 2328 
Q 1056 1369 1301 889 
Q 1547 409 2034 409 
Q 2525 409 2770 889 
Q 3016 1369 3016 2328 
Q 3016 3291 2770 3770 
Q 2525 4250 2034 4250 
z
M 2034 4750 
Q 2819 4750 3233 4129 
Q 3647 3509 3647 2328 
Q 3647 1150 3233 529 
Q 2819 -91 2034 -91 
Q 1250 -91 836 529 
Q 422 1150 422 2328 
Q 422 3509 836 4129 
Q 1250 4750 2034 4750 
z
" transform="scale(0.015625)"/>
       </defs>
       <use xlink:href="#DejaVuSans-30"/>
      </g>
     </g>
    </g>
    <g id="xtick_2">
     <g id="line2d_2">
      <g>
       <use xlink:href="#m6871196d47" x="93.423575" y="210.04" style="stroke: #000000; stroke-width: 0.8"/>
      </g>
     </g>
     <g id="text_2">
      <!-- 50 -->
      <g transform="translate(87.061075 224.638438) scale(0.1 -0.1)">
       <defs>
        <path id="DejaVuSans-35" d="M 691 4666 
L 3169 4666 
L 3169 4134 
L 1269 4134 
L 1269 2991 
Q 1406 3038 1543 3061 
Q 1681 3084 1819 3084 
Q 2600 3084 3056 2656 
Q 3513 2228 3513 1497 
Q 3513 744 3044 326 
Q 2575 -91 1722 -91 
Q 1428 -91 1123 -41 
Q 819 9 494 109 
L 494 744 
Q 775 591 1075 516 
Q 1375 441 1709 441 
Q 2250 441 2565 725 
Q 2881 1009 2881 1497 
Q 2881 1984 2565 2268 
Q 2250 2553 1709 2553 
Q 1456 2553 1204 2497 
Q 953 2441 691 2322 
L 691 4666 
z
" transform="scale(0.015625)"/>
       </defs>
       <use xlink:href="#DejaVuSans-35"/>
       <use xlink:href="#DejaVuSans-30" x="63.623047"/>
      </g>
     </g>
    </g>
    <g id="xtick_3">
     <g id="line2d_3">
      <g>
       <use xlink:href="#m6871196d47" x="129.752832" y="210.04" style="stroke: #000000; stroke-width: 0.8"/>
      </g>
     </g>
     <g id="text_3">
      <!-- 100 -->
      <g transform="translate(120.209082 224.638438) scale(0.1 -0.1)">
       <defs>
        <path id="DejaVuSans-31" d="M 794 531 
L 1825 531 
L 1825 4091 
L 703 3866 
L 703 4441 
L 1819 4666 
L 2450 4666 
L 2450 531 
L 3481 531 
L 3481 0 
L 794 0 
L 794 531 
z
" transform="scale(0.015625)"/>
       </defs>
       <use xlink:href="#DejaVuSans-31"/>
       <use xlink:href="#DejaVuSans-30" x="63.623047"/>
       <use xlink:href="#DejaVuSans-30" x="127.246094"/>
      </g>
     </g>
    </g>
    <g id="xtick_4">
     <g id="line2d_4">
      <g>
       <use xlink:href="#m6871196d47" x="166.082088" y="210.04" style="stroke: #000000; stroke-width: 0.8"/>
      </g>
     </g>
     <g id="text_4">
      <!-- 150 -->
      <g transform="translate(156.538338 224.638438) scale(0.1 -0.1)">
       <use xlink:href="#DejaVuSans-31"/>
       <use xlink:href="#DejaVuSans-35" x="63.623047"/>
       <use xlink:href="#DejaVuSans-30" x="127.246094"/>
      </g>
     </g>
    </g>
    <g id="xtick_5">
     <g id="line2d_5">
      <g>
       <use xlink:href="#m6871196d47" x="202.411345" y="210.04" style="stroke: #000000; stroke-width: 0.8"/>
      </g>
     </g>
     <g id="text_5">
      <!-- 200 -->
      <g transform="translate(192.867595 224.638438) scale(0.1 -0.1)">
       <defs>
        <path id="DejaVuSans-32" d="M 1228 531 
L 3431 531 
L 3431 0 
L 469 0 
L 469 531 
Q 828 903 1448 1529 
Q 2069 2156 2228 2338 
Q 2531 2678 2651 2914 
Q 2772 3150 2772 3378 
Q 2772 3750 2511 3984 
Q 2250 4219 1831 4219 
Q 1534 4219 1204 4116 
Q 875 4013 500 3803 
L 500 4441 
Q 881 4594 1212 4672 
Q 1544 4750 1819 4750 
Q 2544 4750 2975 4387 
Q 3406 4025 3406 3419 
Q 3406 3131 3298 2873 
Q 3191 2616 2906 2266 
Q 2828 2175 2409 1742 
Q 1991 1309 1228 531 
z
" transform="scale(0.015625)"/>
       </defs>
       <use xlink:href="#DejaVuSans-32"/>
       <use xlink:href="#DejaVuSans-30" x="63.623047"/>
       <use xlink:href="#DejaVuSans-30" x="127.246094"/>
      </g>
     </g>
    </g>
    <g id="xtick_6">
     <g id="line2d_6">
      <g>
       <use xlink:href="#m6871196d47" x="238.740602" y="210.04" style="stroke: #000000; stroke-width: 0.8"/>
      </g>
     </g>
     <g id="text_6">
      <!-- 250 -->
      <g transform="translate(229.196852 224.638438) scale(0.1 -0.1)">
       <use xlink:href="#DejaVuSans-32"/>
       <use xlink:href="#DejaVuSans-35" x="63.623047"/>
       <use xlink:href="#DejaVuSans-30" x="127.246094"/>
      </g>
     </g>
    </g>
    <g id="xtick_7">
     <g id="line2d_7">
      <g>
       <use xlink:href="#m6871196d47" x="275.069858" y="210.04" style="stroke: #000000; stroke-width: 0.8"/>
      </g>
     </g>
     <g id="text_7">
      <!-- 300 -->
      <g transform="translate(265.526108 224.638438) scale(0.1 -0.1)">
       <defs>
        <path id="DejaVuSans-33" d="M 2597 2516 
Q 3050 2419 3304 2112 
Q 3559 1806 3559 1356 
Q 3559 666 3084 287 
Q 2609 -91 1734 -91 
Q 1441 -91 1130 -33 
Q 819 25 488 141 
L 488 750 
Q 750 597 1062 519 
Q 1375 441 1716 441 
Q 2309 441 2620 675 
Q 2931 909 2931 1356 
Q 2931 1769 2642 2001 
Q 2353 2234 1838 2234 
L 1294 2234 
L 1294 2753 
L 1863 2753 
Q 2328 2753 2575 2939 
Q 2822 3125 2822 3475 
Q 2822 3834 2567 4026 
Q 2313 4219 1838 4219 
Q 1578 4219 1281 4162 
Q 984 4106 628 3988 
L 628 4550 
Q 988 4650 1302 4700 
Q 1616 4750 1894 4750 
Q 2613 4750 3031 4423 
Q 3450 4097 3450 3541 
Q 3450 3153 3228 2886 
Q 3006 2619 2597 2516 
z
" transform="scale(0.015625)"/>
       </defs>
       <use xlink:href="#DejaVuSans-33"/>
       <use xlink:href="#DejaVuSans-30" x="63.623047"/>
       <use xlink:href="#DejaVuSans-30" x="127.246094"/>
      </g>
     </g>
    </g>
    <g id="xtick_8">
     <g id="line2d_8">
      <g>
       <use xlink:href="#m6871196d47" x="311.399115" y="210.04" style="stroke: #000000; stroke-width: 0.8"/>
      </g>
     </g>
     <g id="text_8">
      <!-- 350 -->
      <g transform="translate(301.855365 224.638438) scale(0.1 -0.1)">
       <use xlink:href="#DejaVuSans-33"/>
       <use xlink:href="#DejaVuSans-35" x="63.623047"/>
       <use xlink:href="#DejaVuSans-30" x="127.246094"/>
      </g>
     </g>
    </g>
    <g id="text_9">
     <!-- concentration -->
     <g transform="translate(147.708594 238.316563) scale(0.1 -0.1)">
      <defs>
       <path id="DejaVuSans-63" d="M 3122 3366 
L 3122 2828 
Q 2878 2963 2633 3030 
Q 2388 3097 2138 3097 
Q 1578 3097 1268 2742 
Q 959 2388 959 1747 
Q 959 1106 1268 751 
Q 1578 397 2138 397 
Q 2388 397 2633 464 
Q 2878 531 3122 666 
L 3122 134 
Q 2881 22 2623 -34 
Q 2366 -91 2075 -91 
Q 1284 -91 818 406 
Q 353 903 353 1747 
Q 353 2603 823 3093 
Q 1294 3584 2113 3584 
Q 2378 3584 2631 3529 
Q 2884 3475 3122 3366 
z
" transform="scale(0.015625)"/>
       <path id="DejaVuSans-6f" d="M 1959 3097 
Q 1497 3097 1228 2736 
Q 959 2375 959 1747 
Q 959 1119 1226 758 
Q 1494 397 1959 397 
Q 2419 397 2687 759 
Q 2956 1122 2956 1747 
Q 2956 2369 2687 2733 
Q 2419 3097 1959 3097 
z
M 1959 3584 
Q 2709 3584 3137 3096 
Q 3566 2609 3566 1747 
Q 3566 888 3137 398 
Q 2709 -91 1959 -91 
Q 1206 -91 779 398 
Q 353 888 353 1747 
Q 353 2609 779 3096 
Q 1206 3584 1959 3584 
z
" transform="scale(0.015625)"/>
       <path id="DejaVuSans-6e" d="M 3513 2113 
L 3513 0 
L 2938 0 
L 2938 2094 
Q 2938 2591 2744 2837 
Q 2550 3084 2163 3084 
Q 1697 3084 1428 2787 
Q 1159 2491 1159 1978 
L 1159 0 
L 581 0 
L 581 3500 
L 1159 3500 
L 1159 2956 
Q 1366 3272 1645 3428 
Q 1925 3584 2291 3584 
Q 2894 3584 3203 3211 
Q 3513 2838 3513 2113 
z
" transform="scale(0.015625)"/>
       <path id="DejaVuSans-65" d="M 3597 1894 
L 3597 1613 
L 953 1613 
Q 991 1019 1311 708 
Q 1631 397 2203 397 
Q 2534 397 2845 478 
Q 3156 559 3463 722 
L 3463 178 
Q 3153 47 2828 -22 
Q 2503 -91 2169 -91 
Q 1331 -91 842 396 
Q 353 884 353 1716 
Q 353 2575 817 3079 
Q 1281 3584 2069 3584 
Q 2775 3584 3186 3129 
Q 3597 2675 3597 1894 
z
M 3022 2063 
Q 3016 2534 2758 2815 
Q 2500 3097 2075 3097 
Q 1594 3097 1305 2825 
Q 1016 2553 972 2059 
L 3022 2063 
z
" transform="scale(0.015625)"/>
       <path id="DejaVuSans-74" d="M 1172 4494 
L 1172 3500 
L 2356 3500 
L 2356 3053 
L 1172 3053 
L 1172 1153 
Q 1172 725 1289 603 
Q 1406 481 1766 481 
L 2356 481 
L 2356 0 
L 1766 0 
Q 1100 0 847 248 
Q 594 497 594 1153 
L 594 3053 
L 172 3053 
L 172 3500 
L 594 3500 
L 594 4494 
L 1172 4494 
z
" transform="scale(0.015625)"/>
       <path id="DejaVuSans-72" d="M 2631 2963 
Q 2534 3019 2420 3045 
Q 2306 3072 2169 3072 
Q 1681 3072 1420 2755 
Q 1159 2438 1159 1844 
L 1159 0 
L 581 0 
L 581 3500 
L 1159 3500 
L 1159 2956 
Q 1341 3275 1631 3429 
Q 1922 3584 2338 3584 
Q 2397 3584 2469 3576 
Q 2541 3569 2628 3553 
L 2631 2963 
z
" transform="scale(0.015625)"/>
       <path id="DejaVuSans-61" d="M 2194 1759 
Q 1497 1759 1228 1600 
Q 959 1441 959 1056 
Q 959 750 1161 570 
Q 1363 391 1709 391 
Q 2188 391 2477 730 
Q 2766 1069 2766 1631 
L 2766 1759 
L 2194 1759 
z
M 3341 1997 
L 3341 0 
L 2766 0 
L 2766 531 
Q 2569 213 2275 61 
Q 1981 -91 1556 -91 
Q 1019 -91 701 211 
Q 384 513 384 1019 
Q 384 1609 779 1909 
Q 1175 2209 1959 2209 
L 2766 2209 
L 2766 2266 
Q 2766 2663 2505 2880 
Q 2244 3097 1772 3097 
Q 1472 3097 1187 3025 
Q 903 2953 641 2809 
L 641 3341 
Q 956 3463 1253 3523 
Q 1550 3584 1831 3584 
Q 2591 3584 2966 3190 
Q 3341 2797 3341 1997 
z
" transform="scale(0.015625)"/>
       <path id="DejaVuSans-69" d="M 603 3500 
L 1178 3500 
L 1178 0 
L 603 0 
L 603 3500 
z
M 603 4863 
L 1178 4863 
L 1178 4134 
L 603 4134 
L 603 4863 
z
" transform="scale(0.015625)"/>
      </defs>
      <use xlink:href="#DejaVuSans-63"/>
      <use xlink:href="#DejaVuSans-6f" x="54.980469"/>
      <use xlink:href="#DejaVuSans-6e" x="116.162109"/>
      <use xlink:href="#DejaVuSans-63" x="179.541016"/>
      <use xlink:href="#DejaVuSans-65" x="234.521484"/>
      <use xlink:href="#DejaVuSans-6e" x="296.044922"/>
      <use xlink:href="#DejaVuSans-74" x="359.423828"/>
      <use xlink:href="#DejaVuSans-72" x="398.632812"/>
      <use xlink:href="#DejaVuSans-61" x="439.746094"/>
      <use xlink:href="#DejaVuSans-74" x="501.025391"/>
      <use xlink:href="#DejaVuSans-69" x="540.234375"/>
      <use xlink:href="#DejaVuSans-6f" x="568.017578"/>
      <use xlink:href="#DejaVuSans-6e" x="629.199219"/>
     </g>
    </g>
   </g>
   <g id="matplotlib.axis_2">
    <g id="ytick_1">
     <g id="line2d_9">
      <defs>
       <path id="m8cef0ff370" d="M 0 0 
L -3.5 0 
" style="stroke: #000000; stroke-width: 0.8"/>
      </defs>
      <g>
       <use xlink:href="#m8cef0ff370" x="44.57" y="201.163636" style="stroke: #000000; stroke-width: 0.8"/>
      </g>
     </g>
     <g id="text_10">
      <!-- 0 -->
      <g transform="translate(31.2075 204.962855) scale(0.1 -0.1)">
       <use xlink:href="#DejaVuSans-30"/>
      </g>
     </g>
    </g>
    <g id="ytick_2">
     <g id="line2d_10">
      <g>
       <use xlink:href="#m8cef0ff370" x="44.57" y="171.01417" style="stroke: #000000; stroke-width: 0.8"/>
      </g>
     </g>
     <g id="text_11">
      <!-- 10 -->
      <g transform="translate(24.845 174.813388) scale(0.1 -0.1)">
       <use xlink:href="#DejaVuSans-31"/>
       <use xlink:href="#DejaVuSans-30" x="63.623047"/>
      </g>
     </g>
    </g>
    <g id="ytick_3">
     <g id="line2d_11">
      <g>
       <use xlink:href="#m8cef0ff370" x="44.57" y="140.864703" style="stroke: #000000; stroke-width: 0.8"/>
      </g>
     </g>
     <g id="text_12">
      <!-- 20 -->
      <g transform="translate(24.845 144.663922) scale(0.1 -0.1)">
       <use xlink:href="#DejaVuSans-32"/>
       <use xlink:href="#DejaVuSans-30" x="63.623047"/>
      </g>
     </g>
    </g>
    <g id="ytick_4">
     <g id="line2d_12">
      <g>
       <use xlink:href="#m8cef0ff370" x="44.57" y="110.715236" style="stroke: #000000; stroke-width: 0.8"/>
      </g>
     </g>
     <g id="text_13">
      <!-- 30 -->
      <g transform="translate(24.845 114.514455) scale(0.1 -0.1)">
       <use xlink:href="#DejaVuSans-33"/>
       <use xlink:href="#DejaVuSans-30" x="63.623047"/>
      </g>
     </g>
    </g>
    <g id="ytick_5">
     <g id="line2d_13">
      <g>
       <use xlink:href="#m8cef0ff370" x="44.57" y="80.56577" style="stroke: #000000; stroke-width: 0.8"/>
      </g>
     </g>
     <g id="text_14">
      <!-- 40 -->
      <g transform="translate(24.845 84.364988) scale(0.1 -0.1)">
       <defs>
        <path id="DejaVuSans-34" d="M 2419 4116 
L 825 1625 
L 2419 1625 
L 2419 4116 
z
M 2253 4666 
L 3047 4666 
L 3047 1625 
L 3713 1625 
L 3713 1100 
L 3047 1100 
L 3047 0 
L 2419 0 
L 2419 1100 
L 313 1100 
L 313 1709 
L 2253 4666 
z
" transform="scale(0.015625)"/>
       </defs>
       <use xlink:href="#DejaVuSans-34"/>
       <use xlink:href="#DejaVuSans-30" x="63.623047"/>
      </g>
     </g>
    </g>
    <g id="ytick_6">
     <g id="line2d_14">
      <g>
       <use xlink:href="#m8cef0ff370" x="44.57" y="50.416303" style="stroke: #000000; stroke-width: 0.8"/>
      </g>
     </g>
     <g id="text_15">
      <!-- 50 -->
      <g transform="translate(24.845 54.215522) scale(0.1 -0.1)">
       <use xlink:href="#DejaVuSans-35"/>
       <use xlink:href="#DejaVuSans-30" x="63.623047"/>
      </g>
     </g>
    </g>
    <g id="ytick_7">
     <g id="line2d_15">
      <g>
       <use xlink:href="#m8cef0ff370" x="44.57" y="20.266836" style="stroke: #000000; stroke-width: 0.8"/>
      </g>
     </g>
     <g id="text_16">
      <!-- 60 -->
      <g transform="translate(24.845 24.066055) scale(0.1 -0.1)">
       <defs>
        <path id="DejaVuSans-36" d="M 2113 2584 
Q 1688 2584 1439 2293 
Q 1191 2003 1191 1497 
Q 1191 994 1439 701 
Q 1688 409 2113 409 
Q 2538 409 2786 701 
Q 3034 994 3034 1497 
Q 3034 2003 2786 2293 
Q 2538 2584 2113 2584 
z
M 3366 4563 
L 3366 3988 
Q 3128 4100 2886 4159 
Q 2644 4219 2406 4219 
Q 1781 4219 1451 3797 
Q 1122 3375 1075 2522 
Q 1259 2794 1537 2939 
Q 1816 3084 2150 3084 
Q 2853 3084 3261 2657 
Q 3669 2231 3669 1497 
Q 3669 778 3244 343 
Q 2819 -91 2113 -91 
Q 1303 -91 875 529 
Q 447 1150 447 2328 
Q 447 3434 972 4092 
Q 1497 4750 2381 4750 
Q 2619 4750 2861 4703 
Q 3103 4656 3366 4563 
z
" transform="scale(0.015625)"/>
       </defs>
       <use xlink:href="#DejaVuSans-36"/>
       <use xlink:href="#DejaVuSans-30" x="63.623047"/>
      </g>
     </g>
    </g>
    <g id="text_17">
     <!-- flux -->
     <g transform="translate(18.765313 121.677344) rotate(-90) scale(0.1 -0.1)">
      <defs>
       <path id="DejaVuSans-66" d="M 2375 4863 
L 2375 4384 
L 1825 4384 
Q 1516 4384 1395 4259 
Q 1275 4134 1275 3809 
L 1275 3500 
L 2222 3500 
L 2222 3053 
L 1275 3053 
L 1275 0 
L 697 0 
L 697 3053 
L 147 3053 
L 147 3500 
L 697 3500 
L 697 3744 
Q 697 4328 969 4595 
Q 1241 4863 1831 4863 
L 2375 4863 
z
" transform="scale(0.015625)"/>
       <path id="DejaVuSans-6c" d="M 603 4863 
L 1178 4863 
L 1178 0 
L 603 0 
L 603 4863 
z
" transform="scale(0.015625)"/>
       <path id="DejaVuSans-75" d="M 544 1381 
L 544 3500 
L 1119 3500 
L 1119 1403 
Q 1119 906 1312 657 
Q 1506 409 1894 409 
Q 2359 409 2629 706 
Q 2900 1003 2900 1516 
L 2900 3500 
L 3475 3500 
L 3475 0 
L 2900 0 
L 2900 538 
Q 2691 219 2414 64 
Q 2138 -91 1772 -91 
Q 1169 -91 856 284 
Q 544 659 544 1381 
z
M 1991 3584 
L 1991 3584 
z
" transform="scale(0.015625)"/>
       <path id="DejaVuSans-78" d="M 3513 3500 
L 2247 1797 
L 3578 0 
L 2900 0 
L 1881 1375 
L 863 0 
L 184 0 
L 1544 1831 
L 300 3500 
L 978 3500 
L 1906 2253 
L 2834 3500 
L 3513 3500 
z
" transform="scale(0.015625)"/>
      </defs>
      <use xlink:href="#DejaVuSans-66"/>
      <use xlink:href="#DejaVuSans-6c" x="35.205078"/>
      <use xlink:href="#DejaVuSans-75" x="62.988281"/>
      <use xlink:href="#DejaVuSans-78" x="126.367188"/>
     </g>
    </g>
   </g>
   <g id="line2d_16">
    <defs>
     <path id="mec534267a8" d="M 0 2.5 
C 0.663008 2.5 1.29895 2.236584 1.767767 1.767767 
C 2.236584 1.29895 2.5 0.663008 2.5 0 
C 2.5 -0.663008 2.236584 -1.29895 1.767767 -1.767767 
C 1.29895 -2.236584 0.663008 -2.5 0 -2.5 
C -0.663008 -2.5 -1.29895 -2.236584 -1.767767 -1.767767 
C -2.236584 -1.29895 -2.5 -0.663008 -2.5 0 
C -2.5 0.663008 -2.236584 1.29895 -1.767767 1.767767 
C -1.29895 2.236584 -0.663008 2.5 0 2.5 
z
" style="stroke: #ff7f00"/>
    </defs>
    <g clip-path="url(#pa057ee36c7)">
     <use xlink:href="#mec534267a8" x="63.105991" y="191.268674" style="fill: #ffa500; stroke: #ff7f00"/>
     <use xlink:href="#mec534267a8" x="61.436082" y="196.507183" style="fill: #ffa500; stroke: #ff7f00"/>
     <use xlink:href="#mec534267a8" x="61.269091" y="196.618051" style="fill: #ffa500; stroke: #ff7f00"/>
     <use xlink:href="#mec534267a8" x="82.142955" y="171.36788" style="fill: #ffa500; stroke: #ff7f00"/>
     <use xlink:href="#mec534267a8" x="82.142955" y="166.101654" style="fill: #ffa500; stroke: #ff7f00"/>
     <use xlink:href="#mec534267a8" x="80.473045" y="165.339437" style="fill: #ffa500; stroke: #ff7f00"/>
     <use xlink:href="#mec534267a8" x="143.929591" y="123.69467" style="fill: #ffa500; stroke: #ff7f00"/>
     <use xlink:href="#mec534267a8" x="120.550864" y="124.664765" style="fill: #ffa500; stroke: #ff7f00"/>
     <use xlink:href="#mec534267a8" x="123.890682" y="126.674246" style="fill: #ffa500; stroke: #ff7f00"/>
     <use xlink:href="#mec534267a8" x="175.657864" y="67.082734" style="fill: #ffa500; stroke: #ff7f00"/>
     <use xlink:href="#mec534267a8" x="122.220773" y="57.866837" style="fill: #ffa500; stroke: #ff7f00"/>
     <use xlink:href="#mec534267a8" x="127.2305" y="37.286978" style="fill: #ffa500; stroke: #ff7f00"/>
     <use xlink:href="#mec534267a8" x="202.376409" y="149.817926" style="fill: #ffa500; stroke: #ff7f00"/>
     <use xlink:href="#mec534267a8" x="142.259682" y="201.163636" style="fill: #ffa500; stroke: #ff7f00"/>
     <use xlink:href="#mec534267a8" x="224.085227" y="106.302264" style="fill: #ffa500; stroke: #ff7f00"/>
     <use xlink:href="#mec534267a8" x="307.580682" y="133.811369" style="fill: #ffa500; stroke: #ff7f00"/>
     <use xlink:href="#mec534267a8" x="240.784318" y="132.841275" style="fill: #ffa500; stroke: #ff7f00"/>
     <use xlink:href="#mec534267a8" x="274.1825" y="133.811369" style="fill: #ffa500; stroke: #ff7f00"/>
     <use xlink:href="#mec534267a8" x="58.764227" y="195.765754" style="fill: #ffa500; stroke: #ff7f00"/>
     <use xlink:href="#mec534267a8" x="57.094318" y="192.072466" style="fill: #ffa500; stroke: #ff7f00"/>
     <use xlink:href="#mec534267a8" x="58.764227" y="194.629358" style="fill: #ffa500; stroke: #ff7f00"/>
     <use xlink:href="#mec534267a8" x="215.735682" y="41.098063" style="fill: #ffa500; stroke: #ff7f00"/>
     <use xlink:href="#mec534267a8" x="142.259682" y="23.636364" style="fill: #ffa500; stroke: #ff7f00"/>
     <use xlink:href="#mec534267a8" x="209.056045" y="32.367213" style="fill: #ffa500; stroke: #ff7f00"/>
    </g>
   </g>
   <g id="line2d_17">
    <path d="M 57.094318 201.163636 
L 59.599182 191.497685 
L 62.104045 183.232841 
L 64.608909 176.085049 
L 67.113773 169.842179 
L 69.618636 164.342614 
L 72.1235 159.461061 
L 74.628364 155.098889 
L 77.133227 151.177394 
L 79.638091 147.633009 
L 82.142955 144.413833 
L 84.647818 141.477071 
L 87.152682 138.787121 
L 90.909977 135.150941 
L 94.667273 131.921833 
L 98.424568 129.035062 
L 102.181864 126.438929 
L 105.939159 124.091647 
L 109.696455 121.95907 
L 114.706182 119.401632 
L 119.715909 117.122194 
L 124.725636 115.077765 
L 130.987795 112.800693 
L 137.249955 110.783574 
L 143.512114 108.984299 
L 151.026705 107.066057 
L 158.541295 105.367891 
L 167.308318 103.617491 
L 177.327773 101.867938 
L 187.347227 100.337773 
L 198.619114 98.830579 
L 211.143432 97.372969 
L 224.920182 95.983252 
L 241.201795 94.571918 
L 258.735841 93.274329 
L 278.77475 92.013154 
L 301.318523 90.815013 
L 306.32825 90.575075 
L 306.32825 90.575075 
" clip-path="url(#pa057ee36c7)" style="fill: none; stroke: #ef553b; stroke-width: 1.5; stroke-linecap: square"/>
   </g>
   <g id="patch_3">
    <path d="M 44.57 210.04 
L 44.57 14.76 
" style="fill: none; stroke: #000000; stroke-width: 0.8; stroke-linejoin: miter; stroke-linecap: square"/>
   </g>
   <g id="patch_4">
    <path d="M 320.105 210.04 
L 320.105 14.76 
" style="fill: none; stroke: #000000; stroke-width: 0.8; stroke-linejoin: miter; stroke-linecap: square"/>
   </g>
   <g id="patch_5">
    <path d="M 44.57 210.04 
L 320.105 210.04 
" style="fill: none; stroke: #000000; stroke-width: 0.8; stroke-linejoin: miter; stroke-linecap: square"/>
   </g>
   <g id="patch_6">
    <path d="M 44.57 14.76 
L 320.105 14.76 
" style="fill: none; stroke: #000000; stroke-width: 0.8; stroke-linejoin: miter; stroke-linecap: square"/>
   </g>
   <g id="legend_1">
    <g id="patch_7">
     <path d="M 199.758125 205.04 
L 313.105 205.04 
Q 315.105 205.04 315.105 203.04 
L 315.105 174.68375 
Q 315.105 172.68375 313.105 172.68375 
L 199.758125 172.68375 
Q 197.758125 172.68375 197.758125 174.68375 
L 197.758125 203.04 
Q 197.758125 205.04 199.758125 205.04 
z
" style="fill: #ffffff; opacity: 0.8; stroke: #cccccc; stroke-linejoin: miter"/>
    </g>
    <g id="line2d_18">
     <g>
      <use xlink:href="#mec534267a8" x="211.758125" y="180.782188" style="fill: #ffa500; stroke: #ff7f00"/>
     </g>
    </g>
    <g id="text_18">
     <!-- data -->
     <g transform="translate(229.758125 184.282188) scale(0.1 -0.1)">
      <defs>
       <path id="DejaVuSans-64" d="M 2906 2969 
L 2906 4863 
L 3481 4863 
L 3481 0 
L 2906 0 
L 2906 525 
Q 2725 213 2448 61 
Q 2172 -91 1784 -91 
Q 1150 -91 751 415 
Q 353 922 353 1747 
Q 353 2572 751 3078 
Q 1150 3584 1784 3584 
Q 2172 3584 2448 3432 
Q 2725 3281 2906 2969 
z
M 947 1747 
Q 947 1113 1208 752 
Q 1469 391 1925 391 
Q 2381 391 2643 752 
Q 2906 1113 2906 1747 
Q 2906 2381 2643 2742 
Q 2381 3103 1925 3103 
Q 1469 3103 1208 2742 
Q 947 2381 947 1747 
z
" transform="scale(0.015625)"/>
      </defs>
      <use xlink:href="#DejaVuSans-64"/>
      <use xlink:href="#DejaVuSans-61" x="63.476562"/>
      <use xlink:href="#DejaVuSans-74" x="124.755859"/>
      <use xlink:href="#DejaVuSans-61" x="163.964844"/>
     </g>
    </g>
    <g id="line2d_19">
     <path d="M 201.758125 195.460313 
L 211.758125 195.460313 
L 221.758125 195.460313 
" style="fill: none; stroke: #ef553b; stroke-width: 1.5; stroke-linecap: square"/>
    </g>
    <g id="text_19">
     <!-- best fit (95% CI) -->
     <g transform="translate(229.758125 198.960313) scale(0.1 -0.1)">
      <defs>
       <path id="DejaVuSans-62" d="M 3116 1747 
Q 3116 2381 2855 2742 
Q 2594 3103 2138 3103 
Q 1681 3103 1420 2742 
Q 1159 2381 1159 1747 
Q 1159 1113 1420 752 
Q 1681 391 2138 391 
Q 2594 391 2855 752 
Q 3116 1113 3116 1747 
z
M 1159 2969 
Q 1341 3281 1617 3432 
Q 1894 3584 2278 3584 
Q 2916 3584 3314 3078 
Q 3713 2572 3713 1747 
Q 3713 922 3314 415 
Q 2916 -91 2278 -91 
Q 1894 -91 1617 61 
Q 1341 213 1159 525 
L 1159 0 
L 581 0 
L 581 4863 
L 1159 4863 
L 1159 2969 
z
" transform="scale(0.015625)"/>
       <path id="DejaVuSans-73" d="M 2834 3397 
L 2834 2853 
Q 2591 2978 2328 3040 
Q 2066 3103 1784 3103 
Q 1356 3103 1142 2972 
Q 928 2841 928 2578 
Q 928 2378 1081 2264 
Q 1234 2150 1697 2047 
L 1894 2003 
Q 2506 1872 2764 1633 
Q 3022 1394 3022 966 
Q 3022 478 2636 193 
Q 2250 -91 1575 -91 
Q 1294 -91 989 -36 
Q 684 19 347 128 
L 347 722 
Q 666 556 975 473 
Q 1284 391 1588 391 
Q 1994 391 2212 530 
Q 2431 669 2431 922 
Q 2431 1156 2273 1281 
Q 2116 1406 1581 1522 
L 1381 1569 
Q 847 1681 609 1914 
Q 372 2147 372 2553 
Q 372 3047 722 3315 
Q 1072 3584 1716 3584 
Q 2034 3584 2315 3537 
Q 2597 3491 2834 3397 
z
" transform="scale(0.015625)"/>
       <path id="DejaVuSans-20" transform="scale(0.015625)"/>
       <path id="DejaVuSans-28" d="M 1984 4856 
Q 1566 4138 1362 3434 
Q 1159 2731 1159 2009 
Q 1159 1288 1364 580 
Q 1569 -128 1984 -844 
L 1484 -844 
Q 1016 -109 783 600 
Q 550 1309 550 2009 
Q 550 2706 781 3412 
Q 1013 4119 1484 4856 
L 1984 4856 
z
" transform="scale(0.015625)"/>
       <path id="DejaVuSans-39" d="M 703 97 
L 703 672 
Q 941 559 1184 500 
Q 1428 441 1663 441 
Q 2288 441 2617 861 
Q 2947 1281 2994 2138 
Q 2813 1869 2534 1725 
Q 2256 1581 1919 1581 
Q 1219 1581 811 2004 
Q 403 2428 403 3163 
Q 403 3881 828 4315 
Q 1253 4750 1959 4750 
Q 2769 4750 3195 4129 
Q 3622 3509 3622 2328 
Q 3622 1225 3098 567 
Q 2575 -91 1691 -91 
Q 1453 -91 1209 -44 
Q 966 3 703 97 
z
M 1959 2075 
Q 2384 2075 2632 2365 
Q 2881 2656 2881 3163 
Q 2881 3666 2632 3958 
Q 2384 4250 1959 4250 
Q 1534 4250 1286 3958 
Q 1038 3666 1038 3163 
Q 1038 2656 1286 2365 
Q 1534 2075 1959 2075 
z
" transform="scale(0.015625)"/>
       <path id="DejaVuSans-25" d="M 4653 2053 
Q 4381 2053 4226 1822 
Q 4072 1591 4072 1178 
Q 4072 772 4226 539 
Q 4381 306 4653 306 
Q 4919 306 5073 539 
Q 5228 772 5228 1178 
Q 5228 1588 5073 1820 
Q 4919 2053 4653 2053 
z
M 4653 2450 
Q 5147 2450 5437 2106 
Q 5728 1763 5728 1178 
Q 5728 594 5436 251 
Q 5144 -91 4653 -91 
Q 4153 -91 3862 251 
Q 3572 594 3572 1178 
Q 3572 1766 3864 2108 
Q 4156 2450 4653 2450 
z
M 1428 4353 
Q 1159 4353 1004 4120 
Q 850 3888 850 3481 
Q 850 3069 1003 2837 
Q 1156 2606 1428 2606 
Q 1700 2606 1854 2837 
Q 2009 3069 2009 3481 
Q 2009 3884 1853 4118 
Q 1697 4353 1428 4353 
z
M 4250 4750 
L 4750 4750 
L 1831 -91 
L 1331 -91 
L 4250 4750 
z
M 1428 4750 
Q 1922 4750 2215 4408 
Q 2509 4066 2509 3481 
Q 2509 2891 2217 2550 
Q 1925 2209 1428 2209 
Q 931 2209 642 2551 
Q 353 2894 353 3481 
Q 353 4063 643 4406 
Q 934 4750 1428 4750 
z
" transform="scale(0.015625)"/>
       <path id="DejaVuSans-43" d="M 4122 4306 
L 4122 3641 
Q 3803 3938 3442 4084 
Q 3081 4231 2675 4231 
Q 1875 4231 1450 3742 
Q 1025 3253 1025 2328 
Q 1025 1406 1450 917 
Q 1875 428 2675 428 
Q 3081 428 3442 575 
Q 3803 722 4122 1019 
L 4122 359 
Q 3791 134 3420 21 
Q 3050 -91 2638 -91 
Q 1578 -91 968 557 
Q 359 1206 359 2328 
Q 359 3453 968 4101 
Q 1578 4750 2638 4750 
Q 3056 4750 3426 4639 
Q 3797 4528 4122 4306 
z
" transform="scale(0.015625)"/>
       <path id="DejaVuSans-49" d="M 628 4666 
L 1259 4666 
L 1259 0 
L 628 0 
L 628 4666 
z
" transform="scale(0.015625)"/>
       <path id="DejaVuSans-29" d="M 513 4856 
L 1013 4856 
Q 1481 4119 1714 3412 
Q 1947 2706 1947 2009 
Q 1947 1309 1714 600 
Q 1481 -109 1013 -844 
L 513 -844 
Q 928 -128 1133 580 
Q 1338 1288 1338 2009 
Q 1338 2731 1133 3434 
Q 928 4138 513 4856 
z
" transform="scale(0.015625)"/>
      </defs>
      <use xlink:href="#DejaVuSans-62"/>
      <use xlink:href="#DejaVuSans-65" x="63.476562"/>
      <use xlink:href="#DejaVuSans-73" x="125"/>
      <use xlink:href="#DejaVuSans-74" x="177.099609"/>
      <use xlink:href="#DejaVuSans-20" x="216.308594"/>
      <use xlink:href="#DejaVuSans-66" x="248.095703"/>
      <use xlink:href="#DejaVuSans-69" x="283.300781"/>
      <use xlink:href="#DejaVuSans-74" x="311.083984"/>
      <use xlink:href="#DejaVuSans-20" x="350.292969"/>
      <use xlink:href="#DejaVuSans-28" x="382.080078"/>
      <use xlink:href="#DejaVuSans-39" x="421.09375"/>
      <use xlink:href="#DejaVuSans-35" x="484.716797"/>
      <use xlink:href="#DejaVuSans-25" x="548.339844"/>
      <use xlink:href="#DejaVuSans-20" x="643.359375"/>
      <use xlink:href="#DejaVuSans-43" x="675.146484"/>
      <use xlink:href="#DejaVuSans-49" x="744.970703"/>
      <use xlink:href="#DejaVuSans-29" x="774.462891"/>
     </g>
    </g>
   </g>
  </g>
  <g id="axes_2">
   <g id="patch_8">
    <path d="M 353.745 210.04 
L 629.28 210.04 
L 629.28 14.76 
L 353.745 14.76 
z
" style="fill: #ffffff"/>
   </g>
   <g id="matplotlib.axis_3">
    <g id="xtick_9">
     <g id="line2d_20">
      <g>
       <use xlink:href="#m6871196d47" x="353.745" y="210.04" style="stroke: #000000; stroke-width: 0.8"/>
      </g>
     </g>
     <g id="text_20">
      <!-- 0.0 -->
      <g transform="translate(345.793438 224.638438) scale(0.1 -0.1)">
       <defs>
        <path id="DejaVuSans-2e" d="M 684 794 
L 1344 794 
L 1344 0 
L 684 0 
L 684 794 
z
" transform="scale(0.015625)"/>
       </defs>
       <use xlink:href="#DejaVuSans-30"/>
       <use xlink:href="#DejaVuSans-2e" x="63.623047"/>
       <use xlink:href="#DejaVuSans-30" x="95.410156"/>
      </g>
     </g>
    </g>
    <g id="xtick_10">
     <g id="line2d_21">
      <g>
       <use xlink:href="#m6871196d47" x="408.852" y="210.04" style="stroke: #000000; stroke-width: 0.8"/>
      </g>
     </g>
     <g id="text_21">
      <!-- 0.2 -->
      <g transform="translate(400.900438 224.638438) scale(0.1 -0.1)">
       <use xlink:href="#DejaVuSans-30"/>
       <use xlink:href="#DejaVuSans-2e" x="63.623047"/>
       <use xlink:href="#DejaVuSans-32" x="95.410156"/>
      </g>
     </g>
    </g>
    <g id="xtick_11">
     <g id="line2d_22">
      <g>
       <use xlink:href="#m6871196d47" x="463.959" y="210.04" style="stroke: #000000; stroke-width: 0.8"/>
      </g>
     </g>
     <g id="text_22">
      <!-- 0.4 -->
      <g transform="translate(456.007438 224.638438) scale(0.1 -0.1)">
       <use xlink:href="#DejaVuSans-30"/>
       <use xlink:href="#DejaVuSans-2e" x="63.623047"/>
       <use xlink:href="#DejaVuSans-34" x="95.410156"/>
      </g>
     </g>
    </g>
    <g id="xtick_12">
     <g id="line2d_23">
      <g>
       <use xlink:href="#m6871196d47" x="519.066" y="210.04" style="stroke: #000000; stroke-width: 0.8"/>
      </g>
     </g>
     <g id="text_23">
      <!-- 0.6 -->
      <g transform="translate(511.114438 224.638438) scale(0.1 -0.1)">
       <use xlink:href="#DejaVuSans-30"/>
       <use xlink:href="#DejaVuSans-2e" x="63.623047"/>
       <use xlink:href="#DejaVuSans-36" x="95.410156"/>
      </g>
     </g>
    </g>
    <g id="xtick_13">
     <g id="line2d_24">
      <g>
       <use xlink:href="#m6871196d47" x="574.173" y="210.04" style="stroke: #000000; stroke-width: 0.8"/>
      </g>
     </g>
     <g id="text_24">
      <!-- 0.8 -->
      <g transform="translate(566.221438 224.638438) scale(0.1 -0.1)">
       <defs>
        <path id="DejaVuSans-38" d="M 2034 2216 
Q 1584 2216 1326 1975 
Q 1069 1734 1069 1313 
Q 1069 891 1326 650 
Q 1584 409 2034 409 
Q 2484 409 2743 651 
Q 3003 894 3003 1313 
Q 3003 1734 2745 1975 
Q 2488 2216 2034 2216 
z
M 1403 2484 
Q 997 2584 770 2862 
Q 544 3141 544 3541 
Q 544 4100 942 4425 
Q 1341 4750 2034 4750 
Q 2731 4750 3128 4425 
Q 3525 4100 3525 3541 
Q 3525 3141 3298 2862 
Q 3072 2584 2669 2484 
Q 3125 2378 3379 2068 
Q 3634 1759 3634 1313 
Q 3634 634 3220 271 
Q 2806 -91 2034 -91 
Q 1263 -91 848 271 
Q 434 634 434 1313 
Q 434 1759 690 2068 
Q 947 2378 1403 2484 
z
M 1172 3481 
Q 1172 3119 1398 2916 
Q 1625 2713 2034 2713 
Q 2441 2713 2670 2916 
Q 2900 3119 2900 3481 
Q 2900 3844 2670 4047 
Q 2441 4250 2034 4250 
Q 1625 4250 1398 4047 
Q 1172 3844 1172 3481 
z
" transform="scale(0.015625)"/>
       </defs>
       <use xlink:href="#DejaVuSans-30"/>
       <use xlink:href="#DejaVuSans-2e" x="63.623047"/>
       <use xlink:href="#DejaVuSans-38" x="95.410156"/>
      </g>
     </g>
    </g>
    <g id="xtick_14">
     <g id="line2d_25">
      <g>
       <use xlink:href="#m6871196d47" x="629.28" y="210.04" style="stroke: #000000; stroke-width: 0.8"/>
      </g>
     </g>
     <g id="text_25">
      <!-- 1.0 -->
      <g transform="translate(621.328438 224.638438) scale(0.1 -0.1)">
       <use xlink:href="#DejaVuSans-31"/>
       <use xlink:href="#DejaVuSans-2e" x="63.623047"/>
       <use xlink:href="#DejaVuSans-30" x="95.410156"/>
      </g>
     </g>
    </g>
   </g>
   <g id="matplotlib.axis_4">
    <g id="ytick_8">
     <g id="line2d_26">
      <g>
       <use xlink:href="#m8cef0ff370" x="353.745" y="210.04" style="stroke: #000000; stroke-width: 0.8"/>
      </g>
     </g>
     <g id="text_26">
      <!-- 0.0 -->
      <g transform="translate(330.841875 213.839219) scale(0.1 -0.1)">
       <use xlink:href="#DejaVuSans-30"/>
       <use xlink:href="#DejaVuSans-2e" x="63.623047"/>
       <use xlink:href="#DejaVuSans-30" x="95.410156"/>
      </g>
     </g>
    </g>
    <g id="ytick_9">
     <g id="line2d_27">
      <g>
       <use xlink:href="#m8cef0ff370" x="353.745" y="170.984" style="stroke: #000000; stroke-width: 0.8"/>
      </g>
     </g>
     <g id="text_27">
      <!-- 0.2 -->
      <g transform="translate(330.841875 174.783219) scale(0.1 -0.1)">
       <use xlink:href="#DejaVuSans-30"/>
       <use xlink:href="#DejaVuSans-2e" x="63.623047"/>
       <use xlink:href="#DejaVuSans-32" x="95.410156"/>
      </g>
     </g>
    </g>
    <g id="ytick_10">
     <g id="line2d_28">
      <g>
       <use xlink:href="#m8cef0ff370" x="353.745" y="131.928" style="stroke: #000000; stroke-width: 0.8"/>
      </g>
     </g>
     <g id="text_28">
      <!-- 0.4 -->
      <g transform="translate(330.841875 135.727219) scale(0.1 -0.1)">
       <use xlink:href="#DejaVuSans-30"/>
       <use xlink:href="#DejaVuSans-2e" x="63.623047"/>
       <use xlink:href="#DejaVuSans-34" x="95.410156"/>
      </g>
     </g>
    </g>
    <g id="ytick_11">
     <g id="line2d_29">
      <g>
       <use xlink:href="#m8cef0ff370" x="353.745" y="92.872" style="stroke: #000000; stroke-width: 0.8"/>
      </g>
     </g>
     <g id="text_29">
      <!-- 0.6 -->
      <g transform="translate(330.841875 96.671219) scale(0.1 -0.1)">
       <use xlink:href="#DejaVuSans-30"/>
       <use xlink:href="#DejaVuSans-2e" x="63.623047"/>
       <use xlink:href="#DejaVuSans-36" x="95.410156"/>
      </g>
     </g>
    </g>
    <g id="ytick_12">
     <g id="line2d_30">
      <g>
       <use xlink:href="#m8cef0ff370" x="353.745" y="53.816" style="stroke: #000000; stroke-width: 0.8"/>
      </g>
     </g>
     <g id="text_30">
      <!-- 0.8 -->
      <g transform="translate(330.841875 57.615219) scale(0.1 -0.1)">
       <use xlink:href="#DejaVuSans-30"/>
       <use xlink:href="#DejaVuSans-2e" x="63.623047"/>
       <use xlink:href="#DejaVuSans-38" x="95.410156"/>
      </g>
     </g>
    </g>
    <g id="ytick_13">
     <g id="line2d_31">
      <g>
       <use xlink:href="#m8cef0ff370" x="353.745" y="14.76" style="stroke: #000000; stroke-width: 0.8"/>
      </g>
     </g>
     <g id="text_31">
      <!-- 1.0 -->
      <g transform="translate(330.841875 18.559219) scale(0.1 -0.1)">
       <use xlink:href="#DejaVuSans-31"/>
       <use xlink:href="#DejaVuSans-2e" x="63.623047"/>
       <use xlink:href="#DejaVuSans-30" x="95.410156"/>
      </g>
     </g>
    </g>
   </g>
   <g id="patch_9">
    <path d="M 353.745 210.04 
L 353.745 14.76 
" style="fill: none; stroke: #000000; stroke-width: 0.8; stroke-linejoin: miter; stroke-linecap: square"/>
   </g>
   <g id="patch_10">
    <path d="M 629.28 210.04 
L 629.28 14.76 
" style="fill: none; stroke: #000000; stroke-width: 0.8; stroke-linejoin: miter; stroke-linecap: square"/>
   </g>
   <g id="patch_11">
    <path d="M 353.745 210.04 
L 629.28 210.04 
" style="fill: none; stroke: #000000; stroke-width: 0.8; stroke-linejoin: miter; stroke-linecap: square"/>
   </g>
   <g id="patch_12">
    <path d="M 353.745 14.76 
L 629.28 14.76 
" style="fill: none; stroke: #000000; stroke-width: 0.8; stroke-linejoin: miter; stroke-linecap: square"/>
   </g>
  </g>
 </g>
 <defs>
  <clipPath id="pa057ee36c7">
   <rect x="44.57" y="14.76" width="275.535" height="195.28"/>
  </clipPath>
 </defs>
</svg>
