<?xml version="1.0" encoding="utf-8" standalone="no"?>
<!DOCTYPE svg PUBLIC "-//W3C//DTD SVG 1.1//EN"
  "http://www.w3.org/Graphics/SVG/1.1/DTD/svg11.dtd">
<svg xmlns:xlink="http://www.w3.org/1999/xlink" width="288pt" height="252pt" viewBox="0 0 288 252" xmlns="http://www.w3.org/2000/svg" version="1.1">
 <metadata>
  <rdf:RDF xmlns:dc="http://purl.org/dc/elements/1.1/" xmlns:cc="http://creativecommons.org/ns#" xmlns:rdf="http://www.w3.org/1999/02/22-rdf-syntax-ns#">
   <cc:Work>
    <dc:type rdf:resource="http://purl.org/dc/dcmitype/StillImage"/>
    <dc:date>2023-12-20T14:56:09.447659</dc:date>
    <dc:format>image/svg+xml</dc:format>
    <dc:creator>
     <cc:Agent>
      <dc:title>Matplotlib v3.8.1, https://matplotlib.org/</dc:title>
     </cc:Agent>
    </dc:creator>
   </cc:Work>
  </rdf:RDF>
 </metadata>
 <defs>
  <style type="text/css">*{stroke-linejoin: round; stroke-linecap: butt}</style>
 </defs>
 <g id="figure_1">
  <g id="patch_1">
   <path d="M 0 252 
L 288 252 
L 288 0 
L 0 0 
z
" style="fill: #ffffff"/>
  </g>
  <g id="axes_1">
   <g id="patch_2">
    <path d="M 49.7 209.32 
L 277.2 209.32 
L 277.2 11.547271 
L 49.7 11.547271 
z
" style="fill: #ffffff"/>
   </g>
   <g id="matplotlib.axis_1">
    <g id="xtick_1">
     <g id="line2d_1">
      <defs>
       <path id="m445a7289f5" d="M 0 0 
L 0 3.5 
" style="stroke: #262626; stroke-width: 0.8"/>
      </defs>
      <g>
       <use xlink:href="#m445a7289f5" x="60.040909" y="209.32" style="fill: #262626; stroke: #262626; stroke-width: 0.8"/>
      </g>
     </g>
     <g id="text_1">
      <!-- 0 -->
      <g style="fill: #262626" transform="translate(57.26044 223.477812) scale(0.1 -0.1)">
       <defs>
        <path id="ArialMT-30" d="M 266 2259 
Q 266 3072 433 3567 
Q 600 4063 929 4331 
Q 1259 4600 1759 4600 
Q 2128 4600 2406 4451 
Q 2684 4303 2865 4023 
Q 3047 3744 3150 3342 
Q 3253 2941 3253 2259 
Q 3253 1453 3087 958 
Q 2922 463 2592 192 
Q 2263 -78 1759 -78 
Q 1097 -78 719 397 
Q 266 969 266 2259 
z
M 844 2259 
Q 844 1131 1108 757 
Q 1372 384 1759 384 
Q 2147 384 2411 759 
Q 2675 1134 2675 2259 
Q 2675 3391 2411 3762 
Q 2147 4134 1753 4134 
Q 1366 4134 1134 3806 
Q 844 3388 844 2259 
z
" transform="scale(0.015625)"/>
       </defs>
       <use xlink:href="#ArialMT-30"/>
      </g>
     </g>
    </g>
    <g id="xtick_2">
     <g id="line2d_2">
      <g>
       <use xlink:href="#m445a7289f5" x="119.428757" y="209.32" style="fill: #262626; stroke: #262626; stroke-width: 0.8"/>
      </g>
     </g>
     <g id="text_2">
      <!-- 100 -->
      <g style="fill: #262626" transform="translate(111.087351 223.477812) scale(0.1 -0.1)">
       <defs>
        <path id="ArialMT-31" d="M 2384 0 
L 1822 0 
L 1822 3584 
Q 1619 3391 1289 3197 
Q 959 3003 697 2906 
L 697 3450 
Q 1169 3672 1522 3987 
Q 1875 4303 2022 4600 
L 2384 4600 
L 2384 0 
z
" transform="scale(0.015625)"/>
       </defs>
       <use xlink:href="#ArialMT-31"/>
       <use xlink:href="#ArialMT-30" x="55.615234"/>
       <use xlink:href="#ArialMT-30" x="111.230469"/>
      </g>
     </g>
    </g>
    <g id="xtick_3">
     <g id="line2d_3">
      <g>
       <use xlink:href="#m445a7289f5" x="178.816606" y="209.32" style="fill: #262626; stroke: #262626; stroke-width: 0.8"/>
      </g>
     </g>
     <g id="text_3">
      <!-- 200 -->
      <g style="fill: #262626" transform="translate(170.4752 223.477812) scale(0.1 -0.1)">
       <defs>
        <path id="ArialMT-32" d="M 3222 541 
L 3222 0 
L 194 0 
Q 188 203 259 391 
Q 375 700 629 1000 
Q 884 1300 1366 1694 
Q 2113 2306 2375 2664 
Q 2638 3022 2638 3341 
Q 2638 3675 2398 3904 
Q 2159 4134 1775 4134 
Q 1369 4134 1125 3890 
Q 881 3647 878 3216 
L 300 3275 
Q 359 3922 746 4261 
Q 1134 4600 1788 4600 
Q 2447 4600 2831 4234 
Q 3216 3869 3216 3328 
Q 3216 3053 3103 2787 
Q 2991 2522 2730 2228 
Q 2469 1934 1863 1422 
Q 1356 997 1212 845 
Q 1069 694 975 541 
L 3222 541 
z
" transform="scale(0.015625)"/>
       </defs>
       <use xlink:href="#ArialMT-32"/>
       <use xlink:href="#ArialMT-30" x="55.615234"/>
       <use xlink:href="#ArialMT-30" x="111.230469"/>
      </g>
     </g>
    </g>
    <g id="xtick_4">
     <g id="line2d_4">
      <g>
       <use xlink:href="#m445a7289f5" x="238.204454" y="209.32" style="fill: #262626; stroke: #262626; stroke-width: 0.8"/>
      </g>
     </g>
     <g id="text_4">
      <!-- 300 -->
      <g style="fill: #262626" transform="translate(229.863048 223.477812) scale(0.1 -0.1)">
       <defs>
        <path id="ArialMT-33" d="M 269 1209 
L 831 1284 
Q 928 806 1161 595 
Q 1394 384 1728 384 
Q 2125 384 2398 659 
Q 2672 934 2672 1341 
Q 2672 1728 2419 1979 
Q 2166 2231 1775 2231 
Q 1616 2231 1378 2169 
L 1441 2663 
Q 1497 2656 1531 2656 
Q 1891 2656 2178 2843 
Q 2466 3031 2466 3422 
Q 2466 3731 2256 3934 
Q 2047 4138 1716 4138 
Q 1388 4138 1169 3931 
Q 950 3725 888 3313 
L 325 3413 
Q 428 3978 793 4289 
Q 1159 4600 1703 4600 
Q 2078 4600 2393 4439 
Q 2709 4278 2876 4000 
Q 3044 3722 3044 3409 
Q 3044 3113 2884 2869 
Q 2725 2625 2413 2481 
Q 2819 2388 3044 2092 
Q 3269 1797 3269 1353 
Q 3269 753 2831 336 
Q 2394 -81 1725 -81 
Q 1122 -81 723 278 
Q 325 638 269 1209 
z
" transform="scale(0.015625)"/>
       </defs>
       <use xlink:href="#ArialMT-33"/>
       <use xlink:href="#ArialMT-30" x="55.615234"/>
       <use xlink:href="#ArialMT-30" x="111.230469"/>
      </g>
     </g>
    </g>
    <g id="text_5">
     <!-- [GGPP] (µM) -->
     <g style="fill: #262626" transform="translate(132.574375 237.779063) scale(0.12 -0.12)">
      <defs>
       <path id="Calibri-5b" d="M 1684 -813 
Q 1684 -916 1661 -958 
Q 1638 -1000 1594 -1000 
L 794 -1000 
Q 756 -1000 722 -989 
Q 688 -978 659 -953 
Q 631 -928 614 -886 
Q 597 -844 597 -781 
L 597 4153 
Q 597 4213 614 4255 
Q 631 4297 659 4323 
Q 688 4350 722 4361 
Q 756 4372 794 4372 
L 1594 4372 
Q 1613 4372 1630 4362 
Q 1647 4353 1659 4328 
Q 1672 4303 1678 4267 
Q 1684 4231 1684 4178 
Q 1684 4078 1661 4034 
Q 1638 3991 1594 3991 
L 1084 3991 
L 1084 -622 
L 1594 -622 
Q 1613 -622 1630 -631 
Q 1647 -641 1659 -664 
Q 1672 -688 1678 -723 
Q 1684 -759 1684 -813 
z
" transform="scale(0.015625)"/>
       <path id="Calibri-47" d="M 3575 3494 
Q 3575 3434 3569 3389 
Q 3563 3344 3550 3314 
Q 3538 3284 3519 3271 
Q 3500 3259 3478 3259 
Q 3441 3259 3353 3318 
Q 3266 3378 3119 3450 
Q 2972 3522 2767 3581 
Q 2563 3641 2281 3641 
Q 1947 3641 1681 3519 
Q 1416 3397 1231 3181 
Q 1047 2966 948 2669 
Q 850 2372 850 2025 
Q 850 1638 958 1338 
Q 1066 1038 1256 831 
Q 1447 625 1711 519 
Q 1975 413 2291 413 
Q 2478 413 2670 458 
Q 2863 503 3028 594 
L 3028 1772 
L 2091 1772 
Q 2038 1772 2011 1825 
Q 1984 1878 1984 1991 
Q 1984 2050 1990 2092 
Q 1997 2134 2011 2161 
Q 2025 2188 2044 2200 
Q 2063 2213 2091 2213 
L 3375 2213 
Q 3409 2213 3443 2200 
Q 3478 2188 3506 2163 
Q 3534 2138 3550 2094 
Q 3566 2050 3566 1994 
L 3566 453 
Q 3566 372 3537 312 
Q 3509 253 3418 208 
Q 3328 163 3184 109 
Q 3041 56 2887 18 
Q 2734 -19 2578 -37 
Q 2422 -56 2269 -56 
Q 1800 -56 1431 89 
Q 1063 234 808 503 
Q 553 772 418 1147 
Q 284 1522 284 1984 
Q 284 2466 429 2856 
Q 575 3247 839 3522 
Q 1103 3797 1473 3948 
Q 1844 4100 2294 4100 
Q 2525 4100 2728 4059 
Q 2931 4019 3089 3964 
Q 3247 3909 3355 3845 
Q 3463 3781 3503 3740 
Q 3544 3700 3559 3647 
Q 3575 3594 3575 3494 
z
" transform="scale(0.015625)"/>
       <path id="Calibri-50" d="M 3022 2859 
Q 3022 2556 2922 2312 
Q 2822 2069 2636 1897 
Q 2450 1725 2179 1631 
Q 1909 1538 1534 1538 
L 1075 1538 
L 1075 81 
Q 1075 56 1061 37 
Q 1047 19 1017 8 
Q 988 -3 936 -11 
Q 884 -19 806 -19 
Q 728 -19 676 -11 
Q 625 -3 594 8 
Q 563 19 550 37 
Q 538 56 538 81 
L 538 3813 
Q 538 3938 603 3991 
Q 669 4044 750 4044 
L 1616 4044 
Q 1747 4044 1867 4033 
Q 1988 4022 2152 3986 
Q 2316 3950 2486 3851 
Q 2656 3753 2775 3609 
Q 2894 3466 2958 3277 
Q 3022 3088 3022 2859 
z
M 2456 2816 
Q 2456 3063 2364 3228 
Q 2272 3394 2136 3475 
Q 2000 3556 1854 3578 
Q 1709 3600 1572 3600 
L 1075 3600 
L 1075 1978 
L 1559 1978 
Q 1803 1978 1964 2040 
Q 2125 2103 2234 2214 
Q 2344 2325 2400 2479 
Q 2456 2634 2456 2816 
z
" transform="scale(0.015625)"/>
       <path id="Calibri-5d" d="M 1369 -781 
Q 1369 -844 1351 -886 
Q 1334 -928 1306 -953 
Q 1278 -978 1242 -989 
Q 1206 -1000 1169 -1000 
L 372 -1000 
Q 328 -1000 304 -958 
Q 281 -916 281 -813 
Q 281 -759 286 -723 
Q 291 -688 303 -664 
Q 316 -641 333 -631 
Q 350 -622 372 -622 
L 881 -622 
L 881 3991 
L 372 3991 
Q 328 3991 304 4034 
Q 281 4078 281 4178 
Q 281 4231 286 4267 
Q 291 4303 303 4328 
Q 316 4353 333 4362 
Q 350 4372 372 4372 
L 1169 4372 
Q 1206 4372 1242 4361 
Q 1278 4350 1306 4323 
Q 1334 4297 1351 4255 
Q 1369 4213 1369 4153 
L 1369 -781 
z
" transform="scale(0.015625)"/>
       <path id="Calibri-20" transform="scale(0.015625)"/>
       <path id="Calibri-28" d="M 1547 4306 
Q 1250 3678 1104 3017 
Q 959 2356 959 1688 
Q 959 1016 1107 356 
Q 1256 -303 1541 -938 
Q 1556 -975 1557 -1001 
Q 1559 -1028 1537 -1045 
Q 1516 -1063 1470 -1070 
Q 1425 -1078 1347 -1078 
Q 1291 -1078 1250 -1075 
Q 1209 -1072 1179 -1062 
Q 1150 -1053 1131 -1040 
Q 1113 -1028 1103 -1013 
Q 934 -694 806 -367 
Q 678 -41 590 296 
Q 503 634 459 979 
Q 416 1325 416 1678 
Q 416 2031 464 2375 
Q 513 2719 602 3058 
Q 691 3397 819 3725 
Q 947 4053 1106 4375 
Q 1109 4388 1123 4397 
Q 1138 4406 1163 4415 
Q 1188 4425 1231 4429 
Q 1275 4434 1344 4434 
Q 1416 4434 1459 4425 
Q 1503 4416 1528 4400 
Q 1553 4384 1556 4359 
Q 1559 4334 1547 4306 
z
" transform="scale(0.015625)"/>
       <path id="Calibri-b5" d="M 3450 238 
Q 3450 141 3439 91 
Q 3428 41 3406 22 
Q 3384 3 3351 -11 
Q 3319 -25 3269 -34 
Q 3219 -44 3167 -50 
Q 3116 -56 3053 -56 
Q 2791 -56 2634 58 
Q 2478 172 2428 444 
Q 2200 181 1975 67 
Q 1750 -47 1531 -47 
Q 1350 -47 1204 3 
Q 1059 53 963 175 
Q 969 106 973 26 
Q 978 -53 984 -136 
Q 991 -219 992 -300 
Q 994 -381 994 -450 
L 994 -1038 
Q 994 -1063 981 -1081 
Q 969 -1100 941 -1112 
Q 913 -1125 863 -1131 
Q 813 -1138 734 -1138 
Q 659 -1138 609 -1131 
Q 559 -1125 529 -1112 
Q 500 -1100 489 -1081 
Q 478 -1063 478 -1038 
L 478 2891 
Q 478 2916 489 2933 
Q 500 2950 529 2964 
Q 559 2978 609 2983 
Q 659 2988 734 2988 
Q 813 2988 863 2983 
Q 913 2978 941 2964 
Q 969 2950 981 2933 
Q 994 2916 994 2891 
L 994 1122 
Q 994 775 1147 581 
Q 1300 388 1591 388 
Q 1784 388 1976 523 
Q 2169 659 2384 925 
L 2384 2891 
Q 2384 2916 2396 2933 
Q 2409 2950 2437 2964 
Q 2466 2978 2516 2983 
Q 2566 2988 2644 2988 
Q 2719 2988 2769 2983 
Q 2819 2978 2847 2964 
Q 2875 2950 2887 2933 
Q 2900 2916 2900 2891 
L 2900 847 
Q 2900 719 2912 630 
Q 2925 541 2953 487 
Q 2981 434 3029 409 
Q 3078 384 3153 384 
Q 3203 384 3240 390 
Q 3278 397 3304 403 
Q 3331 409 3351 415 
Q 3372 422 3394 422 
Q 3406 422 3417 414 
Q 3428 406 3436 387 
Q 3444 369 3447 333 
Q 3450 297 3450 238 
z
" transform="scale(0.015625)"/>
       <path id="Calibri-4d" d="M 4934 81 
Q 4934 56 4921 37 
Q 4909 19 4878 8 
Q 4847 -3 4798 -11 
Q 4750 -19 4672 -19 
Q 4600 -19 4548 -11 
Q 4497 -3 4467 8 
Q 4438 19 4425 37 
Q 4413 56 4413 81 
L 4413 3603 
L 4406 3603 
L 2966 66 
Q 2956 44 2939 28 
Q 2922 13 2889 2 
Q 2856 -9 2811 -14 
Q 2766 -19 2703 -19 
Q 2638 -19 2591 -12 
Q 2544 -6 2512 5 
Q 2481 16 2464 31 
Q 2447 47 2441 66 
L 1063 3603 
L 1059 3603 
L 1059 81 
Q 1059 56 1046 37 
Q 1034 19 1003 8 
Q 972 -3 922 -11 
Q 872 -19 794 -19 
Q 719 -19 669 -11 
Q 619 -3 589 8 
Q 559 19 548 37 
Q 538 56 538 81 
L 538 3800 
Q 538 3931 606 3987 
Q 675 4044 759 4044 
L 1084 4044 
Q 1184 4044 1259 4025 
Q 1334 4006 1390 3965 
Q 1447 3925 1484 3862 
Q 1522 3800 1550 3716 
L 2722 788 
L 2738 788 
L 3956 3706 
Q 3991 3800 4031 3865 
Q 4072 3931 4120 3970 
Q 4169 4009 4228 4026 
Q 4288 4044 4366 4044 
L 4706 4044 
Q 4753 4044 4795 4030 
Q 4838 4016 4867 3986 
Q 4897 3956 4915 3911 
Q 4934 3866 4934 3800 
L 4934 81 
z
" transform="scale(0.015625)"/>
       <path id="Calibri-29" d="M 1522 1678 
Q 1522 1325 1478 979 
Q 1434 634 1346 296 
Q 1259 -41 1132 -367 
Q 1006 -694 838 -1013 
Q 828 -1028 809 -1040 
Q 791 -1053 761 -1062 
Q 731 -1072 690 -1075 
Q 650 -1078 594 -1078 
Q 513 -1078 467 -1070 
Q 422 -1063 401 -1045 
Q 381 -1028 382 -1001 
Q 384 -975 400 -938 
Q 688 -306 834 355 
Q 981 1016 981 1688 
Q 981 2356 834 3017 
Q 688 3678 394 4306 
Q 381 4334 384 4359 
Q 388 4384 413 4400 
Q 438 4416 481 4425 
Q 525 4434 597 4434 
Q 663 4434 706 4429 
Q 750 4425 776 4415 
Q 803 4406 815 4397 
Q 828 4388 834 4375 
Q 1156 3734 1339 3057 
Q 1522 2381 1522 1678 
z
" transform="scale(0.015625)"/>
      </defs>
      <use xlink:href="#Calibri-5b"/>
      <use xlink:href="#Calibri-47" x="30.664062"/>
      <use xlink:href="#Calibri-47" x="93.75"/>
      <use xlink:href="#Calibri-50" x="156.835938"/>
      <use xlink:href="#Calibri-50" x="208.496094"/>
      <use xlink:href="#Calibri-5d" x="260.15625"/>
      <use xlink:href="#Calibri-20" x="290.820312"/>
      <use xlink:href="#Calibri-28" x="313.427734"/>
      <use xlink:href="#Calibri-b5" x="343.75"/>
      <use xlink:href="#Calibri-4d" x="398.730469"/>
      <use xlink:href="#Calibri-29" x="484.228516"/>
     </g>
    </g>
   </g>
   <g id="matplotlib.axis_2">
    <g id="ytick_1">
     <g id="line2d_5">
      <defs>
       <path id="m3016324f5e" d="M 0 0 
L -3.5 0 
" style="stroke: #262626; stroke-width: 0.8"/>
      </defs>
      <g>
       <use xlink:href="#m3016324f5e" x="49.7" y="200.330331" style="fill: #262626; stroke: #262626; stroke-width: 0.8"/>
      </g>
     </g>
     <g id="text_6">
      <!-- 0 -->
      <g style="fill: #262626" transform="translate(37.139063 203.909237) scale(0.1 -0.1)">
       <use xlink:href="#ArialMT-30"/>
      </g>
     </g>
    </g>
    <g id="ytick_2">
     <g id="line2d_6">
      <g>
       <use xlink:href="#m3016324f5e" x="49.7" y="169.412243" style="fill: #262626; stroke: #262626; stroke-width: 0.8"/>
      </g>
     </g>
     <g id="text_7">
      <!-- 100 -->
      <g style="fill: #262626" transform="translate(26.017188 172.991149) scale(0.1 -0.1)">
       <use xlink:href="#ArialMT-31"/>
       <use xlink:href="#ArialMT-30" x="55.615234"/>
       <use xlink:href="#ArialMT-30" x="111.230469"/>
      </g>
     </g>
    </g>
    <g id="ytick_3">
     <g id="line2d_7">
      <g>
       <use xlink:href="#m3016324f5e" x="49.7" y="138.494155" style="fill: #262626; stroke: #262626; stroke-width: 0.8"/>
      </g>
     </g>
     <g id="text_8">
      <!-- 200 -->
      <g style="fill: #262626" transform="translate(26.017188 142.073061) scale(0.1 -0.1)">
       <use xlink:href="#ArialMT-32"/>
       <use xlink:href="#ArialMT-30" x="55.615234"/>
       <use xlink:href="#ArialMT-30" x="111.230469"/>
      </g>
     </g>
    </g>
    <g id="ytick_4">
     <g id="line2d_8">
      <g>
       <use xlink:href="#m3016324f5e" x="49.7" y="107.576067" style="fill: #262626; stroke: #262626; stroke-width: 0.8"/>
      </g>
     </g>
     <g id="text_9">
      <!-- 300 -->
      <g style="fill: #262626" transform="translate(26.017188 111.154973) scale(0.1 -0.1)">
       <use xlink:href="#ArialMT-33"/>
       <use xlink:href="#ArialMT-30" x="55.615234"/>
       <use xlink:href="#ArialMT-30" x="111.230469"/>
      </g>
     </g>
    </g>
    <g id="ytick_5">
     <g id="line2d_9">
      <g>
       <use xlink:href="#m3016324f5e" x="49.7" y="76.657979" style="fill: #262626; stroke: #262626; stroke-width: 0.8"/>
      </g>
     </g>
     <g id="text_10">
      <!-- 400 -->
      <g style="fill: #262626" transform="translate(26.017188 80.236885) scale(0.1 -0.1)">
       <defs>
        <path id="ArialMT-34" d="M 2069 0 
L 2069 1097 
L 81 1097 
L 81 1613 
L 2172 4581 
L 2631 4581 
L 2631 1613 
L 3250 1613 
L 3250 1097 
L 2631 1097 
L 2631 0 
L 2069 0 
z
M 2069 1613 
L 2069 3678 
L 634 1613 
L 2069 1613 
z
" transform="scale(0.015625)"/>
       </defs>
       <use xlink:href="#ArialMT-34"/>
       <use xlink:href="#ArialMT-30" x="55.615234"/>
       <use xlink:href="#ArialMT-30" x="111.230469"/>
      </g>
     </g>
    </g>
    <g id="ytick_6">
     <g id="line2d_10">
      <g>
       <use xlink:href="#m3016324f5e" x="49.7" y="45.739891" style="fill: #262626; stroke: #262626; stroke-width: 0.8"/>
      </g>
     </g>
     <g id="text_11">
      <!-- 500 -->
      <g style="fill: #262626" transform="translate(26.017188 49.318797) scale(0.1 -0.1)">
       <defs>
        <path id="ArialMT-35" d="M 266 1200 
L 856 1250 
Q 922 819 1161 601 
Q 1400 384 1738 384 
Q 2144 384 2425 690 
Q 2706 997 2706 1503 
Q 2706 1984 2436 2262 
Q 2166 2541 1728 2541 
Q 1456 2541 1237 2417 
Q 1019 2294 894 2097 
L 366 2166 
L 809 4519 
L 3088 4519 
L 3088 3981 
L 1259 3981 
L 1013 2750 
Q 1425 3038 1878 3038 
Q 2478 3038 2890 2622 
Q 3303 2206 3303 1553 
Q 3303 931 2941 478 
Q 2500 -78 1738 -78 
Q 1113 -78 717 272 
Q 322 622 266 1200 
z
" transform="scale(0.015625)"/>
       </defs>
       <use xlink:href="#ArialMT-35"/>
       <use xlink:href="#ArialMT-30" x="55.615234"/>
       <use xlink:href="#ArialMT-30" x="111.230469"/>
      </g>
     </g>
    </g>
    <g id="ytick_7">
     <g id="line2d_11">
      <g>
       <use xlink:href="#m3016324f5e" x="49.7" y="14.821803" style="fill: #262626; stroke: #262626; stroke-width: 0.8"/>
      </g>
     </g>
     <g id="text_12">
      <!-- 600 -->
      <g style="fill: #262626" transform="translate(26.017188 18.400709) scale(0.1 -0.1)">
       <defs>
        <path id="ArialMT-36" d="M 3184 3459 
L 2625 3416 
Q 2550 3747 2413 3897 
Q 2184 4138 1850 4138 
Q 1581 4138 1378 3988 
Q 1113 3794 959 3422 
Q 806 3050 800 2363 
Q 1003 2672 1297 2822 
Q 1591 2972 1913 2972 
Q 2475 2972 2870 2558 
Q 3266 2144 3266 1488 
Q 3266 1056 3080 686 
Q 2894 316 2569 119 
Q 2244 -78 1831 -78 
Q 1128 -78 684 439 
Q 241 956 241 2144 
Q 241 3472 731 4075 
Q 1159 4600 1884 4600 
Q 2425 4600 2770 4297 
Q 3116 3994 3184 3459 
z
M 888 1484 
Q 888 1194 1011 928 
Q 1134 663 1356 523 
Q 1578 384 1822 384 
Q 2178 384 2434 671 
Q 2691 959 2691 1453 
Q 2691 1928 2437 2201 
Q 2184 2475 1800 2475 
Q 1419 2475 1153 2201 
Q 888 1928 888 1484 
z
" transform="scale(0.015625)"/>
       </defs>
       <use xlink:href="#ArialMT-36"/>
       <use xlink:href="#ArialMT-30" x="55.615234"/>
       <use xlink:href="#ArialMT-30" x="111.230469"/>
      </g>
     </g>
    </g>
    <g id="text_13">
     <!-- Phytoene flux (µM/h) -->
     <g style="fill: #262626" transform="translate(19.883438 162.910198) rotate(-90) scale(0.12 -0.12)">
      <defs>
       <path id="Calibri-68" d="M 2900 78 
Q 2900 53 2887 36 
Q 2875 19 2847 6 
Q 2819 -6 2769 -12 
Q 2719 -19 2644 -19 
Q 2566 -19 2516 -12 
Q 2466 -6 2437 6 
Q 2409 19 2396 36 
Q 2384 53 2384 78 
L 2384 1725 
Q 2384 1966 2346 2112 
Q 2309 2259 2237 2365 
Q 2166 2472 2052 2528 
Q 1938 2584 1788 2584 
Q 1594 2584 1400 2446 
Q 1206 2309 994 2044 
L 994 78 
Q 994 53 981 36 
Q 969 19 941 6 
Q 913 -6 863 -12 
Q 813 -19 734 -19 
Q 659 -19 609 -12 
Q 559 -6 529 6 
Q 500 19 489 36 
Q 478 53 478 78 
L 478 4253 
Q 478 4278 489 4297 
Q 500 4316 529 4328 
Q 559 4341 609 4347 
Q 659 4353 734 4353 
Q 813 4353 863 4347 
Q 913 4341 941 4328 
Q 969 4316 981 4297 
Q 994 4278 994 4253 
L 994 2569 
Q 1216 2803 1441 2917 
Q 1666 3031 1894 3031 
Q 2175 3031 2367 2936 
Q 2559 2841 2678 2681 
Q 2797 2522 2848 2308 
Q 2900 2094 2900 1791 
L 2900 78 
z
" transform="scale(0.015625)"/>
       <path id="Calibri-79" d="M 1759 0 
L 1384 -1034 
Q 1366 -1084 1289 -1111 
Q 1213 -1138 1056 -1138 
Q 975 -1138 925 -1130 
Q 875 -1122 848 -1103 
Q 822 -1084 819 -1053 
Q 816 -1022 834 -978 
L 1222 0 
Q 1194 13 1169 41 
Q 1144 69 1134 100 
L 131 2788 
Q 106 2853 106 2890 
Q 106 2928 131 2950 
Q 156 2972 212 2980 
Q 269 2988 363 2988 
Q 456 2988 509 2983 
Q 563 2978 594 2965 
Q 625 2953 639 2929 
Q 653 2906 669 2866 
L 1472 609 
L 1481 609 
L 2256 2878 
Q 2275 2938 2301 2955 
Q 2328 2972 2381 2980 
Q 2434 2988 2534 2988 
Q 2622 2988 2678 2980 
Q 2734 2972 2761 2950 
Q 2788 2928 2788 2890 
Q 2788 2853 2769 2797 
L 1759 0 
z
" transform="scale(0.015625)"/>
       <path id="Calibri-74" d="M 1941 284 
Q 1941 194 1928 141 
Q 1916 88 1891 63 
Q 1866 38 1816 16 
Q 1766 -6 1702 -20 
Q 1638 -34 1566 -43 
Q 1494 -53 1422 -53 
Q 1203 -53 1047 5 
Q 891 63 791 180 
Q 691 297 645 476 
Q 600 656 600 900 
L 600 2544 
L 206 2544 
Q 159 2544 131 2594 
Q 103 2644 103 2756 
Q 103 2816 111 2856 
Q 119 2897 131 2923 
Q 144 2950 164 2961 
Q 184 2972 209 2972 
L 600 2972 
L 600 3641 
Q 600 3663 611 3681 
Q 622 3700 651 3714 
Q 681 3728 731 3734 
Q 781 3741 856 3741 
Q 934 3741 984 3734 
Q 1034 3728 1062 3714 
Q 1091 3700 1103 3681 
Q 1116 3663 1116 3641 
L 1116 2972 
L 1838 2972 
Q 1863 2972 1881 2961 
Q 1900 2950 1914 2923 
Q 1928 2897 1934 2856 
Q 1941 2816 1941 2756 
Q 1941 2644 1912 2594 
Q 1884 2544 1838 2544 
L 1116 2544 
L 1116 975 
Q 1116 684 1202 536 
Q 1288 388 1509 388 
Q 1581 388 1637 402 
Q 1694 416 1737 431 
Q 1781 447 1812 461 
Q 1844 475 1869 475 
Q 1884 475 1898 467 
Q 1913 459 1920 437 
Q 1928 416 1934 378 
Q 1941 341 1941 284 
z
" transform="scale(0.015625)"/>
       <path id="Calibri-6f" d="M 3094 1516 
Q 3094 1172 3003 883 
Q 2913 594 2733 384 
Q 2553 175 2283 58 
Q 2013 -59 1656 -59 
Q 1309 -59 1051 44 
Q 794 147 622 344 
Q 450 541 365 822 
Q 281 1103 281 1459 
Q 281 1803 370 2092 
Q 459 2381 639 2590 
Q 819 2800 1087 2915 
Q 1356 3031 1716 3031 
Q 2063 3031 2320 2928 
Q 2578 2825 2750 2628 
Q 2922 2431 3008 2150 
Q 3094 1869 3094 1516 
z
M 2550 1481 
Q 2550 1709 2508 1912 
Q 2466 2116 2369 2269 
Q 2272 2422 2106 2511 
Q 1941 2600 1694 2600 
Q 1466 2600 1302 2519 
Q 1138 2438 1031 2289 
Q 925 2141 873 1937 
Q 822 1734 822 1494 
Q 822 1263 864 1059 
Q 906 856 1004 704 
Q 1103 553 1268 464 
Q 1434 375 1681 375 
Q 1906 375 2072 456 
Q 2238 538 2344 684 
Q 2450 831 2500 1034 
Q 2550 1238 2550 1481 
z
" transform="scale(0.015625)"/>
       <path id="Calibri-65" d="M 2878 1606 
Q 2878 1484 2817 1432 
Q 2756 1381 2678 1381 
L 834 1381 
Q 834 1147 881 959 
Q 928 772 1037 637 
Q 1147 503 1322 431 
Q 1497 359 1750 359 
Q 1950 359 2106 392 
Q 2263 425 2377 465 
Q 2491 506 2564 539 
Q 2638 572 2675 572 
Q 2697 572 2714 561 
Q 2731 550 2740 528 
Q 2750 506 2754 467 
Q 2759 428 2759 372 
Q 2759 331 2756 301 
Q 2753 272 2748 248 
Q 2744 225 2733 206 
Q 2722 188 2705 170 
Q 2688 153 2603 114 
Q 2519 75 2384 37 
Q 2250 0 2073 -29 
Q 1897 -59 1697 -59 
Q 1350 -59 1089 37 
Q 828 134 650 325 
Q 472 516 381 803 
Q 291 1091 291 1472 
Q 291 1834 384 2123 
Q 478 2413 654 2614 
Q 831 2816 1081 2923 
Q 1331 3031 1641 3031 
Q 1972 3031 2205 2925 
Q 2438 2819 2588 2639 
Q 2738 2459 2808 2217 
Q 2878 1975 2878 1700 
L 2878 1606 
z
M 2359 1759 
Q 2369 2166 2180 2397 
Q 1991 2628 1619 2628 
Q 1428 2628 1284 2556 
Q 1141 2484 1044 2365 
Q 947 2247 894 2089 
Q 841 1931 834 1759 
L 2359 1759 
z
" transform="scale(0.015625)"/>
       <path id="Calibri-6e" d="M 2900 78 
Q 2900 53 2887 36 
Q 2875 19 2847 6 
Q 2819 -6 2769 -12 
Q 2719 -19 2644 -19 
Q 2566 -19 2516 -12 
Q 2466 -6 2437 6 
Q 2409 19 2396 36 
Q 2384 53 2384 78 
L 2384 1725 
Q 2384 1966 2346 2112 
Q 2309 2259 2237 2365 
Q 2166 2472 2052 2528 
Q 1938 2584 1788 2584 
Q 1594 2584 1400 2446 
Q 1206 2309 994 2044 
L 994 78 
Q 994 53 981 36 
Q 969 19 941 6 
Q 913 -6 863 -12 
Q 813 -19 734 -19 
Q 659 -19 609 -12 
Q 559 -6 529 6 
Q 500 19 489 36 
Q 478 53 478 78 
L 478 2891 
Q 478 2916 487 2933 
Q 497 2950 525 2964 
Q 553 2978 597 2983 
Q 641 2988 713 2988 
Q 781 2988 826 2983 
Q 872 2978 897 2964 
Q 922 2950 933 2933 
Q 944 2916 944 2891 
L 944 2519 
Q 1181 2784 1417 2907 
Q 1653 3031 1894 3031 
Q 2175 3031 2367 2936 
Q 2559 2841 2678 2681 
Q 2797 2522 2848 2308 
Q 2900 2094 2900 1794 
L 2900 78 
z
" transform="scale(0.015625)"/>
       <path id="Calibri-66" d="M 2019 4047 
Q 2019 3988 2012 3952 
Q 2006 3916 1998 3894 
Q 1991 3872 1978 3864 
Q 1966 3856 1947 3856 
Q 1925 3856 1892 3870 
Q 1859 3884 1812 3901 
Q 1766 3919 1702 3933 
Q 1638 3947 1553 3947 
Q 1438 3947 1356 3909 
Q 1275 3872 1225 3792 
Q 1175 3713 1153 3586 
Q 1131 3459 1131 3278 
L 1131 2972 
L 1759 2972 
Q 1784 2972 1801 2961 
Q 1819 2950 1833 2923 
Q 1847 2897 1855 2856 
Q 1863 2816 1863 2756 
Q 1863 2644 1834 2594 
Q 1806 2544 1759 2544 
L 1131 2544 
L 1131 78 
Q 1131 53 1118 36 
Q 1106 19 1076 6 
Q 1047 -6 997 -12 
Q 947 -19 872 -19 
Q 797 -19 747 -12 
Q 697 -6 667 6 
Q 638 19 625 36 
Q 613 53 613 78 
L 613 2544 
L 216 2544 
Q 166 2544 141 2594 
Q 116 2644 116 2756 
Q 116 2816 122 2856 
Q 128 2897 140 2923 
Q 153 2950 172 2961 
Q 191 2972 216 2972 
L 613 2972 
L 613 3263 
Q 613 3556 667 3767 
Q 722 3978 834 4112 
Q 947 4247 1117 4311 
Q 1288 4375 1519 4375 
Q 1628 4375 1731 4354 
Q 1834 4334 1890 4311 
Q 1947 4288 1965 4269 
Q 1984 4250 1996 4220 
Q 2009 4191 2014 4148 
Q 2019 4106 2019 4047 
z
" transform="scale(0.015625)"/>
       <path id="Calibri-6c" d="M 994 78 
Q 994 53 981 36 
Q 969 19 941 6 
Q 913 -6 863 -12 
Q 813 -19 734 -19 
Q 659 -19 609 -12 
Q 559 -6 529 6 
Q 500 19 489 36 
Q 478 53 478 78 
L 478 4253 
Q 478 4278 489 4297 
Q 500 4316 529 4328 
Q 559 4341 609 4347 
Q 659 4353 734 4353 
Q 813 4353 863 4347 
Q 913 4341 941 4328 
Q 969 4316 981 4297 
Q 994 4278 994 4253 
L 994 78 
z
" transform="scale(0.015625)"/>
       <path id="Calibri-75" d="M 2888 78 
Q 2888 53 2877 36 
Q 2866 19 2837 6 
Q 2809 -6 2764 -12 
Q 2719 -19 2653 -19 
Q 2581 -19 2536 -12 
Q 2491 -6 2464 6 
Q 2438 19 2428 36 
Q 2419 53 2419 78 
L 2419 450 
Q 2178 184 1943 62 
Q 1709 -59 1469 -59 
Q 1188 -59 995 34 
Q 803 128 684 289 
Q 566 450 514 664 
Q 463 878 463 1184 
L 463 2891 
Q 463 2916 473 2933 
Q 484 2950 515 2964 
Q 547 2978 597 2983 
Q 647 2988 722 2988 
Q 797 2988 847 2983 
Q 897 2978 926 2964 
Q 956 2950 968 2933 
Q 981 2916 981 2891 
L 981 1253 
Q 981 1006 1017 857 
Q 1053 709 1126 604 
Q 1200 500 1312 442 
Q 1425 384 1575 384 
Q 1769 384 1961 521 
Q 2153 659 2369 925 
L 2369 2891 
Q 2369 2916 2380 2933 
Q 2391 2950 2422 2964 
Q 2453 2978 2501 2983 
Q 2550 2988 2628 2988 
Q 2703 2988 2753 2983 
Q 2803 2978 2831 2964 
Q 2859 2950 2873 2933 
Q 2888 2916 2888 2891 
L 2888 78 
z
" transform="scale(0.015625)"/>
       <path id="Calibri-78" d="M 2609 138 
Q 2634 94 2634 64 
Q 2634 34 2604 15 
Q 2575 -3 2514 -11 
Q 2453 -19 2356 -19 
Q 2263 -19 2208 -14 
Q 2153 -9 2120 2 
Q 2088 13 2070 30 
Q 2053 47 2041 69 
L 1366 1184 
L 694 69 
Q 681 47 664 30 
Q 647 13 614 2 
Q 581 -9 528 -14 
Q 475 -19 388 -19 
Q 297 -19 239 -11 
Q 181 -3 154 15 
Q 128 34 129 64 
Q 131 94 159 138 
L 1034 1509 
L 206 2831 
Q 181 2875 179 2904 
Q 178 2934 208 2954 
Q 238 2975 298 2981 
Q 359 2988 459 2988 
Q 550 2988 604 2983 
Q 659 2978 690 2968 
Q 722 2959 737 2943 
Q 753 2928 766 2906 
L 1406 1859 
L 2056 2906 
Q 2069 2925 2084 2940 
Q 2100 2956 2126 2967 
Q 2153 2978 2201 2983 
Q 2250 2988 2334 2988 
Q 2425 2988 2483 2981 
Q 2541 2975 2569 2958 
Q 2597 2941 2594 2909 
Q 2591 2878 2563 2831 
L 1741 1525 
L 2609 138 
z
" transform="scale(0.015625)"/>
       <path id="Calibri-2f" d="M 525 -753 
Q 513 -794 492 -817 
Q 472 -841 440 -853 
Q 409 -866 364 -872 
Q 319 -878 253 -878 
Q 175 -878 123 -867 
Q 72 -856 44 -836 
Q 16 -816 9 -786 
Q 3 -756 22 -716 
L 1913 4469 
Q 1925 4509 1945 4532 
Q 1966 4556 1995 4570 
Q 2025 4584 2072 4589 
Q 2119 4594 2184 4594 
Q 2263 4594 2313 4583 
Q 2363 4572 2391 4553 
Q 2419 4534 2425 4503 
Q 2431 4472 2416 4431 
L 525 -753 
z
" transform="scale(0.015625)"/>
      </defs>
      <use xlink:href="#Calibri-50"/>
      <use xlink:href="#Calibri-68" x="51.660156"/>
      <use xlink:href="#Calibri-79" x="104.199219"/>
      <use xlink:href="#Calibri-74" x="149.462891"/>
      <use xlink:href="#Calibri-6f" x="182.958984"/>
      <use xlink:href="#Calibri-65" x="235.693359"/>
      <use xlink:href="#Calibri-6e" x="285.449219"/>
      <use xlink:href="#Calibri-65" x="337.988281"/>
      <use xlink:href="#Calibri-20" x="387.744141"/>
      <use xlink:href="#Calibri-66" x="410.351562"/>
      <use xlink:href="#Calibri-6c" x="440.869141"/>
      <use xlink:href="#Calibri-75" x="463.818359"/>
      <use xlink:href="#Calibri-78" x="516.357422"/>
      <use xlink:href="#Calibri-20" x="559.667969"/>
      <use xlink:href="#Calibri-28" x="582.275391"/>
      <use xlink:href="#Calibri-b5" x="612.597656"/>
      <use xlink:href="#Calibri-4d" x="667.578125"/>
      <use xlink:href="#Calibri-2f" x="753.076172"/>
      <use xlink:href="#Calibri-68" x="791.699219"/>
      <use xlink:href="#Calibri-29" x="844.238281"/>
     </g>
    </g>
   </g>
   <g id="PolyCollection_1">
    <defs>
     <path id="ma5749a05a0" d="M 60.040909 -51.669669 
L 60.040909 -51.669669 
L 61.080196 -53.861886 
L 62.119484 -56.022304 
L 63.158771 -58.151979 
L 64.198058 -60.251752 
L 65.237346 -62.322096 
L 66.276633 -64.363469 
L 67.315921 -66.37444 
L 68.355208 -68.357282 
L 69.394495 -70.305604 
L 70.433783 -72.225946 
L 71.47307 -74.12949 
L 72.512357 -76.007475 
L 73.551645 -77.849482 
L 74.590932 -79.66532 
L 75.630219 -81.456109 
L 76.669507 -83.224924 
L 77.708794 -84.964628 
L 78.748081 -86.706137 
L 79.787369 -88.419732 
L 80.826656 -90.09875 
L 81.865943 -91.75576 
L 82.905231 -93.394439 
L 83.944518 -95.017338 
L 84.983805 -96.619694 
L 86.023093 -98.20233 
L 87.06238 -99.766083 
L 88.101667 -101.309999 
L 89.140955 -102.835036 
L 90.180242 -104.332229 
L 91.219529 -105.805335 
L 92.258817 -107.269572 
L 93.298104 -108.703026 
L 94.337392 -110.095852 
L 95.376679 -111.497892 
L 96.415966 -112.898058 
L 97.455254 -114.266507 
L 98.494541 -115.589916 
L 99.533828 -116.927982 
L 100.573116 -118.214149 
L 101.612403 -119.512402 
L 102.65169 -120.795675 
L 103.690978 -122.071331 
L 104.730265 -123.315837 
L 105.769552 -124.524138 
L 106.80884 -125.724955 
L 107.848127 -126.944215 
L 108.887414 -128.146479 
L 109.926702 -129.341019 
L 110.965989 -130.519157 
L 112.005276 -131.684616 
L 113.044564 -132.760889 
L 114.083851 -133.931275 
L 115.123138 -135.09817 
L 116.162426 -136.189917 
L 117.201713 -137.255399 
L 118.241 -138.308327 
L 119.280288 -139.317678 
L 120.319575 -140.297787 
L 121.358862 -141.332451 
L 122.39815 -142.355841 
L 123.437437 -143.351501 
L 124.476725 -144.329573 
L 125.516012 -145.29137 
L 126.555299 -146.21498 
L 127.594587 -147.176574 
L 128.633874 -148.143423 
L 129.673161 -149.06895 
L 130.712449 -149.999016 
L 131.751736 -150.891137 
L 132.791023 -151.749145 
L 133.830311 -152.59523 
L 134.869598 -153.431084 
L 135.908885 -154.253925 
L 136.948173 -155.070739 
L 137.98746 -155.920788 
L 139.026747 -156.709874 
L 140.066035 -157.461935 
L 141.105322 -158.261702 
L 142.144609 -159.048251 
L 143.183897 -159.766826 
L 144.223184 -160.540538 
L 145.262471 -161.302573 
L 146.301759 -162.047673 
L 147.341046 -162.770913 
L 148.380333 -163.488374 
L 149.419621 -164.163733 
L 150.458908 -164.859805 
L 151.498196 -165.563702 
L 152.537483 -166.24747 
L 153.57677 -166.929898 
L 154.616058 -167.606945 
L 155.655345 -168.314493 
L 156.694632 -168.938126 
L 157.73392 -169.592148 
L 158.773207 -170.234977 
L 159.812494 -170.860759 
L 160.851782 -171.480075 
L 161.891069 -172.082737 
L 162.930356 -172.697952 
L 163.969644 -173.294241 
L 165.008931 -173.885608 
L 166.048218 -174.476204 
L 167.087506 -175.051957 
L 168.126793 -175.632632 
L 169.16608 -176.209311 
L 170.205368 -176.774004 
L 171.244655 -177.32082 
L 172.283942 -177.872178 
L 173.32323 -178.418387 
L 174.362517 -178.958215 
L 175.401804 -179.475399 
L 176.441092 -180.001865 
L 177.480379 -180.510449 
L 178.519667 -181.01731 
L 179.558954 -181.512838 
L 180.598241 -182.0063 
L 181.637529 -182.494997 
L 182.676816 -182.978995 
L 183.716103 -183.447478 
L 184.755391 -183.900832 
L 185.794678 -184.36395 
L 186.833965 -184.823683 
L 187.873253 -185.295371 
L 188.91254 -185.753334 
L 189.951827 -186.198185 
L 190.991115 -186.663366 
L 192.030402 -187.125159 
L 193.069689 -187.576115 
L 194.108977 -188.013265 
L 195.148264 -188.454683 
L 196.187551 -188.874906 
L 197.226839 -189.296777 
L 198.266126 -189.720895 
L 199.305413 -190.146923 
L 200.344701 -190.554363 
L 201.383988 -190.96188 
L 202.423275 -191.36809 
L 203.462563 -191.770738 
L 204.50185 -192.170411 
L 205.541138 -192.588378 
L 206.580425 -192.967427 
L 207.619712 -193.347334 
L 208.659 -193.732456 
L 209.698287 -194.114369 
L 210.737574 -194.492961 
L 211.776862 -194.85008 
L 212.816149 -195.204095 
L 213.855436 -195.555045 
L 214.894724 -195.902013 
L 215.934011 -196.252481 
L 216.973298 -196.60659 
L 218.012586 -196.957744 
L 219.051873 -197.30598 
L 220.09116 -197.651489 
L 221.130448 -197.994764 
L 222.169735 -198.327124 
L 223.209022 -198.672344 
L 224.24831 -199.006597 
L 225.287597 -199.33814 
L 226.326884 -199.667006 
L 227.366172 -199.993228 
L 228.405459 -200.316838 
L 229.444746 -200.637865 
L 230.484034 -200.956343 
L 231.523321 -201.272299 
L 232.562608 -201.585765 
L 233.601896 -201.896783 
L 234.641183 -202.205595 
L 235.680471 -202.512002 
L 236.719758 -202.816032 
L 237.759045 -203.117713 
L 238.798333 -203.417072 
L 239.83762 -203.714135 
L 240.876907 -204.008929 
L 241.916195 -204.30148 
L 242.955482 -204.591812 
L 243.994769 -204.879953 
L 245.034057 -205.165925 
L 246.073344 -205.449754 
L 247.112631 -205.731463 
L 248.151919 -206.011076 
L 249.191206 -206.288617 
L 250.230493 -206.564108 
L 251.269781 -206.837572 
L 252.309068 -207.109031 
L 253.348355 -207.378508 
L 254.387643 -207.646023 
L 255.42693 -207.911599 
L 256.466217 -208.175256 
L 257.505505 -208.437015 
L 258.544792 -208.696896 
L 259.584079 -208.95492 
L 260.623367 -209.211612 
L 261.662654 -209.466581 
L 262.701942 -209.719749 
L 263.741229 -209.971136 
L 264.780516 -210.239888 
L 265.819804 -210.510718 
L 266.859091 -210.779739 
L 266.859091 -231.463059 
L 266.859091 -231.463059 
L 265.819804 -231.093312 
L 264.780516 -230.720637 
L 263.741229 -230.345688 
L 262.701942 -229.968449 
L 261.662654 -229.588934 
L 260.623367 -229.207123 
L 259.584079 -228.827513 
L 258.544792 -228.463574 
L 257.505505 -228.09732 
L 256.466217 -227.728728 
L 255.42693 -227.357777 
L 254.387643 -226.984444 
L 253.348355 -226.608705 
L 252.309068 -226.223024 
L 251.269781 -225.829675 
L 250.230493 -225.433567 
L 249.191206 -225.034848 
L 248.151919 -224.631162 
L 247.112631 -224.22073 
L 246.073344 -223.811161 
L 245.034057 -223.411482 
L 243.994769 -223.003419 
L 242.955482 -222.589438 
L 241.916195 -222.172756 
L 240.876907 -221.753299 
L 239.83762 -221.330941 
L 238.798333 -220.905802 
L 237.759045 -220.477852 
L 236.719758 -220.047065 
L 235.680471 -219.613128 
L 234.641183 -219.17616 
L 233.601896 -218.736267 
L 232.562608 -218.279432 
L 231.523321 -217.819291 
L 230.484034 -217.374365 
L 229.444746 -216.944949 
L 228.405459 -216.494252 
L 227.366172 -216.037128 
L 226.326884 -215.576566 
L 225.287597 -215.112365 
L 224.24831 -214.644959 
L 223.209022 -214.174316 
L 222.169735 -213.700402 
L 221.130448 -213.235921 
L 220.09116 -212.747413 
L 219.051873 -212.255722 
L 218.012586 -211.760769 
L 216.973298 -211.262363 
L 215.934011 -210.760467 
L 214.894724 -210.255045 
L 213.855436 -209.746059 
L 212.816149 -209.233472 
L 211.776862 -208.717244 
L 210.737574 -208.197338 
L 209.698287 -207.673713 
L 208.659 -207.14633 
L 207.619712 -206.615148 
L 206.580425 -206.080126 
L 205.541138 -205.541222 
L 204.50185 -205.019025 
L 203.462563 -204.494332 
L 202.423275 -203.965382 
L 201.383988 -203.432383 
L 200.344701 -202.895288 
L 199.305413 -202.33159 
L 198.266126 -201.737265 
L 197.226839 -201.190429 
L 196.187551 -200.663149 
L 195.148264 -200.112806 
L 194.108977 -199.536334 
L 193.069689 -198.954675 
L 192.030402 -198.359848 
L 190.991115 -197.758309 
L 189.951827 -197.183869 
L 188.91254 -196.585068 
L 187.873253 -195.981559 
L 186.833965 -195.373286 
L 185.794678 -194.760192 
L 184.755391 -194.141265 
L 183.716103 -193.516695 
L 182.676816 -192.88713 
L 181.637529 -192.244785 
L 180.598241 -191.614584 
L 179.558954 -190.971237 
L 178.519667 -190.357164 
L 177.480379 -189.739802 
L 176.441092 -189.113771 
L 175.401804 -188.471796 
L 174.362517 -187.819714 
L 173.32323 -187.183483 
L 172.283942 -186.541664 
L 171.244655 -185.893611 
L 170.205368 -185.239705 
L 169.16608 -184.579865 
L 168.126793 -183.914011 
L 167.087506 -183.241653 
L 166.048218 -182.540752 
L 165.008931 -181.830897 
L 163.969644 -181.112209 
L 162.930356 -180.380583 
L 161.891069 -179.642503 
L 160.851782 -178.897882 
L 159.812494 -178.151823 
L 158.773207 -177.390164 
L 157.73392 -176.642762 
L 156.694632 -175.888408 
L 155.655345 -175.150662 
L 154.616058 -174.396175 
L 153.57677 -173.632481 
L 152.537483 -172.80062 
L 151.498196 -172.002788 
L 150.458908 -171.193599 
L 149.419621 -170.405625 
L 148.380333 -169.571563 
L 147.341046 -168.771356 
L 146.301759 -167.941715 
L 145.262471 -167.106073 
L 144.223184 -166.278254 
L 143.183897 -165.465463 
L 142.144609 -164.619657 
L 141.105322 -163.730525 
L 140.066035 -162.843465 
L 139.026747 -161.990185 
L 137.98746 -161.148307 
L 136.948173 -160.247201 
L 135.908885 -159.320745 
L 134.869598 -158.440628 
L 133.830311 -157.55607 
L 132.791023 -156.648366 
L 131.751736 -155.701064 
L 130.712449 -154.789096 
L 129.673161 -153.808739 
L 128.633874 -152.865093 
L 127.594587 -151.897769 
L 126.555299 -150.959736 
L 125.516012 -150.049123 
L 124.476725 -149.062485 
L 123.437437 -148.092196 
L 122.39815 -147.111014 
L 121.358862 -146.120459 
L 120.319575 -145.118009 
L 119.280288 -144.0906 
L 118.241 -143.058008 
L 117.201713 -142.010321 
L 116.162426 -140.952268 
L 115.123138 -139.882288 
L 114.083851 -138.776993 
L 113.044564 -137.68989 
L 112.005276 -136.540268 
L 110.965989 -135.434911 
L 109.926702 -134.325398 
L 108.887414 -133.187002 
L 107.848127 -132.027295 
L 106.80884 -130.850815 
L 105.769552 -129.68967 
L 104.730265 -128.474763 
L 103.690978 -127.269845 
L 102.65169 -125.992934 
L 101.612403 -124.745091 
L 100.573116 -123.488335 
L 99.533828 -122.211668 
L 98.494541 -120.894535 
L 97.455254 -119.550275 
L 96.415966 -118.189981 
L 95.376679 -116.811339 
L 94.337392 -115.408347 
L 93.298104 -113.978561 
L 92.258817 -112.523057 
L 91.219529 -111.043655 
L 90.180242 -109.561892 
L 89.140955 -108.033652 
L 88.101667 -106.445754 
L 87.06238 -104.862114 
L 86.023093 -103.265744 
L 84.983805 -101.64332 
L 83.944518 -99.993675 
L 82.905231 -98.290348 
L 81.865943 -96.557408 
L 80.826656 -94.79413 
L 79.787369 -93.007045 
L 78.748081 -91.188333 
L 77.708794 -89.353516 
L 76.669507 -87.487171 
L 75.630219 -85.583585 
L 74.590932 -83.640218 
L 73.551645 -81.658984 
L 72.512357 -79.628134 
L 71.47307 -77.552312 
L 70.433783 -75.434802 
L 69.394495 -73.280379 
L 68.355208 -71.081476 
L 67.315921 -68.835671 
L 66.276633 -66.537298 
L 65.237346 -64.188202 
L 64.198058 -61.789735 
L 63.158771 -59.340254 
L 62.119484 -56.839062 
L 61.080196 -54.284235 
L 60.040909 -51.669669 
z
" style="stroke: #ef553b; stroke-opacity: 0.3"/>
    </defs>
    <g clip-path="url(#p299eb001ad)">
     <use xlink:href="#ma5749a05a0" x="0" y="252" style="fill: #ef553b; fill-opacity: 0.3; stroke: #ef553b; stroke-opacity: 0.3"/>
    </g>
   </g>
   <g id="line2d_12">
    <defs>
     <path id="m55d59c7b00" d="M 0 2.5 
C 0.663008 2.5 1.29895 2.236584 1.767767 1.767767 
C 2.236584 1.29895 2.5 0.663008 2.5 0 
C 2.5 -0.663008 2.236584 -1.29895 1.767767 -1.767767 
C 1.29895 -2.236584 0.663008 -2.5 0 -2.5 
C -0.663008 -2.5 -1.29895 -2.236584 -1.767767 -1.767767 
C -2.236584 -1.29895 -2.5 -0.663008 -2.5 0 
C -2.5 0.663008 -2.236584 1.29895 -1.767767 1.767767 
C -1.29895 2.236584 -0.663008 2.5 0 2.5 
z
" style="stroke: #ff7f00"/>
    </defs>
    <g clip-path="url(#p299eb001ad)">
     <use xlink:href="#m55d59c7b00" x="64.954584" y="199.315608" style="fill: #ffa500; stroke: #ff7f00"/>
     <use xlink:href="#m55d59c7b00" x="63.589674" y="199.852814" style="fill: #ffa500; stroke: #ff7f00"/>
     <use xlink:href="#m55d59c7b00" x="63.453183" y="199.864184" style="fill: #ffa500; stroke: #ff7f00"/>
     <use xlink:href="#m55d59c7b00" x="80.514554" y="197.274795" style="fill: #ffa500; stroke: #ff7f00"/>
     <use xlink:href="#m55d59c7b00" x="80.514554" y="196.734746" style="fill: #ffa500; stroke: #ff7f00"/>
     <use xlink:href="#m55d59c7b00" x="79.149645" y="196.656581" style="fill: #ffa500; stroke: #ff7f00"/>
     <use xlink:href="#m55d59c7b00" x="131.016212" y="192.385937" style="fill: #ffa500; stroke: #ff7f00"/>
     <use xlink:href="#m55d59c7b00" x="111.907477" y="192.485419" style="fill: #ffa500; stroke: #ff7f00"/>
     <use xlink:href="#m55d59c7b00" x="114.637296" y="192.691491" style="fill: #ffa500; stroke: #ff7f00"/>
     <use xlink:href="#m55d59c7b00" x="156.949496" y="186.580419" style="fill: #ffa500; stroke: #ff7f00"/>
     <use xlink:href="#m55d59c7b00" x="113.272386" y="185.635334" style="fill: #ffa500; stroke: #ff7f00"/>
     <use xlink:href="#m55d59c7b00" x="117.367115" y="183.524883" style="fill: #ffa500; stroke: #ff7f00"/>
     <use xlink:href="#m55d59c7b00" x="178.788051" y="195.06486" style="fill: #ffa500; stroke: #ff7f00"/>
     <use xlink:href="#m55d59c7b00" x="129.651302" y="200.330331" style="fill: #ffa500; stroke: #ff7f00"/>
     <use xlink:href="#m55d59c7b00" x="196.531876" y="190.602357" style="fill: #ffa500; stroke: #ff7f00"/>
     <use xlink:href="#m55d59c7b00" x="264.77736" y="193.423398" style="fill: #ffa500; stroke: #ff7f00"/>
     <use xlink:href="#m55d59c7b00" x="210.180973" y="193.323915" style="fill: #ffa500; stroke: #ff7f00"/>
     <use xlink:href="#m55d59c7b00" x="237.479167" y="193.423398" style="fill: #ffa500; stroke: #ff7f00"/>
     <use xlink:href="#m55d59c7b00" x="61.405819" y="199.776781" style="fill: #ffa500; stroke: #ff7f00"/>
     <use xlink:href="#m55d59c7b00" x="60.040909" y="199.398037" style="fill: #ffa500; stroke: #ff7f00"/>
     <use xlink:href="#m55d59c7b00" x="61.405819" y="199.660244" style="fill: #ffa500; stroke: #ff7f00"/>
     <use xlink:href="#m55d59c7b00" x="189.707328" y="183.915707" style="fill: #ffa500; stroke: #ff7f00"/>
     <use xlink:href="#m55d59c7b00" x="129.651302" y="182.125021" style="fill: #ffa500; stroke: #ff7f00"/>
     <use xlink:href="#m55d59c7b00" x="184.247689" y="183.020364" style="fill: #ffa500; stroke: #ff7f00"/>
    </g>
   </g>
   <g id="line2d_13">
    <defs>
     <path id="mefaa9848b1" d="M 0 2.5 
C 0.663008 2.5 1.29895 2.236584 1.767767 1.767767 
C 2.236584 1.29895 2.5 0.663008 2.5 0 
C 2.5 -0.663008 2.236584 -1.29895 1.767767 -1.767767 
C 1.29895 -2.236584 0.663008 -2.5 0 -2.5 
C -0.663008 -2.5 -1.29895 -2.236584 -1.767767 -1.767767 
C -2.236584 -1.29895 -2.5 -0.663008 -2.5 0 
C -2.5 0.663008 -2.236584 1.29895 -1.767767 1.767767 
C -1.29895 2.236584 -0.663008 2.5 0 2.5 
z
" style="stroke: #7c0a02"/>
    </defs>
    <g clip-path="url(#p299eb001ad)">
     <use xlink:href="#mefaa9848b1" x="62.361256" y="199.166384" style="fill: #cd5c5c; stroke: #7c0a02"/>
     <use xlink:href="#mefaa9848b1" x="63.589674" y="198.987316" style="fill: #cd5c5c; stroke: #7c0a02"/>
     <use xlink:href="#mefaa9848b1" x="63.316692" y="198.961024" style="fill: #cd5c5c; stroke: #7c0a02"/>
     <use xlink:href="#mefaa9848b1" x="73.690006" y="174.358275" style="fill: #cd5c5c; stroke: #7c0a02"/>
     <use xlink:href="#mefaa9848b1" x="76.419825" y="183.276176" style="fill: #cd5c5c; stroke: #7c0a02"/>
     <use xlink:href="#mefaa9848b1" x="79.149645" y="175.580489" style="fill: #cd5c5c; stroke: #7c0a02"/>
     <use xlink:href="#mefaa9848b1" x="105.082928" y="122.165456" style="fill: #cd5c5c; stroke: #7c0a02"/>
     <use xlink:href="#mefaa9848b1" x="117.367115" y="123.941931" style="fill: #cd5c5c; stroke: #7c0a02"/>
     <use xlink:href="#mefaa9848b1" x="102.353109" y="128.418646" style="fill: #cd5c5c; stroke: #7c0a02"/>
     <use xlink:href="#mefaa9848b1" x="106.447838" y="110.79602" style="fill: #cd5c5c; stroke: #7c0a02"/>
     <use xlink:href="#mefaa9848b1" x="103.718019" y="105.608715" style="fill: #cd5c5c; stroke: #7c0a02"/>
     <use xlink:href="#mefaa9848b1" x="117.367115" y="111.648728" style="fill: #cd5c5c; stroke: #7c0a02"/>
     <use xlink:href="#mefaa9848b1" x="169.233683" y="81.519721" style="fill: #cd5c5c; stroke: #7c0a02"/>
     <use xlink:href="#mefaa9848b1" x="152.854767" y="69.226518" style="fill: #cd5c5c; stroke: #7c0a02"/>
     <use xlink:href="#mefaa9848b1" x="161.044225" y="66.739454" style="fill: #cd5c5c; stroke: #7c0a02"/>
     <use xlink:href="#mefaa9848b1" x="181.51787" y="71.002993" style="fill: #cd5c5c; stroke: #7c0a02"/>
     <use xlink:href="#mefaa9848b1" x="185.612599" y="66.242041" style="fill: #cd5c5c; stroke: #7c0a02"/>
     <use xlink:href="#mefaa9848b1" x="61.405819" y="199.776781" style="fill: #cd5c5c; stroke: #7c0a02"/>
     <use xlink:href="#mefaa9848b1" x="61.405819" y="199.660244" style="fill: #cd5c5c; stroke: #7c0a02"/>
     <use xlink:href="#mefaa9848b1" x="61.405819" y="199.310634" style="fill: #cd5c5c; stroke: #7c0a02"/>
     <use xlink:href="#mefaa9848b1" x="114.637296" y="122.733928" style="fill: #cd5c5c; stroke: #7c0a02"/>
     <use xlink:href="#mefaa9848b1" x="110.542567" y="128.702882" style="fill: #cd5c5c; stroke: #7c0a02"/>
     <use xlink:href="#mefaa9848b1" x="98.25838" y="131.687359" style="fill: #cd5c5c; stroke: #7c0a02"/>
     <use xlink:href="#mefaa9848b1" x="62.770728" y="197.504315" style="fill: #cd5c5c; stroke: #7c0a02"/>
     <use xlink:href="#mefaa9848b1" x="61.405819" y="197.970462" style="fill: #cd5c5c; stroke: #7c0a02"/>
     <use xlink:href="#mefaa9848b1" x="61.405819" y="198.116133" style="fill: #cd5c5c; stroke: #7c0a02"/>
     <use xlink:href="#mefaa9848b1" x="111.907477" y="122.733928" style="fill: #cd5c5c; stroke: #7c0a02"/>
     <use xlink:href="#mefaa9848b1" x="102.353109" y="116.764974" style="fill: #cd5c5c; stroke: #7c0a02"/>
     <use xlink:href="#mefaa9848b1" x="90.068922" y="149.594221" style="fill: #cd5c5c; stroke: #7c0a02"/>
     <use xlink:href="#mefaa9848b1" x="62.497747" y="193.466033" style="fill: #cd5c5c; stroke: #7c0a02"/>
     <use xlink:href="#mefaa9848b1" x="62.634237" y="194.212153" style="fill: #cd5c5c; stroke: #7c0a02"/>
     <use xlink:href="#mefaa9848b1" x="62.770728" y="192.371725" style="fill: #cd5c5c; stroke: #7c0a02"/>
     <use xlink:href="#mefaa9848b1" x="60.723364" y="199.857078" style="fill: #cd5c5c; stroke: #7c0a02"/>
     <use xlink:href="#mefaa9848b1" x="61.815292" y="194.958272" style="fill: #cd5c5c; stroke: #7c0a02"/>
     <use xlink:href="#mefaa9848b1" x="61.815292" y="195.739921" style="fill: #cd5c5c; stroke: #7c0a02"/>
     <use xlink:href="#mefaa9848b1" x="62.088274" y="194.3898" style="fill: #cd5c5c; stroke: #7c0a02"/>
     <use xlink:href="#mefaa9848b1" x="61.678801" y="195.89625" style="fill: #cd5c5c; stroke: #7c0a02"/>
     <use xlink:href="#mefaa9848b1" x="61.269328" y="197.701148" style="fill: #cd5c5c; stroke: #7c0a02"/>
     <use xlink:href="#mefaa9848b1" x="61.678801" y="195.860721" style="fill: #cd5c5c; stroke: #7c0a02"/>
     <use xlink:href="#mefaa9848b1" x="61.132837" y="195.071966" style="fill: #cd5c5c; stroke: #7c0a02"/>
     <use xlink:href="#mefaa9848b1" x="62.088274" y="195.214084" style="fill: #cd5c5c; stroke: #7c0a02"/>
     <use xlink:href="#mefaa9848b1" x="60.996346" y="199.89545" style="fill: #cd5c5c; stroke: #7c0a02"/>
     <use xlink:href="#mefaa9848b1" x="60.450382" y="199.741962" style="fill: #cd5c5c; stroke: #7c0a02"/>
    </g>
   </g>
   <g id="line2d_14">
    <path d="M 60.040909 200.330331 
L 64.198058 191.059726 
L 68.355208 182.422576 
L 72.512357 174.356102 
L 76.669507 166.805553 
L 80.826656 159.722966 
L 84.983805 153.066143 
L 89.140955 146.797814 
L 93.298104 140.884934 
L 97.455254 135.298102 
L 102.65169 128.733352 
L 107.848127 122.591916 
L 113.044564 116.834129 
L 118.241 111.42513 
L 123.437437 106.334159 
L 128.633874 101.533967 
L 133.830311 97.000335 
L 140.066035 91.881579 
L 146.301759 87.082614 
L 152.537483 82.574377 
L 158.773207 78.331227 
L 165.008931 74.330451 
L 172.283942 69.9424 
L 179.558954 65.828505 
L 186.833965 61.963851 
L 195.148264 57.824212 
L 203.462563 53.952642 
L 211.776862 50.323918 
L 221.130448 46.5044 
L 230.484034 42.936645 
L 239.83762 39.596554 
L 250.230493 36.12676 
L 260.623367 32.886692 
L 266.859091 31.043615 
L 266.859091 31.043615 
" clip-path="url(#p299eb001ad)" style="fill: none; stroke: #ef553b; stroke-width: 1.5; stroke-linecap: round"/>
   </g>
   <g id="patch_3">
    <path d="M 49.7 209.32 
L 49.7 11.547271 
" style="fill: none; stroke: #262626; stroke-width: 0.8; stroke-linejoin: miter; stroke-linecap: square"/>
   </g>
   <g id="patch_4">
    <path d="M 277.2 209.32 
L 277.2 11.547271 
" style="fill: none; stroke: #262626; stroke-width: 0.8; stroke-linejoin: miter; stroke-linecap: square"/>
   </g>
   <g id="patch_5">
    <path d="M 49.7 209.32 
L 277.2 209.32 
" style="fill: none; stroke: #262626; stroke-width: 0.8; stroke-linejoin: miter; stroke-linecap: square"/>
   </g>
   <g id="patch_6">
    <path d="M 49.7 11.547271 
L 277.2 11.547271 
" style="fill: none; stroke: #262626; stroke-width: 0.8; stroke-linejoin: miter; stroke-linecap: square"/>
   </g>
   <g id="legend_1">
    <g id="line2d_15">
     <g>
      <use xlink:href="#m55d59c7b00" x="66.8" y="23.04899" style="fill: #ffa500; stroke: #ff7f00"/>
     </g>
    </g>
    <g id="text_14">
     <!-- PGIp-CrtB -->
     <g style="fill: #262626" transform="translate(83 26.19899) scale(0.09 -0.09)">
      <defs>
       <path id="ArialMT-50" d="M 494 0 
L 494 4581 
L 2222 4581 
Q 2678 4581 2919 4538 
Q 3256 4481 3484 4323 
Q 3713 4166 3852 3881 
Q 3991 3597 3991 3256 
Q 3991 2672 3619 2267 
Q 3247 1863 2275 1863 
L 1100 1863 
L 1100 0 
L 494 0 
z
M 1100 2403 
L 2284 2403 
Q 2872 2403 3119 2622 
Q 3366 2841 3366 3238 
Q 3366 3525 3220 3729 
Q 3075 3934 2838 4000 
Q 2684 4041 2272 4041 
L 1100 4041 
L 1100 2403 
z
" transform="scale(0.015625)"/>
       <path id="ArialMT-47" d="M 2638 1797 
L 2638 2334 
L 4578 2338 
L 4578 638 
Q 4131 281 3656 101 
Q 3181 -78 2681 -78 
Q 2006 -78 1454 211 
Q 903 500 622 1047 
Q 341 1594 341 2269 
Q 341 2938 620 3517 
Q 900 4097 1425 4378 
Q 1950 4659 2634 4659 
Q 3131 4659 3532 4498 
Q 3934 4338 4162 4050 
Q 4391 3763 4509 3300 
L 3963 3150 
Q 3859 3500 3706 3700 
Q 3553 3900 3268 4020 
Q 2984 4141 2638 4141 
Q 2222 4141 1919 4014 
Q 1616 3888 1430 3681 
Q 1244 3475 1141 3228 
Q 966 2803 966 2306 
Q 966 1694 1177 1281 
Q 1388 869 1791 669 
Q 2194 469 2647 469 
Q 3041 469 3416 620 
Q 3791 772 3984 944 
L 3984 1797 
L 2638 1797 
z
" transform="scale(0.015625)"/>
       <path id="ArialMT-49" d="M 597 0 
L 597 4581 
L 1203 4581 
L 1203 0 
L 597 0 
z
" transform="scale(0.015625)"/>
       <path id="ArialMT-70" d="M 422 -1272 
L 422 3319 
L 934 3319 
L 934 2888 
Q 1116 3141 1344 3267 
Q 1572 3394 1897 3394 
Q 2322 3394 2647 3175 
Q 2972 2956 3137 2557 
Q 3303 2159 3303 1684 
Q 3303 1175 3120 767 
Q 2938 359 2589 142 
Q 2241 -75 1856 -75 
Q 1575 -75 1351 44 
Q 1128 163 984 344 
L 984 -1272 
L 422 -1272 
z
M 931 1641 
Q 931 1000 1190 694 
Q 1450 388 1819 388 
Q 2194 388 2461 705 
Q 2728 1022 2728 1688 
Q 2728 2322 2467 2637 
Q 2206 2953 1844 2953 
Q 1484 2953 1207 2617 
Q 931 2281 931 1641 
z
" transform="scale(0.015625)"/>
       <path id="ArialMT-2d" d="M 203 1375 
L 203 1941 
L 1931 1941 
L 1931 1375 
L 203 1375 
z
" transform="scale(0.015625)"/>
       <path id="ArialMT-43" d="M 3763 1606 
L 4369 1453 
Q 4178 706 3683 314 
Q 3188 -78 2472 -78 
Q 1731 -78 1267 223 
Q 803 525 561 1097 
Q 319 1669 319 2325 
Q 319 3041 592 3573 
Q 866 4106 1370 4382 
Q 1875 4659 2481 4659 
Q 3169 4659 3637 4309 
Q 4106 3959 4291 3325 
L 3694 3184 
Q 3534 3684 3231 3912 
Q 2928 4141 2469 4141 
Q 1941 4141 1586 3887 
Q 1231 3634 1087 3207 
Q 944 2781 944 2328 
Q 944 1744 1114 1308 
Q 1284 872 1643 656 
Q 2003 441 2422 441 
Q 2931 441 3284 734 
Q 3638 1028 3763 1606 
z
" transform="scale(0.015625)"/>
       <path id="ArialMT-72" d="M 416 0 
L 416 3319 
L 922 3319 
L 922 2816 
Q 1116 3169 1280 3281 
Q 1444 3394 1641 3394 
Q 1925 3394 2219 3213 
L 2025 2691 
Q 1819 2813 1613 2813 
Q 1428 2813 1281 2702 
Q 1134 2591 1072 2394 
Q 978 2094 978 1738 
L 978 0 
L 416 0 
z
" transform="scale(0.015625)"/>
       <path id="ArialMT-74" d="M 1650 503 
L 1731 6 
Q 1494 -44 1306 -44 
Q 1000 -44 831 53 
Q 663 150 594 308 
Q 525 466 525 972 
L 525 2881 
L 113 2881 
L 113 3319 
L 525 3319 
L 525 4141 
L 1084 4478 
L 1084 3319 
L 1650 3319 
L 1650 2881 
L 1084 2881 
L 1084 941 
Q 1084 700 1114 631 
Q 1144 563 1211 522 
Q 1278 481 1403 481 
Q 1497 481 1650 503 
z
" transform="scale(0.015625)"/>
       <path id="ArialMT-42" d="M 469 0 
L 469 4581 
L 2188 4581 
Q 2713 4581 3030 4442 
Q 3347 4303 3526 4014 
Q 3706 3725 3706 3409 
Q 3706 3116 3547 2856 
Q 3388 2597 3066 2438 
Q 3481 2316 3704 2022 
Q 3928 1728 3928 1328 
Q 3928 1006 3792 729 
Q 3656 453 3456 303 
Q 3256 153 2954 76 
Q 2653 0 2216 0 
L 469 0 
z
M 1075 2656 
L 2066 2656 
Q 2469 2656 2644 2709 
Q 2875 2778 2992 2937 
Q 3109 3097 3109 3338 
Q 3109 3566 3000 3739 
Q 2891 3913 2687 3977 
Q 2484 4041 1991 4041 
L 1075 4041 
L 1075 2656 
z
M 1075 541 
L 2216 541 
Q 2509 541 2628 563 
Q 2838 600 2978 687 
Q 3119 775 3209 942 
Q 3300 1109 3300 1328 
Q 3300 1584 3169 1773 
Q 3038 1963 2805 2039 
Q 2572 2116 2134 2116 
L 1075 2116 
L 1075 541 
z
" transform="scale(0.015625)"/>
      </defs>
      <use xlink:href="#ArialMT-50"/>
      <use xlink:href="#ArialMT-47" x="66.699219"/>
      <use xlink:href="#ArialMT-49" x="144.482422"/>
      <use xlink:href="#ArialMT-70" x="172.265625"/>
      <use xlink:href="#ArialMT-2d" x="227.880859"/>
      <use xlink:href="#ArialMT-43" x="261.181641"/>
      <use xlink:href="#ArialMT-72" x="333.398438"/>
      <use xlink:href="#ArialMT-74" x="366.699219"/>
      <use xlink:href="#ArialMT-42" x="394.482422"/>
     </g>
    </g>
    <g id="line2d_16">
     <g>
      <use xlink:href="#mefaa9848b1" x="66.8" y="35.889459" style="fill: #cd5c5c; stroke: #7c0a02"/>
     </g>
    </g>
    <g id="text_15">
     <!-- TEF1pmut2-CrtB -->
     <g style="fill: #262626" transform="translate(83 39.039459) scale(0.09 -0.09)">
      <defs>
       <path id="ArialMT-54" d="M 1659 0 
L 1659 4041 
L 150 4041 
L 150 4581 
L 3781 4581 
L 3781 4041 
L 2266 4041 
L 2266 0 
L 1659 0 
z
" transform="scale(0.015625)"/>
       <path id="ArialMT-45" d="M 506 0 
L 506 4581 
L 3819 4581 
L 3819 4041 
L 1113 4041 
L 1113 2638 
L 3647 2638 
L 3647 2100 
L 1113 2100 
L 1113 541 
L 3925 541 
L 3925 0 
L 506 0 
z
" transform="scale(0.015625)"/>
       <path id="ArialMT-46" d="M 525 0 
L 525 4581 
L 3616 4581 
L 3616 4041 
L 1131 4041 
L 1131 2622 
L 3281 2622 
L 3281 2081 
L 1131 2081 
L 1131 0 
L 525 0 
z
" transform="scale(0.015625)"/>
       <path id="ArialMT-6d" d="M 422 0 
L 422 3319 
L 925 3319 
L 925 2853 
Q 1081 3097 1340 3245 
Q 1600 3394 1931 3394 
Q 2300 3394 2536 3241 
Q 2772 3088 2869 2813 
Q 3263 3394 3894 3394 
Q 4388 3394 4653 3120 
Q 4919 2847 4919 2278 
L 4919 0 
L 4359 0 
L 4359 2091 
Q 4359 2428 4304 2576 
Q 4250 2725 4106 2815 
Q 3963 2906 3769 2906 
Q 3419 2906 3187 2673 
Q 2956 2441 2956 1928 
L 2956 0 
L 2394 0 
L 2394 2156 
Q 2394 2531 2256 2718 
Q 2119 2906 1806 2906 
Q 1569 2906 1367 2781 
Q 1166 2656 1075 2415 
Q 984 2175 984 1722 
L 984 0 
L 422 0 
z
" transform="scale(0.015625)"/>
       <path id="ArialMT-75" d="M 2597 0 
L 2597 488 
Q 2209 -75 1544 -75 
Q 1250 -75 995 37 
Q 741 150 617 320 
Q 494 491 444 738 
Q 409 903 409 1263 
L 409 3319 
L 972 3319 
L 972 1478 
Q 972 1038 1006 884 
Q 1059 663 1231 536 
Q 1403 409 1656 409 
Q 1909 409 2131 539 
Q 2353 669 2445 892 
Q 2538 1116 2538 1541 
L 2538 3319 
L 3100 3319 
L 3100 0 
L 2597 0 
z
" transform="scale(0.015625)"/>
      </defs>
      <use xlink:href="#ArialMT-54"/>
      <use xlink:href="#ArialMT-45" x="61.083984"/>
      <use xlink:href="#ArialMT-46" x="127.783203"/>
      <use xlink:href="#ArialMT-31" x="188.867188"/>
      <use xlink:href="#ArialMT-70" x="244.482422"/>
      <use xlink:href="#ArialMT-6d" x="300.097656"/>
      <use xlink:href="#ArialMT-75" x="383.398438"/>
      <use xlink:href="#ArialMT-74" x="439.013672"/>
      <use xlink:href="#ArialMT-32" x="466.796875"/>
      <use xlink:href="#ArialMT-2d" x="522.412109"/>
      <use xlink:href="#ArialMT-43" x="555.712891"/>
      <use xlink:href="#ArialMT-72" x="627.929688"/>
      <use xlink:href="#ArialMT-74" x="661.230469"/>
      <use xlink:href="#ArialMT-42" x="689.013672"/>
     </g>
    </g>
    <g id="line2d_17">
     <path d="M 57.8 48.729927 
L 66.8 48.729927 
L 75.8 48.729927 
" style="fill: none; stroke: #ef553b; stroke-width: 1.5; stroke-linecap: round"/>
    </g>
    <g id="text_16">
     <!-- best fit (95% CI) -->
     <g style="fill: #262626" transform="translate(83 51.879927) scale(0.09 -0.09)">
      <defs>
       <path id="ArialMT-62" d="M 941 0 
L 419 0 
L 419 4581 
L 981 4581 
L 981 2947 
Q 1338 3394 1891 3394 
Q 2197 3394 2470 3270 
Q 2744 3147 2920 2923 
Q 3097 2700 3197 2384 
Q 3297 2069 3297 1709 
Q 3297 856 2875 390 
Q 2453 -75 1863 -75 
Q 1275 -75 941 416 
L 941 0 
z
M 934 1684 
Q 934 1088 1097 822 
Q 1363 388 1816 388 
Q 2184 388 2453 708 
Q 2722 1028 2722 1663 
Q 2722 2313 2464 2622 
Q 2206 2931 1841 2931 
Q 1472 2931 1203 2611 
Q 934 2291 934 1684 
z
" transform="scale(0.015625)"/>
       <path id="ArialMT-65" d="M 2694 1069 
L 3275 997 
Q 3138 488 2766 206 
Q 2394 -75 1816 -75 
Q 1088 -75 661 373 
Q 234 822 234 1631 
Q 234 2469 665 2931 
Q 1097 3394 1784 3394 
Q 2450 3394 2872 2941 
Q 3294 2488 3294 1666 
Q 3294 1616 3291 1516 
L 816 1516 
Q 847 969 1125 678 
Q 1403 388 1819 388 
Q 2128 388 2347 550 
Q 2566 713 2694 1069 
z
M 847 1978 
L 2700 1978 
Q 2663 2397 2488 2606 
Q 2219 2931 1791 2931 
Q 1403 2931 1139 2672 
Q 875 2413 847 1978 
z
" transform="scale(0.015625)"/>
       <path id="ArialMT-73" d="M 197 991 
L 753 1078 
Q 800 744 1014 566 
Q 1228 388 1613 388 
Q 2000 388 2187 545 
Q 2375 703 2375 916 
Q 2375 1106 2209 1216 
Q 2094 1291 1634 1406 
Q 1016 1563 777 1677 
Q 538 1791 414 1992 
Q 291 2194 291 2438 
Q 291 2659 392 2848 
Q 494 3038 669 3163 
Q 800 3259 1026 3326 
Q 1253 3394 1513 3394 
Q 1903 3394 2198 3281 
Q 2494 3169 2634 2976 
Q 2775 2784 2828 2463 
L 2278 2388 
Q 2241 2644 2061 2787 
Q 1881 2931 1553 2931 
Q 1166 2931 1000 2803 
Q 834 2675 834 2503 
Q 834 2394 903 2306 
Q 972 2216 1119 2156 
Q 1203 2125 1616 2013 
Q 2213 1853 2448 1751 
Q 2684 1650 2818 1456 
Q 2953 1263 2953 975 
Q 2953 694 2789 445 
Q 2625 197 2315 61 
Q 2006 -75 1616 -75 
Q 969 -75 630 194 
Q 291 463 197 991 
z
" transform="scale(0.015625)"/>
       <path id="ArialMT-20" transform="scale(0.015625)"/>
       <path id="ArialMT-66" d="M 556 0 
L 556 2881 
L 59 2881 
L 59 3319 
L 556 3319 
L 556 3672 
Q 556 4006 616 4169 
Q 697 4388 901 4523 
Q 1106 4659 1475 4659 
Q 1713 4659 2000 4603 
L 1916 4113 
Q 1741 4144 1584 4144 
Q 1328 4144 1222 4034 
Q 1116 3925 1116 3625 
L 1116 3319 
L 1763 3319 
L 1763 2881 
L 1116 2881 
L 1116 0 
L 556 0 
z
" transform="scale(0.015625)"/>
       <path id="ArialMT-69" d="M 425 3934 
L 425 4581 
L 988 4581 
L 988 3934 
L 425 3934 
z
M 425 0 
L 425 3319 
L 988 3319 
L 988 0 
L 425 0 
z
" transform="scale(0.015625)"/>
       <path id="ArialMT-28" d="M 1497 -1347 
Q 1031 -759 709 28 
Q 388 816 388 1659 
Q 388 2403 628 3084 
Q 909 3875 1497 4659 
L 1900 4659 
Q 1522 4009 1400 3731 
Q 1209 3300 1100 2831 
Q 966 2247 966 1656 
Q 966 153 1900 -1347 
L 1497 -1347 
z
" transform="scale(0.015625)"/>
       <path id="ArialMT-39" d="M 350 1059 
L 891 1109 
Q 959 728 1153 556 
Q 1347 384 1650 384 
Q 1909 384 2104 503 
Q 2300 622 2425 820 
Q 2550 1019 2634 1356 
Q 2719 1694 2719 2044 
Q 2719 2081 2716 2156 
Q 2547 1888 2255 1720 
Q 1963 1553 1622 1553 
Q 1053 1553 659 1965 
Q 266 2378 266 3053 
Q 266 3750 677 4175 
Q 1088 4600 1706 4600 
Q 2153 4600 2523 4359 
Q 2894 4119 3086 3673 
Q 3278 3228 3278 2384 
Q 3278 1506 3087 986 
Q 2897 466 2520 194 
Q 2144 -78 1638 -78 
Q 1100 -78 759 220 
Q 419 519 350 1059 
z
M 2653 3081 
Q 2653 3566 2395 3850 
Q 2138 4134 1775 4134 
Q 1400 4134 1122 3828 
Q 844 3522 844 3034 
Q 844 2597 1108 2323 
Q 1372 2050 1759 2050 
Q 2150 2050 2401 2323 
Q 2653 2597 2653 3081 
z
" transform="scale(0.015625)"/>
       <path id="ArialMT-25" d="M 372 3481 
Q 372 3972 619 4315 
Q 866 4659 1334 4659 
Q 1766 4659 2048 4351 
Q 2331 4044 2331 3447 
Q 2331 2866 2045 2552 
Q 1759 2238 1341 2238 
Q 925 2238 648 2547 
Q 372 2856 372 3481 
z
M 1350 4272 
Q 1141 4272 1002 4090 
Q 863 3909 863 3425 
Q 863 2984 1003 2804 
Q 1144 2625 1350 2625 
Q 1563 2625 1702 2806 
Q 1841 2988 1841 3469 
Q 1841 3913 1700 4092 
Q 1559 4272 1350 4272 
z
M 1353 -169 
L 3859 4659 
L 4316 4659 
L 1819 -169 
L 1353 -169 
z
M 3334 1075 
Q 3334 1569 3581 1911 
Q 3828 2253 4300 2253 
Q 4731 2253 5014 1945 
Q 5297 1638 5297 1041 
Q 5297 459 5011 145 
Q 4725 -169 4303 -169 
Q 3888 -169 3611 142 
Q 3334 453 3334 1075 
z
M 4316 1866 
Q 4103 1866 3964 1684 
Q 3825 1503 3825 1019 
Q 3825 581 3965 400 
Q 4106 219 4313 219 
Q 4528 219 4667 400 
Q 4806 581 4806 1063 
Q 4806 1506 4665 1686 
Q 4525 1866 4316 1866 
z
" transform="scale(0.015625)"/>
       <path id="ArialMT-29" d="M 791 -1347 
L 388 -1347 
Q 1322 153 1322 1656 
Q 1322 2244 1188 2822 
Q 1081 3291 891 3722 
Q 769 4003 388 4659 
L 791 4659 
Q 1378 3875 1659 3084 
Q 1900 2403 1900 1659 
Q 1900 816 1576 28 
Q 1253 -759 791 -1347 
z
" transform="scale(0.015625)"/>
      </defs>
      <use xlink:href="#ArialMT-62"/>
      <use xlink:href="#ArialMT-65" x="55.615234"/>
      <use xlink:href="#ArialMT-73" x="111.230469"/>
      <use xlink:href="#ArialMT-74" x="161.230469"/>
      <use xlink:href="#ArialMT-20" x="189.013672"/>
      <use xlink:href="#ArialMT-66" x="216.796875"/>
      <use xlink:href="#ArialMT-69" x="244.580078"/>
      <use xlink:href="#ArialMT-74" x="266.796875"/>
      <use xlink:href="#ArialMT-20" x="294.580078"/>
      <use xlink:href="#ArialMT-28" x="322.363281"/>
      <use xlink:href="#ArialMT-39" x="355.664062"/>
      <use xlink:href="#ArialMT-35" x="411.279297"/>
      <use xlink:href="#ArialMT-25" x="466.894531"/>
      <use xlink:href="#ArialMT-20" x="555.810547"/>
      <use xlink:href="#ArialMT-43" x="583.59375"/>
      <use xlink:href="#ArialMT-49" x="655.810547"/>
      <use xlink:href="#ArialMT-29" x="683.59375"/>
     </g>
    </g>
   </g>
  </g>
 </g>
 <defs>
  <clipPath id="p299eb001ad">
   <rect x="49.7" y="11.547271" width="227.5" height="197.772729"/>
  </clipPath>
 </defs>
</svg>
