<?xml version="1.0" encoding="utf-8" standalone="no"?>
<!DOCTYPE svg PUBLIC "-//W3C//DTD SVG 1.1//EN"
  "http://www.w3.org/Graphics/SVG/1.1/DTD/svg11.dtd">
<svg xmlns:xlink="http://www.w3.org/1999/xlink" width="288pt" height="252pt" viewBox="0 0 288 252" xmlns="http://www.w3.org/2000/svg" version="1.1">
 <metadata>
  <rdf:RDF xmlns:dc="http://purl.org/dc/elements/1.1/" xmlns:cc="http://creativecommons.org/ns#" xmlns:rdf="http://www.w3.org/1999/02/22-rdf-syntax-ns#">
   <cc:Work>
    <dc:type rdf:resource="http://purl.org/dc/dcmitype/StillImage"/>
    <dc:date>2024-07-25T16:35:00.010346</dc:date>
    <dc:format>image/svg+xml</dc:format>
    <dc:creator>
     <cc:Agent>
      <dc:title>Matplotlib v3.9.1, https://matplotlib.org/</dc:title>
     </cc:Agent>
    </dc:creator>
   </cc:Work>
  </rdf:RDF>
 </metadata>
 <defs>
  <style type="text/css">*{stroke-linejoin: round; stroke-linecap: butt}</style>
 </defs>
 <g id="figure_1">
  <g id="patch_1">
   <path d="M 0 252 
L 288 252 
L 288 0 
L 0 0 
z
" style="fill: #ffffff"/>
  </g>
  <g id="axes_1">
   <g id="patch_2">
    <path d="M 49.7 209.32 
L 277.2 209.32 
L 277.2 10.8 
L 49.7 10.8 
z
" style="fill: #ffffff"/>
   </g>
   <g id="matplotlib.axis_1">
    <g id="xtick_1">
     <g id="line2d_1">
      <defs>
       <path id="m9d189ecb98" d="M 0 0 
L 0 3.5 
" style="stroke: #262626; stroke-width: 0.8"/>
      </defs>
      <g>
       <use xlink:href="#m9d189ecb98" x="60.040909" y="209.32" style="fill: #262626; stroke: #262626; stroke-width: 0.8"/>
      </g>
     </g>
     <g id="text_1">
      <!-- 0 -->
      <g style="fill: #262626" transform="translate(57.26044 223.477812) scale(0.1 -0.1)">
       <defs>
        <path id="ArialMT-30" d="M 266 2259 
Q 266 3072 433 3567 
Q 600 4063 929 4331 
Q 1259 4600 1759 4600 
Q 2128 4600 2406 4451 
Q 2684 4303 2865 4023 
Q 3047 3744 3150 3342 
Q 3253 2941 3253 2259 
Q 3253 1453 3087 958 
Q 2922 463 2592 192 
Q 2263 -78 1759 -78 
Q 1097 -78 719 397 
Q 266 969 266 2259 
z
M 844 2259 
Q 844 1131 1108 757 
Q 1372 384 1759 384 
Q 2147 384 2411 759 
Q 2675 1134 2675 2259 
Q 2675 3391 2411 3762 
Q 2147 4134 1753 4134 
Q 1366 4134 1134 3806 
Q 844 3388 844 2259 
z
" transform="scale(0.015625)"/>
       </defs>
       <use xlink:href="#ArialMT-30"/>
      </g>
     </g>
    </g>
    <g id="xtick_2">
     <g id="line2d_2">
      <g>
       <use xlink:href="#m9d189ecb98" x="112.005276" y="209.32" style="fill: #262626; stroke: #262626; stroke-width: 0.8"/>
      </g>
     </g>
     <g id="text_2">
      <!-- 10 -->
      <g style="fill: #262626" transform="translate(106.444339 223.477812) scale(0.1 -0.1)">
       <defs>
        <path id="ArialMT-31" d="M 2384 0 
L 1822 0 
L 1822 3584 
Q 1619 3391 1289 3197 
Q 959 3003 697 2906 
L 697 3450 
Q 1169 3672 1522 3987 
Q 1875 4303 2022 4600 
L 2384 4600 
L 2384 0 
z
" transform="scale(0.015625)"/>
       </defs>
       <use xlink:href="#ArialMT-31"/>
       <use xlink:href="#ArialMT-30" x="55.615234"/>
      </g>
     </g>
    </g>
    <g id="xtick_3">
     <g id="line2d_3">
      <g>
       <use xlink:href="#m9d189ecb98" x="163.969644" y="209.32" style="fill: #262626; stroke: #262626; stroke-width: 0.8"/>
      </g>
     </g>
     <g id="text_3">
      <!-- 20 -->
      <g style="fill: #262626" transform="translate(158.408706 223.477812) scale(0.1 -0.1)">
       <defs>
        <path id="ArialMT-32" d="M 3222 541 
L 3222 0 
L 194 0 
Q 188 203 259 391 
Q 375 700 629 1000 
Q 884 1300 1366 1694 
Q 2113 2306 2375 2664 
Q 2638 3022 2638 3341 
Q 2638 3675 2398 3904 
Q 2159 4134 1775 4134 
Q 1369 4134 1125 3890 
Q 881 3647 878 3216 
L 300 3275 
Q 359 3922 746 4261 
Q 1134 4600 1788 4600 
Q 2447 4600 2831 4234 
Q 3216 3869 3216 3328 
Q 3216 3053 3103 2787 
Q 2991 2522 2730 2228 
Q 2469 1934 1863 1422 
Q 1356 997 1212 845 
Q 1069 694 975 541 
L 3222 541 
z
" transform="scale(0.015625)"/>
       </defs>
       <use xlink:href="#ArialMT-32"/>
       <use xlink:href="#ArialMT-30" x="55.615234"/>
      </g>
     </g>
    </g>
    <g id="xtick_4">
     <g id="line2d_4">
      <g>
       <use xlink:href="#m9d189ecb98" x="215.934011" y="209.32" style="fill: #262626; stroke: #262626; stroke-width: 0.8"/>
      </g>
     </g>
     <g id="text_4">
      <!-- 30 -->
      <g style="fill: #262626" transform="translate(210.373073 223.477812) scale(0.1 -0.1)">
       <defs>
        <path id="ArialMT-33" d="M 269 1209 
L 831 1284 
Q 928 806 1161 595 
Q 1394 384 1728 384 
Q 2125 384 2398 659 
Q 2672 934 2672 1341 
Q 2672 1728 2419 1979 
Q 2166 2231 1775 2231 
Q 1616 2231 1378 2169 
L 1441 2663 
Q 1497 2656 1531 2656 
Q 1891 2656 2178 2843 
Q 2466 3031 2466 3422 
Q 2466 3731 2256 3934 
Q 2047 4138 1716 4138 
Q 1388 4138 1169 3931 
Q 950 3725 888 3313 
L 325 3413 
Q 428 3978 793 4289 
Q 1159 4600 1703 4600 
Q 2078 4600 2393 4439 
Q 2709 4278 2876 4000 
Q 3044 3722 3044 3409 
Q 3044 3113 2884 2869 
Q 2725 2625 2413 2481 
Q 2819 2388 3044 2092 
Q 3269 1797 3269 1353 
Q 3269 753 2831 336 
Q 2394 -81 1725 -81 
Q 1122 -81 723 278 
Q 325 638 269 1209 
z
" transform="scale(0.015625)"/>
       </defs>
       <use xlink:href="#ArialMT-33"/>
       <use xlink:href="#ArialMT-30" x="55.615234"/>
      </g>
     </g>
    </g>
    <g id="xtick_5">
     <g id="line2d_5">
      <g>
       <use xlink:href="#m9d189ecb98" x="267.898378" y="209.32" style="fill: #262626; stroke: #262626; stroke-width: 0.8"/>
      </g>
     </g>
     <g id="text_5">
      <!-- 40 -->
      <g style="fill: #262626" transform="translate(262.337441 223.477812) scale(0.1 -0.1)">
       <defs>
        <path id="ArialMT-34" d="M 2069 0 
L 2069 1097 
L 81 1097 
L 81 1613 
L 2172 4581 
L 2631 4581 
L 2631 1613 
L 3250 1613 
L 3250 1097 
L 2631 1097 
L 2631 0 
L 2069 0 
z
M 2069 1613 
L 2069 3678 
L 634 1613 
L 2069 1613 
z
" transform="scale(0.015625)"/>
       </defs>
       <use xlink:href="#ArialMT-34"/>
       <use xlink:href="#ArialMT-30" x="55.615234"/>
      </g>
     </g>
    </g>
    <g id="text_6">
     <!-- [GGPP] (µM) -->
     <g style="fill: #262626" transform="translate(132.574375 237.779063) scale(0.12 -0.12)">
      <defs>
       <path id="Calibri-5b" d="M 1684 -813 
Q 1684 -916 1661 -958 
Q 1638 -1000 1594 -1000 
L 794 -1000 
Q 756 -1000 722 -989 
Q 688 -978 659 -953 
Q 631 -928 614 -886 
Q 597 -844 597 -781 
L 597 4153 
Q 597 4213 614 4255 
Q 631 4297 659 4323 
Q 688 4350 722 4361 
Q 756 4372 794 4372 
L 1594 4372 
Q 1613 4372 1630 4362 
Q 1647 4353 1659 4328 
Q 1672 4303 1678 4267 
Q 1684 4231 1684 4178 
Q 1684 4078 1661 4034 
Q 1638 3991 1594 3991 
L 1084 3991 
L 1084 -622 
L 1594 -622 
Q 1613 -622 1630 -631 
Q 1647 -641 1659 -664 
Q 1672 -688 1678 -723 
Q 1684 -759 1684 -813 
z
" transform="scale(0.015625)"/>
       <path id="Calibri-47" d="M 3575 3494 
Q 3575 3434 3569 3389 
Q 3563 3344 3550 3314 
Q 3538 3284 3519 3271 
Q 3500 3259 3478 3259 
Q 3441 3259 3353 3318 
Q 3266 3378 3119 3450 
Q 2972 3522 2767 3581 
Q 2563 3641 2281 3641 
Q 1947 3641 1681 3519 
Q 1416 3397 1231 3181 
Q 1047 2966 948 2669 
Q 850 2372 850 2025 
Q 850 1638 958 1338 
Q 1066 1038 1256 831 
Q 1447 625 1711 519 
Q 1975 413 2291 413 
Q 2478 413 2670 458 
Q 2863 503 3028 594 
L 3028 1772 
L 2091 1772 
Q 2038 1772 2011 1825 
Q 1984 1878 1984 1991 
Q 1984 2050 1990 2092 
Q 1997 2134 2011 2161 
Q 2025 2188 2044 2200 
Q 2063 2213 2091 2213 
L 3375 2213 
Q 3409 2213 3443 2200 
Q 3478 2188 3506 2163 
Q 3534 2138 3550 2094 
Q 3566 2050 3566 1994 
L 3566 453 
Q 3566 372 3537 312 
Q 3509 253 3418 208 
Q 3328 163 3184 109 
Q 3041 56 2887 18 
Q 2734 -19 2578 -37 
Q 2422 -56 2269 -56 
Q 1800 -56 1431 89 
Q 1063 234 808 503 
Q 553 772 418 1147 
Q 284 1522 284 1984 
Q 284 2466 429 2856 
Q 575 3247 839 3522 
Q 1103 3797 1473 3948 
Q 1844 4100 2294 4100 
Q 2525 4100 2728 4059 
Q 2931 4019 3089 3964 
Q 3247 3909 3355 3845 
Q 3463 3781 3503 3740 
Q 3544 3700 3559 3647 
Q 3575 3594 3575 3494 
z
" transform="scale(0.015625)"/>
       <path id="Calibri-50" d="M 3022 2859 
Q 3022 2556 2922 2312 
Q 2822 2069 2636 1897 
Q 2450 1725 2179 1631 
Q 1909 1538 1534 1538 
L 1075 1538 
L 1075 81 
Q 1075 56 1061 37 
Q 1047 19 1017 8 
Q 988 -3 936 -11 
Q 884 -19 806 -19 
Q 728 -19 676 -11 
Q 625 -3 594 8 
Q 563 19 550 37 
Q 538 56 538 81 
L 538 3813 
Q 538 3938 603 3991 
Q 669 4044 750 4044 
L 1616 4044 
Q 1747 4044 1867 4033 
Q 1988 4022 2152 3986 
Q 2316 3950 2486 3851 
Q 2656 3753 2775 3609 
Q 2894 3466 2958 3277 
Q 3022 3088 3022 2859 
z
M 2456 2816 
Q 2456 3063 2364 3228 
Q 2272 3394 2136 3475 
Q 2000 3556 1854 3578 
Q 1709 3600 1572 3600 
L 1075 3600 
L 1075 1978 
L 1559 1978 
Q 1803 1978 1964 2040 
Q 2125 2103 2234 2214 
Q 2344 2325 2400 2479 
Q 2456 2634 2456 2816 
z
" transform="scale(0.015625)"/>
       <path id="Calibri-5d" d="M 1369 -781 
Q 1369 -844 1351 -886 
Q 1334 -928 1306 -953 
Q 1278 -978 1242 -989 
Q 1206 -1000 1169 -1000 
L 372 -1000 
Q 328 -1000 304 -958 
Q 281 -916 281 -813 
Q 281 -759 286 -723 
Q 291 -688 303 -664 
Q 316 -641 333 -631 
Q 350 -622 372 -622 
L 881 -622 
L 881 3991 
L 372 3991 
Q 328 3991 304 4034 
Q 281 4078 281 4178 
Q 281 4231 286 4267 
Q 291 4303 303 4328 
Q 316 4353 333 4362 
Q 350 4372 372 4372 
L 1169 4372 
Q 1206 4372 1242 4361 
Q 1278 4350 1306 4323 
Q 1334 4297 1351 4255 
Q 1369 4213 1369 4153 
L 1369 -781 
z
" transform="scale(0.015625)"/>
       <path id="Calibri-20" transform="scale(0.015625)"/>
       <path id="Calibri-28" d="M 1547 4306 
Q 1250 3678 1104 3017 
Q 959 2356 959 1688 
Q 959 1016 1107 356 
Q 1256 -303 1541 -938 
Q 1556 -975 1557 -1001 
Q 1559 -1028 1537 -1045 
Q 1516 -1063 1470 -1070 
Q 1425 -1078 1347 -1078 
Q 1291 -1078 1250 -1075 
Q 1209 -1072 1179 -1062 
Q 1150 -1053 1131 -1040 
Q 1113 -1028 1103 -1013 
Q 934 -694 806 -367 
Q 678 -41 590 296 
Q 503 634 459 979 
Q 416 1325 416 1678 
Q 416 2031 464 2375 
Q 513 2719 602 3058 
Q 691 3397 819 3725 
Q 947 4053 1106 4375 
Q 1109 4388 1123 4397 
Q 1138 4406 1163 4415 
Q 1188 4425 1231 4429 
Q 1275 4434 1344 4434 
Q 1416 4434 1459 4425 
Q 1503 4416 1528 4400 
Q 1553 4384 1556 4359 
Q 1559 4334 1547 4306 
z
" transform="scale(0.015625)"/>
       <path id="Calibri-b5" d="M 3450 238 
Q 3450 141 3439 91 
Q 3428 41 3406 22 
Q 3384 3 3351 -11 
Q 3319 -25 3269 -34 
Q 3219 -44 3167 -50 
Q 3116 -56 3053 -56 
Q 2791 -56 2634 58 
Q 2478 172 2428 444 
Q 2200 181 1975 67 
Q 1750 -47 1531 -47 
Q 1350 -47 1204 3 
Q 1059 53 963 175 
Q 969 106 973 26 
Q 978 -53 984 -136 
Q 991 -219 992 -300 
Q 994 -381 994 -450 
L 994 -1038 
Q 994 -1063 981 -1081 
Q 969 -1100 941 -1112 
Q 913 -1125 863 -1131 
Q 813 -1138 734 -1138 
Q 659 -1138 609 -1131 
Q 559 -1125 529 -1112 
Q 500 -1100 489 -1081 
Q 478 -1063 478 -1038 
L 478 2891 
Q 478 2916 489 2933 
Q 500 2950 529 2964 
Q 559 2978 609 2983 
Q 659 2988 734 2988 
Q 813 2988 863 2983 
Q 913 2978 941 2964 
Q 969 2950 981 2933 
Q 994 2916 994 2891 
L 994 1122 
Q 994 775 1147 581 
Q 1300 388 1591 388 
Q 1784 388 1976 523 
Q 2169 659 2384 925 
L 2384 2891 
Q 2384 2916 2396 2933 
Q 2409 2950 2437 2964 
Q 2466 2978 2516 2983 
Q 2566 2988 2644 2988 
Q 2719 2988 2769 2983 
Q 2819 2978 2847 2964 
Q 2875 2950 2887 2933 
Q 2900 2916 2900 2891 
L 2900 847 
Q 2900 719 2912 630 
Q 2925 541 2953 487 
Q 2981 434 3029 409 
Q 3078 384 3153 384 
Q 3203 384 3240 390 
Q 3278 397 3304 403 
Q 3331 409 3351 415 
Q 3372 422 3394 422 
Q 3406 422 3417 414 
Q 3428 406 3436 387 
Q 3444 369 3447 333 
Q 3450 297 3450 238 
z
" transform="scale(0.015625)"/>
       <path id="Calibri-4d" d="M 4934 81 
Q 4934 56 4921 37 
Q 4909 19 4878 8 
Q 4847 -3 4798 -11 
Q 4750 -19 4672 -19 
Q 4600 -19 4548 -11 
Q 4497 -3 4467 8 
Q 4438 19 4425 37 
Q 4413 56 4413 81 
L 4413 3603 
L 4406 3603 
L 2966 66 
Q 2956 44 2939 28 
Q 2922 13 2889 2 
Q 2856 -9 2811 -14 
Q 2766 -19 2703 -19 
Q 2638 -19 2591 -12 
Q 2544 -6 2512 5 
Q 2481 16 2464 31 
Q 2447 47 2441 66 
L 1063 3603 
L 1059 3603 
L 1059 81 
Q 1059 56 1046 37 
Q 1034 19 1003 8 
Q 972 -3 922 -11 
Q 872 -19 794 -19 
Q 719 -19 669 -11 
Q 619 -3 589 8 
Q 559 19 548 37 
Q 538 56 538 81 
L 538 3800 
Q 538 3931 606 3987 
Q 675 4044 759 4044 
L 1084 4044 
Q 1184 4044 1259 4025 
Q 1334 4006 1390 3965 
Q 1447 3925 1484 3862 
Q 1522 3800 1550 3716 
L 2722 788 
L 2738 788 
L 3956 3706 
Q 3991 3800 4031 3865 
Q 4072 3931 4120 3970 
Q 4169 4009 4228 4026 
Q 4288 4044 4366 4044 
L 4706 4044 
Q 4753 4044 4795 4030 
Q 4838 4016 4867 3986 
Q 4897 3956 4915 3911 
Q 4934 3866 4934 3800 
L 4934 81 
z
" transform="scale(0.015625)"/>
       <path id="Calibri-29" d="M 1522 1678 
Q 1522 1325 1478 979 
Q 1434 634 1346 296 
Q 1259 -41 1132 -367 
Q 1006 -694 838 -1013 
Q 828 -1028 809 -1040 
Q 791 -1053 761 -1062 
Q 731 -1072 690 -1075 
Q 650 -1078 594 -1078 
Q 513 -1078 467 -1070 
Q 422 -1063 401 -1045 
Q 381 -1028 382 -1001 
Q 384 -975 400 -938 
Q 688 -306 834 355 
Q 981 1016 981 1688 
Q 981 2356 834 3017 
Q 688 3678 394 4306 
Q 381 4334 384 4359 
Q 388 4384 413 4400 
Q 438 4416 481 4425 
Q 525 4434 597 4434 
Q 663 4434 706 4429 
Q 750 4425 776 4415 
Q 803 4406 815 4397 
Q 828 4388 834 4375 
Q 1156 3734 1339 3057 
Q 1522 2381 1522 1678 
z
" transform="scale(0.015625)"/>
      </defs>
      <use xlink:href="#Calibri-5b"/>
      <use xlink:href="#Calibri-47" x="30.664062"/>
      <use xlink:href="#Calibri-47" x="93.75"/>
      <use xlink:href="#Calibri-50" x="156.835938"/>
      <use xlink:href="#Calibri-50" x="208.496094"/>
      <use xlink:href="#Calibri-5d" x="260.15625"/>
      <use xlink:href="#Calibri-20" x="290.820312"/>
      <use xlink:href="#Calibri-28" x="313.427734"/>
      <use xlink:href="#Calibri-b5" x="343.75"/>
      <use xlink:href="#Calibri-4d" x="398.730469"/>
      <use xlink:href="#Calibri-29" x="484.228516"/>
     </g>
    </g>
   </g>
   <g id="matplotlib.axis_2">
    <g id="ytick_1">
     <g id="line2d_6">
      <defs>
       <path id="m8d725ee909" d="M 0 0 
L -3.5 0 
" style="stroke: #262626; stroke-width: 0.8"/>
      </defs>
      <g>
       <use xlink:href="#m8d725ee909" x="49.7" y="200.296364" style="fill: #262626; stroke: #262626; stroke-width: 0.8"/>
      </g>
     </g>
     <g id="text_7">
      <!-- 0 -->
      <g style="fill: #262626" transform="translate(37.139063 203.87527) scale(0.1 -0.1)">
       <use xlink:href="#ArialMT-30"/>
      </g>
     </g>
    </g>
    <g id="ytick_2">
     <g id="line2d_7">
      <g>
       <use xlink:href="#m8d725ee909" x="49.7" y="171.621679" style="fill: #262626; stroke: #262626; stroke-width: 0.8"/>
      </g>
     </g>
     <g id="text_8">
      <!-- 100 -->
      <g style="fill: #262626" transform="translate(26.017188 175.200586) scale(0.1 -0.1)">
       <use xlink:href="#ArialMT-31"/>
       <use xlink:href="#ArialMT-30" x="55.615234"/>
       <use xlink:href="#ArialMT-30" x="111.230469"/>
      </g>
     </g>
    </g>
    <g id="ytick_3">
     <g id="line2d_8">
      <g>
       <use xlink:href="#m8d725ee909" x="49.7" y="142.946995" style="fill: #262626; stroke: #262626; stroke-width: 0.8"/>
      </g>
     </g>
     <g id="text_9">
      <!-- 200 -->
      <g style="fill: #262626" transform="translate(26.017188 146.525902) scale(0.1 -0.1)">
       <use xlink:href="#ArialMT-32"/>
       <use xlink:href="#ArialMT-30" x="55.615234"/>
       <use xlink:href="#ArialMT-30" x="111.230469"/>
      </g>
     </g>
    </g>
    <g id="ytick_4">
     <g id="line2d_9">
      <g>
       <use xlink:href="#m8d725ee909" x="49.7" y="114.272311" style="fill: #262626; stroke: #262626; stroke-width: 0.8"/>
      </g>
     </g>
     <g id="text_10">
      <!-- 300 -->
      <g style="fill: #262626" transform="translate(26.017188 117.851217) scale(0.1 -0.1)">
       <use xlink:href="#ArialMT-33"/>
       <use xlink:href="#ArialMT-30" x="55.615234"/>
       <use xlink:href="#ArialMT-30" x="111.230469"/>
      </g>
     </g>
    </g>
    <g id="ytick_5">
     <g id="line2d_10">
      <g>
       <use xlink:href="#m8d725ee909" x="49.7" y="85.597627" style="fill: #262626; stroke: #262626; stroke-width: 0.8"/>
      </g>
     </g>
     <g id="text_11">
      <!-- 400 -->
      <g style="fill: #262626" transform="translate(26.017188 89.176533) scale(0.1 -0.1)">
       <use xlink:href="#ArialMT-34"/>
       <use xlink:href="#ArialMT-30" x="55.615234"/>
       <use xlink:href="#ArialMT-30" x="111.230469"/>
      </g>
     </g>
    </g>
    <g id="ytick_6">
     <g id="line2d_11">
      <g>
       <use xlink:href="#m8d725ee909" x="49.7" y="56.922943" style="fill: #262626; stroke: #262626; stroke-width: 0.8"/>
      </g>
     </g>
     <g id="text_12">
      <!-- 500 -->
      <g style="fill: #262626" transform="translate(26.017188 60.501849) scale(0.1 -0.1)">
       <defs>
        <path id="ArialMT-35" d="M 266 1200 
L 856 1250 
Q 922 819 1161 601 
Q 1400 384 1738 384 
Q 2144 384 2425 690 
Q 2706 997 2706 1503 
Q 2706 1984 2436 2262 
Q 2166 2541 1728 2541 
Q 1456 2541 1237 2417 
Q 1019 2294 894 2097 
L 366 2166 
L 809 4519 
L 3088 4519 
L 3088 3981 
L 1259 3981 
L 1013 2750 
Q 1425 3038 1878 3038 
Q 2478 3038 2890 2622 
Q 3303 2206 3303 1553 
Q 3303 931 2941 478 
Q 2500 -78 1738 -78 
Q 1113 -78 717 272 
Q 322 622 266 1200 
z
" transform="scale(0.015625)"/>
       </defs>
       <use xlink:href="#ArialMT-35"/>
       <use xlink:href="#ArialMT-30" x="55.615234"/>
       <use xlink:href="#ArialMT-30" x="111.230469"/>
      </g>
     </g>
    </g>
    <g id="ytick_7">
     <g id="line2d_12">
      <g>
       <use xlink:href="#m8d725ee909" x="49.7" y="28.248259" style="fill: #262626; stroke: #262626; stroke-width: 0.8"/>
      </g>
     </g>
     <g id="text_13">
      <!-- 600 -->
      <g style="fill: #262626" transform="translate(26.017188 31.827165) scale(0.1 -0.1)">
       <defs>
        <path id="ArialMT-36" d="M 3184 3459 
L 2625 3416 
Q 2550 3747 2413 3897 
Q 2184 4138 1850 4138 
Q 1581 4138 1378 3988 
Q 1113 3794 959 3422 
Q 806 3050 800 2363 
Q 1003 2672 1297 2822 
Q 1591 2972 1913 2972 
Q 2475 2972 2870 2558 
Q 3266 2144 3266 1488 
Q 3266 1056 3080 686 
Q 2894 316 2569 119 
Q 2244 -78 1831 -78 
Q 1128 -78 684 439 
Q 241 956 241 2144 
Q 241 3472 731 4075 
Q 1159 4600 1884 4600 
Q 2425 4600 2770 4297 
Q 3116 3994 3184 3459 
z
M 888 1484 
Q 888 1194 1011 928 
Q 1134 663 1356 523 
Q 1578 384 1822 384 
Q 2178 384 2434 671 
Q 2691 959 2691 1453 
Q 2691 1928 2437 2201 
Q 2184 2475 1800 2475 
Q 1419 2475 1153 2201 
Q 888 1928 888 1484 
z
" transform="scale(0.015625)"/>
       </defs>
       <use xlink:href="#ArialMT-36"/>
       <use xlink:href="#ArialMT-30" x="55.615234"/>
       <use xlink:href="#ArialMT-30" x="111.230469"/>
      </g>
     </g>
    </g>
    <g id="text_14">
     <!-- Phytoene flux (µM/h) -->
     <g style="fill: #262626" transform="translate(19.883438 162.536563) rotate(-90) scale(0.12 -0.12)">
      <defs>
       <path id="Calibri-68" d="M 2900 78 
Q 2900 53 2887 36 
Q 2875 19 2847 6 
Q 2819 -6 2769 -12 
Q 2719 -19 2644 -19 
Q 2566 -19 2516 -12 
Q 2466 -6 2437 6 
Q 2409 19 2396 36 
Q 2384 53 2384 78 
L 2384 1725 
Q 2384 1966 2346 2112 
Q 2309 2259 2237 2365 
Q 2166 2472 2052 2528 
Q 1938 2584 1788 2584 
Q 1594 2584 1400 2446 
Q 1206 2309 994 2044 
L 994 78 
Q 994 53 981 36 
Q 969 19 941 6 
Q 913 -6 863 -12 
Q 813 -19 734 -19 
Q 659 -19 609 -12 
Q 559 -6 529 6 
Q 500 19 489 36 
Q 478 53 478 78 
L 478 4253 
Q 478 4278 489 4297 
Q 500 4316 529 4328 
Q 559 4341 609 4347 
Q 659 4353 734 4353 
Q 813 4353 863 4347 
Q 913 4341 941 4328 
Q 969 4316 981 4297 
Q 994 4278 994 4253 
L 994 2569 
Q 1216 2803 1441 2917 
Q 1666 3031 1894 3031 
Q 2175 3031 2367 2936 
Q 2559 2841 2678 2681 
Q 2797 2522 2848 2308 
Q 2900 2094 2900 1791 
L 2900 78 
z
" transform="scale(0.015625)"/>
       <path id="Calibri-79" d="M 1759 0 
L 1384 -1034 
Q 1366 -1084 1289 -1111 
Q 1213 -1138 1056 -1138 
Q 975 -1138 925 -1130 
Q 875 -1122 848 -1103 
Q 822 -1084 819 -1053 
Q 816 -1022 834 -978 
L 1222 0 
Q 1194 13 1169 41 
Q 1144 69 1134 100 
L 131 2788 
Q 106 2853 106 2890 
Q 106 2928 131 2950 
Q 156 2972 212 2980 
Q 269 2988 363 2988 
Q 456 2988 509 2983 
Q 563 2978 594 2965 
Q 625 2953 639 2929 
Q 653 2906 669 2866 
L 1472 609 
L 1481 609 
L 2256 2878 
Q 2275 2938 2301 2955 
Q 2328 2972 2381 2980 
Q 2434 2988 2534 2988 
Q 2622 2988 2678 2980 
Q 2734 2972 2761 2950 
Q 2788 2928 2788 2890 
Q 2788 2853 2769 2797 
L 1759 0 
z
" transform="scale(0.015625)"/>
       <path id="Calibri-74" d="M 1941 284 
Q 1941 194 1928 141 
Q 1916 88 1891 63 
Q 1866 38 1816 16 
Q 1766 -6 1702 -20 
Q 1638 -34 1566 -43 
Q 1494 -53 1422 -53 
Q 1203 -53 1047 5 
Q 891 63 791 180 
Q 691 297 645 476 
Q 600 656 600 900 
L 600 2544 
L 206 2544 
Q 159 2544 131 2594 
Q 103 2644 103 2756 
Q 103 2816 111 2856 
Q 119 2897 131 2923 
Q 144 2950 164 2961 
Q 184 2972 209 2972 
L 600 2972 
L 600 3641 
Q 600 3663 611 3681 
Q 622 3700 651 3714 
Q 681 3728 731 3734 
Q 781 3741 856 3741 
Q 934 3741 984 3734 
Q 1034 3728 1062 3714 
Q 1091 3700 1103 3681 
Q 1116 3663 1116 3641 
L 1116 2972 
L 1838 2972 
Q 1863 2972 1881 2961 
Q 1900 2950 1914 2923 
Q 1928 2897 1934 2856 
Q 1941 2816 1941 2756 
Q 1941 2644 1912 2594 
Q 1884 2544 1838 2544 
L 1116 2544 
L 1116 975 
Q 1116 684 1202 536 
Q 1288 388 1509 388 
Q 1581 388 1637 402 
Q 1694 416 1737 431 
Q 1781 447 1812 461 
Q 1844 475 1869 475 
Q 1884 475 1898 467 
Q 1913 459 1920 437 
Q 1928 416 1934 378 
Q 1941 341 1941 284 
z
" transform="scale(0.015625)"/>
       <path id="Calibri-6f" d="M 3094 1516 
Q 3094 1172 3003 883 
Q 2913 594 2733 384 
Q 2553 175 2283 58 
Q 2013 -59 1656 -59 
Q 1309 -59 1051 44 
Q 794 147 622 344 
Q 450 541 365 822 
Q 281 1103 281 1459 
Q 281 1803 370 2092 
Q 459 2381 639 2590 
Q 819 2800 1087 2915 
Q 1356 3031 1716 3031 
Q 2063 3031 2320 2928 
Q 2578 2825 2750 2628 
Q 2922 2431 3008 2150 
Q 3094 1869 3094 1516 
z
M 2550 1481 
Q 2550 1709 2508 1912 
Q 2466 2116 2369 2269 
Q 2272 2422 2106 2511 
Q 1941 2600 1694 2600 
Q 1466 2600 1302 2519 
Q 1138 2438 1031 2289 
Q 925 2141 873 1937 
Q 822 1734 822 1494 
Q 822 1263 864 1059 
Q 906 856 1004 704 
Q 1103 553 1268 464 
Q 1434 375 1681 375 
Q 1906 375 2072 456 
Q 2238 538 2344 684 
Q 2450 831 2500 1034 
Q 2550 1238 2550 1481 
z
" transform="scale(0.015625)"/>
       <path id="Calibri-65" d="M 2878 1606 
Q 2878 1484 2817 1432 
Q 2756 1381 2678 1381 
L 834 1381 
Q 834 1147 881 959 
Q 928 772 1037 637 
Q 1147 503 1322 431 
Q 1497 359 1750 359 
Q 1950 359 2106 392 
Q 2263 425 2377 465 
Q 2491 506 2564 539 
Q 2638 572 2675 572 
Q 2697 572 2714 561 
Q 2731 550 2740 528 
Q 2750 506 2754 467 
Q 2759 428 2759 372 
Q 2759 331 2756 301 
Q 2753 272 2748 248 
Q 2744 225 2733 206 
Q 2722 188 2705 170 
Q 2688 153 2603 114 
Q 2519 75 2384 37 
Q 2250 0 2073 -29 
Q 1897 -59 1697 -59 
Q 1350 -59 1089 37 
Q 828 134 650 325 
Q 472 516 381 803 
Q 291 1091 291 1472 
Q 291 1834 384 2123 
Q 478 2413 654 2614 
Q 831 2816 1081 2923 
Q 1331 3031 1641 3031 
Q 1972 3031 2205 2925 
Q 2438 2819 2588 2639 
Q 2738 2459 2808 2217 
Q 2878 1975 2878 1700 
L 2878 1606 
z
M 2359 1759 
Q 2369 2166 2180 2397 
Q 1991 2628 1619 2628 
Q 1428 2628 1284 2556 
Q 1141 2484 1044 2365 
Q 947 2247 894 2089 
Q 841 1931 834 1759 
L 2359 1759 
z
" transform="scale(0.015625)"/>
       <path id="Calibri-6e" d="M 2900 78 
Q 2900 53 2887 36 
Q 2875 19 2847 6 
Q 2819 -6 2769 -12 
Q 2719 -19 2644 -19 
Q 2566 -19 2516 -12 
Q 2466 -6 2437 6 
Q 2409 19 2396 36 
Q 2384 53 2384 78 
L 2384 1725 
Q 2384 1966 2346 2112 
Q 2309 2259 2237 2365 
Q 2166 2472 2052 2528 
Q 1938 2584 1788 2584 
Q 1594 2584 1400 2446 
Q 1206 2309 994 2044 
L 994 78 
Q 994 53 981 36 
Q 969 19 941 6 
Q 913 -6 863 -12 
Q 813 -19 734 -19 
Q 659 -19 609 -12 
Q 559 -6 529 6 
Q 500 19 489 36 
Q 478 53 478 78 
L 478 2891 
Q 478 2916 487 2933 
Q 497 2950 525 2964 
Q 553 2978 597 2983 
Q 641 2988 713 2988 
Q 781 2988 826 2983 
Q 872 2978 897 2964 
Q 922 2950 933 2933 
Q 944 2916 944 2891 
L 944 2519 
Q 1181 2784 1417 2907 
Q 1653 3031 1894 3031 
Q 2175 3031 2367 2936 
Q 2559 2841 2678 2681 
Q 2797 2522 2848 2308 
Q 2900 2094 2900 1794 
L 2900 78 
z
" transform="scale(0.015625)"/>
       <path id="Calibri-66" d="M 2019 4047 
Q 2019 3988 2012 3952 
Q 2006 3916 1998 3894 
Q 1991 3872 1978 3864 
Q 1966 3856 1947 3856 
Q 1925 3856 1892 3870 
Q 1859 3884 1812 3901 
Q 1766 3919 1702 3933 
Q 1638 3947 1553 3947 
Q 1438 3947 1356 3909 
Q 1275 3872 1225 3792 
Q 1175 3713 1153 3586 
Q 1131 3459 1131 3278 
L 1131 2972 
L 1759 2972 
Q 1784 2972 1801 2961 
Q 1819 2950 1833 2923 
Q 1847 2897 1855 2856 
Q 1863 2816 1863 2756 
Q 1863 2644 1834 2594 
Q 1806 2544 1759 2544 
L 1131 2544 
L 1131 78 
Q 1131 53 1118 36 
Q 1106 19 1076 6 
Q 1047 -6 997 -12 
Q 947 -19 872 -19 
Q 797 -19 747 -12 
Q 697 -6 667 6 
Q 638 19 625 36 
Q 613 53 613 78 
L 613 2544 
L 216 2544 
Q 166 2544 141 2594 
Q 116 2644 116 2756 
Q 116 2816 122 2856 
Q 128 2897 140 2923 
Q 153 2950 172 2961 
Q 191 2972 216 2972 
L 613 2972 
L 613 3263 
Q 613 3556 667 3767 
Q 722 3978 834 4112 
Q 947 4247 1117 4311 
Q 1288 4375 1519 4375 
Q 1628 4375 1731 4354 
Q 1834 4334 1890 4311 
Q 1947 4288 1965 4269 
Q 1984 4250 1996 4220 
Q 2009 4191 2014 4148 
Q 2019 4106 2019 4047 
z
" transform="scale(0.015625)"/>
       <path id="Calibri-6c" d="M 994 78 
Q 994 53 981 36 
Q 969 19 941 6 
Q 913 -6 863 -12 
Q 813 -19 734 -19 
Q 659 -19 609 -12 
Q 559 -6 529 6 
Q 500 19 489 36 
Q 478 53 478 78 
L 478 4253 
Q 478 4278 489 4297 
Q 500 4316 529 4328 
Q 559 4341 609 4347 
Q 659 4353 734 4353 
Q 813 4353 863 4347 
Q 913 4341 941 4328 
Q 969 4316 981 4297 
Q 994 4278 994 4253 
L 994 78 
z
" transform="scale(0.015625)"/>
       <path id="Calibri-75" d="M 2888 78 
Q 2888 53 2877 36 
Q 2866 19 2837 6 
Q 2809 -6 2764 -12 
Q 2719 -19 2653 -19 
Q 2581 -19 2536 -12 
Q 2491 -6 2464 6 
Q 2438 19 2428 36 
Q 2419 53 2419 78 
L 2419 450 
Q 2178 184 1943 62 
Q 1709 -59 1469 -59 
Q 1188 -59 995 34 
Q 803 128 684 289 
Q 566 450 514 664 
Q 463 878 463 1184 
L 463 2891 
Q 463 2916 473 2933 
Q 484 2950 515 2964 
Q 547 2978 597 2983 
Q 647 2988 722 2988 
Q 797 2988 847 2983 
Q 897 2978 926 2964 
Q 956 2950 968 2933 
Q 981 2916 981 2891 
L 981 1253 
Q 981 1006 1017 857 
Q 1053 709 1126 604 
Q 1200 500 1312 442 
Q 1425 384 1575 384 
Q 1769 384 1961 521 
Q 2153 659 2369 925 
L 2369 2891 
Q 2369 2916 2380 2933 
Q 2391 2950 2422 2964 
Q 2453 2978 2501 2983 
Q 2550 2988 2628 2988 
Q 2703 2988 2753 2983 
Q 2803 2978 2831 2964 
Q 2859 2950 2873 2933 
Q 2888 2916 2888 2891 
L 2888 78 
z
" transform="scale(0.015625)"/>
       <path id="Calibri-78" d="M 2609 138 
Q 2634 94 2634 64 
Q 2634 34 2604 15 
Q 2575 -3 2514 -11 
Q 2453 -19 2356 -19 
Q 2263 -19 2208 -14 
Q 2153 -9 2120 2 
Q 2088 13 2070 30 
Q 2053 47 2041 69 
L 1366 1184 
L 694 69 
Q 681 47 664 30 
Q 647 13 614 2 
Q 581 -9 528 -14 
Q 475 -19 388 -19 
Q 297 -19 239 -11 
Q 181 -3 154 15 
Q 128 34 129 64 
Q 131 94 159 138 
L 1034 1509 
L 206 2831 
Q 181 2875 179 2904 
Q 178 2934 208 2954 
Q 238 2975 298 2981 
Q 359 2988 459 2988 
Q 550 2988 604 2983 
Q 659 2978 690 2968 
Q 722 2959 737 2943 
Q 753 2928 766 2906 
L 1406 1859 
L 2056 2906 
Q 2069 2925 2084 2940 
Q 2100 2956 2126 2967 
Q 2153 2978 2201 2983 
Q 2250 2988 2334 2988 
Q 2425 2988 2483 2981 
Q 2541 2975 2569 2958 
Q 2597 2941 2594 2909 
Q 2591 2878 2563 2831 
L 1741 1525 
L 2609 138 
z
" transform="scale(0.015625)"/>
       <path id="Calibri-2f" d="M 525 -753 
Q 513 -794 492 -817 
Q 472 -841 440 -853 
Q 409 -866 364 -872 
Q 319 -878 253 -878 
Q 175 -878 123 -867 
Q 72 -856 44 -836 
Q 16 -816 9 -786 
Q 3 -756 22 -716 
L 1913 4469 
Q 1925 4509 1945 4532 
Q 1966 4556 1995 4570 
Q 2025 4584 2072 4589 
Q 2119 4594 2184 4594 
Q 2263 4594 2313 4583 
Q 2363 4572 2391 4553 
Q 2419 4534 2425 4503 
Q 2431 4472 2416 4431 
L 525 -753 
z
" transform="scale(0.015625)"/>
      </defs>
      <use xlink:href="#Calibri-50"/>
      <use xlink:href="#Calibri-68" x="51.660156"/>
      <use xlink:href="#Calibri-79" x="104.199219"/>
      <use xlink:href="#Calibri-74" x="149.462891"/>
      <use xlink:href="#Calibri-6f" x="182.958984"/>
      <use xlink:href="#Calibri-65" x="235.693359"/>
      <use xlink:href="#Calibri-6e" x="285.449219"/>
      <use xlink:href="#Calibri-65" x="337.988281"/>
      <use xlink:href="#Calibri-20" x="387.744141"/>
      <use xlink:href="#Calibri-66" x="410.351562"/>
      <use xlink:href="#Calibri-6c" x="440.869141"/>
      <use xlink:href="#Calibri-75" x="463.818359"/>
      <use xlink:href="#Calibri-78" x="516.357422"/>
      <use xlink:href="#Calibri-20" x="559.667969"/>
      <use xlink:href="#Calibri-28" x="582.275391"/>
      <use xlink:href="#Calibri-b5" x="612.597656"/>
      <use xlink:href="#Calibri-4d" x="667.578125"/>
      <use xlink:href="#Calibri-2f" x="753.076172"/>
      <use xlink:href="#Calibri-68" x="791.699219"/>
      <use xlink:href="#Calibri-29" x="844.238281"/>
     </g>
    </g>
   </g>
   <g id="PolyCollection_1">
    <defs>
     <path id="m5f7c0d6f8f" d="M 60.040909 -51.703636 
L 60.040909 -51.703636 
L 61.080196 -53.982783 
L 62.119484 -56.225253 
L 63.158771 -58.43278 
L 64.198058 -60.606043 
L 65.237346 -62.745759 
L 66.276633 -64.8527 
L 67.315921 -66.926422 
L 68.355208 -68.971452 
L 69.394495 -70.984458 
L 70.433783 -72.967674 
L 71.47307 -74.911992 
L 72.512357 -76.826427 
L 73.551645 -78.710584 
L 74.590932 -80.568973 
L 75.630219 -82.413171 
L 76.669507 -84.236585 
L 77.708794 -86.023799 
L 78.748081 -87.781291 
L 79.787369 -89.513106 
L 80.826656 -91.210336 
L 81.865943 -92.903827 
L 82.905231 -94.56364 
L 83.944518 -96.200381 
L 84.983805 -97.820047 
L 86.023093 -99.404606 
L 87.06238 -100.976875 
L 88.101667 -102.525972 
L 89.140955 -104.054258 
L 90.180242 -105.553428 
L 91.219529 -107.009585 
L 92.258817 -108.455859 
L 93.298104 -109.895733 
L 94.337392 -111.311817 
L 95.376679 -112.703326 
L 96.415966 -114.056411 
L 97.455254 -115.405087 
L 98.494541 -116.723749 
L 99.533828 -118.02746 
L 100.573116 -119.312874 
L 101.612403 -120.563873 
L 102.65169 -121.822189 
L 103.690978 -123.068985 
L 104.730265 -124.276054 
L 105.769552 -125.497403 
L 106.80884 -126.665424 
L 107.848127 -127.81211 
L 108.887414 -128.993474 
L 109.926702 -130.172375 
L 110.965989 -131.276303 
L 112.005276 -132.362496 
L 113.044564 -133.415574 
L 114.083851 -134.491727 
L 115.123138 -135.546516 
L 116.162426 -136.567837 
L 117.201713 -137.581989 
L 118.241 -138.565615 
L 119.280288 -139.511497 
L 120.319575 -140.46259 
L 121.358862 -141.412167 
L 122.39815 -142.371485 
L 123.437437 -143.311368 
L 124.476725 -144.226478 
L 125.516012 -145.114335 
L 126.555299 -146.006692 
L 127.594587 -146.856765 
L 128.633874 -147.73073 
L 129.673161 -148.554915 
L 130.712449 -149.388358 
L 131.751736 -150.202613 
L 132.791023 -151.022287 
L 133.830311 -151.812495 
L 134.869598 -152.561966 
L 135.908885 -153.317753 
L 136.948173 -154.043612 
L 137.98746 -154.750401 
L 139.026747 -155.457991 
L 140.066035 -156.197765 
L 141.105322 -156.883308 
L 142.144609 -157.533782 
L 143.183897 -158.245284 
L 144.223184 -158.941293 
L 145.262471 -159.619484 
L 146.301759 -160.277825 
L 147.341046 -160.937019 
L 148.380333 -161.602365 
L 149.419621 -162.26011 
L 150.458908 -162.867329 
L 151.498196 -163.465723 
L 152.537483 -164.056929 
L 153.57677 -164.654861 
L 154.616058 -165.217254 
L 155.655345 -165.785974 
L 156.694632 -166.349612 
L 157.73392 -166.907216 
L 158.773207 -167.494146 
L 159.812494 -168.076095 
L 160.851782 -168.637075 
L 161.891069 -169.165107 
L 162.930356 -169.685418 
L 163.969644 -170.215617 
L 165.008931 -170.7537 
L 166.048218 -171.259673 
L 167.087506 -171.738603 
L 168.126793 -172.220138 
L 169.16608 -172.725081 
L 170.205368 -173.212068 
L 171.244655 -173.672139 
L 172.283942 -174.131002 
L 173.32323 -174.597883 
L 174.362517 -175.059939 
L 175.401804 -175.517588 
L 176.441092 -175.979799 
L 177.480379 -176.45773 
L 178.519667 -176.930794 
L 179.558954 -177.348201 
L 180.598241 -177.761131 
L 181.637529 -178.169657 
L 182.676816 -178.58772 
L 183.716103 -179.008011 
L 184.755391 -179.41089 
L 185.794678 -179.835177 
L 186.833965 -180.244646 
L 187.873253 -180.648592 
L 188.91254 -181.048508 
L 189.951827 -181.444454 
L 190.991115 -181.836489 
L 192.030402 -182.224671 
L 193.069689 -182.609056 
L 194.108977 -182.991666 
L 195.148264 -183.371378 
L 196.187551 -183.747446 
L 197.226839 -184.119921 
L 198.266126 -184.488855 
L 199.305413 -184.843468 
L 200.344701 -185.196993 
L 201.383988 -185.541494 
L 202.423275 -185.905083 
L 203.462563 -186.253917 
L 204.50185 -186.60016 
L 205.541138 -186.943663 
L 206.580425 -187.304103 
L 207.619712 -187.652247 
L 208.659 -187.965742 
L 209.698287 -188.283706 
L 210.737574 -188.610648 
L 211.776862 -188.934649 
L 212.816149 -189.255747 
L 213.855436 -189.573983 
L 214.894724 -189.889393 
L 215.934011 -190.202015 
L 216.973298 -190.506187 
L 218.012586 -190.803463 
L 219.051873 -191.098104 
L 220.09116 -191.390145 
L 221.130448 -191.67962 
L 222.169735 -191.966563 
L 223.209022 -192.251008 
L 224.24831 -192.532986 
L 225.287597 -192.812529 
L 226.326884 -193.089669 
L 227.366172 -193.364438 
L 228.405459 -193.636864 
L 229.444746 -193.906978 
L 230.484034 -194.174809 
L 231.523321 -194.440387 
L 232.562608 -194.703739 
L 233.601896 -194.964893 
L 234.641183 -195.227341 
L 235.680471 -195.49144 
L 236.719758 -195.753388 
L 237.759045 -196.013213 
L 238.798333 -196.270939 
L 239.83762 -196.526692 
L 240.876907 -196.780711 
L 241.916195 -197.032704 
L 242.955482 -197.282695 
L 243.994769 -197.530709 
L 245.034057 -197.78405 
L 246.073344 -198.036639 
L 247.112631 -198.287282 
L 248.151919 -198.536002 
L 249.191206 -198.78282 
L 250.230493 -199.027758 
L 251.269781 -199.270837 
L 252.309068 -199.512079 
L 253.348355 -199.751505 
L 254.387643 -199.989134 
L 255.42693 -200.224987 
L 256.466217 -200.459084 
L 257.505505 -200.691445 
L 258.544792 -200.922088 
L 259.584079 -201.151032 
L 260.623367 -201.378297 
L 261.662654 -201.6039 
L 262.701942 -201.827861 
L 263.741229 -202.050196 
L 264.780516 -202.270923 
L 265.819804 -202.474015 
L 266.859091 -202.674003 
L 266.859091 -228.620808 
L 266.859091 -228.620808 
L 265.819804 -228.279251 
L 264.780516 -227.935563 
L 263.741229 -227.597774 
L 262.701942 -227.278017 
L 261.662654 -226.953992 
L 260.623367 -226.6082 
L 259.584079 -226.260189 
L 258.544792 -225.909938 
L 257.505505 -225.557425 
L 256.466217 -225.202433 
L 255.42693 -224.844791 
L 254.387643 -224.484819 
L 253.348355 -224.122495 
L 252.309068 -223.757794 
L 251.269781 -223.390695 
L 250.230493 -223.021172 
L 249.191206 -222.649201 
L 248.151919 -222.27476 
L 247.112631 -221.897821 
L 246.073344 -221.518362 
L 245.034057 -221.136355 
L 243.994769 -220.751777 
L 242.955482 -220.364599 
L 241.916195 -219.974797 
L 240.876907 -219.582343 
L 239.83762 -219.18721 
L 238.798333 -218.78937 
L 237.759045 -218.388796 
L 236.719758 -217.985459 
L 235.680471 -217.579331 
L 234.641183 -217.170383 
L 233.601896 -216.758585 
L 232.562608 -216.343907 
L 231.523321 -215.926319 
L 230.484034 -215.50579 
L 229.444746 -215.082289 
L 228.405459 -214.655784 
L 227.366172 -214.2337 
L 226.326884 -213.809221 
L 225.287597 -213.381434 
L 224.24831 -212.950527 
L 223.209022 -212.516465 
L 222.169735 -212.079215 
L 221.130448 -211.638739 
L 220.09116 -211.188479 
L 219.051873 -210.718891 
L 218.012586 -210.255568 
L 216.973298 -209.809785 
L 215.934011 -209.308208 
L 214.894724 -208.820868 
L 213.855436 -208.349018 
L 212.816149 -207.873513 
L 211.776862 -207.394432 
L 210.737574 -206.911734 
L 209.698287 -206.425126 
L 208.659 -205.934217 
L 207.619712 -205.439564 
L 206.580425 -204.941126 
L 205.541138 -204.444263 
L 204.50185 -203.950204 
L 203.462563 -203.469441 
L 202.423275 -202.994576 
L 201.383988 -202.515755 
L 200.344701 -202.032929 
L 199.305413 -201.546002 
L 198.266126 -201.021196 
L 197.226839 -200.48946 
L 196.187551 -199.953146 
L 195.148264 -199.412522 
L 194.108977 -198.867538 
L 193.069689 -198.318138 
L 192.030402 -197.764271 
L 190.991115 -197.20588 
L 189.951827 -196.642911 
L 188.91254 -196.074774 
L 187.873253 -195.501625 
L 186.833965 -194.937563 
L 185.794678 -194.349947 
L 184.755391 -193.755045 
L 183.716103 -193.163604 
L 182.676816 -192.567168 
L 181.637529 -191.96516 
L 180.598241 -191.357058 
L 179.558954 -190.73124 
L 178.519667 -190.089062 
L 177.480379 -189.499309 
L 176.441092 -188.885171 
L 175.401804 -188.280267 
L 174.362517 -187.669822 
L 173.32323 -187.053758 
L 172.283942 -186.431999 
L 171.244655 -185.804463 
L 170.205368 -185.171072 
L 169.16608 -184.528511 
L 168.126793 -183.885137 
L 167.087506 -183.193145 
L 166.048218 -182.474694 
L 165.008931 -181.812738 
L 163.969644 -181.157571 
L 162.930356 -180.48473 
L 161.891069 -179.830257 
L 160.851782 -179.165622 
L 159.812494 -178.475131 
L 158.773207 -177.78716 
L 157.73392 -177.079439 
L 156.694632 -176.362091 
L 155.655345 -175.636779 
L 154.616058 -174.879992 
L 153.57677 -174.102855 
L 152.537483 -173.361727 
L 151.498196 -172.646748 
L 150.458908 -171.837683 
L 149.419621 -171.051298 
L 148.380333 -170.212716 
L 147.341046 -169.398426 
L 146.301759 -168.632013 
L 145.262471 -167.76127 
L 144.223184 -166.952752 
L 143.183897 -166.153969 
L 142.144609 -165.349012 
L 141.105322 -164.53375 
L 140.066035 -163.683114 
L 139.026747 -162.798258 
L 137.98746 -161.93217 
L 136.948173 -161.056764 
L 135.908885 -160.199784 
L 134.869598 -159.333624 
L 133.830311 -158.490023 
L 132.791023 -157.631759 
L 131.751736 -156.751832 
L 130.712449 -155.864383 
L 129.673161 -154.940998 
L 128.633874 -154.00751 
L 127.594587 -153.081119 
L 126.555299 -152.152867 
L 125.516012 -151.230152 
L 124.476725 -150.298696 
L 123.437437 -149.359351 
L 122.39815 -148.394249 
L 121.358862 -147.396944 
L 120.319575 -146.413057 
L 119.280288 -145.415304 
L 118.241 -144.404925 
L 117.201713 -143.358143 
L 116.162426 -142.346513 
L 115.123138 -141.309093 
L 114.083851 -140.22373 
L 113.044564 -139.154958 
L 112.005276 -138.054975 
L 110.965989 -136.932801 
L 109.926702 -135.803387 
L 108.887414 -134.673579 
L 107.848127 -133.53707 
L 106.80884 -132.359014 
L 105.769552 -131.154904 
L 104.730265 -129.993584 
L 103.690978 -128.843448 
L 102.65169 -127.612648 
L 101.612403 -126.35509 
L 100.573116 -125.103547 
L 99.533828 -123.831518 
L 98.494541 -122.545395 
L 97.455254 -121.221225 
L 96.415966 -119.888587 
L 95.376679 -118.518109 
L 94.337392 -117.130676 
L 93.298104 -115.718491 
L 92.258817 -114.295807 
L 91.219529 -112.837631 
L 90.180242 -111.374372 
L 89.140955 -109.859328 
L 88.101667 -108.316486 
L 87.06238 -106.74641 
L 86.023093 -105.158763 
L 84.983805 -103.538506 
L 83.944518 -101.907952 
L 82.905231 -100.198712 
L 81.865943 -98.454185 
L 80.826656 -96.674655 
L 79.787369 -94.860304 
L 78.748081 -93.017431 
L 77.708794 -91.146314 
L 76.669507 -89.247082 
L 75.630219 -87.298444 
L 74.590932 -85.305 
L 73.551645 -83.265874 
L 72.512357 -81.185759 
L 71.47307 -79.058503 
L 70.433783 -76.875867 
L 69.394495 -74.620974 
L 68.355208 -72.32382 
L 67.315921 -69.970286 
L 66.276633 -67.553062 
L 65.237346 -65.080257 
L 64.198058 -62.543892 
L 63.158771 -59.940715 
L 62.119484 -57.266564 
L 61.080196 -54.522433 
L 60.040909 -51.703636 
z
" style="stroke: #ef553b; stroke-opacity: 0.3"/>
    </defs>
    <g clip-path="url(#p96ba017a6c)">
     <use xlink:href="#m5f7c0d6f8f" x="0" y="252" style="fill: #ef553b; fill-opacity: 0.3; stroke: #ef553b; stroke-opacity: 0.3"/>
    </g>
   </g>
   <g id="line2d_13">
    <defs>
     <path id="m27afc88e27" d="M 0 2.5 
C 0.663008 2.5 1.29895 2.236584 1.767767 1.767767 
C 2.236584 1.29895 2.5 0.663008 2.5 0 
C 2.5 -0.663008 2.236584 -1.29895 1.767767 -1.767767 
C 1.29895 -2.236584 0.663008 -2.5 0 -2.5 
C -0.663008 -2.5 -1.29895 -2.236584 -1.767767 -1.767767 
C -2.236584 -1.29895 -2.5 -0.663008 -2.5 0 
C -2.5 0.663008 -2.236584 1.29895 -1.767767 1.767767 
C -1.29895 2.236584 -0.663008 2.5 0 2.5 
z
" style="stroke: #ffbf00"/>
    </defs>
    <g clip-path="url(#p96ba017a6c)">
     <use xlink:href="#m27afc88e27" x="64.301987" y="199.355834" style="fill: #ffd967; stroke: #ffbf00"/>
     <use xlink:href="#m27afc88e27" x="63.210735" y="199.854774" style="fill: #ffd967; stroke: #ffbf00"/>
     <use xlink:href="#m27afc88e27" x="63.054842" y="199.863376" style="fill: #ffd967; stroke: #ffbf00"/>
     <use xlink:href="#m27afc88e27" x="77.812723" y="197.463305" style="fill: #ffd967; stroke: #ffbf00"/>
     <use xlink:href="#m27afc88e27" x="77.500937" y="196.961498" style="fill: #ffd967; stroke: #ffbf00"/>
     <use xlink:href="#m27afc88e27" x="76.981293" y="196.889811" style="fill: #ffd967; stroke: #ffbf00"/>
     <use xlink:href="#m27afc88e27" x="121.930471" y="192.929837" style="fill: #ffd967; stroke: #ffbf00"/>
     <use xlink:href="#m27afc88e27" x="105.042051" y="193.021596" style="fill: #ffd967; stroke: #ffbf00"/>
     <use xlink:href="#m27afc88e27" x="108.419735" y="193.210849" style="fill: #ffd967; stroke: #ffbf00"/>
     <use xlink:href="#m27afc88e27" x="145.314436" y="187.544732" style="fill: #ffd967; stroke: #ffbf00"/>
     <use xlink:href="#m27afc88e27" x="106.756875" y="186.667286" style="fill: #ffd967; stroke: #ffbf00"/>
     <use xlink:href="#m27afc88e27" x="109.718844" y="184.711673" style="fill: #ffd967; stroke: #ffbf00"/>
     <use xlink:href="#m27afc88e27" x="164.177501" y="195.413065" style="fill: #ffd967; stroke: #ffbf00"/>
     <use xlink:href="#m27afc88e27" x="180.650206" y="191.275308" style="fill: #ffd967; stroke: #ffbf00"/>
     <use xlink:href="#m27afc88e27" x="242.747624" y="193.890439" style="fill: #ffd967; stroke: #ffbf00"/>
     <use xlink:href="#m27afc88e27" x="186.626108" y="193.79868" style="fill: #ffd967; stroke: #ffbf00"/>
     <use xlink:href="#m27afc88e27" x="216.505619" y="193.890439" style="fill: #ffd967; stroke: #ffbf00"/>
     <use xlink:href="#m27afc88e27" x="61.23609" y="199.783087" style="fill: #ffd967; stroke: #ffbf00"/>
     <use xlink:href="#m27afc88e27" x="61.23609" y="199.674123" style="fill: #ffd967; stroke: #ffbf00"/>
     <use xlink:href="#m27afc88e27" x="173.479123" y="185.072974" style="fill: #ffd967; stroke: #ffbf00"/>
     <use xlink:href="#m27afc88e27" x="120.943148" y="183.41271" style="fill: #ffd967; stroke: #ffbf00"/>
     <use xlink:href="#m27afc88e27" x="168.698401" y="184.241408" style="fill: #ffd967; stroke: #ffbf00"/>
    </g>
   </g>
   <g id="line2d_14">
    <defs>
     <path id="m7b23b1917e" d="M 0 2.5 
C 0.663008 2.5 1.29895 2.236584 1.767767 1.767767 
C 2.236584 1.29895 2.5 0.663008 2.5 0 
C 2.5 -0.663008 2.236584 -1.29895 1.767767 -1.767767 
C 1.29895 -2.236584 0.663008 -2.5 0 -2.5 
C -0.663008 -2.5 -1.29895 -2.236584 -1.767767 -1.767767 
C -2.236584 -1.29895 -2.5 -0.663008 -2.5 0 
C -2.5 0.663008 -2.236584 1.29895 -1.767767 1.767767 
C -1.29895 2.236584 -0.663008 2.5 0 2.5 
z
" style="stroke: #ff7f00"/>
    </defs>
    <g clip-path="url(#p96ba017a6c)">
     <use xlink:href="#m7b23b1917e" x="62.036341" y="199.216762" style="fill: #ffa500; stroke: #ff7f00"/>
     <use xlink:href="#m7b23b1917e" x="63.096414" y="199.050735" style="fill: #ffa500; stroke: #ff7f00"/>
     <use xlink:href="#m7b23b1917e" x="62.857378" y="199.026362" style="fill: #ffa500; stroke: #ff7f00"/>
     <use xlink:href="#m7b23b1917e" x="72.460393" y="176.208769" style="fill: #ffa500; stroke: #ff7f00"/>
     <use xlink:href="#m7b23b1917e" x="74.850754" y="184.479695" style="fill: #ffa500; stroke: #ff7f00"/>
     <use xlink:href="#m7b23b1917e" x="76.882561" y="177.342279" style="fill: #ffa500; stroke: #ff7f00"/>
     <use xlink:href="#m7b23b1917e" x="98.853095" y="127.803034" style="fill: #ffa500; stroke: #ff7f00"/>
     <use xlink:href="#m7b23b1917e" x="109.604523" y="129.450682" style="fill: #ffa500; stroke: #ff7f00"/>
     <use xlink:href="#m7b23b1917e" x="97.543593" y="133.602489" style="fill: #ffa500; stroke: #ff7f00"/>
     <use xlink:href="#m7b23b1917e" x="100.167794" y="117.258493" style="fill: #ffa500; stroke: #ff7f00"/>
     <use xlink:href="#m7b23b1917e" x="98.499737" y="112.447741" style="fill: #ffa500; stroke: #ff7f00"/>
     <use xlink:href="#m7b23b1917e" x="110.560667" y="118.049341" style="fill: #ffa500; stroke: #ff7f00"/>
     <use xlink:href="#m7b23b1917e" x="155.702113" y="90.106721" style="fill: #ffa500; stroke: #ff7f00"/>
     <use xlink:href="#m7b23b1917e" x="141.37034" y="78.70538" style="fill: #ffa500; stroke: #ff7f00"/>
     <use xlink:href="#m7b23b1917e" x="148.29719" y="76.398788" style="fill: #ffa500; stroke: #ff7f00"/>
     <use xlink:href="#m7b23b1917e" x="165.85595" y="80.353027" style="fill: #ffa500; stroke: #ff7f00"/>
     <use xlink:href="#m7b23b1917e" x="170.153403" y="75.937413" style="fill: #ffa500; stroke: #ff7f00"/>
     <use xlink:href="#m7b23b1917e" x="61.23609" y="199.783087" style="fill: #ffa500; stroke: #ff7f00"/>
     <use xlink:href="#m7b23b1917e" x="61.23609" y="199.674983" style="fill: #ffa500; stroke: #ff7f00"/>
     <use xlink:href="#m7b23b1917e" x="61.23609" y="199.350673" style="fill: #ffa500; stroke: #ff7f00"/>
     <use xlink:href="#m7b23b1917e" x="107.811752" y="128.330362" style="fill: #ffa500; stroke: #ff7f00"/>
     <use xlink:href="#m7b23b1917e" x="104.231407" y="133.866296" style="fill: #ffa500; stroke: #ff7f00"/>
     <use xlink:href="#m7b23b1917e" x="93.479979" y="136.633977" style="fill: #ffa500; stroke: #ff7f00"/>
     <use xlink:href="#m7b23b1917e" x="62.43127" y="197.675498" style="fill: #ffa500; stroke: #ff7f00"/>
     <use xlink:href="#m7b23b1917e" x="61.23609" y="198.107625" style="fill: #ffa500; stroke: #ff7f00"/>
     <use xlink:href="#m7b23b1917e" x="61.23609" y="198.24297" style="fill: #ffa500; stroke: #ff7f00"/>
     <use xlink:href="#m7b23b1917e" x="105.426587" y="128.330362" style="fill: #ffa500; stroke: #ff7f00"/>
     <use xlink:href="#m7b23b1917e" x="97.065521" y="122.794427" style="fill: #ffa500; stroke: #ff7f00"/>
     <use xlink:href="#m7b23b1917e" x="86.314093" y="153.24178" style="fill: #ffa500; stroke: #ff7f00"/>
     <use xlink:href="#m7b23b1917e" x="62.192234" y="193.93001" style="fill: #ffa500; stroke: #ff7f00"/>
     <use xlink:href="#m7b23b1917e" x="62.311752" y="194.622217" style="fill: #ffa500; stroke: #ff7f00"/>
     <use xlink:href="#m7b23b1917e" x="62.43127" y="192.915213" style="fill: #ffa500; stroke: #ff7f00"/>
     <use xlink:href="#m7b23b1917e" x="60.638499" y="199.857354" style="fill: #ffa500; stroke: #ff7f00"/>
     <use xlink:href="#m7b23b1917e" x="61.594644" y="195.314137" style="fill: #ffa500; stroke: #ff7f00"/>
     <use xlink:href="#m7b23b1917e" x="61.594644" y="196.039033" style="fill: #ffa500; stroke: #ff7f00"/>
     <use xlink:href="#m7b23b1917e" x="61.83368" y="194.78681" style="fill: #ffa500; stroke: #ff7f00"/>
     <use xlink:href="#m7b23b1917e" x="61.475126" y="196.184127" style="fill: #ffa500; stroke: #ff7f00"/>
     <use xlink:href="#m7b23b1917e" x="61.116571" y="197.857868" style="fill: #ffa500; stroke: #ff7f00"/>
     <use xlink:href="#m7b23b1917e" x="61.475126" y="196.151151" style="fill: #ffa500; stroke: #ff7f00"/>
     <use xlink:href="#m7b23b1917e" x="60.997053" y="195.41966" style="fill: #ffa500; stroke: #ff7f00"/>
     <use xlink:href="#m7b23b1917e" x="61.83368" y="195.551277" style="fill: #ffa500; stroke: #ff7f00"/>
     <use xlink:href="#m7b23b1917e" x="60.877535" y="199.892911" style="fill: #ffa500; stroke: #ff7f00"/>
     <use xlink:href="#m7b23b1917e" x="60.399463" y="199.750684" style="fill: #ffa500; stroke: #ff7f00"/>
     <use xlink:href="#m7b23b1917e" x="62.192234" y="193.93001" style="fill: #ffa500; stroke: #ff7f00"/>
     <use xlink:href="#m7b23b1917e" x="62.311752" y="194.622217" style="fill: #ffa500; stroke: #ff7f00"/>
     <use xlink:href="#m7b23b1917e" x="62.43127" y="192.915213" style="fill: #ffa500; stroke: #ff7f00"/>
     <use xlink:href="#m7b23b1917e" x="60.638499" y="199.857354" style="fill: #ffa500; stroke: #ff7f00"/>
     <use xlink:href="#m7b23b1917e" x="61.594644" y="195.314137" style="fill: #ffa500; stroke: #ff7f00"/>
     <use xlink:href="#m7b23b1917e" x="61.594644" y="196.039033" style="fill: #ffa500; stroke: #ff7f00"/>
     <use xlink:href="#m7b23b1917e" x="61.83368" y="194.78681" style="fill: #ffa500; stroke: #ff7f00"/>
     <use xlink:href="#m7b23b1917e" x="61.475126" y="196.184127" style="fill: #ffa500; stroke: #ff7f00"/>
     <use xlink:href="#m7b23b1917e" x="61.116571" y="197.857868" style="fill: #ffa500; stroke: #ff7f00"/>
     <use xlink:href="#m7b23b1917e" x="61.475126" y="196.151151" style="fill: #ffa500; stroke: #ff7f00"/>
     <use xlink:href="#m7b23b1917e" x="60.997053" y="195.41966" style="fill: #ffa500; stroke: #ff7f00"/>
     <use xlink:href="#m7b23b1917e" x="61.83368" y="195.551277" style="fill: #ffa500; stroke: #ff7f00"/>
     <use xlink:href="#m7b23b1917e" x="60.877535" y="199.892911" style="fill: #ffa500; stroke: #ff7f00"/>
     <use xlink:href="#m7b23b1917e" x="60.399463" y="199.750684" style="fill: #ffa500; stroke: #ff7f00"/>
    </g>
   </g>
   <g id="line2d_15">
    <path d="M 60.040909 200.296364 
L 63.158771 192.892345 
L 66.276633 185.925566 
L 70.433783 177.252268 
L 74.590932 169.21205 
L 78.748081 161.738038 
L 82.905231 154.772455 
L 87.06238 148.265129 
L 91.219529 142.172278 
L 95.376679 136.455524 
L 99.533828 131.081087 
L 103.690978 126.019114 
L 108.887414 120.090994 
L 114.083851 114.564503 
L 119.280288 109.400165 
L 124.476725 104.563509 
L 129.673161 100.024309 
L 134.869598 95.755941 
L 140.066035 91.73487 
L 146.301759 87.206772 
L 152.537483 82.973023 
L 158.773207 79.005825 
L 165.008931 75.280773 
L 172.283942 71.212365 
L 179.558954 67.414411 
L 186.833965 63.860808 
L 195.148264 60.069577 
L 203.462563 56.538017 
L 211.776862 53.240334 
L 221.130448 49.782109 
L 230.484034 46.563666 
L 240.876907 43.239638 
L 251.269781 40.15338 
L 262.701942 37.003823 
L 266.859091 35.916844 
L 266.859091 35.916844 
" clip-path="url(#p96ba017a6c)" style="fill: none; stroke: #ef553b; stroke-width: 1.5; stroke-linecap: round"/>
   </g>
   <g id="line2d_16">
    <defs>
     <path id="mb4582201e5" d="M 0 2.5 
C 0.663008 2.5 1.29895 2.236584 1.767767 1.767767 
C 2.236584 1.29895 2.5 0.663008 2.5 0 
C 2.5 -0.663008 2.236584 -1.29895 1.767767 -1.767767 
C 1.29895 -2.236584 0.663008 -2.5 0 -2.5 
C -0.663008 -2.5 -1.29895 -2.236584 -1.767767 -1.767767 
C -2.236584 -1.29895 -2.5 -0.663008 -2.5 0 
C -2.5 0.663008 -2.236584 1.29895 -1.767767 1.767767 
C -1.29895 2.236584 -0.663008 2.5 0 2.5 
z
" style="stroke: #7c0a02"/>
    </defs>
    <g clip-path="url(#p96ba017a6c)">
     <use xlink:href="#mb4582201e5" x="67.263956" y="197.841811" style="fill: #cd5c5c; stroke: #7c0a02"/>
     <use xlink:href="#mb4582201e5" x="65.601096" y="199.146509" style="fill: #cd5c5c; stroke: #7c0a02"/>
     <use xlink:href="#mb4582201e5" x="65.497168" y="199.424653" style="fill: #cd5c5c; stroke: #7c0a02"/>
     <use xlink:href="#mb4582201e5" x="67.7836" y="143.411525" style="fill: #cd5c5c; stroke: #7c0a02"/>
     <use xlink:href="#mb4582201e5" x="67.991457" y="149.820317" style="fill: #cd5c5c; stroke: #7c0a02"/>
     <use xlink:href="#mb4582201e5" x="71.005391" y="89.652227" style="fill: #cd5c5c; stroke: #7c0a02"/>
     <use xlink:href="#mb4582201e5" x="67.991457" y="101.873378" style="fill: #cd5c5c; stroke: #7c0a02"/>
     <use xlink:href="#mb4582201e5" x="72.928072" y="96.967139" style="fill: #cd5c5c; stroke: #7c0a02"/>
     <use xlink:href="#mb4582201e5" x="77.552901" y="90.690251" style="fill: #cd5c5c; stroke: #7c0a02"/>
     <use xlink:href="#mb4582201e5" x="66.224669" y="86.429193" style="fill: #cd5c5c; stroke: #7c0a02"/>
     <use xlink:href="#mb4582201e5" x="69.758246" y="147.400174" style="fill: #cd5c5c; stroke: #7c0a02"/>
     <use xlink:href="#mb4582201e5" x="71.732892" y="86.087964" style="fill: #cd5c5c; stroke: #7c0a02"/>
     <use xlink:href="#mb4582201e5" x="65.808954" y="28.179439" style="fill: #cd5c5c; stroke: #7c0a02"/>
     <use xlink:href="#mb4582201e5" x="71.421106" y="19.823636" style="fill: #cd5c5c; stroke: #7c0a02"/>
     <use xlink:href="#mb4582201e5" x="73.603609" y="33.957388" style="fill: #cd5c5c; stroke: #7c0a02"/>
     <use xlink:href="#mb4582201e5" x="76.565578" y="31.164474" style="fill: #cd5c5c; stroke: #7c0a02"/>
     <use xlink:href="#mb4582201e5" x="84.775948" y="42.100999" style="fill: #cd5c5c; stroke: #7c0a02"/>
     <use xlink:href="#mb4582201e5" x="90.024349" y="26.401609" style="fill: #cd5c5c; stroke: #7c0a02"/>
    </g>
   </g>
   <g id="line2d_17">
    <g clip-path="url(#p96ba017a6c)">
     <use xlink:href="#m7b23b1917e" x="62.036341" y="199.216762" style="fill: #ffa500; stroke: #ff7f00"/>
     <use xlink:href="#m7b23b1917e" x="63.096414" y="199.050735" style="fill: #ffa500; stroke: #ff7f00"/>
     <use xlink:href="#m7b23b1917e" x="62.857378" y="199.026362" style="fill: #ffa500; stroke: #ff7f00"/>
     <use xlink:href="#m7b23b1917e" x="72.460393" y="176.208769" style="fill: #ffa500; stroke: #ff7f00"/>
     <use xlink:href="#m7b23b1917e" x="74.850754" y="184.479695" style="fill: #ffa500; stroke: #ff7f00"/>
     <use xlink:href="#m7b23b1917e" x="76.882561" y="177.342279" style="fill: #ffa500; stroke: #ff7f00"/>
     <use xlink:href="#m7b23b1917e" x="98.853095" y="127.803034" style="fill: #ffa500; stroke: #ff7f00"/>
     <use xlink:href="#m7b23b1917e" x="109.604523" y="129.450682" style="fill: #ffa500; stroke: #ff7f00"/>
     <use xlink:href="#m7b23b1917e" x="97.543593" y="133.602489" style="fill: #ffa500; stroke: #ff7f00"/>
     <use xlink:href="#m7b23b1917e" x="100.167794" y="117.258493" style="fill: #ffa500; stroke: #ff7f00"/>
     <use xlink:href="#m7b23b1917e" x="98.499737" y="112.447741" style="fill: #ffa500; stroke: #ff7f00"/>
     <use xlink:href="#m7b23b1917e" x="110.560667" y="118.049341" style="fill: #ffa500; stroke: #ff7f00"/>
     <use xlink:href="#m7b23b1917e" x="155.702113" y="90.106721" style="fill: #ffa500; stroke: #ff7f00"/>
     <use xlink:href="#m7b23b1917e" x="141.37034" y="78.70538" style="fill: #ffa500; stroke: #ff7f00"/>
     <use xlink:href="#m7b23b1917e" x="148.29719" y="76.398788" style="fill: #ffa500; stroke: #ff7f00"/>
     <use xlink:href="#m7b23b1917e" x="165.85595" y="80.353027" style="fill: #ffa500; stroke: #ff7f00"/>
     <use xlink:href="#m7b23b1917e" x="170.153403" y="75.937413" style="fill: #ffa500; stroke: #ff7f00"/>
     <use xlink:href="#m7b23b1917e" x="61.23609" y="199.783087" style="fill: #ffa500; stroke: #ff7f00"/>
     <use xlink:href="#m7b23b1917e" x="61.23609" y="199.674983" style="fill: #ffa500; stroke: #ff7f00"/>
     <use xlink:href="#m7b23b1917e" x="61.23609" y="199.350673" style="fill: #ffa500; stroke: #ff7f00"/>
     <use xlink:href="#m7b23b1917e" x="107.811752" y="128.330362" style="fill: #ffa500; stroke: #ff7f00"/>
     <use xlink:href="#m7b23b1917e" x="104.231407" y="133.866296" style="fill: #ffa500; stroke: #ff7f00"/>
     <use xlink:href="#m7b23b1917e" x="93.479979" y="136.633977" style="fill: #ffa500; stroke: #ff7f00"/>
     <use xlink:href="#m7b23b1917e" x="62.43127" y="197.675498" style="fill: #ffa500; stroke: #ff7f00"/>
     <use xlink:href="#m7b23b1917e" x="61.23609" y="198.107625" style="fill: #ffa500; stroke: #ff7f00"/>
     <use xlink:href="#m7b23b1917e" x="61.23609" y="198.24297" style="fill: #ffa500; stroke: #ff7f00"/>
     <use xlink:href="#m7b23b1917e" x="105.426587" y="128.330362" style="fill: #ffa500; stroke: #ff7f00"/>
     <use xlink:href="#m7b23b1917e" x="97.065521" y="122.794427" style="fill: #ffa500; stroke: #ff7f00"/>
     <use xlink:href="#m7b23b1917e" x="86.314093" y="153.24178" style="fill: #ffa500; stroke: #ff7f00"/>
     <use xlink:href="#m7b23b1917e" x="62.192234" y="193.93001" style="fill: #ffa500; stroke: #ff7f00"/>
     <use xlink:href="#m7b23b1917e" x="62.311752" y="194.622217" style="fill: #ffa500; stroke: #ff7f00"/>
     <use xlink:href="#m7b23b1917e" x="62.43127" y="192.915213" style="fill: #ffa500; stroke: #ff7f00"/>
     <use xlink:href="#m7b23b1917e" x="60.638499" y="199.857354" style="fill: #ffa500; stroke: #ff7f00"/>
     <use xlink:href="#m7b23b1917e" x="61.594644" y="195.314137" style="fill: #ffa500; stroke: #ff7f00"/>
     <use xlink:href="#m7b23b1917e" x="61.594644" y="196.039033" style="fill: #ffa500; stroke: #ff7f00"/>
     <use xlink:href="#m7b23b1917e" x="61.83368" y="194.78681" style="fill: #ffa500; stroke: #ff7f00"/>
     <use xlink:href="#m7b23b1917e" x="61.475126" y="196.184127" style="fill: #ffa500; stroke: #ff7f00"/>
     <use xlink:href="#m7b23b1917e" x="61.116571" y="197.857868" style="fill: #ffa500; stroke: #ff7f00"/>
     <use xlink:href="#m7b23b1917e" x="61.475126" y="196.151151" style="fill: #ffa500; stroke: #ff7f00"/>
     <use xlink:href="#m7b23b1917e" x="60.997053" y="195.41966" style="fill: #ffa500; stroke: #ff7f00"/>
     <use xlink:href="#m7b23b1917e" x="61.83368" y="195.551277" style="fill: #ffa500; stroke: #ff7f00"/>
     <use xlink:href="#m7b23b1917e" x="60.877535" y="199.892911" style="fill: #ffa500; stroke: #ff7f00"/>
     <use xlink:href="#m7b23b1917e" x="60.399463" y="199.750684" style="fill: #ffa500; stroke: #ff7f00"/>
     <use xlink:href="#m7b23b1917e" x="62.192234" y="193.93001" style="fill: #ffa500; stroke: #ff7f00"/>
     <use xlink:href="#m7b23b1917e" x="62.311752" y="194.622217" style="fill: #ffa500; stroke: #ff7f00"/>
     <use xlink:href="#m7b23b1917e" x="62.43127" y="192.915213" style="fill: #ffa500; stroke: #ff7f00"/>
     <use xlink:href="#m7b23b1917e" x="60.638499" y="199.857354" style="fill: #ffa500; stroke: #ff7f00"/>
     <use xlink:href="#m7b23b1917e" x="61.594644" y="195.314137" style="fill: #ffa500; stroke: #ff7f00"/>
     <use xlink:href="#m7b23b1917e" x="61.594644" y="196.039033" style="fill: #ffa500; stroke: #ff7f00"/>
     <use xlink:href="#m7b23b1917e" x="61.83368" y="194.78681" style="fill: #ffa500; stroke: #ff7f00"/>
     <use xlink:href="#m7b23b1917e" x="61.475126" y="196.184127" style="fill: #ffa500; stroke: #ff7f00"/>
     <use xlink:href="#m7b23b1917e" x="61.116571" y="197.857868" style="fill: #ffa500; stroke: #ff7f00"/>
     <use xlink:href="#m7b23b1917e" x="61.475126" y="196.151151" style="fill: #ffa500; stroke: #ff7f00"/>
     <use xlink:href="#m7b23b1917e" x="60.997053" y="195.41966" style="fill: #ffa500; stroke: #ff7f00"/>
     <use xlink:href="#m7b23b1917e" x="61.83368" y="195.551277" style="fill: #ffa500; stroke: #ff7f00"/>
     <use xlink:href="#m7b23b1917e" x="60.877535" y="199.892911" style="fill: #ffa500; stroke: #ff7f00"/>
     <use xlink:href="#m7b23b1917e" x="60.399463" y="199.750684" style="fill: #ffa500; stroke: #ff7f00"/>
    </g>
   </g>
   <g id="line2d_18">
    <path d="M 60.040909 200.296364 
L 63.158771 192.892345 
L 66.276633 185.925566 
L 70.433783 177.252268 
L 74.590932 169.21205 
L 78.748081 161.738038 
L 82.905231 154.772455 
L 87.06238 148.265129 
L 91.219529 142.172278 
L 95.376679 136.455524 
L 99.533828 131.081087 
L 103.690978 126.019114 
L 108.887414 120.090994 
L 114.083851 114.564503 
L 119.280288 109.400165 
L 124.476725 104.563509 
L 129.673161 100.024309 
L 134.869598 95.755941 
L 140.066035 91.73487 
L 146.301759 87.206772 
L 152.537483 82.973023 
L 158.773207 79.005825 
L 165.008931 75.280773 
L 172.283942 71.212365 
L 179.558954 67.414411 
L 186.833965 63.860808 
L 195.148264 60.069577 
L 203.462563 56.538017 
L 211.776862 53.240334 
L 221.130448 49.782109 
L 230.484034 46.563666 
L 240.876907 43.239638 
L 251.269781 40.15338 
L 262.701942 37.003823 
L 266.859091 35.916844 
L 266.859091 35.916844 
" clip-path="url(#p96ba017a6c)" style="fill: none; stroke: #ef553b; stroke-width: 1.5; stroke-linecap: round"/>
   </g>
   <g id="patch_3">
    <path d="M 49.7 209.32 
L 49.7 10.8 
" style="fill: none; stroke: #262626; stroke-width: 0.8; stroke-linejoin: miter; stroke-linecap: square"/>
   </g>
   <g id="patch_4">
    <path d="M 277.2 209.32 
L 277.2 10.8 
" style="fill: none; stroke: #262626; stroke-width: 0.8; stroke-linejoin: miter; stroke-linecap: square"/>
   </g>
   <g id="patch_5">
    <path d="M 49.7 209.32 
L 277.2 209.32 
" style="fill: none; stroke: #262626; stroke-width: 0.8; stroke-linejoin: miter; stroke-linecap: square"/>
   </g>
   <g id="patch_6">
    <path d="M 49.7 10.8 
L 277.2 10.8 
" style="fill: none; stroke: #262626; stroke-width: 0.8; stroke-linejoin: miter; stroke-linecap: square"/>
   </g>
   <g id="legend_1">
    <g id="line2d_19">
     <g>
      <use xlink:href="#m27afc88e27" x="184.889531" y="96.451016" style="fill: #ffd967; stroke: #ffbf00"/>
     </g>
    </g>
    <g id="text_15">
     <!-- TEF1pmut2-CrtB -->
     <g style="fill: #262626" transform="translate(201.089531 99.601016) scale(0.09 -0.09)">
      <defs>
       <path id="ArialMT-54" d="M 1659 0 
L 1659 4041 
L 150 4041 
L 150 4581 
L 3781 4581 
L 3781 4041 
L 2266 4041 
L 2266 0 
L 1659 0 
z
" transform="scale(0.015625)"/>
       <path id="ArialMT-45" d="M 506 0 
L 506 4581 
L 3819 4581 
L 3819 4041 
L 1113 4041 
L 1113 2638 
L 3647 2638 
L 3647 2100 
L 1113 2100 
L 1113 541 
L 3925 541 
L 3925 0 
L 506 0 
z
" transform="scale(0.015625)"/>
       <path id="ArialMT-46" d="M 525 0 
L 525 4581 
L 3616 4581 
L 3616 4041 
L 1131 4041 
L 1131 2622 
L 3281 2622 
L 3281 2081 
L 1131 2081 
L 1131 0 
L 525 0 
z
" transform="scale(0.015625)"/>
       <path id="ArialMT-70" d="M 422 -1272 
L 422 3319 
L 934 3319 
L 934 2888 
Q 1116 3141 1344 3267 
Q 1572 3394 1897 3394 
Q 2322 3394 2647 3175 
Q 2972 2956 3137 2557 
Q 3303 2159 3303 1684 
Q 3303 1175 3120 767 
Q 2938 359 2589 142 
Q 2241 -75 1856 -75 
Q 1575 -75 1351 44 
Q 1128 163 984 344 
L 984 -1272 
L 422 -1272 
z
M 931 1641 
Q 931 1000 1190 694 
Q 1450 388 1819 388 
Q 2194 388 2461 705 
Q 2728 1022 2728 1688 
Q 2728 2322 2467 2637 
Q 2206 2953 1844 2953 
Q 1484 2953 1207 2617 
Q 931 2281 931 1641 
z
" transform="scale(0.015625)"/>
       <path id="ArialMT-6d" d="M 422 0 
L 422 3319 
L 925 3319 
L 925 2853 
Q 1081 3097 1340 3245 
Q 1600 3394 1931 3394 
Q 2300 3394 2536 3241 
Q 2772 3088 2869 2813 
Q 3263 3394 3894 3394 
Q 4388 3394 4653 3120 
Q 4919 2847 4919 2278 
L 4919 0 
L 4359 0 
L 4359 2091 
Q 4359 2428 4304 2576 
Q 4250 2725 4106 2815 
Q 3963 2906 3769 2906 
Q 3419 2906 3187 2673 
Q 2956 2441 2956 1928 
L 2956 0 
L 2394 0 
L 2394 2156 
Q 2394 2531 2256 2718 
Q 2119 2906 1806 2906 
Q 1569 2906 1367 2781 
Q 1166 2656 1075 2415 
Q 984 2175 984 1722 
L 984 0 
L 422 0 
z
" transform="scale(0.015625)"/>
       <path id="ArialMT-75" d="M 2597 0 
L 2597 488 
Q 2209 -75 1544 -75 
Q 1250 -75 995 37 
Q 741 150 617 320 
Q 494 491 444 738 
Q 409 903 409 1263 
L 409 3319 
L 972 3319 
L 972 1478 
Q 972 1038 1006 884 
Q 1059 663 1231 536 
Q 1403 409 1656 409 
Q 1909 409 2131 539 
Q 2353 669 2445 892 
Q 2538 1116 2538 1541 
L 2538 3319 
L 3100 3319 
L 3100 0 
L 2597 0 
z
" transform="scale(0.015625)"/>
       <path id="ArialMT-74" d="M 1650 503 
L 1731 6 
Q 1494 -44 1306 -44 
Q 1000 -44 831 53 
Q 663 150 594 308 
Q 525 466 525 972 
L 525 2881 
L 113 2881 
L 113 3319 
L 525 3319 
L 525 4141 
L 1084 4478 
L 1084 3319 
L 1650 3319 
L 1650 2881 
L 1084 2881 
L 1084 941 
Q 1084 700 1114 631 
Q 1144 563 1211 522 
Q 1278 481 1403 481 
Q 1497 481 1650 503 
z
" transform="scale(0.015625)"/>
       <path id="ArialMT-2d" d="M 203 1375 
L 203 1941 
L 1931 1941 
L 1931 1375 
L 203 1375 
z
" transform="scale(0.015625)"/>
       <path id="ArialMT-43" d="M 3763 1606 
L 4369 1453 
Q 4178 706 3683 314 
Q 3188 -78 2472 -78 
Q 1731 -78 1267 223 
Q 803 525 561 1097 
Q 319 1669 319 2325 
Q 319 3041 592 3573 
Q 866 4106 1370 4382 
Q 1875 4659 2481 4659 
Q 3169 4659 3637 4309 
Q 4106 3959 4291 3325 
L 3694 3184 
Q 3534 3684 3231 3912 
Q 2928 4141 2469 4141 
Q 1941 4141 1586 3887 
Q 1231 3634 1087 3207 
Q 944 2781 944 2328 
Q 944 1744 1114 1308 
Q 1284 872 1643 656 
Q 2003 441 2422 441 
Q 2931 441 3284 734 
Q 3638 1028 3763 1606 
z
" transform="scale(0.015625)"/>
       <path id="ArialMT-72" d="M 416 0 
L 416 3319 
L 922 3319 
L 922 2816 
Q 1116 3169 1280 3281 
Q 1444 3394 1641 3394 
Q 1925 3394 2219 3213 
L 2025 2691 
Q 1819 2813 1613 2813 
Q 1428 2813 1281 2702 
Q 1134 2591 1072 2394 
Q 978 2094 978 1738 
L 978 0 
L 416 0 
z
" transform="scale(0.015625)"/>
       <path id="ArialMT-42" d="M 469 0 
L 469 4581 
L 2188 4581 
Q 2713 4581 3030 4442 
Q 3347 4303 3526 4014 
Q 3706 3725 3706 3409 
Q 3706 3116 3547 2856 
Q 3388 2597 3066 2438 
Q 3481 2316 3704 2022 
Q 3928 1728 3928 1328 
Q 3928 1006 3792 729 
Q 3656 453 3456 303 
Q 3256 153 2954 76 
Q 2653 0 2216 0 
L 469 0 
z
M 1075 2656 
L 2066 2656 
Q 2469 2656 2644 2709 
Q 2875 2778 2992 2937 
Q 3109 3097 3109 3338 
Q 3109 3566 3000 3739 
Q 2891 3913 2687 3977 
Q 2484 4041 1991 4041 
L 1075 4041 
L 1075 2656 
z
M 1075 541 
L 2216 541 
Q 2509 541 2628 563 
Q 2838 600 2978 687 
Q 3119 775 3209 942 
Q 3300 1109 3300 1328 
Q 3300 1584 3169 1773 
Q 3038 1963 2805 2039 
Q 2572 2116 2134 2116 
L 1075 2116 
L 1075 541 
z
" transform="scale(0.015625)"/>
      </defs>
      <use xlink:href="#ArialMT-54"/>
      <use xlink:href="#ArialMT-45" x="61.083984"/>
      <use xlink:href="#ArialMT-46" x="127.783203"/>
      <use xlink:href="#ArialMT-31" x="188.867188"/>
      <use xlink:href="#ArialMT-70" x="244.482422"/>
      <use xlink:href="#ArialMT-6d" x="300.097656"/>
      <use xlink:href="#ArialMT-75" x="383.398438"/>
      <use xlink:href="#ArialMT-74" x="439.013672"/>
      <use xlink:href="#ArialMT-32" x="466.796875"/>
      <use xlink:href="#ArialMT-2d" x="522.412109"/>
      <use xlink:href="#ArialMT-43" x="555.712891"/>
      <use xlink:href="#ArialMT-72" x="627.929688"/>
      <use xlink:href="#ArialMT-74" x="661.230469"/>
      <use xlink:href="#ArialMT-42" x="689.013672"/>
     </g>
    </g>
    <g id="line2d_20">
     <g>
      <use xlink:href="#m7b23b1917e" x="184.889531" y="109.291484" style="fill: #ffa500; stroke: #ff7f00"/>
     </g>
    </g>
    <g id="text_16">
     <!-- PGIp-CrtB -->
     <g style="fill: #262626" transform="translate(201.089531 112.441484) scale(0.09 -0.09)">
      <defs>
       <path id="ArialMT-50" d="M 494 0 
L 494 4581 
L 2222 4581 
Q 2678 4581 2919 4538 
Q 3256 4481 3484 4323 
Q 3713 4166 3852 3881 
Q 3991 3597 3991 3256 
Q 3991 2672 3619 2267 
Q 3247 1863 2275 1863 
L 1100 1863 
L 1100 0 
L 494 0 
z
M 1100 2403 
L 2284 2403 
Q 2872 2403 3119 2622 
Q 3366 2841 3366 3238 
Q 3366 3525 3220 3729 
Q 3075 3934 2838 4000 
Q 2684 4041 2272 4041 
L 1100 4041 
L 1100 2403 
z
" transform="scale(0.015625)"/>
       <path id="ArialMT-47" d="M 2638 1797 
L 2638 2334 
L 4578 2338 
L 4578 638 
Q 4131 281 3656 101 
Q 3181 -78 2681 -78 
Q 2006 -78 1454 211 
Q 903 500 622 1047 
Q 341 1594 341 2269 
Q 341 2938 620 3517 
Q 900 4097 1425 4378 
Q 1950 4659 2634 4659 
Q 3131 4659 3532 4498 
Q 3934 4338 4162 4050 
Q 4391 3763 4509 3300 
L 3963 3150 
Q 3859 3500 3706 3700 
Q 3553 3900 3268 4020 
Q 2984 4141 2638 4141 
Q 2222 4141 1919 4014 
Q 1616 3888 1430 3681 
Q 1244 3475 1141 3228 
Q 966 2803 966 2306 
Q 966 1694 1177 1281 
Q 1388 869 1791 669 
Q 2194 469 2647 469 
Q 3041 469 3416 620 
Q 3791 772 3984 944 
L 3984 1797 
L 2638 1797 
z
" transform="scale(0.015625)"/>
       <path id="ArialMT-49" d="M 597 0 
L 597 4581 
L 1203 4581 
L 1203 0 
L 597 0 
z
" transform="scale(0.015625)"/>
      </defs>
      <use xlink:href="#ArialMT-50"/>
      <use xlink:href="#ArialMT-47" x="66.699219"/>
      <use xlink:href="#ArialMT-49" x="144.482422"/>
      <use xlink:href="#ArialMT-70" x="172.265625"/>
      <use xlink:href="#ArialMT-2d" x="227.880859"/>
      <use xlink:href="#ArialMT-43" x="261.181641"/>
      <use xlink:href="#ArialMT-72" x="333.398438"/>
      <use xlink:href="#ArialMT-74" x="366.699219"/>
      <use xlink:href="#ArialMT-42" x="394.482422"/>
     </g>
    </g>
    <g id="line2d_21">
     <g>
      <use xlink:href="#mb4582201e5" x="184.889531" y="122.131953" style="fill: #cd5c5c; stroke: #7c0a02"/>
     </g>
    </g>
    <g id="text_17">
     <!-- PDC1p-CrtB -->
     <g style="fill: #262626" transform="translate(201.089531 125.281953) scale(0.09 -0.09)">
      <defs>
       <path id="ArialMT-44" d="M 494 0 
L 494 4581 
L 2072 4581 
Q 2606 4581 2888 4516 
Q 3281 4425 3559 4188 
Q 3922 3881 4101 3404 
Q 4281 2928 4281 2316 
Q 4281 1794 4159 1391 
Q 4038 988 3847 723 
Q 3656 459 3429 307 
Q 3203 156 2883 78 
Q 2563 0 2147 0 
L 494 0 
z
M 1100 541 
L 2078 541 
Q 2531 541 2789 625 
Q 3047 709 3200 863 
Q 3416 1078 3536 1442 
Q 3656 1806 3656 2325 
Q 3656 3044 3420 3430 
Q 3184 3816 2847 3947 
Q 2603 4041 2063 4041 
L 1100 4041 
L 1100 541 
z
" transform="scale(0.015625)"/>
      </defs>
      <use xlink:href="#ArialMT-50"/>
      <use xlink:href="#ArialMT-44" x="66.699219"/>
      <use xlink:href="#ArialMT-43" x="138.916016"/>
      <use xlink:href="#ArialMT-31" x="211.132812"/>
      <use xlink:href="#ArialMT-70" x="266.748047"/>
      <use xlink:href="#ArialMT-2d" x="322.363281"/>
      <use xlink:href="#ArialMT-43" x="355.664062"/>
      <use xlink:href="#ArialMT-72" x="427.880859"/>
      <use xlink:href="#ArialMT-74" x="461.181641"/>
      <use xlink:href="#ArialMT-42" x="488.964844"/>
     </g>
    </g>
   </g>
  </g>
 </g>
 <defs>
  <clipPath id="p96ba017a6c">
   <rect x="49.7" y="10.8" width="227.5" height="198.52"/>
  </clipPath>
 </defs>
</svg>
