<?xml version="1.0" encoding="utf-8" standalone="no"?>
<!DOCTYPE svg PUBLIC "-//W3C//DTD SVG 1.1//EN"
  "http://www.w3.org/Graphics/SVG/1.1/DTD/svg11.dtd">
<svg xmlns:xlink="http://www.w3.org/1999/xlink" width="648pt" height="252pt" viewBox="0 0 648 252" xmlns="http://www.w3.org/2000/svg" version="1.1">
 <metadata>
  <rdf:RDF xmlns:dc="http://purl.org/dc/elements/1.1/" xmlns:cc="http://creativecommons.org/ns#" xmlns:rdf="http://www.w3.org/1999/02/22-rdf-syntax-ns#">
   <cc:Work>
    <dc:type rdf:resource="http://purl.org/dc/dcmitype/StillImage"/>
    <dc:date>2023-12-04T23:11:09.176710</dc:date>
    <dc:format>image/svg+xml</dc:format>
    <dc:creator>
     <cc:Agent>
      <dc:title>Matplotlib v3.8.1, https://matplotlib.org/</dc:title>
     </cc:Agent>
    </dc:creator>
   </cc:Work>
  </rdf:RDF>
 </metadata>
 <defs>
  <style type="text/css">*{stroke-linejoin: round; stroke-linecap: butt}</style>
 </defs>
 <g id="figure_1">
  <g id="patch_1">
   <path d="M 0 252 
L 648 252 
L 648 0 
L 0 0 
z
" style="fill: #ffffff"/>
  </g>
  <g id="axes_1">
   <g id="patch_2">
    <path d="M 50.87 210.04 
L 318.6 210.04 
L 318.6 14.76 
L 50.87 14.76 
z
" style="fill: #ffffff"/>
   </g>
   <g id="PolyCollection_1">
    <defs>
     <path id="m5947a61077" d="M 63.039545 -50.836364 
L 63.039545 -50.836364 
L 64.2565 -52.634246 
L 65.473455 -54.413373 
L 66.690409 -56.175113 
L 67.907364 -57.919364 
L 69.124318 -59.646386 
L 70.341273 -61.353594 
L 71.558227 -63.042275 
L 72.775182 -64.719541 
L 73.992136 -66.380907 
L 75.209091 -68.023954 
L 76.426045 -69.650206 
L 77.643 -71.251941 
L 78.859955 -72.835666 
L 80.076909 -74.402676 
L 81.293864 -75.95965 
L 82.510818 -77.505957 
L 83.727773 -79.036805 
L 84.944727 -80.545284 
L 86.161682 -82.04519 
L 87.378636 -83.529856 
L 88.595591 -84.996745 
L 89.812545 -86.453577 
L 91.0295 -87.896645 
L 92.246455 -89.326145 
L 93.463409 -90.742265 
L 94.680364 -92.145194 
L 95.897318 -93.535114 
L 97.114273 -94.912206 
L 98.331227 -96.276647 
L 99.548182 -97.62861 
L 100.765136 -98.968265 
L 101.982091 -100.295779 
L 103.199045 -101.603717 
L 104.416 -102.894414 
L 105.632955 -104.172944 
L 106.849909 -105.440237 
L 108.066864 -106.70034 
L 109.283818 -107.960346 
L 110.500773 -109.188975 
L 111.717727 -110.408836 
L 112.934682 -111.615404 
L 114.151636 -112.807222 
L 115.368591 -113.998395 
L 116.585545 -115.194635 
L 117.8025 -116.379657 
L 119.019455 -117.550586 
L 120.236409 -118.69291 
L 121.453364 -119.837772 
L 122.670318 -120.966017 
L 123.887273 -122.089204 
L 125.104227 -123.210935 
L 126.321182 -124.323652 
L 127.538136 -125.432497 
L 128.755091 -126.520782 
L 129.972045 -127.588072 
L 131.189 -128.621718 
L 132.405955 -129.689333 
L 133.622909 -130.749293 
L 134.839864 -131.801893 
L 136.056818 -132.846829 
L 137.273773 -133.877869 
L 138.490727 -134.904451 
L 139.707682 -135.919005 
L 140.924636 -136.915672 
L 142.141591 -137.904212 
L 143.358545 -138.888325 
L 144.5755 -139.86252 
L 145.792455 -140.819172 
L 147.009409 -141.775876 
L 148.226364 -142.723547 
L 149.443318 -143.658086 
L 150.660273 -144.598747 
L 151.877227 -145.531614 
L 153.094182 -146.426319 
L 154.311136 -147.312554 
L 155.528091 -148.191626 
L 156.745045 -149.076337 
L 157.962 -149.973845 
L 159.178955 -150.865914 
L 160.395909 -151.736581 
L 161.612864 -152.566453 
L 162.829818 -153.428468 
L 164.046773 -154.28651 
L 165.263727 -155.131329 
L 166.480682 -155.945327 
L 167.697636 -156.76591 
L 168.914591 -157.575974 
L 170.131545 -158.377607 
L 171.3485 -159.202773 
L 172.565455 -159.977904 
L 173.782409 -160.751 
L 174.999364 -161.503518 
L 176.216318 -162.249399 
L 177.433273 -163.020897 
L 178.650227 -163.786502 
L 179.867182 -164.549654 
L 181.084136 -165.262261 
L 182.301091 -165.997959 
L 183.518045 -166.721183 
L 184.735 -167.417043 
L 185.951955 -168.119272 
L 187.168909 -168.828006 
L 188.385864 -169.493598 
L 189.602818 -170.162776 
L 190.819773 -170.838938 
L 192.036727 -171.534431 
L 193.253682 -172.239219 
L 194.470636 -172.924002 
L 195.687591 -173.584694 
L 196.904545 -174.264042 
L 198.1215 -174.928349 
L 199.338455 -175.610233 
L 200.555409 -176.236611 
L 201.772364 -176.868761 
L 202.989318 -177.526789 
L 204.206273 -178.159414 
L 205.423227 -178.799808 
L 206.640182 -179.398076 
L 207.857136 -180.028141 
L 209.074091 -180.654874 
L 210.291045 -181.223226 
L 211.508 -181.840998 
L 212.724955 -182.448762 
L 213.941909 -183.046313 
L 215.158864 -183.648538 
L 216.375818 -184.239758 
L 217.592773 -184.810916 
L 218.809727 -185.391493 
L 220.026682 -185.919959 
L 221.243636 -186.429174 
L 222.460591 -186.970428 
L 223.677545 -187.508365 
L 224.8945 -188.046421 
L 226.111455 -188.59394 
L 227.328409 -189.106383 
L 228.545364 -189.610251 
L 229.762318 -190.101105 
L 230.979273 -190.593427 
L 232.196227 -191.085524 
L 233.413182 -191.572702 
L 234.630136 -192.073717 
L 235.847091 -192.608809 
L 237.064045 -193.095247 
L 238.281 -193.577106 
L 239.497955 -194.034673 
L 240.714909 -194.471379 
L 241.931864 -194.930353 
L 243.148818 -195.406364 
L 244.365773 -195.891712 
L 245.582727 -196.341433 
L 246.799682 -196.80054 
L 248.016636 -197.274783 
L 249.233591 -197.75012 
L 250.450545 -198.211726 
L 251.6675 -198.660934 
L 252.884455 -199.107244 
L 254.101409 -199.558741 
L 255.318364 -200.007228 
L 256.535318 -200.452736 
L 257.752273 -200.857527 
L 258.969227 -201.2742 
L 260.186182 -201.694077 
L 261.403136 -202.11496 
L 262.620091 -202.53542 
L 263.837045 -202.968413 
L 265.054 -203.366928 
L 266.270955 -203.778777 
L 267.487909 -204.187912 
L 268.704864 -204.602052 
L 269.921818 -205.017906 
L 271.138773 -205.431636 
L 272.355727 -205.842749 
L 273.572682 -206.235801 
L 274.789636 -206.625165 
L 276.006591 -207.02473 
L 277.223545 -207.383365 
L 278.4405 -207.746241 
L 279.657455 -208.128342 
L 280.874409 -208.508008 
L 282.091364 -208.885262 
L 283.308318 -209.256322 
L 284.525273 -209.598744 
L 285.742227 -209.974563 
L 286.959182 -210.323101 
L 288.176136 -210.687346 
L 289.393091 -211.046127 
L 290.610045 -211.417704 
L 291.827 -211.781146 
L 293.043955 -212.121205 
L 294.260909 -212.471039 
L 295.477864 -212.820911 
L 296.694818 -213.137691 
L 297.911773 -213.452411 
L 299.128727 -213.775941 
L 300.345682 -214.09987 
L 301.562636 -214.423462 
L 302.779591 -214.765491 
L 303.996545 -215.112248 
L 305.2135 -215.456968 
L 305.2135 -228.363636 
L 305.2135 -228.363636 
L 303.996545 -227.932337 
L 302.779591 -227.497822 
L 301.562636 -227.061572 
L 300.345682 -226.616122 
L 299.128727 -226.141919 
L 297.911773 -225.685018 
L 296.694818 -225.250345 
L 295.477864 -224.813311 
L 294.260909 -224.373896 
L 293.043955 -223.93208 
L 291.827 -223.483075 
L 290.610045 -223.025716 
L 289.393091 -222.565895 
L 288.176136 -222.106786 
L 286.959182 -221.666471 
L 285.742227 -221.194309 
L 284.525273 -220.736204 
L 283.308318 -220.291998 
L 282.091364 -219.845213 
L 280.874409 -219.383723 
L 279.657455 -218.915637 
L 278.4405 -218.443217 
L 277.223545 -217.969935 
L 276.006591 -217.494773 
L 274.789636 -217.014147 
L 273.572682 -216.529294 
L 272.355727 -216.043848 
L 271.138773 -215.556161 
L 269.921818 -215.060514 
L 268.704864 -214.537558 
L 267.487909 -214.011482 
L 266.270955 -213.512511 
L 265.054 -213.016083 
L 263.837045 -212.541974 
L 262.620091 -212.036655 
L 261.403136 -211.516826 
L 260.186182 -210.993151 
L 258.969227 -210.466436 
L 257.752273 -209.936656 
L 256.535318 -209.403783 
L 255.318364 -208.903967 
L 254.101409 -208.379414 
L 252.884455 -207.853873 
L 251.6675 -207.3398 
L 250.450545 -206.808284 
L 249.233591 -206.267765 
L 248.016636 -205.73481 
L 246.799682 -205.204036 
L 245.582727 -204.669134 
L 244.365773 -204.125672 
L 243.148818 -203.517956 
L 241.931864 -202.976788 
L 240.714909 -202.44084 
L 239.497955 -201.901341 
L 238.281 -201.35736 
L 237.064045 -200.782155 
L 235.847091 -200.209484 
L 234.630136 -199.605021 
L 233.413182 -199.02147 
L 232.196227 -198.441544 
L 230.979273 -197.857834 
L 229.762318 -197.273572 
L 228.545364 -196.685303 
L 227.328409 -196.115488 
L 226.111455 -195.533156 
L 224.8945 -194.94009 
L 223.677545 -194.307634 
L 222.460591 -193.675249 
L 221.243636 -193.061056 
L 220.026682 -192.45022 
L 218.809727 -191.851161 
L 217.592773 -191.226212 
L 216.375818 -190.627853 
L 215.158864 -190.015062 
L 213.941909 -189.408762 
L 212.724955 -188.764895 
L 211.508 -188.094605 
L 210.291045 -187.403081 
L 209.074091 -186.776082 
L 207.857136 -186.132506 
L 206.640182 -185.485291 
L 205.423227 -184.835554 
L 204.206273 -184.200838 
L 202.989318 -183.562897 
L 201.772364 -182.911555 
L 200.555409 -182.245997 
L 199.338455 -181.593023 
L 198.1215 -180.900668 
L 196.904545 -180.211615 
L 195.687591 -179.551977 
L 194.470636 -178.873695 
L 193.253682 -178.145361 
L 192.036727 -177.471426 
L 190.819773 -176.752142 
L 189.602818 -176.042518 
L 188.385864 -175.304102 
L 187.168909 -174.61269 
L 185.951955 -173.909766 
L 184.735 -173.211903 
L 183.518045 -172.476607 
L 182.301091 -171.734152 
L 181.084136 -170.972542 
L 179.867182 -170.212529 
L 178.650227 -169.457688 
L 177.433273 -168.677082 
L 176.216318 -167.890423 
L 174.999364 -167.101917 
L 173.782409 -166.379657 
L 172.565455 -165.588625 
L 171.3485 -164.801528 
L 170.131545 -164.011193 
L 168.914591 -163.236439 
L 167.697636 -162.456016 
L 166.480682 -161.657138 
L 165.263727 -160.829229 
L 164.046773 -160.032381 
L 162.829818 -159.206362 
L 161.612864 -158.357726 
L 160.395909 -157.547822 
L 159.178955 -156.707194 
L 157.962 -155.884905 
L 156.745045 -155.036726 
L 155.528091 -154.183251 
L 154.311136 -153.294376 
L 153.094182 -152.417305 
L 151.877227 -151.535923 
L 150.660273 -150.595458 
L 149.443318 -149.736908 
L 148.226364 -148.829005 
L 147.009409 -147.86199 
L 145.792455 -146.971482 
L 144.5755 -146.014159 
L 143.358545 -145.070886 
L 142.141591 -144.138062 
L 140.924636 -143.180071 
L 139.707682 -142.233025 
L 138.490727 -141.235864 
L 137.273773 -140.221709 
L 136.056818 -139.19817 
L 134.839864 -138.1639 
L 133.622909 -137.148084 
L 132.405955 -136.101024 
L 131.189 -135.039264 
L 129.972045 -133.977891 
L 128.755091 -132.886209 
L 127.538136 -131.812994 
L 126.321182 -130.762608 
L 125.104227 -129.698585 
L 123.887273 -128.582544 
L 122.670318 -127.469306 
L 121.453364 -126.316488 
L 120.236409 -125.13155 
L 119.019455 -123.954617 
L 117.8025 -122.777327 
L 116.585545 -121.578163 
L 115.368591 -120.403565 
L 114.151636 -119.198237 
L 112.934682 -117.960391 
L 111.717727 -116.708002 
L 110.500773 -115.440812 
L 109.283818 -114.157064 
L 108.066864 -112.857731 
L 106.849909 -111.559465 
L 105.632955 -110.244834 
L 104.416 -108.913525 
L 103.199045 -107.565221 
L 101.982091 -106.199592 
L 100.765136 -104.810428 
L 99.548182 -103.41005 
L 98.331227 -101.99806 
L 97.114273 -100.561152 
L 95.897318 -99.104876 
L 94.680364 -97.623003 
L 93.463409 -96.113185 
L 92.246455 -94.605753 
L 91.0295 -93.071639 
L 89.812545 -91.498352 
L 88.595591 -89.904073 
L 87.378636 -88.288792 
L 86.161682 -86.65209 
L 84.944727 -84.993538 
L 83.727773 -83.317471 
L 82.510818 -81.628513 
L 81.293864 -79.921788 
L 80.076909 -78.178065 
L 78.859955 -76.404398 
L 77.643 -74.606102 
L 76.426045 -72.781889 
L 75.209091 -70.935979 
L 73.992136 -69.066952 
L 72.775182 -67.168574 
L 71.558227 -65.239287 
L 70.341273 -63.276031 
L 69.124318 -61.28522 
L 67.907364 -59.261375 
L 66.690409 -57.205353 
L 65.473455 -55.11666 
L 64.2565 -52.994257 
L 63.039545 -50.836364 
z
" style="stroke: #ef553b; stroke-opacity: 0.3"/>
    </defs>
    <g clip-path="url(#pd7b0fc5c92)">
     <use xlink:href="#m5947a61077" x="0" y="252" style="fill: #ef553b; fill-opacity: 0.3; stroke: #ef553b; stroke-opacity: 0.3"/>
    </g>
   </g>
   <g id="matplotlib.axis_1">
    <g id="xtick_1">
     <g id="line2d_1">
      <defs>
       <path id="mb6b1691ff7" d="M 0 0 
L 0 3.5 
" style="stroke: #000000; stroke-width: 0.8"/>
      </defs>
      <g>
       <use xlink:href="#mb6b1691ff7" x="63.039545" y="210.04" style="stroke: #000000; stroke-width: 0.8"/>
      </g>
     </g>
     <g id="text_1">
      <!-- 0 -->
      <g transform="translate(59.858295 224.638438) scale(0.1 -0.1)">
       <defs>
        <path id="DejaVuSans-30" d="M 2034 4250 
Q 1547 4250 1301 3770 
Q 1056 3291 1056 2328 
Q 1056 1369 1301 889 
Q 1547 409 2034 409 
Q 2525 409 2770 889 
Q 3016 1369 3016 2328 
Q 3016 3291 2770 3770 
Q 2525 4250 2034 4250 
z
M 2034 4750 
Q 2819 4750 3233 4129 
Q 3647 3509 3647 2328 
Q 3647 1150 3233 529 
Q 2819 -91 2034 -91 
Q 1250 -91 836 529 
Q 422 1150 422 2328 
Q 422 3509 836 4129 
Q 1250 4750 2034 4750 
z
" transform="scale(0.015625)"/>
       </defs>
       <use xlink:href="#DejaVuSans-30"/>
      </g>
     </g>
    </g>
    <g id="xtick_2">
     <g id="line2d_2">
      <g>
       <use xlink:href="#mb6b1691ff7" x="120.594168" y="210.04" style="stroke: #000000; stroke-width: 0.8"/>
      </g>
     </g>
     <g id="text_2">
      <!-- 50 -->
      <g transform="translate(114.231668 224.638438) scale(0.1 -0.1)">
       <defs>
        <path id="DejaVuSans-35" d="M 691 4666 
L 3169 4666 
L 3169 4134 
L 1269 4134 
L 1269 2991 
Q 1406 3038 1543 3061 
Q 1681 3084 1819 3084 
Q 2600 3084 3056 2656 
Q 3513 2228 3513 1497 
Q 3513 744 3044 326 
Q 2575 -91 1722 -91 
Q 1428 -91 1123 -41 
Q 819 9 494 109 
L 494 744 
Q 775 591 1075 516 
Q 1375 441 1709 441 
Q 2250 441 2565 725 
Q 2881 1009 2881 1497 
Q 2881 1984 2565 2268 
Q 2250 2553 1709 2553 
Q 1456 2553 1204 2497 
Q 953 2441 691 2322 
L 691 4666 
z
" transform="scale(0.015625)"/>
       </defs>
       <use xlink:href="#DejaVuSans-35"/>
       <use xlink:href="#DejaVuSans-30" x="63.623047"/>
      </g>
     </g>
    </g>
    <g id="xtick_3">
     <g id="line2d_3">
      <g>
       <use xlink:href="#mb6b1691ff7" x="178.14879" y="210.04" style="stroke: #000000; stroke-width: 0.8"/>
      </g>
     </g>
     <g id="text_3">
      <!-- 100 -->
      <g transform="translate(168.60504 224.638438) scale(0.1 -0.1)">
       <defs>
        <path id="DejaVuSans-31" d="M 794 531 
L 1825 531 
L 1825 4091 
L 703 3866 
L 703 4441 
L 1819 4666 
L 2450 4666 
L 2450 531 
L 3481 531 
L 3481 0 
L 794 0 
L 794 531 
z
" transform="scale(0.015625)"/>
       </defs>
       <use xlink:href="#DejaVuSans-31"/>
       <use xlink:href="#DejaVuSans-30" x="63.623047"/>
       <use xlink:href="#DejaVuSans-30" x="127.246094"/>
      </g>
     </g>
    </g>
    <g id="xtick_4">
     <g id="line2d_4">
      <g>
       <use xlink:href="#mb6b1691ff7" x="235.703412" y="210.04" style="stroke: #000000; stroke-width: 0.8"/>
      </g>
     </g>
     <g id="text_4">
      <!-- 150 -->
      <g transform="translate(226.159662 224.638438) scale(0.1 -0.1)">
       <use xlink:href="#DejaVuSans-31"/>
       <use xlink:href="#DejaVuSans-35" x="63.623047"/>
       <use xlink:href="#DejaVuSans-30" x="127.246094"/>
      </g>
     </g>
    </g>
    <g id="xtick_5">
     <g id="line2d_5">
      <g>
       <use xlink:href="#mb6b1691ff7" x="293.258035" y="210.04" style="stroke: #000000; stroke-width: 0.8"/>
      </g>
     </g>
     <g id="text_5">
      <!-- 200 -->
      <g transform="translate(283.714285 224.638438) scale(0.1 -0.1)">
       <defs>
        <path id="DejaVuSans-32" d="M 1228 531 
L 3431 531 
L 3431 0 
L 469 0 
L 469 531 
Q 828 903 1448 1529 
Q 2069 2156 2228 2338 
Q 2531 2678 2651 2914 
Q 2772 3150 2772 3378 
Q 2772 3750 2511 3984 
Q 2250 4219 1831 4219 
Q 1534 4219 1204 4116 
Q 875 4013 500 3803 
L 500 4441 
Q 881 4594 1212 4672 
Q 1544 4750 1819 4750 
Q 2544 4750 2975 4387 
Q 3406 4025 3406 3419 
Q 3406 3131 3298 2873 
Q 3191 2616 2906 2266 
Q 2828 2175 2409 1742 
Q 1991 1309 1228 531 
z
" transform="scale(0.015625)"/>
       </defs>
       <use xlink:href="#DejaVuSans-32"/>
       <use xlink:href="#DejaVuSans-30" x="63.623047"/>
       <use xlink:href="#DejaVuSans-30" x="127.246094"/>
      </g>
     </g>
    </g>
    <g id="text_6">
     <!-- concentration -->
     <g transform="translate(150.106094 238.316563) scale(0.1 -0.1)">
      <defs>
       <path id="DejaVuSans-63" d="M 3122 3366 
L 3122 2828 
Q 2878 2963 2633 3030 
Q 2388 3097 2138 3097 
Q 1578 3097 1268 2742 
Q 959 2388 959 1747 
Q 959 1106 1268 751 
Q 1578 397 2138 397 
Q 2388 397 2633 464 
Q 2878 531 3122 666 
L 3122 134 
Q 2881 22 2623 -34 
Q 2366 -91 2075 -91 
Q 1284 -91 818 406 
Q 353 903 353 1747 
Q 353 2603 823 3093 
Q 1294 3584 2113 3584 
Q 2378 3584 2631 3529 
Q 2884 3475 3122 3366 
z
" transform="scale(0.015625)"/>
       <path id="DejaVuSans-6f" d="M 1959 3097 
Q 1497 3097 1228 2736 
Q 959 2375 959 1747 
Q 959 1119 1226 758 
Q 1494 397 1959 397 
Q 2419 397 2687 759 
Q 2956 1122 2956 1747 
Q 2956 2369 2687 2733 
Q 2419 3097 1959 3097 
z
M 1959 3584 
Q 2709 3584 3137 3096 
Q 3566 2609 3566 1747 
Q 3566 888 3137 398 
Q 2709 -91 1959 -91 
Q 1206 -91 779 398 
Q 353 888 353 1747 
Q 353 2609 779 3096 
Q 1206 3584 1959 3584 
z
" transform="scale(0.015625)"/>
       <path id="DejaVuSans-6e" d="M 3513 2113 
L 3513 0 
L 2938 0 
L 2938 2094 
Q 2938 2591 2744 2837 
Q 2550 3084 2163 3084 
Q 1697 3084 1428 2787 
Q 1159 2491 1159 1978 
L 1159 0 
L 581 0 
L 581 3500 
L 1159 3500 
L 1159 2956 
Q 1366 3272 1645 3428 
Q 1925 3584 2291 3584 
Q 2894 3584 3203 3211 
Q 3513 2838 3513 2113 
z
" transform="scale(0.015625)"/>
       <path id="DejaVuSans-65" d="M 3597 1894 
L 3597 1613 
L 953 1613 
Q 991 1019 1311 708 
Q 1631 397 2203 397 
Q 2534 397 2845 478 
Q 3156 559 3463 722 
L 3463 178 
Q 3153 47 2828 -22 
Q 2503 -91 2169 -91 
Q 1331 -91 842 396 
Q 353 884 353 1716 
Q 353 2575 817 3079 
Q 1281 3584 2069 3584 
Q 2775 3584 3186 3129 
Q 3597 2675 3597 1894 
z
M 3022 2063 
Q 3016 2534 2758 2815 
Q 2500 3097 2075 3097 
Q 1594 3097 1305 2825 
Q 1016 2553 972 2059 
L 3022 2063 
z
" transform="scale(0.015625)"/>
       <path id="DejaVuSans-74" d="M 1172 4494 
L 1172 3500 
L 2356 3500 
L 2356 3053 
L 1172 3053 
L 1172 1153 
Q 1172 725 1289 603 
Q 1406 481 1766 481 
L 2356 481 
L 2356 0 
L 1766 0 
Q 1100 0 847 248 
Q 594 497 594 1153 
L 594 3053 
L 172 3053 
L 172 3500 
L 594 3500 
L 594 4494 
L 1172 4494 
z
" transform="scale(0.015625)"/>
       <path id="DejaVuSans-72" d="M 2631 2963 
Q 2534 3019 2420 3045 
Q 2306 3072 2169 3072 
Q 1681 3072 1420 2755 
Q 1159 2438 1159 1844 
L 1159 0 
L 581 0 
L 581 3500 
L 1159 3500 
L 1159 2956 
Q 1341 3275 1631 3429 
Q 1922 3584 2338 3584 
Q 2397 3584 2469 3576 
Q 2541 3569 2628 3553 
L 2631 2963 
z
" transform="scale(0.015625)"/>
       <path id="DejaVuSans-61" d="M 2194 1759 
Q 1497 1759 1228 1600 
Q 959 1441 959 1056 
Q 959 750 1161 570 
Q 1363 391 1709 391 
Q 2188 391 2477 730 
Q 2766 1069 2766 1631 
L 2766 1759 
L 2194 1759 
z
M 3341 1997 
L 3341 0 
L 2766 0 
L 2766 531 
Q 2569 213 2275 61 
Q 1981 -91 1556 -91 
Q 1019 -91 701 211 
Q 384 513 384 1019 
Q 384 1609 779 1909 
Q 1175 2209 1959 2209 
L 2766 2209 
L 2766 2266 
Q 2766 2663 2505 2880 
Q 2244 3097 1772 3097 
Q 1472 3097 1187 3025 
Q 903 2953 641 2809 
L 641 3341 
Q 956 3463 1253 3523 
Q 1550 3584 1831 3584 
Q 2591 3584 2966 3190 
Q 3341 2797 3341 1997 
z
" transform="scale(0.015625)"/>
       <path id="DejaVuSans-69" d="M 603 3500 
L 1178 3500 
L 1178 0 
L 603 0 
L 603 3500 
z
M 603 4863 
L 1178 4863 
L 1178 4134 
L 603 4134 
L 603 4863 
z
" transform="scale(0.015625)"/>
      </defs>
      <use xlink:href="#DejaVuSans-63"/>
      <use xlink:href="#DejaVuSans-6f" x="54.980469"/>
      <use xlink:href="#DejaVuSans-6e" x="116.162109"/>
      <use xlink:href="#DejaVuSans-63" x="179.541016"/>
      <use xlink:href="#DejaVuSans-65" x="234.521484"/>
      <use xlink:href="#DejaVuSans-6e" x="296.044922"/>
      <use xlink:href="#DejaVuSans-74" x="359.423828"/>
      <use xlink:href="#DejaVuSans-72" x="398.632812"/>
      <use xlink:href="#DejaVuSans-61" x="439.746094"/>
      <use xlink:href="#DejaVuSans-74" x="501.025391"/>
      <use xlink:href="#DejaVuSans-69" x="540.234375"/>
      <use xlink:href="#DejaVuSans-6f" x="568.017578"/>
      <use xlink:href="#DejaVuSans-6e" x="629.199219"/>
     </g>
    </g>
   </g>
   <g id="matplotlib.axis_2">
    <g id="ytick_1">
     <g id="line2d_6">
      <defs>
       <path id="m6a03b1e477" d="M 0 0 
L -3.5 0 
" style="stroke: #000000; stroke-width: 0.8"/>
      </defs>
      <g>
       <use xlink:href="#m6a03b1e477" x="50.87" y="201.163636" style="stroke: #000000; stroke-width: 0.8"/>
      </g>
     </g>
     <g id="text_7">
      <!-- 0 -->
      <g transform="translate(37.5075 204.962855) scale(0.1 -0.1)">
       <use xlink:href="#DejaVuSans-30"/>
      </g>
     </g>
    </g>
    <g id="ytick_2">
     <g id="line2d_7">
      <g>
       <use xlink:href="#m6a03b1e477" x="50.87" y="162.811998" style="stroke: #000000; stroke-width: 0.8"/>
      </g>
     </g>
     <g id="text_8">
      <!-- 100 -->
      <g transform="translate(24.7825 166.611217) scale(0.1 -0.1)">
       <use xlink:href="#DejaVuSans-31"/>
       <use xlink:href="#DejaVuSans-30" x="63.623047"/>
       <use xlink:href="#DejaVuSans-30" x="127.246094"/>
      </g>
     </g>
    </g>
    <g id="ytick_3">
     <g id="line2d_8">
      <g>
       <use xlink:href="#m6a03b1e477" x="50.87" y="124.460359" style="stroke: #000000; stroke-width: 0.8"/>
      </g>
     </g>
     <g id="text_9">
      <!-- 200 -->
      <g transform="translate(24.7825 128.259578) scale(0.1 -0.1)">
       <use xlink:href="#DejaVuSans-32"/>
       <use xlink:href="#DejaVuSans-30" x="63.623047"/>
       <use xlink:href="#DejaVuSans-30" x="127.246094"/>
      </g>
     </g>
    </g>
    <g id="ytick_4">
     <g id="line2d_9">
      <g>
       <use xlink:href="#m6a03b1e477" x="50.87" y="86.108721" style="stroke: #000000; stroke-width: 0.8"/>
      </g>
     </g>
     <g id="text_10">
      <!-- 300 -->
      <g transform="translate(24.7825 89.907939) scale(0.1 -0.1)">
       <defs>
        <path id="DejaVuSans-33" d="M 2597 2516 
Q 3050 2419 3304 2112 
Q 3559 1806 3559 1356 
Q 3559 666 3084 287 
Q 2609 -91 1734 -91 
Q 1441 -91 1130 -33 
Q 819 25 488 141 
L 488 750 
Q 750 597 1062 519 
Q 1375 441 1716 441 
Q 2309 441 2620 675 
Q 2931 909 2931 1356 
Q 2931 1769 2642 2001 
Q 2353 2234 1838 2234 
L 1294 2234 
L 1294 2753 
L 1863 2753 
Q 2328 2753 2575 2939 
Q 2822 3125 2822 3475 
Q 2822 3834 2567 4026 
Q 2313 4219 1838 4219 
Q 1578 4219 1281 4162 
Q 984 4106 628 3988 
L 628 4550 
Q 988 4650 1302 4700 
Q 1616 4750 1894 4750 
Q 2613 4750 3031 4423 
Q 3450 4097 3450 3541 
Q 3450 3153 3228 2886 
Q 3006 2619 2597 2516 
z
" transform="scale(0.015625)"/>
       </defs>
       <use xlink:href="#DejaVuSans-33"/>
       <use xlink:href="#DejaVuSans-30" x="63.623047"/>
       <use xlink:href="#DejaVuSans-30" x="127.246094"/>
      </g>
     </g>
    </g>
    <g id="ytick_5">
     <g id="line2d_10">
      <g>
       <use xlink:href="#m6a03b1e477" x="50.87" y="47.757082" style="stroke: #000000; stroke-width: 0.8"/>
      </g>
     </g>
     <g id="text_11">
      <!-- 400 -->
      <g transform="translate(24.7825 51.556301) scale(0.1 -0.1)">
       <defs>
        <path id="DejaVuSans-34" d="M 2419 4116 
L 825 1625 
L 2419 1625 
L 2419 4116 
z
M 2253 4666 
L 3047 4666 
L 3047 1625 
L 3713 1625 
L 3713 1100 
L 3047 1100 
L 3047 0 
L 2419 0 
L 2419 1100 
L 313 1100 
L 313 1709 
L 2253 4666 
z
" transform="scale(0.015625)"/>
       </defs>
       <use xlink:href="#DejaVuSans-34"/>
       <use xlink:href="#DejaVuSans-30" x="63.623047"/>
       <use xlink:href="#DejaVuSans-30" x="127.246094"/>
      </g>
     </g>
    </g>
    <g id="text_12">
     <!-- flux -->
     <g transform="translate(18.702813 121.677344) rotate(-90) scale(0.1 -0.1)">
      <defs>
       <path id="DejaVuSans-66" d="M 2375 4863 
L 2375 4384 
L 1825 4384 
Q 1516 4384 1395 4259 
Q 1275 4134 1275 3809 
L 1275 3500 
L 2222 3500 
L 2222 3053 
L 1275 3053 
L 1275 0 
L 697 0 
L 697 3053 
L 147 3053 
L 147 3500 
L 697 3500 
L 697 3744 
Q 697 4328 969 4595 
Q 1241 4863 1831 4863 
L 2375 4863 
z
" transform="scale(0.015625)"/>
       <path id="DejaVuSans-6c" d="M 603 4863 
L 1178 4863 
L 1178 0 
L 603 0 
L 603 4863 
z
" transform="scale(0.015625)"/>
       <path id="DejaVuSans-75" d="M 544 1381 
L 544 3500 
L 1119 3500 
L 1119 1403 
Q 1119 906 1312 657 
Q 1506 409 1894 409 
Q 2359 409 2629 706 
Q 2900 1003 2900 1516 
L 2900 3500 
L 3475 3500 
L 3475 0 
L 2900 0 
L 2900 538 
Q 2691 219 2414 64 
Q 2138 -91 1772 -91 
Q 1169 -91 856 284 
Q 544 659 544 1381 
z
M 1991 3584 
L 1991 3584 
z
" transform="scale(0.015625)"/>
       <path id="DejaVuSans-78" d="M 3513 3500 
L 2247 1797 
L 3578 0 
L 2900 0 
L 1881 1375 
L 863 0 
L 184 0 
L 1544 1831 
L 300 3500 
L 978 3500 
L 1906 2253 
L 2834 3500 
L 3513 3500 
z
" transform="scale(0.015625)"/>
      </defs>
      <use xlink:href="#DejaVuSans-66"/>
      <use xlink:href="#DejaVuSans-6c" x="35.205078"/>
      <use xlink:href="#DejaVuSans-75" x="62.988281"/>
      <use xlink:href="#DejaVuSans-78" x="126.367188"/>
     </g>
    </g>
   </g>
   <g id="line2d_11">
    <defs>
     <path id="mac50bb3b8c" d="M 0 2.5 
C 0.663008 2.5 1.29895 2.236584 1.767767 1.767767 
C 2.236584 1.29895 2.5 0.663008 2.5 0 
C 2.5 -0.663008 2.236584 -1.29895 1.767767 -1.767767 
C 1.29895 -2.236584 0.663008 -2.5 0 -2.5 
C -0.663008 -2.5 -1.29895 -2.236584 -1.767767 -1.767767 
C -2.236584 -1.29895 -2.5 -0.663008 -2.5 0 
C -2.5 0.663008 -2.236584 1.29895 -1.767767 1.767767 
C -1.29895 2.236584 -0.663008 2.5 0 2.5 
z
" style="stroke: #ff7f00"/>
    </defs>
    <g clip-path="url(#pd7b0fc5c92)">
     <use xlink:href="#mac50bb3b8c" x="67.536986" y="199.719846" style="fill: #ffa500; stroke: #ff7f00"/>
     <use xlink:href="#mac50bb3b8c" x="69.917984" y="199.497724" style="fill: #ffa500; stroke: #ff7f00"/>
     <use xlink:href="#mac50bb3b8c" x="69.388874" y="199.465111" style="fill: #ffa500; stroke: #ff7f00"/>
     <use xlink:href="#mac50bb3b8c" x="89.495079" y="168.947191" style="fill: #ffa500; stroke: #ff7f00"/>
     <use xlink:href="#mac50bb3b8c" x="94.786186" y="180.009199" style="fill: #ffa500; stroke: #ff7f00"/>
     <use xlink:href="#mac50bb3b8c" x="100.077292" y="170.463259" style="fill: #ffa500; stroke: #ff7f00"/>
     <use xlink:href="#mac50bb3b8c" x="150.342806" y="104.205797" style="fill: #ffa500; stroke: #ff7f00"/>
     <use xlink:href="#mac50bb3b8c" x="174.152787" y="106.409384" style="fill: #ffa500; stroke: #ff7f00"/>
     <use xlink:href="#mac50bb3b8c" x="145.0517" y="111.962424" style="fill: #ffa500; stroke: #ff7f00"/>
     <use xlink:href="#mac50bb3b8c" x="152.98836" y="90.102838" style="fill: #ffa500; stroke: #ff7f00"/>
     <use xlink:href="#mac50bb3b8c" x="147.697253" y="83.668363" style="fill: #ffa500; stroke: #ff7f00"/>
     <use xlink:href="#mac50bb3b8c" x="174.152787" y="91.16056" style="fill: #ffa500; stroke: #ff7f00"/>
     <use xlink:href="#mac50bb3b8c" x="274.683814" y="53.78772" style="fill: #ffa500; stroke: #ff7f00"/>
     <use xlink:href="#mac50bb3b8c" x="242.937174" y="38.538896" style="fill: #ffa500; stroke: #ff7f00"/>
     <use xlink:href="#mac50bb3b8c" x="258.810494" y="35.453874" style="fill: #ffa500; stroke: #ff7f00"/>
     <use xlink:href="#mac50bb3b8c" x="163.570573" y="37.040457" style="fill: #ffa500; stroke: #ff7f00"/>
     <use xlink:href="#mac50bb3b8c" x="298.493794" y="40.742484" style="fill: #ffa500; stroke: #ff7f00"/>
     <use xlink:href="#mac50bb3b8c" x="306.430455" y="34.83687" style="fill: #ffa500; stroke: #ff7f00"/>
     <use xlink:href="#mac50bb3b8c" x="65.685099" y="200.476999" style="fill: #ffa500; stroke: #ff7f00"/>
     <use xlink:href="#mac50bb3b8c" x="65.685099" y="200.332443" style="fill: #ffa500; stroke: #ff7f00"/>
     <use xlink:href="#mac50bb3b8c" x="65.685099" y="199.898777" style="fill: #ffa500; stroke: #ff7f00"/>
     <use xlink:href="#mac50bb3b8c" x="168.86168" y="104.910945" style="fill: #ffa500; stroke: #ff7f00"/>
     <use xlink:href="#mac50bb3b8c" x="160.92502" y="112.314998" style="fill: #ffa500; stroke: #ff7f00"/>
     <use xlink:href="#mac50bb3b8c" x="137.11504" y="116.017024" style="fill: #ffa500; stroke: #ff7f00"/>
     <use xlink:href="#mac50bb3b8c" x="68.330652" y="197.65817" style="fill: #ffa500; stroke: #ff7f00"/>
     <use xlink:href="#mac50bb3b8c" x="65.685099" y="198.236391" style="fill: #ffa500; stroke: #ff7f00"/>
     <use xlink:href="#mac50bb3b8c" x="65.685099" y="198.417085" style="fill: #ffa500; stroke: #ff7f00"/>
     <use xlink:href="#mac50bb3b8c" x="163.570573" y="104.910945" style="fill: #ffa500; stroke: #ff7f00"/>
     <use xlink:href="#mac50bb3b8c" x="145.0517" y="97.506891" style="fill: #ffa500; stroke: #ff7f00"/>
     <use xlink:href="#mac50bb3b8c" x="121.241719" y="138.229184" style="fill: #ffa500; stroke: #ff7f00"/>
     <use xlink:href="#mac50bb3b8c" x="67.801542" y="192.648975" style="fill: #ffa500; stroke: #ff7f00"/>
     <use xlink:href="#mac50bb3b8c" x="68.066097" y="193.574482" style="fill: #ffa500; stroke: #ff7f00"/>
     <use xlink:href="#mac50bb3b8c" x="68.330652" y="191.291565" style="fill: #ffa500; stroke: #ff7f00"/>
     <use xlink:href="#mac50bb3b8c" x="64.362322" y="200.576601" style="fill: #ffa500; stroke: #ff7f00"/>
     <use xlink:href="#mac50bb3b8c" x="66.478765" y="194.499988" style="fill: #ffa500; stroke: #ff7f00"/>
     <use xlink:href="#mac50bb3b8c" x="66.478765" y="195.469567" style="fill: #ffa500; stroke: #ff7f00"/>
     <use xlink:href="#mac50bb3b8c" x="67.007875" y="193.794841" style="fill: #ffa500; stroke: #ff7f00"/>
     <use xlink:href="#mac50bb3b8c" x="66.214209" y="195.663483" style="fill: #ffa500; stroke: #ff7f00"/>
     <use xlink:href="#mac50bb3b8c" x="65.420543" y="197.902327" style="fill: #ffa500; stroke: #ff7f00"/>
     <use xlink:href="#mac50bb3b8c" x="66.214209" y="195.619411" style="fill: #ffa500; stroke: #ff7f00"/>
     <use xlink:href="#mac50bb3b8c" x="65.155988" y="194.641018" style="fill: #ffa500; stroke: #ff7f00"/>
     <use xlink:href="#mac50bb3b8c" x="67.007875" y="194.817305" style="fill: #ffa500; stroke: #ff7f00"/>
     <use xlink:href="#mac50bb3b8c" x="64.891433" y="200.624198" style="fill: #ffa500; stroke: #ff7f00"/>
     <use xlink:href="#mac50bb3b8c" x="63.833211" y="200.433808" style="fill: #ffa500; stroke: #ff7f00"/>
    </g>
   </g>
   <g id="line2d_12">
    <path d="M 63.039545 201.163636 
L 67.907364 193.528414 
L 72.775182 186.26477 
L 77.643 179.346223 
L 82.510818 172.74875 
L 88.595591 164.92033 
L 94.680364 157.521136 
L 100.765136 150.516807 
L 106.849909 143.876557 
L 112.934682 137.572719 
L 119.019455 131.580358 
L 125.104227 125.876946 
L 131.189 120.442075 
L 138.490727 114.248734 
L 145.792455 108.38661 
L 153.094182 102.829825 
L 160.395909 97.555128 
L 167.697636 92.541572 
L 174.999364 87.77023 
L 183.518045 82.487023 
L 192.036727 77.485711 
L 200.555409 72.744318 
L 209.074091 68.243096 
L 218.809727 63.370177 
L 228.545364 58.763917 
L 238.281 54.403008 
L 248.016636 50.268358 
L 258.969227 45.866022 
L 269.921818 41.706474 
L 280.874409 37.770167 
L 293.043955 33.637094 
L 305.2135 29.736617 
L 305.2135 29.736617 
" clip-path="url(#pd7b0fc5c92)" style="fill: none; stroke: #ef553b; stroke-width: 1.5; stroke-linecap: square"/>
   </g>
   <g id="patch_3">
    <path d="M 50.87 210.04 
L 50.87 14.76 
" style="fill: none; stroke: #000000; stroke-width: 0.8; stroke-linejoin: miter; stroke-linecap: square"/>
   </g>
   <g id="patch_4">
    <path d="M 318.6 210.04 
L 318.6 14.76 
" style="fill: none; stroke: #000000; stroke-width: 0.8; stroke-linejoin: miter; stroke-linecap: square"/>
   </g>
   <g id="patch_5">
    <path d="M 50.87 210.04 
L 318.6 210.04 
" style="fill: none; stroke: #000000; stroke-width: 0.8; stroke-linejoin: miter; stroke-linecap: square"/>
   </g>
   <g id="patch_6">
    <path d="M 50.87 14.76 
L 318.6 14.76 
" style="fill: none; stroke: #000000; stroke-width: 0.8; stroke-linejoin: miter; stroke-linecap: square"/>
   </g>
   <g id="legend_1">
    <g id="patch_7">
     <path d="M 198.253125 205.04 
L 311.6 205.04 
Q 313.6 205.04 313.6 203.04 
L 313.6 174.68375 
Q 313.6 172.68375 311.6 172.68375 
L 198.253125 172.68375 
Q 196.253125 172.68375 196.253125 174.68375 
L 196.253125 203.04 
Q 196.253125 205.04 198.253125 205.04 
z
" style="fill: #ffffff; opacity: 0.8; stroke: #cccccc; stroke-linejoin: miter"/>
    </g>
    <g id="line2d_13">
     <g>
      <use xlink:href="#mac50bb3b8c" x="210.253125" y="180.782188" style="fill: #ffa500; stroke: #ff7f00"/>
     </g>
    </g>
    <g id="text_13">
     <!-- data -->
     <g transform="translate(228.253125 184.282188) scale(0.1 -0.1)">
      <defs>
       <path id="DejaVuSans-64" d="M 2906 2969 
L 2906 4863 
L 3481 4863 
L 3481 0 
L 2906 0 
L 2906 525 
Q 2725 213 2448 61 
Q 2172 -91 1784 -91 
Q 1150 -91 751 415 
Q 353 922 353 1747 
Q 353 2572 751 3078 
Q 1150 3584 1784 3584 
Q 2172 3584 2448 3432 
Q 2725 3281 2906 2969 
z
M 947 1747 
Q 947 1113 1208 752 
Q 1469 391 1925 391 
Q 2381 391 2643 752 
Q 2906 1113 2906 1747 
Q 2906 2381 2643 2742 
Q 2381 3103 1925 3103 
Q 1469 3103 1208 2742 
Q 947 2381 947 1747 
z
" transform="scale(0.015625)"/>
      </defs>
      <use xlink:href="#DejaVuSans-64"/>
      <use xlink:href="#DejaVuSans-61" x="63.476562"/>
      <use xlink:href="#DejaVuSans-74" x="124.755859"/>
      <use xlink:href="#DejaVuSans-61" x="163.964844"/>
     </g>
    </g>
    <g id="line2d_14">
     <path d="M 200.253125 195.460313 
L 210.253125 195.460313 
L 220.253125 195.460313 
" style="fill: none; stroke: #ef553b; stroke-width: 1.5; stroke-linecap: square"/>
    </g>
    <g id="text_14">
     <!-- best fit (95% CI) -->
     <g transform="translate(228.253125 198.960313) scale(0.1 -0.1)">
      <defs>
       <path id="DejaVuSans-62" d="M 3116 1747 
Q 3116 2381 2855 2742 
Q 2594 3103 2138 3103 
Q 1681 3103 1420 2742 
Q 1159 2381 1159 1747 
Q 1159 1113 1420 752 
Q 1681 391 2138 391 
Q 2594 391 2855 752 
Q 3116 1113 3116 1747 
z
M 1159 2969 
Q 1341 3281 1617 3432 
Q 1894 3584 2278 3584 
Q 2916 3584 3314 3078 
Q 3713 2572 3713 1747 
Q 3713 922 3314 415 
Q 2916 -91 2278 -91 
Q 1894 -91 1617 61 
Q 1341 213 1159 525 
L 1159 0 
L 581 0 
L 581 4863 
L 1159 4863 
L 1159 2969 
z
" transform="scale(0.015625)"/>
       <path id="DejaVuSans-73" d="M 2834 3397 
L 2834 2853 
Q 2591 2978 2328 3040 
Q 2066 3103 1784 3103 
Q 1356 3103 1142 2972 
Q 928 2841 928 2578 
Q 928 2378 1081 2264 
Q 1234 2150 1697 2047 
L 1894 2003 
Q 2506 1872 2764 1633 
Q 3022 1394 3022 966 
Q 3022 478 2636 193 
Q 2250 -91 1575 -91 
Q 1294 -91 989 -36 
Q 684 19 347 128 
L 347 722 
Q 666 556 975 473 
Q 1284 391 1588 391 
Q 1994 391 2212 530 
Q 2431 669 2431 922 
Q 2431 1156 2273 1281 
Q 2116 1406 1581 1522 
L 1381 1569 
Q 847 1681 609 1914 
Q 372 2147 372 2553 
Q 372 3047 722 3315 
Q 1072 3584 1716 3584 
Q 2034 3584 2315 3537 
Q 2597 3491 2834 3397 
z
" transform="scale(0.015625)"/>
       <path id="DejaVuSans-20" transform="scale(0.015625)"/>
       <path id="DejaVuSans-28" d="M 1984 4856 
Q 1566 4138 1362 3434 
Q 1159 2731 1159 2009 
Q 1159 1288 1364 580 
Q 1569 -128 1984 -844 
L 1484 -844 
Q 1016 -109 783 600 
Q 550 1309 550 2009 
Q 550 2706 781 3412 
Q 1013 4119 1484 4856 
L 1984 4856 
z
" transform="scale(0.015625)"/>
       <path id="DejaVuSans-39" d="M 703 97 
L 703 672 
Q 941 559 1184 500 
Q 1428 441 1663 441 
Q 2288 441 2617 861 
Q 2947 1281 2994 2138 
Q 2813 1869 2534 1725 
Q 2256 1581 1919 1581 
Q 1219 1581 811 2004 
Q 403 2428 403 3163 
Q 403 3881 828 4315 
Q 1253 4750 1959 4750 
Q 2769 4750 3195 4129 
Q 3622 3509 3622 2328 
Q 3622 1225 3098 567 
Q 2575 -91 1691 -91 
Q 1453 -91 1209 -44 
Q 966 3 703 97 
z
M 1959 2075 
Q 2384 2075 2632 2365 
Q 2881 2656 2881 3163 
Q 2881 3666 2632 3958 
Q 2384 4250 1959 4250 
Q 1534 4250 1286 3958 
Q 1038 3666 1038 3163 
Q 1038 2656 1286 2365 
Q 1534 2075 1959 2075 
z
" transform="scale(0.015625)"/>
       <path id="DejaVuSans-25" d="M 4653 2053 
Q 4381 2053 4226 1822 
Q 4072 1591 4072 1178 
Q 4072 772 4226 539 
Q 4381 306 4653 306 
Q 4919 306 5073 539 
Q 5228 772 5228 1178 
Q 5228 1588 5073 1820 
Q 4919 2053 4653 2053 
z
M 4653 2450 
Q 5147 2450 5437 2106 
Q 5728 1763 5728 1178 
Q 5728 594 5436 251 
Q 5144 -91 4653 -91 
Q 4153 -91 3862 251 
Q 3572 594 3572 1178 
Q 3572 1766 3864 2108 
Q 4156 2450 4653 2450 
z
M 1428 4353 
Q 1159 4353 1004 4120 
Q 850 3888 850 3481 
Q 850 3069 1003 2837 
Q 1156 2606 1428 2606 
Q 1700 2606 1854 2837 
Q 2009 3069 2009 3481 
Q 2009 3884 1853 4118 
Q 1697 4353 1428 4353 
z
M 4250 4750 
L 4750 4750 
L 1831 -91 
L 1331 -91 
L 4250 4750 
z
M 1428 4750 
Q 1922 4750 2215 4408 
Q 2509 4066 2509 3481 
Q 2509 2891 2217 2550 
Q 1925 2209 1428 2209 
Q 931 2209 642 2551 
Q 353 2894 353 3481 
Q 353 4063 643 4406 
Q 934 4750 1428 4750 
z
" transform="scale(0.015625)"/>
       <path id="DejaVuSans-43" d="M 4122 4306 
L 4122 3641 
Q 3803 3938 3442 4084 
Q 3081 4231 2675 4231 
Q 1875 4231 1450 3742 
Q 1025 3253 1025 2328 
Q 1025 1406 1450 917 
Q 1875 428 2675 428 
Q 3081 428 3442 575 
Q 3803 722 4122 1019 
L 4122 359 
Q 3791 134 3420 21 
Q 3050 -91 2638 -91 
Q 1578 -91 968 557 
Q 359 1206 359 2328 
Q 359 3453 968 4101 
Q 1578 4750 2638 4750 
Q 3056 4750 3426 4639 
Q 3797 4528 4122 4306 
z
" transform="scale(0.015625)"/>
       <path id="DejaVuSans-49" d="M 628 4666 
L 1259 4666 
L 1259 0 
L 628 0 
L 628 4666 
z
" transform="scale(0.015625)"/>
       <path id="DejaVuSans-29" d="M 513 4856 
L 1013 4856 
Q 1481 4119 1714 3412 
Q 1947 2706 1947 2009 
Q 1947 1309 1714 600 
Q 1481 -109 1013 -844 
L 513 -844 
Q 928 -128 1133 580 
Q 1338 1288 1338 2009 
Q 1338 2731 1133 3434 
Q 928 4138 513 4856 
z
" transform="scale(0.015625)"/>
      </defs>
      <use xlink:href="#DejaVuSans-62"/>
      <use xlink:href="#DejaVuSans-65" x="63.476562"/>
      <use xlink:href="#DejaVuSans-73" x="125"/>
      <use xlink:href="#DejaVuSans-74" x="177.099609"/>
      <use xlink:href="#DejaVuSans-20" x="216.308594"/>
      <use xlink:href="#DejaVuSans-66" x="248.095703"/>
      <use xlink:href="#DejaVuSans-69" x="283.300781"/>
      <use xlink:href="#DejaVuSans-74" x="311.083984"/>
      <use xlink:href="#DejaVuSans-20" x="350.292969"/>
      <use xlink:href="#DejaVuSans-28" x="382.080078"/>
      <use xlink:href="#DejaVuSans-39" x="421.09375"/>
      <use xlink:href="#DejaVuSans-35" x="484.716797"/>
      <use xlink:href="#DejaVuSans-25" x="548.339844"/>
      <use xlink:href="#DejaVuSans-20" x="643.359375"/>
      <use xlink:href="#DejaVuSans-43" x="675.146484"/>
      <use xlink:href="#DejaVuSans-49" x="744.970703"/>
      <use xlink:href="#DejaVuSans-29" x="774.462891"/>
     </g>
    </g>
   </g>
  </g>
  <g id="axes_2">
   <g id="patch_8">
    <path d="M 369.47 210.04 
L 583.654 210.04 
L 583.654 14.76 
L 369.47 14.76 
z
" style="fill: #ffffff"/>
   </g>
   <g id="QuadContourSet_1">
    <path clip-path="url(#p4c60a9ab33)" style="fill: #471365"/>
    <path d="M 474.376449 114.744739 
L 474.786508 114.392653 
L 474.376449 114.007374 
L 473.974343 114.392653 
z
M 478.747551 110.792674 
L 479.17364 110.407347 
L 478.747551 110.00766 
L 478.312064 110.407347 
z
" clip-path="url(#p4c60a9ab33)" style="fill: #463480"/>
    <path d="M 474.376449 115.136849 
L 475.243183 114.392653 
L 474.376449 113.578297 
L 473.526526 114.392653 
z
M 473.974343 114.392653 
L 474.376449 114.007374 
L 474.786508 114.392653 
L 474.376449 114.744739 
z
M 478.747551 111.207721 
L 479.632592 110.407347 
L 478.747551 109.577146 
L 477.842989 110.407347 
z
M 478.312064 110.407347 
L 478.747551 110.00766 
L 479.17364 110.407347 
L 478.747551 110.792674 
z
" clip-path="url(#p4c60a9ab33)" style="fill: #3b528b"/>
    <path d="M 470.005347 118.644358 
L 470.339069 118.377959 
L 470.005347 118.057269 
L 469.69129 118.377959 
z
M 474.376449 115.528959 
L 475.699857 114.392653 
L 474.376449 113.14922 
L 473.078709 114.392653 
z
M 473.526526 114.392653 
L 474.376449 113.578297 
L 475.243183 114.392653 
L 474.376449 115.136849 
z
M 478.747551 111.622768 
L 480.091544 110.407347 
L 478.747551 109.146632 
L 477.373914 110.407347 
z
M 477.842989 110.407347 
L 478.747551 109.577146 
L 479.632592 110.407347 
L 478.747551 111.207721 
z
M 483.118653 106.885359 
L 483.603014 106.422041 
L 483.118653 105.960763 
L 482.59163 106.422041 
z
" clip-path="url(#p4c60a9ab33)" style="fill: #2f6c8e"/>
    <path d="M 470.005347 119.087927 
L 470.894737 118.377959 
L 470.005347 117.523301 
L 469.168365 118.377959 
z
M 469.69129 118.377959 
L 470.005347 118.057269 
L 470.339069 118.377959 
L 470.005347 118.644358 
z
M 474.376449 115.92107 
L 476.156531 114.392653 
L 474.376449 112.720143 
L 472.630892 114.392653 
z
M 473.078709 114.392653 
L 474.376449 113.14922 
L 475.699857 114.392653 
L 474.376449 115.528959 
z
M 478.747551 112.037814 
L 480.550496 110.407347 
L 478.747551 108.716118 
L 476.904839 110.407347 
z
M 477.373914 110.407347 
L 478.747551 109.146632 
L 480.091544 110.407347 
L 478.747551 111.622768 
z
M 483.118653 107.419341 
L 484.161249 106.422041 
L 483.118653 105.429131 
L 481.984225 106.422041 
z
M 482.59163 106.422041 
L 483.118653 105.960763 
L 483.603014 106.422041 
L 483.118653 106.885359 
z
" clip-path="url(#p4c60a9ab33)" style="fill: #25848e"/>
    <path d="M 465.634245 122.444955 
L 465.745861 122.363265 
L 465.634245 122.250755 
L 465.532988 122.363265 
z
M 470.005347 119.531496 
L 471.450405 118.377959 
L 470.005347 116.989333 
L 468.645441 118.377959 
z
M 469.168365 118.377959 
L 470.005347 117.523301 
L 470.894737 118.377959 
L 470.005347 119.087927 
z
M 474.376449 116.31318 
L 476.613206 114.392653 
L 478.747551 112.452861 
L 481.009448 110.407347 
L 478.747551 108.285604 
L 476.435764 110.407347 
L 474.376449 112.291065 
L 472.183076 114.392653 
z
M 472.630892 114.392653 
L 474.376449 112.720143 
L 476.156531 114.392653 
L 474.376449 115.92107 
z
M 476.904839 110.407347 
L 478.747551 108.716118 
L 480.550496 110.407347 
L 478.747551 112.037814 
z
M 483.118653 107.953324 
L 484.719484 106.422041 
L 483.118653 104.897499 
L 481.37682 106.422041 
z
M 481.984225 106.422041 
L 483.118653 105.429131 
L 484.161249 106.422041 
L 483.118653 107.419341 
z
M 487.489755 103.054561 
L 488.094591 102.436735 
L 487.489755 101.844389 
L 486.771278 102.436735 
z
" clip-path="url(#p4c60a9ab33)" style="fill: #1e9c89"/>
    <path d="M 465.634245 122.933272 
L 466.413068 122.363265 
L 465.634245 121.578205 
L 464.927704 122.363265 
z
M 465.532988 122.363265 
L 465.634245 122.250755 
L 465.745861 122.363265 
L 465.634245 122.444955 
z
M 470.005347 119.975065 
L 472.006073 118.377959 
L 474.376449 116.70529 
L 477.06988 114.392653 
L 478.747551 112.867908 
L 481.4684 110.407347 
L 483.118653 108.487307 
L 485.277719 106.422041 
L 483.118653 104.365867 
L 480.769416 106.422041 
L 478.747551 107.85509 
L 475.96669 110.407347 
L 474.376449 111.861988 
L 471.735259 114.392653 
L 470.005347 116.455366 
L 468.122517 118.377959 
z
M 468.645441 118.377959 
L 470.005347 116.989333 
L 471.450405 118.377959 
L 470.005347 119.531496 
z
M 472.183076 114.392653 
L 474.376449 112.291065 
L 476.435764 110.407347 
L 478.747551 108.285604 
L 481.009448 110.407347 
L 478.747551 112.452861 
L 476.613206 114.392653 
L 474.376449 116.31318 
z
M 481.37682 106.422041 
L 483.118653 104.897499 
L 484.719484 106.422041 
L 483.118653 107.953324 
z
M 487.489755 103.733139 
L 488.7589 102.436735 
L 487.489755 101.193798 
L 485.982152 102.436735 
z
M 486.771278 102.436735 
L 487.489755 101.844389 
L 488.094591 102.436735 
L 487.489755 103.054561 
z
M 491.860857 98.492405 
L 491.898327 98.451429 
L 491.860857 98.413207 
L 491.811126 98.451429 
z
" clip-path="url(#p4c60a9ab33)" style="fill: #2fb47c"/>
    <path d="M 465.634245 123.421589 
L 467.080276 122.363265 
L 465.634245 120.905656 
L 464.32242 122.363265 
z
M 464.927704 122.363265 
L 465.634245 121.578205 
L 466.413068 122.363265 
L 465.634245 122.933272 
z
M 470.005347 120.418635 
L 472.561741 118.377959 
L 474.376449 117.0974 
L 477.526554 114.392653 
L 478.747551 113.282955 
L 481.927352 110.407347 
L 483.118653 109.021289 
L 485.835954 106.422041 
L 487.489755 104.411717 
L 489.42321 102.436735 
L 487.489755 100.543207 
L 485.193027 102.436735 
L 483.118653 103.834235 
L 480.162011 106.422041 
L 478.747551 107.424576 
L 475.497615 110.407347 
L 474.376449 111.432911 
L 471.287442 114.392653 
L 470.005347 115.921398 
L 467.599592 118.377959 
z
M 468.122517 118.377959 
L 470.005347 116.455366 
L 471.735259 114.392653 
L 474.376449 111.861988 
L 475.96669 110.407347 
L 478.747551 107.85509 
L 480.769416 106.422041 
L 483.118653 104.365867 
L 485.277719 106.422041 
L 483.118653 108.487307 
L 481.4684 110.407347 
L 478.747551 112.867908 
L 477.06988 114.392653 
L 474.376449 116.70529 
L 472.006073 118.377959 
L 470.005347 119.975065 
z
M 485.982152 102.436735 
L 487.489755 101.193798 
L 488.7589 102.436735 
L 487.489755 103.733139 
z
M 491.860857 99.337115 
L 492.670762 98.451429 
L 491.860857 97.62528 
L 490.785938 98.451429 
z
M 491.811126 98.451429 
L 491.860857 98.413207 
L 491.898327 98.451429 
L 491.860857 98.492405 
z
" clip-path="url(#p4c60a9ab33)" style="fill: #5ec962"/>
    <path d="M 461.263143 126.653586 
L 461.720707 126.348571 
L 461.263143 125.846867 
L 460.857859 126.348571 
z
M 465.634245 123.909905 
L 467.747483 122.363265 
L 470.005347 120.862204 
L 473.117409 118.377959 
L 474.376449 117.489511 
L 477.983228 114.392653 
L 478.747551 113.698001 
L 482.386304 110.407347 
L 483.118653 109.555272 
L 486.394189 106.422041 
L 487.489755 105.090295 
L 490.087519 102.436735 
L 491.860857 100.181826 
L 493.443197 98.451429 
L 491.860857 96.837354 
L 489.760749 98.451429 
L 487.489755 99.892616 
L 484.403901 102.436735 
L 483.118653 103.302603 
L 479.554606 106.422041 
L 478.747551 106.994062 
L 475.02854 110.407347 
L 474.376449 111.003834 
L 470.839625 114.392653 
L 470.005347 115.38743 
L 467.076668 118.377959 
L 465.634245 120.233106 
L 463.717137 122.363265 
z
M 464.32242 122.363265 
L 465.634245 120.905656 
L 467.080276 122.363265 
L 465.634245 123.421589 
z
M 467.599592 118.377959 
L 470.005347 115.921398 
L 471.287442 114.392653 
L 474.376449 111.432911 
L 475.497615 110.407347 
L 478.747551 107.424576 
L 480.162011 106.422041 
L 483.118653 103.834235 
L 485.193027 102.436735 
L 487.489755 100.543207 
L 489.42321 102.436735 
L 487.489755 104.411717 
L 485.835954 106.422041 
L 483.118653 109.021289 
L 481.927352 110.407347 
L 478.747551 113.282955 
L 477.526554 114.392653 
L 474.376449 117.0974 
L 472.561741 118.377959 
L 470.005347 120.418635 
z
M 490.785938 98.451429 
L 491.860857 97.62528 
L 492.670762 98.451429 
L 491.860857 99.337115 
z
M 496.231959 94.747624 
L 496.473128 94.466122 
L 496.231959 94.206876 
L 495.866711 94.466122 
z
" clip-path="url(#p4c60a9ab33)" style="fill: #9bd93c"/>
    <path d="M 461.263143 127.175965 
L 462.504351 126.348571 
L 461.263143 124.987628 
L 460.163753 126.348571 
z
M 460.857859 126.348571 
L 461.263143 125.846867 
L 461.720707 126.348571 
L 461.263143 126.653586 
z
M 465.634245 124.398222 
L 468.41469 122.363265 
L 470.005347 121.305773 
L 473.673077 118.377959 
L 474.376449 117.881621 
L 478.439903 114.392653 
L 478.747551 114.113048 
L 482.845256 110.407347 
L 483.118653 110.089254 
L 486.952424 106.422041 
L 487.489755 105.768873 
L 490.751828 102.436735 
L 491.860857 101.026536 
L 494.215631 98.451429 
L 491.860857 96.049428 
L 488.735561 98.451429 
L 487.489755 99.242025 
L 483.614776 102.436735 
L 483.118653 102.770971 
L 478.947202 106.422041 
L 478.747551 106.563548 
L 474.559465 110.407347 
L 474.376449 110.574757 
L 470.391808 114.392653 
L 470.005347 114.853462 
L 466.553744 118.377959 
L 465.634245 119.560556 
L 463.111853 122.363265 
z
M 463.717137 122.363265 
L 465.634245 120.233106 
L 467.076668 118.377959 
L 470.005347 115.38743 
L 470.839625 114.392653 
L 474.376449 111.003834 
L 475.02854 110.407347 
L 478.747551 106.994062 
L 479.554606 106.422041 
L 483.118653 103.302603 
L 484.403901 102.436735 
L 487.489755 99.892616 
L 489.760749 98.451429 
L 491.860857 96.837354 
L 493.443197 98.451429 
L 491.860857 100.181826 
L 490.087519 102.436735 
L 487.489755 105.090295 
L 486.394189 106.422041 
L 483.118653 109.555272 
L 482.386304 110.407347 
L 478.747551 113.698001 
L 477.983228 114.392653 
L 474.376449 117.489511 
L 473.117409 118.377959 
L 470.005347 120.862204 
L 467.747483 122.363265 
L 465.634245 123.909905 
z
M 496.231959 95.773508 
L 497.352026 94.466122 
L 496.231959 93.262097 
L 494.535623 94.466122 
z
M 495.866711 94.466122 
L 496.231959 94.206876 
L 496.473128 94.466122 
L 496.231959 94.747624 
z
" clip-path="url(#p4c60a9ab33)" style="fill: #dfe318"/>
   </g>
   <g id="matplotlib.axis_3">
    <g id="xtick_6">
     <g id="line2d_15">
      <g>
       <use xlink:href="#mb6b1691ff7" x="393.861156" y="210.04" style="stroke: #000000; stroke-width: 0.8"/>
      </g>
     </g>
     <g id="text_15">
      <!-- 400 -->
      <g transform="translate(384.317406 224.638438) scale(0.1 -0.1)">
       <use xlink:href="#DejaVuSans-34"/>
       <use xlink:href="#DejaVuSans-30" x="63.623047"/>
       <use xlink:href="#DejaVuSans-30" x="127.246094"/>
      </g>
     </g>
    </g>
    <g id="xtick_7">
     <g id="line2d_16">
      <g>
       <use xlink:href="#mb6b1691ff7" x="435.392834" y="210.04" style="stroke: #000000; stroke-width: 0.8"/>
      </g>
     </g>
     <g id="text_16">
      <!-- 600 -->
      <g transform="translate(425.849084 224.638438) scale(0.1 -0.1)">
       <defs>
        <path id="DejaVuSans-36" d="M 2113 2584 
Q 1688 2584 1439 2293 
Q 1191 2003 1191 1497 
Q 1191 994 1439 701 
Q 1688 409 2113 409 
Q 2538 409 2786 701 
Q 3034 994 3034 1497 
Q 3034 2003 2786 2293 
Q 2538 2584 2113 2584 
z
M 3366 4563 
L 3366 3988 
Q 3128 4100 2886 4159 
Q 2644 4219 2406 4219 
Q 1781 4219 1451 3797 
Q 1122 3375 1075 2522 
Q 1259 2794 1537 2939 
Q 1816 3084 2150 3084 
Q 2853 3084 3261 2657 
Q 3669 2231 3669 1497 
Q 3669 778 3244 343 
Q 2819 -91 2113 -91 
Q 1303 -91 875 529 
Q 447 1150 447 2328 
Q 447 3434 972 4092 
Q 1497 4750 2381 4750 
Q 2619 4750 2861 4703 
Q 3103 4656 3366 4563 
z
" transform="scale(0.015625)"/>
       </defs>
       <use xlink:href="#DejaVuSans-36"/>
       <use xlink:href="#DejaVuSans-30" x="63.623047"/>
       <use xlink:href="#DejaVuSans-30" x="127.246094"/>
      </g>
     </g>
    </g>
    <g id="xtick_8">
     <g id="line2d_17">
      <g>
       <use xlink:href="#mb6b1691ff7" x="476.924513" y="210.04" style="stroke: #000000; stroke-width: 0.8"/>
      </g>
     </g>
     <g id="text_17">
      <!-- 800 -->
      <g transform="translate(467.380763 224.638438) scale(0.1 -0.1)">
       <defs>
        <path id="DejaVuSans-38" d="M 2034 2216 
Q 1584 2216 1326 1975 
Q 1069 1734 1069 1313 
Q 1069 891 1326 650 
Q 1584 409 2034 409 
Q 2484 409 2743 651 
Q 3003 894 3003 1313 
Q 3003 1734 2745 1975 
Q 2488 2216 2034 2216 
z
M 1403 2484 
Q 997 2584 770 2862 
Q 544 3141 544 3541 
Q 544 4100 942 4425 
Q 1341 4750 2034 4750 
Q 2731 4750 3128 4425 
Q 3525 4100 3525 3541 
Q 3525 3141 3298 2862 
Q 3072 2584 2669 2484 
Q 3125 2378 3379 2068 
Q 3634 1759 3634 1313 
Q 3634 634 3220 271 
Q 2806 -91 2034 -91 
Q 1263 -91 848 271 
Q 434 634 434 1313 
Q 434 1759 690 2068 
Q 947 2378 1403 2484 
z
M 1172 3481 
Q 1172 3119 1398 2916 
Q 1625 2713 2034 2713 
Q 2441 2713 2670 2916 
Q 2900 3119 2900 3481 
Q 2900 3844 2670 4047 
Q 2441 4250 2034 4250 
Q 1625 4250 1398 4047 
Q 1172 3844 1172 3481 
z
" transform="scale(0.015625)"/>
       </defs>
       <use xlink:href="#DejaVuSans-38"/>
       <use xlink:href="#DejaVuSans-30" x="63.623047"/>
       <use xlink:href="#DejaVuSans-30" x="127.246094"/>
      </g>
     </g>
    </g>
    <g id="xtick_9">
     <g id="line2d_18">
      <g>
       <use xlink:href="#mb6b1691ff7" x="518.456191" y="210.04" style="stroke: #000000; stroke-width: 0.8"/>
      </g>
     </g>
     <g id="text_18">
      <!-- 1000 -->
      <g transform="translate(505.731191 224.638438) scale(0.1 -0.1)">
       <use xlink:href="#DejaVuSans-31"/>
       <use xlink:href="#DejaVuSans-30" x="63.623047"/>
       <use xlink:href="#DejaVuSans-30" x="127.246094"/>
       <use xlink:href="#DejaVuSans-30" x="190.869141"/>
      </g>
     </g>
    </g>
    <g id="xtick_10">
     <g id="line2d_19">
      <g>
       <use xlink:href="#mb6b1691ff7" x="559.98787" y="210.04" style="stroke: #000000; stroke-width: 0.8"/>
      </g>
     </g>
     <g id="text_19">
      <!-- 1200 -->
      <g transform="translate(547.26287 224.638438) scale(0.1 -0.1)">
       <use xlink:href="#DejaVuSans-31"/>
       <use xlink:href="#DejaVuSans-32" x="63.623047"/>
       <use xlink:href="#DejaVuSans-30" x="127.246094"/>
       <use xlink:href="#DejaVuSans-30" x="190.869141"/>
      </g>
     </g>
    </g>
    <g id="text_20">
     <!-- vmax -->
     <g transform="translate(462.708875 238.316563) scale(0.1 -0.1)">
      <defs>
       <path id="DejaVuSans-76" d="M 191 3500 
L 800 3500 
L 1894 563 
L 2988 3500 
L 3597 3500 
L 2284 0 
L 1503 0 
L 191 3500 
z
" transform="scale(0.015625)"/>
       <path id="DejaVuSans-6d" d="M 3328 2828 
Q 3544 3216 3844 3400 
Q 4144 3584 4550 3584 
Q 5097 3584 5394 3201 
Q 5691 2819 5691 2113 
L 5691 0 
L 5113 0 
L 5113 2094 
Q 5113 2597 4934 2840 
Q 4756 3084 4391 3084 
Q 3944 3084 3684 2787 
Q 3425 2491 3425 1978 
L 3425 0 
L 2847 0 
L 2847 2094 
Q 2847 2600 2669 2842 
Q 2491 3084 2119 3084 
Q 1678 3084 1418 2786 
Q 1159 2488 1159 1978 
L 1159 0 
L 581 0 
L 581 3500 
L 1159 3500 
L 1159 2956 
Q 1356 3278 1631 3431 
Q 1906 3584 2284 3584 
Q 2666 3584 2933 3390 
Q 3200 3197 3328 2828 
z
" transform="scale(0.015625)"/>
      </defs>
      <use xlink:href="#DejaVuSans-76"/>
      <use xlink:href="#DejaVuSans-6d" x="59.179688"/>
      <use xlink:href="#DejaVuSans-61" x="156.591797"/>
      <use xlink:href="#DejaVuSans-78" x="217.871094"/>
     </g>
    </g>
   </g>
   <g id="matplotlib.axis_4">
    <g id="ytick_6">
     <g id="line2d_20">
      <g>
       <use xlink:href="#m6a03b1e477" x="369.47" y="201.23519" style="stroke: #000000; stroke-width: 0.8"/>
      </g>
     </g>
     <g id="text_21">
      <!-- 0 -->
      <g transform="translate(356.1075 205.034409) scale(0.1 -0.1)">
       <use xlink:href="#DejaVuSans-30"/>
      </g>
     </g>
    </g>
    <g id="ytick_7">
     <g id="line2d_21">
      <g>
       <use xlink:href="#m6a03b1e477" x="369.47" y="174.369621" style="stroke: #000000; stroke-width: 0.8"/>
      </g>
     </g>
     <g id="text_22">
      <!-- 50 -->
      <g transform="translate(349.745 178.16884) scale(0.1 -0.1)">
       <use xlink:href="#DejaVuSans-35"/>
       <use xlink:href="#DejaVuSans-30" x="63.623047"/>
      </g>
     </g>
    </g>
    <g id="ytick_8">
     <g id="line2d_22">
      <g>
       <use xlink:href="#m6a03b1e477" x="369.47" y="147.504052" style="stroke: #000000; stroke-width: 0.8"/>
      </g>
     </g>
     <g id="text_23">
      <!-- 100 -->
      <g transform="translate(343.3825 151.303271) scale(0.1 -0.1)">
       <use xlink:href="#DejaVuSans-31"/>
       <use xlink:href="#DejaVuSans-30" x="63.623047"/>
       <use xlink:href="#DejaVuSans-30" x="127.246094"/>
      </g>
     </g>
    </g>
    <g id="ytick_9">
     <g id="line2d_23">
      <g>
       <use xlink:href="#m6a03b1e477" x="369.47" y="120.638483" style="stroke: #000000; stroke-width: 0.8"/>
      </g>
     </g>
     <g id="text_24">
      <!-- 150 -->
      <g transform="translate(343.3825 124.437702) scale(0.1 -0.1)">
       <use xlink:href="#DejaVuSans-31"/>
       <use xlink:href="#DejaVuSans-35" x="63.623047"/>
       <use xlink:href="#DejaVuSans-30" x="127.246094"/>
      </g>
     </g>
    </g>
    <g id="ytick_10">
     <g id="line2d_24">
      <g>
       <use xlink:href="#m6a03b1e477" x="369.47" y="93.772914" style="stroke: #000000; stroke-width: 0.8"/>
      </g>
     </g>
     <g id="text_25">
      <!-- 200 -->
      <g transform="translate(343.3825 97.572133) scale(0.1 -0.1)">
       <use xlink:href="#DejaVuSans-32"/>
       <use xlink:href="#DejaVuSans-30" x="63.623047"/>
       <use xlink:href="#DejaVuSans-30" x="127.246094"/>
      </g>
     </g>
    </g>
    <g id="ytick_11">
     <g id="line2d_25">
      <g>
       <use xlink:href="#m6a03b1e477" x="369.47" y="66.907345" style="stroke: #000000; stroke-width: 0.8"/>
      </g>
     </g>
     <g id="text_26">
      <!-- 250 -->
      <g transform="translate(343.3825 70.706564) scale(0.1 -0.1)">
       <use xlink:href="#DejaVuSans-32"/>
       <use xlink:href="#DejaVuSans-35" x="63.623047"/>
       <use xlink:href="#DejaVuSans-30" x="127.246094"/>
      </g>
     </g>
    </g>
    <g id="ytick_12">
     <g id="line2d_26">
      <g>
       <use xlink:href="#m6a03b1e477" x="369.47" y="40.041776" style="stroke: #000000; stroke-width: 0.8"/>
      </g>
     </g>
     <g id="text_27">
      <!-- 300 -->
      <g transform="translate(343.3825 43.840995) scale(0.1 -0.1)">
       <use xlink:href="#DejaVuSans-33"/>
       <use xlink:href="#DejaVuSans-30" x="63.623047"/>
       <use xlink:href="#DejaVuSans-30" x="127.246094"/>
      </g>
     </g>
    </g>
    <g id="text_28">
     <!-- km -->
     <g transform="translate(337.302813 120.165625) rotate(-90) scale(0.1 -0.1)">
      <defs>
       <path id="DejaVuSans-6b" d="M 581 4863 
L 1159 4863 
L 1159 1991 
L 2875 3500 
L 3609 3500 
L 1753 1863 
L 3688 0 
L 2938 0 
L 1159 1709 
L 1159 0 
L 581 0 
L 581 4863 
z
" transform="scale(0.015625)"/>
      </defs>
      <use xlink:href="#DejaVuSans-6b"/>
      <use xlink:href="#DejaVuSans-6d" x="57.910156"/>
     </g>
    </g>
   </g>
   <g id="patch_9">
    <path d="M 369.47 210.04 
L 369.47 14.76 
" style="fill: none; stroke: #000000; stroke-width: 0.8; stroke-linejoin: miter; stroke-linecap: square"/>
   </g>
   <g id="patch_10">
    <path d="M 583.654 210.04 
L 583.654 14.76 
" style="fill: none; stroke: #000000; stroke-width: 0.8; stroke-linejoin: miter; stroke-linecap: square"/>
   </g>
   <g id="patch_11">
    <path d="M 369.47 210.04 
L 583.654 210.04 
" style="fill: none; stroke: #000000; stroke-width: 0.8; stroke-linejoin: miter; stroke-linecap: square"/>
   </g>
   <g id="patch_12">
    <path d="M 369.47 14.76 
L 583.654 14.76 
" style="fill: none; stroke: #000000; stroke-width: 0.8; stroke-linejoin: miter; stroke-linecap: square"/>
   </g>
  </g>
  <g id="axes_3">
   <g id="patch_13">
    <path d="M 597.0405 210.04 
L 606.8045 210.04 
L 606.8045 14.76 
L 597.0405 14.76 
z
" style="fill: #ffffff"/>
   </g>
   <g id="QuadMesh_1">
    <path d="M 597.0405 210.04 
L 606.8045 210.04 
L 606.8045 190.512 
L 597.0405 190.512 
L 597.0405 210.04 
" clip-path="url(#pcd5a0c33dd)" style="fill: #471365"/>
    <path d="M 597.0405 190.512 
L 606.8045 190.512 
L 606.8045 170.984 
L 597.0405 170.984 
L 597.0405 190.512 
" clip-path="url(#pcd5a0c33dd)" style="fill: #463480"/>
    <path d="M 597.0405 170.984 
L 606.8045 170.984 
L 606.8045 151.456 
L 597.0405 151.456 
L 597.0405 170.984 
" clip-path="url(#pcd5a0c33dd)" style="fill: #3b528b"/>
    <path d="M 597.0405 151.456 
L 606.8045 151.456 
L 606.8045 131.928 
L 597.0405 131.928 
L 597.0405 151.456 
" clip-path="url(#pcd5a0c33dd)" style="fill: #2f6c8e"/>
    <path d="M 597.0405 131.928 
L 606.8045 131.928 
L 606.8045 112.4 
L 597.0405 112.4 
L 597.0405 131.928 
" clip-path="url(#pcd5a0c33dd)" style="fill: #25848e"/>
    <path d="M 597.0405 112.4 
L 606.8045 112.4 
L 606.8045 92.872 
L 597.0405 92.872 
L 597.0405 112.4 
" clip-path="url(#pcd5a0c33dd)" style="fill: #1e9c89"/>
    <path d="M 597.0405 92.872 
L 606.8045 92.872 
L 606.8045 73.344 
L 597.0405 73.344 
L 597.0405 92.872 
" clip-path="url(#pcd5a0c33dd)" style="fill: #2fb47c"/>
    <path d="M 597.0405 73.344 
L 606.8045 73.344 
L 606.8045 53.816 
L 597.0405 53.816 
L 597.0405 73.344 
" clip-path="url(#pcd5a0c33dd)" style="fill: #5ec962"/>
    <path d="M 597.0405 53.816 
L 606.8045 53.816 
L 606.8045 34.288 
L 597.0405 34.288 
L 597.0405 53.816 
" clip-path="url(#pcd5a0c33dd)" style="fill: #9bd93c"/>
    <path d="M 597.0405 34.288 
L 606.8045 34.288 
L 606.8045 14.76 
L 597.0405 14.76 
L 597.0405 34.288 
" clip-path="url(#pcd5a0c33dd)" style="fill: #dfe318"/>
   </g>
   <g id="matplotlib.axis_5"/>
   <g id="matplotlib.axis_6">
    <g id="ytick_13">
     <g id="line2d_27">
      <defs>
       <path id="m64125d1af2" d="M 0 0 
L 3.5 0 
" style="stroke: #000000; stroke-width: 0.8"/>
      </defs>
      <g>
       <use xlink:href="#m64125d1af2" x="606.8045" y="210.04" style="stroke: #000000; stroke-width: 0.8"/>
      </g>
     </g>
     <g id="text_29">
      <!-- 0.0 -->
      <g transform="translate(613.8045 213.839219) scale(0.1 -0.1)">
       <defs>
        <path id="DejaVuSans-2e" d="M 684 794 
L 1344 794 
L 1344 0 
L 684 0 
L 684 794 
z
" transform="scale(0.015625)"/>
       </defs>
       <use xlink:href="#DejaVuSans-30"/>
       <use xlink:href="#DejaVuSans-2e" x="63.623047"/>
       <use xlink:href="#DejaVuSans-30" x="95.410156"/>
      </g>
     </g>
    </g>
    <g id="ytick_14">
     <g id="line2d_28">
      <g>
       <use xlink:href="#m64125d1af2" x="606.8045" y="170.984" style="stroke: #000000; stroke-width: 0.8"/>
      </g>
     </g>
     <g id="text_30">
      <!-- 0.2 -->
      <g transform="translate(613.8045 174.783219) scale(0.1 -0.1)">
       <use xlink:href="#DejaVuSans-30"/>
       <use xlink:href="#DejaVuSans-2e" x="63.623047"/>
       <use xlink:href="#DejaVuSans-32" x="95.410156"/>
      </g>
     </g>
    </g>
    <g id="ytick_15">
     <g id="line2d_29">
      <g>
       <use xlink:href="#m64125d1af2" x="606.8045" y="131.928" style="stroke: #000000; stroke-width: 0.8"/>
      </g>
     </g>
     <g id="text_31">
      <!-- 0.4 -->
      <g transform="translate(613.8045 135.727219) scale(0.1 -0.1)">
       <use xlink:href="#DejaVuSans-30"/>
       <use xlink:href="#DejaVuSans-2e" x="63.623047"/>
       <use xlink:href="#DejaVuSans-34" x="95.410156"/>
      </g>
     </g>
    </g>
    <g id="ytick_16">
     <g id="line2d_30">
      <g>
       <use xlink:href="#m64125d1af2" x="606.8045" y="92.872" style="stroke: #000000; stroke-width: 0.8"/>
      </g>
     </g>
     <g id="text_32">
      <!-- 0.6 -->
      <g transform="translate(613.8045 96.671219) scale(0.1 -0.1)">
       <use xlink:href="#DejaVuSans-30"/>
       <use xlink:href="#DejaVuSans-2e" x="63.623047"/>
       <use xlink:href="#DejaVuSans-36" x="95.410156"/>
      </g>
     </g>
    </g>
    <g id="ytick_17">
     <g id="line2d_31">
      <g>
       <use xlink:href="#m64125d1af2" x="606.8045" y="53.816" style="stroke: #000000; stroke-width: 0.8"/>
      </g>
     </g>
     <g id="text_33">
      <!-- 0.8 -->
      <g transform="translate(613.8045 57.615219) scale(0.1 -0.1)">
       <use xlink:href="#DejaVuSans-30"/>
       <use xlink:href="#DejaVuSans-2e" x="63.623047"/>
       <use xlink:href="#DejaVuSans-38" x="95.410156"/>
      </g>
     </g>
    </g>
    <g id="ytick_18">
     <g id="line2d_32">
      <g>
       <use xlink:href="#m64125d1af2" x="606.8045" y="14.76" style="stroke: #000000; stroke-width: 0.8"/>
      </g>
     </g>
     <g id="text_34">
      <!-- 1.0 -->
      <g transform="translate(613.8045 18.559219) scale(0.1 -0.1)">
       <use xlink:href="#DejaVuSans-31"/>
       <use xlink:href="#DejaVuSans-2e" x="63.623047"/>
       <use xlink:href="#DejaVuSans-30" x="95.410156"/>
      </g>
     </g>
    </g>
   </g>
   <g id="LineCollection_1"/>
   <g id="patch_14">
    <path d="M 597.0405 210.04 
L 601.9225 210.04 
L 606.8045 210.04 
L 606.8045 14.76 
L 601.9225 14.76 
L 597.0405 14.76 
L 597.0405 210.04 
z
" style="fill: none; stroke: #000000; stroke-width: 0.8; stroke-linejoin: miter; stroke-linecap: square"/>
   </g>
  </g>
 </g>
 <defs>
  <clipPath id="pd7b0fc5c92">
   <rect x="50.87" y="14.76" width="267.73" height="195.28"/>
  </clipPath>
  <clipPath id="p4c60a9ab33">
   <rect x="369.47" y="14.76" width="214.184" height="195.28"/>
  </clipPath>
  <clipPath id="pcd5a0c33dd">
   <rect x="597.0405" y="14.76" width="9.764" height="195.28"/>
  </clipPath>
 </defs>
</svg>
