<?xml version="1.0" encoding="utf-8" standalone="no"?>
<!DOCTYPE svg PUBLIC "-//W3C//DTD SVG 1.1//EN"
  "http://www.w3.org/Graphics/SVG/1.1/DTD/svg11.dtd">
<svg xmlns:xlink="http://www.w3.org/1999/xlink" width="792pt" height="252pt" viewBox="0 0 792 252" xmlns="http://www.w3.org/2000/svg" version="1.1">
 <metadata>
  <rdf:RDF xmlns:dc="http://purl.org/dc/elements/1.1/" xmlns:cc="http://creativecommons.org/ns#" xmlns:rdf="http://www.w3.org/1999/02/22-rdf-syntax-ns#">
   <cc:Work>
    <dc:type rdf:resource="http://purl.org/dc/dcmitype/StillImage"/>
    <dc:date>2024-07-25T16:34:53.912551</dc:date>
    <dc:format>image/svg+xml</dc:format>
    <dc:creator>
     <cc:Agent>
      <dc:title>Matplotlib v3.9.1, https://matplotlib.org/</dc:title>
     </cc:Agent>
    </dc:creator>
   </cc:Work>
  </rdf:RDF>
 </metadata>
 <defs>
  <style type="text/css">*{stroke-linejoin: round; stroke-linecap: butt}</style>
 </defs>
 <g id="figure_1">
  <g id="patch_1">
   <path d="M 0 252 
L 792 252 
L 792 0 
L 0 0 
z
" style="fill: #ffffff"/>
  </g>
  <g id="axes_1">
   <g id="patch_2">
    <path d="M 48.62 210.04 
L 255.05216 210.04 
L 255.05216 14.76 
L 48.62 14.76 
z
" style="fill: #ffffff"/>
   </g>
   <g id="matplotlib.axis_1">
    <g id="xtick_1">
     <g id="line2d_1">
      <defs>
       <path id="mafab5ab04b" d="M 0 0 
L 0 3.5 
" style="stroke: #262626; stroke-width: 0.8"/>
      </defs>
      <g>
       <use xlink:href="#mafab5ab04b" x="58.00328" y="210.04" style="fill: #262626; stroke: #262626; stroke-width: 0.8"/>
      </g>
     </g>
     <g id="text_1">
      <!-- 0 -->
      <g style="fill: #262626" transform="translate(55.222811 224.197812) scale(0.1 -0.1)">
       <defs>
        <path id="ArialMT-30" d="M 266 2259 
Q 266 3072 433 3567 
Q 600 4063 929 4331 
Q 1259 4600 1759 4600 
Q 2128 4600 2406 4451 
Q 2684 4303 2865 4023 
Q 3047 3744 3150 3342 
Q 3253 2941 3253 2259 
Q 3253 1453 3087 958 
Q 2922 463 2592 192 
Q 2263 -78 1759 -78 
Q 1097 -78 719 397 
Q 266 969 266 2259 
z
M 844 2259 
Q 844 1131 1108 757 
Q 1372 384 1759 384 
Q 2147 384 2411 759 
Q 2675 1134 2675 2259 
Q 2675 3391 2411 3762 
Q 2147 4134 1753 4134 
Q 1366 4134 1134 3806 
Q 844 3388 844 2259 
z
" transform="scale(0.015625)"/>
       </defs>
       <use xlink:href="#ArialMT-30"/>
      </g>
     </g>
    </g>
    <g id="xtick_2">
     <g id="line2d_2">
      <g>
       <use xlink:href="#mafab5ab04b" x="95.725009" y="210.04" style="fill: #262626; stroke: #262626; stroke-width: 0.8"/>
      </g>
     </g>
     <g id="text_2">
      <!-- 5 -->
      <g style="fill: #262626" transform="translate(92.94454 224.197812) scale(0.1 -0.1)">
       <defs>
        <path id="ArialMT-35" d="M 266 1200 
L 856 1250 
Q 922 819 1161 601 
Q 1400 384 1738 384 
Q 2144 384 2425 690 
Q 2706 997 2706 1503 
Q 2706 1984 2436 2262 
Q 2166 2541 1728 2541 
Q 1456 2541 1237 2417 
Q 1019 2294 894 2097 
L 366 2166 
L 809 4519 
L 3088 4519 
L 3088 3981 
L 1259 3981 
L 1013 2750 
Q 1425 3038 1878 3038 
Q 2478 3038 2890 2622 
Q 3303 2206 3303 1553 
Q 3303 931 2941 478 
Q 2500 -78 1738 -78 
Q 1113 -78 717 272 
Q 322 622 266 1200 
z
" transform="scale(0.015625)"/>
       </defs>
       <use xlink:href="#ArialMT-35"/>
      </g>
     </g>
    </g>
    <g id="xtick_3">
     <g id="line2d_3">
      <g>
       <use xlink:href="#mafab5ab04b" x="133.446737" y="210.04" style="fill: #262626; stroke: #262626; stroke-width: 0.8"/>
      </g>
     </g>
     <g id="text_3">
      <!-- 10 -->
      <g style="fill: #262626" transform="translate(127.8858 224.197812) scale(0.1 -0.1)">
       <defs>
        <path id="ArialMT-31" d="M 2384 0 
L 1822 0 
L 1822 3584 
Q 1619 3391 1289 3197 
Q 959 3003 697 2906 
L 697 3450 
Q 1169 3672 1522 3987 
Q 1875 4303 2022 4600 
L 2384 4600 
L 2384 0 
z
" transform="scale(0.015625)"/>
       </defs>
       <use xlink:href="#ArialMT-31"/>
       <use xlink:href="#ArialMT-30" x="55.615234"/>
      </g>
     </g>
    </g>
    <g id="xtick_4">
     <g id="line2d_4">
      <g>
       <use xlink:href="#mafab5ab04b" x="171.168466" y="210.04" style="fill: #262626; stroke: #262626; stroke-width: 0.8"/>
      </g>
     </g>
     <g id="text_4">
      <!-- 15 -->
      <g style="fill: #262626" transform="translate(165.607528 224.197812) scale(0.1 -0.1)">
       <use xlink:href="#ArialMT-31"/>
       <use xlink:href="#ArialMT-35" x="55.615234"/>
      </g>
     </g>
    </g>
    <g id="xtick_5">
     <g id="line2d_5">
      <g>
       <use xlink:href="#mafab5ab04b" x="208.890194" y="210.04" style="fill: #262626; stroke: #262626; stroke-width: 0.8"/>
      </g>
     </g>
     <g id="text_5">
      <!-- 20 -->
      <g style="fill: #262626" transform="translate(203.329257 224.197812) scale(0.1 -0.1)">
       <defs>
        <path id="ArialMT-32" d="M 3222 541 
L 3222 0 
L 194 0 
Q 188 203 259 391 
Q 375 700 629 1000 
Q 884 1300 1366 1694 
Q 2113 2306 2375 2664 
Q 2638 3022 2638 3341 
Q 2638 3675 2398 3904 
Q 2159 4134 1775 4134 
Q 1369 4134 1125 3890 
Q 881 3647 878 3216 
L 300 3275 
Q 359 3922 746 4261 
Q 1134 4600 1788 4600 
Q 2447 4600 2831 4234 
Q 3216 3869 3216 3328 
Q 3216 3053 3103 2787 
Q 2991 2522 2730 2228 
Q 2469 1934 1863 1422 
Q 1356 997 1212 845 
Q 1069 694 975 541 
L 3222 541 
z
" transform="scale(0.015625)"/>
       </defs>
       <use xlink:href="#ArialMT-32"/>
       <use xlink:href="#ArialMT-30" x="55.615234"/>
      </g>
     </g>
    </g>
    <g id="xtick_6">
     <g id="line2d_6">
      <g>
       <use xlink:href="#mafab5ab04b" x="246.611923" y="210.04" style="fill: #262626; stroke: #262626; stroke-width: 0.8"/>
      </g>
     </g>
     <g id="text_6">
      <!-- 25 -->
      <g style="fill: #262626" transform="translate(241.050985 224.197812) scale(0.1 -0.1)">
       <use xlink:href="#ArialMT-32"/>
       <use xlink:href="#ArialMT-35" x="55.615234"/>
      </g>
     </g>
    </g>
    <g id="text_7">
     <!-- [GGPP] (µM) -->
     <g style="fill: #262626" transform="translate(122.844674 237.465) scale(0.1 -0.1)">
      <defs>
       <path id="ArialMT-5b" d="M 434 -1272 
L 434 4581 
L 1675 4581 
L 1675 4116 
L 997 4116 
L 997 -806 
L 1675 -806 
L 1675 -1272 
L 434 -1272 
z
" transform="scale(0.015625)"/>
       <path id="ArialMT-47" d="M 2638 1797 
L 2638 2334 
L 4578 2338 
L 4578 638 
Q 4131 281 3656 101 
Q 3181 -78 2681 -78 
Q 2006 -78 1454 211 
Q 903 500 622 1047 
Q 341 1594 341 2269 
Q 341 2938 620 3517 
Q 900 4097 1425 4378 
Q 1950 4659 2634 4659 
Q 3131 4659 3532 4498 
Q 3934 4338 4162 4050 
Q 4391 3763 4509 3300 
L 3963 3150 
Q 3859 3500 3706 3700 
Q 3553 3900 3268 4020 
Q 2984 4141 2638 4141 
Q 2222 4141 1919 4014 
Q 1616 3888 1430 3681 
Q 1244 3475 1141 3228 
Q 966 2803 966 2306 
Q 966 1694 1177 1281 
Q 1388 869 1791 669 
Q 2194 469 2647 469 
Q 3041 469 3416 620 
Q 3791 772 3984 944 
L 3984 1797 
L 2638 1797 
z
" transform="scale(0.015625)"/>
       <path id="ArialMT-50" d="M 494 0 
L 494 4581 
L 2222 4581 
Q 2678 4581 2919 4538 
Q 3256 4481 3484 4323 
Q 3713 4166 3852 3881 
Q 3991 3597 3991 3256 
Q 3991 2672 3619 2267 
Q 3247 1863 2275 1863 
L 1100 1863 
L 1100 0 
L 494 0 
z
M 1100 2403 
L 2284 2403 
Q 2872 2403 3119 2622 
Q 3366 2841 3366 3238 
Q 3366 3525 3220 3729 
Q 3075 3934 2838 4000 
Q 2684 4041 2272 4041 
L 1100 4041 
L 1100 2403 
z
" transform="scale(0.015625)"/>
       <path id="ArialMT-5d" d="M 1363 -1272 
L 122 -1272 
L 122 -806 
L 800 -806 
L 800 4116 
L 122 4116 
L 122 4581 
L 1363 4581 
L 1363 -1272 
z
" transform="scale(0.015625)"/>
       <path id="ArialMT-20" transform="scale(0.015625)"/>
       <path id="ArialMT-28" d="M 1497 -1347 
Q 1031 -759 709 28 
Q 388 816 388 1659 
Q 388 2403 628 3084 
Q 909 3875 1497 4659 
L 1900 4659 
Q 1522 4009 1400 3731 
Q 1209 3300 1100 2831 
Q 966 2247 966 1656 
Q 966 153 1900 -1347 
L 1497 -1347 
z
" transform="scale(0.015625)"/>
       <path id="ArialMT-b5" d="M 3181 3319 
L 3181 0 
L 2678 0 
L 2678 394 
Q 2516 144 2356 50 
Q 2138 -78 1847 -78 
Q 1588 -78 1388 25 
Q 1238 103 1056 334 
L 1056 -1272 
L 500 -1272 
L 500 3319 
L 1056 3319 
L 1056 1913 
Q 1056 1147 1137 920 
Q 1219 694 1401 562 
Q 1584 431 1822 431 
Q 2072 431 2269 568 
Q 2466 706 2547 923 
Q 2628 1141 2628 1903 
L 2628 3319 
L 3181 3319 
z
" transform="scale(0.015625)"/>
       <path id="ArialMT-4d" d="M 475 0 
L 475 4581 
L 1388 4581 
L 2472 1338 
Q 2622 884 2691 659 
Q 2769 909 2934 1394 
L 4031 4581 
L 4847 4581 
L 4847 0 
L 4263 0 
L 4263 3834 
L 2931 0 
L 2384 0 
L 1059 3900 
L 1059 0 
L 475 0 
z
" transform="scale(0.015625)"/>
       <path id="ArialMT-29" d="M 791 -1347 
L 388 -1347 
Q 1322 153 1322 1656 
Q 1322 2244 1188 2822 
Q 1081 3291 891 3722 
Q 769 4003 388 4659 
L 791 4659 
Q 1378 3875 1659 3084 
Q 1900 2403 1900 1659 
Q 1900 816 1576 28 
Q 1253 -759 791 -1347 
z
" transform="scale(0.015625)"/>
      </defs>
      <use xlink:href="#ArialMT-5b"/>
      <use xlink:href="#ArialMT-47" x="27.783203"/>
      <use xlink:href="#ArialMT-47" x="105.566406"/>
      <use xlink:href="#ArialMT-50" x="183.349609"/>
      <use xlink:href="#ArialMT-50" x="250.048828"/>
      <use xlink:href="#ArialMT-5d" x="316.748047"/>
      <use xlink:href="#ArialMT-20" x="344.53125"/>
      <use xlink:href="#ArialMT-28" x="372.314453"/>
      <use xlink:href="#ArialMT-b5" x="405.615234"/>
      <use xlink:href="#ArialMT-4d" x="463.232422"/>
      <use xlink:href="#ArialMT-29" x="546.533203"/>
     </g>
    </g>
   </g>
   <g id="matplotlib.axis_2">
    <g id="ytick_1">
     <g id="line2d_7">
      <defs>
       <path id="ma92a0078f0" d="M 0 0 
L -3.5 0 
" style="stroke: #262626; stroke-width: 0.8"/>
      </defs>
      <g>
       <use xlink:href="#ma92a0078f0" x="48.62" y="201.163636" style="fill: #262626; stroke: #262626; stroke-width: 0.8"/>
      </g>
     </g>
     <g id="text_8">
      <!-- 0 -->
      <g style="fill: #262626" transform="translate(36.059063 204.742543) scale(0.1 -0.1)">
       <use xlink:href="#ArialMT-30"/>
      </g>
     </g>
    </g>
    <g id="ytick_2">
     <g id="line2d_8">
      <g>
       <use xlink:href="#ma92a0078f0" x="48.62" y="166.006622" style="fill: #262626; stroke: #262626; stroke-width: 0.8"/>
      </g>
     </g>
     <g id="text_9">
      <!-- 100 -->
      <g style="fill: #262626" transform="translate(24.937188 169.585528) scale(0.1 -0.1)">
       <use xlink:href="#ArialMT-31"/>
       <use xlink:href="#ArialMT-30" x="55.615234"/>
       <use xlink:href="#ArialMT-30" x="111.230469"/>
      </g>
     </g>
    </g>
    <g id="ytick_3">
     <g id="line2d_9">
      <g>
       <use xlink:href="#ma92a0078f0" x="48.62" y="130.849607" style="fill: #262626; stroke: #262626; stroke-width: 0.8"/>
      </g>
     </g>
     <g id="text_10">
      <!-- 200 -->
      <g style="fill: #262626" transform="translate(24.937188 134.428514) scale(0.1 -0.1)">
       <use xlink:href="#ArialMT-32"/>
       <use xlink:href="#ArialMT-30" x="55.615234"/>
       <use xlink:href="#ArialMT-30" x="111.230469"/>
      </g>
     </g>
    </g>
    <g id="ytick_4">
     <g id="line2d_10">
      <g>
       <use xlink:href="#ma92a0078f0" x="48.62" y="95.692593" style="fill: #262626; stroke: #262626; stroke-width: 0.8"/>
      </g>
     </g>
     <g id="text_11">
      <!-- 300 -->
      <g style="fill: #262626" transform="translate(24.937188 99.271499) scale(0.1 -0.1)">
       <defs>
        <path id="ArialMT-33" d="M 269 1209 
L 831 1284 
Q 928 806 1161 595 
Q 1394 384 1728 384 
Q 2125 384 2398 659 
Q 2672 934 2672 1341 
Q 2672 1728 2419 1979 
Q 2166 2231 1775 2231 
Q 1616 2231 1378 2169 
L 1441 2663 
Q 1497 2656 1531 2656 
Q 1891 2656 2178 2843 
Q 2466 3031 2466 3422 
Q 2466 3731 2256 3934 
Q 2047 4138 1716 4138 
Q 1388 4138 1169 3931 
Q 950 3725 888 3313 
L 325 3413 
Q 428 3978 793 4289 
Q 1159 4600 1703 4600 
Q 2078 4600 2393 4439 
Q 2709 4278 2876 4000 
Q 3044 3722 3044 3409 
Q 3044 3113 2884 2869 
Q 2725 2625 2413 2481 
Q 2819 2388 3044 2092 
Q 3269 1797 3269 1353 
Q 3269 753 2831 336 
Q 2394 -81 1725 -81 
Q 1122 -81 723 278 
Q 325 638 269 1209 
z
" transform="scale(0.015625)"/>
       </defs>
       <use xlink:href="#ArialMT-33"/>
       <use xlink:href="#ArialMT-30" x="55.615234"/>
       <use xlink:href="#ArialMT-30" x="111.230469"/>
      </g>
     </g>
    </g>
    <g id="ytick_5">
     <g id="line2d_11">
      <g>
       <use xlink:href="#ma92a0078f0" x="48.62" y="60.535578" style="fill: #262626; stroke: #262626; stroke-width: 0.8"/>
      </g>
     </g>
     <g id="text_12">
      <!-- 400 -->
      <g style="fill: #262626" transform="translate(24.937188 64.114484) scale(0.1 -0.1)">
       <defs>
        <path id="ArialMT-34" d="M 2069 0 
L 2069 1097 
L 81 1097 
L 81 1613 
L 2172 4581 
L 2631 4581 
L 2631 1613 
L 3250 1613 
L 3250 1097 
L 2631 1097 
L 2631 0 
L 2069 0 
z
M 2069 1613 
L 2069 3678 
L 634 1613 
L 2069 1613 
z
" transform="scale(0.015625)"/>
       </defs>
       <use xlink:href="#ArialMT-34"/>
       <use xlink:href="#ArialMT-30" x="55.615234"/>
       <use xlink:href="#ArialMT-30" x="111.230469"/>
      </g>
     </g>
    </g>
    <g id="ytick_6">
     <g id="line2d_12">
      <g>
       <use xlink:href="#ma92a0078f0" x="48.62" y="25.378564" style="fill: #262626; stroke: #262626; stroke-width: 0.8"/>
      </g>
     </g>
     <g id="text_13">
      <!-- 500 -->
      <g style="fill: #262626" transform="translate(24.937188 28.95747) scale(0.1 -0.1)">
       <use xlink:href="#ArialMT-35"/>
       <use xlink:href="#ArialMT-30" x="55.615234"/>
       <use xlink:href="#ArialMT-30" x="111.230469"/>
      </g>
     </g>
    </g>
    <g id="text_14">
     <!-- Phytoene flux (µM/h) -->
     <g style="fill: #262626" transform="translate(18.8325 158.630469) rotate(-90) scale(0.1 -0.1)">
      <defs>
       <path id="ArialMT-68" d="M 422 0 
L 422 4581 
L 984 4581 
L 984 2938 
Q 1378 3394 1978 3394 
Q 2347 3394 2619 3248 
Q 2891 3103 3008 2847 
Q 3125 2591 3125 2103 
L 3125 0 
L 2563 0 
L 2563 2103 
Q 2563 2525 2380 2717 
Q 2197 2909 1863 2909 
Q 1613 2909 1392 2779 
Q 1172 2650 1078 2428 
Q 984 2206 984 1816 
L 984 0 
L 422 0 
z
" transform="scale(0.015625)"/>
       <path id="ArialMT-79" d="M 397 -1278 
L 334 -750 
Q 519 -800 656 -800 
Q 844 -800 956 -737 
Q 1069 -675 1141 -563 
Q 1194 -478 1313 -144 
Q 1328 -97 1363 -6 
L 103 3319 
L 709 3319 
L 1400 1397 
Q 1534 1031 1641 628 
Q 1738 1016 1872 1384 
L 2581 3319 
L 3144 3319 
L 1881 -56 
Q 1678 -603 1566 -809 
Q 1416 -1088 1222 -1217 
Q 1028 -1347 759 -1347 
Q 597 -1347 397 -1278 
z
" transform="scale(0.015625)"/>
       <path id="ArialMT-74" d="M 1650 503 
L 1731 6 
Q 1494 -44 1306 -44 
Q 1000 -44 831 53 
Q 663 150 594 308 
Q 525 466 525 972 
L 525 2881 
L 113 2881 
L 113 3319 
L 525 3319 
L 525 4141 
L 1084 4478 
L 1084 3319 
L 1650 3319 
L 1650 2881 
L 1084 2881 
L 1084 941 
Q 1084 700 1114 631 
Q 1144 563 1211 522 
Q 1278 481 1403 481 
Q 1497 481 1650 503 
z
" transform="scale(0.015625)"/>
       <path id="ArialMT-6f" d="M 213 1659 
Q 213 2581 725 3025 
Q 1153 3394 1769 3394 
Q 2453 3394 2887 2945 
Q 3322 2497 3322 1706 
Q 3322 1066 3130 698 
Q 2938 331 2570 128 
Q 2203 -75 1769 -75 
Q 1072 -75 642 372 
Q 213 819 213 1659 
z
M 791 1659 
Q 791 1022 1069 705 
Q 1347 388 1769 388 
Q 2188 388 2466 706 
Q 2744 1025 2744 1678 
Q 2744 2294 2464 2611 
Q 2184 2928 1769 2928 
Q 1347 2928 1069 2612 
Q 791 2297 791 1659 
z
" transform="scale(0.015625)"/>
       <path id="ArialMT-65" d="M 2694 1069 
L 3275 997 
Q 3138 488 2766 206 
Q 2394 -75 1816 -75 
Q 1088 -75 661 373 
Q 234 822 234 1631 
Q 234 2469 665 2931 
Q 1097 3394 1784 3394 
Q 2450 3394 2872 2941 
Q 3294 2488 3294 1666 
Q 3294 1616 3291 1516 
L 816 1516 
Q 847 969 1125 678 
Q 1403 388 1819 388 
Q 2128 388 2347 550 
Q 2566 713 2694 1069 
z
M 847 1978 
L 2700 1978 
Q 2663 2397 2488 2606 
Q 2219 2931 1791 2931 
Q 1403 2931 1139 2672 
Q 875 2413 847 1978 
z
" transform="scale(0.015625)"/>
       <path id="ArialMT-6e" d="M 422 0 
L 422 3319 
L 928 3319 
L 928 2847 
Q 1294 3394 1984 3394 
Q 2284 3394 2536 3286 
Q 2788 3178 2913 3003 
Q 3038 2828 3088 2588 
Q 3119 2431 3119 2041 
L 3119 0 
L 2556 0 
L 2556 2019 
Q 2556 2363 2490 2533 
Q 2425 2703 2258 2804 
Q 2091 2906 1866 2906 
Q 1506 2906 1245 2678 
Q 984 2450 984 1813 
L 984 0 
L 422 0 
z
" transform="scale(0.015625)"/>
       <path id="ArialMT-66" d="M 556 0 
L 556 2881 
L 59 2881 
L 59 3319 
L 556 3319 
L 556 3672 
Q 556 4006 616 4169 
Q 697 4388 901 4523 
Q 1106 4659 1475 4659 
Q 1713 4659 2000 4603 
L 1916 4113 
Q 1741 4144 1584 4144 
Q 1328 4144 1222 4034 
Q 1116 3925 1116 3625 
L 1116 3319 
L 1763 3319 
L 1763 2881 
L 1116 2881 
L 1116 0 
L 556 0 
z
" transform="scale(0.015625)"/>
       <path id="ArialMT-6c" d="M 409 0 
L 409 4581 
L 972 4581 
L 972 0 
L 409 0 
z
" transform="scale(0.015625)"/>
       <path id="ArialMT-75" d="M 2597 0 
L 2597 488 
Q 2209 -75 1544 -75 
Q 1250 -75 995 37 
Q 741 150 617 320 
Q 494 491 444 738 
Q 409 903 409 1263 
L 409 3319 
L 972 3319 
L 972 1478 
Q 972 1038 1006 884 
Q 1059 663 1231 536 
Q 1403 409 1656 409 
Q 1909 409 2131 539 
Q 2353 669 2445 892 
Q 2538 1116 2538 1541 
L 2538 3319 
L 3100 3319 
L 3100 0 
L 2597 0 
z
" transform="scale(0.015625)"/>
       <path id="ArialMT-78" d="M 47 0 
L 1259 1725 
L 138 3319 
L 841 3319 
L 1350 2541 
Q 1494 2319 1581 2169 
Q 1719 2375 1834 2534 
L 2394 3319 
L 3066 3319 
L 1919 1756 
L 3153 0 
L 2463 0 
L 1781 1031 
L 1600 1309 
L 728 0 
L 47 0 
z
" transform="scale(0.015625)"/>
       <path id="ArialMT-2f" d="M 0 -78 
L 1328 4659 
L 1778 4659 
L 453 -78 
L 0 -78 
z
" transform="scale(0.015625)"/>
      </defs>
      <use xlink:href="#ArialMT-50"/>
      <use xlink:href="#ArialMT-68" x="66.699219"/>
      <use xlink:href="#ArialMT-79" x="122.314453"/>
      <use xlink:href="#ArialMT-74" x="172.314453"/>
      <use xlink:href="#ArialMT-6f" x="200.097656"/>
      <use xlink:href="#ArialMT-65" x="255.712891"/>
      <use xlink:href="#ArialMT-6e" x="311.328125"/>
      <use xlink:href="#ArialMT-65" x="366.943359"/>
      <use xlink:href="#ArialMT-20" x="422.558594"/>
      <use xlink:href="#ArialMT-66" x="450.341797"/>
      <use xlink:href="#ArialMT-6c" x="478.125"/>
      <use xlink:href="#ArialMT-75" x="500.341797"/>
      <use xlink:href="#ArialMT-78" x="555.957031"/>
      <use xlink:href="#ArialMT-20" x="605.957031"/>
      <use xlink:href="#ArialMT-28" x="633.740234"/>
      <use xlink:href="#ArialMT-b5" x="667.041016"/>
      <use xlink:href="#ArialMT-4d" x="724.658203"/>
      <use xlink:href="#ArialMT-2f" x="807.958984"/>
      <use xlink:href="#ArialMT-68" x="835.742188"/>
      <use xlink:href="#ArialMT-29" x="891.357422"/>
     </g>
    </g>
   </g>
   <g id="PolyCollection_1">
    <defs>
     <path id="mfff84a3f52" d="M 58.00328 -50.836364 
L 58.00328 -50.836364 
L 58.946323 -52.576518 
L 59.889366 -54.299682 
L 60.83241 -56.006104 
L 61.775453 -57.696026 
L 62.718496 -59.369687 
L 63.661539 -61.02732 
L 64.604582 -62.669154 
L 65.547626 -64.295415 
L 66.490669 -65.906322 
L 67.433712 -67.502092 
L 68.376755 -69.082937 
L 69.319799 -70.646356 
L 70.262842 -72.187714 
L 71.205885 -73.713427 
L 72.148928 -75.223732 
L 73.091971 -76.718861 
L 74.035015 -78.199041 
L 74.978058 -79.664496 
L 75.921101 -81.11546 
L 76.864144 -82.552178 
L 77.807187 -83.974818 
L 78.750231 -85.383588 
L 79.693274 -86.778688 
L 80.636317 -88.169491 
L 81.57936 -89.553373 
L 82.522404 -90.925359 
L 83.465447 -92.285357 
L 84.40849 -93.633522 
L 85.351533 -94.970009 
L 86.294576 -96.294969 
L 87.23762 -97.611455 
L 88.180663 -98.917627 
L 89.123706 -100.212877 
L 90.066749 -101.497343 
L 91.009792 -102.771159 
L 91.952836 -104.034456 
L 92.895879 -105.287364 
L 93.838922 -106.530011 
L 94.781965 -107.762522 
L 95.725009 -108.985021 
L 96.668052 -110.197629 
L 97.611095 -111.401005 
L 98.554138 -112.595101 
L 99.497181 -113.806078 
L 100.440225 -115.01234 
L 101.383268 -116.146836 
L 102.326311 -117.330659 
L 103.269354 -118.512736 
L 104.212397 -119.686741 
L 105.155441 -120.852756 
L 106.098484 -121.959601 
L 107.041527 -123.017616 
L 107.98457 -124.065859 
L 108.927614 -125.116376 
L 109.870657 -126.20096 
L 110.8137 -127.26758 
L 111.756743 -128.28982 
L 112.699786 -129.303343 
L 113.64283 -130.319873 
L 114.585873 -131.328842 
L 115.528916 -132.296579 
L 116.471959 -133.327393 
L 117.415002 -134.35041 
L 118.358046 -135.302803 
L 119.301089 -136.246994 
L 120.244132 -137.183809 
L 121.187175 -138.115895 
L 122.130219 -139.085068 
L 123.073262 -140.043065 
L 124.016305 -140.958792 
L 124.959348 -141.902297 
L 125.902391 -142.790208 
L 126.845435 -143.673129 
L 127.788478 -144.548866 
L 128.731521 -145.417513 
L 129.674564 -146.278915 
L 130.617607 -147.126855 
L 131.560651 -147.99713 
L 132.503694 -148.891779 
L 133.446737 -149.790214 
L 134.38978 -150.692575 
L 135.332824 -151.516816 
L 136.275867 -152.397063 
L 137.21891 -153.165221 
L 138.161953 -153.934547 
L 139.104996 -154.672978 
L 140.04804 -155.507514 
L 140.991083 -156.33496 
L 141.934126 -157.080929 
L 142.877169 -157.812484 
L 143.820212 -158.488685 
L 144.763256 -159.187777 
L 145.706299 -159.940804 
L 146.649342 -160.66337 
L 147.592385 -161.379665 
L 148.535429 -162.143327 
L 149.478472 -162.840526 
L 150.421515 -163.561193 
L 151.364558 -164.261179 
L 152.307601 -164.938554 
L 153.250645 -165.613933 
L 154.193688 -166.33523 
L 155.136731 -166.994612 
L 156.079774 -167.623731 
L 157.022818 -168.356118 
L 157.965861 -169.01126 
L 158.908904 -169.648854 
L 159.851947 -170.282525 
L 160.79499 -170.93726 
L 161.738034 -171.568987 
L 162.681077 -172.178935 
L 163.62412 -172.76912 
L 164.567163 -173.316039 
L 165.510206 -173.887598 
L 166.45325 -174.489613 
L 167.396293 -175.147607 
L 168.339336 -175.727638 
L 169.282379 -176.293746 
L 170.225423 -176.854571 
L 171.168466 -177.411016 
L 172.111509 -177.973506 
L 173.054552 -178.530265 
L 173.997595 -179.054347 
L 174.940639 -179.594513 
L 175.883682 -180.167178 
L 176.826725 -180.698581 
L 177.769768 -181.186604 
L 178.712811 -181.708841 
L 179.655855 -182.227855 
L 180.598898 -182.742923 
L 181.541941 -183.249712 
L 182.484984 -183.757193 
L 183.428028 -184.258401 
L 184.371071 -184.757395 
L 185.314114 -185.253641 
L 186.257157 -185.707691 
L 187.2002 -186.117212 
L 188.143244 -186.526712 
L 189.086287 -187.086498 
L 190.02933 -187.542476 
L 190.972373 -188.011851 
L 191.915416 -188.498745 
L 192.85846 -188.982226 
L 193.801503 -189.46233 
L 194.744546 -189.939094 
L 195.687589 -190.367437 
L 196.630633 -190.789216 
L 197.573676 -191.207956 
L 198.516719 -191.623538 
L 199.459762 -192.035999 
L 200.402805 -192.445373 
L 201.345849 -192.851695 
L 202.288892 -193.254999 
L 203.231935 -193.665571 
L 204.174978 -194.10017 
L 205.118021 -194.524938 
L 206.061065 -194.890296 
L 207.004108 -195.252856 
L 207.947151 -195.652826 
L 208.890194 -196.085462 
L 209.833238 -196.515386 
L 210.776281 -196.942508 
L 211.719324 -197.366882 
L 212.662367 -197.789156 
L 213.60541 -198.175879 
L 214.548454 -198.538735 
L 215.491497 -198.887037 
L 216.43454 -199.224265 
L 217.377583 -199.559016 
L 218.320626 -199.891316 
L 219.26367 -200.232571 
L 220.206713 -200.610224 
L 221.149756 -201.007843 
L 222.092799 -201.357467 
L 223.035843 -201.727446 
L 223.978886 -202.095184 
L 224.921929 -202.462141 
L 225.864972 -202.830057 
L 226.808015 -203.195622 
L 227.751059 -203.558859 
L 228.694102 -203.91979 
L 229.637145 -204.278436 
L 230.580188 -204.63482 
L 231.523231 -204.988962 
L 232.466275 -205.319921 
L 233.409318 -205.643316 
L 234.352361 -205.984945 
L 235.295404 -206.324428 
L 236.238448 -206.661784 
L 237.181491 -206.995771 
L 238.124534 -207.302868 
L 239.067577 -207.591004 
L 240.01062 -207.87253 
L 240.953664 -208.152152 
L 241.896707 -208.429888 
L 242.83975 -208.705757 
L 243.782793 -208.979779 
L 244.725836 -209.251971 
L 245.66888 -209.522352 
L 245.66888 -228.363636 
L 245.66888 -228.363636 
L 244.725836 -227.881008 
L 243.782793 -227.422738 
L 242.83975 -226.969105 
L 241.896707 -226.528555 
L 240.953664 -226.085695 
L 240.01062 -225.640499 
L 239.067577 -225.192223 
L 238.124534 -224.726301 
L 237.181491 -224.236535 
L 236.238448 -223.766846 
L 235.295404 -223.300981 
L 234.352361 -222.83173 
L 233.409318 -222.363013 
L 232.466275 -221.902428 
L 231.523231 -221.449353 
L 230.580188 -220.984066 
L 229.637145 -220.515419 
L 228.694102 -220.044084 
L 227.751059 -219.570168 
L 226.808015 -219.090366 
L 225.864972 -218.600363 
L 224.921929 -218.133861 
L 223.978886 -217.668196 
L 223.035843 -217.203868 
L 222.092799 -216.717148 
L 221.149756 -216.216372 
L 220.206713 -215.723113 
L 219.26367 -215.22254 
L 218.320626 -214.719161 
L 217.377583 -214.212812 
L 216.43454 -213.702715 
L 215.491497 -213.189742 
L 214.548454 -212.673868 
L 213.60541 -212.155069 
L 212.662367 -211.633319 
L 211.719324 -211.102125 
L 210.776281 -210.578072 
L 209.833238 -210.05099 
L 208.890194 -209.520937 
L 207.947151 -208.988582 
L 207.004108 -208.458836 
L 206.061065 -207.913543 
L 205.118021 -207.401416 
L 204.174978 -206.83244 
L 203.231935 -206.275504 
L 202.288892 -205.722924 
L 201.345849 -205.167245 
L 200.402805 -204.608688 
L 199.459762 -204.046469 
L 198.516719 -203.480828 
L 197.573676 -202.903219 
L 196.630633 -202.339505 
L 195.687589 -201.76396 
L 194.744546 -201.199063 
L 193.801503 -200.633532 
L 192.85846 -200.059451 
L 191.915416 -199.487389 
L 190.972373 -198.911666 
L 190.02933 -198.332256 
L 189.086287 -197.764022 
L 188.143244 -197.170001 
L 187.2002 -196.573503 
L 186.257157 -195.979927 
L 185.314114 -195.382479 
L 184.371071 -194.781123 
L 183.428028 -194.223142 
L 182.484984 -193.668459 
L 181.541941 -193.109417 
L 180.598898 -192.54538 
L 179.655855 -191.918668 
L 178.712811 -191.278458 
L 177.769768 -190.633666 
L 176.826725 -189.983382 
L 175.883682 -189.328622 
L 174.940639 -188.669784 
L 173.997595 -188.003857 
L 173.054552 -187.338104 
L 172.111509 -186.677248 
L 171.168466 -186.052793 
L 170.225423 -185.423705 
L 169.282379 -184.753292 
L 168.339336 -184.059836 
L 167.396293 -183.417698 
L 166.45325 -182.73111 
L 165.510206 -182.036177 
L 164.567163 -181.399283 
L 163.62412 -180.747565 
L 162.681077 -180.09032 
L 161.738034 -179.379724 
L 160.79499 -178.65711 
L 159.851947 -177.997484 
L 158.908904 -177.344337 
L 157.965861 -176.668276 
L 157.022818 -175.941316 
L 156.079774 -175.214674 
L 155.136731 -174.454772 
L 154.193688 -173.794191 
L 153.250645 -173.105595 
L 152.307601 -172.381383 
L 151.364558 -171.626039 
L 150.421515 -170.86441 
L 149.478472 -170.151525 
L 148.535429 -169.403746 
L 147.592385 -168.639086 
L 146.649342 -167.872731 
L 145.706299 -167.108241 
L 144.763256 -166.360559 
L 143.820212 -165.569527 
L 142.877169 -164.763538 
L 141.934126 -163.952807 
L 140.991083 -163.147113 
L 140.04804 -162.402262 
L 139.104996 -161.64214 
L 138.161953 -160.809022 
L 137.21891 -159.951527 
L 136.275867 -159.147061 
L 135.332824 -158.313215 
L 134.38978 -157.484306 
L 133.446737 -156.642131 
L 132.503694 -155.818003 
L 131.560651 -154.985579 
L 130.617607 -154.125506 
L 129.674564 -153.270844 
L 128.731521 -152.407175 
L 127.788478 -151.546737 
L 126.845435 -150.663011 
L 125.902391 -149.79946 
L 124.959348 -148.935647 
L 124.016305 -148.05839 
L 123.073262 -147.169907 
L 122.130219 -146.276205 
L 121.187175 -145.370721 
L 120.244132 -144.423781 
L 119.301089 -143.555696 
L 118.358046 -142.677292 
L 117.415002 -141.732689 
L 116.471959 -140.770239 
L 115.528916 -139.794336 
L 114.585873 -138.790174 
L 113.64283 -137.794537 
L 112.699786 -136.796357 
L 111.756743 -135.801269 
L 110.8137 -134.775347 
L 109.870657 -133.73794 
L 108.927614 -132.688184 
L 107.98457 -131.625304 
L 107.041527 -130.550085 
L 106.098484 -129.463865 
L 105.155441 -128.366415 
L 104.212397 -127.253515 
L 103.269354 -126.142418 
L 102.326311 -125.010613 
L 101.383268 -123.864619 
L 100.440225 -122.705823 
L 99.497181 -121.533033 
L 98.554138 -120.346453 
L 97.611095 -119.153567 
L 96.668052 -117.945701 
L 95.725009 -116.722572 
L 94.781965 -115.483888 
L 93.838922 -114.231945 
L 92.895879 -112.972683 
L 91.952836 -111.672748 
L 91.009792 -110.388169 
L 90.066749 -109.085862 
L 89.123706 -107.765459 
L 88.180663 -106.422271 
L 87.23762 -105.051359 
L 86.294576 -103.637081 
L 85.351533 -102.204571 
L 84.40849 -100.753475 
L 83.465447 -99.289478 
L 82.522404 -97.818337 
L 81.57936 -96.326658 
L 80.636317 -94.81401 
L 79.693274 -93.286361 
L 78.750231 -91.740011 
L 77.807187 -90.170695 
L 76.864144 -88.577898 
L 75.921101 -86.961088 
L 74.978058 -85.319718 
L 74.035015 -83.653225 
L 73.091971 -81.961027 
L 72.148928 -80.242524 
L 71.205885 -78.497099 
L 70.262842 -76.724114 
L 69.319799 -74.922849 
L 68.376755 -73.09268 
L 67.433712 -71.232925 
L 66.490669 -69.339569 
L 65.547626 -67.421464 
L 64.604582 -65.468778 
L 63.661539 -63.481165 
L 62.718496 -61.460722 
L 61.775453 -59.406629 
L 60.83241 -57.318038 
L 59.889366 -55.194073 
L 58.946323 -53.033827 
L 58.00328 -50.836364 
z
" style="stroke: #ef553b; stroke-opacity: 0.3"/>
    </defs>
    <g clip-path="url(#pa413f17f1e)">
     <use xlink:href="#mfff84a3f52" x="0" y="252" style="fill: #ef553b; fill-opacity: 0.3; stroke: #ef553b; stroke-opacity: 0.3"/>
    </g>
   </g>
   <g id="line2d_13">
    <defs>
     <path id="mc9b6557d00" d="M 0 2.5 
C 0.663008 2.5 1.29895 2.236584 1.767767 1.767767 
C 2.236584 1.29895 2.5 0.663008 2.5 0 
C 2.5 -0.663008 2.236584 -1.29895 1.767767 -1.767767 
C 1.29895 -2.236584 0.663008 -2.5 0 -2.5 
C -0.663008 -2.5 -1.29895 -2.236584 -1.767767 -1.767767 
C -2.236584 -1.29895 -2.5 -0.663008 -2.5 0 
C -2.5 0.663008 -2.236584 1.29895 -1.767767 1.767767 
C -1.29895 2.236584 -0.663008 2.5 0 2.5 
z
" style="stroke: #81624c"/>
    </defs>
    <g clip-path="url(#pa413f17f1e)">
     <use xlink:href="#mc9b6557d00" x="60.900309" y="199.839975" style="fill: #feb886; stroke: #81624c"/>
     <use xlink:href="#mc9b6557d00" x="62.439355" y="199.636416" style="fill: #feb886; stroke: #81624c"/>
     <use xlink:href="#mc9b6557d00" x="62.092315" y="199.606532" style="fill: #feb886; stroke: #81624c"/>
     <use xlink:href="#mc9b6557d00" x="76.034266" y="171.630689" style="fill: #feb886; stroke: #81624c"/>
     <use xlink:href="#mc9b6557d00" x="79.504665" y="181.771379" style="fill: #feb886; stroke: #81624c"/>
     <use xlink:href="#mc9b6557d00" x="82.454504" y="173.020446" style="fill: #feb886; stroke: #81624c"/>
     <use xlink:href="#mc9b6557d00" x="114.351998" y="112.282133" style="fill: #feb886; stroke: #81624c"/>
     <use xlink:href="#mc9b6557d00" x="129.961249" y="114.302255" style="fill: #feb886; stroke: #81624c"/>
     <use xlink:href="#mc9b6557d00" x="112.450823" y="119.392639" style="fill: #feb886; stroke: #81624c"/>
     <use xlink:href="#mc9b6557d00" x="116.260718" y="99.353844" style="fill: #feb886; stroke: #81624c"/>
     <use xlink:href="#mc9b6557d00" x="113.838983" y="93.455552" style="fill: #feb886; stroke: #81624c"/>
     <use xlink:href="#mc9b6557d00" x="131.349409" y="100.323475" style="fill: #feb886; stroke: #81624c"/>
     <use xlink:href="#mc9b6557d00" x="196.88714" y="66.064019" style="fill: #feb886; stroke: #81624c"/>
     <use xlink:href="#mc9b6557d00" x="176.079835" y="52.085238" style="fill: #feb886; stroke: #81624c"/>
     <use xlink:href="#mc9b6557d00" x="186.136448" y="49.257208" style="fill: #feb886; stroke: #81624c"/>
     <use xlink:href="#mc9b6557d00" x="211.628792" y="54.10536" style="fill: #feb886; stroke: #81624c"/>
     <use xlink:href="#mc9b6557d00" x="217.867966" y="48.691532" style="fill: #feb886; stroke: #81624c"/>
     <use xlink:href="#mc9b6557d00" x="59.738479" y="200.534326" style="fill: #feb886; stroke: #81624c"/>
     <use xlink:href="#mc9b6557d00" x="59.738479" y="200.401784" style="fill: #feb886; stroke: #81624c"/>
     <use xlink:href="#mc9b6557d00" x="59.738479" y="200.004158" style="fill: #feb886; stroke: #81624c"/>
     <use xlink:href="#mc9b6557d00" x="127.35845" y="112.928671" style="fill: #feb886; stroke: #81624c"/>
     <use xlink:href="#mc9b6557d00" x="122.160396" y="119.716084" style="fill: #feb886; stroke: #81624c"/>
     <use xlink:href="#mc9b6557d00" x="106.551145" y="123.109439" style="fill: #feb886; stroke: #81624c"/>
     <use xlink:href="#mc9b6557d00" x="61.473679" y="197.950285" style="fill: #feb886; stroke: #81624c"/>
     <use xlink:href="#mc9b6557d00" x="59.738479" y="198.480101" style="fill: #feb886; stroke: #81624c"/>
     <use xlink:href="#mc9b6557d00" x="59.738479" y="198.646043" style="fill: #feb886; stroke: #81624c"/>
     <use xlink:href="#mc9b6557d00" x="123.895595" y="112.928671" style="fill: #feb886; stroke: #81624c"/>
     <use xlink:href="#mc9b6557d00" x="111.756743" y="106.141257" style="fill: #feb886; stroke: #81624c"/>
     <use xlink:href="#mc9b6557d00" x="96.147492" y="143.471679" style="fill: #feb886; stroke: #81624c"/>
     <use xlink:href="#mc9b6557d00" x="61.126639" y="193.358076" style="fill: #feb886; stroke: #81624c"/>
     <use xlink:href="#mc9b6557d00" x="61.300159" y="194.206766" style="fill: #feb886; stroke: #81624c"/>
     <use xlink:href="#mc9b6557d00" x="61.473679" y="192.113869" style="fill: #feb886; stroke: #81624c"/>
     <use xlink:href="#mc9b6557d00" x="58.87088" y="200.625382" style="fill: #feb886; stroke: #81624c"/>
     <use xlink:href="#mc9b6557d00" x="60.259039" y="195.055105" style="fill: #feb886; stroke: #81624c"/>
     <use xlink:href="#mc9b6557d00" x="60.259039" y="195.943874" style="fill: #feb886; stroke: #81624c"/>
     <use xlink:href="#mc9b6557d00" x="60.606079" y="194.408568" style="fill: #feb886; stroke: #81624c"/>
     <use xlink:href="#mc9b6557d00" x="60.085519" y="196.121769" style="fill: #feb886; stroke: #81624c"/>
     <use xlink:href="#mc9b6557d00" x="59.56496" y="198.173884" style="fill: #feb886; stroke: #81624c"/>
     <use xlink:href="#mc9b6557d00" x="60.085519" y="196.081338" style="fill: #feb886; stroke: #81624c"/>
     <use xlink:href="#mc9b6557d00" x="59.39144" y="195.184483" style="fill: #feb886; stroke: #81624c"/>
     <use xlink:href="#mc9b6557d00" x="60.606079" y="195.345854" style="fill: #feb886; stroke: #81624c"/>
     <use xlink:href="#mc9b6557d00" x="59.21792" y="200.668977" style="fill: #feb886; stroke: #81624c"/>
     <use xlink:href="#mc9b6557d00" x="58.52384" y="200.494598" style="fill: #feb886; stroke: #81624c"/>
     <use xlink:href="#mc9b6557d00" x="61.126639" y="193.358076" style="fill: #feb886; stroke: #81624c"/>
     <use xlink:href="#mc9b6557d00" x="61.300159" y="194.206766" style="fill: #feb886; stroke: #81624c"/>
     <use xlink:href="#mc9b6557d00" x="61.473679" y="192.113869" style="fill: #feb886; stroke: #81624c"/>
     <use xlink:href="#mc9b6557d00" x="58.87088" y="200.625382" style="fill: #feb886; stroke: #81624c"/>
     <use xlink:href="#mc9b6557d00" x="60.259039" y="195.055105" style="fill: #feb886; stroke: #81624c"/>
     <use xlink:href="#mc9b6557d00" x="60.259039" y="195.943874" style="fill: #feb886; stroke: #81624c"/>
     <use xlink:href="#mc9b6557d00" x="60.606079" y="194.408568" style="fill: #feb886; stroke: #81624c"/>
     <use xlink:href="#mc9b6557d00" x="60.085519" y="196.121769" style="fill: #feb886; stroke: #81624c"/>
     <use xlink:href="#mc9b6557d00" x="59.56496" y="198.173884" style="fill: #feb886; stroke: #81624c"/>
     <use xlink:href="#mc9b6557d00" x="60.085519" y="196.081338" style="fill: #feb886; stroke: #81624c"/>
     <use xlink:href="#mc9b6557d00" x="59.39144" y="195.184483" style="fill: #feb886; stroke: #81624c"/>
     <use xlink:href="#mc9b6557d00" x="60.606079" y="195.345854" style="fill: #feb886; stroke: #81624c"/>
     <use xlink:href="#mc9b6557d00" x="59.21792" y="200.668977" style="fill: #feb886; stroke: #81624c"/>
     <use xlink:href="#mc9b6557d00" x="58.52384" y="200.494598" style="fill: #feb886; stroke: #81624c"/>
    </g>
   </g>
   <g id="line2d_14">
    <path d="M 58.00328 201.163636 
L 62.718496 191.719562 
L 67.433712 182.855013 
L 72.148928 174.518234 
L 76.864144 166.663455 
L 81.57936 159.250049 
L 86.294576 152.24183 
L 91.009792 145.606464 
L 95.725009 139.314967 
L 100.440225 133.341282 
L 106.098484 126.559465 
L 111.756743 120.165249 
L 117.415002 114.12633 
L 123.073262 108.413894 
L 128.731521 103.002162 
L 134.38978 97.868 
L 140.991083 92.201299 
L 147.592385 86.854541 
L 154.193688 81.801374 
L 160.79499 77.018262 
L 167.396293 72.484121 
L 174.940639 67.58289 
L 182.484984 62.956852 
L 190.02933 58.583463 
L 198.516719 53.940393 
L 207.004108 49.566085 
L 215.491497 45.437862 
L 224.921929 41.115072 
L 234.352361 37.046592 
L 243.782793 33.210622 
L 245.66888 32.469585 
L 245.66888 32.469585 
" clip-path="url(#pa413f17f1e)" style="fill: none; stroke: #ef553b; stroke-width: 1.5; stroke-linecap: round"/>
   </g>
   <g id="patch_3">
    <path d="M 48.62 210.04 
L 48.62 14.76 
" style="fill: none; stroke: #262626; stroke-width: 0.8; stroke-linejoin: miter; stroke-linecap: square"/>
   </g>
   <g id="patch_4">
    <path d="M 255.05216 210.04 
L 255.05216 14.76 
" style="fill: none; stroke: #262626; stroke-width: 0.8; stroke-linejoin: miter; stroke-linecap: square"/>
   </g>
   <g id="patch_5">
    <path d="M 48.62 210.04 
L 255.05216 210.04 
" style="fill: none; stroke: #262626; stroke-width: 0.8; stroke-linejoin: miter; stroke-linecap: square"/>
   </g>
   <g id="patch_6">
    <path d="M 48.62 14.76 
L 255.05216 14.76 
" style="fill: none; stroke: #262626; stroke-width: 0.8; stroke-linejoin: miter; stroke-linecap: square"/>
   </g>
   <g id="legend_1">
    <g id="line2d_15">
     <g>
      <use xlink:href="#mc9b6557d00" x="67.62" y="27.539688" style="fill: #feb886; stroke: #81624c"/>
     </g>
    </g>
    <g id="text_15">
     <!-- PGIp_CrtB -->
     <g style="fill: #262626" transform="translate(85.62 31.039688) scale(0.1 -0.1)">
      <defs>
       <path id="ArialMT-49" d="M 597 0 
L 597 4581 
L 1203 4581 
L 1203 0 
L 597 0 
z
" transform="scale(0.015625)"/>
       <path id="ArialMT-70" d="M 422 -1272 
L 422 3319 
L 934 3319 
L 934 2888 
Q 1116 3141 1344 3267 
Q 1572 3394 1897 3394 
Q 2322 3394 2647 3175 
Q 2972 2956 3137 2557 
Q 3303 2159 3303 1684 
Q 3303 1175 3120 767 
Q 2938 359 2589 142 
Q 2241 -75 1856 -75 
Q 1575 -75 1351 44 
Q 1128 163 984 344 
L 984 -1272 
L 422 -1272 
z
M 931 1641 
Q 931 1000 1190 694 
Q 1450 388 1819 388 
Q 2194 388 2461 705 
Q 2728 1022 2728 1688 
Q 2728 2322 2467 2637 
Q 2206 2953 1844 2953 
Q 1484 2953 1207 2617 
Q 931 2281 931 1641 
z
" transform="scale(0.015625)"/>
       <path id="ArialMT-5f" d="M -97 -1272 
L -97 -866 
L 3631 -866 
L 3631 -1272 
L -97 -1272 
z
" transform="scale(0.015625)"/>
       <path id="ArialMT-43" d="M 3763 1606 
L 4369 1453 
Q 4178 706 3683 314 
Q 3188 -78 2472 -78 
Q 1731 -78 1267 223 
Q 803 525 561 1097 
Q 319 1669 319 2325 
Q 319 3041 592 3573 
Q 866 4106 1370 4382 
Q 1875 4659 2481 4659 
Q 3169 4659 3637 4309 
Q 4106 3959 4291 3325 
L 3694 3184 
Q 3534 3684 3231 3912 
Q 2928 4141 2469 4141 
Q 1941 4141 1586 3887 
Q 1231 3634 1087 3207 
Q 944 2781 944 2328 
Q 944 1744 1114 1308 
Q 1284 872 1643 656 
Q 2003 441 2422 441 
Q 2931 441 3284 734 
Q 3638 1028 3763 1606 
z
" transform="scale(0.015625)"/>
       <path id="ArialMT-72" d="M 416 0 
L 416 3319 
L 922 3319 
L 922 2816 
Q 1116 3169 1280 3281 
Q 1444 3394 1641 3394 
Q 1925 3394 2219 3213 
L 2025 2691 
Q 1819 2813 1613 2813 
Q 1428 2813 1281 2702 
Q 1134 2591 1072 2394 
Q 978 2094 978 1738 
L 978 0 
L 416 0 
z
" transform="scale(0.015625)"/>
       <path id="ArialMT-42" d="M 469 0 
L 469 4581 
L 2188 4581 
Q 2713 4581 3030 4442 
Q 3347 4303 3526 4014 
Q 3706 3725 3706 3409 
Q 3706 3116 3547 2856 
Q 3388 2597 3066 2438 
Q 3481 2316 3704 2022 
Q 3928 1728 3928 1328 
Q 3928 1006 3792 729 
Q 3656 453 3456 303 
Q 3256 153 2954 76 
Q 2653 0 2216 0 
L 469 0 
z
M 1075 2656 
L 2066 2656 
Q 2469 2656 2644 2709 
Q 2875 2778 2992 2937 
Q 3109 3097 3109 3338 
Q 3109 3566 3000 3739 
Q 2891 3913 2687 3977 
Q 2484 4041 1991 4041 
L 1075 4041 
L 1075 2656 
z
M 1075 541 
L 2216 541 
Q 2509 541 2628 563 
Q 2838 600 2978 687 
Q 3119 775 3209 942 
Q 3300 1109 3300 1328 
Q 3300 1584 3169 1773 
Q 3038 1963 2805 2039 
Q 2572 2116 2134 2116 
L 1075 2116 
L 1075 541 
z
" transform="scale(0.015625)"/>
      </defs>
      <use xlink:href="#ArialMT-50"/>
      <use xlink:href="#ArialMT-47" x="66.699219"/>
      <use xlink:href="#ArialMT-49" x="144.482422"/>
      <use xlink:href="#ArialMT-70" x="172.265625"/>
      <use xlink:href="#ArialMT-5f" x="227.880859"/>
      <use xlink:href="#ArialMT-43" x="283.496094"/>
      <use xlink:href="#ArialMT-72" x="355.712891"/>
      <use xlink:href="#ArialMT-74" x="389.013672"/>
      <use xlink:href="#ArialMT-42" x="416.796875"/>
     </g>
    </g>
    <g id="line2d_16">
     <path d="M 57.62 41.806875 
L 67.62 41.806875 
L 77.62 41.806875 
" style="fill: none; stroke: #ef553b; stroke-width: 1.5; stroke-linecap: round"/>
    </g>
    <g id="text_16">
     <!-- best fit (95% CI) -->
     <g style="fill: #262626" transform="translate(85.62 45.306875) scale(0.1 -0.1)">
      <defs>
       <path id="ArialMT-62" d="M 941 0 
L 419 0 
L 419 4581 
L 981 4581 
L 981 2947 
Q 1338 3394 1891 3394 
Q 2197 3394 2470 3270 
Q 2744 3147 2920 2923 
Q 3097 2700 3197 2384 
Q 3297 2069 3297 1709 
Q 3297 856 2875 390 
Q 2453 -75 1863 -75 
Q 1275 -75 941 416 
L 941 0 
z
M 934 1684 
Q 934 1088 1097 822 
Q 1363 388 1816 388 
Q 2184 388 2453 708 
Q 2722 1028 2722 1663 
Q 2722 2313 2464 2622 
Q 2206 2931 1841 2931 
Q 1472 2931 1203 2611 
Q 934 2291 934 1684 
z
" transform="scale(0.015625)"/>
       <path id="ArialMT-73" d="M 197 991 
L 753 1078 
Q 800 744 1014 566 
Q 1228 388 1613 388 
Q 2000 388 2187 545 
Q 2375 703 2375 916 
Q 2375 1106 2209 1216 
Q 2094 1291 1634 1406 
Q 1016 1563 777 1677 
Q 538 1791 414 1992 
Q 291 2194 291 2438 
Q 291 2659 392 2848 
Q 494 3038 669 3163 
Q 800 3259 1026 3326 
Q 1253 3394 1513 3394 
Q 1903 3394 2198 3281 
Q 2494 3169 2634 2976 
Q 2775 2784 2828 2463 
L 2278 2388 
Q 2241 2644 2061 2787 
Q 1881 2931 1553 2931 
Q 1166 2931 1000 2803 
Q 834 2675 834 2503 
Q 834 2394 903 2306 
Q 972 2216 1119 2156 
Q 1203 2125 1616 2013 
Q 2213 1853 2448 1751 
Q 2684 1650 2818 1456 
Q 2953 1263 2953 975 
Q 2953 694 2789 445 
Q 2625 197 2315 61 
Q 2006 -75 1616 -75 
Q 969 -75 630 194 
Q 291 463 197 991 
z
" transform="scale(0.015625)"/>
       <path id="ArialMT-69" d="M 425 3934 
L 425 4581 
L 988 4581 
L 988 3934 
L 425 3934 
z
M 425 0 
L 425 3319 
L 988 3319 
L 988 0 
L 425 0 
z
" transform="scale(0.015625)"/>
       <path id="ArialMT-39" d="M 350 1059 
L 891 1109 
Q 959 728 1153 556 
Q 1347 384 1650 384 
Q 1909 384 2104 503 
Q 2300 622 2425 820 
Q 2550 1019 2634 1356 
Q 2719 1694 2719 2044 
Q 2719 2081 2716 2156 
Q 2547 1888 2255 1720 
Q 1963 1553 1622 1553 
Q 1053 1553 659 1965 
Q 266 2378 266 3053 
Q 266 3750 677 4175 
Q 1088 4600 1706 4600 
Q 2153 4600 2523 4359 
Q 2894 4119 3086 3673 
Q 3278 3228 3278 2384 
Q 3278 1506 3087 986 
Q 2897 466 2520 194 
Q 2144 -78 1638 -78 
Q 1100 -78 759 220 
Q 419 519 350 1059 
z
M 2653 3081 
Q 2653 3566 2395 3850 
Q 2138 4134 1775 4134 
Q 1400 4134 1122 3828 
Q 844 3522 844 3034 
Q 844 2597 1108 2323 
Q 1372 2050 1759 2050 
Q 2150 2050 2401 2323 
Q 2653 2597 2653 3081 
z
" transform="scale(0.015625)"/>
       <path id="ArialMT-25" d="M 372 3481 
Q 372 3972 619 4315 
Q 866 4659 1334 4659 
Q 1766 4659 2048 4351 
Q 2331 4044 2331 3447 
Q 2331 2866 2045 2552 
Q 1759 2238 1341 2238 
Q 925 2238 648 2547 
Q 372 2856 372 3481 
z
M 1350 4272 
Q 1141 4272 1002 4090 
Q 863 3909 863 3425 
Q 863 2984 1003 2804 
Q 1144 2625 1350 2625 
Q 1563 2625 1702 2806 
Q 1841 2988 1841 3469 
Q 1841 3913 1700 4092 
Q 1559 4272 1350 4272 
z
M 1353 -169 
L 3859 4659 
L 4316 4659 
L 1819 -169 
L 1353 -169 
z
M 3334 1075 
Q 3334 1569 3581 1911 
Q 3828 2253 4300 2253 
Q 4731 2253 5014 1945 
Q 5297 1638 5297 1041 
Q 5297 459 5011 145 
Q 4725 -169 4303 -169 
Q 3888 -169 3611 142 
Q 3334 453 3334 1075 
z
M 4316 1866 
Q 4103 1866 3964 1684 
Q 3825 1503 3825 1019 
Q 3825 581 3965 400 
Q 4106 219 4313 219 
Q 4528 219 4667 400 
Q 4806 581 4806 1063 
Q 4806 1506 4665 1686 
Q 4525 1866 4316 1866 
z
" transform="scale(0.015625)"/>
      </defs>
      <use xlink:href="#ArialMT-62"/>
      <use xlink:href="#ArialMT-65" x="55.615234"/>
      <use xlink:href="#ArialMT-73" x="111.230469"/>
      <use xlink:href="#ArialMT-74" x="161.230469"/>
      <use xlink:href="#ArialMT-20" x="189.013672"/>
      <use xlink:href="#ArialMT-66" x="216.796875"/>
      <use xlink:href="#ArialMT-69" x="244.580078"/>
      <use xlink:href="#ArialMT-74" x="266.796875"/>
      <use xlink:href="#ArialMT-20" x="294.580078"/>
      <use xlink:href="#ArialMT-28" x="322.363281"/>
      <use xlink:href="#ArialMT-39" x="355.664062"/>
      <use xlink:href="#ArialMT-35" x="411.279297"/>
      <use xlink:href="#ArialMT-25" x="466.894531"/>
      <use xlink:href="#ArialMT-20" x="555.810547"/>
      <use xlink:href="#ArialMT-43" x="583.59375"/>
      <use xlink:href="#ArialMT-49" x="655.810547"/>
      <use xlink:href="#ArialMT-29" x="683.59375"/>
     </g>
    </g>
   </g>
  </g>
  <g id="axes_2">
   <g id="patch_7">
    <path d="M 310.034748 210.04 
L 475.180476 210.04 
L 475.180476 14.76 
L 310.034748 14.76 
z
" style="fill: #ffffff"/>
   </g>
   <g id="matplotlib.axis_3">
    <g id="xtick_7">
     <g id="line2d_17">
      <g>
       <use xlink:href="#mafab5ab04b" x="337.591574" y="210.04" style="fill: #262626; stroke: #262626; stroke-width: 0.8"/>
      </g>
     </g>
     <g id="text_17">
      <!-- 600 -->
      <g style="fill: #262626" transform="translate(329.250168 224.197812) scale(0.1 -0.1)">
       <defs>
        <path id="ArialMT-36" d="M 3184 3459 
L 2625 3416 
Q 2550 3747 2413 3897 
Q 2184 4138 1850 4138 
Q 1581 4138 1378 3988 
Q 1113 3794 959 3422 
Q 806 3050 800 2363 
Q 1003 2672 1297 2822 
Q 1591 2972 1913 2972 
Q 2475 2972 2870 2558 
Q 3266 2144 3266 1488 
Q 3266 1056 3080 686 
Q 2894 316 2569 119 
Q 2244 -78 1831 -78 
Q 1128 -78 684 439 
Q 241 956 241 2144 
Q 241 3472 731 4075 
Q 1159 4600 1884 4600 
Q 2425 4600 2770 4297 
Q 3116 3994 3184 3459 
z
M 888 1484 
Q 888 1194 1011 928 
Q 1134 663 1356 523 
Q 1578 384 1822 384 
Q 2178 384 2434 671 
Q 2691 959 2691 1453 
Q 2691 1928 2437 2201 
Q 2184 2475 1800 2475 
Q 1419 2475 1153 2201 
Q 888 1928 888 1484 
z
" transform="scale(0.015625)"/>
       </defs>
       <use xlink:href="#ArialMT-36"/>
       <use xlink:href="#ArialMT-30" x="55.615234"/>
       <use xlink:href="#ArialMT-30" x="111.230469"/>
      </g>
     </g>
    </g>
    <g id="xtick_8">
     <g id="line2d_18">
      <g>
       <use xlink:href="#mafab5ab04b" x="381.842586" y="210.04" style="fill: #262626; stroke: #262626; stroke-width: 0.8"/>
      </g>
     </g>
     <g id="text_18">
      <!-- 800 -->
      <g style="fill: #262626" transform="translate(373.50118 224.197812) scale(0.1 -0.1)">
       <defs>
        <path id="ArialMT-38" d="M 1131 2484 
Q 781 2613 612 2850 
Q 444 3088 444 3419 
Q 444 3919 803 4259 
Q 1163 4600 1759 4600 
Q 2359 4600 2725 4251 
Q 3091 3903 3091 3403 
Q 3091 3084 2923 2848 
Q 2756 2613 2416 2484 
Q 2838 2347 3058 2040 
Q 3278 1734 3278 1309 
Q 3278 722 2862 322 
Q 2447 -78 1769 -78 
Q 1091 -78 675 323 
Q 259 725 259 1325 
Q 259 1772 486 2073 
Q 713 2375 1131 2484 
z
M 1019 3438 
Q 1019 3113 1228 2906 
Q 1438 2700 1772 2700 
Q 2097 2700 2305 2904 
Q 2513 3109 2513 3406 
Q 2513 3716 2298 3927 
Q 2084 4138 1766 4138 
Q 1444 4138 1231 3931 
Q 1019 3725 1019 3438 
z
M 838 1322 
Q 838 1081 952 856 
Q 1066 631 1291 507 
Q 1516 384 1775 384 
Q 2178 384 2440 643 
Q 2703 903 2703 1303 
Q 2703 1709 2433 1975 
Q 2163 2241 1756 2241 
Q 1359 2241 1098 1978 
Q 838 1716 838 1322 
z
" transform="scale(0.015625)"/>
       </defs>
       <use xlink:href="#ArialMT-38"/>
       <use xlink:href="#ArialMT-30" x="55.615234"/>
       <use xlink:href="#ArialMT-30" x="111.230469"/>
      </g>
     </g>
    </g>
    <g id="xtick_9">
     <g id="line2d_19">
      <g>
       <use xlink:href="#mafab5ab04b" x="426.093599" y="210.04" style="fill: #262626; stroke: #262626; stroke-width: 0.8"/>
      </g>
     </g>
     <g id="text_19">
      <!-- 1000 -->
      <g style="fill: #262626" transform="translate(414.971724 224.197812) scale(0.1 -0.1)">
       <use xlink:href="#ArialMT-31"/>
       <use xlink:href="#ArialMT-30" x="55.615234"/>
       <use xlink:href="#ArialMT-30" x="111.230469"/>
       <use xlink:href="#ArialMT-30" x="166.845703"/>
      </g>
     </g>
    </g>
    <g id="xtick_10">
     <g id="line2d_20">
      <g>
       <use xlink:href="#mafab5ab04b" x="470.344611" y="210.04" style="fill: #262626; stroke: #262626; stroke-width: 0.8"/>
      </g>
     </g>
     <g id="text_20">
      <!-- 1200 -->
      <g style="fill: #262626" transform="translate(459.222736 224.197812) scale(0.1 -0.1)">
       <use xlink:href="#ArialMT-31"/>
       <use xlink:href="#ArialMT-32" x="55.615234"/>
       <use xlink:href="#ArialMT-30" x="111.230469"/>
       <use xlink:href="#ArialMT-30" x="166.845703"/>
      </g>
     </g>
    </g>
    <g id="text_21">
     <!-- vmax -->
     <g style="fill: #262626" transform="translate(380.662299 237.343125) scale(0.1 -0.1)">
      <defs>
       <path id="ArialMT-76" d="M 1344 0 
L 81 3319 
L 675 3319 
L 1388 1331 
Q 1503 1009 1600 663 
Q 1675 925 1809 1294 
L 2547 3319 
L 3125 3319 
L 1869 0 
L 1344 0 
z
" transform="scale(0.015625)"/>
       <path id="ArialMT-6d" d="M 422 0 
L 422 3319 
L 925 3319 
L 925 2853 
Q 1081 3097 1340 3245 
Q 1600 3394 1931 3394 
Q 2300 3394 2536 3241 
Q 2772 3088 2869 2813 
Q 3263 3394 3894 3394 
Q 4388 3394 4653 3120 
Q 4919 2847 4919 2278 
L 4919 0 
L 4359 0 
L 4359 2091 
Q 4359 2428 4304 2576 
Q 4250 2725 4106 2815 
Q 3963 2906 3769 2906 
Q 3419 2906 3187 2673 
Q 2956 2441 2956 1928 
L 2956 0 
L 2394 0 
L 2394 2156 
Q 2394 2531 2256 2718 
Q 2119 2906 1806 2906 
Q 1569 2906 1367 2781 
Q 1166 2656 1075 2415 
Q 984 2175 984 1722 
L 984 0 
L 422 0 
z
" transform="scale(0.015625)"/>
       <path id="ArialMT-61" d="M 2588 409 
Q 2275 144 1986 34 
Q 1697 -75 1366 -75 
Q 819 -75 525 192 
Q 231 459 231 875 
Q 231 1119 342 1320 
Q 453 1522 633 1644 
Q 813 1766 1038 1828 
Q 1203 1872 1538 1913 
Q 2219 1994 2541 2106 
Q 2544 2222 2544 2253 
Q 2544 2597 2384 2738 
Q 2169 2928 1744 2928 
Q 1347 2928 1158 2789 
Q 969 2650 878 2297 
L 328 2372 
Q 403 2725 575 2942 
Q 747 3159 1072 3276 
Q 1397 3394 1825 3394 
Q 2250 3394 2515 3294 
Q 2781 3194 2906 3042 
Q 3031 2891 3081 2659 
Q 3109 2516 3109 2141 
L 3109 1391 
Q 3109 606 3145 398 
Q 3181 191 3288 0 
L 2700 0 
Q 2613 175 2588 409 
z
M 2541 1666 
Q 2234 1541 1622 1453 
Q 1275 1403 1131 1340 
Q 988 1278 909 1158 
Q 831 1038 831 891 
Q 831 666 1001 516 
Q 1172 366 1500 366 
Q 1825 366 2078 508 
Q 2331 650 2450 897 
Q 2541 1088 2541 1459 
L 2541 1666 
z
" transform="scale(0.015625)"/>
      </defs>
      <use xlink:href="#ArialMT-76"/>
      <use xlink:href="#ArialMT-6d" x="50"/>
      <use xlink:href="#ArialMT-61" x="133.300781"/>
      <use xlink:href="#ArialMT-78" x="188.916016"/>
     </g>
    </g>
   </g>
   <g id="matplotlib.axis_4">
    <g id="ytick_7">
     <g id="line2d_21">
      <g>
       <use xlink:href="#ma92a0078f0" x="310.034748" y="177.429663" style="fill: #262626; stroke: #262626; stroke-width: 0.8"/>
      </g>
     </g>
     <g id="text_22">
      <!-- 10 -->
      <g style="fill: #262626" transform="translate(291.912873 181.008569) scale(0.1 -0.1)">
       <use xlink:href="#ArialMT-31"/>
       <use xlink:href="#ArialMT-30" x="55.615234"/>
      </g>
     </g>
    </g>
    <g id="ytick_8">
     <g id="line2d_22">
      <g>
       <use xlink:href="#ma92a0078f0" x="310.034748" y="141.77856" style="fill: #262626; stroke: #262626; stroke-width: 0.8"/>
      </g>
     </g>
     <g id="text_23">
      <!-- 15 -->
      <g style="fill: #262626" transform="translate(291.912873 145.357466) scale(0.1 -0.1)">
       <use xlink:href="#ArialMT-31"/>
       <use xlink:href="#ArialMT-35" x="55.615234"/>
      </g>
     </g>
    </g>
    <g id="ytick_9">
     <g id="line2d_23">
      <g>
       <use xlink:href="#ma92a0078f0" x="310.034748" y="106.127457" style="fill: #262626; stroke: #262626; stroke-width: 0.8"/>
      </g>
     </g>
     <g id="text_24">
      <!-- 20 -->
      <g style="fill: #262626" transform="translate(291.912873 109.706363) scale(0.1 -0.1)">
       <use xlink:href="#ArialMT-32"/>
       <use xlink:href="#ArialMT-30" x="55.615234"/>
      </g>
     </g>
    </g>
    <g id="ytick_10">
     <g id="line2d_24">
      <g>
       <use xlink:href="#ma92a0078f0" x="310.034748" y="70.476354" style="fill: #262626; stroke: #262626; stroke-width: 0.8"/>
      </g>
     </g>
     <g id="text_25">
      <!-- 25 -->
      <g style="fill: #262626" transform="translate(291.912873 74.05526) scale(0.1 -0.1)">
       <use xlink:href="#ArialMT-32"/>
       <use xlink:href="#ArialMT-35" x="55.615234"/>
      </g>
     </g>
    </g>
    <g id="ytick_11">
     <g id="line2d_25">
      <g>
       <use xlink:href="#ma92a0078f0" x="310.034748" y="34.825251" style="fill: #262626; stroke: #262626; stroke-width: 0.8"/>
      </g>
     </g>
     <g id="text_26">
      <!-- 30 -->
      <g style="fill: #262626" transform="translate(291.912873 38.404157) scale(0.1 -0.1)">
       <use xlink:href="#ArialMT-33"/>
       <use xlink:href="#ArialMT-30" x="55.615234"/>
      </g>
     </g>
    </g>
    <g id="text_27">
     <!-- km -->
     <g style="fill: #262626" transform="translate(285.925373 119.064844) rotate(-90) scale(0.1 -0.1)">
      <defs>
       <path id="ArialMT-6b" d="M 425 0 
L 425 4581 
L 988 4581 
L 988 1969 
L 2319 3319 
L 3047 3319 
L 1778 2088 
L 3175 0 
L 2481 0 
L 1384 1697 
L 988 1316 
L 988 0 
L 425 0 
z
" transform="scale(0.015625)"/>
      </defs>
      <use xlink:href="#ArialMT-6b"/>
      <use xlink:href="#ArialMT-6d" x="50"/>
     </g>
    </g>
   </g>
   <g id="QuadContourSet_1">
    <path clip-path="url(#p2e37979ab8)" style="fill: #130d25"/>
    <path d="M 390.922451 114.737086 
L 391.226716 114.392653 
L 390.922451 114.025524 
L 390.623457 114.392653 
z
M 394.292772 110.774249 
L 394.603484 110.407347 
L 394.292772 110.032695 
L 393.976166 110.407347 
z
" clip-path="url(#p2e37979ab8)" style="fill: #381a40"/>
    <path d="M 390.922451 115.1096 
L 391.555788 114.392653 
L 390.922451 113.628462 
L 390.300086 114.392653 
z
M 390.623457 114.392653 
L 390.922451 114.025524 
L 391.226716 114.392653 
L 390.922451 114.737086 
z
M 394.292772 111.162603 
L 394.932363 110.407347 
L 394.292772 109.636138 
L 393.641049 110.407347 
z
M 393.976166 110.407347 
L 394.292772 110.032695 
L 394.603484 110.407347 
L 394.292772 110.774249 
z
" clip-path="url(#p2e37979ab8)" style="fill: #611f53"/>
    <path d="M 387.55213 118.680208 
L 387.834873 118.377959 
L 387.55213 118.032386 
L 387.284856 118.377959 
z
M 390.922451 115.482114 
L 391.88486 114.392653 
L 390.922451 113.231401 
L 389.976715 114.392653 
z
M 390.300086 114.392653 
L 390.922451 113.628462 
L 391.555788 114.392653 
L 390.922451 115.1096 
z
M 394.292772 111.550958 
L 395.261241 110.407347 
L 394.292772 109.239581 
L 393.305932 110.407347 
z
M 393.641049 110.407347 
L 394.292772 109.636138 
L 394.932363 110.407347 
L 394.292772 111.162603 
z
M 397.663093 106.85555 
L 398.013367 106.422041 
L 397.663093 105.995602 
L 397.287396 106.422041 
z
" clip-path="url(#p2e37979ab8)" style="fill: #8b1d5b"/>
    <path d="M 387.55213 119.104786 
L 388.232052 118.377959 
L 387.55213 117.546948 
L 386.909407 118.377959 
z
M 387.284856 118.377959 
L 387.55213 118.032386 
L 387.834873 118.377959 
L 387.55213 118.680208 
z
M 390.922451 115.854629 
L 392.213932 114.392653 
L 390.922451 112.83434 
L 389.653343 114.392653 
z
M 389.976715 114.392653 
L 390.922451 113.231401 
L 391.88486 114.392653 
L 390.922451 115.482114 
z
M 394.292772 111.939312 
L 395.590119 110.407347 
L 394.292772 108.843024 
L 392.970815 110.407347 
z
M 393.305932 110.407347 
L 394.292772 109.239581 
L 395.261241 110.407347 
L 394.292772 111.550958 
z
M 397.663093 107.341886 
L 398.406325 106.422041 
L 397.663093 105.517196 
L 396.865915 106.422041 
z
M 397.287396 106.422041 
L 397.663093 105.995602 
L 398.013367 106.422041 
L 397.663093 106.85555 
z
" clip-path="url(#p2e37979ab8)" style="fill: #b71657"/>
    <path d="M 384.181809 122.55866 
L 384.377611 122.363265 
L 384.181809 122.117527 
L 384.003923 122.363265 
z
M 387.55213 119.529365 
L 388.62923 118.377959 
L 387.55213 117.061511 
L 386.533957 118.377959 
z
M 386.909407 118.377959 
L 387.55213 117.546948 
L 388.232052 118.377959 
L 387.55213 119.104786 
z
M 390.922451 116.227143 
L 392.543004 114.392653 
L 390.922451 112.437278 
L 389.329972 114.392653 
z
M 389.653343 114.392653 
L 390.922451 112.83434 
L 392.213932 114.392653 
L 390.922451 115.854629 
z
M 394.292772 112.327666 
L 395.918998 110.407347 
L 394.292772 108.446468 
L 392.635699 110.407347 
z
M 392.970815 110.407347 
L 394.292772 108.843024 
L 395.590119 110.407347 
L 394.292772 111.939312 
z
M 397.663093 107.828223 
L 398.799283 106.422041 
L 397.663093 105.03879 
L 396.444435 106.422041 
z
M 396.865915 106.422041 
L 397.663093 105.517196 
L 398.406325 106.422041 
L 397.663093 107.341886 
z
M 401.033414 102.986996 
L 401.453985 102.436735 
L 401.033414 101.915619 
L 400.550008 102.436735 
z
" clip-path="url(#p2e37979ab8)" style="fill: #db2946"/>
    <path d="M 384.181809 123.033282 
L 384.853222 122.363265 
L 384.181809 121.520618 
L 383.571829 122.363265 
z
M 384.003923 122.363265 
L 384.181809 122.117527 
L 384.377611 122.363265 
L 384.181809 122.55866 
z
M 387.55213 119.953944 
L 389.026409 118.377959 
L 390.922451 116.599658 
L 392.872076 114.392653 
L 394.292772 112.71602 
L 396.247876 110.407347 
L 397.663093 108.31456 
L 399.192241 106.422041 
L 397.663093 104.560384 
L 396.022954 106.422041 
L 394.292772 108.049911 
L 392.300582 110.407347 
L 390.922451 112.040217 
L 389.006601 114.392653 
L 387.55213 116.576073 
L 386.158508 118.377959 
z
M 386.533957 118.377959 
L 387.55213 117.061511 
L 388.62923 118.377959 
L 387.55213 119.529365 
z
M 389.329972 114.392653 
L 390.922451 112.437278 
L 392.543004 114.392653 
L 390.922451 116.227143 
z
M 392.635699 110.407347 
L 394.292772 108.446468 
L 395.918998 110.407347 
L 394.292772 112.327666 
z
M 396.444435 106.422041 
L 397.663093 105.03879 
L 398.799283 106.422041 
L 397.663093 107.828223 
z
M 401.033414 103.591181 
L 401.915771 102.436735 
L 401.033414 101.343436 
L 400.019228 102.436735 
z
M 400.550008 102.436735 
L 401.033414 101.915619 
L 401.453985 102.436735 
L 401.033414 102.986996 
z
" clip-path="url(#p2e37979ab8)" style="fill: #ef5840"/>
    <path d="M 380.811488 126.358012 
L 380.821693 126.348571 
L 380.811488 126.335173 
L 380.80254 126.348571 
z
M 384.181809 123.507903 
L 385.328832 122.363265 
L 384.181809 120.923709 
L 383.139735 122.363265 
z
M 383.571829 122.363265 
L 384.181809 121.520618 
L 384.853222 122.363265 
L 384.181809 123.033282 
z
M 387.55213 120.378522 
L 389.423587 118.377959 
L 390.922451 116.972172 
L 393.201148 114.392653 
L 394.292772 113.104374 
L 396.576754 110.407347 
L 397.663093 108.800897 
L 399.5852 106.422041 
L 401.033414 104.195367 
L 402.377557 102.436735 
L 401.033414 100.771253 
L 399.488449 102.436735 
L 397.663093 104.081978 
L 395.601474 106.422041 
L 394.292772 107.653354 
L 391.965465 110.407347 
L 390.922451 111.643155 
L 388.68323 114.392653 
L 387.55213 116.090635 
L 385.783059 118.377959 
z
M 386.158508 118.377959 
L 387.55213 116.576073 
L 389.006601 114.392653 
L 390.922451 112.040217 
L 392.300582 110.407347 
L 394.292772 108.049911 
L 396.022954 106.422041 
L 397.663093 104.560384 
L 399.192241 106.422041 
L 397.663093 108.31456 
L 396.247876 110.407347 
L 394.292772 112.71602 
L 392.872076 114.392653 
L 390.922451 116.599658 
L 389.026409 118.377959 
L 387.55213 119.953944 
z
M 400.019228 102.436735 
L 401.033414 101.343436 
L 401.915771 102.436735 
L 401.033414 103.591181 
z
M 404.403735 99.190394 
L 404.935894 98.451429 
L 404.403735 97.774825 
L 403.737574 98.451429 
z
" clip-path="url(#p2e37979ab8)" style="fill: #f58860"/>
    <path d="M 380.811488 126.87743 
L 381.383104 126.348571 
L 380.811488 125.598036 
L 380.310254 126.348571 
z
M 380.80254 126.348571 
L 380.811488 126.335173 
L 380.821693 126.348571 
L 380.811488 126.358012 
z
M 384.181809 123.982525 
L 385.804443 122.363265 
L 387.55213 120.803101 
L 389.820765 118.377959 
L 390.922451 117.344686 
L 393.53022 114.392653 
L 394.292772 113.492728 
L 396.905633 110.407347 
L 397.663093 109.287234 
L 399.978158 106.422041 
L 401.033414 104.799552 
L 402.839343 102.436735 
L 401.033414 100.19907 
L 398.95767 102.436735 
L 397.663093 103.603572 
L 395.179993 106.422041 
L 394.292772 107.256797 
L 391.630348 110.407347 
L 390.922451 111.246094 
L 388.359859 114.392653 
L 387.55213 115.605197 
L 385.407609 118.377959 
L 384.181809 120.3268 
L 382.707641 122.363265 
z
M 383.139735 122.363265 
L 384.181809 120.923709 
L 385.328832 122.363265 
L 384.181809 123.507903 
z
M 385.783059 118.377959 
L 387.55213 116.090635 
L 388.68323 114.392653 
L 390.922451 111.643155 
L 391.965465 110.407347 
L 394.292772 107.653354 
L 395.601474 106.422041 
L 397.663093 104.081978 
L 399.488449 102.436735 
L 401.033414 100.771253 
L 402.377557 102.436735 
L 401.033414 104.195367 
L 399.5852 106.422041 
L 397.663093 108.800897 
L 396.576754 110.407347 
L 394.292772 113.104374 
L 393.201148 114.392653 
L 390.922451 116.972172 
L 389.423587 118.377959 
L 387.55213 120.378522 
z
M 404.403735 99.930267 
L 405.468706 98.451429 
L 404.403735 97.09739 
L 403.070595 98.451429 
z
M 403.737574 98.451429 
L 404.403735 97.774825 
L 404.935894 98.451429 
L 404.403735 99.190394 
z
M 407.774056 94.601088 
L 407.865643 94.466122 
L 407.774056 94.345706 
L 407.647401 94.466122 
z
" clip-path="url(#p2e37979ab8)" style="fill: #f6b18b"/>
    <path d="M 380.811488 127.396848 
L 381.944516 126.348571 
L 380.811488 124.860898 
L 379.817967 126.348571 
z
M 380.310254 126.348571 
L 380.811488 125.598036 
L 381.383104 126.348571 
L 380.811488 126.87743 
z
M 384.181809 124.457147 
L 386.280053 122.363265 
L 387.55213 121.227679 
L 390.217944 118.377959 
L 390.922451 117.717201 
L 393.859292 114.392653 
L 394.292772 113.881082 
L 397.234511 110.407347 
L 397.663093 109.773571 
L 400.371116 106.422041 
L 401.033414 105.403737 
L 403.301128 102.436735 
L 404.403735 100.670139 
L 406.001519 98.451429 
L 404.403735 96.419956 
L 402.403615 98.451429 
L 401.033414 99.626887 
L 398.426891 102.436735 
L 397.663093 103.125166 
L 394.758513 106.422041 
L 394.292772 106.86024 
L 391.295231 110.407347 
L 390.922451 110.849033 
L 388.036487 114.392653 
L 387.55213 115.119759 
L 385.03216 118.377959 
L 384.181809 119.729891 
L 382.275547 122.363265 
z
M 382.707641 122.363265 
L 384.181809 120.3268 
L 385.407609 118.377959 
L 387.55213 115.605197 
L 388.359859 114.392653 
L 390.922451 111.246094 
L 391.630348 110.407347 
L 394.292772 107.256797 
L 395.179993 106.422041 
L 397.663093 103.603572 
L 398.95767 102.436735 
L 401.033414 100.19907 
L 402.839343 102.436735 
L 401.033414 104.799552 
L 399.978158 106.422041 
L 397.663093 109.287234 
L 396.905633 110.407347 
L 394.292772 113.492728 
L 393.53022 114.392653 
L 390.922451 117.344686 
L 389.820765 118.377959 
L 387.55213 120.803101 
L 385.804443 122.363265 
L 384.181809 123.982525 
z
M 403.070595 98.451429 
L 404.403735 97.09739 
L 405.468706 98.451429 
L 404.403735 99.930267 
z
M 407.774056 95.490978 
L 408.469521 94.466122 
L 407.774056 93.551742 
L 406.812301 94.466122 
z
M 407.647401 94.466122 
L 407.774056 94.345706 
L 407.865643 94.466122 
L 407.774056 94.601088 
z
" clip-path="url(#p2e37979ab8)" style="fill: #f8d9c3"/>
   </g>
   <g id="patch_8">
    <path d="M 310.034748 210.04 
L 310.034748 14.76 
" style="fill: none; stroke: #262626; stroke-width: 0.8; stroke-linejoin: miter; stroke-linecap: square"/>
   </g>
   <g id="patch_9">
    <path d="M 475.180476 210.04 
L 475.180476 14.76 
" style="fill: none; stroke: #262626; stroke-width: 0.8; stroke-linejoin: miter; stroke-linecap: square"/>
   </g>
   <g id="patch_10">
    <path d="M 310.034748 210.04 
L 475.180476 210.04 
" style="fill: none; stroke: #262626; stroke-width: 0.8; stroke-linejoin: miter; stroke-linecap: square"/>
   </g>
   <g id="patch_11">
    <path d="M 310.034748 14.76 
L 475.180476 14.76 
" style="fill: none; stroke: #262626; stroke-width: 0.8; stroke-linejoin: miter; stroke-linecap: square"/>
   </g>
  </g>
  <g id="axes_3">
   <g id="patch_12">
    <path d="M 571.449496 210.04 
L 777.881655 210.04 
L 777.881655 14.76 
L 571.449496 14.76 
z
" style="fill: #ffffff"/>
   </g>
   <g id="matplotlib.axis_5">
    <g id="xtick_11">
     <g id="line2d_26">
      <g>
       <use xlink:href="#mafab5ab04b" x="614.427846" y="210.04" style="fill: #262626; stroke: #262626; stroke-width: 0.8"/>
      </g>
     </g>
     <g id="text_28">
      <!-- −50 -->
      <g style="fill: #262626" transform="translate(605.946596 224.197812) scale(0.1 -0.1)">
       <defs>
        <path id="ArialMT-2212" d="M 3381 1997 
L 356 1997 
L 356 2522 
L 3381 2522 
L 3381 1997 
z
" transform="scale(0.015625)"/>
       </defs>
       <use xlink:href="#ArialMT-2212"/>
       <use xlink:href="#ArialMT-35" x="58.398438"/>
       <use xlink:href="#ArialMT-30" x="114.013672"/>
      </g>
     </g>
    </g>
    <g id="xtick_12">
     <g id="line2d_27">
      <g>
       <use xlink:href="#mafab5ab04b" x="666.986956" y="210.04" style="fill: #262626; stroke: #262626; stroke-width: 0.8"/>
      </g>
     </g>
     <g id="text_29">
      <!-- 0 -->
      <g style="fill: #262626" transform="translate(664.206488 224.197812) scale(0.1 -0.1)">
       <use xlink:href="#ArialMT-30"/>
      </g>
     </g>
    </g>
    <g id="xtick_13">
     <g id="line2d_28">
      <g>
       <use xlink:href="#mafab5ab04b" x="719.546067" y="210.04" style="fill: #262626; stroke: #262626; stroke-width: 0.8"/>
      </g>
     </g>
     <g id="text_30">
      <!-- 50 -->
      <g style="fill: #262626" transform="translate(713.985129 224.197812) scale(0.1 -0.1)">
       <use xlink:href="#ArialMT-35"/>
       <use xlink:href="#ArialMT-30" x="55.615234"/>
      </g>
     </g>
    </g>
    <g id="xtick_14">
     <g id="line2d_29">
      <g>
       <use xlink:href="#mafab5ab04b" x="772.105178" y="210.04" style="fill: #262626; stroke: #262626; stroke-width: 0.8"/>
      </g>
     </g>
     <g id="text_31">
      <!-- 100 -->
      <g style="fill: #262626" transform="translate(763.763771 224.197812) scale(0.1 -0.1)">
       <use xlink:href="#ArialMT-31"/>
       <use xlink:href="#ArialMT-30" x="55.615234"/>
       <use xlink:href="#ArialMT-30" x="111.230469"/>
      </g>
     </g>
    </g>
    <g id="text_32">
     <!-- residual -->
     <g style="fill: #262626" transform="translate(657.156982 237.343125) scale(0.1 -0.1)">
      <defs>
       <path id="ArialMT-64" d="M 2575 0 
L 2575 419 
Q 2259 -75 1647 -75 
Q 1250 -75 917 144 
Q 584 363 401 755 
Q 219 1147 219 1656 
Q 219 2153 384 2558 
Q 550 2963 881 3178 
Q 1213 3394 1622 3394 
Q 1922 3394 2156 3267 
Q 2391 3141 2538 2938 
L 2538 4581 
L 3097 4581 
L 3097 0 
L 2575 0 
z
M 797 1656 
Q 797 1019 1065 703 
Q 1334 388 1700 388 
Q 2069 388 2326 689 
Q 2584 991 2584 1609 
Q 2584 2291 2321 2609 
Q 2059 2928 1675 2928 
Q 1300 2928 1048 2622 
Q 797 2316 797 1656 
z
" transform="scale(0.015625)"/>
      </defs>
      <use xlink:href="#ArialMT-72"/>
      <use xlink:href="#ArialMT-65" x="33.300781"/>
      <use xlink:href="#ArialMT-73" x="88.916016"/>
      <use xlink:href="#ArialMT-69" x="138.916016"/>
      <use xlink:href="#ArialMT-64" x="161.132812"/>
      <use xlink:href="#ArialMT-75" x="216.748047"/>
      <use xlink:href="#ArialMT-61" x="272.363281"/>
      <use xlink:href="#ArialMT-6c" x="327.978516"/>
     </g>
    </g>
   </g>
   <g id="matplotlib.axis_6">
    <g id="ytick_12">
     <g id="line2d_30">
      <g>
       <use xlink:href="#ma92a0078f0" x="571.449496" y="210.04" style="fill: #262626; stroke: #262626; stroke-width: 0.8"/>
      </g>
     </g>
     <g id="text_33">
      <!-- 0.00 -->
      <g style="fill: #262626" transform="translate(544.988558 213.618906) scale(0.1 -0.1)">
       <defs>
        <path id="ArialMT-2e" d="M 581 0 
L 581 641 
L 1222 641 
L 1222 0 
L 581 0 
z
" transform="scale(0.015625)"/>
       </defs>
       <use xlink:href="#ArialMT-30"/>
       <use xlink:href="#ArialMT-2e" x="55.615234"/>
       <use xlink:href="#ArialMT-30" x="83.398438"/>
       <use xlink:href="#ArialMT-30" x="139.013672"/>
      </g>
     </g>
    </g>
    <g id="ytick_13">
     <g id="line2d_31">
      <g>
       <use xlink:href="#ma92a0078f0" x="571.449496" y="171.232084" style="fill: #262626; stroke: #262626; stroke-width: 0.8"/>
      </g>
     </g>
     <g id="text_34">
      <!-- 0.01 -->
      <g style="fill: #262626" transform="translate(544.988558 174.81099) scale(0.1 -0.1)">
       <use xlink:href="#ArialMT-30"/>
       <use xlink:href="#ArialMT-2e" x="55.615234"/>
       <use xlink:href="#ArialMT-30" x="83.398438"/>
       <use xlink:href="#ArialMT-31" x="139.013672"/>
      </g>
     </g>
    </g>
    <g id="ytick_14">
     <g id="line2d_32">
      <g>
       <use xlink:href="#ma92a0078f0" x="571.449496" y="132.424168" style="fill: #262626; stroke: #262626; stroke-width: 0.8"/>
      </g>
     </g>
     <g id="text_35">
      <!-- 0.02 -->
      <g style="fill: #262626" transform="translate(544.988558 136.003074) scale(0.1 -0.1)">
       <use xlink:href="#ArialMT-30"/>
       <use xlink:href="#ArialMT-2e" x="55.615234"/>
       <use xlink:href="#ArialMT-30" x="83.398438"/>
       <use xlink:href="#ArialMT-32" x="139.013672"/>
      </g>
     </g>
    </g>
    <g id="ytick_15">
     <g id="line2d_33">
      <g>
       <use xlink:href="#ma92a0078f0" x="571.449496" y="93.616252" style="fill: #262626; stroke: #262626; stroke-width: 0.8"/>
      </g>
     </g>
     <g id="text_36">
      <!-- 0.03 -->
      <g style="fill: #262626" transform="translate(544.988558 97.195158) scale(0.1 -0.1)">
       <use xlink:href="#ArialMT-30"/>
       <use xlink:href="#ArialMT-2e" x="55.615234"/>
       <use xlink:href="#ArialMT-30" x="83.398438"/>
       <use xlink:href="#ArialMT-33" x="139.013672"/>
      </g>
     </g>
    </g>
    <g id="ytick_16">
     <g id="line2d_34">
      <g>
       <use xlink:href="#ma92a0078f0" x="571.449496" y="54.808336" style="fill: #262626; stroke: #262626; stroke-width: 0.8"/>
      </g>
     </g>
     <g id="text_37">
      <!-- 0.04 -->
      <g style="fill: #262626" transform="translate(544.988558 58.387242) scale(0.1 -0.1)">
       <use xlink:href="#ArialMT-30"/>
       <use xlink:href="#ArialMT-2e" x="55.615234"/>
       <use xlink:href="#ArialMT-30" x="83.398438"/>
       <use xlink:href="#ArialMT-34" x="139.013672"/>
      </g>
     </g>
    </g>
    <g id="ytick_17">
     <g id="line2d_35">
      <g>
       <use xlink:href="#ma92a0078f0" x="571.449496" y="16.00042" style="fill: #262626; stroke: #262626; stroke-width: 0.8"/>
      </g>
     </g>
     <g id="text_38">
      <!-- 0.05 -->
      <g style="fill: #262626" transform="translate(544.988558 19.579326) scale(0.1 -0.1)">
       <use xlink:href="#ArialMT-30"/>
       <use xlink:href="#ArialMT-2e" x="55.615234"/>
       <use xlink:href="#ArialMT-30" x="83.398438"/>
       <use xlink:href="#ArialMT-35" x="139.013672"/>
      </g>
     </g>
    </g>
    <g id="text_39">
     <!-- Density -->
     <g style="fill: #262626" transform="translate(538.883871 129.071875) rotate(-90) scale(0.1 -0.1)">
      <defs>
       <path id="ArialMT-44" d="M 494 0 
L 494 4581 
L 2072 4581 
Q 2606 4581 2888 4516 
Q 3281 4425 3559 4188 
Q 3922 3881 4101 3404 
Q 4281 2928 4281 2316 
Q 4281 1794 4159 1391 
Q 4038 988 3847 723 
Q 3656 459 3429 307 
Q 3203 156 2883 78 
Q 2563 0 2147 0 
L 494 0 
z
M 1100 541 
L 2078 541 
Q 2531 541 2789 625 
Q 3047 709 3200 863 
Q 3416 1078 3536 1442 
Q 3656 1806 3656 2325 
Q 3656 3044 3420 3430 
Q 3184 3816 2847 3947 
Q 2603 4041 2063 4041 
L 1100 4041 
L 1100 541 
z
" transform="scale(0.015625)"/>
      </defs>
      <use xlink:href="#ArialMT-44"/>
      <use xlink:href="#ArialMT-65" x="72.216797"/>
      <use xlink:href="#ArialMT-6e" x="127.832031"/>
      <use xlink:href="#ArialMT-73" x="183.447266"/>
      <use xlink:href="#ArialMT-69" x="233.447266"/>
      <use xlink:href="#ArialMT-74" x="255.664062"/>
      <use xlink:href="#ArialMT-79" x="283.447266"/>
     </g>
    </g>
   </g>
   <g id="patch_13">
    <path d="M 609.246572 210.04 
L 616.942926 210.04 
L 616.942926 200.740952 
L 609.246572 200.740952 
z
" clip-path="url(#p3cf0110f2d)" style="fill: #feb886; fill-opacity: 0.5; stroke: #ffffff; stroke-width: 0.673063; stroke-linejoin: miter"/>
   </g>
   <g id="patch_14">
    <path d="M 616.942926 210.04 
L 624.639279 210.04 
L 624.639279 200.740952 
L 616.942926 200.740952 
z
" clip-path="url(#p3cf0110f2d)" style="fill: #feb886; fill-opacity: 0.5; stroke: #ffffff; stroke-width: 0.673063; stroke-linejoin: miter"/>
   </g>
   <g id="patch_15">
    <path d="M 624.639279 210.04 
L 632.335632 210.04 
L 632.335632 200.740952 
L 624.639279 200.740952 
z
" clip-path="url(#p3cf0110f2d)" style="fill: #feb886; fill-opacity: 0.5; stroke: #ffffff; stroke-width: 0.673063; stroke-linejoin: miter"/>
   </g>
   <g id="patch_16">
    <path d="M 632.335632 210.04 
L 640.031986 210.04 
L 640.031986 191.441905 
L 632.335632 191.441905 
z
" clip-path="url(#p3cf0110f2d)" style="fill: #feb886; fill-opacity: 0.5; stroke: #ffffff; stroke-width: 0.673063; stroke-linejoin: miter"/>
   </g>
   <g id="patch_17">
    <path d="M 640.031986 210.04 
L 647.728339 210.04 
L 647.728339 172.84381 
L 640.031986 172.84381 
z
" clip-path="url(#p3cf0110f2d)" style="fill: #feb886; fill-opacity: 0.5; stroke: #ffffff; stroke-width: 0.673063; stroke-linejoin: miter"/>
   </g>
   <g id="patch_18">
    <path d="M 647.728339 210.04 
L 655.424692 210.04 
L 655.424692 172.84381 
L 647.728339 172.84381 
z
" clip-path="url(#p3cf0110f2d)" style="fill: #feb886; fill-opacity: 0.5; stroke: #ffffff; stroke-width: 0.673063; stroke-linejoin: miter"/>
   </g>
   <g id="patch_19">
    <path d="M 655.424692 210.04 
L 663.121046 210.04 
L 663.121046 144.946667 
L 655.424692 144.946667 
z
" clip-path="url(#p3cf0110f2d)" style="fill: #feb886; fill-opacity: 0.5; stroke: #ffffff; stroke-width: 0.673063; stroke-linejoin: miter"/>
   </g>
   <g id="patch_20">
    <path d="M 663.121046 210.04 
L 670.817399 210.04 
L 670.817399 24.059048 
L 663.121046 24.059048 
z
" clip-path="url(#p3cf0110f2d)" style="fill: #feb886; fill-opacity: 0.5; stroke: #ffffff; stroke-width: 0.673063; stroke-linejoin: miter"/>
   </g>
   <g id="patch_21">
    <path d="M 670.817399 210.04 
L 678.513752 210.04 
L 678.513752 107.750476 
L 670.817399 107.750476 
z
" clip-path="url(#p3cf0110f2d)" style="fill: #feb886; fill-opacity: 0.5; stroke: #ffffff; stroke-width: 0.673063; stroke-linejoin: miter"/>
   </g>
   <g id="patch_22">
    <path d="M 678.513752 210.04 
L 686.210106 210.04 
L 686.210106 200.740952 
L 678.513752 200.740952 
z
" clip-path="url(#p3cf0110f2d)" style="fill: #feb886; fill-opacity: 0.5; stroke: #ffffff; stroke-width: 0.673063; stroke-linejoin: miter"/>
   </g>
   <g id="patch_23">
    <path d="M 686.210106 210.04 
L 693.906459 210.04 
L 693.906459 210.04 
L 686.210106 210.04 
z
" clip-path="url(#p3cf0110f2d)" style="fill: #feb886; fill-opacity: 0.5; stroke: #ffffff; stroke-width: 0.673063; stroke-linejoin: miter"/>
   </g>
   <g id="patch_24">
    <path d="M 693.906459 210.04 
L 701.602812 210.04 
L 701.602812 200.740952 
L 693.906459 200.740952 
z
" clip-path="url(#p3cf0110f2d)" style="fill: #feb886; fill-opacity: 0.5; stroke: #ffffff; stroke-width: 0.673063; stroke-linejoin: miter"/>
   </g>
   <g id="patch_25">
    <path d="M 701.602812 210.04 
L 709.299166 210.04 
L 709.299166 200.740952 
L 701.602812 200.740952 
z
" clip-path="url(#p3cf0110f2d)" style="fill: #feb886; fill-opacity: 0.5; stroke: #ffffff; stroke-width: 0.673063; stroke-linejoin: miter"/>
   </g>
   <g id="patch_26">
    <path d="M 709.299166 210.04 
L 716.995519 210.04 
L 716.995519 191.441905 
L 709.299166 191.441905 
z
" clip-path="url(#p3cf0110f2d)" style="fill: #feb886; fill-opacity: 0.5; stroke: #ffffff; stroke-width: 0.673063; stroke-linejoin: miter"/>
   </g>
   <g id="patch_27">
    <path d="M 716.995519 210.04 
L 724.691872 210.04 
L 724.691872 210.04 
L 716.995519 210.04 
z
" clip-path="url(#p3cf0110f2d)" style="fill: #feb886; fill-opacity: 0.5; stroke: #ffffff; stroke-width: 0.673063; stroke-linejoin: miter"/>
   </g>
   <g id="patch_28">
    <path d="M 724.691872 210.04 
L 732.388226 210.04 
L 732.388226 210.04 
L 724.691872 210.04 
z
" clip-path="url(#p3cf0110f2d)" style="fill: #feb886; fill-opacity: 0.5; stroke: #ffffff; stroke-width: 0.673063; stroke-linejoin: miter"/>
   </g>
   <g id="patch_29">
    <path d="M 732.388226 210.04 
L 740.084579 210.04 
L 740.084579 200.740952 
L 732.388226 200.740952 
z
" clip-path="url(#p3cf0110f2d)" style="fill: #feb886; fill-opacity: 0.5; stroke: #ffffff; stroke-width: 0.673063; stroke-linejoin: miter"/>
   </g>
   <g id="line2d_36">
    <path d="M 580.832776 210.006249 
L 587.434078 209.823149 
L 591.206251 209.531536 
L 594.978424 209.01207 
L 598.750597 208.234685 
L 603.465813 206.984014 
L 612.896245 204.187618 
L 616.668418 202.855331 
L 619.497548 201.628346 
L 622.326677 200.147029 
L 625.155807 198.394055 
L 627.984936 196.369233 
L 630.814066 194.054256 
L 633.643196 191.3753 
L 635.529282 189.315849 
L 637.415369 186.965537 
L 639.301455 184.2492 
L 641.187541 181.084841 
L 643.073628 177.389207 
L 644.959714 173.084218 
L 646.845801 168.104993 
L 648.731887 162.410806 
L 650.617974 156.000209 
L 652.50406 148.930444 
L 655.33319 137.417748 
L 659.105363 121.904174 
L 660.991449 115.052146 
L 661.934492 112.082526 
L 662.877535 109.508332 
L 663.820579 107.394741 
L 664.763622 105.80145 
L 665.706665 104.780241 
L 666.649708 104.372705 
L 667.592751 104.608253 
L 668.535795 105.502538 
L 669.478838 107.056395 
L 670.421881 109.255369 
L 671.364924 112.069882 
L 672.307968 115.456024 
L 674.194054 123.704792 
L 676.08014 133.428913 
L 682.681443 169.553427 
L 684.567529 178.161778 
L 686.453616 185.38615 
L 688.339702 191.137594 
L 689.282745 193.468616 
L 690.225789 195.453377 
L 691.168832 197.110541 
L 692.111875 198.462277 
L 693.054918 199.533273 
L 693.997961 200.349871 
L 694.941005 200.939329 
L 695.884048 201.329215 
L 696.827091 201.546919 
L 697.770134 201.619275 
L 699.656221 201.43085 
L 701.542307 200.958159 
L 706.257523 199.600965 
L 708.14361 199.314305 
L 710.029696 199.292468 
L 711.915783 199.563374 
L 713.801869 200.117038 
L 715.687955 200.909191 
L 718.517085 202.384531 
L 722.289258 204.424255 
L 725.118388 205.662391 
L 727.004474 206.256692 
L 728.89056 206.652454 
L 730.776647 206.868136 
L 733.605776 206.944522 
L 740.207079 206.902986 
L 743.036209 207.118024 
L 746.808381 207.683491 
L 756.238814 209.335822 
L 760.010986 209.710302 
L 764.726203 209.937818 
L 768.498375 210.006511 
L 768.498375 210.006511 
" clip-path="url(#p3cf0110f2d)" style="fill: none; stroke: #feb886; stroke-width: 1.5; stroke-linecap: round"/>
   </g>
   <g id="patch_30">
    <path d="M 571.449496 210.04 
L 571.449496 14.76 
" style="fill: none; stroke: #262626; stroke-width: 0.8; stroke-linejoin: miter; stroke-linecap: square"/>
   </g>
   <g id="patch_31">
    <path d="M 777.881655 210.04 
L 777.881655 14.76 
" style="fill: none; stroke: #262626; stroke-width: 0.8; stroke-linejoin: miter; stroke-linecap: square"/>
   </g>
   <g id="patch_32">
    <path d="M 571.449496 210.04 
L 777.881655 210.04 
" style="fill: none; stroke: #262626; stroke-width: 0.8; stroke-linejoin: miter; stroke-linecap: square"/>
   </g>
   <g id="patch_33">
    <path d="M 571.449496 14.76 
L 777.881655 14.76 
" style="fill: none; stroke: #262626; stroke-width: 0.8; stroke-linejoin: miter; stroke-linecap: square"/>
   </g>
  </g>
  <g id="axes_4">
   <g id="patch_34">
    <path d="M 485.502084 210.04 
L 495.266084 210.04 
L 495.266084 14.76 
L 485.502084 14.76 
z
" style="fill: #ffffff"/>
   </g>
   <g id="matplotlib.axis_7"/>
   <g id="matplotlib.axis_8">
    <g id="ytick_18">
     <g id="line2d_37">
      <defs>
       <path id="m02014c722e" d="M 0 0 
L 3.5 0 
" style="stroke: #262626; stroke-width: 0.8"/>
      </defs>
      <g>
       <use xlink:href="#m02014c722e" x="495.266084" y="210.04" style="fill: #262626; stroke: #262626; stroke-width: 0.8"/>
      </g>
     </g>
     <g id="text_40">
      <!-- 0.0 -->
      <g style="fill: #262626" transform="translate(502.266084 213.618906) scale(0.1 -0.1)">
       <use xlink:href="#ArialMT-30"/>
       <use xlink:href="#ArialMT-2e" x="55.615234"/>
       <use xlink:href="#ArialMT-30" x="83.398438"/>
      </g>
     </g>
    </g>
    <g id="ytick_19">
     <g id="line2d_38">
      <g>
       <use xlink:href="#m02014c722e" x="495.266084" y="170.984" style="fill: #262626; stroke: #262626; stroke-width: 0.8"/>
      </g>
     </g>
     <g id="text_41">
      <!-- 0.2 -->
      <g style="fill: #262626" transform="translate(502.266084 174.562906) scale(0.1 -0.1)">
       <use xlink:href="#ArialMT-30"/>
       <use xlink:href="#ArialMT-2e" x="55.615234"/>
       <use xlink:href="#ArialMT-32" x="83.398438"/>
      </g>
     </g>
    </g>
    <g id="ytick_20">
     <g id="line2d_39">
      <g>
       <use xlink:href="#m02014c722e" x="495.266084" y="131.928" style="fill: #262626; stroke: #262626; stroke-width: 0.8"/>
      </g>
     </g>
     <g id="text_42">
      <!-- 0.4 -->
      <g style="fill: #262626" transform="translate(502.266084 135.506906) scale(0.1 -0.1)">
       <use xlink:href="#ArialMT-30"/>
       <use xlink:href="#ArialMT-2e" x="55.615234"/>
       <use xlink:href="#ArialMT-34" x="83.398438"/>
      </g>
     </g>
    </g>
    <g id="ytick_21">
     <g id="line2d_40">
      <g>
       <use xlink:href="#m02014c722e" x="495.266084" y="92.872" style="fill: #262626; stroke: #262626; stroke-width: 0.8"/>
      </g>
     </g>
     <g id="text_43">
      <!-- 0.6 -->
      <g style="fill: #262626" transform="translate(502.266084 96.450906) scale(0.1 -0.1)">
       <use xlink:href="#ArialMT-30"/>
       <use xlink:href="#ArialMT-2e" x="55.615234"/>
       <use xlink:href="#ArialMT-36" x="83.398438"/>
      </g>
     </g>
    </g>
    <g id="ytick_22">
     <g id="line2d_41">
      <g>
       <use xlink:href="#m02014c722e" x="495.266084" y="53.816" style="fill: #262626; stroke: #262626; stroke-width: 0.8"/>
      </g>
     </g>
     <g id="text_44">
      <!-- 0.8 -->
      <g style="fill: #262626" transform="translate(502.266084 57.394906) scale(0.1 -0.1)">
       <use xlink:href="#ArialMT-30"/>
       <use xlink:href="#ArialMT-2e" x="55.615234"/>
       <use xlink:href="#ArialMT-38" x="83.398438"/>
      </g>
     </g>
    </g>
    <g id="ytick_23">
     <g id="line2d_42">
      <g>
       <use xlink:href="#m02014c722e" x="495.266084" y="14.76" style="fill: #262626; stroke: #262626; stroke-width: 0.8"/>
      </g>
     </g>
     <g id="text_45">
      <!-- 1.0 -->
      <g style="fill: #262626" transform="translate(502.266084 18.338906) scale(0.1 -0.1)">
       <use xlink:href="#ArialMT-31"/>
       <use xlink:href="#ArialMT-2e" x="55.615234"/>
       <use xlink:href="#ArialMT-30" x="83.398438"/>
      </g>
     </g>
    </g>
   </g>
   <g id="QuadMesh_1">
    <path d="M 485.502084 210.04 
L 495.266084 210.04 
L 495.266084 190.512 
L 485.502084 190.512 
L 485.502084 210.04 
" clip-path="url(#p903936946e)" style="fill: #130d25"/>
    <path d="M 485.502084 190.512 
L 495.266084 190.512 
L 495.266084 170.984 
L 485.502084 170.984 
L 485.502084 190.512 
" clip-path="url(#p903936946e)" style="fill: #381a40"/>
    <path d="M 485.502084 170.984 
L 495.266084 170.984 
L 495.266084 151.456 
L 485.502084 151.456 
L 485.502084 170.984 
" clip-path="url(#p903936946e)" style="fill: #611f53"/>
    <path d="M 485.502084 151.456 
L 495.266084 151.456 
L 495.266084 131.928 
L 485.502084 131.928 
L 485.502084 151.456 
" clip-path="url(#p903936946e)" style="fill: #8b1d5b"/>
    <path d="M 485.502084 131.928 
L 495.266084 131.928 
L 495.266084 112.4 
L 485.502084 112.4 
L 485.502084 131.928 
" clip-path="url(#p903936946e)" style="fill: #b71657"/>
    <path d="M 485.502084 112.4 
L 495.266084 112.4 
L 495.266084 92.872 
L 485.502084 92.872 
L 485.502084 112.4 
" clip-path="url(#p903936946e)" style="fill: #db2946"/>
    <path d="M 485.502084 92.872 
L 495.266084 92.872 
L 495.266084 73.344 
L 485.502084 73.344 
L 485.502084 92.872 
" clip-path="url(#p903936946e)" style="fill: #ef5840"/>
    <path d="M 485.502084 73.344 
L 495.266084 73.344 
L 495.266084 53.816 
L 485.502084 53.816 
L 485.502084 73.344 
" clip-path="url(#p903936946e)" style="fill: #f58860"/>
    <path d="M 485.502084 53.816 
L 495.266084 53.816 
L 495.266084 34.288 
L 485.502084 34.288 
L 485.502084 53.816 
" clip-path="url(#p903936946e)" style="fill: #f6b18b"/>
    <path d="M 485.502084 34.288 
L 495.266084 34.288 
L 495.266084 14.76 
L 485.502084 14.76 
L 485.502084 34.288 
" clip-path="url(#p903936946e)" style="fill: #f8d9c3"/>
   </g>
   <g id="LineCollection_1"/>
   <g id="patch_35">
    <path d="M 485.502084 210.04 
L 490.384084 210.04 
L 495.266084 210.04 
L 495.266084 14.76 
L 490.384084 14.76 
L 485.502084 14.76 
L 485.502084 210.04 
z
" style="fill: none; stroke: #262626; stroke-width: 0.8; stroke-linejoin: miter; stroke-linecap: square"/>
   </g>
  </g>
 </g>
 <defs>
  <clipPath id="pa413f17f1e">
   <rect x="48.62" y="14.76" width="206.43216" height="195.28"/>
  </clipPath>
  <clipPath id="p2e37979ab8">
   <rect x="310.034748" y="14.76" width="165.145728" height="195.28"/>
  </clipPath>
  <clipPath id="p3cf0110f2d">
   <rect x="571.449496" y="14.76" width="206.43216" height="195.28"/>
  </clipPath>
  <clipPath id="p903936946e">
   <rect x="485.502084" y="14.76" width="9.764" height="195.28"/>
  </clipPath>
 </defs>
</svg>
