<?xml version="1.0" encoding="utf-8" standalone="no"?>
<!DOCTYPE svg PUBLIC "-//W3C//DTD SVG 1.1//EN"
  "http://www.w3.org/Graphics/SVG/1.1/DTD/svg11.dtd">
<svg xmlns:xlink="http://www.w3.org/1999/xlink" width="648pt" height="252pt" viewBox="0 0 648 252" xmlns="http://www.w3.org/2000/svg" version="1.1">
 <metadata>
  <rdf:RDF xmlns:dc="http://purl.org/dc/elements/1.1/" xmlns:cc="http://creativecommons.org/ns#" xmlns:rdf="http://www.w3.org/1999/02/22-rdf-syntax-ns#">
   <cc:Work>
    <dc:type rdf:resource="http://purl.org/dc/dcmitype/StillImage"/>
    <dc:date>2023-12-04T23:11:13.839895</dc:date>
    <dc:format>image/svg+xml</dc:format>
    <dc:creator>
     <cc:Agent>
      <dc:title>Matplotlib v3.8.1, https://matplotlib.org/</dc:title>
     </cc:Agent>
    </dc:creator>
   </cc:Work>
  </rdf:RDF>
 </metadata>
 <defs>
  <style type="text/css">*{stroke-linejoin: round; stroke-linecap: butt}</style>
 </defs>
 <g id="figure_1">
  <g id="patch_1">
   <path d="M 0 252 
L 648 252 
L 648 0 
L 0 0 
z
" style="fill: #ffffff"/>
  </g>
  <g id="axes_1">
   <g id="patch_2">
    <path d="M 44.57 210.04 
L 320.105 210.04 
L 320.105 14.76 
L 44.57 14.76 
z
" style="fill: #ffffff"/>
   </g>
   <g id="PolyCollection_1">
    <defs>
     <path id="m4a3290b4a7" d="M 57.094318 -50.836364 
L 57.094318 -50.836364 
L 58.34675 -53.294778 
L 59.599182 -55.679185 
L 60.851614 -57.997675 
L 62.104045 -60.261202 
L 63.356477 -62.435976 
L 64.608909 -64.533894 
L 65.861341 -66.589997 
L 67.113773 -68.59166 
L 68.366205 -70.539241 
L 69.618636 -72.439211 
L 70.871068 -74.320789 
L 72.1235 -76.158749 
L 73.375932 -77.897965 
L 74.628364 -79.568501 
L 75.880795 -81.192566 
L 77.133227 -82.799958 
L 78.385659 -84.379025 
L 79.638091 -85.909018 
L 80.890523 -87.420541 
L 82.142955 -88.894277 
L 83.395386 -90.321092 
L 84.647818 -91.721239 
L 85.90025 -93.121302 
L 87.152682 -94.396429 
L 88.405114 -95.600978 
L 89.657545 -96.781912 
L 90.909977 -97.981129 
L 92.162409 -99.158329 
L 93.414841 -100.267536 
L 94.667273 -101.34238 
L 95.919705 -102.496198 
L 97.172136 -103.629878 
L 98.424568 -104.735781 
L 99.677 -105.838302 
L 100.929432 -106.920183 
L 102.181864 -107.98062 
L 103.434295 -109.001808 
L 104.686727 -109.96088 
L 105.939159 -110.946472 
L 107.191591 -111.911868 
L 108.444023 -112.864692 
L 109.696455 -113.742332 
L 110.948886 -114.693578 
L 112.201318 -115.381487 
L 113.45375 -116.146206 
L 114.706182 -116.967693 
L 115.958614 -117.763795 
L 117.211045 -118.485788 
L 118.463477 -119.142059 
L 119.715909 -119.874628 
L 120.968341 -120.480017 
L 122.220773 -121.042144 
L 123.473205 -121.624482 
L 124.725636 -122.449912 
L 125.978068 -123.050208 
L 127.2305 -123.491218 
L 128.482932 -123.998145 
L 129.735364 -124.435383 
L 130.987795 -125.025116 
L 132.240227 -125.800493 
L 133.492659 -126.286373 
L 134.745091 -126.579648 
L 135.997523 -127.130652 
L 137.249955 -127.529512 
L 138.502386 -127.936709 
L 139.754818 -128.352812 
L 141.00725 -128.749411 
L 142.259682 -129.086039 
L 143.512114 -129.385915 
L 144.764545 -129.749889 
L 146.016977 -130.037933 
L 147.269409 -130.360688 
L 148.521841 -130.797341 
L 149.774273 -131.127578 
L 151.026705 -131.318387 
L 152.279136 -131.598484 
L 153.531568 -131.842609 
L 154.784 -132.059542 
L 156.036432 -132.457803 
L 157.288864 -132.516578 
L 158.541295 -132.613455 
L 159.793727 -132.889807 
L 161.046159 -133.044111 
L 162.298591 -133.362812 
L 163.551023 -133.535317 
L 164.803455 -133.690306 
L 166.055886 -133.904053 
L 167.308318 -134.111004 
L 168.56075 -134.333103 
L 169.813182 -134.515537 
L 171.065614 -134.687631 
L 172.318045 -134.907204 
L 173.570477 -135.099639 
L 174.822909 -135.262182 
L 176.075341 -135.465222 
L 177.327773 -135.57001 
L 178.580205 -135.651905 
L 179.832636 -135.912967 
L 181.085068 -136.09813 
L 182.3375 -136.244826 
L 183.589932 -136.34671 
L 184.842364 -136.374199 
L 186.094795 -136.484179 
L 187.347227 -136.593297 
L 188.599659 -136.692752 
L 189.852091 -136.800612 
L 191.104523 -136.92712 
L 192.356955 -137.033851 
L 193.609386 -137.167797 
L 194.861818 -137.249092 
L 196.11425 -137.437683 
L 197.366682 -137.564456 
L 198.619114 -137.684537 
L 199.871545 -137.771429 
L 201.123977 -137.830387 
L 202.376409 -137.870178 
L 203.628841 -137.910806 
L 204.881273 -137.977633 
L 206.133705 -138.021492 
L 207.386136 -138.06536 
L 208.638568 -138.111673 
L 209.891 -138.160349 
L 211.143432 -138.193509 
L 212.395864 -138.233909 
L 213.648295 -138.273699 
L 214.900727 -138.312893 
L 216.153159 -138.351504 
L 217.405591 -138.389545 
L 218.658023 -138.427029 
L 219.910455 -138.463968 
L 221.162886 -138.502277 
L 222.415318 -138.542439 
L 223.66775 -138.62773 
L 224.920182 -138.711913 
L 226.172614 -138.796612 
L 227.425045 -138.88133 
L 228.677477 -138.96497 
L 229.929909 -139.017821 
L 231.182341 -139.037252 
L 232.434773 -139.106206 
L 233.687205 -139.172868 
L 234.939636 -139.20516 
L 236.192068 -139.247585 
L 237.4445 -139.33711 
L 238.696932 -139.382484 
L 239.949364 -139.40581 
L 241.201795 -139.428832 
L 242.454227 -139.451555 
L 243.706659 -139.473984 
L 244.959091 -139.496125 
L 246.211523 -139.517984 
L 247.463955 -139.539566 
L 248.716386 -139.560876 
L 249.968818 -139.588502 
L 251.22125 -139.653153 
L 252.473682 -139.739289 
L 253.726114 -139.80196 
L 254.978545 -139.87303 
L 256.230977 -139.915071 
L 257.483409 -139.929811 
L 258.735841 -139.94544 
L 259.988273 -139.960883 
L 261.240705 -139.976144 
L 262.493136 -140.022919 
L 263.745568 -140.072679 
L 264.998 -140.14647 
L 266.250432 -140.176133 
L 267.502864 -140.23015 
L 268.755295 -140.290406 
L 270.007727 -140.315189 
L 271.260159 -140.349848 
L 272.512591 -140.393483 
L 273.765023 -140.43775 
L 275.017455 -140.481551 
L 276.269886 -140.524893 
L 277.522318 -140.567785 
L 278.77475 -140.610232 
L 280.027182 -140.644278 
L 281.279614 -140.687969 
L 282.532045 -140.731217 
L 283.784477 -140.771701 
L 285.036909 -140.810851 
L 286.289341 -140.849606 
L 287.541773 -140.887973 
L 288.794205 -140.925959 
L 290.046636 -140.963567 
L 291.299068 -141.000805 
L 292.5515 -141.037677 
L 293.803932 -141.073342 
L 295.056364 -141.082763 
L 296.308795 -141.092088 
L 297.561227 -141.101317 
L 298.813659 -141.110453 
L 300.066091 -141.119496 
L 301.318523 -141.128449 
L 302.570955 -141.137312 
L 303.823386 -141.146087 
L 305.075818 -141.154775 
L 306.32825 -141.163378 
L 306.32825 -184.538813 
L 306.32825 -184.538813 
L 305.075818 -184.422876 
L 303.823386 -184.239954 
L 302.570955 -184.092075 
L 301.318523 -183.869684 
L 300.066091 -183.682473 
L 298.813659 -183.493855 
L 297.561227 -183.303816 
L 296.308795 -183.11234 
L 295.056364 -182.916044 
L 293.803932 -182.655321 
L 292.5515 -182.325365 
L 291.299068 -181.99246 
L 290.046636 -181.654951 
L 288.794205 -181.443304 
L 287.541773 -181.248896 
L 286.289341 -181.052956 
L 285.036909 -180.855467 
L 283.784477 -180.613237 
L 282.532045 -180.463566 
L 281.279614 -180.271192 
L 280.027182 -180.121552 
L 278.77475 -179.970659 
L 277.522318 -179.815064 
L 276.269886 -179.655362 
L 275.017455 -179.49423 
L 273.765023 -179.331647 
L 272.512591 -179.154903 
L 271.260159 -178.904061 
L 270.007727 -178.646748 
L 268.755295 -178.462308 
L 267.502864 -178.284204 
L 266.250432 -178.169592 
L 264.998 -178.05381 
L 263.745568 -177.936838 
L 262.493136 -177.817942 
L 261.240705 -177.597251 
L 259.988273 -177.296236 
L 258.735841 -176.990696 
L 257.483409 -176.682842 
L 256.230977 -176.527936 
L 254.978545 -176.387702 
L 253.726114 -176.243272 
L 252.473682 -175.941922 
L 251.22125 -175.767642 
L 249.968818 -175.591596 
L 248.716386 -175.404867 
L 247.463955 -175.241927 
L 246.211523 -175.061733 
L 244.959091 -174.886799 
L 243.706659 -174.732998 
L 242.454227 -174.637875 
L 241.201795 -174.537011 
L 239.949364 -174.400841 
L 238.696932 -174.15975 
L 237.4445 -173.983675 
L 236.192068 -173.774917 
L 234.939636 -173.499595 
L 233.687205 -173.350985 
L 232.434773 -173.222586 
L 231.182341 -173.058793 
L 229.929909 -172.902516 
L 228.677477 -172.799892 
L 227.425045 -172.656088 
L 226.172614 -172.510073 
L 224.920182 -172.358793 
L 223.66775 -172.06534 
L 222.415318 -171.917569 
L 221.162886 -171.604728 
L 219.910455 -171.324683 
L 218.658023 -171.25 
L 217.405591 -171.173232 
L 216.153159 -170.920602 
L 214.900727 -170.729651 
L 213.648295 -170.561683 
L 212.395864 -170.454177 
L 211.143432 -170.347899 
L 209.891 -170.069542 
L 208.638568 -169.81636 
L 207.386136 -169.398431 
L 206.133705 -169.082736 
L 204.881273 -168.896037 
L 203.628841 -168.757694 
L 202.376409 -168.614526 
L 201.123977 -168.467623 
L 199.871545 -168.314798 
L 198.619114 -168.159698 
L 197.366682 -167.778033 
L 196.11425 -167.523171 
L 194.861818 -167.307645 
L 193.609386 -167.02992 
L 192.356955 -166.777877 
L 191.104523 -166.676209 
L 189.852091 -166.482127 
L 188.599659 -166.18824 
L 187.347227 -166.019726 
L 186.094795 -165.853663 
L 184.842364 -165.588028 
L 183.589932 -165.309732 
L 182.3375 -165.032836 
L 181.085068 -164.780508 
L 179.832636 -164.48951 
L 178.580205 -164.300386 
L 177.327773 -164.132631 
L 176.075341 -164.019322 
L 174.822909 -163.871457 
L 173.570477 -163.604942 
L 172.318045 -163.230696 
L 171.065614 -162.974451 
L 169.813182 -162.704771 
L 168.56075 -162.376137 
L 167.308318 -162.068825 
L 166.055886 -161.889629 
L 164.803455 -161.711269 
L 163.551023 -161.458353 
L 162.298591 -161.250381 
L 161.046159 -160.902443 
L 159.793727 -160.613801 
L 158.541295 -160.254789 
L 157.288864 -159.980946 
L 156.036432 -159.738537 
L 154.784 -159.498154 
L 153.531568 -159.177265 
L 152.279136 -158.883308 
L 151.026705 -158.588697 
L 149.774273 -158.386521 
L 148.521841 -158.068206 
L 147.269409 -157.777336 
L 146.016977 -157.58267 
L 144.764545 -157.338986 
L 143.512114 -157.043939 
L 142.259682 -156.725007 
L 141.00725 -156.361919 
L 139.754818 -156.098123 
L 138.502386 -155.827588 
L 137.249955 -155.456146 
L 135.997523 -155.019596 
L 134.745091 -154.739206 
L 133.492659 -154.484186 
L 132.240227 -154.099322 
L 130.987795 -153.576297 
L 129.735364 -153.040811 
L 128.482932 -152.779301 
L 127.2305 -152.576955 
L 125.978068 -152.275114 
L 124.725636 -151.80801 
L 123.473205 -151.42734 
L 122.220773 -151.145958 
L 120.968341 -150.829607 
L 119.715909 -150.369628 
L 118.463477 -149.850995 
L 117.211045 -149.272111 
L 115.958614 -148.790939 
L 114.706182 -148.199921 
L 113.45375 -147.628301 
L 112.201318 -147.219267 
L 110.948886 -146.714406 
L 109.696455 -146.175886 
L 108.444023 -145.651398 
L 107.191591 -145.094261 
L 105.939159 -144.580274 
L 104.686727 -143.939229 
L 103.434295 -143.307271 
L 102.181864 -142.714579 
L 100.929432 -142.065625 
L 99.677 -141.647071 
L 98.424568 -141.090295 
L 97.172136 -140.209202 
L 95.919705 -139.527897 
L 94.667273 -138.812272 
L 93.414841 -138.121076 
L 92.162409 -137.254535 
L 90.909977 -136.436696 
L 89.657545 -135.595124 
L 88.405114 -134.601456 
L 87.152682 -133.733575 
L 85.90025 -132.862341 
L 84.647818 -131.961712 
L 83.395386 -130.891285 
L 82.142955 -129.801986 
L 80.890523 -128.962507 
L 79.638091 -127.724288 
L 78.385659 -126.640884 
L 77.133227 -125.412149 
L 75.880795 -124.15438 
L 74.628364 -122.768271 
L 73.375932 -120.896789 
L 72.1235 -118.990578 
L 70.871068 -116.933223 
L 69.618636 -114.351793 
L 68.366205 -111.453196 
L 67.113773 -108.668045 
L 65.861341 -105.413169 
L 64.608909 -101.410142 
L 63.356477 -97.073328 
L 62.104045 -91.329469 
L 60.851614 -84.570102 
L 59.599182 -76.564668 
L 58.34675 -65.389982 
L 57.094318 -50.836364 
z
" style="stroke: #ef553b; stroke-opacity: 0.3"/>
    </defs>
    <g clip-path="url(#p25cd88b32d)">
     <use xlink:href="#m4a3290b4a7" x="0" y="252" style="fill: #ef553b; fill-opacity: 0.3; stroke: #ef553b; stroke-opacity: 0.3"/>
    </g>
   </g>
   <g id="matplotlib.axis_1">
    <g id="xtick_1">
     <g id="line2d_1">
      <defs>
       <path id="mc9b5060222" d="M 0 0 
L 0 3.5 
" style="stroke: #000000; stroke-width: 0.8"/>
      </defs>
      <g>
       <use xlink:href="#mc9b5060222" x="57.094318" y="210.04" style="stroke: #000000; stroke-width: 0.8"/>
      </g>
     </g>
     <g id="text_1">
      <!-- 0 -->
      <g transform="translate(53.913068 224.638438) scale(0.1 -0.1)">
       <defs>
        <path id="DejaVuSans-30" d="M 2034 4250 
Q 1547 4250 1301 3770 
Q 1056 3291 1056 2328 
Q 1056 1369 1301 889 
Q 1547 409 2034 409 
Q 2525 409 2770 889 
Q 3016 1369 3016 2328 
Q 3016 3291 2770 3770 
Q 2525 4250 2034 4250 
z
M 2034 4750 
Q 2819 4750 3233 4129 
Q 3647 3509 3647 2328 
Q 3647 1150 3233 529 
Q 2819 -91 2034 -91 
Q 1250 -91 836 529 
Q 422 1150 422 2328 
Q 422 3509 836 4129 
Q 1250 4750 2034 4750 
z
" transform="scale(0.015625)"/>
       </defs>
       <use xlink:href="#DejaVuSans-30"/>
      </g>
     </g>
    </g>
    <g id="xtick_2">
     <g id="line2d_2">
      <g>
       <use xlink:href="#mc9b5060222" x="93.423575" y="210.04" style="stroke: #000000; stroke-width: 0.8"/>
      </g>
     </g>
     <g id="text_2">
      <!-- 50 -->
      <g transform="translate(87.061075 224.638438) scale(0.1 -0.1)">
       <defs>
        <path id="DejaVuSans-35" d="M 691 4666 
L 3169 4666 
L 3169 4134 
L 1269 4134 
L 1269 2991 
Q 1406 3038 1543 3061 
Q 1681 3084 1819 3084 
Q 2600 3084 3056 2656 
Q 3513 2228 3513 1497 
Q 3513 744 3044 326 
Q 2575 -91 1722 -91 
Q 1428 -91 1123 -41 
Q 819 9 494 109 
L 494 744 
Q 775 591 1075 516 
Q 1375 441 1709 441 
Q 2250 441 2565 725 
Q 2881 1009 2881 1497 
Q 2881 1984 2565 2268 
Q 2250 2553 1709 2553 
Q 1456 2553 1204 2497 
Q 953 2441 691 2322 
L 691 4666 
z
" transform="scale(0.015625)"/>
       </defs>
       <use xlink:href="#DejaVuSans-35"/>
       <use xlink:href="#DejaVuSans-30" x="63.623047"/>
      </g>
     </g>
    </g>
    <g id="xtick_3">
     <g id="line2d_3">
      <g>
       <use xlink:href="#mc9b5060222" x="129.752832" y="210.04" style="stroke: #000000; stroke-width: 0.8"/>
      </g>
     </g>
     <g id="text_3">
      <!-- 100 -->
      <g transform="translate(120.209082 224.638438) scale(0.1 -0.1)">
       <defs>
        <path id="DejaVuSans-31" d="M 794 531 
L 1825 531 
L 1825 4091 
L 703 3866 
L 703 4441 
L 1819 4666 
L 2450 4666 
L 2450 531 
L 3481 531 
L 3481 0 
L 794 0 
L 794 531 
z
" transform="scale(0.015625)"/>
       </defs>
       <use xlink:href="#DejaVuSans-31"/>
       <use xlink:href="#DejaVuSans-30" x="63.623047"/>
       <use xlink:href="#DejaVuSans-30" x="127.246094"/>
      </g>
     </g>
    </g>
    <g id="xtick_4">
     <g id="line2d_4">
      <g>
       <use xlink:href="#mc9b5060222" x="166.082088" y="210.04" style="stroke: #000000; stroke-width: 0.8"/>
      </g>
     </g>
     <g id="text_4">
      <!-- 150 -->
      <g transform="translate(156.538338 224.638438) scale(0.1 -0.1)">
       <use xlink:href="#DejaVuSans-31"/>
       <use xlink:href="#DejaVuSans-35" x="63.623047"/>
       <use xlink:href="#DejaVuSans-30" x="127.246094"/>
      </g>
     </g>
    </g>
    <g id="xtick_5">
     <g id="line2d_5">
      <g>
       <use xlink:href="#mc9b5060222" x="202.411345" y="210.04" style="stroke: #000000; stroke-width: 0.8"/>
      </g>
     </g>
     <g id="text_5">
      <!-- 200 -->
      <g transform="translate(192.867595 224.638438) scale(0.1 -0.1)">
       <defs>
        <path id="DejaVuSans-32" d="M 1228 531 
L 3431 531 
L 3431 0 
L 469 0 
L 469 531 
Q 828 903 1448 1529 
Q 2069 2156 2228 2338 
Q 2531 2678 2651 2914 
Q 2772 3150 2772 3378 
Q 2772 3750 2511 3984 
Q 2250 4219 1831 4219 
Q 1534 4219 1204 4116 
Q 875 4013 500 3803 
L 500 4441 
Q 881 4594 1212 4672 
Q 1544 4750 1819 4750 
Q 2544 4750 2975 4387 
Q 3406 4025 3406 3419 
Q 3406 3131 3298 2873 
Q 3191 2616 2906 2266 
Q 2828 2175 2409 1742 
Q 1991 1309 1228 531 
z
" transform="scale(0.015625)"/>
       </defs>
       <use xlink:href="#DejaVuSans-32"/>
       <use xlink:href="#DejaVuSans-30" x="63.623047"/>
       <use xlink:href="#DejaVuSans-30" x="127.246094"/>
      </g>
     </g>
    </g>
    <g id="xtick_6">
     <g id="line2d_6">
      <g>
       <use xlink:href="#mc9b5060222" x="238.740602" y="210.04" style="stroke: #000000; stroke-width: 0.8"/>
      </g>
     </g>
     <g id="text_6">
      <!-- 250 -->
      <g transform="translate(229.196852 224.638438) scale(0.1 -0.1)">
       <use xlink:href="#DejaVuSans-32"/>
       <use xlink:href="#DejaVuSans-35" x="63.623047"/>
       <use xlink:href="#DejaVuSans-30" x="127.246094"/>
      </g>
     </g>
    </g>
    <g id="xtick_7">
     <g id="line2d_7">
      <g>
       <use xlink:href="#mc9b5060222" x="275.069858" y="210.04" style="stroke: #000000; stroke-width: 0.8"/>
      </g>
     </g>
     <g id="text_7">
      <!-- 300 -->
      <g transform="translate(265.526108 224.638438) scale(0.1 -0.1)">
       <defs>
        <path id="DejaVuSans-33" d="M 2597 2516 
Q 3050 2419 3304 2112 
Q 3559 1806 3559 1356 
Q 3559 666 3084 287 
Q 2609 -91 1734 -91 
Q 1441 -91 1130 -33 
Q 819 25 488 141 
L 488 750 
Q 750 597 1062 519 
Q 1375 441 1716 441 
Q 2309 441 2620 675 
Q 2931 909 2931 1356 
Q 2931 1769 2642 2001 
Q 2353 2234 1838 2234 
L 1294 2234 
L 1294 2753 
L 1863 2753 
Q 2328 2753 2575 2939 
Q 2822 3125 2822 3475 
Q 2822 3834 2567 4026 
Q 2313 4219 1838 4219 
Q 1578 4219 1281 4162 
Q 984 4106 628 3988 
L 628 4550 
Q 988 4650 1302 4700 
Q 1616 4750 1894 4750 
Q 2613 4750 3031 4423 
Q 3450 4097 3450 3541 
Q 3450 3153 3228 2886 
Q 3006 2619 2597 2516 
z
" transform="scale(0.015625)"/>
       </defs>
       <use xlink:href="#DejaVuSans-33"/>
       <use xlink:href="#DejaVuSans-30" x="63.623047"/>
       <use xlink:href="#DejaVuSans-30" x="127.246094"/>
      </g>
     </g>
    </g>
    <g id="xtick_8">
     <g id="line2d_8">
      <g>
       <use xlink:href="#mc9b5060222" x="311.399115" y="210.04" style="stroke: #000000; stroke-width: 0.8"/>
      </g>
     </g>
     <g id="text_8">
      <!-- 350 -->
      <g transform="translate(301.855365 224.638438) scale(0.1 -0.1)">
       <use xlink:href="#DejaVuSans-33"/>
       <use xlink:href="#DejaVuSans-35" x="63.623047"/>
       <use xlink:href="#DejaVuSans-30" x="127.246094"/>
      </g>
     </g>
    </g>
    <g id="text_9">
     <!-- concentration -->
     <g transform="translate(147.708594 238.316563) scale(0.1 -0.1)">
      <defs>
       <path id="DejaVuSans-63" d="M 3122 3366 
L 3122 2828 
Q 2878 2963 2633 3030 
Q 2388 3097 2138 3097 
Q 1578 3097 1268 2742 
Q 959 2388 959 1747 
Q 959 1106 1268 751 
Q 1578 397 2138 397 
Q 2388 397 2633 464 
Q 2878 531 3122 666 
L 3122 134 
Q 2881 22 2623 -34 
Q 2366 -91 2075 -91 
Q 1284 -91 818 406 
Q 353 903 353 1747 
Q 353 2603 823 3093 
Q 1294 3584 2113 3584 
Q 2378 3584 2631 3529 
Q 2884 3475 3122 3366 
z
" transform="scale(0.015625)"/>
       <path id="DejaVuSans-6f" d="M 1959 3097 
Q 1497 3097 1228 2736 
Q 959 2375 959 1747 
Q 959 1119 1226 758 
Q 1494 397 1959 397 
Q 2419 397 2687 759 
Q 2956 1122 2956 1747 
Q 2956 2369 2687 2733 
Q 2419 3097 1959 3097 
z
M 1959 3584 
Q 2709 3584 3137 3096 
Q 3566 2609 3566 1747 
Q 3566 888 3137 398 
Q 2709 -91 1959 -91 
Q 1206 -91 779 398 
Q 353 888 353 1747 
Q 353 2609 779 3096 
Q 1206 3584 1959 3584 
z
" transform="scale(0.015625)"/>
       <path id="DejaVuSans-6e" d="M 3513 2113 
L 3513 0 
L 2938 0 
L 2938 2094 
Q 2938 2591 2744 2837 
Q 2550 3084 2163 3084 
Q 1697 3084 1428 2787 
Q 1159 2491 1159 1978 
L 1159 0 
L 581 0 
L 581 3500 
L 1159 3500 
L 1159 2956 
Q 1366 3272 1645 3428 
Q 1925 3584 2291 3584 
Q 2894 3584 3203 3211 
Q 3513 2838 3513 2113 
z
" transform="scale(0.015625)"/>
       <path id="DejaVuSans-65" d="M 3597 1894 
L 3597 1613 
L 953 1613 
Q 991 1019 1311 708 
Q 1631 397 2203 397 
Q 2534 397 2845 478 
Q 3156 559 3463 722 
L 3463 178 
Q 3153 47 2828 -22 
Q 2503 -91 2169 -91 
Q 1331 -91 842 396 
Q 353 884 353 1716 
Q 353 2575 817 3079 
Q 1281 3584 2069 3584 
Q 2775 3584 3186 3129 
Q 3597 2675 3597 1894 
z
M 3022 2063 
Q 3016 2534 2758 2815 
Q 2500 3097 2075 3097 
Q 1594 3097 1305 2825 
Q 1016 2553 972 2059 
L 3022 2063 
z
" transform="scale(0.015625)"/>
       <path id="DejaVuSans-74" d="M 1172 4494 
L 1172 3500 
L 2356 3500 
L 2356 3053 
L 1172 3053 
L 1172 1153 
Q 1172 725 1289 603 
Q 1406 481 1766 481 
L 2356 481 
L 2356 0 
L 1766 0 
Q 1100 0 847 248 
Q 594 497 594 1153 
L 594 3053 
L 172 3053 
L 172 3500 
L 594 3500 
L 594 4494 
L 1172 4494 
z
" transform="scale(0.015625)"/>
       <path id="DejaVuSans-72" d="M 2631 2963 
Q 2534 3019 2420 3045 
Q 2306 3072 2169 3072 
Q 1681 3072 1420 2755 
Q 1159 2438 1159 1844 
L 1159 0 
L 581 0 
L 581 3500 
L 1159 3500 
L 1159 2956 
Q 1341 3275 1631 3429 
Q 1922 3584 2338 3584 
Q 2397 3584 2469 3576 
Q 2541 3569 2628 3553 
L 2631 2963 
z
" transform="scale(0.015625)"/>
       <path id="DejaVuSans-61" d="M 2194 1759 
Q 1497 1759 1228 1600 
Q 959 1441 959 1056 
Q 959 750 1161 570 
Q 1363 391 1709 391 
Q 2188 391 2477 730 
Q 2766 1069 2766 1631 
L 2766 1759 
L 2194 1759 
z
M 3341 1997 
L 3341 0 
L 2766 0 
L 2766 531 
Q 2569 213 2275 61 
Q 1981 -91 1556 -91 
Q 1019 -91 701 211 
Q 384 513 384 1019 
Q 384 1609 779 1909 
Q 1175 2209 1959 2209 
L 2766 2209 
L 2766 2266 
Q 2766 2663 2505 2880 
Q 2244 3097 1772 3097 
Q 1472 3097 1187 3025 
Q 903 2953 641 2809 
L 641 3341 
Q 956 3463 1253 3523 
Q 1550 3584 1831 3584 
Q 2591 3584 2966 3190 
Q 3341 2797 3341 1997 
z
" transform="scale(0.015625)"/>
       <path id="DejaVuSans-69" d="M 603 3500 
L 1178 3500 
L 1178 0 
L 603 0 
L 603 3500 
z
M 603 4863 
L 1178 4863 
L 1178 4134 
L 603 4134 
L 603 4863 
z
" transform="scale(0.015625)"/>
      </defs>
      <use xlink:href="#DejaVuSans-63"/>
      <use xlink:href="#DejaVuSans-6f" x="54.980469"/>
      <use xlink:href="#DejaVuSans-6e" x="116.162109"/>
      <use xlink:href="#DejaVuSans-63" x="179.541016"/>
      <use xlink:href="#DejaVuSans-65" x="234.521484"/>
      <use xlink:href="#DejaVuSans-6e" x="296.044922"/>
      <use xlink:href="#DejaVuSans-74" x="359.423828"/>
      <use xlink:href="#DejaVuSans-72" x="398.632812"/>
      <use xlink:href="#DejaVuSans-61" x="439.746094"/>
      <use xlink:href="#DejaVuSans-74" x="501.025391"/>
      <use xlink:href="#DejaVuSans-69" x="540.234375"/>
      <use xlink:href="#DejaVuSans-6f" x="568.017578"/>
      <use xlink:href="#DejaVuSans-6e" x="629.199219"/>
     </g>
    </g>
   </g>
   <g id="matplotlib.axis_2">
    <g id="ytick_1">
     <g id="line2d_9">
      <defs>
       <path id="me7edf70ada" d="M 0 0 
L -3.5 0 
" style="stroke: #000000; stroke-width: 0.8"/>
      </defs>
      <g>
       <use xlink:href="#me7edf70ada" x="44.57" y="201.163636" style="stroke: #000000; stroke-width: 0.8"/>
      </g>
     </g>
     <g id="text_10">
      <!-- 0 -->
      <g transform="translate(31.2075 204.962855) scale(0.1 -0.1)">
       <use xlink:href="#DejaVuSans-30"/>
      </g>
     </g>
    </g>
    <g id="ytick_2">
     <g id="line2d_10">
      <g>
       <use xlink:href="#me7edf70ada" x="44.57" y="171.01417" style="stroke: #000000; stroke-width: 0.8"/>
      </g>
     </g>
     <g id="text_11">
      <!-- 10 -->
      <g transform="translate(24.845 174.813388) scale(0.1 -0.1)">
       <use xlink:href="#DejaVuSans-31"/>
       <use xlink:href="#DejaVuSans-30" x="63.623047"/>
      </g>
     </g>
    </g>
    <g id="ytick_3">
     <g id="line2d_11">
      <g>
       <use xlink:href="#me7edf70ada" x="44.57" y="140.864703" style="stroke: #000000; stroke-width: 0.8"/>
      </g>
     </g>
     <g id="text_12">
      <!-- 20 -->
      <g transform="translate(24.845 144.663922) scale(0.1 -0.1)">
       <use xlink:href="#DejaVuSans-32"/>
       <use xlink:href="#DejaVuSans-30" x="63.623047"/>
      </g>
     </g>
    </g>
    <g id="ytick_4">
     <g id="line2d_12">
      <g>
       <use xlink:href="#me7edf70ada" x="44.57" y="110.715236" style="stroke: #000000; stroke-width: 0.8"/>
      </g>
     </g>
     <g id="text_13">
      <!-- 30 -->
      <g transform="translate(24.845 114.514455) scale(0.1 -0.1)">
       <use xlink:href="#DejaVuSans-33"/>
       <use xlink:href="#DejaVuSans-30" x="63.623047"/>
      </g>
     </g>
    </g>
    <g id="ytick_5">
     <g id="line2d_13">
      <g>
       <use xlink:href="#me7edf70ada" x="44.57" y="80.56577" style="stroke: #000000; stroke-width: 0.8"/>
      </g>
     </g>
     <g id="text_14">
      <!-- 40 -->
      <g transform="translate(24.845 84.364988) scale(0.1 -0.1)">
       <defs>
        <path id="DejaVuSans-34" d="M 2419 4116 
L 825 1625 
L 2419 1625 
L 2419 4116 
z
M 2253 4666 
L 3047 4666 
L 3047 1625 
L 3713 1625 
L 3713 1100 
L 3047 1100 
L 3047 0 
L 2419 0 
L 2419 1100 
L 313 1100 
L 313 1709 
L 2253 4666 
z
" transform="scale(0.015625)"/>
       </defs>
       <use xlink:href="#DejaVuSans-34"/>
       <use xlink:href="#DejaVuSans-30" x="63.623047"/>
      </g>
     </g>
    </g>
    <g id="ytick_6">
     <g id="line2d_14">
      <g>
       <use xlink:href="#me7edf70ada" x="44.57" y="50.416303" style="stroke: #000000; stroke-width: 0.8"/>
      </g>
     </g>
     <g id="text_15">
      <!-- 50 -->
      <g transform="translate(24.845 54.215522) scale(0.1 -0.1)">
       <use xlink:href="#DejaVuSans-35"/>
       <use xlink:href="#DejaVuSans-30" x="63.623047"/>
      </g>
     </g>
    </g>
    <g id="ytick_7">
     <g id="line2d_15">
      <g>
       <use xlink:href="#me7edf70ada" x="44.57" y="20.266836" style="stroke: #000000; stroke-width: 0.8"/>
      </g>
     </g>
     <g id="text_16">
      <!-- 60 -->
      <g transform="translate(24.845 24.066055) scale(0.1 -0.1)">
       <defs>
        <path id="DejaVuSans-36" d="M 2113 2584 
Q 1688 2584 1439 2293 
Q 1191 2003 1191 1497 
Q 1191 994 1439 701 
Q 1688 409 2113 409 
Q 2538 409 2786 701 
Q 3034 994 3034 1497 
Q 3034 2003 2786 2293 
Q 2538 2584 2113 2584 
z
M 3366 4563 
L 3366 3988 
Q 3128 4100 2886 4159 
Q 2644 4219 2406 4219 
Q 1781 4219 1451 3797 
Q 1122 3375 1075 2522 
Q 1259 2794 1537 2939 
Q 1816 3084 2150 3084 
Q 2853 3084 3261 2657 
Q 3669 2231 3669 1497 
Q 3669 778 3244 343 
Q 2819 -91 2113 -91 
Q 1303 -91 875 529 
Q 447 1150 447 2328 
Q 447 3434 972 4092 
Q 1497 4750 2381 4750 
Q 2619 4750 2861 4703 
Q 3103 4656 3366 4563 
z
" transform="scale(0.015625)"/>
       </defs>
       <use xlink:href="#DejaVuSans-36"/>
       <use xlink:href="#DejaVuSans-30" x="63.623047"/>
      </g>
     </g>
    </g>
    <g id="text_17">
     <!-- flux -->
     <g transform="translate(18.765313 121.677344) rotate(-90) scale(0.1 -0.1)">
      <defs>
       <path id="DejaVuSans-66" d="M 2375 4863 
L 2375 4384 
L 1825 4384 
Q 1516 4384 1395 4259 
Q 1275 4134 1275 3809 
L 1275 3500 
L 2222 3500 
L 2222 3053 
L 1275 3053 
L 1275 0 
L 697 0 
L 697 3053 
L 147 3053 
L 147 3500 
L 697 3500 
L 697 3744 
Q 697 4328 969 4595 
Q 1241 4863 1831 4863 
L 2375 4863 
z
" transform="scale(0.015625)"/>
       <path id="DejaVuSans-6c" d="M 603 4863 
L 1178 4863 
L 1178 0 
L 603 0 
L 603 4863 
z
" transform="scale(0.015625)"/>
       <path id="DejaVuSans-75" d="M 544 1381 
L 544 3500 
L 1119 3500 
L 1119 1403 
Q 1119 906 1312 657 
Q 1506 409 1894 409 
Q 2359 409 2629 706 
Q 2900 1003 2900 1516 
L 2900 3500 
L 3475 3500 
L 3475 0 
L 2900 0 
L 2900 538 
Q 2691 219 2414 64 
Q 2138 -91 1772 -91 
Q 1169 -91 856 284 
Q 544 659 544 1381 
z
M 1991 3584 
L 1991 3584 
z
" transform="scale(0.015625)"/>
       <path id="DejaVuSans-78" d="M 3513 3500 
L 2247 1797 
L 3578 0 
L 2900 0 
L 1881 1375 
L 863 0 
L 184 0 
L 1544 1831 
L 300 3500 
L 978 3500 
L 1906 2253 
L 2834 3500 
L 3513 3500 
z
" transform="scale(0.015625)"/>
      </defs>
      <use xlink:href="#DejaVuSans-66"/>
      <use xlink:href="#DejaVuSans-6c" x="35.205078"/>
      <use xlink:href="#DejaVuSans-75" x="62.988281"/>
      <use xlink:href="#DejaVuSans-78" x="126.367188"/>
     </g>
    </g>
   </g>
   <g id="line2d_16">
    <defs>
     <path id="m31a806b9e0" d="M 0 2.5 
C 0.663008 2.5 1.29895 2.236584 1.767767 1.767767 
C 2.236584 1.29895 2.5 0.663008 2.5 0 
C 2.5 -0.663008 2.236584 -1.29895 1.767767 -1.767767 
C 1.29895 -2.236584 0.663008 -2.5 0 -2.5 
C -0.663008 -2.5 -1.29895 -2.236584 -1.767767 -1.767767 
C -2.236584 -1.29895 -2.5 -0.663008 -2.5 0 
C -2.5 0.663008 -2.236584 1.29895 -1.767767 1.767767 
C -1.29895 2.236584 -0.663008 2.5 0 2.5 
z
" style="stroke: #ff7f00"/>
    </defs>
    <g clip-path="url(#p25cd88b32d)">
     <use xlink:href="#m31a806b9e0" x="63.105991" y="191.268674" style="fill: #ffa500; stroke: #ff7f00"/>
     <use xlink:href="#m31a806b9e0" x="61.436082" y="196.507183" style="fill: #ffa500; stroke: #ff7f00"/>
     <use xlink:href="#m31a806b9e0" x="61.269091" y="196.618051" style="fill: #ffa500; stroke: #ff7f00"/>
     <use xlink:href="#m31a806b9e0" x="82.142955" y="171.36788" style="fill: #ffa500; stroke: #ff7f00"/>
     <use xlink:href="#m31a806b9e0" x="82.142955" y="166.101654" style="fill: #ffa500; stroke: #ff7f00"/>
     <use xlink:href="#m31a806b9e0" x="80.473045" y="165.339437" style="fill: #ffa500; stroke: #ff7f00"/>
     <use xlink:href="#m31a806b9e0" x="143.929591" y="123.69467" style="fill: #ffa500; stroke: #ff7f00"/>
     <use xlink:href="#m31a806b9e0" x="120.550864" y="124.664765" style="fill: #ffa500; stroke: #ff7f00"/>
     <use xlink:href="#m31a806b9e0" x="123.890682" y="126.674246" style="fill: #ffa500; stroke: #ff7f00"/>
     <use xlink:href="#m31a806b9e0" x="175.657864" y="67.082734" style="fill: #ffa500; stroke: #ff7f00"/>
     <use xlink:href="#m31a806b9e0" x="122.220773" y="57.866837" style="fill: #ffa500; stroke: #ff7f00"/>
     <use xlink:href="#m31a806b9e0" x="127.2305" y="37.286978" style="fill: #ffa500; stroke: #ff7f00"/>
     <use xlink:href="#m31a806b9e0" x="202.376409" y="149.817926" style="fill: #ffa500; stroke: #ff7f00"/>
     <use xlink:href="#m31a806b9e0" x="142.259682" y="201.163636" style="fill: #ffa500; stroke: #ff7f00"/>
     <use xlink:href="#m31a806b9e0" x="224.085227" y="106.302264" style="fill: #ffa500; stroke: #ff7f00"/>
     <use xlink:href="#m31a806b9e0" x="307.580682" y="133.811369" style="fill: #ffa500; stroke: #ff7f00"/>
     <use xlink:href="#m31a806b9e0" x="240.784318" y="132.841275" style="fill: #ffa500; stroke: #ff7f00"/>
     <use xlink:href="#m31a806b9e0" x="274.1825" y="133.811369" style="fill: #ffa500; stroke: #ff7f00"/>
     <use xlink:href="#m31a806b9e0" x="58.764227" y="195.765754" style="fill: #ffa500; stroke: #ff7f00"/>
     <use xlink:href="#m31a806b9e0" x="57.094318" y="192.072466" style="fill: #ffa500; stroke: #ff7f00"/>
     <use xlink:href="#m31a806b9e0" x="58.764227" y="194.629358" style="fill: #ffa500; stroke: #ff7f00"/>
     <use xlink:href="#m31a806b9e0" x="215.735682" y="41.098063" style="fill: #ffa500; stroke: #ff7f00"/>
     <use xlink:href="#m31a806b9e0" x="142.259682" y="23.636364" style="fill: #ffa500; stroke: #ff7f00"/>
     <use xlink:href="#m31a806b9e0" x="209.056045" y="32.367213" style="fill: #ffa500; stroke: #ff7f00"/>
    </g>
   </g>
   <g id="line2d_17">
    <path d="M 57.094318 201.163636 
L 59.599182 191.497685 
L 62.104045 183.232841 
L 64.608909 176.085049 
L 67.113773 169.842179 
L 69.618636 164.342614 
L 72.1235 159.461061 
L 74.628364 155.098889 
L 77.133227 151.177394 
L 79.638091 147.633009 
L 82.142955 144.413833 
L 84.647818 141.477071 
L 87.152682 138.787121 
L 90.909977 135.150941 
L 94.667273 131.921833 
L 98.424568 129.035062 
L 102.181864 126.438929 
L 105.939159 124.091647 
L 109.696455 121.95907 
L 114.706182 119.401632 
L 119.715909 117.122194 
L 124.725636 115.077765 
L 130.987795 112.800693 
L 137.249955 110.783574 
L 143.512114 108.984299 
L 151.026705 107.066057 
L 158.541295 105.367891 
L 167.308318 103.617491 
L 177.327773 101.867938 
L 187.347227 100.337773 
L 198.619114 98.830579 
L 211.143432 97.372969 
L 224.920182 95.983252 
L 241.201795 94.571918 
L 258.735841 93.274329 
L 278.77475 92.013154 
L 301.318523 90.815013 
L 306.32825 90.575075 
L 306.32825 90.575075 
" clip-path="url(#p25cd88b32d)" style="fill: none; stroke: #ef553b; stroke-width: 1.5; stroke-linecap: square"/>
   </g>
   <g id="patch_3">
    <path d="M 44.57 210.04 
L 44.57 14.76 
" style="fill: none; stroke: #000000; stroke-width: 0.8; stroke-linejoin: miter; stroke-linecap: square"/>
   </g>
   <g id="patch_4">
    <path d="M 320.105 210.04 
L 320.105 14.76 
" style="fill: none; stroke: #000000; stroke-width: 0.8; stroke-linejoin: miter; stroke-linecap: square"/>
   </g>
   <g id="patch_5">
    <path d="M 44.57 210.04 
L 320.105 210.04 
" style="fill: none; stroke: #000000; stroke-width: 0.8; stroke-linejoin: miter; stroke-linecap: square"/>
   </g>
   <g id="patch_6">
    <path d="M 44.57 14.76 
L 320.105 14.76 
" style="fill: none; stroke: #000000; stroke-width: 0.8; stroke-linejoin: miter; stroke-linecap: square"/>
   </g>
   <g id="legend_1">
    <g id="patch_7">
     <path d="M 199.758125 205.04 
L 313.105 205.04 
Q 315.105 205.04 315.105 203.04 
L 315.105 174.68375 
Q 315.105 172.68375 313.105 172.68375 
L 199.758125 172.68375 
Q 197.758125 172.68375 197.758125 174.68375 
L 197.758125 203.04 
Q 197.758125 205.04 199.758125 205.04 
z
" style="fill: #ffffff; opacity: 0.8; stroke: #cccccc; stroke-linejoin: miter"/>
    </g>
    <g id="line2d_18">
     <g>
      <use xlink:href="#m31a806b9e0" x="211.758125" y="180.782188" style="fill: #ffa500; stroke: #ff7f00"/>
     </g>
    </g>
    <g id="text_18">
     <!-- data -->
     <g transform="translate(229.758125 184.282188) scale(0.1 -0.1)">
      <defs>
       <path id="DejaVuSans-64" d="M 2906 2969 
L 2906 4863 
L 3481 4863 
L 3481 0 
L 2906 0 
L 2906 525 
Q 2725 213 2448 61 
Q 2172 -91 1784 -91 
Q 1150 -91 751 415 
Q 353 922 353 1747 
Q 353 2572 751 3078 
Q 1150 3584 1784 3584 
Q 2172 3584 2448 3432 
Q 2725 3281 2906 2969 
z
M 947 1747 
Q 947 1113 1208 752 
Q 1469 391 1925 391 
Q 2381 391 2643 752 
Q 2906 1113 2906 1747 
Q 2906 2381 2643 2742 
Q 2381 3103 1925 3103 
Q 1469 3103 1208 2742 
Q 947 2381 947 1747 
z
" transform="scale(0.015625)"/>
      </defs>
      <use xlink:href="#DejaVuSans-64"/>
      <use xlink:href="#DejaVuSans-61" x="63.476562"/>
      <use xlink:href="#DejaVuSans-74" x="124.755859"/>
      <use xlink:href="#DejaVuSans-61" x="163.964844"/>
     </g>
    </g>
    <g id="line2d_19">
     <path d="M 201.758125 195.460313 
L 211.758125 195.460313 
L 221.758125 195.460313 
" style="fill: none; stroke: #ef553b; stroke-width: 1.5; stroke-linecap: square"/>
    </g>
    <g id="text_19">
     <!-- best fit (95% CI) -->
     <g transform="translate(229.758125 198.960313) scale(0.1 -0.1)">
      <defs>
       <path id="DejaVuSans-62" d="M 3116 1747 
Q 3116 2381 2855 2742 
Q 2594 3103 2138 3103 
Q 1681 3103 1420 2742 
Q 1159 2381 1159 1747 
Q 1159 1113 1420 752 
Q 1681 391 2138 391 
Q 2594 391 2855 752 
Q 3116 1113 3116 1747 
z
M 1159 2969 
Q 1341 3281 1617 3432 
Q 1894 3584 2278 3584 
Q 2916 3584 3314 3078 
Q 3713 2572 3713 1747 
Q 3713 922 3314 415 
Q 2916 -91 2278 -91 
Q 1894 -91 1617 61 
Q 1341 213 1159 525 
L 1159 0 
L 581 0 
L 581 4863 
L 1159 4863 
L 1159 2969 
z
" transform="scale(0.015625)"/>
       <path id="DejaVuSans-73" d="M 2834 3397 
L 2834 2853 
Q 2591 2978 2328 3040 
Q 2066 3103 1784 3103 
Q 1356 3103 1142 2972 
Q 928 2841 928 2578 
Q 928 2378 1081 2264 
Q 1234 2150 1697 2047 
L 1894 2003 
Q 2506 1872 2764 1633 
Q 3022 1394 3022 966 
Q 3022 478 2636 193 
Q 2250 -91 1575 -91 
Q 1294 -91 989 -36 
Q 684 19 347 128 
L 347 722 
Q 666 556 975 473 
Q 1284 391 1588 391 
Q 1994 391 2212 530 
Q 2431 669 2431 922 
Q 2431 1156 2273 1281 
Q 2116 1406 1581 1522 
L 1381 1569 
Q 847 1681 609 1914 
Q 372 2147 372 2553 
Q 372 3047 722 3315 
Q 1072 3584 1716 3584 
Q 2034 3584 2315 3537 
Q 2597 3491 2834 3397 
z
" transform="scale(0.015625)"/>
       <path id="DejaVuSans-20" transform="scale(0.015625)"/>
       <path id="DejaVuSans-28" d="M 1984 4856 
Q 1566 4138 1362 3434 
Q 1159 2731 1159 2009 
Q 1159 1288 1364 580 
Q 1569 -128 1984 -844 
L 1484 -844 
Q 1016 -109 783 600 
Q 550 1309 550 2009 
Q 550 2706 781 3412 
Q 1013 4119 1484 4856 
L 1984 4856 
z
" transform="scale(0.015625)"/>
       <path id="DejaVuSans-39" d="M 703 97 
L 703 672 
Q 941 559 1184 500 
Q 1428 441 1663 441 
Q 2288 441 2617 861 
Q 2947 1281 2994 2138 
Q 2813 1869 2534 1725 
Q 2256 1581 1919 1581 
Q 1219 1581 811 2004 
Q 403 2428 403 3163 
Q 403 3881 828 4315 
Q 1253 4750 1959 4750 
Q 2769 4750 3195 4129 
Q 3622 3509 3622 2328 
Q 3622 1225 3098 567 
Q 2575 -91 1691 -91 
Q 1453 -91 1209 -44 
Q 966 3 703 97 
z
M 1959 2075 
Q 2384 2075 2632 2365 
Q 2881 2656 2881 3163 
Q 2881 3666 2632 3958 
Q 2384 4250 1959 4250 
Q 1534 4250 1286 3958 
Q 1038 3666 1038 3163 
Q 1038 2656 1286 2365 
Q 1534 2075 1959 2075 
z
" transform="scale(0.015625)"/>
       <path id="DejaVuSans-25" d="M 4653 2053 
Q 4381 2053 4226 1822 
Q 4072 1591 4072 1178 
Q 4072 772 4226 539 
Q 4381 306 4653 306 
Q 4919 306 5073 539 
Q 5228 772 5228 1178 
Q 5228 1588 5073 1820 
Q 4919 2053 4653 2053 
z
M 4653 2450 
Q 5147 2450 5437 2106 
Q 5728 1763 5728 1178 
Q 5728 594 5436 251 
Q 5144 -91 4653 -91 
Q 4153 -91 3862 251 
Q 3572 594 3572 1178 
Q 3572 1766 3864 2108 
Q 4156 2450 4653 2450 
z
M 1428 4353 
Q 1159 4353 1004 4120 
Q 850 3888 850 3481 
Q 850 3069 1003 2837 
Q 1156 2606 1428 2606 
Q 1700 2606 1854 2837 
Q 2009 3069 2009 3481 
Q 2009 3884 1853 4118 
Q 1697 4353 1428 4353 
z
M 4250 4750 
L 4750 4750 
L 1831 -91 
L 1331 -91 
L 4250 4750 
z
M 1428 4750 
Q 1922 4750 2215 4408 
Q 2509 4066 2509 3481 
Q 2509 2891 2217 2550 
Q 1925 2209 1428 2209 
Q 931 2209 642 2551 
Q 353 2894 353 3481 
Q 353 4063 643 4406 
Q 934 4750 1428 4750 
z
" transform="scale(0.015625)"/>
       <path id="DejaVuSans-43" d="M 4122 4306 
L 4122 3641 
Q 3803 3938 3442 4084 
Q 3081 4231 2675 4231 
Q 1875 4231 1450 3742 
Q 1025 3253 1025 2328 
Q 1025 1406 1450 917 
Q 1875 428 2675 428 
Q 3081 428 3442 575 
Q 3803 722 4122 1019 
L 4122 359 
Q 3791 134 3420 21 
Q 3050 -91 2638 -91 
Q 1578 -91 968 557 
Q 359 1206 359 2328 
Q 359 3453 968 4101 
Q 1578 4750 2638 4750 
Q 3056 4750 3426 4639 
Q 3797 4528 4122 4306 
z
" transform="scale(0.015625)"/>
       <path id="DejaVuSans-49" d="M 628 4666 
L 1259 4666 
L 1259 0 
L 628 0 
L 628 4666 
z
" transform="scale(0.015625)"/>
       <path id="DejaVuSans-29" d="M 513 4856 
L 1013 4856 
Q 1481 4119 1714 3412 
Q 1947 2706 1947 2009 
Q 1947 1309 1714 600 
Q 1481 -109 1013 -844 
L 513 -844 
Q 928 -128 1133 580 
Q 1338 1288 1338 2009 
Q 1338 2731 1133 3434 
Q 928 4138 513 4856 
z
" transform="scale(0.015625)"/>
      </defs>
      <use xlink:href="#DejaVuSans-62"/>
      <use xlink:href="#DejaVuSans-65" x="63.476562"/>
      <use xlink:href="#DejaVuSans-73" x="125"/>
      <use xlink:href="#DejaVuSans-74" x="177.099609"/>
      <use xlink:href="#DejaVuSans-20" x="216.308594"/>
      <use xlink:href="#DejaVuSans-66" x="248.095703"/>
      <use xlink:href="#DejaVuSans-69" x="283.300781"/>
      <use xlink:href="#DejaVuSans-74" x="311.083984"/>
      <use xlink:href="#DejaVuSans-20" x="350.292969"/>
      <use xlink:href="#DejaVuSans-28" x="382.080078"/>
      <use xlink:href="#DejaVuSans-39" x="421.09375"/>
      <use xlink:href="#DejaVuSans-35" x="484.716797"/>
      <use xlink:href="#DejaVuSans-25" x="548.339844"/>
      <use xlink:href="#DejaVuSans-20" x="643.359375"/>
      <use xlink:href="#DejaVuSans-43" x="675.146484"/>
      <use xlink:href="#DejaVuSans-49" x="744.970703"/>
      <use xlink:href="#DejaVuSans-29" x="774.462891"/>
     </g>
    </g>
   </g>
  </g>
  <g id="axes_2">
   <g id="patch_8">
    <path d="M 353.745 210.04 
L 629.28 210.04 
L 629.28 14.76 
L 353.745 14.76 
z
" style="fill: #ffffff"/>
   </g>
   <g id="matplotlib.axis_3">
    <g id="xtick_9">
     <g id="line2d_20">
      <g>
       <use xlink:href="#mc9b5060222" x="353.745" y="210.04" style="stroke: #000000; stroke-width: 0.8"/>
      </g>
     </g>
     <g id="text_20">
      <!-- 0.0 -->
      <g transform="translate(345.793438 224.638438) scale(0.1 -0.1)">
       <defs>
        <path id="DejaVuSans-2e" d="M 684 794 
L 1344 794 
L 1344 0 
L 684 0 
L 684 794 
z
" transform="scale(0.015625)"/>
       </defs>
       <use xlink:href="#DejaVuSans-30"/>
       <use xlink:href="#DejaVuSans-2e" x="63.623047"/>
       <use xlink:href="#DejaVuSans-30" x="95.410156"/>
      </g>
     </g>
    </g>
    <g id="xtick_10">
     <g id="line2d_21">
      <g>
       <use xlink:href="#mc9b5060222" x="408.852" y="210.04" style="stroke: #000000; stroke-width: 0.8"/>
      </g>
     </g>
     <g id="text_21">
      <!-- 0.2 -->
      <g transform="translate(400.900438 224.638438) scale(0.1 -0.1)">
       <use xlink:href="#DejaVuSans-30"/>
       <use xlink:href="#DejaVuSans-2e" x="63.623047"/>
       <use xlink:href="#DejaVuSans-32" x="95.410156"/>
      </g>
     </g>
    </g>
    <g id="xtick_11">
     <g id="line2d_22">
      <g>
       <use xlink:href="#mc9b5060222" x="463.959" y="210.04" style="stroke: #000000; stroke-width: 0.8"/>
      </g>
     </g>
     <g id="text_22">
      <!-- 0.4 -->
      <g transform="translate(456.007438 224.638438) scale(0.1 -0.1)">
       <use xlink:href="#DejaVuSans-30"/>
       <use xlink:href="#DejaVuSans-2e" x="63.623047"/>
       <use xlink:href="#DejaVuSans-34" x="95.410156"/>
      </g>
     </g>
    </g>
    <g id="xtick_12">
     <g id="line2d_23">
      <g>
       <use xlink:href="#mc9b5060222" x="519.066" y="210.04" style="stroke: #000000; stroke-width: 0.8"/>
      </g>
     </g>
     <g id="text_23">
      <!-- 0.6 -->
      <g transform="translate(511.114438 224.638438) scale(0.1 -0.1)">
       <use xlink:href="#DejaVuSans-30"/>
       <use xlink:href="#DejaVuSans-2e" x="63.623047"/>
       <use xlink:href="#DejaVuSans-36" x="95.410156"/>
      </g>
     </g>
    </g>
    <g id="xtick_13">
     <g id="line2d_24">
      <g>
       <use xlink:href="#mc9b5060222" x="574.173" y="210.04" style="stroke: #000000; stroke-width: 0.8"/>
      </g>
     </g>
     <g id="text_24">
      <!-- 0.8 -->
      <g transform="translate(566.221438 224.638438) scale(0.1 -0.1)">
       <defs>
        <path id="DejaVuSans-38" d="M 2034 2216 
Q 1584 2216 1326 1975 
Q 1069 1734 1069 1313 
Q 1069 891 1326 650 
Q 1584 409 2034 409 
Q 2484 409 2743 651 
Q 3003 894 3003 1313 
Q 3003 1734 2745 1975 
Q 2488 2216 2034 2216 
z
M 1403 2484 
Q 997 2584 770 2862 
Q 544 3141 544 3541 
Q 544 4100 942 4425 
Q 1341 4750 2034 4750 
Q 2731 4750 3128 4425 
Q 3525 4100 3525 3541 
Q 3525 3141 3298 2862 
Q 3072 2584 2669 2484 
Q 3125 2378 3379 2068 
Q 3634 1759 3634 1313 
Q 3634 634 3220 271 
Q 2806 -91 2034 -91 
Q 1263 -91 848 271 
Q 434 634 434 1313 
Q 434 1759 690 2068 
Q 947 2378 1403 2484 
z
M 1172 3481 
Q 1172 3119 1398 2916 
Q 1625 2713 2034 2713 
Q 2441 2713 2670 2916 
Q 2900 3119 2900 3481 
Q 2900 3844 2670 4047 
Q 2441 4250 2034 4250 
Q 1625 4250 1398 4047 
Q 1172 3844 1172 3481 
z
" transform="scale(0.015625)"/>
       </defs>
       <use xlink:href="#DejaVuSans-30"/>
       <use xlink:href="#DejaVuSans-2e" x="63.623047"/>
       <use xlink:href="#DejaVuSans-38" x="95.410156"/>
      </g>
     </g>
    </g>
    <g id="xtick_14">
     <g id="line2d_25">
      <g>
       <use xlink:href="#mc9b5060222" x="629.28" y="210.04" style="stroke: #000000; stroke-width: 0.8"/>
      </g>
     </g>
     <g id="text_25">
      <!-- 1.0 -->
      <g transform="translate(621.328438 224.638438) scale(0.1 -0.1)">
       <use xlink:href="#DejaVuSans-31"/>
       <use xlink:href="#DejaVuSans-2e" x="63.623047"/>
       <use xlink:href="#DejaVuSans-30" x="95.410156"/>
      </g>
     </g>
    </g>
   </g>
   <g id="matplotlib.axis_4">
    <g id="ytick_8">
     <g id="line2d_26">
      <g>
       <use xlink:href="#me7edf70ada" x="353.745" y="210.04" style="stroke: #000000; stroke-width: 0.8"/>
      </g>
     </g>
     <g id="text_26">
      <!-- 0.0 -->
      <g transform="translate(330.841875 213.839219) scale(0.1 -0.1)">
       <use xlink:href="#DejaVuSans-30"/>
       <use xlink:href="#DejaVuSans-2e" x="63.623047"/>
       <use xlink:href="#DejaVuSans-30" x="95.410156"/>
      </g>
     </g>
    </g>
    <g id="ytick_9">
     <g id="line2d_27">
      <g>
       <use xlink:href="#me7edf70ada" x="353.745" y="170.984" style="stroke: #000000; stroke-width: 0.8"/>
      </g>
     </g>
     <g id="text_27">
      <!-- 0.2 -->
      <g transform="translate(330.841875 174.783219) scale(0.1 -0.1)">
       <use xlink:href="#DejaVuSans-30"/>
       <use xlink:href="#DejaVuSans-2e" x="63.623047"/>
       <use xlink:href="#DejaVuSans-32" x="95.410156"/>
      </g>
     </g>
    </g>
    <g id="ytick_10">
     <g id="line2d_28">
      <g>
       <use xlink:href="#me7edf70ada" x="353.745" y="131.928" style="stroke: #000000; stroke-width: 0.8"/>
      </g>
     </g>
     <g id="text_28">
      <!-- 0.4 -->
      <g transform="translate(330.841875 135.727219) scale(0.1 -0.1)">
       <use xlink:href="#DejaVuSans-30"/>
       <use xlink:href="#DejaVuSans-2e" x="63.623047"/>
       <use xlink:href="#DejaVuSans-34" x="95.410156"/>
      </g>
     </g>
    </g>
    <g id="ytick_11">
     <g id="line2d_29">
      <g>
       <use xlink:href="#me7edf70ada" x="353.745" y="92.872" style="stroke: #000000; stroke-width: 0.8"/>
      </g>
     </g>
     <g id="text_29">
      <!-- 0.6 -->
      <g transform="translate(330.841875 96.671219) scale(0.1 -0.1)">
       <use xlink:href="#DejaVuSans-30"/>
       <use xlink:href="#DejaVuSans-2e" x="63.623047"/>
       <use xlink:href="#DejaVuSans-36" x="95.410156"/>
      </g>
     </g>
    </g>
    <g id="ytick_12">
     <g id="line2d_30">
      <g>
       <use xlink:href="#me7edf70ada" x="353.745" y="53.816" style="stroke: #000000; stroke-width: 0.8"/>
      </g>
     </g>
     <g id="text_30">
      <!-- 0.8 -->
      <g transform="translate(330.841875 57.615219) scale(0.1 -0.1)">
       <use xlink:href="#DejaVuSans-30"/>
       <use xlink:href="#DejaVuSans-2e" x="63.623047"/>
       <use xlink:href="#DejaVuSans-38" x="95.410156"/>
      </g>
     </g>
    </g>
    <g id="ytick_13">
     <g id="line2d_31">
      <g>
       <use xlink:href="#me7edf70ada" x="353.745" y="14.76" style="stroke: #000000; stroke-width: 0.8"/>
      </g>
     </g>
     <g id="text_31">
      <!-- 1.0 -->
      <g transform="translate(330.841875 18.559219) scale(0.1 -0.1)">
       <use xlink:href="#DejaVuSans-31"/>
       <use xlink:href="#DejaVuSans-2e" x="63.623047"/>
       <use xlink:href="#DejaVuSans-30" x="95.410156"/>
      </g>
     </g>
    </g>
   </g>
   <g id="patch_9">
    <path d="M 353.745 210.04 
L 353.745 14.76 
" style="fill: none; stroke: #000000; stroke-width: 0.8; stroke-linejoin: miter; stroke-linecap: square"/>
   </g>
   <g id="patch_10">
    <path d="M 629.28 210.04 
L 629.28 14.76 
" style="fill: none; stroke: #000000; stroke-width: 0.8; stroke-linejoin: miter; stroke-linecap: square"/>
   </g>
   <g id="patch_11">
    <path d="M 353.745 210.04 
L 629.28 210.04 
" style="fill: none; stroke: #000000; stroke-width: 0.8; stroke-linejoin: miter; stroke-linecap: square"/>
   </g>
   <g id="patch_12">
    <path d="M 353.745 14.76 
L 629.28 14.76 
" style="fill: none; stroke: #000000; stroke-width: 0.8; stroke-linejoin: miter; stroke-linecap: square"/>
   </g>
  </g>
 </g>
 <defs>
  <clipPath id="p25cd88b32d">
   <rect x="44.57" y="14.76" width="275.535" height="195.28"/>
  </clipPath>
 </defs>
</svg>
