<?xml version="1.0" encoding="utf-8" standalone="no"?>
<!DOCTYPE svg PUBLIC "-//W3C//DTD SVG 1.1//EN"
  "http://www.w3.org/Graphics/SVG/1.1/DTD/svg11.dtd">
<svg xmlns:xlink="http://www.w3.org/1999/xlink" width="792pt" height="252pt" viewBox="0 0 792 252" xmlns="http://www.w3.org/2000/svg" version="1.1">
 <metadata>
  <rdf:RDF xmlns:dc="http://purl.org/dc/elements/1.1/" xmlns:cc="http://creativecommons.org/ns#" xmlns:rdf="http://www.w3.org/1999/02/22-rdf-syntax-ns#">
   <cc:Work>
    <dc:type rdf:resource="http://purl.org/dc/dcmitype/StillImage"/>
    <dc:date>2023-12-20T15:26:16.396465</dc:date>
    <dc:format>image/svg+xml</dc:format>
    <dc:creator>
     <cc:Agent>
      <dc:title>Matplotlib v3.8.1, https://matplotlib.org/</dc:title>
     </cc:Agent>
    </dc:creator>
   </cc:Work>
  </rdf:RDF>
 </metadata>
 <defs>
  <style type="text/css">*{stroke-linejoin: round; stroke-linecap: butt}</style>
 </defs>
 <g id="figure_1">
  <g id="patch_1">
   <path d="M 0 252 
L 792 252 
L 792 0 
L 0 0 
z
" style="fill: #ffffff"/>
  </g>
  <g id="axes_1">
   <g id="patch_2">
    <path d="M 43.04 210.04 
L 250.17 210.04 
L 250.17 14.76 
L 43.04 14.76 
z
" style="fill: #ffffff"/>
   </g>
   <g id="matplotlib.axis_1">
    <g id="xtick_1">
     <g id="line2d_1">
      <defs>
       <path id="maaf4527f0b" d="M 0 0 
L 0 3.5 
" style="stroke: #262626; stroke-width: 0.8"/>
      </defs>
      <g>
       <use xlink:href="#maaf4527f0b" x="52.455" y="210.04" style="fill: #262626; stroke: #262626; stroke-width: 0.8"/>
      </g>
     </g>
     <g id="text_1">
      <!-- 0 -->
      <g style="fill: #262626" transform="translate(49.674531 224.197812) scale(0.1 -0.1)">
       <defs>
        <path id="ArialMT-30" d="M 266 2259 
Q 266 3072 433 3567 
Q 600 4063 929 4331 
Q 1259 4600 1759 4600 
Q 2128 4600 2406 4451 
Q 2684 4303 2865 4023 
Q 3047 3744 3150 3342 
Q 3253 2941 3253 2259 
Q 3253 1453 3087 958 
Q 2922 463 2592 192 
Q 2263 -78 1759 -78 
Q 1097 -78 719 397 
Q 266 969 266 2259 
z
M 844 2259 
Q 844 1131 1108 757 
Q 1372 384 1759 384 
Q 2147 384 2411 759 
Q 2675 1134 2675 2259 
Q 2675 3391 2411 3762 
Q 2147 4134 1753 4134 
Q 1366 4134 1134 3806 
Q 844 3388 844 2259 
z
" transform="scale(0.015625)"/>
       </defs>
       <use xlink:href="#ArialMT-30"/>
      </g>
     </g>
    </g>
    <g id="xtick_2">
     <g id="line2d_2">
      <g>
       <use xlink:href="#maaf4527f0b" x="107.075131" y="210.04" style="fill: #262626; stroke: #262626; stroke-width: 0.8"/>
      </g>
     </g>
     <g id="text_2">
      <!-- 100 -->
      <g style="fill: #262626" transform="translate(98.733725 224.197812) scale(0.1 -0.1)">
       <defs>
        <path id="ArialMT-31" d="M 2384 0 
L 1822 0 
L 1822 3584 
Q 1619 3391 1289 3197 
Q 959 3003 697 2906 
L 697 3450 
Q 1169 3672 1522 3987 
Q 1875 4303 2022 4600 
L 2384 4600 
L 2384 0 
z
" transform="scale(0.015625)"/>
       </defs>
       <use xlink:href="#ArialMT-31"/>
       <use xlink:href="#ArialMT-30" x="55.615234"/>
       <use xlink:href="#ArialMT-30" x="111.230469"/>
      </g>
     </g>
    </g>
    <g id="xtick_3">
     <g id="line2d_3">
      <g>
       <use xlink:href="#maaf4527f0b" x="161.695263" y="210.04" style="fill: #262626; stroke: #262626; stroke-width: 0.8"/>
      </g>
     </g>
     <g id="text_3">
      <!-- 200 -->
      <g style="fill: #262626" transform="translate(153.353856 224.197812) scale(0.1 -0.1)">
       <defs>
        <path id="ArialMT-32" d="M 3222 541 
L 3222 0 
L 194 0 
Q 188 203 259 391 
Q 375 700 629 1000 
Q 884 1300 1366 1694 
Q 2113 2306 2375 2664 
Q 2638 3022 2638 3341 
Q 2638 3675 2398 3904 
Q 2159 4134 1775 4134 
Q 1369 4134 1125 3890 
Q 881 3647 878 3216 
L 300 3275 
Q 359 3922 746 4261 
Q 1134 4600 1788 4600 
Q 2447 4600 2831 4234 
Q 3216 3869 3216 3328 
Q 3216 3053 3103 2787 
Q 2991 2522 2730 2228 
Q 2469 1934 1863 1422 
Q 1356 997 1212 845 
Q 1069 694 975 541 
L 3222 541 
z
" transform="scale(0.015625)"/>
       </defs>
       <use xlink:href="#ArialMT-32"/>
       <use xlink:href="#ArialMT-30" x="55.615234"/>
       <use xlink:href="#ArialMT-30" x="111.230469"/>
      </g>
     </g>
    </g>
    <g id="xtick_4">
     <g id="line2d_4">
      <g>
       <use xlink:href="#maaf4527f0b" x="216.315394" y="210.04" style="fill: #262626; stroke: #262626; stroke-width: 0.8"/>
      </g>
     </g>
     <g id="text_4">
      <!-- 300 -->
      <g style="fill: #262626" transform="translate(207.973988 224.197812) scale(0.1 -0.1)">
       <defs>
        <path id="ArialMT-33" d="M 269 1209 
L 831 1284 
Q 928 806 1161 595 
Q 1394 384 1728 384 
Q 2125 384 2398 659 
Q 2672 934 2672 1341 
Q 2672 1728 2419 1979 
Q 2166 2231 1775 2231 
Q 1616 2231 1378 2169 
L 1441 2663 
Q 1497 2656 1531 2656 
Q 1891 2656 2178 2843 
Q 2466 3031 2466 3422 
Q 2466 3731 2256 3934 
Q 2047 4138 1716 4138 
Q 1388 4138 1169 3931 
Q 950 3725 888 3313 
L 325 3413 
Q 428 3978 793 4289 
Q 1159 4600 1703 4600 
Q 2078 4600 2393 4439 
Q 2709 4278 2876 4000 
Q 3044 3722 3044 3409 
Q 3044 3113 2884 2869 
Q 2725 2625 2413 2481 
Q 2819 2388 3044 2092 
Q 3269 1797 3269 1353 
Q 3269 753 2831 336 
Q 2394 -81 1725 -81 
Q 1122 -81 723 278 
Q 325 638 269 1209 
z
" transform="scale(0.015625)"/>
       </defs>
       <use xlink:href="#ArialMT-33"/>
       <use xlink:href="#ArialMT-30" x="55.615234"/>
       <use xlink:href="#ArialMT-30" x="111.230469"/>
      </g>
     </g>
    </g>
    <g id="text_5">
     <!-- [GGPP] (µM) -->
     <g style="fill: #262626" transform="translate(117.613594 237.465) scale(0.1 -0.1)">
      <defs>
       <path id="ArialMT-5b" d="M 434 -1272 
L 434 4581 
L 1675 4581 
L 1675 4116 
L 997 4116 
L 997 -806 
L 1675 -806 
L 1675 -1272 
L 434 -1272 
z
" transform="scale(0.015625)"/>
       <path id="ArialMT-47" d="M 2638 1797 
L 2638 2334 
L 4578 2338 
L 4578 638 
Q 4131 281 3656 101 
Q 3181 -78 2681 -78 
Q 2006 -78 1454 211 
Q 903 500 622 1047 
Q 341 1594 341 2269 
Q 341 2938 620 3517 
Q 900 4097 1425 4378 
Q 1950 4659 2634 4659 
Q 3131 4659 3532 4498 
Q 3934 4338 4162 4050 
Q 4391 3763 4509 3300 
L 3963 3150 
Q 3859 3500 3706 3700 
Q 3553 3900 3268 4020 
Q 2984 4141 2638 4141 
Q 2222 4141 1919 4014 
Q 1616 3888 1430 3681 
Q 1244 3475 1141 3228 
Q 966 2803 966 2306 
Q 966 1694 1177 1281 
Q 1388 869 1791 669 
Q 2194 469 2647 469 
Q 3041 469 3416 620 
Q 3791 772 3984 944 
L 3984 1797 
L 2638 1797 
z
" transform="scale(0.015625)"/>
       <path id="ArialMT-50" d="M 494 0 
L 494 4581 
L 2222 4581 
Q 2678 4581 2919 4538 
Q 3256 4481 3484 4323 
Q 3713 4166 3852 3881 
Q 3991 3597 3991 3256 
Q 3991 2672 3619 2267 
Q 3247 1863 2275 1863 
L 1100 1863 
L 1100 0 
L 494 0 
z
M 1100 2403 
L 2284 2403 
Q 2872 2403 3119 2622 
Q 3366 2841 3366 3238 
Q 3366 3525 3220 3729 
Q 3075 3934 2838 4000 
Q 2684 4041 2272 4041 
L 1100 4041 
L 1100 2403 
z
" transform="scale(0.015625)"/>
       <path id="ArialMT-5d" d="M 1363 -1272 
L 122 -1272 
L 122 -806 
L 800 -806 
L 800 4116 
L 122 4116 
L 122 4581 
L 1363 4581 
L 1363 -1272 
z
" transform="scale(0.015625)"/>
       <path id="ArialMT-20" transform="scale(0.015625)"/>
       <path id="ArialMT-28" d="M 1497 -1347 
Q 1031 -759 709 28 
Q 388 816 388 1659 
Q 388 2403 628 3084 
Q 909 3875 1497 4659 
L 1900 4659 
Q 1522 4009 1400 3731 
Q 1209 3300 1100 2831 
Q 966 2247 966 1656 
Q 966 153 1900 -1347 
L 1497 -1347 
z
" transform="scale(0.015625)"/>
       <path id="ArialMT-b5" d="M 3181 3319 
L 3181 0 
L 2678 0 
L 2678 394 
Q 2516 144 2356 50 
Q 2138 -78 1847 -78 
Q 1588 -78 1388 25 
Q 1238 103 1056 334 
L 1056 -1272 
L 500 -1272 
L 500 3319 
L 1056 3319 
L 1056 1913 
Q 1056 1147 1137 920 
Q 1219 694 1401 562 
Q 1584 431 1822 431 
Q 2072 431 2269 568 
Q 2466 706 2547 923 
Q 2628 1141 2628 1903 
L 2628 3319 
L 3181 3319 
z
" transform="scale(0.015625)"/>
       <path id="ArialMT-4d" d="M 475 0 
L 475 4581 
L 1388 4581 
L 2472 1338 
Q 2622 884 2691 659 
Q 2769 909 2934 1394 
L 4031 4581 
L 4847 4581 
L 4847 0 
L 4263 0 
L 4263 3834 
L 2931 0 
L 2384 0 
L 1059 3900 
L 1059 0 
L 475 0 
z
" transform="scale(0.015625)"/>
       <path id="ArialMT-29" d="M 791 -1347 
L 388 -1347 
Q 1322 153 1322 1656 
Q 1322 2244 1188 2822 
Q 1081 3291 891 3722 
Q 769 4003 388 4659 
L 791 4659 
Q 1378 3875 1659 3084 
Q 1900 2403 1900 1659 
Q 1900 816 1576 28 
Q 1253 -759 791 -1347 
z
" transform="scale(0.015625)"/>
      </defs>
      <use xlink:href="#ArialMT-5b"/>
      <use xlink:href="#ArialMT-47" x="27.783203"/>
      <use xlink:href="#ArialMT-47" x="105.566406"/>
      <use xlink:href="#ArialMT-50" x="183.349609"/>
      <use xlink:href="#ArialMT-50" x="250.048828"/>
      <use xlink:href="#ArialMT-5d" x="316.748047"/>
      <use xlink:href="#ArialMT-20" x="344.53125"/>
      <use xlink:href="#ArialMT-28" x="372.314453"/>
      <use xlink:href="#ArialMT-b5" x="405.615234"/>
      <use xlink:href="#ArialMT-4d" x="463.232422"/>
      <use xlink:href="#ArialMT-29" x="546.533203"/>
     </g>
    </g>
   </g>
   <g id="matplotlib.axis_2">
    <g id="ytick_1">
     <g id="line2d_5">
      <defs>
       <path id="m094738a4f5" d="M 0 0 
L -3.5 0 
" style="stroke: #262626; stroke-width: 0.8"/>
      </defs>
      <g>
       <use xlink:href="#m094738a4f5" x="43.04" y="201.163636" style="fill: #262626; stroke: #262626; stroke-width: 0.8"/>
      </g>
     </g>
     <g id="text_6">
      <!-- 0 -->
      <g style="fill: #262626" transform="translate(30.479063 204.742543) scale(0.1 -0.1)">
       <use xlink:href="#ArialMT-30"/>
      </g>
     </g>
    </g>
    <g id="ytick_2">
     <g id="line2d_6">
      <g>
       <use xlink:href="#m094738a4f5" x="43.04" y="171.01417" style="fill: #262626; stroke: #262626; stroke-width: 0.8"/>
      </g>
     </g>
     <g id="text_7">
      <!-- 10 -->
      <g style="fill: #262626" transform="translate(24.918125 174.593076) scale(0.1 -0.1)">
       <use xlink:href="#ArialMT-31"/>
       <use xlink:href="#ArialMT-30" x="55.615234"/>
      </g>
     </g>
    </g>
    <g id="ytick_3">
     <g id="line2d_7">
      <g>
       <use xlink:href="#m094738a4f5" x="43.04" y="140.864703" style="fill: #262626; stroke: #262626; stroke-width: 0.8"/>
      </g>
     </g>
     <g id="text_8">
      <!-- 20 -->
      <g style="fill: #262626" transform="translate(24.918125 144.443609) scale(0.1 -0.1)">
       <use xlink:href="#ArialMT-32"/>
       <use xlink:href="#ArialMT-30" x="55.615234"/>
      </g>
     </g>
    </g>
    <g id="ytick_4">
     <g id="line2d_8">
      <g>
       <use xlink:href="#m094738a4f5" x="43.04" y="110.715236" style="fill: #262626; stroke: #262626; stroke-width: 0.8"/>
      </g>
     </g>
     <g id="text_9">
      <!-- 30 -->
      <g style="fill: #262626" transform="translate(24.918125 114.294143) scale(0.1 -0.1)">
       <use xlink:href="#ArialMT-33"/>
       <use xlink:href="#ArialMT-30" x="55.615234"/>
      </g>
     </g>
    </g>
    <g id="ytick_5">
     <g id="line2d_9">
      <g>
       <use xlink:href="#m094738a4f5" x="43.04" y="80.56577" style="fill: #262626; stroke: #262626; stroke-width: 0.8"/>
      </g>
     </g>
     <g id="text_10">
      <!-- 40 -->
      <g style="fill: #262626" transform="translate(24.918125 84.144676) scale(0.1 -0.1)">
       <defs>
        <path id="ArialMT-34" d="M 2069 0 
L 2069 1097 
L 81 1097 
L 81 1613 
L 2172 4581 
L 2631 4581 
L 2631 1613 
L 3250 1613 
L 3250 1097 
L 2631 1097 
L 2631 0 
L 2069 0 
z
M 2069 1613 
L 2069 3678 
L 634 1613 
L 2069 1613 
z
" transform="scale(0.015625)"/>
       </defs>
       <use xlink:href="#ArialMT-34"/>
       <use xlink:href="#ArialMT-30" x="55.615234"/>
      </g>
     </g>
    </g>
    <g id="ytick_6">
     <g id="line2d_10">
      <g>
       <use xlink:href="#m094738a4f5" x="43.04" y="50.416303" style="fill: #262626; stroke: #262626; stroke-width: 0.8"/>
      </g>
     </g>
     <g id="text_11">
      <!-- 50 -->
      <g style="fill: #262626" transform="translate(24.918125 53.995209) scale(0.1 -0.1)">
       <defs>
        <path id="ArialMT-35" d="M 266 1200 
L 856 1250 
Q 922 819 1161 601 
Q 1400 384 1738 384 
Q 2144 384 2425 690 
Q 2706 997 2706 1503 
Q 2706 1984 2436 2262 
Q 2166 2541 1728 2541 
Q 1456 2541 1237 2417 
Q 1019 2294 894 2097 
L 366 2166 
L 809 4519 
L 3088 4519 
L 3088 3981 
L 1259 3981 
L 1013 2750 
Q 1425 3038 1878 3038 
Q 2478 3038 2890 2622 
Q 3303 2206 3303 1553 
Q 3303 931 2941 478 
Q 2500 -78 1738 -78 
Q 1113 -78 717 272 
Q 322 622 266 1200 
z
" transform="scale(0.015625)"/>
       </defs>
       <use xlink:href="#ArialMT-35"/>
       <use xlink:href="#ArialMT-30" x="55.615234"/>
      </g>
     </g>
    </g>
    <g id="ytick_7">
     <g id="line2d_11">
      <g>
       <use xlink:href="#m094738a4f5" x="43.04" y="20.266836" style="fill: #262626; stroke: #262626; stroke-width: 0.8"/>
      </g>
     </g>
     <g id="text_12">
      <!-- 60 -->
      <g style="fill: #262626" transform="translate(24.918125 23.845742) scale(0.1 -0.1)">
       <defs>
        <path id="ArialMT-36" d="M 3184 3459 
L 2625 3416 
Q 2550 3747 2413 3897 
Q 2184 4138 1850 4138 
Q 1581 4138 1378 3988 
Q 1113 3794 959 3422 
Q 806 3050 800 2363 
Q 1003 2672 1297 2822 
Q 1591 2972 1913 2972 
Q 2475 2972 2870 2558 
Q 3266 2144 3266 1488 
Q 3266 1056 3080 686 
Q 2894 316 2569 119 
Q 2244 -78 1831 -78 
Q 1128 -78 684 439 
Q 241 956 241 2144 
Q 241 3472 731 4075 
Q 1159 4600 1884 4600 
Q 2425 4600 2770 4297 
Q 3116 3994 3184 3459 
z
M 888 1484 
Q 888 1194 1011 928 
Q 1134 663 1356 523 
Q 1578 384 1822 384 
Q 2178 384 2434 671 
Q 2691 959 2691 1453 
Q 2691 1928 2437 2201 
Q 2184 2475 1800 2475 
Q 1419 2475 1153 2201 
Q 888 1928 888 1484 
z
" transform="scale(0.015625)"/>
       </defs>
       <use xlink:href="#ArialMT-36"/>
       <use xlink:href="#ArialMT-30" x="55.615234"/>
      </g>
     </g>
    </g>
    <g id="text_13">
     <!-- Phytoene flux (µM/h) -->
     <g style="fill: #262626" transform="translate(18.813438 158.630469) rotate(-90) scale(0.1 -0.1)">
      <defs>
       <path id="ArialMT-68" d="M 422 0 
L 422 4581 
L 984 4581 
L 984 2938 
Q 1378 3394 1978 3394 
Q 2347 3394 2619 3248 
Q 2891 3103 3008 2847 
Q 3125 2591 3125 2103 
L 3125 0 
L 2563 0 
L 2563 2103 
Q 2563 2525 2380 2717 
Q 2197 2909 1863 2909 
Q 1613 2909 1392 2779 
Q 1172 2650 1078 2428 
Q 984 2206 984 1816 
L 984 0 
L 422 0 
z
" transform="scale(0.015625)"/>
       <path id="ArialMT-79" d="M 397 -1278 
L 334 -750 
Q 519 -800 656 -800 
Q 844 -800 956 -737 
Q 1069 -675 1141 -563 
Q 1194 -478 1313 -144 
Q 1328 -97 1363 -6 
L 103 3319 
L 709 3319 
L 1400 1397 
Q 1534 1031 1641 628 
Q 1738 1016 1872 1384 
L 2581 3319 
L 3144 3319 
L 1881 -56 
Q 1678 -603 1566 -809 
Q 1416 -1088 1222 -1217 
Q 1028 -1347 759 -1347 
Q 597 -1347 397 -1278 
z
" transform="scale(0.015625)"/>
       <path id="ArialMT-74" d="M 1650 503 
L 1731 6 
Q 1494 -44 1306 -44 
Q 1000 -44 831 53 
Q 663 150 594 308 
Q 525 466 525 972 
L 525 2881 
L 113 2881 
L 113 3319 
L 525 3319 
L 525 4141 
L 1084 4478 
L 1084 3319 
L 1650 3319 
L 1650 2881 
L 1084 2881 
L 1084 941 
Q 1084 700 1114 631 
Q 1144 563 1211 522 
Q 1278 481 1403 481 
Q 1497 481 1650 503 
z
" transform="scale(0.015625)"/>
       <path id="ArialMT-6f" d="M 213 1659 
Q 213 2581 725 3025 
Q 1153 3394 1769 3394 
Q 2453 3394 2887 2945 
Q 3322 2497 3322 1706 
Q 3322 1066 3130 698 
Q 2938 331 2570 128 
Q 2203 -75 1769 -75 
Q 1072 -75 642 372 
Q 213 819 213 1659 
z
M 791 1659 
Q 791 1022 1069 705 
Q 1347 388 1769 388 
Q 2188 388 2466 706 
Q 2744 1025 2744 1678 
Q 2744 2294 2464 2611 
Q 2184 2928 1769 2928 
Q 1347 2928 1069 2612 
Q 791 2297 791 1659 
z
" transform="scale(0.015625)"/>
       <path id="ArialMT-65" d="M 2694 1069 
L 3275 997 
Q 3138 488 2766 206 
Q 2394 -75 1816 -75 
Q 1088 -75 661 373 
Q 234 822 234 1631 
Q 234 2469 665 2931 
Q 1097 3394 1784 3394 
Q 2450 3394 2872 2941 
Q 3294 2488 3294 1666 
Q 3294 1616 3291 1516 
L 816 1516 
Q 847 969 1125 678 
Q 1403 388 1819 388 
Q 2128 388 2347 550 
Q 2566 713 2694 1069 
z
M 847 1978 
L 2700 1978 
Q 2663 2397 2488 2606 
Q 2219 2931 1791 2931 
Q 1403 2931 1139 2672 
Q 875 2413 847 1978 
z
" transform="scale(0.015625)"/>
       <path id="ArialMT-6e" d="M 422 0 
L 422 3319 
L 928 3319 
L 928 2847 
Q 1294 3394 1984 3394 
Q 2284 3394 2536 3286 
Q 2788 3178 2913 3003 
Q 3038 2828 3088 2588 
Q 3119 2431 3119 2041 
L 3119 0 
L 2556 0 
L 2556 2019 
Q 2556 2363 2490 2533 
Q 2425 2703 2258 2804 
Q 2091 2906 1866 2906 
Q 1506 2906 1245 2678 
Q 984 2450 984 1813 
L 984 0 
L 422 0 
z
" transform="scale(0.015625)"/>
       <path id="ArialMT-66" d="M 556 0 
L 556 2881 
L 59 2881 
L 59 3319 
L 556 3319 
L 556 3672 
Q 556 4006 616 4169 
Q 697 4388 901 4523 
Q 1106 4659 1475 4659 
Q 1713 4659 2000 4603 
L 1916 4113 
Q 1741 4144 1584 4144 
Q 1328 4144 1222 4034 
Q 1116 3925 1116 3625 
L 1116 3319 
L 1763 3319 
L 1763 2881 
L 1116 2881 
L 1116 0 
L 556 0 
z
" transform="scale(0.015625)"/>
       <path id="ArialMT-6c" d="M 409 0 
L 409 4581 
L 972 4581 
L 972 0 
L 409 0 
z
" transform="scale(0.015625)"/>
       <path id="ArialMT-75" d="M 2597 0 
L 2597 488 
Q 2209 -75 1544 -75 
Q 1250 -75 995 37 
Q 741 150 617 320 
Q 494 491 444 738 
Q 409 903 409 1263 
L 409 3319 
L 972 3319 
L 972 1478 
Q 972 1038 1006 884 
Q 1059 663 1231 536 
Q 1403 409 1656 409 
Q 1909 409 2131 539 
Q 2353 669 2445 892 
Q 2538 1116 2538 1541 
L 2538 3319 
L 3100 3319 
L 3100 0 
L 2597 0 
z
" transform="scale(0.015625)"/>
       <path id="ArialMT-78" d="M 47 0 
L 1259 1725 
L 138 3319 
L 841 3319 
L 1350 2541 
Q 1494 2319 1581 2169 
Q 1719 2375 1834 2534 
L 2394 3319 
L 3066 3319 
L 1919 1756 
L 3153 0 
L 2463 0 
L 1781 1031 
L 1600 1309 
L 728 0 
L 47 0 
z
" transform="scale(0.015625)"/>
       <path id="ArialMT-2f" d="M 0 -78 
L 1328 4659 
L 1778 4659 
L 453 -78 
L 0 -78 
z
" transform="scale(0.015625)"/>
      </defs>
      <use xlink:href="#ArialMT-50"/>
      <use xlink:href="#ArialMT-68" x="66.699219"/>
      <use xlink:href="#ArialMT-79" x="122.314453"/>
      <use xlink:href="#ArialMT-74" x="172.314453"/>
      <use xlink:href="#ArialMT-6f" x="200.097656"/>
      <use xlink:href="#ArialMT-65" x="255.712891"/>
      <use xlink:href="#ArialMT-6e" x="311.328125"/>
      <use xlink:href="#ArialMT-65" x="366.943359"/>
      <use xlink:href="#ArialMT-20" x="422.558594"/>
      <use xlink:href="#ArialMT-66" x="450.341797"/>
      <use xlink:href="#ArialMT-6c" x="478.125"/>
      <use xlink:href="#ArialMT-75" x="500.341797"/>
      <use xlink:href="#ArialMT-78" x="555.957031"/>
      <use xlink:href="#ArialMT-20" x="605.957031"/>
      <use xlink:href="#ArialMT-28" x="633.740234"/>
      <use xlink:href="#ArialMT-b5" x="667.041016"/>
      <use xlink:href="#ArialMT-4d" x="724.658203"/>
      <use xlink:href="#ArialMT-2f" x="807.958984"/>
      <use xlink:href="#ArialMT-68" x="835.742188"/>
      <use xlink:href="#ArialMT-29" x="891.357422"/>
     </g>
    </g>
   </g>
   <g id="PolyCollection_1">
    <defs>
     <path id="me69892ef2d" d="M 52.455 -50.836364 
L 52.455 -50.836364 
L 53.3965 -53.110292 
L 54.338 -55.323845 
L 55.2795 -57.481181 
L 56.221 -59.5889 
L 57.1625 -61.646214 
L 58.104 -63.654911 
L 59.0455 -65.616694 
L 59.987 -67.526964 
L 60.9285 -69.388678 
L 61.87 -71.208217 
L 62.8115 -73.029811 
L 63.753 -74.835478 
L 64.6945 -76.567075 
L 65.636 -78.168663 
L 66.5775 -79.806339 
L 67.519 -81.341773 
L 68.4605 -82.818382 
L 69.402 -84.331314 
L 70.3435 -85.814098 
L 71.285 -87.265508 
L 72.2265 -88.686529 
L 73.168 -89.909823 
L 74.1095 -91.172229 
L 75.051 -92.488535 
L 75.9925 -93.783255 
L 76.934 -94.990123 
L 77.8755 -96.114184 
L 78.817 -97.265642 
L 79.7585 -98.49298 
L 80.7 -99.698548 
L 81.6415 -100.882922 
L 82.583 -102.046656 
L 83.5245 -103.190289 
L 84.466 -104.314675 
L 85.4075 -105.337162 
L 86.349 -106.304132 
L 87.2905 -107.250983 
L 88.232 -108.168528 
L 89.1735 -108.969983 
L 90.115 -109.873448 
L 91.0565 -110.843663 
L 91.998 -111.802372 
L 92.9395 -112.529382 
L 93.881 -113.149754 
L 94.8225 -113.690891 
L 95.764 -114.378735 
L 96.7055 -115.417761 
L 97.647 -116.090047 
L 98.5885 -116.623294 
L 99.53 -117.144111 
L 100.4715 -117.818266 
L 101.413 -118.771915 
L 102.3545 -119.724512 
L 103.296 -120.522401 
L 104.2375 -121.089555 
L 105.179 -121.712565 
L 106.1205 -122.558309 
L 107.062 -123.171624 
L 108.0035 -123.504325 
L 108.945 -123.724432 
L 109.8865 -124.216626 
L 110.828 -124.75847 
L 111.7695 -125.235723 
L 112.711 -125.604504 
L 113.6525 -126.101735 
L 114.594 -126.293461 
L 115.5355 -126.917026 
L 116.477 -127.422015 
L 117.4185 -127.852859 
L 118.36 -128.255851 
L 119.3015 -128.506724 
L 120.243 -129.08216 
L 121.1845 -129.4061 
L 122.126 -129.767139 
L 123.0675 -129.940549 
L 124.009 -130.110877 
L 124.9505 -130.273035 
L 125.892 -130.444514 
L 126.8335 -130.613751 
L 127.775 -131.04645 
L 128.7165 -131.260076 
L 129.658 -131.412822 
L 130.5995 -131.576093 
L 131.541 -132.10177 
L 132.4825 -132.496245 
L 133.424 -132.645564 
L 134.3655 -132.925179 
L 135.307 -133.045982 
L 136.2485 -133.109047 
L 137.19 -133.195354 
L 138.1315 -133.279941 
L 139.073 -133.362858 
L 140.0145 -133.666344 
L 140.956 -133.783778 
L 141.8975 -133.98325 
L 142.839 -134.027314 
L 143.7805 -134.114554 
L 144.722 -134.219226 
L 145.6635 -134.322041 
L 146.605 -134.423048 
L 147.5465 -134.522295 
L 148.488 -134.622012 
L 149.4295 -134.698885 
L 150.371 -134.74699 
L 151.3125 -134.826829 
L 152.254 -134.897933 
L 153.1955 -134.931069 
L 154.137 -134.971531 
L 155.0785 -135.154706 
L 156.02 -135.3362 
L 156.9615 -135.443693 
L 157.903 -135.529704 
L 158.8445 -135.585804 
L 159.786 -135.694389 
L 160.7275 -135.772722 
L 161.669 -135.849848 
L 162.6105 -135.925795 
L 163.552 -136.000589 
L 164.4935 -136.038924 
L 165.435 -136.059913 
L 166.3765 -136.080772 
L 167.318 -136.103011 
L 168.2595 -136.127395 
L 169.201 -136.151415 
L 170.1425 -136.329139 
L 171.084 -136.505037 
L 172.0255 -136.637414 
L 172.967 -136.702205 
L 173.9085 -136.759576 
L 174.85 -136.784538 
L 175.7915 -136.809134 
L 176.733 -136.833372 
L 177.6745 -136.85726 
L 178.616 -136.880805 
L 179.5575 -136.904016 
L 180.499 -136.926898 
L 181.4405 -136.949459 
L 182.382 -136.971706 
L 183.3235 -136.993645 
L 184.265 -137.015282 
L 185.2065 -137.035897 
L 186.148 -137.055727 
L 187.0895 -137.075289 
L 188.031 -137.094588 
L 188.9725 -137.11363 
L 189.914 -137.132419 
L 190.8555 -137.15096 
L 191.797 -137.169258 
L 192.7385 -137.187319 
L 193.68 -137.205146 
L 194.6215 -137.222744 
L 195.563 -137.240579 
L 196.5045 -137.258764 
L 197.446 -137.276721 
L 198.3875 -137.298554 
L 199.329 -137.346204 
L 200.2705 -137.393769 
L 201.212 -137.432163 
L 202.1535 -137.442481 
L 203.095 -137.47853 
L 204.0365 -137.517146 
L 204.978 -137.555318 
L 205.9195 -137.56695 
L 206.861 -137.56979 
L 207.8025 -137.572596 
L 208.744 -137.575368 
L 209.6855 -137.578107 
L 210.627 -137.580814 
L 211.5685 -137.583489 
L 212.51 -137.586133 
L 213.4515 -137.589004 
L 214.393 -137.600452 
L 215.3345 -137.640795 
L 216.276 -137.680712 
L 217.2175 -137.720209 
L 218.159 -137.75942 
L 219.1005 -137.798368 
L 220.042 -137.836913 
L 220.9835 -137.875061 
L 221.925 -137.912819 
L 222.8665 -137.950192 
L 223.808 -137.987186 
L 224.7495 -138.023807 
L 225.691 -138.060061 
L 226.6325 -138.095953 
L 227.574 -138.131489 
L 228.5155 -138.166673 
L 229.457 -138.201511 
L 230.3985 -138.236008 
L 231.34 -138.270169 
L 232.2815 -138.303999 
L 233.223 -138.337503 
L 234.1645 -138.370685 
L 235.106 -138.40355 
L 236.0475 -138.436103 
L 236.989 -138.468347 
L 237.9305 -138.500288 
L 238.872 -138.531929 
L 239.8135 -138.563275 
L 239.8135 -190.763107 
L 239.8135 -190.763107 
L 238.872 -190.609659 
L 237.9305 -190.48177 
L 236.989 -190.339006 
L 236.0475 -190.160597 
L 235.106 -189.980518 
L 234.1645 -189.798637 
L 233.223 -189.61453 
L 232.2815 -189.446324 
L 231.34 -189.29337 
L 230.3985 -189.093616 
L 229.457 -188.892323 
L 228.5155 -188.689472 
L 227.574 -188.485047 
L 226.6325 -188.291357 
L 225.691 -188.131059 
L 224.7495 -187.98568 
L 223.808 -187.839015 
L 222.8665 -187.691049 
L 221.925 -187.541763 
L 220.9835 -187.39114 
L 220.042 -187.239162 
L 219.1005 -187.085811 
L 218.159 -186.930602 
L 217.2175 -186.736393 
L 216.276 -186.404532 
L 215.3345 -186.070491 
L 214.393 -185.844089 
L 213.4515 -185.707064 
L 212.51 -185.568709 
L 211.5685 -185.429007 
L 210.627 -185.287935 
L 209.6855 -185.145476 
L 208.744 -185.001607 
L 207.8025 -184.856308 
L 206.861 -184.709558 
L 205.9195 -184.561125 
L 204.978 -184.411063 
L 204.0365 -184.259481 
L 203.095 -184.106355 
L 202.1535 -183.817124 
L 201.212 -183.382529 
L 200.2705 -182.944591 
L 199.329 -182.499753 
L 198.3875 -182.077294 
L 197.446 -181.790105 
L 196.5045 -181.69254 
L 195.563 -181.593841 
L 194.6215 -181.493987 
L 193.68 -181.382791 
L 192.7385 -181.127747 
L 191.797 -180.768509 
L 190.8555 -180.602084 
L 189.914 -180.43184 
L 188.9725 -180.256847 
L 188.031 -180.041825 
L 187.0895 -179.698295 
L 186.148 -179.494209 
L 185.2065 -179.335509 
L 184.265 -179.174942 
L 183.3235 -179.012474 
L 182.382 -178.848072 
L 181.4405 -178.6817 
L 180.499 -178.513323 
L 179.5575 -178.342905 
L 178.616 -178.170407 
L 177.6745 -177.994755 
L 176.733 -177.818862 
L 175.7915 -177.533783 
L 174.85 -177.158191 
L 173.9085 -176.913362 
L 172.967 -176.594511 
L 172.0255 -176.23834 
L 171.084 -175.878576 
L 170.1425 -175.563427 
L 169.201 -175.338107 
L 168.2595 -174.96273 
L 167.318 -174.578721 
L 166.3765 -174.308211 
L 165.435 -173.960681 
L 164.4935 -173.563734 
L 163.552 -173.002884 
L 162.6105 -172.880549 
L 161.669 -172.66811 
L 160.7275 -172.569105 
L 159.786 -172.083786 
L 158.8445 -171.631342 
L 157.903 -171.40811 
L 156.9615 -171.181712 
L 156.02 -170.95208 
L 155.0785 -170.718525 
L 154.137 -170.327415 
L 153.1955 -169.927111 
L 152.254 -169.598845 
L 151.3125 -169.459491 
L 150.371 -169.246976 
L 149.4295 -168.877891 
L 148.488 -168.556505 
L 147.5465 -168.274246 
L 146.605 -168.032978 
L 145.6635 -167.787854 
L 144.722 -167.480427 
L 143.7805 -167.012665 
L 142.839 -166.601807 
L 141.8975 -166.342307 
L 140.956 -166.127315 
L 140.0145 -165.939094 
L 139.073 -165.745497 
L 138.1315 -165.451153 
L 137.19 -165.117029 
L 136.2485 -164.854759 
L 135.307 -164.629961 
L 134.3655 -164.417857 
L 133.424 -164.133887 
L 132.4825 -163.804028 
L 131.541 -163.548981 
L 130.5995 -163.247511 
L 129.658 -162.918531 
L 128.7165 -162.584269 
L 127.775 -162.243358 
L 126.8335 -161.897611 
L 125.892 -161.543324 
L 124.9505 -161.173165 
L 124.009 -160.815752 
L 123.0675 -160.441027 
L 122.126 -160.071294 
L 121.1845 -159.666504 
L 120.243 -159.274276 
L 119.3015 -158.869601 
L 118.36 -158.452265 
L 117.4185 -158.136408 
L 116.477 -157.607298 
L 115.5355 -157.22535 
L 114.594 -157.067499 
L 113.6525 -156.874278 
L 112.711 -156.446765 
L 111.7695 -156.051526 
L 110.828 -155.797495 
L 109.8865 -155.524912 
L 108.945 -155.359582 
L 108.0035 -154.91431 
L 107.062 -154.62107 
L 106.1205 -154.129669 
L 105.179 -153.71239 
L 104.2375 -153.227544 
L 103.296 -152.726421 
L 102.3545 -152.217544 
L 101.413 -151.69447 
L 100.4715 -151.408112 
L 99.53 -151.225143 
L 98.5885 -151.033411 
L 97.647 -150.447549 
L 96.7055 -149.941217 
L 95.764 -149.559953 
L 94.8225 -149.188223 
L 93.881 -148.670674 
L 92.9395 -148.042426 
L 91.998 -147.825265 
L 91.0565 -147.172322 
L 90.115 -146.706404 
L 89.1735 -146.247104 
L 88.232 -145.95507 
L 87.2905 -145.272414 
L 86.349 -144.747391 
L 85.4075 -144.367756 
L 84.466 -143.982012 
L 83.5245 -143.375418 
L 82.583 -142.802273 
L 81.6415 -142.238403 
L 80.7 -141.617038 
L 79.7585 -140.929272 
L 78.817 -140.250054 
L 77.8755 -140.055692 
L 76.934 -139.847341 
L 75.9925 -139.561303 
L 75.051 -138.702603 
L 74.1095 -137.540875 
L 73.168 -136.776141 
L 72.2265 -135.940733 
L 71.285 -135.477555 
L 70.3435 -134.359604 
L 69.402 -132.766656 
L 68.4605 -131.220398 
L 67.519 -129.972502 
L 66.5775 -128.781266 
L 65.636 -127.178614 
L 64.6945 -125.409577 
L 63.753 -123.856316 
L 62.8115 -121.59773 
L 61.87 -119.594232 
L 60.9285 -117.125337 
L 59.987 -114.445859 
L 59.0455 -111.422463 
L 58.104 -107.566603 
L 57.1625 -103.049253 
L 56.221 -98.32029 
L 55.2795 -91.216176 
L 54.338 -81.925926 
L 53.3965 -69.241402 
L 52.455 -50.836364 
z
" style="stroke: #ef553b; stroke-opacity: 0.3"/>
    </defs>
    <g clip-path="url(#p251fbe7d72)">
     <use xlink:href="#me69892ef2d" x="0" y="252" style="fill: #ef553b; fill-opacity: 0.3; stroke: #ef553b; stroke-opacity: 0.3"/>
    </g>
   </g>
   <g id="line2d_12">
    <defs>
     <path id="mfd3c880831" d="M 0 2.5 
C 0.663008 2.5 1.29895 2.236584 1.767767 1.767767 
C 2.236584 1.29895 2.5 0.663008 2.5 0 
C 2.5 -0.663008 2.236584 -1.29895 1.767767 -1.767767 
C 1.29895 -2.236584 0.663008 -2.5 0 -2.5 
C -0.663008 -2.5 -1.29895 -2.236584 -1.767767 -1.767767 
C -2.236584 -1.29895 -2.5 -0.663008 -2.5 0 
C -2.5 0.663008 -2.236584 1.29895 -1.767767 1.767767 
C -1.29895 2.236584 -0.663008 2.5 0 2.5 
z
" style="stroke: #ff7f00"/>
    </defs>
    <g clip-path="url(#p251fbe7d72)">
     <use xlink:href="#mfd3c880831" x="56.9742" y="191.268674" style="fill: #ffa500; stroke: #ff7f00"/>
     <use xlink:href="#mfd3c880831" x="55.718867" y="196.507183" style="fill: #ffa500; stroke: #ff7f00"/>
     <use xlink:href="#mfd3c880831" x="55.593333" y="196.618051" style="fill: #ffa500; stroke: #ff7f00"/>
     <use xlink:href="#mfd3c880831" x="71.285" y="171.36788" style="fill: #ffa500; stroke: #ff7f00"/>
     <use xlink:href="#mfd3c880831" x="71.285" y="166.101654" style="fill: #ffa500; stroke: #ff7f00"/>
     <use xlink:href="#mfd3c880831" x="70.029667" y="165.339437" style="fill: #ffa500; stroke: #ff7f00"/>
     <use xlink:href="#mfd3c880831" x="117.732333" y="123.69467" style="fill: #ffa500; stroke: #ff7f00"/>
     <use xlink:href="#mfd3c880831" x="100.157667" y="124.664765" style="fill: #ffa500; stroke: #ff7f00"/>
     <use xlink:href="#mfd3c880831" x="102.668333" y="126.674246" style="fill: #ffa500; stroke: #ff7f00"/>
     <use xlink:href="#mfd3c880831" x="141.583667" y="67.082734" style="fill: #ffa500; stroke: #ff7f00"/>
     <use xlink:href="#mfd3c880831" x="101.413" y="57.866837" style="fill: #ffa500; stroke: #ff7f00"/>
     <use xlink:href="#mfd3c880831" x="105.179" y="37.286978" style="fill: #ffa500; stroke: #ff7f00"/>
     <use xlink:href="#mfd3c880831" x="161.669" y="149.817926" style="fill: #ffa500; stroke: #ff7f00"/>
     <use xlink:href="#mfd3c880831" x="116.477" y="201.163636" style="fill: #ffa500; stroke: #ff7f00"/>
     <use xlink:href="#mfd3c880831" x="177.988333" y="106.302264" style="fill: #ffa500; stroke: #ff7f00"/>
     <use xlink:href="#mfd3c880831" x="240.755" y="133.811369" style="fill: #ffa500; stroke: #ff7f00"/>
     <use xlink:href="#mfd3c880831" x="190.541667" y="132.841275" style="fill: #ffa500; stroke: #ff7f00"/>
     <use xlink:href="#mfd3c880831" x="215.648333" y="133.811369" style="fill: #ffa500; stroke: #ff7f00"/>
     <use xlink:href="#mfd3c880831" x="53.710333" y="195.765754" style="fill: #ffa500; stroke: #ff7f00"/>
     <use xlink:href="#mfd3c880831" x="52.455" y="192.072466" style="fill: #ffa500; stroke: #ff7f00"/>
     <use xlink:href="#mfd3c880831" x="53.710333" y="194.629358" style="fill: #ffa500; stroke: #ff7f00"/>
     <use xlink:href="#mfd3c880831" x="171.711667" y="41.098063" style="fill: #ffa500; stroke: #ff7f00"/>
     <use xlink:href="#mfd3c880831" x="116.477" y="23.636364" style="fill: #ffa500; stroke: #ff7f00"/>
     <use xlink:href="#mfd3c880831" x="166.690333" y="32.367213" style="fill: #ffa500; stroke: #ff7f00"/>
    </g>
   </g>
   <g id="line2d_13">
    <path d="M 52.455 201.163636 
L 54.338 191.497685 
L 56.221 183.232841 
L 58.104 176.085049 
L 59.987 169.842179 
L 61.87 164.342614 
L 63.753 159.461061 
L 65.636 155.098889 
L 67.519 151.177394 
L 69.402 147.633009 
L 72.2265 142.912525 
L 75.051 138.787121 
L 77.8755 135.150941 
L 80.7 131.921833 
L 83.5245 129.035062 
L 86.349 126.438929 
L 89.1735 124.091647 
L 92.9395 121.290908 
L 96.7055 118.807556 
L 100.4715 116.590532 
L 104.2375 114.599173 
L 108.945 112.377965 
L 113.6525 110.407472 
L 119.3015 108.317847 
L 124.9505 106.477493 
L 131.541 104.589831 
L 138.1315 102.932783 
L 145.6635 101.270723 
L 154.137 99.642457 
L 163.552 98.076039 
L 173.9085 96.590104 
L 185.2065 95.195601 
L 198.3875 93.805528 
L 212.51 92.539267 
L 228.5155 91.322234 
L 239.8135 90.575075 
L 239.8135 90.575075 
" clip-path="url(#p251fbe7d72)" style="fill: none; stroke: #ef553b; stroke-width: 1.5; stroke-linecap: round"/>
   </g>
   <g id="patch_3">
    <path d="M 43.04 210.04 
L 43.04 14.76 
" style="fill: none; stroke: #262626; stroke-width: 0.8; stroke-linejoin: miter; stroke-linecap: square"/>
   </g>
   <g id="patch_4">
    <path d="M 250.17 210.04 
L 250.17 14.76 
" style="fill: none; stroke: #262626; stroke-width: 0.8; stroke-linejoin: miter; stroke-linecap: square"/>
   </g>
   <g id="patch_5">
    <path d="M 43.04 210.04 
L 250.17 210.04 
" style="fill: none; stroke: #262626; stroke-width: 0.8; stroke-linejoin: miter; stroke-linecap: square"/>
   </g>
   <g id="patch_6">
    <path d="M 43.04 14.76 
L 250.17 14.76 
" style="fill: none; stroke: #262626; stroke-width: 0.8; stroke-linejoin: miter; stroke-linecap: square"/>
   </g>
   <g id="legend_1">
    <g id="patch_7">
     <path d="M 139.484063 205.04 
L 243.17 205.04 
Q 245.17 205.04 245.17 203.04 
L 245.17 175.388438 
Q 245.17 173.388438 243.17 173.388438 
L 139.484063 173.388438 
Q 137.484063 173.388438 137.484063 175.388438 
L 137.484063 203.04 
Q 137.484063 205.04 139.484063 205.04 
z
" style="fill: #ffffff; opacity: 0.8; stroke: #cccccc; stroke-linejoin: miter"/>
    </g>
    <g id="line2d_14">
     <g>
      <use xlink:href="#mfd3c880831" x="151.484063" y="181.168125" style="fill: #ffa500; stroke: #ff7f00"/>
     </g>
    </g>
    <g id="text_14">
     <!-- TEF1_CrtB -->
     <g style="fill: #262626" transform="translate(169.484063 184.668125) scale(0.1 -0.1)">
      <defs>
       <path id="ArialMT-54" d="M 1659 0 
L 1659 4041 
L 150 4041 
L 150 4581 
L 3781 4581 
L 3781 4041 
L 2266 4041 
L 2266 0 
L 1659 0 
z
" transform="scale(0.015625)"/>
       <path id="ArialMT-45" d="M 506 0 
L 506 4581 
L 3819 4581 
L 3819 4041 
L 1113 4041 
L 1113 2638 
L 3647 2638 
L 3647 2100 
L 1113 2100 
L 1113 541 
L 3925 541 
L 3925 0 
L 506 0 
z
" transform="scale(0.015625)"/>
       <path id="ArialMT-46" d="M 525 0 
L 525 4581 
L 3616 4581 
L 3616 4041 
L 1131 4041 
L 1131 2622 
L 3281 2622 
L 3281 2081 
L 1131 2081 
L 1131 0 
L 525 0 
z
" transform="scale(0.015625)"/>
       <path id="ArialMT-5f" d="M -97 -1272 
L -97 -866 
L 3631 -866 
L 3631 -1272 
L -97 -1272 
z
" transform="scale(0.015625)"/>
       <path id="ArialMT-43" d="M 3763 1606 
L 4369 1453 
Q 4178 706 3683 314 
Q 3188 -78 2472 -78 
Q 1731 -78 1267 223 
Q 803 525 561 1097 
Q 319 1669 319 2325 
Q 319 3041 592 3573 
Q 866 4106 1370 4382 
Q 1875 4659 2481 4659 
Q 3169 4659 3637 4309 
Q 4106 3959 4291 3325 
L 3694 3184 
Q 3534 3684 3231 3912 
Q 2928 4141 2469 4141 
Q 1941 4141 1586 3887 
Q 1231 3634 1087 3207 
Q 944 2781 944 2328 
Q 944 1744 1114 1308 
Q 1284 872 1643 656 
Q 2003 441 2422 441 
Q 2931 441 3284 734 
Q 3638 1028 3763 1606 
z
" transform="scale(0.015625)"/>
       <path id="ArialMT-72" d="M 416 0 
L 416 3319 
L 922 3319 
L 922 2816 
Q 1116 3169 1280 3281 
Q 1444 3394 1641 3394 
Q 1925 3394 2219 3213 
L 2025 2691 
Q 1819 2813 1613 2813 
Q 1428 2813 1281 2702 
Q 1134 2591 1072 2394 
Q 978 2094 978 1738 
L 978 0 
L 416 0 
z
" transform="scale(0.015625)"/>
       <path id="ArialMT-42" d="M 469 0 
L 469 4581 
L 2188 4581 
Q 2713 4581 3030 4442 
Q 3347 4303 3526 4014 
Q 3706 3725 3706 3409 
Q 3706 3116 3547 2856 
Q 3388 2597 3066 2438 
Q 3481 2316 3704 2022 
Q 3928 1728 3928 1328 
Q 3928 1006 3792 729 
Q 3656 453 3456 303 
Q 3256 153 2954 76 
Q 2653 0 2216 0 
L 469 0 
z
M 1075 2656 
L 2066 2656 
Q 2469 2656 2644 2709 
Q 2875 2778 2992 2937 
Q 3109 3097 3109 3338 
Q 3109 3566 3000 3739 
Q 2891 3913 2687 3977 
Q 2484 4041 1991 4041 
L 1075 4041 
L 1075 2656 
z
M 1075 541 
L 2216 541 
Q 2509 541 2628 563 
Q 2838 600 2978 687 
Q 3119 775 3209 942 
Q 3300 1109 3300 1328 
Q 3300 1584 3169 1773 
Q 3038 1963 2805 2039 
Q 2572 2116 2134 2116 
L 1075 2116 
L 1075 541 
z
" transform="scale(0.015625)"/>
      </defs>
      <use xlink:href="#ArialMT-54"/>
      <use xlink:href="#ArialMT-45" x="61.083984"/>
      <use xlink:href="#ArialMT-46" x="127.783203"/>
      <use xlink:href="#ArialMT-31" x="188.867188"/>
      <use xlink:href="#ArialMT-5f" x="244.482422"/>
      <use xlink:href="#ArialMT-43" x="300.097656"/>
      <use xlink:href="#ArialMT-72" x="372.314453"/>
      <use xlink:href="#ArialMT-74" x="405.615234"/>
      <use xlink:href="#ArialMT-42" x="433.398438"/>
     </g>
    </g>
    <g id="line2d_15">
     <path d="M 141.484063 195.435313 
L 151.484063 195.435313 
L 161.484063 195.435313 
" style="fill: none; stroke: #ef553b; stroke-width: 1.5; stroke-linecap: round"/>
    </g>
    <g id="text_15">
     <!-- best fit (95% CI) -->
     <g style="fill: #262626" transform="translate(169.484063 198.935313) scale(0.1 -0.1)">
      <defs>
       <path id="ArialMT-62" d="M 941 0 
L 419 0 
L 419 4581 
L 981 4581 
L 981 2947 
Q 1338 3394 1891 3394 
Q 2197 3394 2470 3270 
Q 2744 3147 2920 2923 
Q 3097 2700 3197 2384 
Q 3297 2069 3297 1709 
Q 3297 856 2875 390 
Q 2453 -75 1863 -75 
Q 1275 -75 941 416 
L 941 0 
z
M 934 1684 
Q 934 1088 1097 822 
Q 1363 388 1816 388 
Q 2184 388 2453 708 
Q 2722 1028 2722 1663 
Q 2722 2313 2464 2622 
Q 2206 2931 1841 2931 
Q 1472 2931 1203 2611 
Q 934 2291 934 1684 
z
" transform="scale(0.015625)"/>
       <path id="ArialMT-73" d="M 197 991 
L 753 1078 
Q 800 744 1014 566 
Q 1228 388 1613 388 
Q 2000 388 2187 545 
Q 2375 703 2375 916 
Q 2375 1106 2209 1216 
Q 2094 1291 1634 1406 
Q 1016 1563 777 1677 
Q 538 1791 414 1992 
Q 291 2194 291 2438 
Q 291 2659 392 2848 
Q 494 3038 669 3163 
Q 800 3259 1026 3326 
Q 1253 3394 1513 3394 
Q 1903 3394 2198 3281 
Q 2494 3169 2634 2976 
Q 2775 2784 2828 2463 
L 2278 2388 
Q 2241 2644 2061 2787 
Q 1881 2931 1553 2931 
Q 1166 2931 1000 2803 
Q 834 2675 834 2503 
Q 834 2394 903 2306 
Q 972 2216 1119 2156 
Q 1203 2125 1616 2013 
Q 2213 1853 2448 1751 
Q 2684 1650 2818 1456 
Q 2953 1263 2953 975 
Q 2953 694 2789 445 
Q 2625 197 2315 61 
Q 2006 -75 1616 -75 
Q 969 -75 630 194 
Q 291 463 197 991 
z
" transform="scale(0.015625)"/>
       <path id="ArialMT-69" d="M 425 3934 
L 425 4581 
L 988 4581 
L 988 3934 
L 425 3934 
z
M 425 0 
L 425 3319 
L 988 3319 
L 988 0 
L 425 0 
z
" transform="scale(0.015625)"/>
       <path id="ArialMT-39" d="M 350 1059 
L 891 1109 
Q 959 728 1153 556 
Q 1347 384 1650 384 
Q 1909 384 2104 503 
Q 2300 622 2425 820 
Q 2550 1019 2634 1356 
Q 2719 1694 2719 2044 
Q 2719 2081 2716 2156 
Q 2547 1888 2255 1720 
Q 1963 1553 1622 1553 
Q 1053 1553 659 1965 
Q 266 2378 266 3053 
Q 266 3750 677 4175 
Q 1088 4600 1706 4600 
Q 2153 4600 2523 4359 
Q 2894 4119 3086 3673 
Q 3278 3228 3278 2384 
Q 3278 1506 3087 986 
Q 2897 466 2520 194 
Q 2144 -78 1638 -78 
Q 1100 -78 759 220 
Q 419 519 350 1059 
z
M 2653 3081 
Q 2653 3566 2395 3850 
Q 2138 4134 1775 4134 
Q 1400 4134 1122 3828 
Q 844 3522 844 3034 
Q 844 2597 1108 2323 
Q 1372 2050 1759 2050 
Q 2150 2050 2401 2323 
Q 2653 2597 2653 3081 
z
" transform="scale(0.015625)"/>
       <path id="ArialMT-25" d="M 372 3481 
Q 372 3972 619 4315 
Q 866 4659 1334 4659 
Q 1766 4659 2048 4351 
Q 2331 4044 2331 3447 
Q 2331 2866 2045 2552 
Q 1759 2238 1341 2238 
Q 925 2238 648 2547 
Q 372 2856 372 3481 
z
M 1350 4272 
Q 1141 4272 1002 4090 
Q 863 3909 863 3425 
Q 863 2984 1003 2804 
Q 1144 2625 1350 2625 
Q 1563 2625 1702 2806 
Q 1841 2988 1841 3469 
Q 1841 3913 1700 4092 
Q 1559 4272 1350 4272 
z
M 1353 -169 
L 3859 4659 
L 4316 4659 
L 1819 -169 
L 1353 -169 
z
M 3334 1075 
Q 3334 1569 3581 1911 
Q 3828 2253 4300 2253 
Q 4731 2253 5014 1945 
Q 5297 1638 5297 1041 
Q 5297 459 5011 145 
Q 4725 -169 4303 -169 
Q 3888 -169 3611 142 
Q 3334 453 3334 1075 
z
M 4316 1866 
Q 4103 1866 3964 1684 
Q 3825 1503 3825 1019 
Q 3825 581 3965 400 
Q 4106 219 4313 219 
Q 4528 219 4667 400 
Q 4806 581 4806 1063 
Q 4806 1506 4665 1686 
Q 4525 1866 4316 1866 
z
" transform="scale(0.015625)"/>
       <path id="ArialMT-49" d="M 597 0 
L 597 4581 
L 1203 4581 
L 1203 0 
L 597 0 
z
" transform="scale(0.015625)"/>
      </defs>
      <use xlink:href="#ArialMT-62"/>
      <use xlink:href="#ArialMT-65" x="55.615234"/>
      <use xlink:href="#ArialMT-73" x="111.230469"/>
      <use xlink:href="#ArialMT-74" x="161.230469"/>
      <use xlink:href="#ArialMT-20" x="189.013672"/>
      <use xlink:href="#ArialMT-66" x="216.796875"/>
      <use xlink:href="#ArialMT-69" x="244.580078"/>
      <use xlink:href="#ArialMT-74" x="266.796875"/>
      <use xlink:href="#ArialMT-20" x="294.580078"/>
      <use xlink:href="#ArialMT-28" x="322.363281"/>
      <use xlink:href="#ArialMT-39" x="355.664062"/>
      <use xlink:href="#ArialMT-35" x="411.279297"/>
      <use xlink:href="#ArialMT-25" x="466.894531"/>
      <use xlink:href="#ArialMT-20" x="555.810547"/>
      <use xlink:href="#ArialMT-43" x="583.59375"/>
      <use xlink:href="#ArialMT-49" x="655.810547"/>
      <use xlink:href="#ArialMT-29" x="683.59375"/>
     </g>
    </g>
   </g>
  </g>
  <g id="axes_2">
   <g id="patch_8">
    <path d="M 308.555 210.04 
L 515.685 210.04 
L 515.685 14.76 
L 308.555 14.76 
z
" style="fill: #ffffff"/>
   </g>
   <g id="matplotlib.axis_3">
    <g id="xtick_5">
     <g id="text_16">
      <!-- 0.0 -->
      <g style="fill: #262626" transform="translate(301.605 224.197812) scale(0.1 -0.1)">
       <defs>
        <path id="ArialMT-2e" d="M 581 0 
L 581 641 
L 1222 641 
L 1222 0 
L 581 0 
z
" transform="scale(0.015625)"/>
       </defs>
       <use xlink:href="#ArialMT-30"/>
       <use xlink:href="#ArialMT-2e" x="55.615234"/>
       <use xlink:href="#ArialMT-30" x="83.398438"/>
      </g>
     </g>
    </g>
    <g id="xtick_6">
     <g id="text_17">
      <!-- 0.2 -->
      <g style="fill: #262626" transform="translate(343.031 224.197812) scale(0.1 -0.1)">
       <use xlink:href="#ArialMT-30"/>
       <use xlink:href="#ArialMT-2e" x="55.615234"/>
       <use xlink:href="#ArialMT-32" x="83.398438"/>
      </g>
     </g>
    </g>
    <g id="xtick_7">
     <g id="text_18">
      <!-- 0.4 -->
      <g style="fill: #262626" transform="translate(384.457 224.197812) scale(0.1 -0.1)">
       <use xlink:href="#ArialMT-30"/>
       <use xlink:href="#ArialMT-2e" x="55.615234"/>
       <use xlink:href="#ArialMT-34" x="83.398438"/>
      </g>
     </g>
    </g>
    <g id="xtick_8">
     <g id="text_19">
      <!-- 0.6 -->
      <g style="fill: #262626" transform="translate(425.883 224.197812) scale(0.1 -0.1)">
       <use xlink:href="#ArialMT-30"/>
       <use xlink:href="#ArialMT-2e" x="55.615234"/>
       <use xlink:href="#ArialMT-36" x="83.398438"/>
      </g>
     </g>
    </g>
    <g id="xtick_9">
     <g id="text_20">
      <!-- 0.8 -->
      <g style="fill: #262626" transform="translate(467.309 224.197812) scale(0.1 -0.1)">
       <defs>
        <path id="ArialMT-38" d="M 1131 2484 
Q 781 2613 612 2850 
Q 444 3088 444 3419 
Q 444 3919 803 4259 
Q 1163 4600 1759 4600 
Q 2359 4600 2725 4251 
Q 3091 3903 3091 3403 
Q 3091 3084 2923 2848 
Q 2756 2613 2416 2484 
Q 2838 2347 3058 2040 
Q 3278 1734 3278 1309 
Q 3278 722 2862 322 
Q 2447 -78 1769 -78 
Q 1091 -78 675 323 
Q 259 725 259 1325 
Q 259 1772 486 2073 
Q 713 2375 1131 2484 
z
M 1019 3438 
Q 1019 3113 1228 2906 
Q 1438 2700 1772 2700 
Q 2097 2700 2305 2904 
Q 2513 3109 2513 3406 
Q 2513 3716 2298 3927 
Q 2084 4138 1766 4138 
Q 1444 4138 1231 3931 
Q 1019 3725 1019 3438 
z
M 838 1322 
Q 838 1081 952 856 
Q 1066 631 1291 507 
Q 1516 384 1775 384 
Q 2178 384 2440 643 
Q 2703 903 2703 1303 
Q 2703 1709 2433 1975 
Q 2163 2241 1756 2241 
Q 1359 2241 1098 1978 
Q 838 1716 838 1322 
z
" transform="scale(0.015625)"/>
       </defs>
       <use xlink:href="#ArialMT-30"/>
       <use xlink:href="#ArialMT-2e" x="55.615234"/>
       <use xlink:href="#ArialMT-38" x="83.398438"/>
      </g>
     </g>
    </g>
    <g id="xtick_10">
     <g id="text_21">
      <!-- 1.0 -->
      <g style="fill: #262626" transform="translate(508.735 224.197812) scale(0.1 -0.1)">
       <use xlink:href="#ArialMT-31"/>
       <use xlink:href="#ArialMT-2e" x="55.615234"/>
       <use xlink:href="#ArialMT-30" x="83.398438"/>
      </g>
     </g>
    </g>
   </g>
   <g id="matplotlib.axis_4">
    <g id="ytick_8">
     <g id="text_22">
      <!-- 0.0 -->
      <g style="fill: #262626" transform="translate(287.655 213.618906) scale(0.1 -0.1)">
       <use xlink:href="#ArialMT-30"/>
       <use xlink:href="#ArialMT-2e" x="55.615234"/>
       <use xlink:href="#ArialMT-30" x="83.398438"/>
      </g>
     </g>
    </g>
    <g id="ytick_9">
     <g id="text_23">
      <!-- 0.2 -->
      <g style="fill: #262626" transform="translate(287.655 174.562906) scale(0.1 -0.1)">
       <use xlink:href="#ArialMT-30"/>
       <use xlink:href="#ArialMT-2e" x="55.615234"/>
       <use xlink:href="#ArialMT-32" x="83.398438"/>
      </g>
     </g>
    </g>
    <g id="ytick_10">
     <g id="text_24">
      <!-- 0.4 -->
      <g style="fill: #262626" transform="translate(287.655 135.506906) scale(0.1 -0.1)">
       <use xlink:href="#ArialMT-30"/>
       <use xlink:href="#ArialMT-2e" x="55.615234"/>
       <use xlink:href="#ArialMT-34" x="83.398438"/>
      </g>
     </g>
    </g>
    <g id="ytick_11">
     <g id="text_25">
      <!-- 0.6 -->
      <g style="fill: #262626" transform="translate(287.655 96.450906) scale(0.1 -0.1)">
       <use xlink:href="#ArialMT-30"/>
       <use xlink:href="#ArialMT-2e" x="55.615234"/>
       <use xlink:href="#ArialMT-36" x="83.398438"/>
      </g>
     </g>
    </g>
    <g id="ytick_12">
     <g id="text_26">
      <!-- 0.8 -->
      <g style="fill: #262626" transform="translate(287.655 57.394906) scale(0.1 -0.1)">
       <use xlink:href="#ArialMT-30"/>
       <use xlink:href="#ArialMT-2e" x="55.615234"/>
       <use xlink:href="#ArialMT-38" x="83.398438"/>
      </g>
     </g>
    </g>
    <g id="ytick_13">
     <g id="text_27">
      <!-- 1.0 -->
      <g style="fill: #262626" transform="translate(287.655 18.338906) scale(0.1 -0.1)">
       <use xlink:href="#ArialMT-31"/>
       <use xlink:href="#ArialMT-2e" x="55.615234"/>
       <use xlink:href="#ArialMT-30" x="83.398438"/>
      </g>
     </g>
    </g>
   </g>
   <g id="patch_9">
    <path d="M 308.555 210.04 
L 308.555 14.76 
" style="fill: none; stroke: #262626; stroke-width: 0.8; stroke-linejoin: miter; stroke-linecap: square"/>
   </g>
   <g id="patch_10">
    <path d="M 515.685 210.04 
L 515.685 14.76 
" style="fill: none; stroke: #262626; stroke-width: 0.8; stroke-linejoin: miter; stroke-linecap: square"/>
   </g>
   <g id="patch_11">
    <path d="M 308.555 210.04 
L 515.685 210.04 
" style="fill: none; stroke: #262626; stroke-width: 0.8; stroke-linejoin: miter; stroke-linecap: square"/>
   </g>
   <g id="patch_12">
    <path d="M 308.555 14.76 
L 515.685 14.76 
" style="fill: none; stroke: #262626; stroke-width: 0.8; stroke-linejoin: miter; stroke-linecap: square"/>
   </g>
  </g>
  <g id="axes_3">
   <g id="patch_13">
    <path d="M 574.07 210.04 
L 781.2 210.04 
L 781.2 14.76 
L 574.07 14.76 
z
" style="fill: #ffffff"/>
   </g>
   <g id="matplotlib.axis_5">
    <g id="xtick_11">
     <g id="line2d_16">
      <g>
       <use xlink:href="#maaf4527f0b" x="607.666479" y="210.04" style="fill: #262626; stroke: #262626; stroke-width: 0.8"/>
      </g>
     </g>
     <g id="text_28">
      <!-- −40 -->
      <g style="fill: #262626" transform="translate(599.185229 224.197812) scale(0.1 -0.1)">
       <defs>
        <path id="ArialMT-2212" d="M 3381 1997 
L 356 1997 
L 356 2522 
L 3381 2522 
L 3381 1997 
z
" transform="scale(0.015625)"/>
       </defs>
       <use xlink:href="#ArialMT-2212"/>
       <use xlink:href="#ArialMT-34" x="58.398438"/>
       <use xlink:href="#ArialMT-30" x="114.013672"/>
      </g>
     </g>
    </g>
    <g id="xtick_12">
     <g id="line2d_17">
      <g>
       <use xlink:href="#maaf4527f0b" x="643.565056" y="210.04" style="fill: #262626; stroke: #262626; stroke-width: 0.8"/>
      </g>
     </g>
     <g id="text_29">
      <!-- −20 -->
      <g style="fill: #262626" transform="translate(635.083806 224.197812) scale(0.1 -0.1)">
       <use xlink:href="#ArialMT-2212"/>
       <use xlink:href="#ArialMT-32" x="58.398438"/>
       <use xlink:href="#ArialMT-30" x="114.013672"/>
      </g>
     </g>
    </g>
    <g id="xtick_13">
     <g id="line2d_18">
      <g>
       <use xlink:href="#maaf4527f0b" x="679.463634" y="210.04" style="fill: #262626; stroke: #262626; stroke-width: 0.8"/>
      </g>
     </g>
     <g id="text_30">
      <!-- 0 -->
      <g style="fill: #262626" transform="translate(676.683165 224.197812) scale(0.1 -0.1)">
       <use xlink:href="#ArialMT-30"/>
      </g>
     </g>
    </g>
    <g id="xtick_14">
     <g id="line2d_19">
      <g>
       <use xlink:href="#maaf4527f0b" x="715.362211" y="210.04" style="fill: #262626; stroke: #262626; stroke-width: 0.8"/>
      </g>
     </g>
     <g id="text_31">
      <!-- 20 -->
      <g style="fill: #262626" transform="translate(709.801274 224.197812) scale(0.1 -0.1)">
       <use xlink:href="#ArialMT-32"/>
       <use xlink:href="#ArialMT-30" x="55.615234"/>
      </g>
     </g>
    </g>
    <g id="xtick_15">
     <g id="line2d_20">
      <g>
       <use xlink:href="#maaf4527f0b" x="751.260789" y="210.04" style="fill: #262626; stroke: #262626; stroke-width: 0.8"/>
      </g>
     </g>
     <g id="text_32">
      <!-- 40 -->
      <g style="fill: #262626" transform="translate(745.699851 224.197812) scale(0.1 -0.1)">
       <use xlink:href="#ArialMT-34"/>
       <use xlink:href="#ArialMT-30" x="55.615234"/>
      </g>
     </g>
    </g>
    <g id="text_33">
     <!-- residual -->
     <g style="fill: #262626" transform="translate(660.126406 237.343125) scale(0.1 -0.1)">
      <defs>
       <path id="ArialMT-64" d="M 2575 0 
L 2575 419 
Q 2259 -75 1647 -75 
Q 1250 -75 917 144 
Q 584 363 401 755 
Q 219 1147 219 1656 
Q 219 2153 384 2558 
Q 550 2963 881 3178 
Q 1213 3394 1622 3394 
Q 1922 3394 2156 3267 
Q 2391 3141 2538 2938 
L 2538 4581 
L 3097 4581 
L 3097 0 
L 2575 0 
z
M 797 1656 
Q 797 1019 1065 703 
Q 1334 388 1700 388 
Q 2069 388 2326 689 
Q 2584 991 2584 1609 
Q 2584 2291 2321 2609 
Q 2059 2928 1675 2928 
Q 1300 2928 1048 2622 
Q 797 2316 797 1656 
z
" transform="scale(0.015625)"/>
       <path id="ArialMT-61" d="M 2588 409 
Q 2275 144 1986 34 
Q 1697 -75 1366 -75 
Q 819 -75 525 192 
Q 231 459 231 875 
Q 231 1119 342 1320 
Q 453 1522 633 1644 
Q 813 1766 1038 1828 
Q 1203 1872 1538 1913 
Q 2219 1994 2541 2106 
Q 2544 2222 2544 2253 
Q 2544 2597 2384 2738 
Q 2169 2928 1744 2928 
Q 1347 2928 1158 2789 
Q 969 2650 878 2297 
L 328 2372 
Q 403 2725 575 2942 
Q 747 3159 1072 3276 
Q 1397 3394 1825 3394 
Q 2250 3394 2515 3294 
Q 2781 3194 2906 3042 
Q 3031 2891 3081 2659 
Q 3109 2516 3109 2141 
L 3109 1391 
Q 3109 606 3145 398 
Q 3181 191 3288 0 
L 2700 0 
Q 2613 175 2588 409 
z
M 2541 1666 
Q 2234 1541 1622 1453 
Q 1275 1403 1131 1340 
Q 988 1278 909 1158 
Q 831 1038 831 891 
Q 831 666 1001 516 
Q 1172 366 1500 366 
Q 1825 366 2078 508 
Q 2331 650 2450 897 
Q 2541 1088 2541 1459 
L 2541 1666 
z
" transform="scale(0.015625)"/>
      </defs>
      <use xlink:href="#ArialMT-72"/>
      <use xlink:href="#ArialMT-65" x="33.300781"/>
      <use xlink:href="#ArialMT-73" x="88.916016"/>
      <use xlink:href="#ArialMT-69" x="138.916016"/>
      <use xlink:href="#ArialMT-64" x="161.132812"/>
      <use xlink:href="#ArialMT-75" x="216.748047"/>
      <use xlink:href="#ArialMT-61" x="272.363281"/>
      <use xlink:href="#ArialMT-6c" x="327.978516"/>
     </g>
    </g>
   </g>
   <g id="matplotlib.axis_6">
    <g id="ytick_14">
     <g id="line2d_21">
      <g>
       <use xlink:href="#m094738a4f5" x="574.07" y="210.04" style="fill: #262626; stroke: #262626; stroke-width: 0.8"/>
      </g>
     </g>
     <g id="text_34">
      <!-- 0.00 -->
      <g style="fill: #262626" transform="translate(547.609062 213.618906) scale(0.1 -0.1)">
       <use xlink:href="#ArialMT-30"/>
       <use xlink:href="#ArialMT-2e" x="55.615234"/>
       <use xlink:href="#ArialMT-30" x="83.398438"/>
       <use xlink:href="#ArialMT-30" x="139.013672"/>
      </g>
     </g>
    </g>
    <g id="ytick_15">
     <g id="line2d_22">
      <g>
       <use xlink:href="#m094738a4f5" x="574.07" y="172.493703" style="fill: #262626; stroke: #262626; stroke-width: 0.8"/>
      </g>
     </g>
     <g id="text_35">
      <!-- 0.01 -->
      <g style="fill: #262626" transform="translate(547.609062 176.072609) scale(0.1 -0.1)">
       <use xlink:href="#ArialMT-30"/>
       <use xlink:href="#ArialMT-2e" x="55.615234"/>
       <use xlink:href="#ArialMT-30" x="83.398438"/>
       <use xlink:href="#ArialMT-31" x="139.013672"/>
      </g>
     </g>
    </g>
    <g id="ytick_16">
     <g id="line2d_23">
      <g>
       <use xlink:href="#m094738a4f5" x="574.07" y="134.947405" style="fill: #262626; stroke: #262626; stroke-width: 0.8"/>
      </g>
     </g>
     <g id="text_36">
      <!-- 0.02 -->
      <g style="fill: #262626" transform="translate(547.609062 138.526311) scale(0.1 -0.1)">
       <use xlink:href="#ArialMT-30"/>
       <use xlink:href="#ArialMT-2e" x="55.615234"/>
       <use xlink:href="#ArialMT-30" x="83.398438"/>
       <use xlink:href="#ArialMT-32" x="139.013672"/>
      </g>
     </g>
    </g>
    <g id="ytick_17">
     <g id="line2d_24">
      <g>
       <use xlink:href="#m094738a4f5" x="574.07" y="97.401108" style="fill: #262626; stroke: #262626; stroke-width: 0.8"/>
      </g>
     </g>
     <g id="text_37">
      <!-- 0.03 -->
      <g style="fill: #262626" transform="translate(547.609062 100.980014) scale(0.1 -0.1)">
       <use xlink:href="#ArialMT-30"/>
       <use xlink:href="#ArialMT-2e" x="55.615234"/>
       <use xlink:href="#ArialMT-30" x="83.398438"/>
       <use xlink:href="#ArialMT-33" x="139.013672"/>
      </g>
     </g>
    </g>
    <g id="ytick_18">
     <g id="line2d_25">
      <g>
       <use xlink:href="#m094738a4f5" x="574.07" y="59.85481" style="fill: #262626; stroke: #262626; stroke-width: 0.8"/>
      </g>
     </g>
     <g id="text_38">
      <!-- 0.04 -->
      <g style="fill: #262626" transform="translate(547.609062 63.433717) scale(0.1 -0.1)">
       <use xlink:href="#ArialMT-30"/>
       <use xlink:href="#ArialMT-2e" x="55.615234"/>
       <use xlink:href="#ArialMT-30" x="83.398438"/>
       <use xlink:href="#ArialMT-34" x="139.013672"/>
      </g>
     </g>
    </g>
    <g id="ytick_19">
     <g id="line2d_26">
      <g>
       <use xlink:href="#m094738a4f5" x="574.07" y="22.308513" style="fill: #262626; stroke: #262626; stroke-width: 0.8"/>
      </g>
     </g>
     <g id="text_39">
      <!-- 0.05 -->
      <g style="fill: #262626" transform="translate(547.609062 25.887419) scale(0.1 -0.1)">
       <use xlink:href="#ArialMT-30"/>
       <use xlink:href="#ArialMT-2e" x="55.615234"/>
       <use xlink:href="#ArialMT-30" x="83.398438"/>
       <use xlink:href="#ArialMT-35" x="139.013672"/>
      </g>
     </g>
    </g>
    <g id="text_40">
     <!-- Density -->
     <g style="fill: #262626" transform="translate(541.504375 129.071875) rotate(-90) scale(0.1 -0.1)">
      <defs>
       <path id="ArialMT-44" d="M 494 0 
L 494 4581 
L 2072 4581 
Q 2606 4581 2888 4516 
Q 3281 4425 3559 4188 
Q 3922 3881 4101 3404 
Q 4281 2928 4281 2316 
Q 4281 1794 4159 1391 
Q 4038 988 3847 723 
Q 3656 459 3429 307 
Q 3203 156 2883 78 
Q 2563 0 2147 0 
L 494 0 
z
M 1100 541 
L 2078 541 
Q 2531 541 2789 625 
Q 3047 709 3200 863 
Q 3416 1078 3536 1442 
Q 3656 1806 3656 2325 
Q 3656 3044 3420 3430 
Q 3184 3816 2847 3947 
Q 2603 4041 2063 4041 
L 1100 4041 
L 1100 541 
z
" transform="scale(0.015625)"/>
      </defs>
      <use xlink:href="#ArialMT-44"/>
      <use xlink:href="#ArialMT-65" x="72.216797"/>
      <use xlink:href="#ArialMT-6e" x="127.832031"/>
      <use xlink:href="#ArialMT-73" x="183.447266"/>
      <use xlink:href="#ArialMT-69" x="233.447266"/>
      <use xlink:href="#ArialMT-74" x="255.664062"/>
      <use xlink:href="#ArialMT-79" x="283.447266"/>
     </g>
    </g>
   </g>
   <g id="patch_14">
    <path d="M 624.790147 210.04 
L 639.888676 210.04 
L 639.888676 191.441905 
L 624.790147 191.441905 
z
" clip-path="url(#pcdf292b146)" style="fill: #ff7f00; fill-opacity: 0.5; stroke: #ffffff; stroke-linejoin: miter"/>
   </g>
   <g id="patch_15">
    <path d="M 639.888676 210.04 
L 654.987206 210.04 
L 654.987206 154.245714 
L 639.888676 154.245714 
z
" clip-path="url(#pcdf292b146)" style="fill: #ff7f00; fill-opacity: 0.5; stroke: #ffffff; stroke-linejoin: miter"/>
   </g>
   <g id="patch_16">
    <path d="M 654.987206 210.04 
L 670.085735 210.04 
L 670.085735 135.647619 
L 654.987206 135.647619 
z
" clip-path="url(#pcdf292b146)" style="fill: #ff7f00; fill-opacity: 0.5; stroke: #ffffff; stroke-linejoin: miter"/>
   </g>
   <g id="patch_17">
    <path d="M 670.085735 210.04 
L 685.184265 210.04 
L 685.184265 24.059048 
L 670.085735 24.059048 
z
" clip-path="url(#pcdf292b146)" style="fill: #ff7f00; fill-opacity: 0.5; stroke: #ffffff; stroke-linejoin: miter"/>
   </g>
   <g id="patch_18">
    <path d="M 685.184265 210.04 
L 700.282794 210.04 
L 700.282794 210.04 
L 685.184265 210.04 
z
" clip-path="url(#pcdf292b146)" style="fill: #ff7f00; fill-opacity: 0.5; stroke: #ffffff; stroke-linejoin: miter"/>
   </g>
   <g id="patch_19">
    <path d="M 700.282794 210.04 
L 715.381324 210.04 
L 715.381324 154.245714 
L 700.282794 154.245714 
z
" clip-path="url(#pcdf292b146)" style="fill: #ff7f00; fill-opacity: 0.5; stroke: #ffffff; stroke-linejoin: miter"/>
   </g>
   <g id="patch_20">
    <path d="M 715.381324 210.04 
L 730.479853 210.04 
L 730.479853 154.245714 
L 715.381324 154.245714 
z
" clip-path="url(#pcdf292b146)" style="fill: #ff7f00; fill-opacity: 0.5; stroke: #ffffff; stroke-linejoin: miter"/>
   </g>
   <g id="line2d_27">
    <path d="M 583.485 209.949472 
L 590.108618 209.697782 
L 594.839774 209.270709 
L 598.624698 208.686179 
L 602.409623 207.82321 
L 606.194548 206.654401 
L 609.979472 205.197541 
L 613.764397 203.509878 
L 618.495553 201.159848 
L 622.280477 199.061456 
L 625.119171 197.255197 
L 627.011633 195.868054 
L 628.904095 194.27417 
L 630.796558 192.414485 
L 632.68902 190.227443 
L 634.581482 187.653332 
L 636.473945 184.638828 
L 638.366407 181.141339 
L 640.258869 177.132787 
L 642.151332 172.602632 
L 644.043794 167.560041 
L 645.936256 162.035289 
L 648.77495 152.964309 
L 652.559874 139.855547 
L 658.237261 120.066473 
L 660.129724 114.082269 
L 662.022186 108.710189 
L 663.914648 104.136948 
L 664.860879 102.205407 
L 665.807111 100.537748 
L 666.753342 99.152155 
L 667.699573 98.064602 
L 668.645804 97.288498 
L 669.592035 96.834342 
L 670.538266 96.709431 
L 671.484497 96.917601 
L 672.430729 97.459035 
L 673.37696 98.330136 
L 674.323191 99.523462 
L 675.269422 101.027753 
L 676.215653 102.828021 
L 678.108116 107.239047 
L 680.000578 112.57066 
L 681.89304 118.595927 
L 685.677965 131.703633 
L 688.516658 141.442902 
L 690.409121 147.457455 
L 692.301583 152.877123 
L 694.194045 157.573904 
L 696.086508 161.472081 
L 697.97897 164.547933 
L 698.925201 165.783436 
L 699.871432 166.826019 
L 700.817663 167.685239 
L 701.763894 168.372761 
L 702.710126 168.902062 
L 703.656357 169.288137 
L 705.548819 169.696327 
L 707.441281 169.736027 
L 710.279975 169.418617 
L 713.118668 169.058289 
L 715.011131 168.992899 
L 716.903593 169.177355 
L 718.796055 169.679073 
L 720.688518 170.54002 
L 722.58098 171.776886 
L 724.473442 173.382601 
L 726.365905 175.328988 
L 728.258367 177.570325 
L 731.09706 181.353592 
L 736.774447 189.569049 
L 740.559372 194.790896 
L 743.398065 198.26919 
L 745.290528 200.317616 
L 747.18299 202.130435 
L 749.075452 203.703629 
L 750.967915 205.042707 
L 752.860377 206.160847 
L 754.752839 207.076853 
L 756.645302 207.813133 
L 759.483995 208.633445 
L 762.322688 209.184445 
L 766.107613 209.624572 
L 770.838769 209.887229 
L 771.785 209.916562 
L 771.785 209.916562 
" clip-path="url(#pcdf292b146)" style="fill: none; stroke: #ff7f00; stroke-width: 1.5; stroke-linecap: round"/>
   </g>
   <g id="patch_21">
    <path d="M 574.07 210.04 
L 574.07 14.76 
" style="fill: none; stroke: #262626; stroke-width: 0.8; stroke-linejoin: miter; stroke-linecap: square"/>
   </g>
   <g id="patch_22">
    <path d="M 781.2 210.04 
L 781.2 14.76 
" style="fill: none; stroke: #262626; stroke-width: 0.8; stroke-linejoin: miter; stroke-linecap: square"/>
   </g>
   <g id="patch_23">
    <path d="M 574.07 210.04 
L 781.2 210.04 
" style="fill: none; stroke: #262626; stroke-width: 0.8; stroke-linejoin: miter; stroke-linecap: square"/>
   </g>
   <g id="patch_24">
    <path d="M 574.07 14.76 
L 781.2 14.76 
" style="fill: none; stroke: #262626; stroke-width: 0.8; stroke-linejoin: miter; stroke-linecap: square"/>
   </g>
  </g>
 </g>
 <defs>
  <clipPath id="p251fbe7d72">
   <rect x="43.04" y="14.76" width="207.13" height="195.28"/>
  </clipPath>
  <clipPath id="pcdf292b146">
   <rect x="574.07" y="14.76" width="207.13" height="195.28"/>
  </clipPath>
 </defs>
</svg>
