<?xml version="1.0" encoding="utf-8" standalone="no"?>
<!DOCTYPE svg PUBLIC "-//W3C//DTD SVG 1.1//EN"
  "http://www.w3.org/Graphics/SVG/1.1/DTD/svg11.dtd">
<svg xmlns:xlink="http://www.w3.org/1999/xlink" width="648pt" height="252pt" viewBox="0 0 648 252" xmlns="http://www.w3.org/2000/svg" version="1.1">
 <metadata>
  <rdf:RDF xmlns:dc="http://purl.org/dc/elements/1.1/" xmlns:cc="http://creativecommons.org/ns#" xmlns:rdf="http://www.w3.org/1999/02/22-rdf-syntax-ns#">
   <cc:Work>
    <dc:type rdf:resource="http://purl.org/dc/dcmitype/StillImage"/>
    <dc:date>2023-12-05T09:49:56.803135</dc:date>
    <dc:format>image/svg+xml</dc:format>
    <dc:creator>
     <cc:Agent>
      <dc:title>Matplotlib v3.8.1, https://matplotlib.org/</dc:title>
     </cc:Agent>
    </dc:creator>
   </cc:Work>
  </rdf:RDF>
 </metadata>
 <defs>
  <style type="text/css">*{stroke-linejoin: round; stroke-linecap: butt}</style>
 </defs>
 <g id="figure_1">
  <g id="patch_1">
   <path d="M 0 252 
L 648 252 
L 648 0 
L 0 0 
z
" style="fill: #ffffff"/>
  </g>
  <g id="axes_1">
   <g id="patch_2">
    <path d="M 54.02 210.04 
L 324.83 210.04 
L 324.83 14.76 
L 54.02 14.76 
z
" style="fill: #ffffff"/>
   </g>
   <g id="PolyCollection_1">
    <defs>
     <path id="m6a8d854d2f" d="M 66.329545 -50.836364 
L 66.329545 -50.836364 
L 67.5605 -51.565418 
L 68.791455 -52.294152 
L 70.022409 -53.022656 
L 71.253364 -53.750928 
L 72.484318 -54.478954 
L 73.715273 -55.206734 
L 74.946227 -55.934289 
L 76.177182 -56.662029 
L 77.408136 -57.390209 
L 78.639091 -58.118384 
L 79.870045 -58.846553 
L 81.101 -59.574715 
L 82.331955 -60.302871 
L 83.562909 -61.031022 
L 84.793864 -61.759166 
L 86.024818 -62.487304 
L 87.255773 -63.215436 
L 88.486727 -63.943562 
L 89.717682 -64.671682 
L 90.948636 -65.399796 
L 92.179591 -66.127904 
L 93.410545 -66.856005 
L 94.6415 -67.584101 
L 95.872455 -68.312191 
L 97.103409 -69.039731 
L 98.334364 -69.759954 
L 99.565318 -70.479575 
L 100.796273 -71.198596 
L 102.027227 -71.917016 
L 103.258182 -72.634837 
L 104.489136 -73.35206 
L 105.720091 -74.068684 
L 106.951045 -74.784712 
L 108.182 -75.500143 
L 109.412955 -76.214978 
L 110.643909 -76.929219 
L 111.874864 -77.645547 
L 113.105818 -78.355557 
L 114.336773 -79.067697 
L 115.567727 -79.77923 
L 116.798682 -80.490333 
L 118.029636 -81.201029 
L 119.260591 -81.918735 
L 120.491545 -82.638958 
L 121.7225 -83.359061 
L 122.953455 -84.079046 
L 124.184409 -84.798912 
L 125.415364 -85.518659 
L 126.646318 -86.238288 
L 127.877273 -86.957798 
L 129.108227 -87.677189 
L 130.339182 -88.383736 
L 131.570136 -89.087332 
L 132.801091 -89.807294 
L 134.032045 -90.528832 
L 135.263 -91.250365 
L 136.493955 -91.971893 
L 137.724909 -92.693416 
L 138.955864 -93.414933 
L 140.186818 -94.136445 
L 141.417773 -94.857952 
L 142.648727 -95.576128 
L 143.879682 -96.290218 
L 145.110636 -97.004071 
L 146.341591 -97.679767 
L 147.572545 -98.378312 
L 148.8035 -99.091755 
L 150.034455 -99.804994 
L 151.265409 -100.51803 
L 152.496364 -101.230862 
L 153.727318 -101.950117 
L 154.958273 -102.655456 
L 156.189227 -103.367018 
L 157.420182 -104.079022 
L 158.651136 -104.790823 
L 159.882091 -105.503129 
L 161.113045 -106.222226 
L 162.344 -106.941318 
L 163.574955 -107.660404 
L 164.805909 -108.358123 
L 166.036864 -109.056203 
L 167.267818 -109.765949 
L 168.498773 -110.475478 
L 169.729727 -111.184791 
L 170.960682 -111.893887 
L 172.191636 -112.602767 
L 173.422591 -113.311429 
L 174.653545 -114.019876 
L 175.8845 -114.728106 
L 177.115455 -115.43612 
L 178.346409 -116.143918 
L 179.577364 -116.8515 
L 180.808318 -117.543523 
L 182.039273 -118.205682 
L 183.270227 -118.864282 
L 184.501182 -119.480376 
L 185.732136 -120.094801 
L 186.963091 -120.787665 
L 188.194045 -121.486306 
L 189.425 -122.184221 
L 190.655955 -122.863923 
L 191.886909 -123.575458 
L 193.117864 -124.276023 
L 194.348818 -124.973446 
L 195.579773 -125.670577 
L 196.810727 -126.367415 
L 198.041682 -127.063961 
L 199.272636 -127.765699 
L 200.503591 -128.454612 
L 201.734545 -129.140139 
L 202.9655 -129.816721 
L 204.196455 -130.486366 
L 205.427409 -131.146739 
L 206.658364 -131.842183 
L 207.889318 -132.516704 
L 209.120273 -133.138904 
L 210.351227 -133.812899 
L 211.582182 -134.415394 
L 212.813136 -135.019784 
L 214.044091 -135.592333 
L 215.275045 -136.273896 
L 216.506 -136.905216 
L 217.736955 -137.576605 
L 218.967909 -138.129356 
L 220.198864 -138.72472 
L 221.429818 -139.276903 
L 222.660773 -139.854097 
L 223.891727 -140.456204 
L 225.122682 -141.000393 
L 226.353636 -141.590882 
L 227.584591 -142.28651 
L 228.815545 -142.83879 
L 230.0465 -143.442444 
L 231.277455 -144.098617 
L 232.508409 -144.641042 
L 233.739364 -145.128228 
L 234.970318 -145.632247 
L 236.201273 -146.09597 
L 237.432227 -146.548757 
L 238.663182 -147.051866 
L 239.894136 -147.528544 
L 241.125091 -148.001067 
L 242.356045 -148.473185 
L 243.587 -148.989675 
L 244.817955 -149.508164 
L 246.048909 -150.019145 
L 247.279864 -150.466427 
L 248.510818 -150.92769 
L 249.741773 -151.449415 
L 250.972727 -151.969928 
L 252.203682 -152.473047 
L 253.434636 -152.8082 
L 254.665591 -153.141154 
L 255.896545 -153.524062 
L 257.1275 -153.9686 
L 258.358455 -154.352047 
L 259.589409 -154.634737 
L 260.820364 -154.917299 
L 262.051318 -155.291566 
L 263.282273 -155.704723 
L 264.513227 -156.116063 
L 265.744182 -156.525505 
L 266.975136 -156.874746 
L 268.206091 -157.376376 
L 269.437045 -157.736735 
L 270.668 -158.084801 
L 271.898955 -158.43187 
L 273.129909 -158.823331 
L 274.360864 -159.339527 
L 275.591818 -159.734242 
L 276.822773 -160.11087 
L 278.053727 -160.389333 
L 279.284682 -160.701987 
L 280.515636 -161.128485 
L 281.746591 -161.54004 
L 282.977545 -161.894021 
L 284.2085 -162.226938 
L 285.439455 -162.525747 
L 286.670409 -162.753741 
L 287.901364 -163.11454 
L 289.132318 -163.402648 
L 290.363273 -163.657992 
L 291.594227 -163.890253 
L 292.825182 -164.120932 
L 294.056136 -164.351762 
L 295.287091 -164.643591 
L 296.518045 -164.868896 
L 297.749 -165.092683 
L 298.979955 -165.314969 
L 300.210909 -165.535768 
L 301.441864 -165.75616 
L 302.672818 -166.088185 
L 303.903773 -166.436447 
L 305.134727 -166.785989 
L 306.365682 -167.126496 
L 307.596636 -167.44589 
L 308.827591 -167.625501 
L 310.058545 -167.814988 
L 311.2895 -168.059791 
L 311.2895 -203.839302 
L 311.2895 -203.839302 
L 310.058545 -203.072455 
L 308.827591 -202.382555 
L 307.596636 -201.811754 
L 306.365682 -201.239305 
L 305.134727 -200.663521 
L 303.903773 -199.895678 
L 302.672818 -199.123351 
L 301.441864 -198.3671 
L 300.210909 -197.674439 
L 298.979955 -196.906408 
L 297.749 -196.373046 
L 296.518045 -195.837049 
L 295.287091 -195.083779 
L 294.056136 -194.308256 
L 292.825182 -193.568646 
L 291.594227 -192.797655 
L 290.363273 -192.023797 
L 289.132318 -191.24992 
L 287.901364 -190.592512 
L 286.670409 -190.004571 
L 285.439455 -189.395295 
L 284.2085 -188.616874 
L 282.977545 -187.844272 
L 281.746591 -187.077079 
L 280.515636 -186.4692 
L 279.284682 -185.85979 
L 278.053727 -185.248845 
L 276.822773 -184.603933 
L 275.591818 -183.895334 
L 274.360864 -183.185953 
L 273.129909 -182.543512 
L 271.898955 -182.090214 
L 270.668 -181.454 
L 269.437045 -180.919494 
L 268.206091 -180.392045 
L 266.975136 -179.864693 
L 265.744182 -179.330949 
L 264.513227 -178.715183 
L 263.282273 -178.078447 
L 262.051318 -177.533816 
L 260.820364 -176.78827 
L 259.589409 -176.040893 
L 258.358455 -175.376052 
L 257.1275 -174.789265 
L 255.896545 -174.066016 
L 254.665591 -173.521442 
L 253.434636 -173.083861 
L 252.203682 -172.539356 
L 250.972727 -171.963865 
L 249.741773 -171.214683 
L 248.510818 -170.683782 
L 247.279864 -170.161683 
L 246.048909 -169.637056 
L 244.817955 -169.059398 
L 243.587 -168.471644 
L 242.356045 -167.873094 
L 241.125091 -167.226489 
L 239.894136 -166.57797 
L 238.663182 -165.927529 
L 237.432227 -165.335614 
L 236.201273 -164.691757 
L 234.970318 -164.113689 
L 233.739364 -163.53255 
L 232.508409 -163.048714 
L 231.277455 -162.468624 
L 230.0465 -161.899269 
L 228.815545 -161.243157 
L 227.584591 -160.630142 
L 226.353636 -160.001253 
L 225.122682 -159.386675 
L 223.891727 -158.873561 
L 222.660773 -158.350342 
L 221.429818 -157.821262 
L 220.198864 -157.288847 
L 218.967909 -156.7553 
L 217.736955 -156.064471 
L 216.506 -155.439895 
L 215.275045 -154.908267 
L 214.044091 -154.373252 
L 212.813136 -153.938892 
L 211.582182 -153.298131 
L 210.351227 -152.747943 
L 209.120273 -152.197384 
L 207.889318 -151.633508 
L 206.658364 -150.965949 
L 205.427409 -150.3276 
L 204.196455 -149.673023 
L 202.9655 -149.164976 
L 201.734545 -148.654485 
L 200.503591 -148.105104 
L 199.272636 -147.582703 
L 198.041682 -147.040535 
L 196.810727 -146.485948 
L 195.579773 -145.924133 
L 194.348818 -145.34348 
L 193.117864 -144.737551 
L 191.886909 -144.169817 
L 190.655955 -143.630758 
L 189.425 -143.003342 
L 188.194045 -142.532528 
L 186.963091 -142.085649 
L 185.732136 -141.534749 
L 184.501182 -140.989971 
L 183.270227 -140.366127 
L 182.039273 -139.782566 
L 180.808318 -139.194257 
L 179.577364 -138.601144 
L 178.346409 -138.003166 
L 177.115455 -137.400264 
L 175.8845 -136.923011 
L 174.653545 -136.218367 
L 173.422591 -135.601983 
L 172.191636 -135.107402 
L 170.960682 -134.404481 
L 169.729727 -133.696712 
L 168.498773 -133.031499 
L 167.267818 -132.357926 
L 166.036864 -131.568268 
L 164.805909 -130.814617 
L 163.574955 -130.081573 
L 162.344 -129.343561 
L 161.113045 -128.611054 
L 159.882091 -127.883025 
L 158.651136 -127.338835 
L 157.420182 -126.723504 
L 156.189227 -126.13712 
L 154.958273 -125.536046 
L 153.727318 -124.886787 
L 152.496364 -124.099101 
L 151.265409 -123.301261 
L 150.034455 -122.497905 
L 148.8035 -121.688978 
L 147.572545 -120.87442 
L 146.341591 -120.054173 
L 145.110636 -119.291495 
L 143.879682 -118.554892 
L 142.648727 -117.810974 
L 141.417773 -117.094573 
L 140.186818 -116.303411 
L 138.955864 -115.536379 
L 137.724909 -114.693099 
L 136.493955 -113.838701 
L 135.263 -112.977566 
L 134.032045 -112.146558 
L 132.801091 -111.35994 
L 131.570136 -110.5647 
L 130.339182 -109.760695 
L 129.108227 -108.94778 
L 127.877273 -108.125805 
L 126.646318 -107.344309 
L 125.415364 -106.567278 
L 124.184409 -105.712894 
L 122.953455 -104.835937 
L 121.7225 -103.949438 
L 120.491545 -103.035242 
L 119.260591 -102.14819 
L 118.029636 -101.204848 
L 116.798682 -100.255842 
L 115.567727 -99.300548 
L 114.336773 -98.406958 
L 113.105818 -97.467272 
L 111.874864 -96.500826 
L 110.643909 -95.576525 
L 109.412955 -94.599773 
L 108.182 -93.611002 
L 106.951045 -92.623397 
L 105.720091 -91.641161 
L 104.489136 -90.582622 
L 103.258182 -89.525176 
L 102.027227 -88.471289 
L 100.796273 -87.382782 
L 99.565318 -86.28017 
L 98.334364 -85.164155 
L 97.103409 -84.035201 
L 95.872455 -82.893082 
L 94.6415 -81.73624 
L 93.410545 -80.558923 
L 92.179591 -79.368296 
L 90.948636 -78.166849 
L 89.717682 -76.964993 
L 88.486727 -75.747795 
L 87.255773 -74.510649 
L 86.024818 -73.254693 
L 84.793864 -71.983236 
L 83.562909 -70.695991 
L 82.331955 -69.392661 
L 81.101 -68.072943 
L 79.870045 -66.736526 
L 78.639091 -65.383005 
L 77.408136 -64.016638 
L 76.177182 -62.645734 
L 74.946227 -61.242377 
L 73.715273 -59.81413 
L 72.484318 -58.367014 
L 71.253364 -56.912114 
L 70.022409 -55.428669 
L 68.791455 -53.919871 
L 67.5605 -52.390789 
L 66.329545 -50.836364 
z
" style="stroke: #ef553b; stroke-opacity: 0.3"/>
    </defs>
    <g clip-path="url(#pc82bf7038d)">
     <use xlink:href="#m6a8d854d2f" x="0" y="252" style="fill: #ef553b; fill-opacity: 0.3; stroke: #ef553b; stroke-opacity: 0.3"/>
    </g>
   </g>
   <g id="matplotlib.axis_1">
    <g id="xtick_1">
     <g id="line2d_1">
      <defs>
       <path id="mf8b51785b3" d="M 0 0 
L 0 3.5 
" style="stroke: #000000; stroke-width: 0.8"/>
      </defs>
      <g>
       <use xlink:href="#mf8b51785b3" x="66.329545" y="210.04" style="stroke: #000000; stroke-width: 0.8"/>
      </g>
     </g>
     <g id="text_1">
      <!-- 0 -->
      <g transform="translate(63.148295 224.638438) scale(0.1 -0.1)">
       <defs>
        <path id="DejaVuSans-30" d="M 2034 4250 
Q 1547 4250 1301 3770 
Q 1056 3291 1056 2328 
Q 1056 1369 1301 889 
Q 1547 409 2034 409 
Q 2525 409 2770 889 
Q 3016 1369 3016 2328 
Q 3016 3291 2770 3770 
Q 2525 4250 2034 4250 
z
M 2034 4750 
Q 2819 4750 3233 4129 
Q 3647 3509 3647 2328 
Q 3647 1150 3233 529 
Q 2819 -91 2034 -91 
Q 1250 -91 836 529 
Q 422 1150 422 2328 
Q 422 3509 836 4129 
Q 1250 4750 2034 4750 
z
" transform="scale(0.015625)"/>
       </defs>
       <use xlink:href="#DejaVuSans-30"/>
      </g>
     </g>
    </g>
    <g id="xtick_2">
     <g id="line2d_2">
      <g>
       <use xlink:href="#mf8b51785b3" x="123.558288" y="210.04" style="stroke: #000000; stroke-width: 0.8"/>
      </g>
     </g>
     <g id="text_2">
      <!-- 500 -->
      <g transform="translate(114.014538 224.638438) scale(0.1 -0.1)">
       <defs>
        <path id="DejaVuSans-35" d="M 691 4666 
L 3169 4666 
L 3169 4134 
L 1269 4134 
L 1269 2991 
Q 1406 3038 1543 3061 
Q 1681 3084 1819 3084 
Q 2600 3084 3056 2656 
Q 3513 2228 3513 1497 
Q 3513 744 3044 326 
Q 2575 -91 1722 -91 
Q 1428 -91 1123 -41 
Q 819 9 494 109 
L 494 744 
Q 775 591 1075 516 
Q 1375 441 1709 441 
Q 2250 441 2565 725 
Q 2881 1009 2881 1497 
Q 2881 1984 2565 2268 
Q 2250 2553 1709 2553 
Q 1456 2553 1204 2497 
Q 953 2441 691 2322 
L 691 4666 
z
" transform="scale(0.015625)"/>
       </defs>
       <use xlink:href="#DejaVuSans-35"/>
       <use xlink:href="#DejaVuSans-30" x="63.623047"/>
       <use xlink:href="#DejaVuSans-30" x="127.246094"/>
      </g>
     </g>
    </g>
    <g id="xtick_3">
     <g id="line2d_3">
      <g>
       <use xlink:href="#mf8b51785b3" x="180.787031" y="210.04" style="stroke: #000000; stroke-width: 0.8"/>
      </g>
     </g>
     <g id="text_3">
      <!-- 1000 -->
      <g transform="translate(168.062031 224.638438) scale(0.1 -0.1)">
       <defs>
        <path id="DejaVuSans-31" d="M 794 531 
L 1825 531 
L 1825 4091 
L 703 3866 
L 703 4441 
L 1819 4666 
L 2450 4666 
L 2450 531 
L 3481 531 
L 3481 0 
L 794 0 
L 794 531 
z
" transform="scale(0.015625)"/>
       </defs>
       <use xlink:href="#DejaVuSans-31"/>
       <use xlink:href="#DejaVuSans-30" x="63.623047"/>
       <use xlink:href="#DejaVuSans-30" x="127.246094"/>
       <use xlink:href="#DejaVuSans-30" x="190.869141"/>
      </g>
     </g>
    </g>
    <g id="xtick_4">
     <g id="line2d_4">
      <g>
       <use xlink:href="#mf8b51785b3" x="238.015774" y="210.04" style="stroke: #000000; stroke-width: 0.8"/>
      </g>
     </g>
     <g id="text_4">
      <!-- 1500 -->
      <g transform="translate(225.290774 224.638438) scale(0.1 -0.1)">
       <use xlink:href="#DejaVuSans-31"/>
       <use xlink:href="#DejaVuSans-35" x="63.623047"/>
       <use xlink:href="#DejaVuSans-30" x="127.246094"/>
       <use xlink:href="#DejaVuSans-30" x="190.869141"/>
      </g>
     </g>
    </g>
    <g id="xtick_5">
     <g id="line2d_5">
      <g>
       <use xlink:href="#mf8b51785b3" x="295.244517" y="210.04" style="stroke: #000000; stroke-width: 0.8"/>
      </g>
     </g>
     <g id="text_5">
      <!-- 2000 -->
      <g transform="translate(282.519517 224.638438) scale(0.1 -0.1)">
       <defs>
        <path id="DejaVuSans-32" d="M 1228 531 
L 3431 531 
L 3431 0 
L 469 0 
L 469 531 
Q 828 903 1448 1529 
Q 2069 2156 2228 2338 
Q 2531 2678 2651 2914 
Q 2772 3150 2772 3378 
Q 2772 3750 2511 3984 
Q 2250 4219 1831 4219 
Q 1534 4219 1204 4116 
Q 875 4013 500 3803 
L 500 4441 
Q 881 4594 1212 4672 
Q 1544 4750 1819 4750 
Q 2544 4750 2975 4387 
Q 3406 4025 3406 3419 
Q 3406 3131 3298 2873 
Q 3191 2616 2906 2266 
Q 2828 2175 2409 1742 
Q 1991 1309 1228 531 
z
" transform="scale(0.015625)"/>
       </defs>
       <use xlink:href="#DejaVuSans-32"/>
       <use xlink:href="#DejaVuSans-30" x="63.623047"/>
       <use xlink:href="#DejaVuSans-30" x="127.246094"/>
       <use xlink:href="#DejaVuSans-30" x="190.869141"/>
      </g>
     </g>
    </g>
    <g id="text_6">
     <!-- concentration -->
     <g transform="translate(154.796094 238.316563) scale(0.1 -0.1)">
      <defs>
       <path id="DejaVuSans-63" d="M 3122 3366 
L 3122 2828 
Q 2878 2963 2633 3030 
Q 2388 3097 2138 3097 
Q 1578 3097 1268 2742 
Q 959 2388 959 1747 
Q 959 1106 1268 751 
Q 1578 397 2138 397 
Q 2388 397 2633 464 
Q 2878 531 3122 666 
L 3122 134 
Q 2881 22 2623 -34 
Q 2366 -91 2075 -91 
Q 1284 -91 818 406 
Q 353 903 353 1747 
Q 353 2603 823 3093 
Q 1294 3584 2113 3584 
Q 2378 3584 2631 3529 
Q 2884 3475 3122 3366 
z
" transform="scale(0.015625)"/>
       <path id="DejaVuSans-6f" d="M 1959 3097 
Q 1497 3097 1228 2736 
Q 959 2375 959 1747 
Q 959 1119 1226 758 
Q 1494 397 1959 397 
Q 2419 397 2687 759 
Q 2956 1122 2956 1747 
Q 2956 2369 2687 2733 
Q 2419 3097 1959 3097 
z
M 1959 3584 
Q 2709 3584 3137 3096 
Q 3566 2609 3566 1747 
Q 3566 888 3137 398 
Q 2709 -91 1959 -91 
Q 1206 -91 779 398 
Q 353 888 353 1747 
Q 353 2609 779 3096 
Q 1206 3584 1959 3584 
z
" transform="scale(0.015625)"/>
       <path id="DejaVuSans-6e" d="M 3513 2113 
L 3513 0 
L 2938 0 
L 2938 2094 
Q 2938 2591 2744 2837 
Q 2550 3084 2163 3084 
Q 1697 3084 1428 2787 
Q 1159 2491 1159 1978 
L 1159 0 
L 581 0 
L 581 3500 
L 1159 3500 
L 1159 2956 
Q 1366 3272 1645 3428 
Q 1925 3584 2291 3584 
Q 2894 3584 3203 3211 
Q 3513 2838 3513 2113 
z
" transform="scale(0.015625)"/>
       <path id="DejaVuSans-65" d="M 3597 1894 
L 3597 1613 
L 953 1613 
Q 991 1019 1311 708 
Q 1631 397 2203 397 
Q 2534 397 2845 478 
Q 3156 559 3463 722 
L 3463 178 
Q 3153 47 2828 -22 
Q 2503 -91 2169 -91 
Q 1331 -91 842 396 
Q 353 884 353 1716 
Q 353 2575 817 3079 
Q 1281 3584 2069 3584 
Q 2775 3584 3186 3129 
Q 3597 2675 3597 1894 
z
M 3022 2063 
Q 3016 2534 2758 2815 
Q 2500 3097 2075 3097 
Q 1594 3097 1305 2825 
Q 1016 2553 972 2059 
L 3022 2063 
z
" transform="scale(0.015625)"/>
       <path id="DejaVuSans-74" d="M 1172 4494 
L 1172 3500 
L 2356 3500 
L 2356 3053 
L 1172 3053 
L 1172 1153 
Q 1172 725 1289 603 
Q 1406 481 1766 481 
L 2356 481 
L 2356 0 
L 1766 0 
Q 1100 0 847 248 
Q 594 497 594 1153 
L 594 3053 
L 172 3053 
L 172 3500 
L 594 3500 
L 594 4494 
L 1172 4494 
z
" transform="scale(0.015625)"/>
       <path id="DejaVuSans-72" d="M 2631 2963 
Q 2534 3019 2420 3045 
Q 2306 3072 2169 3072 
Q 1681 3072 1420 2755 
Q 1159 2438 1159 1844 
L 1159 0 
L 581 0 
L 581 3500 
L 1159 3500 
L 1159 2956 
Q 1341 3275 1631 3429 
Q 1922 3584 2338 3584 
Q 2397 3584 2469 3576 
Q 2541 3569 2628 3553 
L 2631 2963 
z
" transform="scale(0.015625)"/>
       <path id="DejaVuSans-61" d="M 2194 1759 
Q 1497 1759 1228 1600 
Q 959 1441 959 1056 
Q 959 750 1161 570 
Q 1363 391 1709 391 
Q 2188 391 2477 730 
Q 2766 1069 2766 1631 
L 2766 1759 
L 2194 1759 
z
M 3341 1997 
L 3341 0 
L 2766 0 
L 2766 531 
Q 2569 213 2275 61 
Q 1981 -91 1556 -91 
Q 1019 -91 701 211 
Q 384 513 384 1019 
Q 384 1609 779 1909 
Q 1175 2209 1959 2209 
L 2766 2209 
L 2766 2266 
Q 2766 2663 2505 2880 
Q 2244 3097 1772 3097 
Q 1472 3097 1187 3025 
Q 903 2953 641 2809 
L 641 3341 
Q 956 3463 1253 3523 
Q 1550 3584 1831 3584 
Q 2591 3584 2966 3190 
Q 3341 2797 3341 1997 
z
" transform="scale(0.015625)"/>
       <path id="DejaVuSans-69" d="M 603 3500 
L 1178 3500 
L 1178 0 
L 603 0 
L 603 3500 
z
M 603 4863 
L 1178 4863 
L 1178 4134 
L 603 4134 
L 603 4863 
z
" transform="scale(0.015625)"/>
      </defs>
      <use xlink:href="#DejaVuSans-63"/>
      <use xlink:href="#DejaVuSans-6f" x="54.980469"/>
      <use xlink:href="#DejaVuSans-6e" x="116.162109"/>
      <use xlink:href="#DejaVuSans-63" x="179.541016"/>
      <use xlink:href="#DejaVuSans-65" x="234.521484"/>
      <use xlink:href="#DejaVuSans-6e" x="296.044922"/>
      <use xlink:href="#DejaVuSans-74" x="359.423828"/>
      <use xlink:href="#DejaVuSans-72" x="398.632812"/>
      <use xlink:href="#DejaVuSans-61" x="439.746094"/>
      <use xlink:href="#DejaVuSans-74" x="501.025391"/>
      <use xlink:href="#DejaVuSans-69" x="540.234375"/>
      <use xlink:href="#DejaVuSans-6f" x="568.017578"/>
      <use xlink:href="#DejaVuSans-6e" x="629.199219"/>
     </g>
    </g>
   </g>
   <g id="matplotlib.axis_2">
    <g id="ytick_1">
     <g id="line2d_6">
      <defs>
       <path id="m556c174b8b" d="M 0 0 
L -3.5 0 
" style="stroke: #000000; stroke-width: 0.8"/>
      </defs>
      <g>
       <use xlink:href="#m556c174b8b" x="54.02" y="201.163636" style="stroke: #000000; stroke-width: 0.8"/>
      </g>
     </g>
     <g id="text_7">
      <!-- 0.0 -->
      <g transform="translate(31.116875 204.962855) scale(0.1 -0.1)">
       <defs>
        <path id="DejaVuSans-2e" d="M 684 794 
L 1344 794 
L 1344 0 
L 684 0 
L 684 794 
z
" transform="scale(0.015625)"/>
       </defs>
       <use xlink:href="#DejaVuSans-30"/>
       <use xlink:href="#DejaVuSans-2e" x="63.623047"/>
       <use xlink:href="#DejaVuSans-30" x="95.410156"/>
      </g>
     </g>
    </g>
    <g id="ytick_2">
     <g id="line2d_7">
      <g>
       <use xlink:href="#m556c174b8b" x="54.02" y="175.098759" style="stroke: #000000; stroke-width: 0.8"/>
      </g>
     </g>
     <g id="text_8">
      <!-- 2.5 -->
      <g transform="translate(31.116875 178.897978) scale(0.1 -0.1)">
       <use xlink:href="#DejaVuSans-32"/>
       <use xlink:href="#DejaVuSans-2e" x="63.623047"/>
       <use xlink:href="#DejaVuSans-35" x="95.410156"/>
      </g>
     </g>
    </g>
    <g id="ytick_3">
     <g id="line2d_8">
      <g>
       <use xlink:href="#m556c174b8b" x="54.02" y="149.033882" style="stroke: #000000; stroke-width: 0.8"/>
      </g>
     </g>
     <g id="text_9">
      <!-- 5.0 -->
      <g transform="translate(31.116875 152.833101) scale(0.1 -0.1)">
       <use xlink:href="#DejaVuSans-35"/>
       <use xlink:href="#DejaVuSans-2e" x="63.623047"/>
       <use xlink:href="#DejaVuSans-30" x="95.410156"/>
      </g>
     </g>
    </g>
    <g id="ytick_4">
     <g id="line2d_9">
      <g>
       <use xlink:href="#m556c174b8b" x="54.02" y="122.969004" style="stroke: #000000; stroke-width: 0.8"/>
      </g>
     </g>
     <g id="text_10">
      <!-- 7.5 -->
      <g transform="translate(31.116875 126.768223) scale(0.1 -0.1)">
       <defs>
        <path id="DejaVuSans-37" d="M 525 4666 
L 3525 4666 
L 3525 4397 
L 1831 0 
L 1172 0 
L 2766 4134 
L 525 4134 
L 525 4666 
z
" transform="scale(0.015625)"/>
       </defs>
       <use xlink:href="#DejaVuSans-37"/>
       <use xlink:href="#DejaVuSans-2e" x="63.623047"/>
       <use xlink:href="#DejaVuSans-35" x="95.410156"/>
      </g>
     </g>
    </g>
    <g id="ytick_5">
     <g id="line2d_10">
      <g>
       <use xlink:href="#m556c174b8b" x="54.02" y="96.904127" style="stroke: #000000; stroke-width: 0.8"/>
      </g>
     </g>
     <g id="text_11">
      <!-- 10.0 -->
      <g transform="translate(24.754375 100.703346) scale(0.1 -0.1)">
       <use xlink:href="#DejaVuSans-31"/>
       <use xlink:href="#DejaVuSans-30" x="63.623047"/>
       <use xlink:href="#DejaVuSans-2e" x="127.246094"/>
       <use xlink:href="#DejaVuSans-30" x="159.033203"/>
      </g>
     </g>
    </g>
    <g id="ytick_6">
     <g id="line2d_11">
      <g>
       <use xlink:href="#m556c174b8b" x="54.02" y="70.83925" style="stroke: #000000; stroke-width: 0.8"/>
      </g>
     </g>
     <g id="text_12">
      <!-- 12.5 -->
      <g transform="translate(24.754375 74.638469) scale(0.1 -0.1)">
       <use xlink:href="#DejaVuSans-31"/>
       <use xlink:href="#DejaVuSans-32" x="63.623047"/>
       <use xlink:href="#DejaVuSans-2e" x="127.246094"/>
       <use xlink:href="#DejaVuSans-35" x="159.033203"/>
      </g>
     </g>
    </g>
    <g id="ytick_7">
     <g id="line2d_12">
      <g>
       <use xlink:href="#m556c174b8b" x="54.02" y="44.774373" style="stroke: #000000; stroke-width: 0.8"/>
      </g>
     </g>
     <g id="text_13">
      <!-- 15.0 -->
      <g transform="translate(24.754375 48.573591) scale(0.1 -0.1)">
       <use xlink:href="#DejaVuSans-31"/>
       <use xlink:href="#DejaVuSans-35" x="63.623047"/>
       <use xlink:href="#DejaVuSans-2e" x="127.246094"/>
       <use xlink:href="#DejaVuSans-30" x="159.033203"/>
      </g>
     </g>
    </g>
    <g id="ytick_8">
     <g id="line2d_13">
      <g>
       <use xlink:href="#m556c174b8b" x="54.02" y="18.709495" style="stroke: #000000; stroke-width: 0.8"/>
      </g>
     </g>
     <g id="text_14">
      <!-- 17.5 -->
      <g transform="translate(24.754375 22.508714) scale(0.1 -0.1)">
       <use xlink:href="#DejaVuSans-31"/>
       <use xlink:href="#DejaVuSans-37" x="63.623047"/>
       <use xlink:href="#DejaVuSans-2e" x="127.246094"/>
       <use xlink:href="#DejaVuSans-35" x="159.033203"/>
      </g>
     </g>
    </g>
    <g id="text_15">
     <!-- flux -->
     <g transform="translate(18.674688 121.677344) rotate(-90) scale(0.1 -0.1)">
      <defs>
       <path id="DejaVuSans-66" d="M 2375 4863 
L 2375 4384 
L 1825 4384 
Q 1516 4384 1395 4259 
Q 1275 4134 1275 3809 
L 1275 3500 
L 2222 3500 
L 2222 3053 
L 1275 3053 
L 1275 0 
L 697 0 
L 697 3053 
L 147 3053 
L 147 3500 
L 697 3500 
L 697 3744 
Q 697 4328 969 4595 
Q 1241 4863 1831 4863 
L 2375 4863 
z
" transform="scale(0.015625)"/>
       <path id="DejaVuSans-6c" d="M 603 4863 
L 1178 4863 
L 1178 0 
L 603 0 
L 603 4863 
z
" transform="scale(0.015625)"/>
       <path id="DejaVuSans-75" d="M 544 1381 
L 544 3500 
L 1119 3500 
L 1119 1403 
Q 1119 906 1312 657 
Q 1506 409 1894 409 
Q 2359 409 2629 706 
Q 2900 1003 2900 1516 
L 2900 3500 
L 3475 3500 
L 3475 0 
L 2900 0 
L 2900 538 
Q 2691 219 2414 64 
Q 2138 -91 1772 -91 
Q 1169 -91 856 284 
Q 544 659 544 1381 
z
M 1991 3584 
L 1991 3584 
z
" transform="scale(0.015625)"/>
       <path id="DejaVuSans-78" d="M 3513 3500 
L 2247 1797 
L 3578 0 
L 2900 0 
L 1881 1375 
L 863 0 
L 184 0 
L 1544 1831 
L 300 3500 
L 978 3500 
L 1906 2253 
L 2834 3500 
L 3513 3500 
z
" transform="scale(0.015625)"/>
      </defs>
      <use xlink:href="#DejaVuSans-66"/>
      <use xlink:href="#DejaVuSans-6c" x="35.205078"/>
      <use xlink:href="#DejaVuSans-75" x="62.988281"/>
      <use xlink:href="#DejaVuSans-78" x="126.367188"/>
     </g>
    </g>
   </g>
   <g id="line2d_14">
    <defs>
     <path id="m086224f173" d="M 0 2.5 
C 0.663008 2.5 1.29895 2.236584 1.767767 1.767767 
C 2.236584 1.29895 2.5 0.663008 2.5 0 
C 2.5 -0.663008 2.236584 -1.29895 1.767767 -1.767767 
C 1.29895 -2.236584 0.663008 -2.5 0 -2.5 
C -0.663008 -2.5 -1.29895 -2.236584 -1.767767 -1.767767 
C -2.236584 -1.29895 -2.5 -0.663008 -2.5 0 
C -2.5 0.663008 -2.236584 1.29895 -1.767767 1.767767 
C -1.29895 2.236584 -0.663008 2.5 0 2.5 
z
" style="stroke: #225a8c"/>
    </defs>
    <g clip-path="url(#pc82bf7038d)">
     <use xlink:href="#m086224f173" x="173.929455" y="151.168528" style="fill: #5b9bd5; stroke: #225a8c"/>
     <use xlink:href="#m086224f173" x="181.411727" y="153.579007" style="fill: #5b9bd5; stroke: #225a8c"/>
     <use xlink:href="#m086224f173" x="66.860545" y="201.163636" style="fill: #5b9bd5; stroke: #225a8c"/>
     <use xlink:href="#m086224f173" x="66.812273" y="201.163636" style="fill: #5b9bd5; stroke: #225a8c"/>
     <use xlink:href="#m086224f173" x="232.242909" y="136.705658" style="fill: #5b9bd5; stroke: #225a8c"/>
     <use xlink:href="#m086224f173" x="236.925364" y="131.527593" style="fill: #5b9bd5; stroke: #225a8c"/>
     <use xlink:href="#m086224f173" x="228.236273" y="151.168528" style="fill: #5b9bd5; stroke: #225a8c"/>
     <use xlink:href="#m086224f173" x="203.713727" y="160.185503" style="fill: #5b9bd5; stroke: #225a8c"/>
     <use xlink:href="#m086224f173" x="105.044273" y="179.112223" style="fill: #5b9bd5; stroke: #225a8c"/>
     <use xlink:href="#m086224f173" x="109.388818" y="173.710965" style="fill: #5b9bd5; stroke: #225a8c"/>
     <use xlink:href="#m086224f173" x="174.412182" y="157.239363" style="fill: #5b9bd5; stroke: #225a8c"/>
     <use xlink:href="#m086224f173" x="161.282" y="164.560075" style="fill: #5b9bd5; stroke: #225a8c"/>
     <use xlink:href="#m086224f173" x="67.005364" y="199.244181" style="fill: #5b9bd5; stroke: #225a8c"/>
     <use xlink:href="#m086224f173" x="67.198455" y="201.163636" style="fill: #5b9bd5; stroke: #225a8c"/>
     <use xlink:href="#m086224f173" x="66.957091" y="199.690566" style="fill: #5b9bd5; stroke: #225a8c"/>
     <use xlink:href="#m086224f173" x="189.956" y="125.278204" style="fill: #5b9bd5; stroke: #225a8c"/>
     <use xlink:href="#m086224f173" x="186.963091" y="120.234055" style="fill: #5b9bd5; stroke: #225a8c"/>
     <use xlink:href="#m086224f173" x="185.949364" y="116.796891" style="fill: #5b9bd5; stroke: #225a8c"/>
     <use xlink:href="#m086224f173" x="312.520455" y="69.122984" style="fill: #5b9bd5; stroke: #225a8c"/>
     <use xlink:href="#m086224f173" x="297.169727" y="87.201573" style="fill: #5b9bd5; stroke: #225a8c"/>
     <use xlink:href="#m086224f173" x="290.797727" y="38.054596" style="fill: #5b9bd5; stroke: #225a8c"/>
     <use xlink:href="#m086224f173" x="282.543091" y="87.067657" style="fill: #5b9bd5; stroke: #225a8c"/>
     <use xlink:href="#m086224f173" x="276.364182" y="85.460672" style="fill: #5b9bd5; stroke: #225a8c"/>
     <use xlink:href="#m086224f173" x="271.150727" y="116.171952" style="fill: #5b9bd5; stroke: #225a8c"/>
     <use xlink:href="#m086224f173" x="67.101909" y="199.333458" style="fill: #5b9bd5; stroke: #225a8c"/>
     <use xlink:href="#m086224f173" x="66.908818" y="199.333458" style="fill: #5b9bd5; stroke: #225a8c"/>
     <use xlink:href="#m086224f173" x="67.150182" y="199.333458" style="fill: #5b9bd5; stroke: #225a8c"/>
     <use xlink:href="#m086224f173" x="271.247273" y="27.29672" style="fill: #5b9bd5; stroke: #225a8c"/>
     <use xlink:href="#m086224f173" x="258.792909" y="32.787254" style="fill: #5b9bd5; stroke: #225a8c"/>
     <use xlink:href="#m086224f173" x="273.998818" y="23.636364" style="fill: #5b9bd5; stroke: #225a8c"/>
     <use xlink:href="#m086224f173" x="121.601818" y="95.013308" style="fill: #5b9bd5; stroke: #225a8c"/>
     <use xlink:href="#m086224f173" x="125.608455" y="93.18313" style="fill: #5b9bd5; stroke: #225a8c"/>
     <use xlink:href="#m086224f173" x="123.532727" y="84.03224" style="fill: #5b9bd5; stroke: #225a8c"/>
     <use xlink:href="#m086224f173" x="66.329545" y="201.163636" style="fill: #5b9bd5; stroke: #225a8c"/>
     <use xlink:href="#m086224f173" x="172.095091" y="120.635801" style="fill: #5b9bd5; stroke: #225a8c"/>
     <use xlink:href="#m086224f173" x="187.494091" y="111.484911" style="fill: #5b9bd5; stroke: #225a8c"/>
    </g>
   </g>
   <g id="line2d_15">
    <path d="M 66.329545 201.163636 
L 76.177182 193.279009 
L 86.024818 185.683172 
L 95.872455 178.360544 
L 105.720091 171.296646 
L 116.798682 163.642281 
L 127.877273 156.280542 
L 138.955864 149.194963 
L 150.034455 142.370289 
L 161.113045 135.792372 
L 173.422591 128.757023 
L 185.732136 121.993396 
L 198.041682 115.486046 
L 210.351227 109.220679 
L 223.891727 102.592478 
L 237.432227 96.224747 
L 250.972727 90.102428 
L 264.513227 84.211602 
L 279.284682 78.034147 
L 294.056136 72.101409 
L 308.827591 66.399131 
L 311.2895 65.470217 
L 311.2895 65.470217 
" clip-path="url(#pc82bf7038d)" style="fill: none; stroke: #ef553b; stroke-width: 1.5; stroke-linecap: square"/>
   </g>
   <g id="patch_3">
    <path d="M 54.02 210.04 
L 54.02 14.76 
" style="fill: none; stroke: #000000; stroke-width: 0.8; stroke-linejoin: miter; stroke-linecap: square"/>
   </g>
   <g id="patch_4">
    <path d="M 324.83 210.04 
L 324.83 14.76 
" style="fill: none; stroke: #000000; stroke-width: 0.8; stroke-linejoin: miter; stroke-linecap: square"/>
   </g>
   <g id="patch_5">
    <path d="M 54.02 210.04 
L 324.83 210.04 
" style="fill: none; stroke: #000000; stroke-width: 0.8; stroke-linejoin: miter; stroke-linecap: square"/>
   </g>
   <g id="patch_6">
    <path d="M 54.02 14.76 
L 324.83 14.76 
" style="fill: none; stroke: #000000; stroke-width: 0.8; stroke-linejoin: miter; stroke-linecap: square"/>
   </g>
   <g id="legend_1">
    <g id="patch_7">
     <path d="M 61.02 52.11625 
L 174.366875 52.11625 
Q 176.366875 52.11625 176.366875 50.11625 
L 176.366875 21.76 
Q 176.366875 19.76 174.366875 19.76 
L 61.02 19.76 
Q 59.02 19.76 59.02 21.76 
L 59.02 50.11625 
Q 59.02 52.11625 61.02 52.11625 
z
" style="fill: #ffffff; opacity: 0.8; stroke: #cccccc; stroke-linejoin: miter"/>
    </g>
    <g id="line2d_16">
     <g>
      <use xlink:href="#m086224f173" x="73.02" y="27.858437" style="fill: #5b9bd5; stroke: #225a8c"/>
     </g>
    </g>
    <g id="text_16">
     <!-- data -->
     <g transform="translate(91.02 31.358437) scale(0.1 -0.1)">
      <defs>
       <path id="DejaVuSans-64" d="M 2906 2969 
L 2906 4863 
L 3481 4863 
L 3481 0 
L 2906 0 
L 2906 525 
Q 2725 213 2448 61 
Q 2172 -91 1784 -91 
Q 1150 -91 751 415 
Q 353 922 353 1747 
Q 353 2572 751 3078 
Q 1150 3584 1784 3584 
Q 2172 3584 2448 3432 
Q 2725 3281 2906 2969 
z
M 947 1747 
Q 947 1113 1208 752 
Q 1469 391 1925 391 
Q 2381 391 2643 752 
Q 2906 1113 2906 1747 
Q 2906 2381 2643 2742 
Q 2381 3103 1925 3103 
Q 1469 3103 1208 2742 
Q 947 2381 947 1747 
z
" transform="scale(0.015625)"/>
      </defs>
      <use xlink:href="#DejaVuSans-64"/>
      <use xlink:href="#DejaVuSans-61" x="63.476562"/>
      <use xlink:href="#DejaVuSans-74" x="124.755859"/>
      <use xlink:href="#DejaVuSans-61" x="163.964844"/>
     </g>
    </g>
    <g id="line2d_17">
     <path d="M 63.02 42.536562 
L 73.02 42.536562 
L 83.02 42.536562 
" style="fill: none; stroke: #ef553b; stroke-width: 1.5; stroke-linecap: square"/>
    </g>
    <g id="text_17">
     <!-- best fit (95% CI) -->
     <g transform="translate(91.02 46.036562) scale(0.1 -0.1)">
      <defs>
       <path id="DejaVuSans-62" d="M 3116 1747 
Q 3116 2381 2855 2742 
Q 2594 3103 2138 3103 
Q 1681 3103 1420 2742 
Q 1159 2381 1159 1747 
Q 1159 1113 1420 752 
Q 1681 391 2138 391 
Q 2594 391 2855 752 
Q 3116 1113 3116 1747 
z
M 1159 2969 
Q 1341 3281 1617 3432 
Q 1894 3584 2278 3584 
Q 2916 3584 3314 3078 
Q 3713 2572 3713 1747 
Q 3713 922 3314 415 
Q 2916 -91 2278 -91 
Q 1894 -91 1617 61 
Q 1341 213 1159 525 
L 1159 0 
L 581 0 
L 581 4863 
L 1159 4863 
L 1159 2969 
z
" transform="scale(0.015625)"/>
       <path id="DejaVuSans-73" d="M 2834 3397 
L 2834 2853 
Q 2591 2978 2328 3040 
Q 2066 3103 1784 3103 
Q 1356 3103 1142 2972 
Q 928 2841 928 2578 
Q 928 2378 1081 2264 
Q 1234 2150 1697 2047 
L 1894 2003 
Q 2506 1872 2764 1633 
Q 3022 1394 3022 966 
Q 3022 478 2636 193 
Q 2250 -91 1575 -91 
Q 1294 -91 989 -36 
Q 684 19 347 128 
L 347 722 
Q 666 556 975 473 
Q 1284 391 1588 391 
Q 1994 391 2212 530 
Q 2431 669 2431 922 
Q 2431 1156 2273 1281 
Q 2116 1406 1581 1522 
L 1381 1569 
Q 847 1681 609 1914 
Q 372 2147 372 2553 
Q 372 3047 722 3315 
Q 1072 3584 1716 3584 
Q 2034 3584 2315 3537 
Q 2597 3491 2834 3397 
z
" transform="scale(0.015625)"/>
       <path id="DejaVuSans-20" transform="scale(0.015625)"/>
       <path id="DejaVuSans-28" d="M 1984 4856 
Q 1566 4138 1362 3434 
Q 1159 2731 1159 2009 
Q 1159 1288 1364 580 
Q 1569 -128 1984 -844 
L 1484 -844 
Q 1016 -109 783 600 
Q 550 1309 550 2009 
Q 550 2706 781 3412 
Q 1013 4119 1484 4856 
L 1984 4856 
z
" transform="scale(0.015625)"/>
       <path id="DejaVuSans-39" d="M 703 97 
L 703 672 
Q 941 559 1184 500 
Q 1428 441 1663 441 
Q 2288 441 2617 861 
Q 2947 1281 2994 2138 
Q 2813 1869 2534 1725 
Q 2256 1581 1919 1581 
Q 1219 1581 811 2004 
Q 403 2428 403 3163 
Q 403 3881 828 4315 
Q 1253 4750 1959 4750 
Q 2769 4750 3195 4129 
Q 3622 3509 3622 2328 
Q 3622 1225 3098 567 
Q 2575 -91 1691 -91 
Q 1453 -91 1209 -44 
Q 966 3 703 97 
z
M 1959 2075 
Q 2384 2075 2632 2365 
Q 2881 2656 2881 3163 
Q 2881 3666 2632 3958 
Q 2384 4250 1959 4250 
Q 1534 4250 1286 3958 
Q 1038 3666 1038 3163 
Q 1038 2656 1286 2365 
Q 1534 2075 1959 2075 
z
" transform="scale(0.015625)"/>
       <path id="DejaVuSans-25" d="M 4653 2053 
Q 4381 2053 4226 1822 
Q 4072 1591 4072 1178 
Q 4072 772 4226 539 
Q 4381 306 4653 306 
Q 4919 306 5073 539 
Q 5228 772 5228 1178 
Q 5228 1588 5073 1820 
Q 4919 2053 4653 2053 
z
M 4653 2450 
Q 5147 2450 5437 2106 
Q 5728 1763 5728 1178 
Q 5728 594 5436 251 
Q 5144 -91 4653 -91 
Q 4153 -91 3862 251 
Q 3572 594 3572 1178 
Q 3572 1766 3864 2108 
Q 4156 2450 4653 2450 
z
M 1428 4353 
Q 1159 4353 1004 4120 
Q 850 3888 850 3481 
Q 850 3069 1003 2837 
Q 1156 2606 1428 2606 
Q 1700 2606 1854 2837 
Q 2009 3069 2009 3481 
Q 2009 3884 1853 4118 
Q 1697 4353 1428 4353 
z
M 4250 4750 
L 4750 4750 
L 1831 -91 
L 1331 -91 
L 4250 4750 
z
M 1428 4750 
Q 1922 4750 2215 4408 
Q 2509 4066 2509 3481 
Q 2509 2891 2217 2550 
Q 1925 2209 1428 2209 
Q 931 2209 642 2551 
Q 353 2894 353 3481 
Q 353 4063 643 4406 
Q 934 4750 1428 4750 
z
" transform="scale(0.015625)"/>
       <path id="DejaVuSans-43" d="M 4122 4306 
L 4122 3641 
Q 3803 3938 3442 4084 
Q 3081 4231 2675 4231 
Q 1875 4231 1450 3742 
Q 1025 3253 1025 2328 
Q 1025 1406 1450 917 
Q 1875 428 2675 428 
Q 3081 428 3442 575 
Q 3803 722 4122 1019 
L 4122 359 
Q 3791 134 3420 21 
Q 3050 -91 2638 -91 
Q 1578 -91 968 557 
Q 359 1206 359 2328 
Q 359 3453 968 4101 
Q 1578 4750 2638 4750 
Q 3056 4750 3426 4639 
Q 3797 4528 4122 4306 
z
" transform="scale(0.015625)"/>
       <path id="DejaVuSans-49" d="M 628 4666 
L 1259 4666 
L 1259 0 
L 628 0 
L 628 4666 
z
" transform="scale(0.015625)"/>
       <path id="DejaVuSans-29" d="M 513 4856 
L 1013 4856 
Q 1481 4119 1714 3412 
Q 1947 2706 1947 2009 
Q 1947 1309 1714 600 
Q 1481 -109 1013 -844 
L 513 -844 
Q 928 -128 1133 580 
Q 1338 1288 1338 2009 
Q 1338 2731 1133 3434 
Q 928 4138 513 4856 
z
" transform="scale(0.015625)"/>
      </defs>
      <use xlink:href="#DejaVuSans-62"/>
      <use xlink:href="#DejaVuSans-65" x="63.476562"/>
      <use xlink:href="#DejaVuSans-73" x="125"/>
      <use xlink:href="#DejaVuSans-74" x="177.099609"/>
      <use xlink:href="#DejaVuSans-20" x="216.308594"/>
      <use xlink:href="#DejaVuSans-66" x="248.095703"/>
      <use xlink:href="#DejaVuSans-69" x="283.300781"/>
      <use xlink:href="#DejaVuSans-74" x="311.083984"/>
      <use xlink:href="#DejaVuSans-20" x="350.292969"/>
      <use xlink:href="#DejaVuSans-28" x="382.080078"/>
      <use xlink:href="#DejaVuSans-39" x="421.09375"/>
      <use xlink:href="#DejaVuSans-35" x="484.716797"/>
      <use xlink:href="#DejaVuSans-25" x="548.339844"/>
      <use xlink:href="#DejaVuSans-20" x="643.359375"/>
      <use xlink:href="#DejaVuSans-43" x="675.146484"/>
      <use xlink:href="#DejaVuSans-49" x="744.970703"/>
      <use xlink:href="#DejaVuSans-29" x="774.462891"/>
     </g>
    </g>
   </g>
  </g>
  <g id="axes_2">
   <g id="patch_8">
    <path d="M 358.47 210.04 
L 629.28 210.04 
L 629.28 14.76 
L 358.47 14.76 
z
" style="fill: #ffffff"/>
   </g>
   <g id="matplotlib.axis_3">
    <g id="xtick_6">
     <g id="line2d_18">
      <g>
       <use xlink:href="#mf8b51785b3" x="358.47" y="210.04" style="stroke: #000000; stroke-width: 0.8"/>
      </g>
     </g>
     <g id="text_18">
      <!-- 0.0 -->
      <g transform="translate(350.518437 224.638438) scale(0.1 -0.1)">
       <use xlink:href="#DejaVuSans-30"/>
       <use xlink:href="#DejaVuSans-2e" x="63.623047"/>
       <use xlink:href="#DejaVuSans-30" x="95.410156"/>
      </g>
     </g>
    </g>
    <g id="xtick_7">
     <g id="line2d_19">
      <g>
       <use xlink:href="#mf8b51785b3" x="412.632" y="210.04" style="stroke: #000000; stroke-width: 0.8"/>
      </g>
     </g>
     <g id="text_19">
      <!-- 0.2 -->
      <g transform="translate(404.680437 224.638438) scale(0.1 -0.1)">
       <use xlink:href="#DejaVuSans-30"/>
       <use xlink:href="#DejaVuSans-2e" x="63.623047"/>
       <use xlink:href="#DejaVuSans-32" x="95.410156"/>
      </g>
     </g>
    </g>
    <g id="xtick_8">
     <g id="line2d_20">
      <g>
       <use xlink:href="#mf8b51785b3" x="466.794" y="210.04" style="stroke: #000000; stroke-width: 0.8"/>
      </g>
     </g>
     <g id="text_20">
      <!-- 0.4 -->
      <g transform="translate(458.842437 224.638438) scale(0.1 -0.1)">
       <defs>
        <path id="DejaVuSans-34" d="M 2419 4116 
L 825 1625 
L 2419 1625 
L 2419 4116 
z
M 2253 4666 
L 3047 4666 
L 3047 1625 
L 3713 1625 
L 3713 1100 
L 3047 1100 
L 3047 0 
L 2419 0 
L 2419 1100 
L 313 1100 
L 313 1709 
L 2253 4666 
z
" transform="scale(0.015625)"/>
       </defs>
       <use xlink:href="#DejaVuSans-30"/>
       <use xlink:href="#DejaVuSans-2e" x="63.623047"/>
       <use xlink:href="#DejaVuSans-34" x="95.410156"/>
      </g>
     </g>
    </g>
    <g id="xtick_9">
     <g id="line2d_21">
      <g>
       <use xlink:href="#mf8b51785b3" x="520.956" y="210.04" style="stroke: #000000; stroke-width: 0.8"/>
      </g>
     </g>
     <g id="text_21">
      <!-- 0.6 -->
      <g transform="translate(513.004437 224.638438) scale(0.1 -0.1)">
       <defs>
        <path id="DejaVuSans-36" d="M 2113 2584 
Q 1688 2584 1439 2293 
Q 1191 2003 1191 1497 
Q 1191 994 1439 701 
Q 1688 409 2113 409 
Q 2538 409 2786 701 
Q 3034 994 3034 1497 
Q 3034 2003 2786 2293 
Q 2538 2584 2113 2584 
z
M 3366 4563 
L 3366 3988 
Q 3128 4100 2886 4159 
Q 2644 4219 2406 4219 
Q 1781 4219 1451 3797 
Q 1122 3375 1075 2522 
Q 1259 2794 1537 2939 
Q 1816 3084 2150 3084 
Q 2853 3084 3261 2657 
Q 3669 2231 3669 1497 
Q 3669 778 3244 343 
Q 2819 -91 2113 -91 
Q 1303 -91 875 529 
Q 447 1150 447 2328 
Q 447 3434 972 4092 
Q 1497 4750 2381 4750 
Q 2619 4750 2861 4703 
Q 3103 4656 3366 4563 
z
" transform="scale(0.015625)"/>
       </defs>
       <use xlink:href="#DejaVuSans-30"/>
       <use xlink:href="#DejaVuSans-2e" x="63.623047"/>
       <use xlink:href="#DejaVuSans-36" x="95.410156"/>
      </g>
     </g>
    </g>
    <g id="xtick_10">
     <g id="line2d_22">
      <g>
       <use xlink:href="#mf8b51785b3" x="575.118" y="210.04" style="stroke: #000000; stroke-width: 0.8"/>
      </g>
     </g>
     <g id="text_22">
      <!-- 0.8 -->
      <g transform="translate(567.166437 224.638438) scale(0.1 -0.1)">
       <defs>
        <path id="DejaVuSans-38" d="M 2034 2216 
Q 1584 2216 1326 1975 
Q 1069 1734 1069 1313 
Q 1069 891 1326 650 
Q 1584 409 2034 409 
Q 2484 409 2743 651 
Q 3003 894 3003 1313 
Q 3003 1734 2745 1975 
Q 2488 2216 2034 2216 
z
M 1403 2484 
Q 997 2584 770 2862 
Q 544 3141 544 3541 
Q 544 4100 942 4425 
Q 1341 4750 2034 4750 
Q 2731 4750 3128 4425 
Q 3525 4100 3525 3541 
Q 3525 3141 3298 2862 
Q 3072 2584 2669 2484 
Q 3125 2378 3379 2068 
Q 3634 1759 3634 1313 
Q 3634 634 3220 271 
Q 2806 -91 2034 -91 
Q 1263 -91 848 271 
Q 434 634 434 1313 
Q 434 1759 690 2068 
Q 947 2378 1403 2484 
z
M 1172 3481 
Q 1172 3119 1398 2916 
Q 1625 2713 2034 2713 
Q 2441 2713 2670 2916 
Q 2900 3119 2900 3481 
Q 2900 3844 2670 4047 
Q 2441 4250 2034 4250 
Q 1625 4250 1398 4047 
Q 1172 3844 1172 3481 
z
" transform="scale(0.015625)"/>
       </defs>
       <use xlink:href="#DejaVuSans-30"/>
       <use xlink:href="#DejaVuSans-2e" x="63.623047"/>
       <use xlink:href="#DejaVuSans-38" x="95.410156"/>
      </g>
     </g>
    </g>
    <g id="xtick_11">
     <g id="line2d_23">
      <g>
       <use xlink:href="#mf8b51785b3" x="629.28" y="210.04" style="stroke: #000000; stroke-width: 0.8"/>
      </g>
     </g>
     <g id="text_23">
      <!-- 1.0 -->
      <g transform="translate(621.328437 224.638438) scale(0.1 -0.1)">
       <use xlink:href="#DejaVuSans-31"/>
       <use xlink:href="#DejaVuSans-2e" x="63.623047"/>
       <use xlink:href="#DejaVuSans-30" x="95.410156"/>
      </g>
     </g>
    </g>
   </g>
   <g id="matplotlib.axis_4">
    <g id="ytick_9">
     <g id="line2d_24">
      <g>
       <use xlink:href="#m556c174b8b" x="358.47" y="210.04" style="stroke: #000000; stroke-width: 0.8"/>
      </g>
     </g>
     <g id="text_24">
      <!-- 0.0 -->
      <g transform="translate(335.566875 213.839219) scale(0.1 -0.1)">
       <use xlink:href="#DejaVuSans-30"/>
       <use xlink:href="#DejaVuSans-2e" x="63.623047"/>
       <use xlink:href="#DejaVuSans-30" x="95.410156"/>
      </g>
     </g>
    </g>
    <g id="ytick_10">
     <g id="line2d_25">
      <g>
       <use xlink:href="#m556c174b8b" x="358.47" y="170.984" style="stroke: #000000; stroke-width: 0.8"/>
      </g>
     </g>
     <g id="text_25">
      <!-- 0.2 -->
      <g transform="translate(335.566875 174.783219) scale(0.1 -0.1)">
       <use xlink:href="#DejaVuSans-30"/>
       <use xlink:href="#DejaVuSans-2e" x="63.623047"/>
       <use xlink:href="#DejaVuSans-32" x="95.410156"/>
      </g>
     </g>
    </g>
    <g id="ytick_11">
     <g id="line2d_26">
      <g>
       <use xlink:href="#m556c174b8b" x="358.47" y="131.928" style="stroke: #000000; stroke-width: 0.8"/>
      </g>
     </g>
     <g id="text_26">
      <!-- 0.4 -->
      <g transform="translate(335.566875 135.727219) scale(0.1 -0.1)">
       <use xlink:href="#DejaVuSans-30"/>
       <use xlink:href="#DejaVuSans-2e" x="63.623047"/>
       <use xlink:href="#DejaVuSans-34" x="95.410156"/>
      </g>
     </g>
    </g>
    <g id="ytick_12">
     <g id="line2d_27">
      <g>
       <use xlink:href="#m556c174b8b" x="358.47" y="92.872" style="stroke: #000000; stroke-width: 0.8"/>
      </g>
     </g>
     <g id="text_27">
      <!-- 0.6 -->
      <g transform="translate(335.566875 96.671219) scale(0.1 -0.1)">
       <use xlink:href="#DejaVuSans-30"/>
       <use xlink:href="#DejaVuSans-2e" x="63.623047"/>
       <use xlink:href="#DejaVuSans-36" x="95.410156"/>
      </g>
     </g>
    </g>
    <g id="ytick_13">
     <g id="line2d_28">
      <g>
       <use xlink:href="#m556c174b8b" x="358.47" y="53.816" style="stroke: #000000; stroke-width: 0.8"/>
      </g>
     </g>
     <g id="text_28">
      <!-- 0.8 -->
      <g transform="translate(335.566875 57.615219) scale(0.1 -0.1)">
       <use xlink:href="#DejaVuSans-30"/>
       <use xlink:href="#DejaVuSans-2e" x="63.623047"/>
       <use xlink:href="#DejaVuSans-38" x="95.410156"/>
      </g>
     </g>
    </g>
    <g id="ytick_14">
     <g id="line2d_29">
      <g>
       <use xlink:href="#m556c174b8b" x="358.47" y="14.76" style="stroke: #000000; stroke-width: 0.8"/>
      </g>
     </g>
     <g id="text_29">
      <!-- 1.0 -->
      <g transform="translate(335.566875 18.559219) scale(0.1 -0.1)">
       <use xlink:href="#DejaVuSans-31"/>
       <use xlink:href="#DejaVuSans-2e" x="63.623047"/>
       <use xlink:href="#DejaVuSans-30" x="95.410156"/>
      </g>
     </g>
    </g>
   </g>
   <g id="patch_9">
    <path d="M 358.47 210.04 
L 358.47 14.76 
" style="fill: none; stroke: #000000; stroke-width: 0.8; stroke-linejoin: miter; stroke-linecap: square"/>
   </g>
   <g id="patch_10">
    <path d="M 629.28 210.04 
L 629.28 14.76 
" style="fill: none; stroke: #000000; stroke-width: 0.8; stroke-linejoin: miter; stroke-linecap: square"/>
   </g>
   <g id="patch_11">
    <path d="M 358.47 210.04 
L 629.28 210.04 
" style="fill: none; stroke: #000000; stroke-width: 0.8; stroke-linejoin: miter; stroke-linecap: square"/>
   </g>
   <g id="patch_12">
    <path d="M 358.47 14.76 
L 629.28 14.76 
" style="fill: none; stroke: #000000; stroke-width: 0.8; stroke-linejoin: miter; stroke-linecap: square"/>
   </g>
  </g>
 </g>
 <defs>
  <clipPath id="pc82bf7038d">
   <rect x="54.02" y="14.76" width="270.81" height="195.28"/>
  </clipPath>
 </defs>
</svg>
