<?xml version="1.0" encoding="utf-8" standalone="no"?>
<!DOCTYPE svg PUBLIC "-//W3C//DTD SVG 1.1//EN"
  "http://www.w3.org/Graphics/SVG/1.1/DTD/svg11.dtd">
<svg xmlns:xlink="http://www.w3.org/1999/xlink" width="648pt" height="252pt" viewBox="0 0 648 252" xmlns="http://www.w3.org/2000/svg" version="1.1">
 <metadata>
  <rdf:RDF xmlns:dc="http://purl.org/dc/elements/1.1/" xmlns:cc="http://creativecommons.org/ns#" xmlns:rdf="http://www.w3.org/1999/02/22-rdf-syntax-ns#">
   <cc:Work>
    <dc:type rdf:resource="http://purl.org/dc/dcmitype/StillImage"/>
    <dc:date>2023-12-05T09:43:12.593264</dc:date>
    <dc:format>image/svg+xml</dc:format>
    <dc:creator>
     <cc:Agent>
      <dc:title>Matplotlib v3.8.1, https://matplotlib.org/</dc:title>
     </cc:Agent>
    </dc:creator>
   </cc:Work>
  </rdf:RDF>
 </metadata>
 <defs>
  <style type="text/css">*{stroke-linejoin: round; stroke-linecap: butt}</style>
 </defs>
 <g id="figure_1">
  <g id="patch_1">
   <path d="M 0 252 
L 648 252 
L 648 0 
L 0 0 
z
" style="fill: #ffffff"/>
  </g>
  <g id="axes_1">
   <g id="patch_2">
    <path d="M 54.02 210.04 
L 324.83 210.04 
L 324.83 14.76 
L 54.02 14.76 
z
" style="fill: #ffffff"/>
   </g>
   <g id="PolyCollection_1">
    <defs>
     <path id="mbe677d6597" d="M 66.329545 -50.836364 
L 66.329545 -50.836364 
L 67.5605 -51.595903 
L 68.791455 -52.354726 
L 70.022409 -53.112831 
L 71.253364 -53.870222 
L 72.484318 -54.626898 
L 73.715273 -55.382861 
L 74.946227 -56.138111 
L 76.177182 -56.894637 
L 77.408136 -57.65188 
L 78.639091 -58.409159 
L 79.870045 -59.166439 
L 81.101 -59.923718 
L 82.331955 -60.680998 
L 83.562909 -61.438277 
L 84.793864 -62.195557 
L 86.024818 -62.952836 
L 87.255773 -63.710116 
L 88.486727 -64.467395 
L 89.717682 -65.224675 
L 90.948636 -65.977364 
L 92.179591 -66.731512 
L 93.410545 -67.487876 
L 94.6415 -68.237399 
L 95.872455 -68.984247 
L 97.103409 -69.730296 
L 98.334364 -70.475547 
L 99.565318 -71.220002 
L 100.796273 -71.963661 
L 102.027227 -72.706799 
L 103.258182 -73.44962 
L 104.489136 -74.191698 
L 105.720091 -74.933034 
L 106.951045 -75.677927 
L 108.182 -76.430029 
L 109.412955 -77.173862 
L 110.643909 -77.912763 
L 111.874864 -78.650922 
L 113.105818 -79.388341 
L 114.336773 -80.11821 
L 115.567727 -80.838986 
L 116.798682 -81.588041 
L 118.029636 -82.330713 
L 119.260591 -83.065108 
L 120.491545 -83.798799 
L 121.7225 -84.530314 
L 122.953455 -85.261823 
L 124.184409 -85.993561 
L 125.415364 -86.73062 
L 126.646318 -87.477506 
L 127.877273 -88.224355 
L 129.108227 -88.971168 
L 130.339182 -89.711027 
L 131.570136 -90.437441 
L 132.801091 -91.163079 
L 134.032045 -91.887942 
L 135.263 -92.609065 
L 136.493955 -93.323511 
L 137.724909 -94.036899 
L 138.955864 -94.749625 
L 140.186818 -95.462017 
L 141.417773 -96.18645 
L 142.648727 -96.879927 
L 143.879682 -97.594223 
L 145.110636 -98.331451 
L 146.341591 -99.026252 
L 147.572545 -99.743883 
L 148.8035 -100.479483 
L 150.034455 -101.217819 
L 151.265409 -101.955362 
L 152.496364 -102.669121 
L 153.727318 -103.382384 
L 154.958273 -104.094909 
L 156.189227 -104.790871 
L 157.420182 -105.517752 
L 158.651136 -106.240542 
L 159.882091 -106.964764 
L 161.113045 -107.679383 
L 162.344 -108.371881 
L 163.574955 -109.062125 
L 164.805909 -109.789832 
L 166.036864 -110.515651 
L 167.267818 -111.181101 
L 168.498773 -111.899897 
L 169.729727 -112.619024 
L 170.960682 -113.328397 
L 172.191636 -114.056155 
L 173.422591 -114.774282 
L 174.653545 -115.490389 
L 175.8845 -116.196363 
L 177.115455 -116.902526 
L 178.346409 -117.619536 
L 179.577364 -118.321404 
L 180.808318 -119.050344 
L 182.039273 -119.759369 
L 183.270227 -120.467584 
L 184.501182 -121.171429 
L 185.732136 -121.847694 
L 186.963091 -122.5478 
L 188.194045 -123.276566 
L 189.425 -123.96961 
L 190.655955 -124.649645 
L 191.886909 -125.328737 
L 193.117864 -125.969847 
L 194.348818 -126.665722 
L 195.579773 -127.353257 
L 196.810727 -128.000371 
L 198.041682 -128.613829 
L 199.272636 -129.246279 
L 200.503591 -129.91064 
L 201.734545 -130.593822 
L 202.9655 -131.279111 
L 204.196455 -131.984073 
L 205.427409 -132.6385 
L 206.658364 -133.317582 
L 207.889318 -133.997357 
L 209.120273 -134.61969 
L 210.351227 -135.270419 
L 211.582182 -135.918948 
L 212.813136 -136.504153 
L 214.044091 -137.079551 
L 215.275045 -137.695753 
L 216.506 -138.302085 
L 217.736955 -138.871286 
L 218.967909 -139.446868 
L 220.198864 -140.092879 
L 221.429818 -140.662061 
L 222.660773 -141.309845 
L 223.891727 -141.961808 
L 225.122682 -142.611241 
L 226.353636 -143.256633 
L 227.584591 -143.868763 
L 228.815545 -144.401869 
L 230.0465 -144.866162 
L 231.277455 -145.352301 
L 232.508409 -145.864651 
L 233.739364 -146.316665 
L 234.970318 -146.878126 
L 236.201273 -147.353434 
L 237.432227 -147.860741 
L 238.663182 -148.516139 
L 239.894136 -149.041404 
L 241.125091 -149.466462 
L 242.356045 -149.975099 
L 243.587 -150.517774 
L 244.817955 -150.979462 
L 246.048909 -151.435836 
L 247.279864 -151.81032 
L 248.510818 -152.410372 
L 249.741773 -152.817974 
L 250.972727 -153.314531 
L 252.203682 -153.74957 
L 253.434636 -154.126351 
L 254.665591 -154.668219 
L 255.896545 -155.133912 
L 257.1275 -155.565152 
L 258.358455 -156.005518 
L 259.589409 -156.469233 
L 260.820364 -156.862422 
L 262.051318 -157.286266 
L 263.282273 -157.648156 
L 264.513227 -158.108337 
L 265.744182 -158.554977 
L 266.975136 -158.969059 
L 268.206091 -159.326138 
L 269.437045 -159.797831 
L 270.668 -160.129675 
L 271.898955 -160.391452 
L 273.129909 -160.655076 
L 274.360864 -161.053432 
L 275.591818 -161.44065 
L 276.822773 -161.82684 
L 278.053727 -162.254994 
L 279.284682 -162.648611 
L 280.515636 -163.06035 
L 281.746591 -163.46408 
L 282.977545 -163.822407 
L 284.2085 -164.2524 
L 285.439455 -164.591205 
L 286.670409 -164.928222 
L 287.901364 -165.263463 
L 289.132318 -165.596944 
L 290.363273 -165.886094 
L 291.594227 -166.17351 
L 292.825182 -166.585706 
L 294.056136 -166.91789 
L 295.287091 -167.242888 
L 296.518045 -167.534934 
L 297.749 -167.810239 
L 298.979955 -168.081305 
L 300.210909 -168.351297 
L 301.441864 -168.62106 
L 302.672818 -168.921109 
L 303.903773 -169.199961 
L 305.134727 -169.464763 
L 306.365682 -169.728019 
L 307.596636 -169.984847 
L 308.827591 -170.213393 
L 310.058545 -170.455284 
L 311.2895 -170.765842 
L 311.2895 -201.479886 
L 311.2895 -201.479886 
L 310.058545 -200.7835 
L 308.827591 -200.119499 
L 307.596636 -199.417874 
L 306.365682 -198.711319 
L 305.134727 -198.022187 
L 303.903773 -197.392182 
L 302.672818 -196.76107 
L 301.441864 -196.127709 
L 300.210909 -195.554338 
L 298.979955 -194.880905 
L 297.749 -194.224757 
L 296.518045 -193.58878 
L 295.287091 -193.0509 
L 294.056136 -192.408958 
L 292.825182 -191.754863 
L 291.594227 -191.128986 
L 290.363273 -190.444916 
L 289.132318 -189.782483 
L 287.901364 -189.133615 
L 286.670409 -188.475915 
L 285.439455 -187.822298 
L 284.2085 -187.198865 
L 282.977545 -186.502719 
L 281.746591 -185.839688 
L 280.515636 -185.12723 
L 279.284682 -184.425095 
L 278.053727 -183.782833 
L 276.822773 -183.158736 
L 275.591818 -182.529219 
L 274.360864 -181.938559 
L 273.129909 -181.350834 
L 271.898955 -180.734731 
L 270.668 -180.082167 
L 269.437045 -179.434469 
L 268.206091 -178.86914 
L 266.975136 -178.248331 
L 265.744182 -177.695373 
L 264.513227 -177.103544 
L 263.282273 -176.413894 
L 262.051318 -175.777231 
L 260.820364 -175.227131 
L 259.589409 -174.655919 
L 258.358455 -174.065676 
L 257.1275 -173.486079 
L 255.896545 -172.902053 
L 254.665591 -172.309947 
L 253.434636 -171.659047 
L 252.203682 -171.022458 
L 250.972727 -170.408565 
L 249.741773 -169.735799 
L 248.510818 -169.07971 
L 247.279864 -168.559692 
L 246.048909 -167.940708 
L 244.817955 -167.31916 
L 243.587 -166.719854 
L 242.356045 -166.177223 
L 241.125091 -165.638607 
L 239.894136 -165.13179 
L 238.663182 -164.518546 
L 237.432227 -164.019968 
L 236.201273 -163.413626 
L 234.970318 -162.730681 
L 233.739364 -162.112659 
L 232.508409 -161.583776 
L 231.277455 -160.971314 
L 230.0465 -160.525312 
L 228.815545 -159.827921 
L 227.584591 -159.148606 
L 226.353636 -158.64778 
L 225.122682 -158.106498 
L 223.891727 -157.639639 
L 222.660773 -157.143905 
L 221.429818 -156.529401 
L 220.198864 -155.997349 
L 218.967909 -155.480328 
L 217.736955 -154.969789 
L 216.506 -154.369466 
L 215.275045 -153.878883 
L 214.044091 -153.398705 
L 212.813136 -152.697103 
L 211.582182 -152.099056 
L 210.351227 -151.582164 
L 209.120273 -151.005479 
L 207.889318 -150.606452 
L 206.658364 -150.124119 
L 205.427409 -149.471035 
L 204.196455 -148.919095 
L 202.9655 -148.311247 
L 201.734545 -147.700252 
L 200.503591 -147.084142 
L 199.272636 -146.502792 
L 198.041682 -145.868101 
L 196.810727 -145.238921 
L 195.579773 -144.644995 
L 194.348818 -143.969638 
L 193.117864 -143.337617 
L 191.886909 -142.766233 
L 190.655955 -142.219916 
L 189.425 -141.599503 
L 188.194045 -140.943358 
L 186.963091 -140.320939 
L 185.732136 -139.634119 
L 184.501182 -139.124543 
L 183.270227 -138.610148 
L 182.039273 -138.087317 
L 180.808318 -137.559643 
L 179.577364 -136.889218 
L 178.346409 -136.3362 
L 177.115455 -135.705149 
L 175.8845 -135.074254 
L 174.653545 -134.485831 
L 173.422591 -133.869042 
L 172.191636 -133.190591 
L 170.960682 -132.646388 
L 169.729727 -132.05628 
L 168.498773 -131.468998 
L 167.267818 -130.79619 
L 166.036864 -130.112117 
L 164.805909 -129.416526 
L 163.574955 -128.732764 
L 162.344 -128.091145 
L 161.113045 -127.460326 
L 159.882091 -126.774455 
L 158.651136 -126.03797 
L 157.420182 -125.367647 
L 156.189227 -124.650632 
L 154.958273 -123.914706 
L 153.727318 -123.259353 
L 152.496364 -122.595633 
L 151.265409 -121.892276 
L 150.034455 -121.18192 
L 148.8035 -120.500185 
L 147.572545 -119.740951 
L 146.341591 -119.008797 
L 145.110636 -118.268783 
L 143.879682 -117.521929 
L 142.648727 -116.768141 
L 141.417773 -116.00732 
L 140.186818 -115.280871 
L 138.955864 -114.56383 
L 137.724909 -113.820404 
L 136.493955 -112.985695 
L 135.263 -112.274006 
L 134.032045 -111.553007 
L 132.801091 -110.764549 
L 131.570136 -109.921199 
L 130.339182 -109.070175 
L 129.108227 -108.211371 
L 127.877273 -107.349081 
L 126.646318 -106.538007 
L 125.415364 -105.709525 
L 124.184409 -104.837214 
L 122.953455 -103.964414 
L 121.7225 -103.152976 
L 120.491545 -102.330742 
L 119.260591 -101.480875 
L 118.029636 -100.598391 
L 116.798682 -99.662178 
L 115.567727 -98.706087 
L 114.336773 -97.756769 
L 113.105818 -96.799756 
L 111.874864 -95.864425 
L 110.643909 -94.91756 
L 109.412955 -93.958947 
L 108.182 -92.986652 
L 106.951045 -91.999924 
L 105.720091 -91.000929 
L 104.489136 -89.928982 
L 103.258182 -88.88385 
L 102.027227 -87.884266 
L 100.796273 -86.869974 
L 99.565318 -85.830449 
L 98.334364 -84.746627 
L 97.103409 -83.579894 
L 95.872455 -82.403296 
L 94.6415 -81.216708 
L 93.410545 -80.019999 
L 92.179591 -78.883169 
L 90.948636 -77.747382 
L 89.717682 -76.594446 
L 88.486727 -75.424012 
L 87.255773 -74.235679 
L 86.024818 -73.029031 
L 84.793864 -71.798196 
L 83.562909 -70.518656 
L 82.331955 -69.220601 
L 81.101 -67.905794 
L 79.870045 -66.578657 
L 78.639091 -65.243683 
L 77.408136 -63.884644 
L 76.177182 -62.508374 
L 74.946227 -61.114543 
L 73.715273 -59.702812 
L 72.484318 -58.277028 
L 71.253364 -56.832471 
L 70.022409 -55.366609 
L 68.791455 -53.878965 
L 67.5605 -52.369052 
L 66.329545 -50.836364 
z
" style="stroke: #ef553b; stroke-opacity: 0.3"/>
    </defs>
    <g clip-path="url(#p1d345c562d)">
     <use xlink:href="#mbe677d6597" x="0" y="252" style="fill: #ef553b; fill-opacity: 0.3; stroke: #ef553b; stroke-opacity: 0.3"/>
    </g>
   </g>
   <g id="matplotlib.axis_1">
    <g id="xtick_1">
     <g id="line2d_1">
      <defs>
       <path id="m4ee7084329" d="M 0 0 
L 0 3.5 
" style="stroke: #000000; stroke-width: 0.8"/>
      </defs>
      <g>
       <use xlink:href="#m4ee7084329" x="66.329545" y="210.04" style="stroke: #000000; stroke-width: 0.8"/>
      </g>
     </g>
     <g id="text_1">
      <!-- 0 -->
      <g transform="translate(63.148295 224.638438) scale(0.1 -0.1)">
       <defs>
        <path id="DejaVuSans-30" d="M 2034 4250 
Q 1547 4250 1301 3770 
Q 1056 3291 1056 2328 
Q 1056 1369 1301 889 
Q 1547 409 2034 409 
Q 2525 409 2770 889 
Q 3016 1369 3016 2328 
Q 3016 3291 2770 3770 
Q 2525 4250 2034 4250 
z
M 2034 4750 
Q 2819 4750 3233 4129 
Q 3647 3509 3647 2328 
Q 3647 1150 3233 529 
Q 2819 -91 2034 -91 
Q 1250 -91 836 529 
Q 422 1150 422 2328 
Q 422 3509 836 4129 
Q 1250 4750 2034 4750 
z
" transform="scale(0.015625)"/>
       </defs>
       <use xlink:href="#DejaVuSans-30"/>
      </g>
     </g>
    </g>
    <g id="xtick_2">
     <g id="line2d_2">
      <g>
       <use xlink:href="#m4ee7084329" x="123.558288" y="210.04" style="stroke: #000000; stroke-width: 0.8"/>
      </g>
     </g>
     <g id="text_2">
      <!-- 500 -->
      <g transform="translate(114.014538 224.638438) scale(0.1 -0.1)">
       <defs>
        <path id="DejaVuSans-35" d="M 691 4666 
L 3169 4666 
L 3169 4134 
L 1269 4134 
L 1269 2991 
Q 1406 3038 1543 3061 
Q 1681 3084 1819 3084 
Q 2600 3084 3056 2656 
Q 3513 2228 3513 1497 
Q 3513 744 3044 326 
Q 2575 -91 1722 -91 
Q 1428 -91 1123 -41 
Q 819 9 494 109 
L 494 744 
Q 775 591 1075 516 
Q 1375 441 1709 441 
Q 2250 441 2565 725 
Q 2881 1009 2881 1497 
Q 2881 1984 2565 2268 
Q 2250 2553 1709 2553 
Q 1456 2553 1204 2497 
Q 953 2441 691 2322 
L 691 4666 
z
" transform="scale(0.015625)"/>
       </defs>
       <use xlink:href="#DejaVuSans-35"/>
       <use xlink:href="#DejaVuSans-30" x="63.623047"/>
       <use xlink:href="#DejaVuSans-30" x="127.246094"/>
      </g>
     </g>
    </g>
    <g id="xtick_3">
     <g id="line2d_3">
      <g>
       <use xlink:href="#m4ee7084329" x="180.787031" y="210.04" style="stroke: #000000; stroke-width: 0.8"/>
      </g>
     </g>
     <g id="text_3">
      <!-- 1000 -->
      <g transform="translate(168.062031 224.638438) scale(0.1 -0.1)">
       <defs>
        <path id="DejaVuSans-31" d="M 794 531 
L 1825 531 
L 1825 4091 
L 703 3866 
L 703 4441 
L 1819 4666 
L 2450 4666 
L 2450 531 
L 3481 531 
L 3481 0 
L 794 0 
L 794 531 
z
" transform="scale(0.015625)"/>
       </defs>
       <use xlink:href="#DejaVuSans-31"/>
       <use xlink:href="#DejaVuSans-30" x="63.623047"/>
       <use xlink:href="#DejaVuSans-30" x="127.246094"/>
       <use xlink:href="#DejaVuSans-30" x="190.869141"/>
      </g>
     </g>
    </g>
    <g id="xtick_4">
     <g id="line2d_4">
      <g>
       <use xlink:href="#m4ee7084329" x="238.015774" y="210.04" style="stroke: #000000; stroke-width: 0.8"/>
      </g>
     </g>
     <g id="text_4">
      <!-- 1500 -->
      <g transform="translate(225.290774 224.638438) scale(0.1 -0.1)">
       <use xlink:href="#DejaVuSans-31"/>
       <use xlink:href="#DejaVuSans-35" x="63.623047"/>
       <use xlink:href="#DejaVuSans-30" x="127.246094"/>
       <use xlink:href="#DejaVuSans-30" x="190.869141"/>
      </g>
     </g>
    </g>
    <g id="xtick_5">
     <g id="line2d_5">
      <g>
       <use xlink:href="#m4ee7084329" x="295.244517" y="210.04" style="stroke: #000000; stroke-width: 0.8"/>
      </g>
     </g>
     <g id="text_5">
      <!-- 2000 -->
      <g transform="translate(282.519517 224.638438) scale(0.1 -0.1)">
       <defs>
        <path id="DejaVuSans-32" d="M 1228 531 
L 3431 531 
L 3431 0 
L 469 0 
L 469 531 
Q 828 903 1448 1529 
Q 2069 2156 2228 2338 
Q 2531 2678 2651 2914 
Q 2772 3150 2772 3378 
Q 2772 3750 2511 3984 
Q 2250 4219 1831 4219 
Q 1534 4219 1204 4116 
Q 875 4013 500 3803 
L 500 4441 
Q 881 4594 1212 4672 
Q 1544 4750 1819 4750 
Q 2544 4750 2975 4387 
Q 3406 4025 3406 3419 
Q 3406 3131 3298 2873 
Q 3191 2616 2906 2266 
Q 2828 2175 2409 1742 
Q 1991 1309 1228 531 
z
" transform="scale(0.015625)"/>
       </defs>
       <use xlink:href="#DejaVuSans-32"/>
       <use xlink:href="#DejaVuSans-30" x="63.623047"/>
       <use xlink:href="#DejaVuSans-30" x="127.246094"/>
       <use xlink:href="#DejaVuSans-30" x="190.869141"/>
      </g>
     </g>
    </g>
    <g id="text_6">
     <!-- concentration -->
     <g transform="translate(154.796094 238.316563) scale(0.1 -0.1)">
      <defs>
       <path id="DejaVuSans-63" d="M 3122 3366 
L 3122 2828 
Q 2878 2963 2633 3030 
Q 2388 3097 2138 3097 
Q 1578 3097 1268 2742 
Q 959 2388 959 1747 
Q 959 1106 1268 751 
Q 1578 397 2138 397 
Q 2388 397 2633 464 
Q 2878 531 3122 666 
L 3122 134 
Q 2881 22 2623 -34 
Q 2366 -91 2075 -91 
Q 1284 -91 818 406 
Q 353 903 353 1747 
Q 353 2603 823 3093 
Q 1294 3584 2113 3584 
Q 2378 3584 2631 3529 
Q 2884 3475 3122 3366 
z
" transform="scale(0.015625)"/>
       <path id="DejaVuSans-6f" d="M 1959 3097 
Q 1497 3097 1228 2736 
Q 959 2375 959 1747 
Q 959 1119 1226 758 
Q 1494 397 1959 397 
Q 2419 397 2687 759 
Q 2956 1122 2956 1747 
Q 2956 2369 2687 2733 
Q 2419 3097 1959 3097 
z
M 1959 3584 
Q 2709 3584 3137 3096 
Q 3566 2609 3566 1747 
Q 3566 888 3137 398 
Q 2709 -91 1959 -91 
Q 1206 -91 779 398 
Q 353 888 353 1747 
Q 353 2609 779 3096 
Q 1206 3584 1959 3584 
z
" transform="scale(0.015625)"/>
       <path id="DejaVuSans-6e" d="M 3513 2113 
L 3513 0 
L 2938 0 
L 2938 2094 
Q 2938 2591 2744 2837 
Q 2550 3084 2163 3084 
Q 1697 3084 1428 2787 
Q 1159 2491 1159 1978 
L 1159 0 
L 581 0 
L 581 3500 
L 1159 3500 
L 1159 2956 
Q 1366 3272 1645 3428 
Q 1925 3584 2291 3584 
Q 2894 3584 3203 3211 
Q 3513 2838 3513 2113 
z
" transform="scale(0.015625)"/>
       <path id="DejaVuSans-65" d="M 3597 1894 
L 3597 1613 
L 953 1613 
Q 991 1019 1311 708 
Q 1631 397 2203 397 
Q 2534 397 2845 478 
Q 3156 559 3463 722 
L 3463 178 
Q 3153 47 2828 -22 
Q 2503 -91 2169 -91 
Q 1331 -91 842 396 
Q 353 884 353 1716 
Q 353 2575 817 3079 
Q 1281 3584 2069 3584 
Q 2775 3584 3186 3129 
Q 3597 2675 3597 1894 
z
M 3022 2063 
Q 3016 2534 2758 2815 
Q 2500 3097 2075 3097 
Q 1594 3097 1305 2825 
Q 1016 2553 972 2059 
L 3022 2063 
z
" transform="scale(0.015625)"/>
       <path id="DejaVuSans-74" d="M 1172 4494 
L 1172 3500 
L 2356 3500 
L 2356 3053 
L 1172 3053 
L 1172 1153 
Q 1172 725 1289 603 
Q 1406 481 1766 481 
L 2356 481 
L 2356 0 
L 1766 0 
Q 1100 0 847 248 
Q 594 497 594 1153 
L 594 3053 
L 172 3053 
L 172 3500 
L 594 3500 
L 594 4494 
L 1172 4494 
z
" transform="scale(0.015625)"/>
       <path id="DejaVuSans-72" d="M 2631 2963 
Q 2534 3019 2420 3045 
Q 2306 3072 2169 3072 
Q 1681 3072 1420 2755 
Q 1159 2438 1159 1844 
L 1159 0 
L 581 0 
L 581 3500 
L 1159 3500 
L 1159 2956 
Q 1341 3275 1631 3429 
Q 1922 3584 2338 3584 
Q 2397 3584 2469 3576 
Q 2541 3569 2628 3553 
L 2631 2963 
z
" transform="scale(0.015625)"/>
       <path id="DejaVuSans-61" d="M 2194 1759 
Q 1497 1759 1228 1600 
Q 959 1441 959 1056 
Q 959 750 1161 570 
Q 1363 391 1709 391 
Q 2188 391 2477 730 
Q 2766 1069 2766 1631 
L 2766 1759 
L 2194 1759 
z
M 3341 1997 
L 3341 0 
L 2766 0 
L 2766 531 
Q 2569 213 2275 61 
Q 1981 -91 1556 -91 
Q 1019 -91 701 211 
Q 384 513 384 1019 
Q 384 1609 779 1909 
Q 1175 2209 1959 2209 
L 2766 2209 
L 2766 2266 
Q 2766 2663 2505 2880 
Q 2244 3097 1772 3097 
Q 1472 3097 1187 3025 
Q 903 2953 641 2809 
L 641 3341 
Q 956 3463 1253 3523 
Q 1550 3584 1831 3584 
Q 2591 3584 2966 3190 
Q 3341 2797 3341 1997 
z
" transform="scale(0.015625)"/>
       <path id="DejaVuSans-69" d="M 603 3500 
L 1178 3500 
L 1178 0 
L 603 0 
L 603 3500 
z
M 603 4863 
L 1178 4863 
L 1178 4134 
L 603 4134 
L 603 4863 
z
" transform="scale(0.015625)"/>
      </defs>
      <use xlink:href="#DejaVuSans-63"/>
      <use xlink:href="#DejaVuSans-6f" x="54.980469"/>
      <use xlink:href="#DejaVuSans-6e" x="116.162109"/>
      <use xlink:href="#DejaVuSans-63" x="179.541016"/>
      <use xlink:href="#DejaVuSans-65" x="234.521484"/>
      <use xlink:href="#DejaVuSans-6e" x="296.044922"/>
      <use xlink:href="#DejaVuSans-74" x="359.423828"/>
      <use xlink:href="#DejaVuSans-72" x="398.632812"/>
      <use xlink:href="#DejaVuSans-61" x="439.746094"/>
      <use xlink:href="#DejaVuSans-74" x="501.025391"/>
      <use xlink:href="#DejaVuSans-69" x="540.234375"/>
      <use xlink:href="#DejaVuSans-6f" x="568.017578"/>
      <use xlink:href="#DejaVuSans-6e" x="629.199219"/>
     </g>
    </g>
   </g>
   <g id="matplotlib.axis_2">
    <g id="ytick_1">
     <g id="line2d_6">
      <defs>
       <path id="mfa6cdf61fc" d="M 0 0 
L -3.5 0 
" style="stroke: #000000; stroke-width: 0.8"/>
      </defs>
      <g>
       <use xlink:href="#mfa6cdf61fc" x="54.02" y="201.163636" style="stroke: #000000; stroke-width: 0.8"/>
      </g>
     </g>
     <g id="text_7">
      <!-- 0.0 -->
      <g transform="translate(31.116875 204.962855) scale(0.1 -0.1)">
       <defs>
        <path id="DejaVuSans-2e" d="M 684 794 
L 1344 794 
L 1344 0 
L 684 0 
L 684 794 
z
" transform="scale(0.015625)"/>
       </defs>
       <use xlink:href="#DejaVuSans-30"/>
       <use xlink:href="#DejaVuSans-2e" x="63.623047"/>
       <use xlink:href="#DejaVuSans-30" x="95.410156"/>
      </g>
     </g>
    </g>
    <g id="ytick_2">
     <g id="line2d_7">
      <g>
       <use xlink:href="#mfa6cdf61fc" x="54.02" y="175.098759" style="stroke: #000000; stroke-width: 0.8"/>
      </g>
     </g>
     <g id="text_8">
      <!-- 2.5 -->
      <g transform="translate(31.116875 178.897978) scale(0.1 -0.1)">
       <use xlink:href="#DejaVuSans-32"/>
       <use xlink:href="#DejaVuSans-2e" x="63.623047"/>
       <use xlink:href="#DejaVuSans-35" x="95.410156"/>
      </g>
     </g>
    </g>
    <g id="ytick_3">
     <g id="line2d_8">
      <g>
       <use xlink:href="#mfa6cdf61fc" x="54.02" y="149.033882" style="stroke: #000000; stroke-width: 0.8"/>
      </g>
     </g>
     <g id="text_9">
      <!-- 5.0 -->
      <g transform="translate(31.116875 152.833101) scale(0.1 -0.1)">
       <use xlink:href="#DejaVuSans-35"/>
       <use xlink:href="#DejaVuSans-2e" x="63.623047"/>
       <use xlink:href="#DejaVuSans-30" x="95.410156"/>
      </g>
     </g>
    </g>
    <g id="ytick_4">
     <g id="line2d_9">
      <g>
       <use xlink:href="#mfa6cdf61fc" x="54.02" y="122.969004" style="stroke: #000000; stroke-width: 0.8"/>
      </g>
     </g>
     <g id="text_10">
      <!-- 7.5 -->
      <g transform="translate(31.116875 126.768223) scale(0.1 -0.1)">
       <defs>
        <path id="DejaVuSans-37" d="M 525 4666 
L 3525 4666 
L 3525 4397 
L 1831 0 
L 1172 0 
L 2766 4134 
L 525 4134 
L 525 4666 
z
" transform="scale(0.015625)"/>
       </defs>
       <use xlink:href="#DejaVuSans-37"/>
       <use xlink:href="#DejaVuSans-2e" x="63.623047"/>
       <use xlink:href="#DejaVuSans-35" x="95.410156"/>
      </g>
     </g>
    </g>
    <g id="ytick_5">
     <g id="line2d_10">
      <g>
       <use xlink:href="#mfa6cdf61fc" x="54.02" y="96.904127" style="stroke: #000000; stroke-width: 0.8"/>
      </g>
     </g>
     <g id="text_11">
      <!-- 10.0 -->
      <g transform="translate(24.754375 100.703346) scale(0.1 -0.1)">
       <use xlink:href="#DejaVuSans-31"/>
       <use xlink:href="#DejaVuSans-30" x="63.623047"/>
       <use xlink:href="#DejaVuSans-2e" x="127.246094"/>
       <use xlink:href="#DejaVuSans-30" x="159.033203"/>
      </g>
     </g>
    </g>
    <g id="ytick_6">
     <g id="line2d_11">
      <g>
       <use xlink:href="#mfa6cdf61fc" x="54.02" y="70.83925" style="stroke: #000000; stroke-width: 0.8"/>
      </g>
     </g>
     <g id="text_12">
      <!-- 12.5 -->
      <g transform="translate(24.754375 74.638469) scale(0.1 -0.1)">
       <use xlink:href="#DejaVuSans-31"/>
       <use xlink:href="#DejaVuSans-32" x="63.623047"/>
       <use xlink:href="#DejaVuSans-2e" x="127.246094"/>
       <use xlink:href="#DejaVuSans-35" x="159.033203"/>
      </g>
     </g>
    </g>
    <g id="ytick_7">
     <g id="line2d_12">
      <g>
       <use xlink:href="#mfa6cdf61fc" x="54.02" y="44.774373" style="stroke: #000000; stroke-width: 0.8"/>
      </g>
     </g>
     <g id="text_13">
      <!-- 15.0 -->
      <g transform="translate(24.754375 48.573591) scale(0.1 -0.1)">
       <use xlink:href="#DejaVuSans-31"/>
       <use xlink:href="#DejaVuSans-35" x="63.623047"/>
       <use xlink:href="#DejaVuSans-2e" x="127.246094"/>
       <use xlink:href="#DejaVuSans-30" x="159.033203"/>
      </g>
     </g>
    </g>
    <g id="ytick_8">
     <g id="line2d_13">
      <g>
       <use xlink:href="#mfa6cdf61fc" x="54.02" y="18.709495" style="stroke: #000000; stroke-width: 0.8"/>
      </g>
     </g>
     <g id="text_14">
      <!-- 17.5 -->
      <g transform="translate(24.754375 22.508714) scale(0.1 -0.1)">
       <use xlink:href="#DejaVuSans-31"/>
       <use xlink:href="#DejaVuSans-37" x="63.623047"/>
       <use xlink:href="#DejaVuSans-2e" x="127.246094"/>
       <use xlink:href="#DejaVuSans-35" x="159.033203"/>
      </g>
     </g>
    </g>
    <g id="text_15">
     <!-- flux -->
     <g transform="translate(18.674688 121.677344) rotate(-90) scale(0.1 -0.1)">
      <defs>
       <path id="DejaVuSans-66" d="M 2375 4863 
L 2375 4384 
L 1825 4384 
Q 1516 4384 1395 4259 
Q 1275 4134 1275 3809 
L 1275 3500 
L 2222 3500 
L 2222 3053 
L 1275 3053 
L 1275 0 
L 697 0 
L 697 3053 
L 147 3053 
L 147 3500 
L 697 3500 
L 697 3744 
Q 697 4328 969 4595 
Q 1241 4863 1831 4863 
L 2375 4863 
z
" transform="scale(0.015625)"/>
       <path id="DejaVuSans-6c" d="M 603 4863 
L 1178 4863 
L 1178 0 
L 603 0 
L 603 4863 
z
" transform="scale(0.015625)"/>
       <path id="DejaVuSans-75" d="M 544 1381 
L 544 3500 
L 1119 3500 
L 1119 1403 
Q 1119 906 1312 657 
Q 1506 409 1894 409 
Q 2359 409 2629 706 
Q 2900 1003 2900 1516 
L 2900 3500 
L 3475 3500 
L 3475 0 
L 2900 0 
L 2900 538 
Q 2691 219 2414 64 
Q 2138 -91 1772 -91 
Q 1169 -91 856 284 
Q 544 659 544 1381 
z
M 1991 3584 
L 1991 3584 
z
" transform="scale(0.015625)"/>
       <path id="DejaVuSans-78" d="M 3513 3500 
L 2247 1797 
L 3578 0 
L 2900 0 
L 1881 1375 
L 863 0 
L 184 0 
L 1544 1831 
L 300 3500 
L 978 3500 
L 1906 2253 
L 2834 3500 
L 3513 3500 
z
" transform="scale(0.015625)"/>
      </defs>
      <use xlink:href="#DejaVuSans-66"/>
      <use xlink:href="#DejaVuSans-6c" x="35.205078"/>
      <use xlink:href="#DejaVuSans-75" x="62.988281"/>
      <use xlink:href="#DejaVuSans-78" x="126.367188"/>
     </g>
    </g>
   </g>
   <g id="line2d_14">
    <defs>
     <path id="m7d47444d11" d="M 0 2.5 
C 0.663008 2.5 1.29895 2.236584 1.767767 1.767767 
C 2.236584 1.29895 2.5 0.663008 2.5 0 
C 2.5 -0.663008 2.236584 -1.29895 1.767767 -1.767767 
C 1.29895 -2.236584 0.663008 -2.5 0 -2.5 
C -0.663008 -2.5 -1.29895 -2.236584 -1.767767 -1.767767 
C -2.236584 -1.29895 -2.5 -0.663008 -2.5 0 
C -2.5 0.663008 -2.236584 1.29895 -1.767767 1.767767 
C -1.29895 2.236584 -0.663008 2.5 0 2.5 
z
" style="stroke: #225a8c"/>
    </defs>
    <g clip-path="url(#p1d345c562d)">
     <use xlink:href="#m7d47444d11" x="173.929455" y="151.168528" style="fill: #5b9bd5; stroke: #225a8c"/>
     <use xlink:href="#m7d47444d11" x="181.411727" y="153.579007" style="fill: #5b9bd5; stroke: #225a8c"/>
     <use xlink:href="#m7d47444d11" x="66.860545" y="201.163636" style="fill: #5b9bd5; stroke: #225a8c"/>
     <use xlink:href="#m7d47444d11" x="66.812273" y="201.163636" style="fill: #5b9bd5; stroke: #225a8c"/>
     <use xlink:href="#m7d47444d11" x="232.242909" y="136.705658" style="fill: #5b9bd5; stroke: #225a8c"/>
     <use xlink:href="#m7d47444d11" x="236.925364" y="131.527593" style="fill: #5b9bd5; stroke: #225a8c"/>
     <use xlink:href="#m7d47444d11" x="228.236273" y="151.168528" style="fill: #5b9bd5; stroke: #225a8c"/>
     <use xlink:href="#m7d47444d11" x="203.713727" y="160.185503" style="fill: #5b9bd5; stroke: #225a8c"/>
     <use xlink:href="#m7d47444d11" x="105.044273" y="179.112223" style="fill: #5b9bd5; stroke: #225a8c"/>
     <use xlink:href="#m7d47444d11" x="109.388818" y="173.710965" style="fill: #5b9bd5; stroke: #225a8c"/>
     <use xlink:href="#m7d47444d11" x="174.412182" y="157.239363" style="fill: #5b9bd5; stroke: #225a8c"/>
     <use xlink:href="#m7d47444d11" x="161.282" y="164.560075" style="fill: #5b9bd5; stroke: #225a8c"/>
     <use xlink:href="#m7d47444d11" x="67.005364" y="199.244181" style="fill: #5b9bd5; stroke: #225a8c"/>
     <use xlink:href="#m7d47444d11" x="67.198455" y="201.163636" style="fill: #5b9bd5; stroke: #225a8c"/>
     <use xlink:href="#m7d47444d11" x="66.957091" y="199.690566" style="fill: #5b9bd5; stroke: #225a8c"/>
     <use xlink:href="#m7d47444d11" x="189.956" y="125.278204" style="fill: #5b9bd5; stroke: #225a8c"/>
     <use xlink:href="#m7d47444d11" x="186.963091" y="120.234055" style="fill: #5b9bd5; stroke: #225a8c"/>
     <use xlink:href="#m7d47444d11" x="185.949364" y="116.796891" style="fill: #5b9bd5; stroke: #225a8c"/>
     <use xlink:href="#m7d47444d11" x="312.520455" y="69.122984" style="fill: #5b9bd5; stroke: #225a8c"/>
     <use xlink:href="#m7d47444d11" x="297.169727" y="87.201573" style="fill: #5b9bd5; stroke: #225a8c"/>
     <use xlink:href="#m7d47444d11" x="290.797727" y="38.054596" style="fill: #5b9bd5; stroke: #225a8c"/>
     <use xlink:href="#m7d47444d11" x="282.543091" y="87.067657" style="fill: #5b9bd5; stroke: #225a8c"/>
     <use xlink:href="#m7d47444d11" x="276.364182" y="85.460672" style="fill: #5b9bd5; stroke: #225a8c"/>
     <use xlink:href="#m7d47444d11" x="271.150727" y="116.171952" style="fill: #5b9bd5; stroke: #225a8c"/>
     <use xlink:href="#m7d47444d11" x="67.101909" y="199.333458" style="fill: #5b9bd5; stroke: #225a8c"/>
     <use xlink:href="#m7d47444d11" x="66.908818" y="199.333458" style="fill: #5b9bd5; stroke: #225a8c"/>
     <use xlink:href="#m7d47444d11" x="67.150182" y="199.333458" style="fill: #5b9bd5; stroke: #225a8c"/>
     <use xlink:href="#m7d47444d11" x="271.247273" y="27.29672" style="fill: #5b9bd5; stroke: #225a8c"/>
     <use xlink:href="#m7d47444d11" x="258.792909" y="32.787254" style="fill: #5b9bd5; stroke: #225a8c"/>
     <use xlink:href="#m7d47444d11" x="273.998818" y="23.636364" style="fill: #5b9bd5; stroke: #225a8c"/>
     <use xlink:href="#m7d47444d11" x="121.601818" y="95.013308" style="fill: #5b9bd5; stroke: #225a8c"/>
     <use xlink:href="#m7d47444d11" x="125.608455" y="93.18313" style="fill: #5b9bd5; stroke: #225a8c"/>
     <use xlink:href="#m7d47444d11" x="123.532727" y="84.03224" style="fill: #5b9bd5; stroke: #225a8c"/>
     <use xlink:href="#m7d47444d11" x="66.329545" y="201.163636" style="fill: #5b9bd5; stroke: #225a8c"/>
     <use xlink:href="#m7d47444d11" x="172.095091" y="120.635801" style="fill: #5b9bd5; stroke: #225a8c"/>
     <use xlink:href="#m7d47444d11" x="187.494091" y="111.484911" style="fill: #5b9bd5; stroke: #225a8c"/>
    </g>
   </g>
   <g id="line2d_15">
    <path d="M 66.329545 201.163636 
L 76.177182 193.279009 
L 86.024818 185.683172 
L 95.872455 178.360544 
L 105.720091 171.296646 
L 116.798682 163.642281 
L 127.877273 156.280542 
L 138.955864 149.194963 
L 150.034455 142.370289 
L 161.113045 135.792372 
L 173.422591 128.757023 
L 185.732136 121.993396 
L 198.041682 115.486046 
L 210.351227 109.220679 
L 223.891727 102.592478 
L 237.432227 96.224747 
L 250.972727 90.102428 
L 264.513227 84.211602 
L 279.284682 78.034147 
L 294.056136 72.101409 
L 308.827591 66.399131 
L 311.2895 65.470217 
L 311.2895 65.470217 
" clip-path="url(#p1d345c562d)" style="fill: none; stroke: #ef553b; stroke-width: 1.5; stroke-linecap: square"/>
   </g>
   <g id="patch_3">
    <path d="M 54.02 210.04 
L 54.02 14.76 
" style="fill: none; stroke: #000000; stroke-width: 0.8; stroke-linejoin: miter; stroke-linecap: square"/>
   </g>
   <g id="patch_4">
    <path d="M 324.83 210.04 
L 324.83 14.76 
" style="fill: none; stroke: #000000; stroke-width: 0.8; stroke-linejoin: miter; stroke-linecap: square"/>
   </g>
   <g id="patch_5">
    <path d="M 54.02 210.04 
L 324.83 210.04 
" style="fill: none; stroke: #000000; stroke-width: 0.8; stroke-linejoin: miter; stroke-linecap: square"/>
   </g>
   <g id="patch_6">
    <path d="M 54.02 14.76 
L 324.83 14.76 
" style="fill: none; stroke: #000000; stroke-width: 0.8; stroke-linejoin: miter; stroke-linecap: square"/>
   </g>
   <g id="legend_1">
    <g id="patch_7">
     <path d="M 61.02 52.11625 
L 174.366875 52.11625 
Q 176.366875 52.11625 176.366875 50.11625 
L 176.366875 21.76 
Q 176.366875 19.76 174.366875 19.76 
L 61.02 19.76 
Q 59.02 19.76 59.02 21.76 
L 59.02 50.11625 
Q 59.02 52.11625 61.02 52.11625 
z
" style="fill: #ffffff; opacity: 0.8; stroke: #cccccc; stroke-linejoin: miter"/>
    </g>
    <g id="line2d_16">
     <g>
      <use xlink:href="#m7d47444d11" x="73.02" y="27.858437" style="fill: #5b9bd5; stroke: #225a8c"/>
     </g>
    </g>
    <g id="text_16">
     <!-- data -->
     <g transform="translate(91.02 31.358437) scale(0.1 -0.1)">
      <defs>
       <path id="DejaVuSans-64" d="M 2906 2969 
L 2906 4863 
L 3481 4863 
L 3481 0 
L 2906 0 
L 2906 525 
Q 2725 213 2448 61 
Q 2172 -91 1784 -91 
Q 1150 -91 751 415 
Q 353 922 353 1747 
Q 353 2572 751 3078 
Q 1150 3584 1784 3584 
Q 2172 3584 2448 3432 
Q 2725 3281 2906 2969 
z
M 947 1747 
Q 947 1113 1208 752 
Q 1469 391 1925 391 
Q 2381 391 2643 752 
Q 2906 1113 2906 1747 
Q 2906 2381 2643 2742 
Q 2381 3103 1925 3103 
Q 1469 3103 1208 2742 
Q 947 2381 947 1747 
z
" transform="scale(0.015625)"/>
      </defs>
      <use xlink:href="#DejaVuSans-64"/>
      <use xlink:href="#DejaVuSans-61" x="63.476562"/>
      <use xlink:href="#DejaVuSans-74" x="124.755859"/>
      <use xlink:href="#DejaVuSans-61" x="163.964844"/>
     </g>
    </g>
    <g id="line2d_17">
     <path d="M 63.02 42.536562 
L 73.02 42.536562 
L 83.02 42.536562 
" style="fill: none; stroke: #ef553b; stroke-width: 1.5; stroke-linecap: square"/>
    </g>
    <g id="text_17">
     <!-- best fit (95% CI) -->
     <g transform="translate(91.02 46.036562) scale(0.1 -0.1)">
      <defs>
       <path id="DejaVuSans-62" d="M 3116 1747 
Q 3116 2381 2855 2742 
Q 2594 3103 2138 3103 
Q 1681 3103 1420 2742 
Q 1159 2381 1159 1747 
Q 1159 1113 1420 752 
Q 1681 391 2138 391 
Q 2594 391 2855 752 
Q 3116 1113 3116 1747 
z
M 1159 2969 
Q 1341 3281 1617 3432 
Q 1894 3584 2278 3584 
Q 2916 3584 3314 3078 
Q 3713 2572 3713 1747 
Q 3713 922 3314 415 
Q 2916 -91 2278 -91 
Q 1894 -91 1617 61 
Q 1341 213 1159 525 
L 1159 0 
L 581 0 
L 581 4863 
L 1159 4863 
L 1159 2969 
z
" transform="scale(0.015625)"/>
       <path id="DejaVuSans-73" d="M 2834 3397 
L 2834 2853 
Q 2591 2978 2328 3040 
Q 2066 3103 1784 3103 
Q 1356 3103 1142 2972 
Q 928 2841 928 2578 
Q 928 2378 1081 2264 
Q 1234 2150 1697 2047 
L 1894 2003 
Q 2506 1872 2764 1633 
Q 3022 1394 3022 966 
Q 3022 478 2636 193 
Q 2250 -91 1575 -91 
Q 1294 -91 989 -36 
Q 684 19 347 128 
L 347 722 
Q 666 556 975 473 
Q 1284 391 1588 391 
Q 1994 391 2212 530 
Q 2431 669 2431 922 
Q 2431 1156 2273 1281 
Q 2116 1406 1581 1522 
L 1381 1569 
Q 847 1681 609 1914 
Q 372 2147 372 2553 
Q 372 3047 722 3315 
Q 1072 3584 1716 3584 
Q 2034 3584 2315 3537 
Q 2597 3491 2834 3397 
z
" transform="scale(0.015625)"/>
       <path id="DejaVuSans-20" transform="scale(0.015625)"/>
       <path id="DejaVuSans-28" d="M 1984 4856 
Q 1566 4138 1362 3434 
Q 1159 2731 1159 2009 
Q 1159 1288 1364 580 
Q 1569 -128 1984 -844 
L 1484 -844 
Q 1016 -109 783 600 
Q 550 1309 550 2009 
Q 550 2706 781 3412 
Q 1013 4119 1484 4856 
L 1984 4856 
z
" transform="scale(0.015625)"/>
       <path id="DejaVuSans-39" d="M 703 97 
L 703 672 
Q 941 559 1184 500 
Q 1428 441 1663 441 
Q 2288 441 2617 861 
Q 2947 1281 2994 2138 
Q 2813 1869 2534 1725 
Q 2256 1581 1919 1581 
Q 1219 1581 811 2004 
Q 403 2428 403 3163 
Q 403 3881 828 4315 
Q 1253 4750 1959 4750 
Q 2769 4750 3195 4129 
Q 3622 3509 3622 2328 
Q 3622 1225 3098 567 
Q 2575 -91 1691 -91 
Q 1453 -91 1209 -44 
Q 966 3 703 97 
z
M 1959 2075 
Q 2384 2075 2632 2365 
Q 2881 2656 2881 3163 
Q 2881 3666 2632 3958 
Q 2384 4250 1959 4250 
Q 1534 4250 1286 3958 
Q 1038 3666 1038 3163 
Q 1038 2656 1286 2365 
Q 1534 2075 1959 2075 
z
" transform="scale(0.015625)"/>
       <path id="DejaVuSans-25" d="M 4653 2053 
Q 4381 2053 4226 1822 
Q 4072 1591 4072 1178 
Q 4072 772 4226 539 
Q 4381 306 4653 306 
Q 4919 306 5073 539 
Q 5228 772 5228 1178 
Q 5228 1588 5073 1820 
Q 4919 2053 4653 2053 
z
M 4653 2450 
Q 5147 2450 5437 2106 
Q 5728 1763 5728 1178 
Q 5728 594 5436 251 
Q 5144 -91 4653 -91 
Q 4153 -91 3862 251 
Q 3572 594 3572 1178 
Q 3572 1766 3864 2108 
Q 4156 2450 4653 2450 
z
M 1428 4353 
Q 1159 4353 1004 4120 
Q 850 3888 850 3481 
Q 850 3069 1003 2837 
Q 1156 2606 1428 2606 
Q 1700 2606 1854 2837 
Q 2009 3069 2009 3481 
Q 2009 3884 1853 4118 
Q 1697 4353 1428 4353 
z
M 4250 4750 
L 4750 4750 
L 1831 -91 
L 1331 -91 
L 4250 4750 
z
M 1428 4750 
Q 1922 4750 2215 4408 
Q 2509 4066 2509 3481 
Q 2509 2891 2217 2550 
Q 1925 2209 1428 2209 
Q 931 2209 642 2551 
Q 353 2894 353 3481 
Q 353 4063 643 4406 
Q 934 4750 1428 4750 
z
" transform="scale(0.015625)"/>
       <path id="DejaVuSans-43" d="M 4122 4306 
L 4122 3641 
Q 3803 3938 3442 4084 
Q 3081 4231 2675 4231 
Q 1875 4231 1450 3742 
Q 1025 3253 1025 2328 
Q 1025 1406 1450 917 
Q 1875 428 2675 428 
Q 3081 428 3442 575 
Q 3803 722 4122 1019 
L 4122 359 
Q 3791 134 3420 21 
Q 3050 -91 2638 -91 
Q 1578 -91 968 557 
Q 359 1206 359 2328 
Q 359 3453 968 4101 
Q 1578 4750 2638 4750 
Q 3056 4750 3426 4639 
Q 3797 4528 4122 4306 
z
" transform="scale(0.015625)"/>
       <path id="DejaVuSans-49" d="M 628 4666 
L 1259 4666 
L 1259 0 
L 628 0 
L 628 4666 
z
" transform="scale(0.015625)"/>
       <path id="DejaVuSans-29" d="M 513 4856 
L 1013 4856 
Q 1481 4119 1714 3412 
Q 1947 2706 1947 2009 
Q 1947 1309 1714 600 
Q 1481 -109 1013 -844 
L 513 -844 
Q 928 -128 1133 580 
Q 1338 1288 1338 2009 
Q 1338 2731 1133 3434 
Q 928 4138 513 4856 
z
" transform="scale(0.015625)"/>
      </defs>
      <use xlink:href="#DejaVuSans-62"/>
      <use xlink:href="#DejaVuSans-65" x="63.476562"/>
      <use xlink:href="#DejaVuSans-73" x="125"/>
      <use xlink:href="#DejaVuSans-74" x="177.099609"/>
      <use xlink:href="#DejaVuSans-20" x="216.308594"/>
      <use xlink:href="#DejaVuSans-66" x="248.095703"/>
      <use xlink:href="#DejaVuSans-69" x="283.300781"/>
      <use xlink:href="#DejaVuSans-74" x="311.083984"/>
      <use xlink:href="#DejaVuSans-20" x="350.292969"/>
      <use xlink:href="#DejaVuSans-28" x="382.080078"/>
      <use xlink:href="#DejaVuSans-39" x="421.09375"/>
      <use xlink:href="#DejaVuSans-35" x="484.716797"/>
      <use xlink:href="#DejaVuSans-25" x="548.339844"/>
      <use xlink:href="#DejaVuSans-20" x="643.359375"/>
      <use xlink:href="#DejaVuSans-43" x="675.146484"/>
      <use xlink:href="#DejaVuSans-49" x="744.970703"/>
      <use xlink:href="#DejaVuSans-29" x="774.462891"/>
     </g>
    </g>
   </g>
  </g>
  <g id="axes_2">
   <g id="patch_8">
    <path d="M 358.47 210.04 
L 629.28 210.04 
L 629.28 14.76 
L 358.47 14.76 
z
" style="fill: #ffffff"/>
   </g>
   <g id="matplotlib.axis_3">
    <g id="xtick_6">
     <g id="line2d_18">
      <g>
       <use xlink:href="#m4ee7084329" x="358.47" y="210.04" style="stroke: #000000; stroke-width: 0.8"/>
      </g>
     </g>
     <g id="text_18">
      <!-- 0.0 -->
      <g transform="translate(350.518437 224.638438) scale(0.1 -0.1)">
       <use xlink:href="#DejaVuSans-30"/>
       <use xlink:href="#DejaVuSans-2e" x="63.623047"/>
       <use xlink:href="#DejaVuSans-30" x="95.410156"/>
      </g>
     </g>
    </g>
    <g id="xtick_7">
     <g id="line2d_19">
      <g>
       <use xlink:href="#m4ee7084329" x="412.632" y="210.04" style="stroke: #000000; stroke-width: 0.8"/>
      </g>
     </g>
     <g id="text_19">
      <!-- 0.2 -->
      <g transform="translate(404.680437 224.638438) scale(0.1 -0.1)">
       <use xlink:href="#DejaVuSans-30"/>
       <use xlink:href="#DejaVuSans-2e" x="63.623047"/>
       <use xlink:href="#DejaVuSans-32" x="95.410156"/>
      </g>
     </g>
    </g>
    <g id="xtick_8">
     <g id="line2d_20">
      <g>
       <use xlink:href="#m4ee7084329" x="466.794" y="210.04" style="stroke: #000000; stroke-width: 0.8"/>
      </g>
     </g>
     <g id="text_20">
      <!-- 0.4 -->
      <g transform="translate(458.842437 224.638438) scale(0.1 -0.1)">
       <defs>
        <path id="DejaVuSans-34" d="M 2419 4116 
L 825 1625 
L 2419 1625 
L 2419 4116 
z
M 2253 4666 
L 3047 4666 
L 3047 1625 
L 3713 1625 
L 3713 1100 
L 3047 1100 
L 3047 0 
L 2419 0 
L 2419 1100 
L 313 1100 
L 313 1709 
L 2253 4666 
z
" transform="scale(0.015625)"/>
       </defs>
       <use xlink:href="#DejaVuSans-30"/>
       <use xlink:href="#DejaVuSans-2e" x="63.623047"/>
       <use xlink:href="#DejaVuSans-34" x="95.410156"/>
      </g>
     </g>
    </g>
    <g id="xtick_9">
     <g id="line2d_21">
      <g>
       <use xlink:href="#m4ee7084329" x="520.956" y="210.04" style="stroke: #000000; stroke-width: 0.8"/>
      </g>
     </g>
     <g id="text_21">
      <!-- 0.6 -->
      <g transform="translate(513.004437 224.638438) scale(0.1 -0.1)">
       <defs>
        <path id="DejaVuSans-36" d="M 2113 2584 
Q 1688 2584 1439 2293 
Q 1191 2003 1191 1497 
Q 1191 994 1439 701 
Q 1688 409 2113 409 
Q 2538 409 2786 701 
Q 3034 994 3034 1497 
Q 3034 2003 2786 2293 
Q 2538 2584 2113 2584 
z
M 3366 4563 
L 3366 3988 
Q 3128 4100 2886 4159 
Q 2644 4219 2406 4219 
Q 1781 4219 1451 3797 
Q 1122 3375 1075 2522 
Q 1259 2794 1537 2939 
Q 1816 3084 2150 3084 
Q 2853 3084 3261 2657 
Q 3669 2231 3669 1497 
Q 3669 778 3244 343 
Q 2819 -91 2113 -91 
Q 1303 -91 875 529 
Q 447 1150 447 2328 
Q 447 3434 972 4092 
Q 1497 4750 2381 4750 
Q 2619 4750 2861 4703 
Q 3103 4656 3366 4563 
z
" transform="scale(0.015625)"/>
       </defs>
       <use xlink:href="#DejaVuSans-30"/>
       <use xlink:href="#DejaVuSans-2e" x="63.623047"/>
       <use xlink:href="#DejaVuSans-36" x="95.410156"/>
      </g>
     </g>
    </g>
    <g id="xtick_10">
     <g id="line2d_22">
      <g>
       <use xlink:href="#m4ee7084329" x="575.118" y="210.04" style="stroke: #000000; stroke-width: 0.8"/>
      </g>
     </g>
     <g id="text_22">
      <!-- 0.8 -->
      <g transform="translate(567.166437 224.638438) scale(0.1 -0.1)">
       <defs>
        <path id="DejaVuSans-38" d="M 2034 2216 
Q 1584 2216 1326 1975 
Q 1069 1734 1069 1313 
Q 1069 891 1326 650 
Q 1584 409 2034 409 
Q 2484 409 2743 651 
Q 3003 894 3003 1313 
Q 3003 1734 2745 1975 
Q 2488 2216 2034 2216 
z
M 1403 2484 
Q 997 2584 770 2862 
Q 544 3141 544 3541 
Q 544 4100 942 4425 
Q 1341 4750 2034 4750 
Q 2731 4750 3128 4425 
Q 3525 4100 3525 3541 
Q 3525 3141 3298 2862 
Q 3072 2584 2669 2484 
Q 3125 2378 3379 2068 
Q 3634 1759 3634 1313 
Q 3634 634 3220 271 
Q 2806 -91 2034 -91 
Q 1263 -91 848 271 
Q 434 634 434 1313 
Q 434 1759 690 2068 
Q 947 2378 1403 2484 
z
M 1172 3481 
Q 1172 3119 1398 2916 
Q 1625 2713 2034 2713 
Q 2441 2713 2670 2916 
Q 2900 3119 2900 3481 
Q 2900 3844 2670 4047 
Q 2441 4250 2034 4250 
Q 1625 4250 1398 4047 
Q 1172 3844 1172 3481 
z
" transform="scale(0.015625)"/>
       </defs>
       <use xlink:href="#DejaVuSans-30"/>
       <use xlink:href="#DejaVuSans-2e" x="63.623047"/>
       <use xlink:href="#DejaVuSans-38" x="95.410156"/>
      </g>
     </g>
    </g>
    <g id="xtick_11">
     <g id="line2d_23">
      <g>
       <use xlink:href="#m4ee7084329" x="629.28" y="210.04" style="stroke: #000000; stroke-width: 0.8"/>
      </g>
     </g>
     <g id="text_23">
      <!-- 1.0 -->
      <g transform="translate(621.328437 224.638438) scale(0.1 -0.1)">
       <use xlink:href="#DejaVuSans-31"/>
       <use xlink:href="#DejaVuSans-2e" x="63.623047"/>
       <use xlink:href="#DejaVuSans-30" x="95.410156"/>
      </g>
     </g>
    </g>
   </g>
   <g id="matplotlib.axis_4">
    <g id="ytick_9">
     <g id="line2d_24">
      <g>
       <use xlink:href="#mfa6cdf61fc" x="358.47" y="210.04" style="stroke: #000000; stroke-width: 0.8"/>
      </g>
     </g>
     <g id="text_24">
      <!-- 0.0 -->
      <g transform="translate(335.566875 213.839219) scale(0.1 -0.1)">
       <use xlink:href="#DejaVuSans-30"/>
       <use xlink:href="#DejaVuSans-2e" x="63.623047"/>
       <use xlink:href="#DejaVuSans-30" x="95.410156"/>
      </g>
     </g>
    </g>
    <g id="ytick_10">
     <g id="line2d_25">
      <g>
       <use xlink:href="#mfa6cdf61fc" x="358.47" y="170.984" style="stroke: #000000; stroke-width: 0.8"/>
      </g>
     </g>
     <g id="text_25">
      <!-- 0.2 -->
      <g transform="translate(335.566875 174.783219) scale(0.1 -0.1)">
       <use xlink:href="#DejaVuSans-30"/>
       <use xlink:href="#DejaVuSans-2e" x="63.623047"/>
       <use xlink:href="#DejaVuSans-32" x="95.410156"/>
      </g>
     </g>
    </g>
    <g id="ytick_11">
     <g id="line2d_26">
      <g>
       <use xlink:href="#mfa6cdf61fc" x="358.47" y="131.928" style="stroke: #000000; stroke-width: 0.8"/>
      </g>
     </g>
     <g id="text_26">
      <!-- 0.4 -->
      <g transform="translate(335.566875 135.727219) scale(0.1 -0.1)">
       <use xlink:href="#DejaVuSans-30"/>
       <use xlink:href="#DejaVuSans-2e" x="63.623047"/>
       <use xlink:href="#DejaVuSans-34" x="95.410156"/>
      </g>
     </g>
    </g>
    <g id="ytick_12">
     <g id="line2d_27">
      <g>
       <use xlink:href="#mfa6cdf61fc" x="358.47" y="92.872" style="stroke: #000000; stroke-width: 0.8"/>
      </g>
     </g>
     <g id="text_27">
      <!-- 0.6 -->
      <g transform="translate(335.566875 96.671219) scale(0.1 -0.1)">
       <use xlink:href="#DejaVuSans-30"/>
       <use xlink:href="#DejaVuSans-2e" x="63.623047"/>
       <use xlink:href="#DejaVuSans-36" x="95.410156"/>
      </g>
     </g>
    </g>
    <g id="ytick_13">
     <g id="line2d_28">
      <g>
       <use xlink:href="#mfa6cdf61fc" x="358.47" y="53.816" style="stroke: #000000; stroke-width: 0.8"/>
      </g>
     </g>
     <g id="text_28">
      <!-- 0.8 -->
      <g transform="translate(335.566875 57.615219) scale(0.1 -0.1)">
       <use xlink:href="#DejaVuSans-30"/>
       <use xlink:href="#DejaVuSans-2e" x="63.623047"/>
       <use xlink:href="#DejaVuSans-38" x="95.410156"/>
      </g>
     </g>
    </g>
    <g id="ytick_14">
     <g id="line2d_29">
      <g>
       <use xlink:href="#mfa6cdf61fc" x="358.47" y="14.76" style="stroke: #000000; stroke-width: 0.8"/>
      </g>
     </g>
     <g id="text_29">
      <!-- 1.0 -->
      <g transform="translate(335.566875 18.559219) scale(0.1 -0.1)">
       <use xlink:href="#DejaVuSans-31"/>
       <use xlink:href="#DejaVuSans-2e" x="63.623047"/>
       <use xlink:href="#DejaVuSans-30" x="95.410156"/>
      </g>
     </g>
    </g>
   </g>
   <g id="patch_9">
    <path d="M 358.47 210.04 
L 358.47 14.76 
" style="fill: none; stroke: #000000; stroke-width: 0.8; stroke-linejoin: miter; stroke-linecap: square"/>
   </g>
   <g id="patch_10">
    <path d="M 629.28 210.04 
L 629.28 14.76 
" style="fill: none; stroke: #000000; stroke-width: 0.8; stroke-linejoin: miter; stroke-linecap: square"/>
   </g>
   <g id="patch_11">
    <path d="M 358.47 210.04 
L 629.28 210.04 
" style="fill: none; stroke: #000000; stroke-width: 0.8; stroke-linejoin: miter; stroke-linecap: square"/>
   </g>
   <g id="patch_12">
    <path d="M 358.47 14.76 
L 629.28 14.76 
" style="fill: none; stroke: #000000; stroke-width: 0.8; stroke-linejoin: miter; stroke-linecap: square"/>
   </g>
  </g>
 </g>
 <defs>
  <clipPath id="p1d345c562d">
   <rect x="54.02" y="14.76" width="270.81" height="195.28"/>
  </clipPath>
 </defs>
</svg>
