<?xml version="1.0" encoding="utf-8" standalone="no"?>
<!DOCTYPE svg PUBLIC "-//W3C//DTD SVG 1.1//EN"
  "http://www.w3.org/Graphics/SVG/1.1/DTD/svg11.dtd">
<svg xmlns:xlink="http://www.w3.org/1999/xlink" width="792pt" height="252pt" viewBox="0 0 792 252" xmlns="http://www.w3.org/2000/svg" version="1.1">
 <metadata>
  <rdf:RDF xmlns:dc="http://purl.org/dc/elements/1.1/" xmlns:cc="http://creativecommons.org/ns#" xmlns:rdf="http://www.w3.org/1999/02/22-rdf-syntax-ns#">
   <cc:Work>
    <dc:type rdf:resource="http://purl.org/dc/dcmitype/StillImage"/>
    <dc:date>2023-12-20T15:26:38.519581</dc:date>
    <dc:format>image/svg+xml</dc:format>
    <dc:creator>
     <cc:Agent>
      <dc:title>Matplotlib v3.8.1, https://matplotlib.org/</dc:title>
     </cc:Agent>
    </dc:creator>
   </cc:Work>
  </rdf:RDF>
 </metadata>
 <defs>
  <style type="text/css">*{stroke-linejoin: round; stroke-linecap: butt}</style>
 </defs>
 <g id="figure_1">
  <g id="patch_1">
   <path d="M 0 252 
L 792 252 
L 792 0 
L 0 0 
z
" style="fill: #ffffff"/>
  </g>
  <g id="axes_1">
   <g id="patch_2">
    <path d="M 51.41 210.04 
L 255.75 210.04 
L 255.75 14.76 
L 51.41 14.76 
z
" style="fill: #ffffff"/>
   </g>
   <g id="matplotlib.axis_1">
    <g id="xtick_1">
     <g id="line2d_1">
      <defs>
       <path id="m65bbdba8a6" d="M 0 0 
L 0 3.5 
" style="stroke: #262626; stroke-width: 0.8"/>
      </defs>
      <g>
       <use xlink:href="#m65bbdba8a6" x="60.698182" y="210.04" style="fill: #262626; stroke: #262626; stroke-width: 0.8"/>
      </g>
     </g>
     <g id="text_1">
      <!-- 0 -->
      <g style="fill: #262626" transform="translate(57.917713 224.197812) scale(0.1 -0.1)">
       <defs>
        <path id="ArialMT-30" d="M 266 2259 
Q 266 3072 433 3567 
Q 600 4063 929 4331 
Q 1259 4600 1759 4600 
Q 2128 4600 2406 4451 
Q 2684 4303 2865 4023 
Q 3047 3744 3150 3342 
Q 3253 2941 3253 2259 
Q 3253 1453 3087 958 
Q 2922 463 2592 192 
Q 2263 -78 1759 -78 
Q 1097 -78 719 397 
Q 266 969 266 2259 
z
M 844 2259 
Q 844 1131 1108 757 
Q 1372 384 1759 384 
Q 2147 384 2411 759 
Q 2675 1134 2675 2259 
Q 2675 3391 2411 3762 
Q 2147 4134 1753 4134 
Q 1366 4134 1134 3806 
Q 844 3388 844 2259 
z
" transform="scale(0.015625)"/>
       </defs>
       <use xlink:href="#ArialMT-30"/>
      </g>
     </g>
    </g>
    <g id="xtick_2">
     <g id="line2d_2">
      <g>
       <use xlink:href="#m65bbdba8a6" x="103.880196" y="210.04" style="fill: #262626; stroke: #262626; stroke-width: 0.8"/>
      </g>
     </g>
     <g id="text_2">
      <!-- 500 -->
      <g style="fill: #262626" transform="translate(95.53879 224.197812) scale(0.1 -0.1)">
       <defs>
        <path id="ArialMT-35" d="M 266 1200 
L 856 1250 
Q 922 819 1161 601 
Q 1400 384 1738 384 
Q 2144 384 2425 690 
Q 2706 997 2706 1503 
Q 2706 1984 2436 2262 
Q 2166 2541 1728 2541 
Q 1456 2541 1237 2417 
Q 1019 2294 894 2097 
L 366 2166 
L 809 4519 
L 3088 4519 
L 3088 3981 
L 1259 3981 
L 1013 2750 
Q 1425 3038 1878 3038 
Q 2478 3038 2890 2622 
Q 3303 2206 3303 1553 
Q 3303 931 2941 478 
Q 2500 -78 1738 -78 
Q 1113 -78 717 272 
Q 322 622 266 1200 
z
" transform="scale(0.015625)"/>
       </defs>
       <use xlink:href="#ArialMT-35"/>
       <use xlink:href="#ArialMT-30" x="55.615234"/>
       <use xlink:href="#ArialMT-30" x="111.230469"/>
      </g>
     </g>
    </g>
    <g id="xtick_3">
     <g id="line2d_3">
      <g>
       <use xlink:href="#m65bbdba8a6" x="147.062211" y="210.04" style="fill: #262626; stroke: #262626; stroke-width: 0.8"/>
      </g>
     </g>
     <g id="text_3">
      <!-- 1000 -->
      <g style="fill: #262626" transform="translate(135.940336 224.197812) scale(0.1 -0.1)">
       <defs>
        <path id="ArialMT-31" d="M 2384 0 
L 1822 0 
L 1822 3584 
Q 1619 3391 1289 3197 
Q 959 3003 697 2906 
L 697 3450 
Q 1169 3672 1522 3987 
Q 1875 4303 2022 4600 
L 2384 4600 
L 2384 0 
z
" transform="scale(0.015625)"/>
       </defs>
       <use xlink:href="#ArialMT-31"/>
       <use xlink:href="#ArialMT-30" x="55.615234"/>
       <use xlink:href="#ArialMT-30" x="111.230469"/>
       <use xlink:href="#ArialMT-30" x="166.845703"/>
      </g>
     </g>
    </g>
    <g id="xtick_4">
     <g id="line2d_4">
      <g>
       <use xlink:href="#m65bbdba8a6" x="190.244225" y="210.04" style="fill: #262626; stroke: #262626; stroke-width: 0.8"/>
      </g>
     </g>
     <g id="text_4">
      <!-- 1500 -->
      <g style="fill: #262626" transform="translate(179.12235 224.197812) scale(0.1 -0.1)">
       <use xlink:href="#ArialMT-31"/>
       <use xlink:href="#ArialMT-35" x="55.615234"/>
       <use xlink:href="#ArialMT-30" x="111.230469"/>
       <use xlink:href="#ArialMT-30" x="166.845703"/>
      </g>
     </g>
    </g>
    <g id="xtick_5">
     <g id="line2d_5">
      <g>
       <use xlink:href="#m65bbdba8a6" x="233.42624" y="210.04" style="fill: #262626; stroke: #262626; stroke-width: 0.8"/>
      </g>
     </g>
     <g id="text_5">
      <!-- 2000 -->
      <g style="fill: #262626" transform="translate(222.304365 224.197812) scale(0.1 -0.1)">
       <defs>
        <path id="ArialMT-32" d="M 3222 541 
L 3222 0 
L 194 0 
Q 188 203 259 391 
Q 375 700 629 1000 
Q 884 1300 1366 1694 
Q 2113 2306 2375 2664 
Q 2638 3022 2638 3341 
Q 2638 3675 2398 3904 
Q 2159 4134 1775 4134 
Q 1369 4134 1125 3890 
Q 881 3647 878 3216 
L 300 3275 
Q 359 3922 746 4261 
Q 1134 4600 1788 4600 
Q 2447 4600 2831 4234 
Q 3216 3869 3216 3328 
Q 3216 3053 3103 2787 
Q 2991 2522 2730 2228 
Q 2469 1934 1863 1422 
Q 1356 997 1212 845 
Q 1069 694 975 541 
L 3222 541 
z
" transform="scale(0.015625)"/>
       </defs>
       <use xlink:href="#ArialMT-32"/>
       <use xlink:href="#ArialMT-30" x="55.615234"/>
       <use xlink:href="#ArialMT-30" x="111.230469"/>
       <use xlink:href="#ArialMT-30" x="166.845703"/>
      </g>
     </g>
    </g>
    <g id="text_6">
     <!-- [Phytoene] (µM) -->
     <g style="fill: #262626" transform="translate(117.910469 237.465) scale(0.1 -0.1)">
      <defs>
       <path id="ArialMT-5b" d="M 434 -1272 
L 434 4581 
L 1675 4581 
L 1675 4116 
L 997 4116 
L 997 -806 
L 1675 -806 
L 1675 -1272 
L 434 -1272 
z
" transform="scale(0.015625)"/>
       <path id="ArialMT-50" d="M 494 0 
L 494 4581 
L 2222 4581 
Q 2678 4581 2919 4538 
Q 3256 4481 3484 4323 
Q 3713 4166 3852 3881 
Q 3991 3597 3991 3256 
Q 3991 2672 3619 2267 
Q 3247 1863 2275 1863 
L 1100 1863 
L 1100 0 
L 494 0 
z
M 1100 2403 
L 2284 2403 
Q 2872 2403 3119 2622 
Q 3366 2841 3366 3238 
Q 3366 3525 3220 3729 
Q 3075 3934 2838 4000 
Q 2684 4041 2272 4041 
L 1100 4041 
L 1100 2403 
z
" transform="scale(0.015625)"/>
       <path id="ArialMT-68" d="M 422 0 
L 422 4581 
L 984 4581 
L 984 2938 
Q 1378 3394 1978 3394 
Q 2347 3394 2619 3248 
Q 2891 3103 3008 2847 
Q 3125 2591 3125 2103 
L 3125 0 
L 2563 0 
L 2563 2103 
Q 2563 2525 2380 2717 
Q 2197 2909 1863 2909 
Q 1613 2909 1392 2779 
Q 1172 2650 1078 2428 
Q 984 2206 984 1816 
L 984 0 
L 422 0 
z
" transform="scale(0.015625)"/>
       <path id="ArialMT-79" d="M 397 -1278 
L 334 -750 
Q 519 -800 656 -800 
Q 844 -800 956 -737 
Q 1069 -675 1141 -563 
Q 1194 -478 1313 -144 
Q 1328 -97 1363 -6 
L 103 3319 
L 709 3319 
L 1400 1397 
Q 1534 1031 1641 628 
Q 1738 1016 1872 1384 
L 2581 3319 
L 3144 3319 
L 1881 -56 
Q 1678 -603 1566 -809 
Q 1416 -1088 1222 -1217 
Q 1028 -1347 759 -1347 
Q 597 -1347 397 -1278 
z
" transform="scale(0.015625)"/>
       <path id="ArialMT-74" d="M 1650 503 
L 1731 6 
Q 1494 -44 1306 -44 
Q 1000 -44 831 53 
Q 663 150 594 308 
Q 525 466 525 972 
L 525 2881 
L 113 2881 
L 113 3319 
L 525 3319 
L 525 4141 
L 1084 4478 
L 1084 3319 
L 1650 3319 
L 1650 2881 
L 1084 2881 
L 1084 941 
Q 1084 700 1114 631 
Q 1144 563 1211 522 
Q 1278 481 1403 481 
Q 1497 481 1650 503 
z
" transform="scale(0.015625)"/>
       <path id="ArialMT-6f" d="M 213 1659 
Q 213 2581 725 3025 
Q 1153 3394 1769 3394 
Q 2453 3394 2887 2945 
Q 3322 2497 3322 1706 
Q 3322 1066 3130 698 
Q 2938 331 2570 128 
Q 2203 -75 1769 -75 
Q 1072 -75 642 372 
Q 213 819 213 1659 
z
M 791 1659 
Q 791 1022 1069 705 
Q 1347 388 1769 388 
Q 2188 388 2466 706 
Q 2744 1025 2744 1678 
Q 2744 2294 2464 2611 
Q 2184 2928 1769 2928 
Q 1347 2928 1069 2612 
Q 791 2297 791 1659 
z
" transform="scale(0.015625)"/>
       <path id="ArialMT-65" d="M 2694 1069 
L 3275 997 
Q 3138 488 2766 206 
Q 2394 -75 1816 -75 
Q 1088 -75 661 373 
Q 234 822 234 1631 
Q 234 2469 665 2931 
Q 1097 3394 1784 3394 
Q 2450 3394 2872 2941 
Q 3294 2488 3294 1666 
Q 3294 1616 3291 1516 
L 816 1516 
Q 847 969 1125 678 
Q 1403 388 1819 388 
Q 2128 388 2347 550 
Q 2566 713 2694 1069 
z
M 847 1978 
L 2700 1978 
Q 2663 2397 2488 2606 
Q 2219 2931 1791 2931 
Q 1403 2931 1139 2672 
Q 875 2413 847 1978 
z
" transform="scale(0.015625)"/>
       <path id="ArialMT-6e" d="M 422 0 
L 422 3319 
L 928 3319 
L 928 2847 
Q 1294 3394 1984 3394 
Q 2284 3394 2536 3286 
Q 2788 3178 2913 3003 
Q 3038 2828 3088 2588 
Q 3119 2431 3119 2041 
L 3119 0 
L 2556 0 
L 2556 2019 
Q 2556 2363 2490 2533 
Q 2425 2703 2258 2804 
Q 2091 2906 1866 2906 
Q 1506 2906 1245 2678 
Q 984 2450 984 1813 
L 984 0 
L 422 0 
z
" transform="scale(0.015625)"/>
       <path id="ArialMT-5d" d="M 1363 -1272 
L 122 -1272 
L 122 -806 
L 800 -806 
L 800 4116 
L 122 4116 
L 122 4581 
L 1363 4581 
L 1363 -1272 
z
" transform="scale(0.015625)"/>
       <path id="ArialMT-20" transform="scale(0.015625)"/>
       <path id="ArialMT-28" d="M 1497 -1347 
Q 1031 -759 709 28 
Q 388 816 388 1659 
Q 388 2403 628 3084 
Q 909 3875 1497 4659 
L 1900 4659 
Q 1522 4009 1400 3731 
Q 1209 3300 1100 2831 
Q 966 2247 966 1656 
Q 966 153 1900 -1347 
L 1497 -1347 
z
" transform="scale(0.015625)"/>
       <path id="ArialMT-b5" d="M 3181 3319 
L 3181 0 
L 2678 0 
L 2678 394 
Q 2516 144 2356 50 
Q 2138 -78 1847 -78 
Q 1588 -78 1388 25 
Q 1238 103 1056 334 
L 1056 -1272 
L 500 -1272 
L 500 3319 
L 1056 3319 
L 1056 1913 
Q 1056 1147 1137 920 
Q 1219 694 1401 562 
Q 1584 431 1822 431 
Q 2072 431 2269 568 
Q 2466 706 2547 923 
Q 2628 1141 2628 1903 
L 2628 3319 
L 3181 3319 
z
" transform="scale(0.015625)"/>
       <path id="ArialMT-4d" d="M 475 0 
L 475 4581 
L 1388 4581 
L 2472 1338 
Q 2622 884 2691 659 
Q 2769 909 2934 1394 
L 4031 4581 
L 4847 4581 
L 4847 0 
L 4263 0 
L 4263 3834 
L 2931 0 
L 2384 0 
L 1059 3900 
L 1059 0 
L 475 0 
z
" transform="scale(0.015625)"/>
       <path id="ArialMT-29" d="M 791 -1347 
L 388 -1347 
Q 1322 153 1322 1656 
Q 1322 2244 1188 2822 
Q 1081 3291 891 3722 
Q 769 4003 388 4659 
L 791 4659 
Q 1378 3875 1659 3084 
Q 1900 2403 1900 1659 
Q 1900 816 1576 28 
Q 1253 -759 791 -1347 
z
" transform="scale(0.015625)"/>
      </defs>
      <use xlink:href="#ArialMT-5b"/>
      <use xlink:href="#ArialMT-50" x="27.783203"/>
      <use xlink:href="#ArialMT-68" x="94.482422"/>
      <use xlink:href="#ArialMT-79" x="150.097656"/>
      <use xlink:href="#ArialMT-74" x="200.097656"/>
      <use xlink:href="#ArialMT-6f" x="227.880859"/>
      <use xlink:href="#ArialMT-65" x="283.496094"/>
      <use xlink:href="#ArialMT-6e" x="339.111328"/>
      <use xlink:href="#ArialMT-65" x="394.726562"/>
      <use xlink:href="#ArialMT-5d" x="450.341797"/>
      <use xlink:href="#ArialMT-20" x="478.125"/>
      <use xlink:href="#ArialMT-28" x="505.908203"/>
      <use xlink:href="#ArialMT-b5" x="539.208984"/>
      <use xlink:href="#ArialMT-4d" x="596.826172"/>
      <use xlink:href="#ArialMT-29" x="680.126953"/>
     </g>
    </g>
   </g>
   <g id="matplotlib.axis_2">
    <g id="ytick_1">
     <g id="line2d_6">
      <defs>
       <path id="m533aae14d5" d="M 0 0 
L -3.5 0 
" style="stroke: #262626; stroke-width: 0.8"/>
      </defs>
      <g>
       <use xlink:href="#m533aae14d5" x="51.41" y="201.163636" style="fill: #262626; stroke: #262626; stroke-width: 0.8"/>
      </g>
     </g>
     <g id="text_7">
      <!-- 0.0 -->
      <g style="fill: #262626" transform="translate(30.51 204.742543) scale(0.1 -0.1)">
       <defs>
        <path id="ArialMT-2e" d="M 581 0 
L 581 641 
L 1222 641 
L 1222 0 
L 581 0 
z
" transform="scale(0.015625)"/>
       </defs>
       <use xlink:href="#ArialMT-30"/>
       <use xlink:href="#ArialMT-2e" x="55.615234"/>
       <use xlink:href="#ArialMT-30" x="83.398438"/>
      </g>
     </g>
    </g>
    <g id="ytick_2">
     <g id="line2d_7">
      <g>
       <use xlink:href="#m533aae14d5" x="51.41" y="175.098759" style="fill: #262626; stroke: #262626; stroke-width: 0.8"/>
      </g>
     </g>
     <g id="text_8">
      <!-- 2.5 -->
      <g style="fill: #262626" transform="translate(30.51 178.677665) scale(0.1 -0.1)">
       <use xlink:href="#ArialMT-32"/>
       <use xlink:href="#ArialMT-2e" x="55.615234"/>
       <use xlink:href="#ArialMT-35" x="83.398438"/>
      </g>
     </g>
    </g>
    <g id="ytick_3">
     <g id="line2d_8">
      <g>
       <use xlink:href="#m533aae14d5" x="51.41" y="149.033882" style="fill: #262626; stroke: #262626; stroke-width: 0.8"/>
      </g>
     </g>
     <g id="text_9">
      <!-- 5.0 -->
      <g style="fill: #262626" transform="translate(30.51 152.612788) scale(0.1 -0.1)">
       <use xlink:href="#ArialMT-35"/>
       <use xlink:href="#ArialMT-2e" x="55.615234"/>
       <use xlink:href="#ArialMT-30" x="83.398438"/>
      </g>
     </g>
    </g>
    <g id="ytick_4">
     <g id="line2d_9">
      <g>
       <use xlink:href="#m533aae14d5" x="51.41" y="122.969004" style="fill: #262626; stroke: #262626; stroke-width: 0.8"/>
      </g>
     </g>
     <g id="text_10">
      <!-- 7.5 -->
      <g style="fill: #262626" transform="translate(30.51 126.547911) scale(0.1 -0.1)">
       <defs>
        <path id="ArialMT-37" d="M 303 3981 
L 303 4522 
L 3269 4522 
L 3269 4084 
Q 2831 3619 2401 2847 
Q 1972 2075 1738 1259 
Q 1569 684 1522 0 
L 944 0 
Q 953 541 1156 1306 
Q 1359 2072 1739 2783 
Q 2119 3494 2547 3981 
L 303 3981 
z
" transform="scale(0.015625)"/>
       </defs>
       <use xlink:href="#ArialMT-37"/>
       <use xlink:href="#ArialMT-2e" x="55.615234"/>
       <use xlink:href="#ArialMT-35" x="83.398438"/>
      </g>
     </g>
    </g>
    <g id="ytick_5">
     <g id="line2d_10">
      <g>
       <use xlink:href="#m533aae14d5" x="51.41" y="96.904127" style="fill: #262626; stroke: #262626; stroke-width: 0.8"/>
      </g>
     </g>
     <g id="text_11">
      <!-- 10.0 -->
      <g style="fill: #262626" transform="translate(24.949063 100.483033) scale(0.1 -0.1)">
       <use xlink:href="#ArialMT-31"/>
       <use xlink:href="#ArialMT-30" x="55.615234"/>
       <use xlink:href="#ArialMT-2e" x="111.230469"/>
       <use xlink:href="#ArialMT-30" x="139.013672"/>
      </g>
     </g>
    </g>
    <g id="ytick_6">
     <g id="line2d_11">
      <g>
       <use xlink:href="#m533aae14d5" x="51.41" y="70.83925" style="fill: #262626; stroke: #262626; stroke-width: 0.8"/>
      </g>
     </g>
     <g id="text_12">
      <!-- 12.5 -->
      <g style="fill: #262626" transform="translate(24.949063 74.418156) scale(0.1 -0.1)">
       <use xlink:href="#ArialMT-31"/>
       <use xlink:href="#ArialMT-32" x="55.615234"/>
       <use xlink:href="#ArialMT-2e" x="111.230469"/>
       <use xlink:href="#ArialMT-35" x="139.013672"/>
      </g>
     </g>
    </g>
    <g id="ytick_7">
     <g id="line2d_12">
      <g>
       <use xlink:href="#m533aae14d5" x="51.41" y="44.774373" style="fill: #262626; stroke: #262626; stroke-width: 0.8"/>
      </g>
     </g>
     <g id="text_13">
      <!-- 15.0 -->
      <g style="fill: #262626" transform="translate(24.949063 48.353279) scale(0.1 -0.1)">
       <use xlink:href="#ArialMT-31"/>
       <use xlink:href="#ArialMT-35" x="55.615234"/>
       <use xlink:href="#ArialMT-2e" x="111.230469"/>
       <use xlink:href="#ArialMT-30" x="139.013672"/>
      </g>
     </g>
    </g>
    <g id="ytick_8">
     <g id="line2d_13">
      <g>
       <use xlink:href="#m533aae14d5" x="51.41" y="18.709495" style="fill: #262626; stroke: #262626; stroke-width: 0.8"/>
      </g>
     </g>
     <g id="text_14">
      <!-- 17.5 -->
      <g style="fill: #262626" transform="translate(24.949063 22.288401) scale(0.1 -0.1)">
       <use xlink:href="#ArialMT-31"/>
       <use xlink:href="#ArialMT-37" x="55.615234"/>
       <use xlink:href="#ArialMT-2e" x="111.230469"/>
       <use xlink:href="#ArialMT-35" x="139.013672"/>
      </g>
     </g>
    </g>
    <g id="text_15">
     <!-- Lycopene flux (µM/h) -->
     <g style="fill: #262626" transform="translate(18.844375 158.999219) rotate(-90) scale(0.1 -0.1)">
      <defs>
       <path id="ArialMT-4c" d="M 469 0 
L 469 4581 
L 1075 4581 
L 1075 541 
L 3331 541 
L 3331 0 
L 469 0 
z
" transform="scale(0.015625)"/>
       <path id="ArialMT-63" d="M 2588 1216 
L 3141 1144 
Q 3050 572 2676 248 
Q 2303 -75 1759 -75 
Q 1078 -75 664 370 
Q 250 816 250 1647 
Q 250 2184 428 2587 
Q 606 2991 970 3192 
Q 1334 3394 1763 3394 
Q 2303 3394 2647 3120 
Q 2991 2847 3088 2344 
L 2541 2259 
Q 2463 2594 2264 2762 
Q 2066 2931 1784 2931 
Q 1359 2931 1093 2626 
Q 828 2322 828 1663 
Q 828 994 1084 691 
Q 1341 388 1753 388 
Q 2084 388 2306 591 
Q 2528 794 2588 1216 
z
" transform="scale(0.015625)"/>
       <path id="ArialMT-70" d="M 422 -1272 
L 422 3319 
L 934 3319 
L 934 2888 
Q 1116 3141 1344 3267 
Q 1572 3394 1897 3394 
Q 2322 3394 2647 3175 
Q 2972 2956 3137 2557 
Q 3303 2159 3303 1684 
Q 3303 1175 3120 767 
Q 2938 359 2589 142 
Q 2241 -75 1856 -75 
Q 1575 -75 1351 44 
Q 1128 163 984 344 
L 984 -1272 
L 422 -1272 
z
M 931 1641 
Q 931 1000 1190 694 
Q 1450 388 1819 388 
Q 2194 388 2461 705 
Q 2728 1022 2728 1688 
Q 2728 2322 2467 2637 
Q 2206 2953 1844 2953 
Q 1484 2953 1207 2617 
Q 931 2281 931 1641 
z
" transform="scale(0.015625)"/>
       <path id="ArialMT-66" d="M 556 0 
L 556 2881 
L 59 2881 
L 59 3319 
L 556 3319 
L 556 3672 
Q 556 4006 616 4169 
Q 697 4388 901 4523 
Q 1106 4659 1475 4659 
Q 1713 4659 2000 4603 
L 1916 4113 
Q 1741 4144 1584 4144 
Q 1328 4144 1222 4034 
Q 1116 3925 1116 3625 
L 1116 3319 
L 1763 3319 
L 1763 2881 
L 1116 2881 
L 1116 0 
L 556 0 
z
" transform="scale(0.015625)"/>
       <path id="ArialMT-6c" d="M 409 0 
L 409 4581 
L 972 4581 
L 972 0 
L 409 0 
z
" transform="scale(0.015625)"/>
       <path id="ArialMT-75" d="M 2597 0 
L 2597 488 
Q 2209 -75 1544 -75 
Q 1250 -75 995 37 
Q 741 150 617 320 
Q 494 491 444 738 
Q 409 903 409 1263 
L 409 3319 
L 972 3319 
L 972 1478 
Q 972 1038 1006 884 
Q 1059 663 1231 536 
Q 1403 409 1656 409 
Q 1909 409 2131 539 
Q 2353 669 2445 892 
Q 2538 1116 2538 1541 
L 2538 3319 
L 3100 3319 
L 3100 0 
L 2597 0 
z
" transform="scale(0.015625)"/>
       <path id="ArialMT-78" d="M 47 0 
L 1259 1725 
L 138 3319 
L 841 3319 
L 1350 2541 
Q 1494 2319 1581 2169 
Q 1719 2375 1834 2534 
L 2394 3319 
L 3066 3319 
L 1919 1756 
L 3153 0 
L 2463 0 
L 1781 1031 
L 1600 1309 
L 728 0 
L 47 0 
z
" transform="scale(0.015625)"/>
       <path id="ArialMT-2f" d="M 0 -78 
L 1328 4659 
L 1778 4659 
L 453 -78 
L 0 -78 
z
" transform="scale(0.015625)"/>
      </defs>
      <use xlink:href="#ArialMT-4c"/>
      <use xlink:href="#ArialMT-79" x="51.865234"/>
      <use xlink:href="#ArialMT-63" x="101.865234"/>
      <use xlink:href="#ArialMT-6f" x="151.865234"/>
      <use xlink:href="#ArialMT-70" x="207.480469"/>
      <use xlink:href="#ArialMT-65" x="263.095703"/>
      <use xlink:href="#ArialMT-6e" x="318.710938"/>
      <use xlink:href="#ArialMT-65" x="374.326172"/>
      <use xlink:href="#ArialMT-20" x="429.941406"/>
      <use xlink:href="#ArialMT-66" x="457.724609"/>
      <use xlink:href="#ArialMT-6c" x="485.507812"/>
      <use xlink:href="#ArialMT-75" x="507.724609"/>
      <use xlink:href="#ArialMT-78" x="563.339844"/>
      <use xlink:href="#ArialMT-20" x="613.339844"/>
      <use xlink:href="#ArialMT-28" x="641.123047"/>
      <use xlink:href="#ArialMT-b5" x="674.423828"/>
      <use xlink:href="#ArialMT-4d" x="732.041016"/>
      <use xlink:href="#ArialMT-2f" x="815.341797"/>
      <use xlink:href="#ArialMT-68" x="843.125"/>
      <use xlink:href="#ArialMT-29" x="898.740234"/>
     </g>
    </g>
   </g>
   <g id="PolyCollection_1">
    <defs>
     <path id="m365b68f925" d="M 60.698182 -50.836364 
L 60.698182 -50.836364 
L 61.627 -51.56567 
L 62.555818 -52.294926 
L 63.484636 -53.024202 
L 64.413455 -53.753476 
L 65.342273 -54.482747 
L 66.271091 -55.211403 
L 67.199909 -55.940336 
L 68.128727 -56.6692 
L 69.057545 -57.397996 
L 69.986364 -58.126724 
L 70.915182 -58.855398 
L 71.844 -59.584102 
L 72.772818 -60.312755 
L 73.701636 -61.041359 
L 74.630455 -61.769912 
L 75.559273 -62.498416 
L 76.488091 -63.22687 
L 77.416909 -63.955274 
L 78.345727 -64.683628 
L 79.274545 -65.406295 
L 80.203364 -66.125707 
L 81.132182 -66.844265 
L 82.061 -67.56197 
L 82.989818 -68.287724 
L 83.918636 -69.014588 
L 84.847455 -69.741552 
L 85.776273 -70.459835 
L 86.705091 -71.172715 
L 87.633909 -71.892045 
L 88.562727 -72.618043 
L 89.491545 -73.344099 
L 90.420364 -74.070155 
L 91.349182 -74.796211 
L 92.278 -75.522267 
L 93.206818 -76.237978 
L 94.135636 -76.961877 
L 95.064455 -77.687301 
L 95.993273 -78.41271 
L 96.922091 -79.134765 
L 97.850909 -79.853231 
L 98.779727 -80.571345 
L 99.708545 -81.289178 
L 100.637364 -82.006917 
L 101.566182 -82.724319 
L 102.495 -83.441384 
L 103.423818 -84.158112 
L 104.352636 -84.874503 
L 105.281455 -85.590558 
L 106.210273 -86.306278 
L 107.139091 -87.021661 
L 108.067909 -87.743955 
L 108.996727 -88.467407 
L 109.925545 -89.190851 
L 110.854364 -89.914285 
L 111.783182 -90.637711 
L 112.712 -91.361129 
L 113.640818 -92.084538 
L 114.569636 -92.807938 
L 115.498455 -93.53133 
L 116.427273 -94.254713 
L 117.356091 -94.978088 
L 118.284909 -95.701454 
L 119.213727 -96.424812 
L 120.142545 -97.148161 
L 121.071364 -97.863835 
L 122.000182 -98.525744 
L 122.929 -99.185951 
L 123.857818 -99.844461 
L 124.786636 -100.544264 
L 125.715455 -101.252893 
L 126.644273 -101.962223 
L 127.573091 -102.681995 
L 128.501909 -103.401759 
L 129.430727 -104.095736 
L 130.359545 -104.814761 
L 131.288364 -105.507476 
L 132.217182 -106.226502 
L 133.146 -106.945703 
L 134.074818 -107.633867 
L 135.003636 -108.32274 
L 135.932455 -109.021306 
L 136.861273 -109.724922 
L 137.790091 -110.402692 
L 138.718909 -111.06795 
L 139.647727 -111.769863 
L 140.576545 -112.462118 
L 141.505364 -113.171606 
L 142.434182 -113.880933 
L 143.363 -114.587716 
L 144.291818 -115.289062 
L 145.220636 -115.915075 
L 146.149455 -116.53936 
L 147.078273 -117.161924 
L 148.007091 -117.782774 
L 148.935909 -118.420973 
L 149.864727 -119.130762 
L 150.793545 -119.840761 
L 151.722364 -120.550734 
L 152.651182 -121.26068 
L 153.58 -121.970622 
L 154.508818 -122.681965 
L 155.437636 -123.393307 
L 156.366455 -124.10465 
L 157.295273 -124.810054 
L 158.224091 -125.482818 
L 159.152909 -126.106735 
L 160.081727 -126.665985 
L 161.010545 -127.32413 
L 161.939364 -128.028441 
L 162.868182 -128.735059 
L 163.797 -129.443228 
L 164.725818 -130.151398 
L 165.654636 -130.831647 
L 166.583455 -131.469498 
L 167.512273 -132.05669 
L 168.441091 -132.640069 
L 169.369909 -133.217458 
L 170.298727 -133.797927 
L 171.227545 -134.37819 
L 172.156364 -135.056248 
L 173.085182 -135.71802 
L 174.014 -136.240948 
L 174.942818 -136.892604 
L 175.871636 -137.555955 
L 176.800455 -138.180731 
L 177.729273 -138.732727 
L 178.658091 -139.252692 
L 179.586909 -139.834334 
L 180.515727 -140.497864 
L 181.444545 -141.188791 
L 182.373364 -141.880906 
L 183.302182 -142.461014 
L 184.231 -142.949463 
L 185.159818 -143.633592 
L 186.088636 -144.17215 
L 187.017455 -144.663448 
L 187.946273 -145.212438 
L 188.875091 -145.726743 
L 189.803909 -146.262808 
L 190.732727 -146.832857 
L 191.661545 -147.31507 
L 192.590364 -147.795258 
L 193.519182 -148.273434 
L 194.448 -148.776271 
L 195.376818 -149.347714 
L 196.305636 -149.792425 
L 197.234455 -150.274393 
L 198.163273 -150.770132 
L 199.092091 -151.297227 
L 200.020909 -151.889441 
L 200.949727 -152.246839 
L 201.878545 -152.731966 
L 202.807364 -153.220099 
L 203.736182 -153.708174 
L 204.665 -154.146417 
L 205.593818 -154.573766 
L 206.522636 -155.089674 
L 207.451455 -155.604112 
L 208.380273 -156.094875 
L 209.309091 -156.522152 
L 210.237909 -156.965563 
L 211.166727 -157.395467 
L 212.095545 -157.77901 
L 213.024364 -158.206738 
L 213.953182 -158.611956 
L 214.882 -159.017325 
L 215.810818 -159.341287 
L 216.739636 -159.637956 
L 217.668455 -159.991678 
L 218.597273 -160.329993 
L 219.526091 -160.784582 
L 220.454909 -161.115799 
L 221.383727 -161.446319 
L 222.312545 -161.773893 
L 223.241364 -162.093663 
L 224.170182 -162.421725 
L 225.099 -162.768697 
L 226.027818 -163.108445 
L 226.956636 -163.430268 
L 227.885455 -163.866819 
L 228.814273 -164.141522 
L 229.743091 -164.414523 
L 230.671909 -164.685839 
L 231.600727 -164.969431 
L 232.529545 -165.277694 
L 233.458364 -165.487321 
L 234.387182 -165.826511 
L 235.316 -166.195939 
L 236.244818 -166.502111 
L 237.173636 -166.851241 
L 238.102455 -167.198798 
L 239.031273 -167.518345 
L 239.960091 -167.741481 
L 240.888909 -167.975934 
L 241.817727 -168.200913 
L 242.746545 -168.431288 
L 243.675364 -168.741515 
L 244.604182 -168.976806 
L 245.533 -169.202047 
L 245.533 -204.285084 
L 245.533 -204.285084 
L 244.604182 -203.679783 
L 243.675364 -203.008888 
L 242.746545 -202.310513 
L 241.817727 -201.666936 
L 240.888909 -201.02055 
L 239.960091 -200.37058 
L 239.031273 -199.643458 
L 238.102455 -198.869528 
L 237.173636 -198.094485 
L 236.244818 -197.423833 
L 235.316 -196.780051 
L 234.387182 -196.084132 
L 233.458364 -195.320074 
L 232.529545 -194.606584 
L 231.600727 -193.88142 
L 230.671909 -193.205821 
L 229.743091 -192.662345 
L 228.814273 -192.056333 
L 227.885455 -191.276654 
L 226.956636 -190.566881 
L 226.027818 -189.828508 
L 225.099 -189.211768 
L 224.170182 -188.578165 
L 223.241364 -187.975834 
L 222.312545 -187.360581 
L 221.383727 -186.739881 
L 220.454909 -186.115888 
L 219.526091 -185.490401 
L 218.597273 -184.918994 
L 217.668455 -184.310914 
L 216.739636 -183.641309 
L 215.810818 -182.982333 
L 214.882 -182.427822 
L 213.953182 -181.854682 
L 213.024364 -181.252607 
L 212.095545 -180.703368 
L 211.166727 -180.14602 
L 210.237909 -179.38478 
L 209.309091 -178.7806 
L 208.380273 -178.298412 
L 207.451455 -177.59133 
L 206.522636 -176.79137 
L 205.593818 -176.034389 
L 204.665 -175.401088 
L 203.736182 -174.817688 
L 202.807364 -174.102593 
L 201.878545 -173.388139 
L 200.949727 -172.677674 
L 200.020909 -172.02081 
L 199.092091 -171.360579 
L 198.163273 -170.697374 
L 197.234455 -169.971965 
L 196.305636 -169.368031 
L 195.376818 -168.809155 
L 194.448 -168.255437 
L 193.519182 -167.697201 
L 192.590364 -167.193724 
L 191.661545 -166.668041 
L 190.732727 -166.014512 
L 189.803909 -165.446535 
L 188.875091 -164.845394 
L 187.946273 -164.250018 
L 187.017455 -163.688735 
L 186.088636 -162.984757 
L 185.159818 -162.395322 
L 184.231 -161.767088 
L 183.302182 -161.216899 
L 182.373364 -160.633896 
L 181.444545 -160.098834 
L 180.515727 -159.494504 
L 179.586909 -158.819812 
L 178.658091 -158.297197 
L 177.729273 -157.778993 
L 176.800455 -157.258739 
L 175.871636 -156.747989 
L 174.942818 -156.212164 
L 174.014 -155.683927 
L 173.085182 -155.148533 
L 172.156364 -154.501558 
L 171.227545 -153.893979 
L 170.298727 -153.253418 
L 169.369909 -152.783005 
L 168.441091 -152.271093 
L 167.512273 -151.657974 
L 166.583455 -151.059196 
L 165.654636 -150.456166 
L 164.725818 -149.764553 
L 163.797 -149.104349 
L 162.868182 -148.522732 
L 161.939364 -147.972503 
L 161.010545 -147.387431 
L 160.081727 -146.990204 
L 159.152909 -146.309658 
L 158.224091 -145.683572 
L 157.295273 -145.138159 
L 156.366455 -144.588577 
L 155.437636 -144.034778 
L 154.508818 -143.476712 
L 153.58 -142.898793 
L 152.651182 -142.350534 
L 151.722364 -141.791201 
L 150.793545 -141.165984 
L 149.864727 -140.61756 
L 148.935909 -140.026583 
L 148.007091 -139.457648 
L 147.078273 -138.807462 
L 146.149455 -138.169888 
L 145.220636 -137.532341 
L 144.291818 -136.89172 
L 143.363 -136.247576 
L 142.434182 -135.598693 
L 141.505364 -134.94502 
L 140.576545 -134.282412 
L 139.647727 -133.61482 
L 138.718909 -132.898818 
L 137.790091 -132.129644 
L 136.861273 -131.45632 
L 135.932455 -130.903691 
L 135.003636 -130.302558 
L 134.074818 -129.862158 
L 133.146 -129.317699 
L 132.217182 -128.678063 
L 131.288364 -127.914632 
L 130.359545 -127.146271 
L 129.430727 -126.3725 
L 128.501909 -125.593143 
L 127.573091 -124.831904 
L 126.644273 -124.200257 
L 125.715455 -123.561727 
L 124.786636 -122.830519 
L 123.857818 -122.055472 
L 122.929 -121.273536 
L 122.000182 -120.485663 
L 121.071364 -119.79469 
L 120.142545 -119.131843 
L 119.213727 -118.366908 
L 118.284909 -117.578302 
L 117.356091 -116.861439 
L 116.427273 -116.065869 
L 115.498455 -115.257083 
L 114.569636 -114.482454 
L 113.640818 -113.705785 
L 112.712 -112.875243 
L 111.783182 -112.058062 
L 110.854364 -111.256561 
L 109.925545 -110.445904 
L 108.996727 -109.593027 
L 108.067909 -108.721633 
L 107.139091 -107.895864 
L 106.210273 -107.069108 
L 105.281455 -106.190321 
L 104.352636 -105.284101 
L 103.423818 -104.369585 
L 102.495 -103.446658 
L 101.566182 -102.515203 
L 100.637364 -101.652959 
L 99.708545 -100.765192 
L 98.779727 -99.823179 
L 97.850909 -98.888904 
L 96.922091 -97.94256 
L 95.993273 -96.959599 
L 95.064455 -95.96829 
L 94.135636 -94.967118 
L 93.206818 -94.014747 
L 92.278 -93.080047 
L 91.349182 -92.131802 
L 90.420364 -91.169077 
L 89.491545 -90.192376 
L 88.562727 -89.179267 
L 87.633909 -88.123576 
L 86.705091 -87.054288 
L 85.776273 -85.97166 
L 84.847455 -84.87588 
L 83.918636 -83.766706 
L 82.989818 -82.662013 
L 82.061 -81.57957 
L 81.132182 -80.440901 
L 80.203364 -79.275289 
L 79.274545 -78.094733 
L 78.345727 -76.898943 
L 77.416909 -75.686947 
L 76.488091 -74.458906 
L 75.559273 -73.214798 
L 74.630455 -71.954304 
L 73.701636 -70.693477 
L 72.772818 -69.438681 
L 71.844 -68.161426 
L 70.915182 -66.861103 
L 69.986364 -65.537081 
L 69.057545 -64.178112 
L 68.128727 -62.783359 
L 67.199909 -61.367211 
L 66.271091 -59.929983 
L 65.342273 -58.471202 
L 64.413455 -56.990379 
L 63.484636 -55.486253 
L 62.555818 -53.958337 
L 61.627 -52.408532 
L 60.698182 -50.836364 
z
" style="stroke: #ef553b; stroke-opacity: 0.3"/>
    </defs>
    <g clip-path="url(#p1645223614)">
     <use xlink:href="#m365b68f925" x="0" y="252" style="fill: #ef553b; fill-opacity: 0.3; stroke: #ef553b; stroke-opacity: 0.3"/>
    </g>
   </g>
   <g id="line2d_14">
    <defs>
     <path id="m184405e772" d="M 0 2.5 
C 0.663008 2.5 1.29895 2.236584 1.767767 1.767767 
C 2.236584 1.29895 2.5 0.663008 2.5 0 
C 2.5 -0.663008 2.236584 -1.29895 1.767767 -1.767767 
C 1.29895 -2.236584 0.663008 -2.5 0 -2.5 
C -0.663008 -2.5 -1.29895 -2.236584 -1.767767 -1.767767 
C -2.236584 -1.29895 -2.5 -0.663008 -2.5 0 
C -2.5 0.663008 -2.236584 1.29895 -1.767767 1.767767 
C -1.29895 2.236584 -0.663008 2.5 0 2.5 
z
" style="stroke: #225a8c"/>
    </defs>
    <g clip-path="url(#p1645223614)">
     <use xlink:href="#m184405e772" x="141.887818" y="151.168528" style="fill: #5b9bd5; stroke: #225a8c"/>
     <use xlink:href="#m184405e772" x="147.533576" y="153.579007" style="fill: #5b9bd5; stroke: #225a8c"/>
     <use xlink:href="#m184405e772" x="61.098848" y="201.163636" style="fill: #5b9bd5; stroke: #225a8c"/>
     <use xlink:href="#m184405e772" x="61.062424" y="201.163636" style="fill: #5b9bd5; stroke: #225a8c"/>
     <use xlink:href="#m184405e772" x="185.888303" y="136.705658" style="fill: #5b9bd5; stroke: #225a8c"/>
     <use xlink:href="#m184405e772" x="189.421455" y="131.527593" style="fill: #5b9bd5; stroke: #225a8c"/>
     <use xlink:href="#m184405e772" x="182.865091" y="151.168528" style="fill: #5b9bd5; stroke: #225a8c"/>
     <use xlink:href="#m184405e772" x="164.361576" y="160.185503" style="fill: #5b9bd5; stroke: #225a8c"/>
     <use xlink:href="#m184405e772" x="89.910424" y="179.112223" style="fill: #5b9bd5; stroke: #225a8c"/>
     <use xlink:href="#m184405e772" x="93.188606" y="173.710965" style="fill: #5b9bd5; stroke: #225a8c"/>
     <use xlink:href="#m184405e772" x="142.252061" y="157.239363" style="fill: #5b9bd5; stroke: #225a8c"/>
     <use xlink:href="#m184405e772" x="132.344667" y="164.560075" style="fill: #5b9bd5; stroke: #225a8c"/>
     <use xlink:href="#m184405e772" x="61.208121" y="199.244181" style="fill: #5b9bd5; stroke: #225a8c"/>
     <use xlink:href="#m184405e772" x="61.353818" y="201.163636" style="fill: #5b9bd5; stroke: #225a8c"/>
     <use xlink:href="#m184405e772" x="61.171697" y="199.690566" style="fill: #5b9bd5; stroke: #225a8c"/>
     <use xlink:href="#m184405e772" x="153.980667" y="125.278204" style="fill: #5b9bd5; stroke: #225a8c"/>
     <use xlink:href="#m184405e772" x="151.722364" y="120.234055" style="fill: #5b9bd5; stroke: #225a8c"/>
     <use xlink:href="#m184405e772" x="150.957455" y="116.796891" style="fill: #5b9bd5; stroke: #225a8c"/>
     <use xlink:href="#m184405e772" x="246.461818" y="69.122984" style="fill: #5b9bd5; stroke: #225a8c"/>
     <use xlink:href="#m184405e772" x="234.878909" y="87.201573" style="fill: #5b9bd5; stroke: #225a8c"/>
     <use xlink:href="#m184405e772" x="230.070909" y="38.054596" style="fill: #5b9bd5; stroke: #225a8c"/>
     <use xlink:href="#m184405e772" x="223.842364" y="87.067657" style="fill: #5b9bd5; stroke: #225a8c"/>
     <use xlink:href="#m184405e772" x="219.180061" y="85.460672" style="fill: #5b9bd5; stroke: #225a8c"/>
     <use xlink:href="#m184405e772" x="215.246242" y="116.171952" style="fill: #5b9bd5; stroke: #225a8c"/>
     <use xlink:href="#m184405e772" x="61.28097" y="199.333458" style="fill: #5b9bd5; stroke: #225a8c"/>
     <use xlink:href="#m184405e772" x="61.135273" y="199.333458" style="fill: #5b9bd5; stroke: #225a8c"/>
     <use xlink:href="#m184405e772" x="61.317394" y="199.333458" style="fill: #5b9bd5; stroke: #225a8c"/>
     <use xlink:href="#m184405e772" x="215.319091" y="27.29672" style="fill: #5b9bd5; stroke: #225a8c"/>
     <use xlink:href="#m184405e772" x="205.921636" y="32.787254" style="fill: #5b9bd5; stroke: #225a8c"/>
     <use xlink:href="#m184405e772" x="217.395273" y="23.636364" style="fill: #5b9bd5; stroke: #225a8c"/>
     <use xlink:href="#m184405e772" x="102.403939" y="95.013308" style="fill: #5b9bd5; stroke: #225a8c"/>
     <use xlink:href="#m184405e772" x="105.427152" y="93.18313" style="fill: #5b9bd5; stroke: #225a8c"/>
     <use xlink:href="#m184405e772" x="103.860909" y="84.03224" style="fill: #5b9bd5; stroke: #225a8c"/>
     <use xlink:href="#m184405e772" x="60.698182" y="201.163636" style="fill: #5b9bd5; stroke: #225a8c"/>
     <use xlink:href="#m184405e772" x="140.503697" y="120.635801" style="fill: #5b9bd5; stroke: #225a8c"/>
     <use xlink:href="#m184405e772" x="152.12303" y="111.484911" style="fill: #5b9bd5; stroke: #225a8c"/>
    </g>
   </g>
   <g id="line2d_15">
    <path d="M 60.698182 201.163636 
L 68.128727 193.279009 
L 76.488091 184.753209 
L 84.847455 176.570856 
L 93.206818 168.711607 
L 101.566182 161.156694 
L 109.925545 153.888775 
L 118.284909 146.891802 
L 127.573091 139.41711 
L 136.861273 132.239719 
L 146.149455 125.342238 
L 155.437636 118.708605 
L 165.654636 111.698658 
L 175.871636 104.971766 
L 186.088636 98.511124 
L 196.305636 92.301233 
L 207.451455 85.795986 
L 218.597273 79.554986 
L 229.743091 73.562451 
L 241.817727 67.334078 
L 245.533 65.470217 
L 245.533 65.470217 
" clip-path="url(#p1645223614)" style="fill: none; stroke: #ef553b; stroke-width: 1.5; stroke-linecap: round"/>
   </g>
   <g id="patch_3">
    <path d="M 51.41 210.04 
L 51.41 14.76 
" style="fill: none; stroke: #262626; stroke-width: 0.8; stroke-linejoin: miter; stroke-linecap: square"/>
   </g>
   <g id="patch_4">
    <path d="M 255.75 210.04 
L 255.75 14.76 
" style="fill: none; stroke: #262626; stroke-width: 0.8; stroke-linejoin: miter; stroke-linecap: square"/>
   </g>
   <g id="patch_5">
    <path d="M 51.41 210.04 
L 255.75 210.04 
" style="fill: none; stroke: #262626; stroke-width: 0.8; stroke-linejoin: miter; stroke-linecap: square"/>
   </g>
   <g id="patch_6">
    <path d="M 51.41 14.76 
L 255.75 14.76 
" style="fill: none; stroke: #262626; stroke-width: 0.8; stroke-linejoin: miter; stroke-linecap: square"/>
   </g>
   <g id="legend_1">
    <g id="patch_7">
     <path d="M 58.41 51.289687 
L 162.095938 51.289687 
Q 164.095938 51.289687 164.095938 49.289687 
L 164.095938 21.76 
Q 164.095938 19.76 162.095938 19.76 
L 58.41 19.76 
Q 56.41 19.76 56.41 21.76 
L 56.41 49.289687 
Q 56.41 51.289687 58.41 51.289687 
z
" style="fill: #ffffff; opacity: 0.8; stroke: #cccccc; stroke-linejoin: miter"/>
    </g>
    <g id="line2d_16">
     <g>
      <use xlink:href="#m184405e772" x="70.41" y="27.417812" style="fill: #5b9bd5; stroke: #225a8c"/>
     </g>
    </g>
    <g id="text_16">
     <!-- PaCrtI -->
     <g style="fill: #262626" transform="translate(88.41 30.917812) scale(0.1 -0.1)">
      <defs>
       <path id="ArialMT-61" d="M 2588 409 
Q 2275 144 1986 34 
Q 1697 -75 1366 -75 
Q 819 -75 525 192 
Q 231 459 231 875 
Q 231 1119 342 1320 
Q 453 1522 633 1644 
Q 813 1766 1038 1828 
Q 1203 1872 1538 1913 
Q 2219 1994 2541 2106 
Q 2544 2222 2544 2253 
Q 2544 2597 2384 2738 
Q 2169 2928 1744 2928 
Q 1347 2928 1158 2789 
Q 969 2650 878 2297 
L 328 2372 
Q 403 2725 575 2942 
Q 747 3159 1072 3276 
Q 1397 3394 1825 3394 
Q 2250 3394 2515 3294 
Q 2781 3194 2906 3042 
Q 3031 2891 3081 2659 
Q 3109 2516 3109 2141 
L 3109 1391 
Q 3109 606 3145 398 
Q 3181 191 3288 0 
L 2700 0 
Q 2613 175 2588 409 
z
M 2541 1666 
Q 2234 1541 1622 1453 
Q 1275 1403 1131 1340 
Q 988 1278 909 1158 
Q 831 1038 831 891 
Q 831 666 1001 516 
Q 1172 366 1500 366 
Q 1825 366 2078 508 
Q 2331 650 2450 897 
Q 2541 1088 2541 1459 
L 2541 1666 
z
" transform="scale(0.015625)"/>
       <path id="ArialMT-43" d="M 3763 1606 
L 4369 1453 
Q 4178 706 3683 314 
Q 3188 -78 2472 -78 
Q 1731 -78 1267 223 
Q 803 525 561 1097 
Q 319 1669 319 2325 
Q 319 3041 592 3573 
Q 866 4106 1370 4382 
Q 1875 4659 2481 4659 
Q 3169 4659 3637 4309 
Q 4106 3959 4291 3325 
L 3694 3184 
Q 3534 3684 3231 3912 
Q 2928 4141 2469 4141 
Q 1941 4141 1586 3887 
Q 1231 3634 1087 3207 
Q 944 2781 944 2328 
Q 944 1744 1114 1308 
Q 1284 872 1643 656 
Q 2003 441 2422 441 
Q 2931 441 3284 734 
Q 3638 1028 3763 1606 
z
" transform="scale(0.015625)"/>
       <path id="ArialMT-72" d="M 416 0 
L 416 3319 
L 922 3319 
L 922 2816 
Q 1116 3169 1280 3281 
Q 1444 3394 1641 3394 
Q 1925 3394 2219 3213 
L 2025 2691 
Q 1819 2813 1613 2813 
Q 1428 2813 1281 2702 
Q 1134 2591 1072 2394 
Q 978 2094 978 1738 
L 978 0 
L 416 0 
z
" transform="scale(0.015625)"/>
       <path id="ArialMT-49" d="M 597 0 
L 597 4581 
L 1203 4581 
L 1203 0 
L 597 0 
z
" transform="scale(0.015625)"/>
      </defs>
      <use xlink:href="#ArialMT-50"/>
      <use xlink:href="#ArialMT-61" x="66.699219"/>
      <use xlink:href="#ArialMT-43" x="122.314453"/>
      <use xlink:href="#ArialMT-72" x="194.53125"/>
      <use xlink:href="#ArialMT-74" x="227.832031"/>
      <use xlink:href="#ArialMT-49" x="255.615234"/>
     </g>
    </g>
    <g id="line2d_17">
     <path d="M 60.41 41.685 
L 70.41 41.685 
L 80.41 41.685 
" style="fill: none; stroke: #ef553b; stroke-width: 1.5; stroke-linecap: round"/>
    </g>
    <g id="text_17">
     <!-- best fit (95% CI) -->
     <g style="fill: #262626" transform="translate(88.41 45.185) scale(0.1 -0.1)">
      <defs>
       <path id="ArialMT-62" d="M 941 0 
L 419 0 
L 419 4581 
L 981 4581 
L 981 2947 
Q 1338 3394 1891 3394 
Q 2197 3394 2470 3270 
Q 2744 3147 2920 2923 
Q 3097 2700 3197 2384 
Q 3297 2069 3297 1709 
Q 3297 856 2875 390 
Q 2453 -75 1863 -75 
Q 1275 -75 941 416 
L 941 0 
z
M 934 1684 
Q 934 1088 1097 822 
Q 1363 388 1816 388 
Q 2184 388 2453 708 
Q 2722 1028 2722 1663 
Q 2722 2313 2464 2622 
Q 2206 2931 1841 2931 
Q 1472 2931 1203 2611 
Q 934 2291 934 1684 
z
" transform="scale(0.015625)"/>
       <path id="ArialMT-73" d="M 197 991 
L 753 1078 
Q 800 744 1014 566 
Q 1228 388 1613 388 
Q 2000 388 2187 545 
Q 2375 703 2375 916 
Q 2375 1106 2209 1216 
Q 2094 1291 1634 1406 
Q 1016 1563 777 1677 
Q 538 1791 414 1992 
Q 291 2194 291 2438 
Q 291 2659 392 2848 
Q 494 3038 669 3163 
Q 800 3259 1026 3326 
Q 1253 3394 1513 3394 
Q 1903 3394 2198 3281 
Q 2494 3169 2634 2976 
Q 2775 2784 2828 2463 
L 2278 2388 
Q 2241 2644 2061 2787 
Q 1881 2931 1553 2931 
Q 1166 2931 1000 2803 
Q 834 2675 834 2503 
Q 834 2394 903 2306 
Q 972 2216 1119 2156 
Q 1203 2125 1616 2013 
Q 2213 1853 2448 1751 
Q 2684 1650 2818 1456 
Q 2953 1263 2953 975 
Q 2953 694 2789 445 
Q 2625 197 2315 61 
Q 2006 -75 1616 -75 
Q 969 -75 630 194 
Q 291 463 197 991 
z
" transform="scale(0.015625)"/>
       <path id="ArialMT-69" d="M 425 3934 
L 425 4581 
L 988 4581 
L 988 3934 
L 425 3934 
z
M 425 0 
L 425 3319 
L 988 3319 
L 988 0 
L 425 0 
z
" transform="scale(0.015625)"/>
       <path id="ArialMT-39" d="M 350 1059 
L 891 1109 
Q 959 728 1153 556 
Q 1347 384 1650 384 
Q 1909 384 2104 503 
Q 2300 622 2425 820 
Q 2550 1019 2634 1356 
Q 2719 1694 2719 2044 
Q 2719 2081 2716 2156 
Q 2547 1888 2255 1720 
Q 1963 1553 1622 1553 
Q 1053 1553 659 1965 
Q 266 2378 266 3053 
Q 266 3750 677 4175 
Q 1088 4600 1706 4600 
Q 2153 4600 2523 4359 
Q 2894 4119 3086 3673 
Q 3278 3228 3278 2384 
Q 3278 1506 3087 986 
Q 2897 466 2520 194 
Q 2144 -78 1638 -78 
Q 1100 -78 759 220 
Q 419 519 350 1059 
z
M 2653 3081 
Q 2653 3566 2395 3850 
Q 2138 4134 1775 4134 
Q 1400 4134 1122 3828 
Q 844 3522 844 3034 
Q 844 2597 1108 2323 
Q 1372 2050 1759 2050 
Q 2150 2050 2401 2323 
Q 2653 2597 2653 3081 
z
" transform="scale(0.015625)"/>
       <path id="ArialMT-25" d="M 372 3481 
Q 372 3972 619 4315 
Q 866 4659 1334 4659 
Q 1766 4659 2048 4351 
Q 2331 4044 2331 3447 
Q 2331 2866 2045 2552 
Q 1759 2238 1341 2238 
Q 925 2238 648 2547 
Q 372 2856 372 3481 
z
M 1350 4272 
Q 1141 4272 1002 4090 
Q 863 3909 863 3425 
Q 863 2984 1003 2804 
Q 1144 2625 1350 2625 
Q 1563 2625 1702 2806 
Q 1841 2988 1841 3469 
Q 1841 3913 1700 4092 
Q 1559 4272 1350 4272 
z
M 1353 -169 
L 3859 4659 
L 4316 4659 
L 1819 -169 
L 1353 -169 
z
M 3334 1075 
Q 3334 1569 3581 1911 
Q 3828 2253 4300 2253 
Q 4731 2253 5014 1945 
Q 5297 1638 5297 1041 
Q 5297 459 5011 145 
Q 4725 -169 4303 -169 
Q 3888 -169 3611 142 
Q 3334 453 3334 1075 
z
M 4316 1866 
Q 4103 1866 3964 1684 
Q 3825 1503 3825 1019 
Q 3825 581 3965 400 
Q 4106 219 4313 219 
Q 4528 219 4667 400 
Q 4806 581 4806 1063 
Q 4806 1506 4665 1686 
Q 4525 1866 4316 1866 
z
" transform="scale(0.015625)"/>
      </defs>
      <use xlink:href="#ArialMT-62"/>
      <use xlink:href="#ArialMT-65" x="55.615234"/>
      <use xlink:href="#ArialMT-73" x="111.230469"/>
      <use xlink:href="#ArialMT-74" x="161.230469"/>
      <use xlink:href="#ArialMT-20" x="189.013672"/>
      <use xlink:href="#ArialMT-66" x="216.796875"/>
      <use xlink:href="#ArialMT-69" x="244.580078"/>
      <use xlink:href="#ArialMT-74" x="266.796875"/>
      <use xlink:href="#ArialMT-20" x="294.580078"/>
      <use xlink:href="#ArialMT-28" x="322.363281"/>
      <use xlink:href="#ArialMT-39" x="355.664062"/>
      <use xlink:href="#ArialMT-35" x="411.279297"/>
      <use xlink:href="#ArialMT-25" x="466.894531"/>
      <use xlink:href="#ArialMT-20" x="555.810547"/>
      <use xlink:href="#ArialMT-43" x="583.59375"/>
      <use xlink:href="#ArialMT-49" x="655.810547"/>
      <use xlink:href="#ArialMT-29" x="683.59375"/>
     </g>
    </g>
   </g>
  </g>
  <g id="axes_2">
   <g id="patch_8">
    <path d="M 314.135 210.04 
L 518.475 210.04 
L 518.475 14.76 
L 314.135 14.76 
z
" style="fill: #ffffff"/>
   </g>
   <g id="matplotlib.axis_3">
    <g id="xtick_6">
     <g id="text_18">
      <!-- 0.0 -->
      <g style="fill: #262626" transform="translate(307.185 224.197812) scale(0.1 -0.1)">
       <use xlink:href="#ArialMT-30"/>
       <use xlink:href="#ArialMT-2e" x="55.615234"/>
       <use xlink:href="#ArialMT-30" x="83.398438"/>
      </g>
     </g>
    </g>
    <g id="xtick_7">
     <g id="text_19">
      <!-- 0.2 -->
      <g style="fill: #262626" transform="translate(348.053 224.197812) scale(0.1 -0.1)">
       <use xlink:href="#ArialMT-30"/>
       <use xlink:href="#ArialMT-2e" x="55.615234"/>
       <use xlink:href="#ArialMT-32" x="83.398438"/>
      </g>
     </g>
    </g>
    <g id="xtick_8">
     <g id="text_20">
      <!-- 0.4 -->
      <g style="fill: #262626" transform="translate(388.921 224.197812) scale(0.1 -0.1)">
       <defs>
        <path id="ArialMT-34" d="M 2069 0 
L 2069 1097 
L 81 1097 
L 81 1613 
L 2172 4581 
L 2631 4581 
L 2631 1613 
L 3250 1613 
L 3250 1097 
L 2631 1097 
L 2631 0 
L 2069 0 
z
M 2069 1613 
L 2069 3678 
L 634 1613 
L 2069 1613 
z
" transform="scale(0.015625)"/>
       </defs>
       <use xlink:href="#ArialMT-30"/>
       <use xlink:href="#ArialMT-2e" x="55.615234"/>
       <use xlink:href="#ArialMT-34" x="83.398438"/>
      </g>
     </g>
    </g>
    <g id="xtick_9">
     <g id="text_21">
      <!-- 0.6 -->
      <g style="fill: #262626" transform="translate(429.789 224.197812) scale(0.1 -0.1)">
       <defs>
        <path id="ArialMT-36" d="M 3184 3459 
L 2625 3416 
Q 2550 3747 2413 3897 
Q 2184 4138 1850 4138 
Q 1581 4138 1378 3988 
Q 1113 3794 959 3422 
Q 806 3050 800 2363 
Q 1003 2672 1297 2822 
Q 1591 2972 1913 2972 
Q 2475 2972 2870 2558 
Q 3266 2144 3266 1488 
Q 3266 1056 3080 686 
Q 2894 316 2569 119 
Q 2244 -78 1831 -78 
Q 1128 -78 684 439 
Q 241 956 241 2144 
Q 241 3472 731 4075 
Q 1159 4600 1884 4600 
Q 2425 4600 2770 4297 
Q 3116 3994 3184 3459 
z
M 888 1484 
Q 888 1194 1011 928 
Q 1134 663 1356 523 
Q 1578 384 1822 384 
Q 2178 384 2434 671 
Q 2691 959 2691 1453 
Q 2691 1928 2437 2201 
Q 2184 2475 1800 2475 
Q 1419 2475 1153 2201 
Q 888 1928 888 1484 
z
" transform="scale(0.015625)"/>
       </defs>
       <use xlink:href="#ArialMT-30"/>
       <use xlink:href="#ArialMT-2e" x="55.615234"/>
       <use xlink:href="#ArialMT-36" x="83.398438"/>
      </g>
     </g>
    </g>
    <g id="xtick_10">
     <g id="text_22">
      <!-- 0.8 -->
      <g style="fill: #262626" transform="translate(470.657 224.197812) scale(0.1 -0.1)">
       <defs>
        <path id="ArialMT-38" d="M 1131 2484 
Q 781 2613 612 2850 
Q 444 3088 444 3419 
Q 444 3919 803 4259 
Q 1163 4600 1759 4600 
Q 2359 4600 2725 4251 
Q 3091 3903 3091 3403 
Q 3091 3084 2923 2848 
Q 2756 2613 2416 2484 
Q 2838 2347 3058 2040 
Q 3278 1734 3278 1309 
Q 3278 722 2862 322 
Q 2447 -78 1769 -78 
Q 1091 -78 675 323 
Q 259 725 259 1325 
Q 259 1772 486 2073 
Q 713 2375 1131 2484 
z
M 1019 3438 
Q 1019 3113 1228 2906 
Q 1438 2700 1772 2700 
Q 2097 2700 2305 2904 
Q 2513 3109 2513 3406 
Q 2513 3716 2298 3927 
Q 2084 4138 1766 4138 
Q 1444 4138 1231 3931 
Q 1019 3725 1019 3438 
z
M 838 1322 
Q 838 1081 952 856 
Q 1066 631 1291 507 
Q 1516 384 1775 384 
Q 2178 384 2440 643 
Q 2703 903 2703 1303 
Q 2703 1709 2433 1975 
Q 2163 2241 1756 2241 
Q 1359 2241 1098 1978 
Q 838 1716 838 1322 
z
" transform="scale(0.015625)"/>
       </defs>
       <use xlink:href="#ArialMT-30"/>
       <use xlink:href="#ArialMT-2e" x="55.615234"/>
       <use xlink:href="#ArialMT-38" x="83.398438"/>
      </g>
     </g>
    </g>
    <g id="xtick_11">
     <g id="text_23">
      <!-- 1.0 -->
      <g style="fill: #262626" transform="translate(511.525 224.197812) scale(0.1 -0.1)">
       <use xlink:href="#ArialMT-31"/>
       <use xlink:href="#ArialMT-2e" x="55.615234"/>
       <use xlink:href="#ArialMT-30" x="83.398438"/>
      </g>
     </g>
    </g>
   </g>
   <g id="matplotlib.axis_4">
    <g id="ytick_9">
     <g id="text_24">
      <!-- 0.0 -->
      <g style="fill: #262626" transform="translate(293.235 213.618906) scale(0.1 -0.1)">
       <use xlink:href="#ArialMT-30"/>
       <use xlink:href="#ArialMT-2e" x="55.615234"/>
       <use xlink:href="#ArialMT-30" x="83.398438"/>
      </g>
     </g>
    </g>
    <g id="ytick_10">
     <g id="text_25">
      <!-- 0.2 -->
      <g style="fill: #262626" transform="translate(293.235 174.562906) scale(0.1 -0.1)">
       <use xlink:href="#ArialMT-30"/>
       <use xlink:href="#ArialMT-2e" x="55.615234"/>
       <use xlink:href="#ArialMT-32" x="83.398438"/>
      </g>
     </g>
    </g>
    <g id="ytick_11">
     <g id="text_26">
      <!-- 0.4 -->
      <g style="fill: #262626" transform="translate(293.235 135.506906) scale(0.1 -0.1)">
       <use xlink:href="#ArialMT-30"/>
       <use xlink:href="#ArialMT-2e" x="55.615234"/>
       <use xlink:href="#ArialMT-34" x="83.398438"/>
      </g>
     </g>
    </g>
    <g id="ytick_12">
     <g id="text_27">
      <!-- 0.6 -->
      <g style="fill: #262626" transform="translate(293.235 96.450906) scale(0.1 -0.1)">
       <use xlink:href="#ArialMT-30"/>
       <use xlink:href="#ArialMT-2e" x="55.615234"/>
       <use xlink:href="#ArialMT-36" x="83.398438"/>
      </g>
     </g>
    </g>
    <g id="ytick_13">
     <g id="text_28">
      <!-- 0.8 -->
      <g style="fill: #262626" transform="translate(293.235 57.394906) scale(0.1 -0.1)">
       <use xlink:href="#ArialMT-30"/>
       <use xlink:href="#ArialMT-2e" x="55.615234"/>
       <use xlink:href="#ArialMT-38" x="83.398438"/>
      </g>
     </g>
    </g>
    <g id="ytick_14">
     <g id="text_29">
      <!-- 1.0 -->
      <g style="fill: #262626" transform="translate(293.235 18.338906) scale(0.1 -0.1)">
       <use xlink:href="#ArialMT-31"/>
       <use xlink:href="#ArialMT-2e" x="55.615234"/>
       <use xlink:href="#ArialMT-30" x="83.398438"/>
      </g>
     </g>
    </g>
   </g>
   <g id="patch_9">
    <path d="M 314.135 210.04 
L 314.135 14.76 
" style="fill: none; stroke: #262626; stroke-width: 0.8; stroke-linejoin: miter; stroke-linecap: square"/>
   </g>
   <g id="patch_10">
    <path d="M 518.475 210.04 
L 518.475 14.76 
" style="fill: none; stroke: #262626; stroke-width: 0.8; stroke-linejoin: miter; stroke-linecap: square"/>
   </g>
   <g id="patch_11">
    <path d="M 314.135 210.04 
L 518.475 210.04 
" style="fill: none; stroke: #262626; stroke-width: 0.8; stroke-linejoin: miter; stroke-linecap: square"/>
   </g>
   <g id="patch_12">
    <path d="M 314.135 14.76 
L 518.475 14.76 
" style="fill: none; stroke: #262626; stroke-width: 0.8; stroke-linejoin: miter; stroke-linecap: square"/>
   </g>
  </g>
  <g id="axes_3">
   <g id="patch_13">
    <path d="M 576.86 210.04 
L 781.2 210.04 
L 781.2 14.76 
L 576.86 14.76 
z
" style="fill: #ffffff"/>
   </g>
   <g id="matplotlib.axis_5">
    <g id="xtick_12">
     <g id="line2d_18">
      <g>
       <use xlink:href="#m65bbdba8a6" x="580.989941" y="210.04" style="fill: #262626; stroke: #262626; stroke-width: 0.8"/>
      </g>
     </g>
     <g id="text_30">
      <!-- −10 -->
      <g style="fill: #262626" transform="translate(572.508691 224.197812) scale(0.1 -0.1)">
       <defs>
        <path id="ArialMT-2212" d="M 3381 1997 
L 356 1997 
L 356 2522 
L 3381 2522 
L 3381 1997 
z
" transform="scale(0.015625)"/>
       </defs>
       <use xlink:href="#ArialMT-2212"/>
       <use xlink:href="#ArialMT-31" x="58.398438"/>
       <use xlink:href="#ArialMT-30" x="114.013672"/>
      </g>
     </g>
    </g>
    <g id="xtick_13">
     <g id="line2d_19">
      <g>
       <use xlink:href="#m65bbdba8a6" x="624.864462" y="210.04" style="fill: #262626; stroke: #262626; stroke-width: 0.8"/>
      </g>
     </g>
     <g id="text_31">
      <!-- −5 -->
      <g style="fill: #262626" transform="translate(619.163681 224.197812) scale(0.1 -0.1)">
       <use xlink:href="#ArialMT-2212"/>
       <use xlink:href="#ArialMT-35" x="58.398438"/>
      </g>
     </g>
    </g>
    <g id="xtick_14">
     <g id="line2d_20">
      <g>
       <use xlink:href="#m65bbdba8a6" x="668.738983" y="210.04" style="fill: #262626; stroke: #262626; stroke-width: 0.8"/>
      </g>
     </g>
     <g id="text_32">
      <!-- 0 -->
      <g style="fill: #262626" transform="translate(665.958514 224.197812) scale(0.1 -0.1)">
       <use xlink:href="#ArialMT-30"/>
      </g>
     </g>
    </g>
    <g id="xtick_15">
     <g id="line2d_21">
      <g>
       <use xlink:href="#m65bbdba8a6" x="712.613504" y="210.04" style="fill: #262626; stroke: #262626; stroke-width: 0.8"/>
      </g>
     </g>
     <g id="text_33">
      <!-- 5 -->
      <g style="fill: #262626" transform="translate(709.833035 224.197812) scale(0.1 -0.1)">
       <use xlink:href="#ArialMT-35"/>
      </g>
     </g>
    </g>
    <g id="xtick_16">
     <g id="line2d_22">
      <g>
       <use xlink:href="#m65bbdba8a6" x="756.488025" y="210.04" style="fill: #262626; stroke: #262626; stroke-width: 0.8"/>
      </g>
     </g>
     <g id="text_34">
      <!-- 10 -->
      <g style="fill: #262626" transform="translate(750.927087 224.197812) scale(0.1 -0.1)">
       <use xlink:href="#ArialMT-31"/>
       <use xlink:href="#ArialMT-30" x="55.615234"/>
      </g>
     </g>
    </g>
    <g id="text_35">
     <!-- residual -->
     <g style="fill: #262626" transform="translate(661.521406 237.343125) scale(0.1 -0.1)">
      <defs>
       <path id="ArialMT-64" d="M 2575 0 
L 2575 419 
Q 2259 -75 1647 -75 
Q 1250 -75 917 144 
Q 584 363 401 755 
Q 219 1147 219 1656 
Q 219 2153 384 2558 
Q 550 2963 881 3178 
Q 1213 3394 1622 3394 
Q 1922 3394 2156 3267 
Q 2391 3141 2538 2938 
L 2538 4581 
L 3097 4581 
L 3097 0 
L 2575 0 
z
M 797 1656 
Q 797 1019 1065 703 
Q 1334 388 1700 388 
Q 2069 388 2326 689 
Q 2584 991 2584 1609 
Q 2584 2291 2321 2609 
Q 2059 2928 1675 2928 
Q 1300 2928 1048 2622 
Q 797 2316 797 1656 
z
" transform="scale(0.015625)"/>
      </defs>
      <use xlink:href="#ArialMT-72"/>
      <use xlink:href="#ArialMT-65" x="33.300781"/>
      <use xlink:href="#ArialMT-73" x="88.916016"/>
      <use xlink:href="#ArialMT-69" x="138.916016"/>
      <use xlink:href="#ArialMT-64" x="161.132812"/>
      <use xlink:href="#ArialMT-75" x="216.748047"/>
      <use xlink:href="#ArialMT-61" x="272.363281"/>
      <use xlink:href="#ArialMT-6c" x="327.978516"/>
     </g>
    </g>
   </g>
   <g id="matplotlib.axis_6">
    <g id="ytick_15">
     <g id="line2d_23">
      <g>
       <use xlink:href="#m533aae14d5" x="576.86" y="210.04" style="fill: #262626; stroke: #262626; stroke-width: 0.8"/>
      </g>
     </g>
     <g id="text_36">
      <!-- 0.00 -->
      <g style="fill: #262626" transform="translate(550.399062 213.618906) scale(0.1 -0.1)">
       <use xlink:href="#ArialMT-30"/>
       <use xlink:href="#ArialMT-2e" x="55.615234"/>
       <use xlink:href="#ArialMT-30" x="83.398438"/>
       <use xlink:href="#ArialMT-30" x="139.013672"/>
      </g>
     </g>
    </g>
    <g id="ytick_16">
     <g id="line2d_24">
      <g>
       <use xlink:href="#m533aae14d5" x="576.86" y="182.000852" style="fill: #262626; stroke: #262626; stroke-width: 0.8"/>
      </g>
     </g>
     <g id="text_37">
      <!-- 0.05 -->
      <g style="fill: #262626" transform="translate(550.399062 185.579758) scale(0.1 -0.1)">
       <use xlink:href="#ArialMT-30"/>
       <use xlink:href="#ArialMT-2e" x="55.615234"/>
       <use xlink:href="#ArialMT-30" x="83.398438"/>
       <use xlink:href="#ArialMT-35" x="139.013672"/>
      </g>
     </g>
    </g>
    <g id="ytick_17">
     <g id="line2d_25">
      <g>
       <use xlink:href="#m533aae14d5" x="576.86" y="153.961704" style="fill: #262626; stroke: #262626; stroke-width: 0.8"/>
      </g>
     </g>
     <g id="text_38">
      <!-- 0.10 -->
      <g style="fill: #262626" transform="translate(550.399062 157.54061) scale(0.1 -0.1)">
       <use xlink:href="#ArialMT-30"/>
       <use xlink:href="#ArialMT-2e" x="55.615234"/>
       <use xlink:href="#ArialMT-31" x="83.398438"/>
       <use xlink:href="#ArialMT-30" x="139.013672"/>
      </g>
     </g>
    </g>
    <g id="ytick_18">
     <g id="line2d_26">
      <g>
       <use xlink:href="#m533aae14d5" x="576.86" y="125.922556" style="fill: #262626; stroke: #262626; stroke-width: 0.8"/>
      </g>
     </g>
     <g id="text_39">
      <!-- 0.15 -->
      <g style="fill: #262626" transform="translate(550.399062 129.501462) scale(0.1 -0.1)">
       <use xlink:href="#ArialMT-30"/>
       <use xlink:href="#ArialMT-2e" x="55.615234"/>
       <use xlink:href="#ArialMT-31" x="83.398438"/>
       <use xlink:href="#ArialMT-35" x="139.013672"/>
      </g>
     </g>
    </g>
    <g id="ytick_19">
     <g id="line2d_27">
      <g>
       <use xlink:href="#m533aae14d5" x="576.86" y="97.883408" style="fill: #262626; stroke: #262626; stroke-width: 0.8"/>
      </g>
     </g>
     <g id="text_40">
      <!-- 0.20 -->
      <g style="fill: #262626" transform="translate(550.399062 101.462314) scale(0.1 -0.1)">
       <use xlink:href="#ArialMT-30"/>
       <use xlink:href="#ArialMT-2e" x="55.615234"/>
       <use xlink:href="#ArialMT-32" x="83.398438"/>
       <use xlink:href="#ArialMT-30" x="139.013672"/>
      </g>
     </g>
    </g>
    <g id="ytick_20">
     <g id="line2d_28">
      <g>
       <use xlink:href="#m533aae14d5" x="576.86" y="69.844259" style="fill: #262626; stroke: #262626; stroke-width: 0.8"/>
      </g>
     </g>
     <g id="text_41">
      <!-- 0.25 -->
      <g style="fill: #262626" transform="translate(550.399062 73.423166) scale(0.1 -0.1)">
       <use xlink:href="#ArialMT-30"/>
       <use xlink:href="#ArialMT-2e" x="55.615234"/>
       <use xlink:href="#ArialMT-32" x="83.398438"/>
       <use xlink:href="#ArialMT-35" x="139.013672"/>
      </g>
     </g>
    </g>
    <g id="ytick_21">
     <g id="line2d_29">
      <g>
       <use xlink:href="#m533aae14d5" x="576.86" y="41.805111" style="fill: #262626; stroke: #262626; stroke-width: 0.8"/>
      </g>
     </g>
     <g id="text_42">
      <!-- 0.30 -->
      <g style="fill: #262626" transform="translate(550.399062 45.384018) scale(0.1 -0.1)">
       <defs>
        <path id="ArialMT-33" d="M 269 1209 
L 831 1284 
Q 928 806 1161 595 
Q 1394 384 1728 384 
Q 2125 384 2398 659 
Q 2672 934 2672 1341 
Q 2672 1728 2419 1979 
Q 2166 2231 1775 2231 
Q 1616 2231 1378 2169 
L 1441 2663 
Q 1497 2656 1531 2656 
Q 1891 2656 2178 2843 
Q 2466 3031 2466 3422 
Q 2466 3731 2256 3934 
Q 2047 4138 1716 4138 
Q 1388 4138 1169 3931 
Q 950 3725 888 3313 
L 325 3413 
Q 428 3978 793 4289 
Q 1159 4600 1703 4600 
Q 2078 4600 2393 4439 
Q 2709 4278 2876 4000 
Q 3044 3722 3044 3409 
Q 3044 3113 2884 2869 
Q 2725 2625 2413 2481 
Q 2819 2388 3044 2092 
Q 3269 1797 3269 1353 
Q 3269 753 2831 336 
Q 2394 -81 1725 -81 
Q 1122 -81 723 278 
Q 325 638 269 1209 
z
" transform="scale(0.015625)"/>
       </defs>
       <use xlink:href="#ArialMT-30"/>
       <use xlink:href="#ArialMT-2e" x="55.615234"/>
       <use xlink:href="#ArialMT-33" x="83.398438"/>
       <use xlink:href="#ArialMT-30" x="139.013672"/>
      </g>
     </g>
    </g>
    <g id="text_43">
     <!-- Density -->
     <g style="fill: #262626" transform="translate(544.294375 129.071875) rotate(-90) scale(0.1 -0.1)">
      <defs>
       <path id="ArialMT-44" d="M 494 0 
L 494 4581 
L 2072 4581 
Q 2606 4581 2888 4516 
Q 3281 4425 3559 4188 
Q 3922 3881 4101 3404 
Q 4281 2928 4281 2316 
Q 4281 1794 4159 1391 
Q 4038 988 3847 723 
Q 3656 459 3429 307 
Q 3203 156 2883 78 
Q 2563 0 2147 0 
L 494 0 
z
M 1100 541 
L 2078 541 
Q 2531 541 2789 625 
Q 3047 709 3200 863 
Q 3416 1078 3536 1442 
Q 3656 1806 3656 2325 
Q 3656 3044 3420 3430 
Q 3184 3816 2847 3947 
Q 2603 4041 2063 4041 
L 1100 4041 
L 1100 541 
z
" transform="scale(0.015625)"/>
      </defs>
      <use xlink:href="#ArialMT-44"/>
      <use xlink:href="#ArialMT-65" x="72.216797"/>
      <use xlink:href="#ArialMT-6e" x="127.832031"/>
      <use xlink:href="#ArialMT-73" x="183.447266"/>
      <use xlink:href="#ArialMT-69" x="233.447266"/>
      <use xlink:href="#ArialMT-74" x="255.664062"/>
      <use xlink:href="#ArialMT-79" x="283.447266"/>
     </g>
    </g>
   </g>
   <g id="patch_14">
    <path d="M 626.112573 210.04 
L 637.872001 210.04 
L 637.872001 175.168571 
L 626.112573 175.168571 
z
" clip-path="url(#p3e70190563)" style="fill: #225a8c; fill-opacity: 0.5; stroke: #ffffff; stroke-linejoin: miter"/>
   </g>
   <g id="patch_15">
    <path d="M 637.872001 210.04 
L 649.631429 210.04 
L 649.631429 151.920952 
L 637.872001 151.920952 
z
" clip-path="url(#p3e70190563)" style="fill: #225a8c; fill-opacity: 0.5; stroke: #ffffff; stroke-linejoin: miter"/>
   </g>
   <g id="patch_16">
    <path d="M 649.631429 210.04 
L 661.390858 210.04 
L 661.390858 175.168571 
L 649.631429 175.168571 
z
" clip-path="url(#p3e70190563)" style="fill: #225a8c; fill-opacity: 0.5; stroke: #ffffff; stroke-linejoin: miter"/>
   </g>
   <g id="patch_17">
    <path d="M 661.390858 210.04 
L 673.150286 210.04 
L 673.150286 24.059048 
L 661.390858 24.059048 
z
" clip-path="url(#p3e70190563)" style="fill: #225a8c; fill-opacity: 0.5; stroke: #ffffff; stroke-linejoin: miter"/>
   </g>
   <g id="patch_18">
    <path d="M 673.150286 210.04 
L 684.909714 210.04 
L 684.909714 186.792381 
L 673.150286 186.792381 
z
" clip-path="url(#p3e70190563)" style="fill: #225a8c; fill-opacity: 0.5; stroke: #ffffff; stroke-linejoin: miter"/>
   </g>
   <g id="patch_19">
    <path d="M 684.909714 210.04 
L 696.669142 210.04 
L 696.669142 210.04 
L 684.909714 210.04 
z
" clip-path="url(#p3e70190563)" style="fill: #225a8c; fill-opacity: 0.5; stroke: #ffffff; stroke-linejoin: miter"/>
   </g>
   <g id="patch_20">
    <path d="M 696.669142 210.04 
L 708.428571 210.04 
L 708.428571 198.41619 
L 696.669142 198.41619 
z
" clip-path="url(#p3e70190563)" style="fill: #225a8c; fill-opacity: 0.5; stroke: #ffffff; stroke-linejoin: miter"/>
   </g>
   <g id="patch_21">
    <path d="M 708.428571 210.04 
L 720.187999 210.04 
L 720.187999 175.168571 
L 708.428571 175.168571 
z
" clip-path="url(#p3e70190563)" style="fill: #225a8c; fill-opacity: 0.5; stroke: #ffffff; stroke-linejoin: miter"/>
   </g>
   <g id="patch_22">
    <path d="M 720.187999 210.04 
L 731.947427 210.04 
L 731.947427 175.168571 
L 720.187999 175.168571 
z
" clip-path="url(#p3e70190563)" style="fill: #225a8c; fill-opacity: 0.5; stroke: #ffffff; stroke-linejoin: miter"/>
   </g>
   <g id="line2d_30">
    <path d="M 586.148182 209.96256 
L 591.749095 209.771841 
L 595.483038 209.478168 
L 599.21698 208.941009 
L 602.017437 208.300151 
L 604.817894 207.384111 
L 606.684865 206.587575 
L 608.551836 205.620477 
L 610.418808 204.466556 
L 612.285779 203.113148 
L 614.15275 201.552386 
L 616.019721 199.782233 
L 618.820178 196.746221 
L 621.620635 193.295209 
L 624.421092 189.505232 
L 629.08852 182.704465 
L 640.290347 165.747978 
L 644.02429 159.775221 
L 646.824746 154.966706 
L 650.558689 148.045655 
L 657.093088 135.628069 
L 658.960059 132.563355 
L 660.827031 130.008593 
L 661.760516 128.976633 
L 662.694002 128.135773 
L 663.627487 127.504841 
L 664.560973 127.100631 
L 665.494459 126.937442 
L 666.427944 127.026663 
L 667.36143 127.376425 
L 668.294915 127.991322 
L 669.228401 128.872223 
L 670.161887 130.016169 
L 671.095372 131.416362 
L 672.028858 133.062255 
L 673.895829 137.03135 
L 675.7628 141.772829 
L 677.629772 147.095345 
L 682.2972 161.50009 
L 685.097656 169.80928 
L 686.964628 174.823633 
L 688.831599 179.263277 
L 690.69857 183.042746 
L 692.565541 186.118192 
L 694.432513 188.484032 
L 695.365998 189.408287 
L 696.299484 190.167648 
L 697.232969 190.769651 
L 698.166455 191.223091 
L 699.099941 191.537818 
L 700.033426 191.724553 
L 701.900397 191.760208 
L 703.767369 191.426732 
L 705.63434 190.824605 
L 708.434797 189.636165 
L 712.168739 188.008562 
L 714.03571 187.359621 
L 715.902682 186.907587 
L 717.769653 186.699676 
L 719.636624 186.767039 
L 721.503595 187.124241 
L 723.370566 187.769588 
L 725.237538 188.686337 
L 727.104509 189.844733 
L 729.904966 191.945723 
L 733.638908 195.168122 
L 739.239822 200.096433 
L 742.040279 202.303135 
L 744.840735 204.219788 
L 747.641192 205.809134 
L 750.441649 207.06984 
L 753.242106 208.027587 
L 756.042563 208.724906 
L 758.84302 209.211655 
L 762.576962 209.618115 
L 767.24439 209.875085 
L 771.911818 209.982197 
L 771.911818 209.982197 
" clip-path="url(#p3e70190563)" style="fill: none; stroke: #225a8c; stroke-width: 1.5; stroke-linecap: round"/>
   </g>
   <g id="patch_23">
    <path d="M 576.86 210.04 
L 576.86 14.76 
" style="fill: none; stroke: #262626; stroke-width: 0.8; stroke-linejoin: miter; stroke-linecap: square"/>
   </g>
   <g id="patch_24">
    <path d="M 781.2 210.04 
L 781.2 14.76 
" style="fill: none; stroke: #262626; stroke-width: 0.8; stroke-linejoin: miter; stroke-linecap: square"/>
   </g>
   <g id="patch_25">
    <path d="M 576.86 210.04 
L 781.2 210.04 
" style="fill: none; stroke: #262626; stroke-width: 0.8; stroke-linejoin: miter; stroke-linecap: square"/>
   </g>
   <g id="patch_26">
    <path d="M 576.86 14.76 
L 781.2 14.76 
" style="fill: none; stroke: #262626; stroke-width: 0.8; stroke-linejoin: miter; stroke-linecap: square"/>
   </g>
  </g>
 </g>
 <defs>
  <clipPath id="p1645223614">
   <rect x="51.41" y="14.76" width="204.34" height="195.28"/>
  </clipPath>
  <clipPath id="p3e70190563">
   <rect x="576.86" y="14.76" width="204.34" height="195.28"/>
  </clipPath>
 </defs>
</svg>
