<?xml version="1.0" encoding="utf-8" standalone="no"?>
<!DOCTYPE svg PUBLIC "-//W3C//DTD SVG 1.1//EN"
  "http://www.w3.org/Graphics/SVG/1.1/DTD/svg11.dtd">
<svg xmlns:xlink="http://www.w3.org/1999/xlink" width="792pt" height="252pt" viewBox="0 0 792 252" xmlns="http://www.w3.org/2000/svg" version="1.1">
 <metadata>
  <rdf:RDF xmlns:dc="http://purl.org/dc/elements/1.1/" xmlns:cc="http://creativecommons.org/ns#" xmlns:rdf="http://www.w3.org/1999/02/22-rdf-syntax-ns#">
   <cc:Work>
    <dc:type rdf:resource="http://purl.org/dc/dcmitype/StillImage"/>
    <dc:date>2024-01-31T10:41:40.990246</dc:date>
    <dc:format>image/svg+xml</dc:format>
    <dc:creator>
     <cc:Agent>
      <dc:title>Matplotlib v3.8.1, https://matplotlib.org/</dc:title>
     </cc:Agent>
    </dc:creator>
   </cc:Work>
  </rdf:RDF>
 </metadata>
 <defs>
  <style type="text/css">*{stroke-linejoin: round; stroke-linecap: butt}</style>
 </defs>
 <g id="figure_1">
  <g id="patch_1">
   <path d="M 0 252 
L 792 252 
L 792 0 
L 0 0 
z
" style="fill: #ffffff"/>
  </g>
  <g id="axes_1">
   <g id="patch_2">
    <path d="M 51.41 210.04 
L 255.75 210.04 
L 255.75 14.76 
L 51.41 14.76 
z
" style="fill: #ffffff"/>
   </g>
   <g id="matplotlib.axis_1">
    <g id="xtick_1">
     <g id="line2d_1">
      <defs>
       <path id="m6328f5da74" d="M 0 0 
L 0 3.5 
" style="stroke: #262626; stroke-width: 0.8"/>
      </defs>
      <g>
       <use xlink:href="#m6328f5da74" x="60.698182" y="210.04" style="fill: #262626; stroke: #262626; stroke-width: 0.8"/>
      </g>
     </g>
     <g id="text_1">
      <!-- 0 -->
      <g style="fill: #262626" transform="translate(57.917713 224.197812) scale(0.1 -0.1)">
       <defs>
        <path id="ArialMT-30" d="M 266 2259 
Q 266 3072 433 3567 
Q 600 4063 929 4331 
Q 1259 4600 1759 4600 
Q 2128 4600 2406 4451 
Q 2684 4303 2865 4023 
Q 3047 3744 3150 3342 
Q 3253 2941 3253 2259 
Q 3253 1453 3087 958 
Q 2922 463 2592 192 
Q 2263 -78 1759 -78 
Q 1097 -78 719 397 
Q 266 969 266 2259 
z
M 844 2259 
Q 844 1131 1108 757 
Q 1372 384 1759 384 
Q 2147 384 2411 759 
Q 2675 1134 2675 2259 
Q 2675 3391 2411 3762 
Q 2147 4134 1753 4134 
Q 1366 4134 1134 3806 
Q 844 3388 844 2259 
z
" transform="scale(0.015625)"/>
       </defs>
       <use xlink:href="#ArialMT-30"/>
      </g>
     </g>
    </g>
    <g id="xtick_2">
     <g id="line2d_2">
      <g>
       <use xlink:href="#m6328f5da74" x="98.037606" y="210.04" style="fill: #262626; stroke: #262626; stroke-width: 0.8"/>
      </g>
     </g>
     <g id="text_2">
      <!-- 500 -->
      <g style="fill: #262626" transform="translate(89.6962 224.197812) scale(0.1 -0.1)">
       <defs>
        <path id="ArialMT-35" d="M 266 1200 
L 856 1250 
Q 922 819 1161 601 
Q 1400 384 1738 384 
Q 2144 384 2425 690 
Q 2706 997 2706 1503 
Q 2706 1984 2436 2262 
Q 2166 2541 1728 2541 
Q 1456 2541 1237 2417 
Q 1019 2294 894 2097 
L 366 2166 
L 809 4519 
L 3088 4519 
L 3088 3981 
L 1259 3981 
L 1013 2750 
Q 1425 3038 1878 3038 
Q 2478 3038 2890 2622 
Q 3303 2206 3303 1553 
Q 3303 931 2941 478 
Q 2500 -78 1738 -78 
Q 1113 -78 717 272 
Q 322 622 266 1200 
z
" transform="scale(0.015625)"/>
       </defs>
       <use xlink:href="#ArialMT-35"/>
       <use xlink:href="#ArialMT-30" x="55.615234"/>
       <use xlink:href="#ArialMT-30" x="111.230469"/>
      </g>
     </g>
    </g>
    <g id="xtick_3">
     <g id="line2d_3">
      <g>
       <use xlink:href="#m6328f5da74" x="135.377031" y="210.04" style="fill: #262626; stroke: #262626; stroke-width: 0.8"/>
      </g>
     </g>
     <g id="text_3">
      <!-- 1000 -->
      <g style="fill: #262626" transform="translate(124.255156 224.197812) scale(0.1 -0.1)">
       <defs>
        <path id="ArialMT-31" d="M 2384 0 
L 1822 0 
L 1822 3584 
Q 1619 3391 1289 3197 
Q 959 3003 697 2906 
L 697 3450 
Q 1169 3672 1522 3987 
Q 1875 4303 2022 4600 
L 2384 4600 
L 2384 0 
z
" transform="scale(0.015625)"/>
       </defs>
       <use xlink:href="#ArialMT-31"/>
       <use xlink:href="#ArialMT-30" x="55.615234"/>
       <use xlink:href="#ArialMT-30" x="111.230469"/>
       <use xlink:href="#ArialMT-30" x="166.845703"/>
      </g>
     </g>
    </g>
    <g id="xtick_4">
     <g id="line2d_4">
      <g>
       <use xlink:href="#m6328f5da74" x="172.716455" y="210.04" style="fill: #262626; stroke: #262626; stroke-width: 0.8"/>
      </g>
     </g>
     <g id="text_4">
      <!-- 1500 -->
      <g style="fill: #262626" transform="translate(161.59458 224.197812) scale(0.1 -0.1)">
       <use xlink:href="#ArialMT-31"/>
       <use xlink:href="#ArialMT-35" x="55.615234"/>
       <use xlink:href="#ArialMT-30" x="111.230469"/>
       <use xlink:href="#ArialMT-30" x="166.845703"/>
      </g>
     </g>
    </g>
    <g id="xtick_5">
     <g id="line2d_5">
      <g>
       <use xlink:href="#m6328f5da74" x="210.055879" y="210.04" style="fill: #262626; stroke: #262626; stroke-width: 0.8"/>
      </g>
     </g>
     <g id="text_5">
      <!-- 2000 -->
      <g style="fill: #262626" transform="translate(198.934004 224.197812) scale(0.1 -0.1)">
       <defs>
        <path id="ArialMT-32" d="M 3222 541 
L 3222 0 
L 194 0 
Q 188 203 259 391 
Q 375 700 629 1000 
Q 884 1300 1366 1694 
Q 2113 2306 2375 2664 
Q 2638 3022 2638 3341 
Q 2638 3675 2398 3904 
Q 2159 4134 1775 4134 
Q 1369 4134 1125 3890 
Q 881 3647 878 3216 
L 300 3275 
Q 359 3922 746 4261 
Q 1134 4600 1788 4600 
Q 2447 4600 2831 4234 
Q 3216 3869 3216 3328 
Q 3216 3053 3103 2787 
Q 2991 2522 2730 2228 
Q 2469 1934 1863 1422 
Q 1356 997 1212 845 
Q 1069 694 975 541 
L 3222 541 
z
" transform="scale(0.015625)"/>
       </defs>
       <use xlink:href="#ArialMT-32"/>
       <use xlink:href="#ArialMT-30" x="55.615234"/>
       <use xlink:href="#ArialMT-30" x="111.230469"/>
       <use xlink:href="#ArialMT-30" x="166.845703"/>
      </g>
     </g>
    </g>
    <g id="xtick_6">
     <g id="line2d_6">
      <g>
       <use xlink:href="#m6328f5da74" x="247.395304" y="210.04" style="fill: #262626; stroke: #262626; stroke-width: 0.8"/>
      </g>
     </g>
     <g id="text_6">
      <!-- 2500 -->
      <g style="fill: #262626" transform="translate(236.273429 224.197812) scale(0.1 -0.1)">
       <use xlink:href="#ArialMT-32"/>
       <use xlink:href="#ArialMT-35" x="55.615234"/>
       <use xlink:href="#ArialMT-30" x="111.230469"/>
       <use xlink:href="#ArialMT-30" x="166.845703"/>
      </g>
     </g>
    </g>
    <g id="text_7">
     <!-- [Phytoene] (µM) -->
     <g style="fill: #262626" transform="translate(117.910469 237.465) scale(0.1 -0.1)">
      <defs>
       <path id="ArialMT-5b" d="M 434 -1272 
L 434 4581 
L 1675 4581 
L 1675 4116 
L 997 4116 
L 997 -806 
L 1675 -806 
L 1675 -1272 
L 434 -1272 
z
" transform="scale(0.015625)"/>
       <path id="ArialMT-50" d="M 494 0 
L 494 4581 
L 2222 4581 
Q 2678 4581 2919 4538 
Q 3256 4481 3484 4323 
Q 3713 4166 3852 3881 
Q 3991 3597 3991 3256 
Q 3991 2672 3619 2267 
Q 3247 1863 2275 1863 
L 1100 1863 
L 1100 0 
L 494 0 
z
M 1100 2403 
L 2284 2403 
Q 2872 2403 3119 2622 
Q 3366 2841 3366 3238 
Q 3366 3525 3220 3729 
Q 3075 3934 2838 4000 
Q 2684 4041 2272 4041 
L 1100 4041 
L 1100 2403 
z
" transform="scale(0.015625)"/>
       <path id="ArialMT-68" d="M 422 0 
L 422 4581 
L 984 4581 
L 984 2938 
Q 1378 3394 1978 3394 
Q 2347 3394 2619 3248 
Q 2891 3103 3008 2847 
Q 3125 2591 3125 2103 
L 3125 0 
L 2563 0 
L 2563 2103 
Q 2563 2525 2380 2717 
Q 2197 2909 1863 2909 
Q 1613 2909 1392 2779 
Q 1172 2650 1078 2428 
Q 984 2206 984 1816 
L 984 0 
L 422 0 
z
" transform="scale(0.015625)"/>
       <path id="ArialMT-79" d="M 397 -1278 
L 334 -750 
Q 519 -800 656 -800 
Q 844 -800 956 -737 
Q 1069 -675 1141 -563 
Q 1194 -478 1313 -144 
Q 1328 -97 1363 -6 
L 103 3319 
L 709 3319 
L 1400 1397 
Q 1534 1031 1641 628 
Q 1738 1016 1872 1384 
L 2581 3319 
L 3144 3319 
L 1881 -56 
Q 1678 -603 1566 -809 
Q 1416 -1088 1222 -1217 
Q 1028 -1347 759 -1347 
Q 597 -1347 397 -1278 
z
" transform="scale(0.015625)"/>
       <path id="ArialMT-74" d="M 1650 503 
L 1731 6 
Q 1494 -44 1306 -44 
Q 1000 -44 831 53 
Q 663 150 594 308 
Q 525 466 525 972 
L 525 2881 
L 113 2881 
L 113 3319 
L 525 3319 
L 525 4141 
L 1084 4478 
L 1084 3319 
L 1650 3319 
L 1650 2881 
L 1084 2881 
L 1084 941 
Q 1084 700 1114 631 
Q 1144 563 1211 522 
Q 1278 481 1403 481 
Q 1497 481 1650 503 
z
" transform="scale(0.015625)"/>
       <path id="ArialMT-6f" d="M 213 1659 
Q 213 2581 725 3025 
Q 1153 3394 1769 3394 
Q 2453 3394 2887 2945 
Q 3322 2497 3322 1706 
Q 3322 1066 3130 698 
Q 2938 331 2570 128 
Q 2203 -75 1769 -75 
Q 1072 -75 642 372 
Q 213 819 213 1659 
z
M 791 1659 
Q 791 1022 1069 705 
Q 1347 388 1769 388 
Q 2188 388 2466 706 
Q 2744 1025 2744 1678 
Q 2744 2294 2464 2611 
Q 2184 2928 1769 2928 
Q 1347 2928 1069 2612 
Q 791 2297 791 1659 
z
" transform="scale(0.015625)"/>
       <path id="ArialMT-65" d="M 2694 1069 
L 3275 997 
Q 3138 488 2766 206 
Q 2394 -75 1816 -75 
Q 1088 -75 661 373 
Q 234 822 234 1631 
Q 234 2469 665 2931 
Q 1097 3394 1784 3394 
Q 2450 3394 2872 2941 
Q 3294 2488 3294 1666 
Q 3294 1616 3291 1516 
L 816 1516 
Q 847 969 1125 678 
Q 1403 388 1819 388 
Q 2128 388 2347 550 
Q 2566 713 2694 1069 
z
M 847 1978 
L 2700 1978 
Q 2663 2397 2488 2606 
Q 2219 2931 1791 2931 
Q 1403 2931 1139 2672 
Q 875 2413 847 1978 
z
" transform="scale(0.015625)"/>
       <path id="ArialMT-6e" d="M 422 0 
L 422 3319 
L 928 3319 
L 928 2847 
Q 1294 3394 1984 3394 
Q 2284 3394 2536 3286 
Q 2788 3178 2913 3003 
Q 3038 2828 3088 2588 
Q 3119 2431 3119 2041 
L 3119 0 
L 2556 0 
L 2556 2019 
Q 2556 2363 2490 2533 
Q 2425 2703 2258 2804 
Q 2091 2906 1866 2906 
Q 1506 2906 1245 2678 
Q 984 2450 984 1813 
L 984 0 
L 422 0 
z
" transform="scale(0.015625)"/>
       <path id="ArialMT-5d" d="M 1363 -1272 
L 122 -1272 
L 122 -806 
L 800 -806 
L 800 4116 
L 122 4116 
L 122 4581 
L 1363 4581 
L 1363 -1272 
z
" transform="scale(0.015625)"/>
       <path id="ArialMT-20" transform="scale(0.015625)"/>
       <path id="ArialMT-28" d="M 1497 -1347 
Q 1031 -759 709 28 
Q 388 816 388 1659 
Q 388 2403 628 3084 
Q 909 3875 1497 4659 
L 1900 4659 
Q 1522 4009 1400 3731 
Q 1209 3300 1100 2831 
Q 966 2247 966 1656 
Q 966 153 1900 -1347 
L 1497 -1347 
z
" transform="scale(0.015625)"/>
       <path id="ArialMT-b5" d="M 3181 3319 
L 3181 0 
L 2678 0 
L 2678 394 
Q 2516 144 2356 50 
Q 2138 -78 1847 -78 
Q 1588 -78 1388 25 
Q 1238 103 1056 334 
L 1056 -1272 
L 500 -1272 
L 500 3319 
L 1056 3319 
L 1056 1913 
Q 1056 1147 1137 920 
Q 1219 694 1401 562 
Q 1584 431 1822 431 
Q 2072 431 2269 568 
Q 2466 706 2547 923 
Q 2628 1141 2628 1903 
L 2628 3319 
L 3181 3319 
z
" transform="scale(0.015625)"/>
       <path id="ArialMT-4d" d="M 475 0 
L 475 4581 
L 1388 4581 
L 2472 1338 
Q 2622 884 2691 659 
Q 2769 909 2934 1394 
L 4031 4581 
L 4847 4581 
L 4847 0 
L 4263 0 
L 4263 3834 
L 2931 0 
L 2384 0 
L 1059 3900 
L 1059 0 
L 475 0 
z
" transform="scale(0.015625)"/>
       <path id="ArialMT-29" d="M 791 -1347 
L 388 -1347 
Q 1322 153 1322 1656 
Q 1322 2244 1188 2822 
Q 1081 3291 891 3722 
Q 769 4003 388 4659 
L 791 4659 
Q 1378 3875 1659 3084 
Q 1900 2403 1900 1659 
Q 1900 816 1576 28 
Q 1253 -759 791 -1347 
z
" transform="scale(0.015625)"/>
      </defs>
      <use xlink:href="#ArialMT-5b"/>
      <use xlink:href="#ArialMT-50" x="27.783203"/>
      <use xlink:href="#ArialMT-68" x="94.482422"/>
      <use xlink:href="#ArialMT-79" x="150.097656"/>
      <use xlink:href="#ArialMT-74" x="200.097656"/>
      <use xlink:href="#ArialMT-6f" x="227.880859"/>
      <use xlink:href="#ArialMT-65" x="283.496094"/>
      <use xlink:href="#ArialMT-6e" x="339.111328"/>
      <use xlink:href="#ArialMT-65" x="394.726562"/>
      <use xlink:href="#ArialMT-5d" x="450.341797"/>
      <use xlink:href="#ArialMT-20" x="478.125"/>
      <use xlink:href="#ArialMT-28" x="505.908203"/>
      <use xlink:href="#ArialMT-b5" x="539.208984"/>
      <use xlink:href="#ArialMT-4d" x="596.826172"/>
      <use xlink:href="#ArialMT-29" x="680.126953"/>
     </g>
    </g>
   </g>
   <g id="matplotlib.axis_2">
    <g id="ytick_1">
     <g id="line2d_7">
      <defs>
       <path id="m34bbd917e9" d="M 0 0 
L -3.5 0 
" style="stroke: #262626; stroke-width: 0.8"/>
      </defs>
      <g>
       <use xlink:href="#m34bbd917e9" x="51.41" y="201.163636" style="fill: #262626; stroke: #262626; stroke-width: 0.8"/>
      </g>
     </g>
     <g id="text_8">
      <!-- 0.0 -->
      <g style="fill: #262626" transform="translate(30.51 204.742543) scale(0.1 -0.1)">
       <defs>
        <path id="ArialMT-2e" d="M 581 0 
L 581 641 
L 1222 641 
L 1222 0 
L 581 0 
z
" transform="scale(0.015625)"/>
       </defs>
       <use xlink:href="#ArialMT-30"/>
       <use xlink:href="#ArialMT-2e" x="55.615234"/>
       <use xlink:href="#ArialMT-30" x="83.398438"/>
      </g>
     </g>
    </g>
    <g id="ytick_2">
     <g id="line2d_8">
      <g>
       <use xlink:href="#m34bbd917e9" x="51.41" y="176.106894" style="fill: #262626; stroke: #262626; stroke-width: 0.8"/>
      </g>
     </g>
     <g id="text_9">
      <!-- 2.5 -->
      <g style="fill: #262626" transform="translate(30.51 179.685801) scale(0.1 -0.1)">
       <use xlink:href="#ArialMT-32"/>
       <use xlink:href="#ArialMT-2e" x="55.615234"/>
       <use xlink:href="#ArialMT-35" x="83.398438"/>
      </g>
     </g>
    </g>
    <g id="ytick_3">
     <g id="line2d_9">
      <g>
       <use xlink:href="#m34bbd917e9" x="51.41" y="151.050152" style="fill: #262626; stroke: #262626; stroke-width: 0.8"/>
      </g>
     </g>
     <g id="text_10">
      <!-- 5.0 -->
      <g style="fill: #262626" transform="translate(30.51 154.629059) scale(0.1 -0.1)">
       <use xlink:href="#ArialMT-35"/>
       <use xlink:href="#ArialMT-2e" x="55.615234"/>
       <use xlink:href="#ArialMT-30" x="83.398438"/>
      </g>
     </g>
    </g>
    <g id="ytick_4">
     <g id="line2d_10">
      <g>
       <use xlink:href="#m34bbd917e9" x="51.41" y="125.993411" style="fill: #262626; stroke: #262626; stroke-width: 0.8"/>
      </g>
     </g>
     <g id="text_11">
      <!-- 7.5 -->
      <g style="fill: #262626" transform="translate(30.51 129.572317) scale(0.1 -0.1)">
       <defs>
        <path id="ArialMT-37" d="M 303 3981 
L 303 4522 
L 3269 4522 
L 3269 4084 
Q 2831 3619 2401 2847 
Q 1972 2075 1738 1259 
Q 1569 684 1522 0 
L 944 0 
Q 953 541 1156 1306 
Q 1359 2072 1739 2783 
Q 2119 3494 2547 3981 
L 303 3981 
z
" transform="scale(0.015625)"/>
       </defs>
       <use xlink:href="#ArialMT-37"/>
       <use xlink:href="#ArialMT-2e" x="55.615234"/>
       <use xlink:href="#ArialMT-35" x="83.398438"/>
      </g>
     </g>
    </g>
    <g id="ytick_5">
     <g id="line2d_11">
      <g>
       <use xlink:href="#m34bbd917e9" x="51.41" y="100.936669" style="fill: #262626; stroke: #262626; stroke-width: 0.8"/>
      </g>
     </g>
     <g id="text_12">
      <!-- 10.0 -->
      <g style="fill: #262626" transform="translate(24.949063 104.515575) scale(0.1 -0.1)">
       <use xlink:href="#ArialMT-31"/>
       <use xlink:href="#ArialMT-30" x="55.615234"/>
       <use xlink:href="#ArialMT-2e" x="111.230469"/>
       <use xlink:href="#ArialMT-30" x="139.013672"/>
      </g>
     </g>
    </g>
    <g id="ytick_6">
     <g id="line2d_12">
      <g>
       <use xlink:href="#m34bbd917e9" x="51.41" y="75.879927" style="fill: #262626; stroke: #262626; stroke-width: 0.8"/>
      </g>
     </g>
     <g id="text_13">
      <!-- 12.5 -->
      <g style="fill: #262626" transform="translate(24.949063 79.458833) scale(0.1 -0.1)">
       <use xlink:href="#ArialMT-31"/>
       <use xlink:href="#ArialMT-32" x="55.615234"/>
       <use xlink:href="#ArialMT-2e" x="111.230469"/>
       <use xlink:href="#ArialMT-35" x="139.013672"/>
      </g>
     </g>
    </g>
    <g id="ytick_7">
     <g id="line2d_13">
      <g>
       <use xlink:href="#m34bbd917e9" x="51.41" y="50.823185" style="fill: #262626; stroke: #262626; stroke-width: 0.8"/>
      </g>
     </g>
     <g id="text_14">
      <!-- 15.0 -->
      <g style="fill: #262626" transform="translate(24.949063 54.402091) scale(0.1 -0.1)">
       <use xlink:href="#ArialMT-31"/>
       <use xlink:href="#ArialMT-35" x="55.615234"/>
       <use xlink:href="#ArialMT-2e" x="111.230469"/>
       <use xlink:href="#ArialMT-30" x="139.013672"/>
      </g>
     </g>
    </g>
    <g id="ytick_8">
     <g id="line2d_14">
      <g>
       <use xlink:href="#m34bbd917e9" x="51.41" y="25.766443" style="fill: #262626; stroke: #262626; stroke-width: 0.8"/>
      </g>
     </g>
     <g id="text_15">
      <!-- 17.5 -->
      <g style="fill: #262626" transform="translate(24.949063 29.345349) scale(0.1 -0.1)">
       <use xlink:href="#ArialMT-31"/>
       <use xlink:href="#ArialMT-37" x="55.615234"/>
       <use xlink:href="#ArialMT-2e" x="111.230469"/>
       <use xlink:href="#ArialMT-35" x="139.013672"/>
      </g>
     </g>
    </g>
    <g id="text_16">
     <!-- Lycopene flux (µM/h) -->
     <g style="fill: #262626" transform="translate(18.844375 158.999219) rotate(-90) scale(0.1 -0.1)">
      <defs>
       <path id="ArialMT-4c" d="M 469 0 
L 469 4581 
L 1075 4581 
L 1075 541 
L 3331 541 
L 3331 0 
L 469 0 
z
" transform="scale(0.015625)"/>
       <path id="ArialMT-63" d="M 2588 1216 
L 3141 1144 
Q 3050 572 2676 248 
Q 2303 -75 1759 -75 
Q 1078 -75 664 370 
Q 250 816 250 1647 
Q 250 2184 428 2587 
Q 606 2991 970 3192 
Q 1334 3394 1763 3394 
Q 2303 3394 2647 3120 
Q 2991 2847 3088 2344 
L 2541 2259 
Q 2463 2594 2264 2762 
Q 2066 2931 1784 2931 
Q 1359 2931 1093 2626 
Q 828 2322 828 1663 
Q 828 994 1084 691 
Q 1341 388 1753 388 
Q 2084 388 2306 591 
Q 2528 794 2588 1216 
z
" transform="scale(0.015625)"/>
       <path id="ArialMT-70" d="M 422 -1272 
L 422 3319 
L 934 3319 
L 934 2888 
Q 1116 3141 1344 3267 
Q 1572 3394 1897 3394 
Q 2322 3394 2647 3175 
Q 2972 2956 3137 2557 
Q 3303 2159 3303 1684 
Q 3303 1175 3120 767 
Q 2938 359 2589 142 
Q 2241 -75 1856 -75 
Q 1575 -75 1351 44 
Q 1128 163 984 344 
L 984 -1272 
L 422 -1272 
z
M 931 1641 
Q 931 1000 1190 694 
Q 1450 388 1819 388 
Q 2194 388 2461 705 
Q 2728 1022 2728 1688 
Q 2728 2322 2467 2637 
Q 2206 2953 1844 2953 
Q 1484 2953 1207 2617 
Q 931 2281 931 1641 
z
" transform="scale(0.015625)"/>
       <path id="ArialMT-66" d="M 556 0 
L 556 2881 
L 59 2881 
L 59 3319 
L 556 3319 
L 556 3672 
Q 556 4006 616 4169 
Q 697 4388 901 4523 
Q 1106 4659 1475 4659 
Q 1713 4659 2000 4603 
L 1916 4113 
Q 1741 4144 1584 4144 
Q 1328 4144 1222 4034 
Q 1116 3925 1116 3625 
L 1116 3319 
L 1763 3319 
L 1763 2881 
L 1116 2881 
L 1116 0 
L 556 0 
z
" transform="scale(0.015625)"/>
       <path id="ArialMT-6c" d="M 409 0 
L 409 4581 
L 972 4581 
L 972 0 
L 409 0 
z
" transform="scale(0.015625)"/>
       <path id="ArialMT-75" d="M 2597 0 
L 2597 488 
Q 2209 -75 1544 -75 
Q 1250 -75 995 37 
Q 741 150 617 320 
Q 494 491 444 738 
Q 409 903 409 1263 
L 409 3319 
L 972 3319 
L 972 1478 
Q 972 1038 1006 884 
Q 1059 663 1231 536 
Q 1403 409 1656 409 
Q 1909 409 2131 539 
Q 2353 669 2445 892 
Q 2538 1116 2538 1541 
L 2538 3319 
L 3100 3319 
L 3100 0 
L 2597 0 
z
" transform="scale(0.015625)"/>
       <path id="ArialMT-78" d="M 47 0 
L 1259 1725 
L 138 3319 
L 841 3319 
L 1350 2541 
Q 1494 2319 1581 2169 
Q 1719 2375 1834 2534 
L 2394 3319 
L 3066 3319 
L 1919 1756 
L 3153 0 
L 2463 0 
L 1781 1031 
L 1600 1309 
L 728 0 
L 47 0 
z
" transform="scale(0.015625)"/>
       <path id="ArialMT-2f" d="M 0 -78 
L 1328 4659 
L 1778 4659 
L 453 -78 
L 0 -78 
z
" transform="scale(0.015625)"/>
      </defs>
      <use xlink:href="#ArialMT-4c"/>
      <use xlink:href="#ArialMT-79" x="51.865234"/>
      <use xlink:href="#ArialMT-63" x="101.865234"/>
      <use xlink:href="#ArialMT-6f" x="151.865234"/>
      <use xlink:href="#ArialMT-70" x="207.480469"/>
      <use xlink:href="#ArialMT-65" x="263.095703"/>
      <use xlink:href="#ArialMT-6e" x="318.710938"/>
      <use xlink:href="#ArialMT-65" x="374.326172"/>
      <use xlink:href="#ArialMT-20" x="429.941406"/>
      <use xlink:href="#ArialMT-66" x="457.724609"/>
      <use xlink:href="#ArialMT-6c" x="485.507812"/>
      <use xlink:href="#ArialMT-75" x="507.724609"/>
      <use xlink:href="#ArialMT-78" x="563.339844"/>
      <use xlink:href="#ArialMT-20" x="613.339844"/>
      <use xlink:href="#ArialMT-28" x="641.123047"/>
      <use xlink:href="#ArialMT-b5" x="674.423828"/>
      <use xlink:href="#ArialMT-4d" x="732.041016"/>
      <use xlink:href="#ArialMT-2f" x="815.341797"/>
      <use xlink:href="#ArialMT-68" x="843.125"/>
      <use xlink:href="#ArialMT-29" x="898.740234"/>
     </g>
    </g>
   </g>
   <g id="PolyCollection_1">
    <defs>
     <path id="mabff18b5ab" d="M 60.698182 -50.836364 
L 60.698182 -50.836364 
L 61.631667 -51.619295 
L 62.565153 -52.401931 
L 63.498639 -53.184405 
L 64.432124 -53.967086 
L 65.36561 -54.749573 
L 66.299095 -55.531971 
L 67.232581 -56.314572 
L 68.166067 -57.09702 
L 69.099552 -57.879415 
L 70.033038 -58.659895 
L 70.966524 -59.440296 
L 71.900009 -60.221729 
L 72.833495 -61.00379 
L 73.76698 -61.785843 
L 74.700466 -62.567923 
L 75.633952 -63.350027 
L 76.567437 -64.132131 
L 77.500923 -64.914235 
L 78.434408 -65.693998 
L 79.367894 -66.467167 
L 80.30138 -67.248313 
L 81.234865 -68.024727 
L 82.168351 -68.805377 
L 83.101836 -69.586111 
L 84.035322 -70.36735 
L 84.968808 -71.14859 
L 85.902293 -71.929829 
L 86.835779 -72.706861 
L 87.769265 -73.48795 
L 88.70275 -74.269039 
L 89.636236 -75.047565 
L 90.569721 -75.815356 
L 91.503207 -76.59595 
L 92.436693 -77.373656 
L 93.370178 -78.153532 
L 94.303664 -78.930504 
L 95.237149 -79.708429 
L 96.170635 -80.488755 
L 97.104121 -81.269081 
L 98.037606 -82.036636 
L 98.971092 -82.800803 
L 99.904577 -83.578721 
L 100.838063 -84.34883 
L 101.771549 -85.117891 
L 102.705034 -85.886196 
L 103.63852 -86.6614 
L 104.572005 -87.439703 
L 105.505491 -88.191561 
L 106.438977 -88.958002 
L 107.372462 -89.723966 
L 108.305948 -90.49912 
L 109.239434 -91.269844 
L 110.172919 -92.034067 
L 111.106405 -92.799458 
L 112.03989 -93.564825 
L 112.973376 -94.319313 
L 113.906862 -95.085448 
L 114.840347 -95.846895 
L 115.773833 -96.614805 
L 116.707318 -97.381038 
L 117.640804 -98.139835 
L 118.57429 -98.898674 
L 119.507775 -99.661284 
L 120.441261 -100.435326 
L 121.374746 -101.201656 
L 122.308232 -101.959398 
L 123.241718 -102.708501 
L 124.175203 -103.477152 
L 125.108689 -104.251224 
L 126.042175 -105.013305 
L 126.97566 -105.760565 
L 127.909146 -106.519129 
L 128.842631 -107.26402 
L 129.776117 -108.033132 
L 130.709603 -108.793891 
L 131.643088 -109.546583 
L 132.576574 -110.29435 
L 133.510059 -111.037985 
L 134.443545 -111.775274 
L 135.377031 -112.540814 
L 136.310516 -113.286814 
L 137.244002 -114.051625 
L 138.177487 -114.799156 
L 139.110973 -115.519693 
L 140.044459 -116.23583 
L 140.977944 -116.985082 
L 141.91143 -117.704901 
L 142.844915 -118.425297 
L 143.778401 -119.165549 
L 144.711887 -119.901666 
L 145.645372 -120.569974 
L 146.578858 -121.225759 
L 147.512344 -121.931564 
L 148.445829 -122.636954 
L 149.379315 -123.279859 
L 150.3128 -123.997454 
L 151.246286 -124.661831 
L 152.179772 -125.273105 
L 153.113257 -125.967459 
L 154.046743 -126.623883 
L 154.980228 -127.195465 
L 155.913714 -127.845969 
L 156.8472 -128.442118 
L 157.780685 -129.076726 
L 158.714171 -129.617679 
L 159.647656 -130.21539 
L 160.581142 -130.851407 
L 161.514628 -131.391222 
L 162.448113 -131.859857 
L 163.381599 -132.363177 
L 164.315085 -132.986735 
L 165.24857 -133.422193 
L 166.182056 -133.798768 
L 167.115541 -134.295706 
L 168.049027 -134.856694 
L 168.982513 -135.272145 
L 169.915998 -135.632746 
L 170.849484 -136.028207 
L 171.782969 -136.429637 
L 172.716455 -136.841067 
L 173.649941 -137.209253 
L 174.583426 -137.673204 
L 175.516912 -138.035809 
L 176.450397 -138.484242 
L 177.383883 -138.969909 
L 178.317369 -139.288025 
L 179.250854 -139.674874 
L 180.18434 -140.103071 
L 181.117825 -140.488392 
L 182.051311 -140.739252 
L 182.984797 -140.980037 
L 183.918282 -141.260109 
L 184.851768 -141.58203 
L 185.785254 -141.908324 
L 186.718739 -142.193778 
L 187.652225 -142.464286 
L 188.58571 -142.757102 
L 189.519196 -143.045862 
L 190.452682 -143.326504 
L 191.386167 -143.626938 
L 192.319653 -143.875549 
L 193.253138 -144.250861 
L 194.186624 -144.411571 
L 195.12011 -144.65848 
L 196.053595 -144.855005 
L 196.987081 -145.123137 
L 197.920566 -145.413799 
L 198.854052 -145.657424 
L 199.787538 -145.913833 
L 200.721023 -146.197139 
L 201.654509 -146.491662 
L 202.587995 -146.707814 
L 203.52148 -146.949359 
L 204.454966 -147.193805 
L 205.388451 -147.450699 
L 206.321937 -147.82727 
L 207.255423 -148.102319 
L 208.188908 -148.341598 
L 209.122394 -148.489477 
L 210.055879 -148.657883 
L 210.989365 -148.85059 
L 211.922851 -149.074376 
L 212.856336 -149.299469 
L 213.789822 -149.498979 
L 214.723307 -149.735733 
L 215.656793 -149.85844 
L 216.590279 -149.966575 
L 217.523764 -149.973725 
L 218.45725 -150.140037 
L 219.390735 -150.342926 
L 220.324221 -150.540486 
L 221.257707 -150.733285 
L 222.191192 -150.916758 
L 223.124678 -151.023674 
L 224.058164 -151.201972 
L 224.991649 -151.379847 
L 225.925135 -151.575716 
L 226.85862 -151.783096 
L 227.792106 -151.921797 
L 228.725592 -152.074354 
L 229.659077 -152.243361 
L 230.592563 -152.411067 
L 231.526048 -152.577488 
L 232.459534 -152.743326 
L 233.39302 -152.904716 
L 234.326505 -152.99548 
L 235.259991 -153.149131 
L 236.193476 -153.312916 
L 237.126962 -153.417412 
L 238.060448 -153.523187 
L 238.993933 -153.628479 
L 239.927419 -153.798491 
L 240.860905 -153.980721 
L 241.79439 -154.115923 
L 242.727876 -154.244398 
L 243.661361 -154.371879 
L 244.594847 -154.496423 
L 245.528333 -154.626985 
L 246.461818 -154.750092 
L 246.461818 -228.363636 
L 246.461818 -228.363636 
L 245.528333 -227.487441 
L 244.594847 -226.601166 
L 243.661361 -225.731979 
L 242.727876 -224.883362 
L 241.79439 -224.108662 
L 240.860905 -223.251482 
L 239.927419 -222.383202 
L 238.993933 -221.51809 
L 238.060448 -220.624469 
L 237.126962 -219.748884 
L 236.193476 -218.879283 
L 235.259991 -218.019928 
L 234.326505 -217.127581 
L 233.39302 -216.301827 
L 232.459534 -215.467564 
L 231.526048 -214.644858 
L 230.592563 -213.892669 
L 229.659077 -213.068934 
L 228.725592 -212.28326 
L 227.792106 -211.390685 
L 226.85862 -210.519606 
L 225.925135 -209.70696 
L 224.991649 -208.901171 
L 224.058164 -208.152922 
L 223.124678 -207.296361 
L 222.191192 -206.473801 
L 221.257707 -205.589602 
L 220.324221 -204.73274 
L 219.390735 -203.879201 
L 218.45725 -203.040758 
L 217.523764 -202.145456 
L 216.590279 -201.309676 
L 215.656793 -200.540663 
L 214.723307 -199.807627 
L 213.789822 -198.959 
L 212.856336 -198.172207 
L 211.922851 -197.38816 
L 210.989365 -196.55122 
L 210.055879 -195.745968 
L 209.122394 -194.874886 
L 208.188908 -194.06201 
L 207.255423 -193.209245 
L 206.321937 -192.408119 
L 205.388451 -191.656459 
L 204.454966 -190.880981 
L 203.52148 -190.092198 
L 202.587995 -189.306968 
L 201.654509 -188.506512 
L 200.721023 -187.77421 
L 199.787538 -186.985861 
L 198.854052 -186.217743 
L 197.920566 -185.415986 
L 196.987081 -184.629048 
L 196.053595 -183.833301 
L 195.12011 -183.035581 
L 194.186624 -182.172092 
L 193.253138 -181.430456 
L 192.319653 -180.694664 
L 191.386167 -179.90209 
L 190.452682 -179.075587 
L 189.519196 -178.363366 
L 188.58571 -177.627394 
L 187.652225 -176.891179 
L 186.718739 -176.126017 
L 185.785254 -175.34187 
L 184.851768 -174.525323 
L 183.918282 -173.810576 
L 182.984797 -173.089742 
L 182.051311 -172.376573 
L 181.117825 -171.605679 
L 180.18434 -170.873698 
L 179.250854 -170.11933 
L 178.317369 -169.399774 
L 177.383883 -168.677231 
L 176.450397 -167.899378 
L 175.516912 -167.178211 
L 174.583426 -166.433095 
L 173.649941 -165.666721 
L 172.716455 -165.006771 
L 171.782969 -164.270714 
L 170.849484 -163.607624 
L 169.915998 -162.894159 
L 168.982513 -162.166908 
L 168.049027 -161.497604 
L 167.115541 -160.85153 
L 166.182056 -160.158641 
L 165.24857 -159.529804 
L 164.315085 -158.845436 
L 163.381599 -158.152422 
L 162.448113 -157.537647 
L 161.514628 -156.900722 
L 160.581142 -156.300481 
L 159.647656 -155.604049 
L 158.714171 -154.980577 
L 157.780685 -154.367844 
L 156.8472 -153.77766 
L 155.913714 -153.162278 
L 154.980228 -152.539256 
L 154.046743 -151.811635 
L 153.113257 -151.164867 
L 152.179772 -150.53477 
L 151.246286 -149.959996 
L 150.3128 -149.349208 
L 149.379315 -148.718875 
L 148.445829 -148.083815 
L 147.512344 -147.435559 
L 146.578858 -146.846337 
L 145.645372 -146.203725 
L 144.711887 -145.607898 
L 143.778401 -144.975388 
L 142.844915 -144.389486 
L 141.91143 -143.769868 
L 140.977944 -143.239238 
L 140.044459 -142.600772 
L 139.110973 -141.997256 
L 138.177487 -141.414984 
L 137.244002 -140.890287 
L 136.310516 -140.354971 
L 135.377031 -139.741177 
L 134.443545 -139.234349 
L 133.510059 -138.712588 
L 132.576574 -138.138087 
L 131.643088 -137.605086 
L 130.709603 -137.09658 
L 129.776117 -136.560388 
L 128.842631 -136.023821 
L 127.909146 -135.449537 
L 126.97566 -134.93838 
L 126.042175 -134.458614 
L 125.108689 -133.870657 
L 124.175203 -133.383118 
L 123.241718 -132.937601 
L 122.308232 -132.454637 
L 121.374746 -131.939883 
L 120.441261 -131.406796 
L 119.507775 -130.821381 
L 118.57429 -130.480502 
L 117.640804 -129.901696 
L 116.707318 -129.240684 
L 115.773833 -128.853061 
L 114.840347 -128.467914 
L 113.906862 -127.824508 
L 112.973376 -127.387813 
L 112.03989 -126.759434 
L 111.106405 -126.152239 
L 110.172919 -125.669277 
L 109.239434 -125.147152 
L 108.305948 -124.549392 
L 107.372462 -123.999276 
L 106.438977 -123.312805 
L 105.505491 -122.482773 
L 104.572005 -121.760685 
L 103.63852 -121.001424 
L 102.705034 -120.510967 
L 101.771549 -119.662259 
L 100.838063 -118.820618 
L 99.904577 -118.173215 
L 98.971092 -117.331504 
L 98.037606 -116.451405 
L 97.104121 -115.500479 
L 96.170635 -114.68365 
L 95.237149 -113.659993 
L 94.303664 -112.679455 
L 93.370178 -111.711419 
L 92.436693 -110.745659 
L 91.503207 -109.75166 
L 90.569721 -108.754762 
L 89.636236 -107.708693 
L 88.70275 -106.620623 
L 87.769265 -105.509505 
L 86.835779 -104.418818 
L 85.902293 -103.284284 
L 84.968808 -101.98979 
L 84.035322 -100.748655 
L 83.101836 -99.468917 
L 82.168351 -98.086732 
L 81.234865 -96.645893 
L 80.30138 -95.184348 
L 79.367894 -93.71754 
L 78.434408 -92.148677 
L 77.500923 -90.494219 
L 76.567437 -88.803207 
L 75.633952 -87.096031 
L 74.700466 -85.337008 
L 73.76698 -83.5247 
L 72.833495 -81.688875 
L 71.900009 -79.730237 
L 70.966524 -77.81563 
L 70.033038 -75.891479 
L 69.099552 -73.867059 
L 68.166067 -71.667045 
L 67.232581 -69.410748 
L 66.299095 -67.075893 
L 65.36561 -64.631241 
L 64.432124 -62.079053 
L 63.498639 -59.429334 
L 62.565153 -56.67648 
L 61.631667 -53.814443 
L 60.698182 -50.836364 
z
" style="stroke: #ef553b; stroke-opacity: 0.3"/>
    </defs>
    <g clip-path="url(#p77b3fc1d08)">
     <use xlink:href="#mabff18b5ab" x="0" y="252" style="fill: #ef553b; fill-opacity: 0.3; stroke: #ef553b; stroke-opacity: 0.3"/>
    </g>
   </g>
   <g id="line2d_15">
    <defs>
     <path id="ma48360c3ef" d="M 0 2.5 
C 0.663008 2.5 1.29895 2.236584 1.767767 1.767767 
C 2.236584 1.29895 2.5 0.663008 2.5 0 
C 2.5 -0.663008 2.236584 -1.29895 1.767767 -1.767767 
C 1.29895 -2.236584 0.663008 -2.5 0 -2.5 
C -0.663008 -2.5 -1.29895 -2.236584 -1.767767 -1.767767 
C -2.236584 -1.29895 -2.5 -0.663008 -2.5 0 
C -2.5 0.663008 -2.236584 1.29895 -1.767767 1.767767 
C -1.29895 2.236584 -0.663008 2.5 0 2.5 
z
" style="stroke: #225a8c"/>
    </defs>
    <g clip-path="url(#p77b3fc1d08)">
     <use xlink:href="#ma48360c3ef" x="130.902741" y="153.102235" style="fill: #5b9bd5; stroke: #225a8c"/>
     <use xlink:href="#ma48360c3ef" x="135.784619" y="155.419481" style="fill: #5b9bd5; stroke: #225a8c"/>
     <use xlink:href="#ma48360c3ef" x="61.044638" y="201.163636" style="fill: #5b9bd5; stroke: #225a8c"/>
     <use xlink:href="#ma48360c3ef" x="61.013142" y="201.163636" style="fill: #5b9bd5; stroke: #225a8c"/>
     <use xlink:href="#ma48360c3ef" x="168.949896" y="139.198758" style="fill: #5b9bd5; stroke: #225a8c"/>
     <use xlink:href="#ma48360c3ef" x="172.005006" y="134.22097" style="fill: #5b9bd5; stroke: #225a8c"/>
     <use xlink:href="#ma48360c3ef" x="166.335729" y="153.102235" style="fill: #5b9bd5; stroke: #225a8c"/>
     <use xlink:href="#ma48360c3ef" x="150.335766" y="161.770452" style="fill: #5b9bd5; stroke: #225a8c"/>
     <use xlink:href="#ma48360c3ef" x="85.957965" y="179.965125" style="fill: #5b9bd5; stroke: #225a8c"/>
     <use xlink:href="#ma48360c3ef" x="88.792604" y="174.772778" style="fill: #5b9bd5; stroke: #225a8c"/>
     <use xlink:href="#ma48360c3ef" x="131.217701" y="158.938262" style="fill: #5b9bd5; stroke: #225a8c"/>
     <use xlink:href="#ma48360c3ef" x="122.650792" y="165.975825" style="fill: #5b9bd5; stroke: #225a8c"/>
     <use xlink:href="#ma48360c3ef" x="61.139126" y="199.318422" style="fill: #5b9bd5; stroke: #225a8c"/>
     <use xlink:href="#ma48360c3ef" x="61.26511" y="201.163636" style="fill: #5b9bd5; stroke: #225a8c"/>
     <use xlink:href="#ma48360c3ef" x="61.10763" y="199.747542" style="fill: #5b9bd5; stroke: #225a8c"/>
     <use xlink:href="#ma48360c3ef" x="141.359409" y="128.213295" style="fill: #5b9bd5; stroke: #225a8c"/>
     <use xlink:href="#ma48360c3ef" x="139.406658" y="123.364243" style="fill: #5b9bd5; stroke: #225a8c"/>
     <use xlink:href="#ma48360c3ef" x="138.745242" y="120.060022" style="fill: #5b9bd5; stroke: #225a8c"/>
     <use xlink:href="#ma48360c3ef" x="221.327725" y="74.230043" style="fill: #5b9bd5; stroke: #225a8c"/>
     <use xlink:href="#ma48360c3ef" x="211.312001" y="91.609389" style="fill: #5b9bd5; stroke: #225a8c"/>
     <use xlink:href="#ma48360c3ef" x="207.15453" y="44.363315" style="fill: #5b9bd5; stroke: #225a8c"/>
     <use xlink:href="#ma48360c3ef" x="201.768716" y="91.480653" style="fill: #5b9bd5; stroke: #225a8c"/>
     <use xlink:href="#ma48360c3ef" x="197.737229" y="89.935822" style="fill: #5b9bd5; stroke: #225a8c"/>
     <use xlink:href="#ma48360c3ef" x="194.335663" y="119.459254" style="fill: #5b9bd5; stroke: #225a8c"/>
     <use xlink:href="#ma48360c3ef" x="61.202118" y="199.404246" style="fill: #5b9bd5; stroke: #225a8c"/>
     <use xlink:href="#ma48360c3ef" x="61.076134" y="199.404246" style="fill: #5b9bd5; stroke: #225a8c"/>
     <use xlink:href="#ma48360c3ef" x="61.233614" y="199.404246" style="fill: #5b9bd5; stroke: #225a8c"/>
     <use xlink:href="#ma48360c3ef" x="194.398655" y="34.021531" style="fill: #5b9bd5; stroke: #225a8c"/>
     <use xlink:href="#ma48360c3ef" x="186.272689" y="39.299703" style="fill: #5b9bd5; stroke: #225a8c"/>
     <use xlink:href="#ma48360c3ef" x="196.193926" y="30.50275" style="fill: #5b9bd5; stroke: #225a8c"/>
     <use xlink:href="#ma48360c3ef" x="96.761089" y="99.118983" style="fill: #5b9bd5; stroke: #225a8c"/>
     <use xlink:href="#ma48360c3ef" x="99.375256" y="97.359592" style="fill: #5b9bd5; stroke: #225a8c"/>
     <use xlink:href="#ma48360c3ef" x="98.020929" y="88.562639" style="fill: #5b9bd5; stroke: #225a8c"/>
     <use xlink:href="#ma48360c3ef" x="60.698182" y="201.163636" style="fill: #5b9bd5; stroke: #225a8c"/>
     <use xlink:href="#ma48360c3ef" x="129.705893" y="123.750451" style="fill: #5b9bd5; stroke: #225a8c"/>
     <use xlink:href="#ma48360c3ef" x="139.753114" y="114.953498" style="fill: #5b9bd5; stroke: #225a8c"/>
    </g>
   </g>
   <g id="line2d_16">
    <path d="M 60.698182 201.163636 
L 68.166067 192.380503 
L 75.633952 183.969067 
L 83.101836 175.906222 
L 90.569721 168.170738 
L 98.037606 160.743074 
L 105.505491 153.605217 
L 113.906862 145.900871 
L 122.308232 138.52048 
L 130.709603 131.444035 
L 139.110973 124.653136 
L 147.512344 118.130842 
L 156.8472 111.179914 
L 166.182056 104.52161 
L 175.516912 98.137831 
L 184.851768 92.011942 
L 195.12011 85.553082 
L 205.388451 79.369026 
L 215.656793 73.442601 
L 225.925135 67.758037 
L 237.126962 61.815516 
L 246.461818 57.057589 
L 246.461818 57.057589 
" clip-path="url(#p77b3fc1d08)" style="fill: none; stroke: #ef553b; stroke-width: 1.5; stroke-linecap: round"/>
   </g>
   <g id="patch_3">
    <path d="M 51.41 210.04 
L 51.41 14.76 
" style="fill: none; stroke: #262626; stroke-width: 0.8; stroke-linejoin: miter; stroke-linecap: square"/>
   </g>
   <g id="patch_4">
    <path d="M 255.75 210.04 
L 255.75 14.76 
" style="fill: none; stroke: #262626; stroke-width: 0.8; stroke-linejoin: miter; stroke-linecap: square"/>
   </g>
   <g id="patch_5">
    <path d="M 51.41 210.04 
L 255.75 210.04 
" style="fill: none; stroke: #262626; stroke-width: 0.8; stroke-linejoin: miter; stroke-linecap: square"/>
   </g>
   <g id="patch_6">
    <path d="M 51.41 14.76 
L 255.75 14.76 
" style="fill: none; stroke: #262626; stroke-width: 0.8; stroke-linejoin: miter; stroke-linecap: square"/>
   </g>
   <g id="legend_1">
    <g id="line2d_17">
     <g>
      <use xlink:href="#ma48360c3ef" x="70.41" y="27.417812" style="fill: #5b9bd5; stroke: #225a8c"/>
     </g>
    </g>
    <g id="text_17">
     <!-- PaCrtI -->
     <g style="fill: #262626" transform="translate(88.41 30.917812) scale(0.1 -0.1)">
      <defs>
       <path id="ArialMT-61" d="M 2588 409 
Q 2275 144 1986 34 
Q 1697 -75 1366 -75 
Q 819 -75 525 192 
Q 231 459 231 875 
Q 231 1119 342 1320 
Q 453 1522 633 1644 
Q 813 1766 1038 1828 
Q 1203 1872 1538 1913 
Q 2219 1994 2541 2106 
Q 2544 2222 2544 2253 
Q 2544 2597 2384 2738 
Q 2169 2928 1744 2928 
Q 1347 2928 1158 2789 
Q 969 2650 878 2297 
L 328 2372 
Q 403 2725 575 2942 
Q 747 3159 1072 3276 
Q 1397 3394 1825 3394 
Q 2250 3394 2515 3294 
Q 2781 3194 2906 3042 
Q 3031 2891 3081 2659 
Q 3109 2516 3109 2141 
L 3109 1391 
Q 3109 606 3145 398 
Q 3181 191 3288 0 
L 2700 0 
Q 2613 175 2588 409 
z
M 2541 1666 
Q 2234 1541 1622 1453 
Q 1275 1403 1131 1340 
Q 988 1278 909 1158 
Q 831 1038 831 891 
Q 831 666 1001 516 
Q 1172 366 1500 366 
Q 1825 366 2078 508 
Q 2331 650 2450 897 
Q 2541 1088 2541 1459 
L 2541 1666 
z
" transform="scale(0.015625)"/>
       <path id="ArialMT-43" d="M 3763 1606 
L 4369 1453 
Q 4178 706 3683 314 
Q 3188 -78 2472 -78 
Q 1731 -78 1267 223 
Q 803 525 561 1097 
Q 319 1669 319 2325 
Q 319 3041 592 3573 
Q 866 4106 1370 4382 
Q 1875 4659 2481 4659 
Q 3169 4659 3637 4309 
Q 4106 3959 4291 3325 
L 3694 3184 
Q 3534 3684 3231 3912 
Q 2928 4141 2469 4141 
Q 1941 4141 1586 3887 
Q 1231 3634 1087 3207 
Q 944 2781 944 2328 
Q 944 1744 1114 1308 
Q 1284 872 1643 656 
Q 2003 441 2422 441 
Q 2931 441 3284 734 
Q 3638 1028 3763 1606 
z
" transform="scale(0.015625)"/>
       <path id="ArialMT-72" d="M 416 0 
L 416 3319 
L 922 3319 
L 922 2816 
Q 1116 3169 1280 3281 
Q 1444 3394 1641 3394 
Q 1925 3394 2219 3213 
L 2025 2691 
Q 1819 2813 1613 2813 
Q 1428 2813 1281 2702 
Q 1134 2591 1072 2394 
Q 978 2094 978 1738 
L 978 0 
L 416 0 
z
" transform="scale(0.015625)"/>
       <path id="ArialMT-49" d="M 597 0 
L 597 4581 
L 1203 4581 
L 1203 0 
L 597 0 
z
" transform="scale(0.015625)"/>
      </defs>
      <use xlink:href="#ArialMT-50"/>
      <use xlink:href="#ArialMT-61" x="66.699219"/>
      <use xlink:href="#ArialMT-43" x="122.314453"/>
      <use xlink:href="#ArialMT-72" x="194.53125"/>
      <use xlink:href="#ArialMT-74" x="227.832031"/>
      <use xlink:href="#ArialMT-49" x="255.615234"/>
     </g>
    </g>
    <g id="line2d_18">
     <path d="M 60.41 41.685 
L 70.41 41.685 
L 80.41 41.685 
" style="fill: none; stroke: #ef553b; stroke-width: 1.5; stroke-linecap: round"/>
    </g>
    <g id="text_18">
     <!-- best fit (95% CI) -->
     <g style="fill: #262626" transform="translate(88.41 45.185) scale(0.1 -0.1)">
      <defs>
       <path id="ArialMT-62" d="M 941 0 
L 419 0 
L 419 4581 
L 981 4581 
L 981 2947 
Q 1338 3394 1891 3394 
Q 2197 3394 2470 3270 
Q 2744 3147 2920 2923 
Q 3097 2700 3197 2384 
Q 3297 2069 3297 1709 
Q 3297 856 2875 390 
Q 2453 -75 1863 -75 
Q 1275 -75 941 416 
L 941 0 
z
M 934 1684 
Q 934 1088 1097 822 
Q 1363 388 1816 388 
Q 2184 388 2453 708 
Q 2722 1028 2722 1663 
Q 2722 2313 2464 2622 
Q 2206 2931 1841 2931 
Q 1472 2931 1203 2611 
Q 934 2291 934 1684 
z
" transform="scale(0.015625)"/>
       <path id="ArialMT-73" d="M 197 991 
L 753 1078 
Q 800 744 1014 566 
Q 1228 388 1613 388 
Q 2000 388 2187 545 
Q 2375 703 2375 916 
Q 2375 1106 2209 1216 
Q 2094 1291 1634 1406 
Q 1016 1563 777 1677 
Q 538 1791 414 1992 
Q 291 2194 291 2438 
Q 291 2659 392 2848 
Q 494 3038 669 3163 
Q 800 3259 1026 3326 
Q 1253 3394 1513 3394 
Q 1903 3394 2198 3281 
Q 2494 3169 2634 2976 
Q 2775 2784 2828 2463 
L 2278 2388 
Q 2241 2644 2061 2787 
Q 1881 2931 1553 2931 
Q 1166 2931 1000 2803 
Q 834 2675 834 2503 
Q 834 2394 903 2306 
Q 972 2216 1119 2156 
Q 1203 2125 1616 2013 
Q 2213 1853 2448 1751 
Q 2684 1650 2818 1456 
Q 2953 1263 2953 975 
Q 2953 694 2789 445 
Q 2625 197 2315 61 
Q 2006 -75 1616 -75 
Q 969 -75 630 194 
Q 291 463 197 991 
z
" transform="scale(0.015625)"/>
       <path id="ArialMT-69" d="M 425 3934 
L 425 4581 
L 988 4581 
L 988 3934 
L 425 3934 
z
M 425 0 
L 425 3319 
L 988 3319 
L 988 0 
L 425 0 
z
" transform="scale(0.015625)"/>
       <path id="ArialMT-39" d="M 350 1059 
L 891 1109 
Q 959 728 1153 556 
Q 1347 384 1650 384 
Q 1909 384 2104 503 
Q 2300 622 2425 820 
Q 2550 1019 2634 1356 
Q 2719 1694 2719 2044 
Q 2719 2081 2716 2156 
Q 2547 1888 2255 1720 
Q 1963 1553 1622 1553 
Q 1053 1553 659 1965 
Q 266 2378 266 3053 
Q 266 3750 677 4175 
Q 1088 4600 1706 4600 
Q 2153 4600 2523 4359 
Q 2894 4119 3086 3673 
Q 3278 3228 3278 2384 
Q 3278 1506 3087 986 
Q 2897 466 2520 194 
Q 2144 -78 1638 -78 
Q 1100 -78 759 220 
Q 419 519 350 1059 
z
M 2653 3081 
Q 2653 3566 2395 3850 
Q 2138 4134 1775 4134 
Q 1400 4134 1122 3828 
Q 844 3522 844 3034 
Q 844 2597 1108 2323 
Q 1372 2050 1759 2050 
Q 2150 2050 2401 2323 
Q 2653 2597 2653 3081 
z
" transform="scale(0.015625)"/>
       <path id="ArialMT-25" d="M 372 3481 
Q 372 3972 619 4315 
Q 866 4659 1334 4659 
Q 1766 4659 2048 4351 
Q 2331 4044 2331 3447 
Q 2331 2866 2045 2552 
Q 1759 2238 1341 2238 
Q 925 2238 648 2547 
Q 372 2856 372 3481 
z
M 1350 4272 
Q 1141 4272 1002 4090 
Q 863 3909 863 3425 
Q 863 2984 1003 2804 
Q 1144 2625 1350 2625 
Q 1563 2625 1702 2806 
Q 1841 2988 1841 3469 
Q 1841 3913 1700 4092 
Q 1559 4272 1350 4272 
z
M 1353 -169 
L 3859 4659 
L 4316 4659 
L 1819 -169 
L 1353 -169 
z
M 3334 1075 
Q 3334 1569 3581 1911 
Q 3828 2253 4300 2253 
Q 4731 2253 5014 1945 
Q 5297 1638 5297 1041 
Q 5297 459 5011 145 
Q 4725 -169 4303 -169 
Q 3888 -169 3611 142 
Q 3334 453 3334 1075 
z
M 4316 1866 
Q 4103 1866 3964 1684 
Q 3825 1503 3825 1019 
Q 3825 581 3965 400 
Q 4106 219 4313 219 
Q 4528 219 4667 400 
Q 4806 581 4806 1063 
Q 4806 1506 4665 1686 
Q 4525 1866 4316 1866 
z
" transform="scale(0.015625)"/>
      </defs>
      <use xlink:href="#ArialMT-62"/>
      <use xlink:href="#ArialMT-65" x="55.615234"/>
      <use xlink:href="#ArialMT-73" x="111.230469"/>
      <use xlink:href="#ArialMT-74" x="161.230469"/>
      <use xlink:href="#ArialMT-20" x="189.013672"/>
      <use xlink:href="#ArialMT-66" x="216.796875"/>
      <use xlink:href="#ArialMT-69" x="244.580078"/>
      <use xlink:href="#ArialMT-74" x="266.796875"/>
      <use xlink:href="#ArialMT-20" x="294.580078"/>
      <use xlink:href="#ArialMT-28" x="322.363281"/>
      <use xlink:href="#ArialMT-39" x="355.664062"/>
      <use xlink:href="#ArialMT-35" x="411.279297"/>
      <use xlink:href="#ArialMT-25" x="466.894531"/>
      <use xlink:href="#ArialMT-20" x="555.810547"/>
      <use xlink:href="#ArialMT-43" x="583.59375"/>
      <use xlink:href="#ArialMT-49" x="655.810547"/>
      <use xlink:href="#ArialMT-29" x="683.59375"/>
     </g>
    </g>
   </g>
  </g>
  <g id="axes_2">
   <g id="patch_7">
    <path d="M 314.135 210.04 
L 518.475 210.04 
L 518.475 14.76 
L 314.135 14.76 
z
" style="fill: #ffffff"/>
   </g>
   <g id="matplotlib.axis_3">
    <g id="xtick_7">
     <g id="text_19">
      <!-- 0.0 -->
      <g style="fill: #262626" transform="translate(307.185 224.197812) scale(0.1 -0.1)">
       <use xlink:href="#ArialMT-30"/>
       <use xlink:href="#ArialMT-2e" x="55.615234"/>
       <use xlink:href="#ArialMT-30" x="83.398438"/>
      </g>
     </g>
    </g>
    <g id="xtick_8">
     <g id="text_20">
      <!-- 0.2 -->
      <g style="fill: #262626" transform="translate(348.053 224.197812) scale(0.1 -0.1)">
       <use xlink:href="#ArialMT-30"/>
       <use xlink:href="#ArialMT-2e" x="55.615234"/>
       <use xlink:href="#ArialMT-32" x="83.398438"/>
      </g>
     </g>
    </g>
    <g id="xtick_9">
     <g id="text_21">
      <!-- 0.4 -->
      <g style="fill: #262626" transform="translate(388.921 224.197812) scale(0.1 -0.1)">
       <defs>
        <path id="ArialMT-34" d="M 2069 0 
L 2069 1097 
L 81 1097 
L 81 1613 
L 2172 4581 
L 2631 4581 
L 2631 1613 
L 3250 1613 
L 3250 1097 
L 2631 1097 
L 2631 0 
L 2069 0 
z
M 2069 1613 
L 2069 3678 
L 634 1613 
L 2069 1613 
z
" transform="scale(0.015625)"/>
       </defs>
       <use xlink:href="#ArialMT-30"/>
       <use xlink:href="#ArialMT-2e" x="55.615234"/>
       <use xlink:href="#ArialMT-34" x="83.398438"/>
      </g>
     </g>
    </g>
    <g id="xtick_10">
     <g id="text_22">
      <!-- 0.6 -->
      <g style="fill: #262626" transform="translate(429.789 224.197812) scale(0.1 -0.1)">
       <defs>
        <path id="ArialMT-36" d="M 3184 3459 
L 2625 3416 
Q 2550 3747 2413 3897 
Q 2184 4138 1850 4138 
Q 1581 4138 1378 3988 
Q 1113 3794 959 3422 
Q 806 3050 800 2363 
Q 1003 2672 1297 2822 
Q 1591 2972 1913 2972 
Q 2475 2972 2870 2558 
Q 3266 2144 3266 1488 
Q 3266 1056 3080 686 
Q 2894 316 2569 119 
Q 2244 -78 1831 -78 
Q 1128 -78 684 439 
Q 241 956 241 2144 
Q 241 3472 731 4075 
Q 1159 4600 1884 4600 
Q 2425 4600 2770 4297 
Q 3116 3994 3184 3459 
z
M 888 1484 
Q 888 1194 1011 928 
Q 1134 663 1356 523 
Q 1578 384 1822 384 
Q 2178 384 2434 671 
Q 2691 959 2691 1453 
Q 2691 1928 2437 2201 
Q 2184 2475 1800 2475 
Q 1419 2475 1153 2201 
Q 888 1928 888 1484 
z
" transform="scale(0.015625)"/>
       </defs>
       <use xlink:href="#ArialMT-30"/>
       <use xlink:href="#ArialMT-2e" x="55.615234"/>
       <use xlink:href="#ArialMT-36" x="83.398438"/>
      </g>
     </g>
    </g>
    <g id="xtick_11">
     <g id="text_23">
      <!-- 0.8 -->
      <g style="fill: #262626" transform="translate(470.657 224.197812) scale(0.1 -0.1)">
       <defs>
        <path id="ArialMT-38" d="M 1131 2484 
Q 781 2613 612 2850 
Q 444 3088 444 3419 
Q 444 3919 803 4259 
Q 1163 4600 1759 4600 
Q 2359 4600 2725 4251 
Q 3091 3903 3091 3403 
Q 3091 3084 2923 2848 
Q 2756 2613 2416 2484 
Q 2838 2347 3058 2040 
Q 3278 1734 3278 1309 
Q 3278 722 2862 322 
Q 2447 -78 1769 -78 
Q 1091 -78 675 323 
Q 259 725 259 1325 
Q 259 1772 486 2073 
Q 713 2375 1131 2484 
z
M 1019 3438 
Q 1019 3113 1228 2906 
Q 1438 2700 1772 2700 
Q 2097 2700 2305 2904 
Q 2513 3109 2513 3406 
Q 2513 3716 2298 3927 
Q 2084 4138 1766 4138 
Q 1444 4138 1231 3931 
Q 1019 3725 1019 3438 
z
M 838 1322 
Q 838 1081 952 856 
Q 1066 631 1291 507 
Q 1516 384 1775 384 
Q 2178 384 2440 643 
Q 2703 903 2703 1303 
Q 2703 1709 2433 1975 
Q 2163 2241 1756 2241 
Q 1359 2241 1098 1978 
Q 838 1716 838 1322 
z
" transform="scale(0.015625)"/>
       </defs>
       <use xlink:href="#ArialMT-30"/>
       <use xlink:href="#ArialMT-2e" x="55.615234"/>
       <use xlink:href="#ArialMT-38" x="83.398438"/>
      </g>
     </g>
    </g>
    <g id="xtick_12">
     <g id="text_24">
      <!-- 1.0 -->
      <g style="fill: #262626" transform="translate(511.525 224.197812) scale(0.1 -0.1)">
       <use xlink:href="#ArialMT-31"/>
       <use xlink:href="#ArialMT-2e" x="55.615234"/>
       <use xlink:href="#ArialMT-30" x="83.398438"/>
      </g>
     </g>
    </g>
   </g>
   <g id="matplotlib.axis_4">
    <g id="ytick_9">
     <g id="text_25">
      <!-- 0.0 -->
      <g style="fill: #262626" transform="translate(293.235 213.618906) scale(0.1 -0.1)">
       <use xlink:href="#ArialMT-30"/>
       <use xlink:href="#ArialMT-2e" x="55.615234"/>
       <use xlink:href="#ArialMT-30" x="83.398438"/>
      </g>
     </g>
    </g>
    <g id="ytick_10">
     <g id="text_26">
      <!-- 0.2 -->
      <g style="fill: #262626" transform="translate(293.235 174.562906) scale(0.1 -0.1)">
       <use xlink:href="#ArialMT-30"/>
       <use xlink:href="#ArialMT-2e" x="55.615234"/>
       <use xlink:href="#ArialMT-32" x="83.398438"/>
      </g>
     </g>
    </g>
    <g id="ytick_11">
     <g id="text_27">
      <!-- 0.4 -->
      <g style="fill: #262626" transform="translate(293.235 135.506906) scale(0.1 -0.1)">
       <use xlink:href="#ArialMT-30"/>
       <use xlink:href="#ArialMT-2e" x="55.615234"/>
       <use xlink:href="#ArialMT-34" x="83.398438"/>
      </g>
     </g>
    </g>
    <g id="ytick_12">
     <g id="text_28">
      <!-- 0.6 -->
      <g style="fill: #262626" transform="translate(293.235 96.450906) scale(0.1 -0.1)">
       <use xlink:href="#ArialMT-30"/>
       <use xlink:href="#ArialMT-2e" x="55.615234"/>
       <use xlink:href="#ArialMT-36" x="83.398438"/>
      </g>
     </g>
    </g>
    <g id="ytick_13">
     <g id="text_29">
      <!-- 0.8 -->
      <g style="fill: #262626" transform="translate(293.235 57.394906) scale(0.1 -0.1)">
       <use xlink:href="#ArialMT-30"/>
       <use xlink:href="#ArialMT-2e" x="55.615234"/>
       <use xlink:href="#ArialMT-38" x="83.398438"/>
      </g>
     </g>
    </g>
    <g id="ytick_14">
     <g id="text_30">
      <!-- 1.0 -->
      <g style="fill: #262626" transform="translate(293.235 18.338906) scale(0.1 -0.1)">
       <use xlink:href="#ArialMT-31"/>
       <use xlink:href="#ArialMT-2e" x="55.615234"/>
       <use xlink:href="#ArialMT-30" x="83.398438"/>
      </g>
     </g>
    </g>
   </g>
   <g id="patch_8">
    <path d="M 314.135 210.04 
L 314.135 14.76 
" style="fill: none; stroke: #262626; stroke-width: 0.8; stroke-linejoin: miter; stroke-linecap: square"/>
   </g>
   <g id="patch_9">
    <path d="M 518.475 210.04 
L 518.475 14.76 
" style="fill: none; stroke: #262626; stroke-width: 0.8; stroke-linejoin: miter; stroke-linecap: square"/>
   </g>
   <g id="patch_10">
    <path d="M 314.135 210.04 
L 518.475 210.04 
" style="fill: none; stroke: #262626; stroke-width: 0.8; stroke-linejoin: miter; stroke-linecap: square"/>
   </g>
   <g id="patch_11">
    <path d="M 314.135 14.76 
L 518.475 14.76 
" style="fill: none; stroke: #262626; stroke-width: 0.8; stroke-linejoin: miter; stroke-linecap: square"/>
   </g>
  </g>
  <g id="axes_3">
   <g id="patch_12">
    <path d="M 576.86 210.04 
L 781.2 210.04 
L 781.2 14.76 
L 576.86 14.76 
z
" style="fill: #ffffff"/>
   </g>
   <g id="matplotlib.axis_5">
    <g id="xtick_13">
     <g id="line2d_19">
      <g>
       <use xlink:href="#m6328f5da74" x="580.989941" y="210.04" style="fill: #262626; stroke: #262626; stroke-width: 0.8"/>
      </g>
     </g>
     <g id="text_31">
      <!-- −10 -->
      <g style="fill: #262626" transform="translate(572.508691 224.197812) scale(0.1 -0.1)">
       <defs>
        <path id="ArialMT-2212" d="M 3381 1997 
L 356 1997 
L 356 2522 
L 3381 2522 
L 3381 1997 
z
" transform="scale(0.015625)"/>
       </defs>
       <use xlink:href="#ArialMT-2212"/>
       <use xlink:href="#ArialMT-31" x="58.398438"/>
       <use xlink:href="#ArialMT-30" x="114.013672"/>
      </g>
     </g>
    </g>
    <g id="xtick_14">
     <g id="line2d_20">
      <g>
       <use xlink:href="#m6328f5da74" x="624.864462" y="210.04" style="fill: #262626; stroke: #262626; stroke-width: 0.8"/>
      </g>
     </g>
     <g id="text_32">
      <!-- −5 -->
      <g style="fill: #262626" transform="translate(619.163681 224.197812) scale(0.1 -0.1)">
       <use xlink:href="#ArialMT-2212"/>
       <use xlink:href="#ArialMT-35" x="58.398438"/>
      </g>
     </g>
    </g>
    <g id="xtick_15">
     <g id="line2d_21">
      <g>
       <use xlink:href="#m6328f5da74" x="668.738983" y="210.04" style="fill: #262626; stroke: #262626; stroke-width: 0.8"/>
      </g>
     </g>
     <g id="text_33">
      <!-- 0 -->
      <g style="fill: #262626" transform="translate(665.958514 224.197812) scale(0.1 -0.1)">
       <use xlink:href="#ArialMT-30"/>
      </g>
     </g>
    </g>
    <g id="xtick_16">
     <g id="line2d_22">
      <g>
       <use xlink:href="#m6328f5da74" x="712.613504" y="210.04" style="fill: #262626; stroke: #262626; stroke-width: 0.8"/>
      </g>
     </g>
     <g id="text_34">
      <!-- 5 -->
      <g style="fill: #262626" transform="translate(709.833035 224.197812) scale(0.1 -0.1)">
       <use xlink:href="#ArialMT-35"/>
      </g>
     </g>
    </g>
    <g id="xtick_17">
     <g id="line2d_23">
      <g>
       <use xlink:href="#m6328f5da74" x="756.488025" y="210.04" style="fill: #262626; stroke: #262626; stroke-width: 0.8"/>
      </g>
     </g>
     <g id="text_35">
      <!-- 10 -->
      <g style="fill: #262626" transform="translate(750.927087 224.197812) scale(0.1 -0.1)">
       <use xlink:href="#ArialMT-31"/>
       <use xlink:href="#ArialMT-30" x="55.615234"/>
      </g>
     </g>
    </g>
    <g id="text_36">
     <!-- residual -->
     <g style="fill: #262626" transform="translate(661.521406 237.343125) scale(0.1 -0.1)">
      <defs>
       <path id="ArialMT-64" d="M 2575 0 
L 2575 419 
Q 2259 -75 1647 -75 
Q 1250 -75 917 144 
Q 584 363 401 755 
Q 219 1147 219 1656 
Q 219 2153 384 2558 
Q 550 2963 881 3178 
Q 1213 3394 1622 3394 
Q 1922 3394 2156 3267 
Q 2391 3141 2538 2938 
L 2538 4581 
L 3097 4581 
L 3097 0 
L 2575 0 
z
M 797 1656 
Q 797 1019 1065 703 
Q 1334 388 1700 388 
Q 2069 388 2326 689 
Q 2584 991 2584 1609 
Q 2584 2291 2321 2609 
Q 2059 2928 1675 2928 
Q 1300 2928 1048 2622 
Q 797 2316 797 1656 
z
" transform="scale(0.015625)"/>
      </defs>
      <use xlink:href="#ArialMT-72"/>
      <use xlink:href="#ArialMT-65" x="33.300781"/>
      <use xlink:href="#ArialMT-73" x="88.916016"/>
      <use xlink:href="#ArialMT-69" x="138.916016"/>
      <use xlink:href="#ArialMT-64" x="161.132812"/>
      <use xlink:href="#ArialMT-75" x="216.748047"/>
      <use xlink:href="#ArialMT-61" x="272.363281"/>
      <use xlink:href="#ArialMT-6c" x="327.978516"/>
     </g>
    </g>
   </g>
   <g id="matplotlib.axis_6">
    <g id="ytick_15">
     <g id="line2d_24">
      <g>
       <use xlink:href="#m34bbd917e9" x="576.86" y="210.04" style="fill: #262626; stroke: #262626; stroke-width: 0.8"/>
      </g>
     </g>
     <g id="text_37">
      <!-- 0.00 -->
      <g style="fill: #262626" transform="translate(550.399062 213.618906) scale(0.1 -0.1)">
       <use xlink:href="#ArialMT-30"/>
       <use xlink:href="#ArialMT-2e" x="55.615234"/>
       <use xlink:href="#ArialMT-30" x="83.398438"/>
       <use xlink:href="#ArialMT-30" x="139.013672"/>
      </g>
     </g>
    </g>
    <g id="ytick_16">
     <g id="line2d_25">
      <g>
       <use xlink:href="#m34bbd917e9" x="576.86" y="182.000852" style="fill: #262626; stroke: #262626; stroke-width: 0.8"/>
      </g>
     </g>
     <g id="text_38">
      <!-- 0.05 -->
      <g style="fill: #262626" transform="translate(550.399062 185.579758) scale(0.1 -0.1)">
       <use xlink:href="#ArialMT-30"/>
       <use xlink:href="#ArialMT-2e" x="55.615234"/>
       <use xlink:href="#ArialMT-30" x="83.398438"/>
       <use xlink:href="#ArialMT-35" x="139.013672"/>
      </g>
     </g>
    </g>
    <g id="ytick_17">
     <g id="line2d_26">
      <g>
       <use xlink:href="#m34bbd917e9" x="576.86" y="153.961704" style="fill: #262626; stroke: #262626; stroke-width: 0.8"/>
      </g>
     </g>
     <g id="text_39">
      <!-- 0.10 -->
      <g style="fill: #262626" transform="translate(550.399062 157.54061) scale(0.1 -0.1)">
       <use xlink:href="#ArialMT-30"/>
       <use xlink:href="#ArialMT-2e" x="55.615234"/>
       <use xlink:href="#ArialMT-31" x="83.398438"/>
       <use xlink:href="#ArialMT-30" x="139.013672"/>
      </g>
     </g>
    </g>
    <g id="ytick_18">
     <g id="line2d_27">
      <g>
       <use xlink:href="#m34bbd917e9" x="576.86" y="125.922556" style="fill: #262626; stroke: #262626; stroke-width: 0.8"/>
      </g>
     </g>
     <g id="text_40">
      <!-- 0.15 -->
      <g style="fill: #262626" transform="translate(550.399062 129.501462) scale(0.1 -0.1)">
       <use xlink:href="#ArialMT-30"/>
       <use xlink:href="#ArialMT-2e" x="55.615234"/>
       <use xlink:href="#ArialMT-31" x="83.398438"/>
       <use xlink:href="#ArialMT-35" x="139.013672"/>
      </g>
     </g>
    </g>
    <g id="ytick_19">
     <g id="line2d_28">
      <g>
       <use xlink:href="#m34bbd917e9" x="576.86" y="97.883408" style="fill: #262626; stroke: #262626; stroke-width: 0.8"/>
      </g>
     </g>
     <g id="text_41">
      <!-- 0.20 -->
      <g style="fill: #262626" transform="translate(550.399062 101.462314) scale(0.1 -0.1)">
       <use xlink:href="#ArialMT-30"/>
       <use xlink:href="#ArialMT-2e" x="55.615234"/>
       <use xlink:href="#ArialMT-32" x="83.398438"/>
       <use xlink:href="#ArialMT-30" x="139.013672"/>
      </g>
     </g>
    </g>
    <g id="ytick_20">
     <g id="line2d_29">
      <g>
       <use xlink:href="#m34bbd917e9" x="576.86" y="69.844259" style="fill: #262626; stroke: #262626; stroke-width: 0.8"/>
      </g>
     </g>
     <g id="text_42">
      <!-- 0.25 -->
      <g style="fill: #262626" transform="translate(550.399062 73.423166) scale(0.1 -0.1)">
       <use xlink:href="#ArialMT-30"/>
       <use xlink:href="#ArialMT-2e" x="55.615234"/>
       <use xlink:href="#ArialMT-32" x="83.398438"/>
       <use xlink:href="#ArialMT-35" x="139.013672"/>
      </g>
     </g>
    </g>
    <g id="ytick_21">
     <g id="line2d_30">
      <g>
       <use xlink:href="#m34bbd917e9" x="576.86" y="41.805111" style="fill: #262626; stroke: #262626; stroke-width: 0.8"/>
      </g>
     </g>
     <g id="text_43">
      <!-- 0.30 -->
      <g style="fill: #262626" transform="translate(550.399062 45.384018) scale(0.1 -0.1)">
       <defs>
        <path id="ArialMT-33" d="M 269 1209 
L 831 1284 
Q 928 806 1161 595 
Q 1394 384 1728 384 
Q 2125 384 2398 659 
Q 2672 934 2672 1341 
Q 2672 1728 2419 1979 
Q 2166 2231 1775 2231 
Q 1616 2231 1378 2169 
L 1441 2663 
Q 1497 2656 1531 2656 
Q 1891 2656 2178 2843 
Q 2466 3031 2466 3422 
Q 2466 3731 2256 3934 
Q 2047 4138 1716 4138 
Q 1388 4138 1169 3931 
Q 950 3725 888 3313 
L 325 3413 
Q 428 3978 793 4289 
Q 1159 4600 1703 4600 
Q 2078 4600 2393 4439 
Q 2709 4278 2876 4000 
Q 3044 3722 3044 3409 
Q 3044 3113 2884 2869 
Q 2725 2625 2413 2481 
Q 2819 2388 3044 2092 
Q 3269 1797 3269 1353 
Q 3269 753 2831 336 
Q 2394 -81 1725 -81 
Q 1122 -81 723 278 
Q 325 638 269 1209 
z
" transform="scale(0.015625)"/>
       </defs>
       <use xlink:href="#ArialMT-30"/>
       <use xlink:href="#ArialMT-2e" x="55.615234"/>
       <use xlink:href="#ArialMT-33" x="83.398438"/>
       <use xlink:href="#ArialMT-30" x="139.013672"/>
      </g>
     </g>
    </g>
    <g id="text_44">
     <!-- Density -->
     <g style="fill: #262626" transform="translate(544.294375 129.071875) rotate(-90) scale(0.1 -0.1)">
      <defs>
       <path id="ArialMT-44" d="M 494 0 
L 494 4581 
L 2072 4581 
Q 2606 4581 2888 4516 
Q 3281 4425 3559 4188 
Q 3922 3881 4101 3404 
Q 4281 2928 4281 2316 
Q 4281 1794 4159 1391 
Q 4038 988 3847 723 
Q 3656 459 3429 307 
Q 3203 156 2883 78 
Q 2563 0 2147 0 
L 494 0 
z
M 1100 541 
L 2078 541 
Q 2531 541 2789 625 
Q 3047 709 3200 863 
Q 3416 1078 3536 1442 
Q 3656 1806 3656 2325 
Q 3656 3044 3420 3430 
Q 3184 3816 2847 3947 
Q 2603 4041 2063 4041 
L 1100 4041 
L 1100 541 
z
" transform="scale(0.015625)"/>
      </defs>
      <use xlink:href="#ArialMT-44"/>
      <use xlink:href="#ArialMT-65" x="72.216797"/>
      <use xlink:href="#ArialMT-6e" x="127.832031"/>
      <use xlink:href="#ArialMT-73" x="183.447266"/>
      <use xlink:href="#ArialMT-69" x="233.447266"/>
      <use xlink:href="#ArialMT-74" x="255.664062"/>
      <use xlink:href="#ArialMT-79" x="283.447266"/>
     </g>
    </g>
   </g>
   <g id="patch_13">
    <path d="M 626.112573 210.04 
L 637.872001 210.04 
L 637.872001 175.168571 
L 626.112573 175.168571 
z
" clip-path="url(#pe0a633583e)" style="fill: #225a8c; fill-opacity: 0.5; stroke: #ffffff; stroke-linejoin: miter"/>
   </g>
   <g id="patch_14">
    <path d="M 637.872001 210.04 
L 649.631429 210.04 
L 649.631429 151.920952 
L 637.872001 151.920952 
z
" clip-path="url(#pe0a633583e)" style="fill: #225a8c; fill-opacity: 0.5; stroke: #ffffff; stroke-linejoin: miter"/>
   </g>
   <g id="patch_15">
    <path d="M 649.631429 210.04 
L 661.390858 210.04 
L 661.390858 175.168571 
L 649.631429 175.168571 
z
" clip-path="url(#pe0a633583e)" style="fill: #225a8c; fill-opacity: 0.5; stroke: #ffffff; stroke-linejoin: miter"/>
   </g>
   <g id="patch_16">
    <path d="M 661.390858 210.04 
L 673.150286 210.04 
L 673.150286 24.059048 
L 661.390858 24.059048 
z
" clip-path="url(#pe0a633583e)" style="fill: #225a8c; fill-opacity: 0.5; stroke: #ffffff; stroke-linejoin: miter"/>
   </g>
   <g id="patch_17">
    <path d="M 673.150286 210.04 
L 684.909714 210.04 
L 684.909714 186.792381 
L 673.150286 186.792381 
z
" clip-path="url(#pe0a633583e)" style="fill: #225a8c; fill-opacity: 0.5; stroke: #ffffff; stroke-linejoin: miter"/>
   </g>
   <g id="patch_18">
    <path d="M 684.909714 210.04 
L 696.669142 210.04 
L 696.669142 210.04 
L 684.909714 210.04 
z
" clip-path="url(#pe0a633583e)" style="fill: #225a8c; fill-opacity: 0.5; stroke: #ffffff; stroke-linejoin: miter"/>
   </g>
   <g id="patch_19">
    <path d="M 696.669142 210.04 
L 708.428571 210.04 
L 708.428571 198.41619 
L 696.669142 198.41619 
z
" clip-path="url(#pe0a633583e)" style="fill: #225a8c; fill-opacity: 0.5; stroke: #ffffff; stroke-linejoin: miter"/>
   </g>
   <g id="patch_20">
    <path d="M 708.428571 210.04 
L 720.187999 210.04 
L 720.187999 175.168571 
L 708.428571 175.168571 
z
" clip-path="url(#pe0a633583e)" style="fill: #225a8c; fill-opacity: 0.5; stroke: #ffffff; stroke-linejoin: miter"/>
   </g>
   <g id="patch_21">
    <path d="M 720.187999 210.04 
L 731.947427 210.04 
L 731.947427 175.168571 
L 720.187999 175.168571 
z
" clip-path="url(#pe0a633583e)" style="fill: #225a8c; fill-opacity: 0.5; stroke: #ffffff; stroke-linejoin: miter"/>
   </g>
   <g id="line2d_31">
    <path d="M 586.148182 209.96256 
L 591.749095 209.771841 
L 595.483038 209.478168 
L 599.21698 208.941009 
L 602.017437 208.300151 
L 604.817894 207.384111 
L 606.684865 206.587575 
L 608.551836 205.620477 
L 610.418808 204.466556 
L 612.285779 203.113148 
L 614.15275 201.552386 
L 616.019721 199.782233 
L 618.820178 196.746221 
L 621.620635 193.295209 
L 624.421092 189.505232 
L 629.08852 182.704465 
L 640.290347 165.747978 
L 644.02429 159.775221 
L 646.824746 154.966706 
L 650.558689 148.045655 
L 657.093088 135.628069 
L 658.960059 132.563355 
L 660.827031 130.008593 
L 661.760516 128.976633 
L 662.694002 128.135773 
L 663.627487 127.504841 
L 664.560973 127.100631 
L 665.494459 126.937442 
L 666.427944 127.026663 
L 667.36143 127.376425 
L 668.294915 127.991322 
L 669.228401 128.872223 
L 670.161887 130.016169 
L 671.095372 131.416362 
L 672.028858 133.062255 
L 673.895829 137.03135 
L 675.7628 141.772829 
L 677.629772 147.095345 
L 682.2972 161.50009 
L 685.097656 169.80928 
L 686.964628 174.823633 
L 688.831599 179.263277 
L 690.69857 183.042746 
L 692.565541 186.118192 
L 694.432513 188.484032 
L 695.365998 189.408287 
L 696.299484 190.167648 
L 697.232969 190.769651 
L 698.166455 191.223091 
L 699.099941 191.537818 
L 700.033426 191.724553 
L 701.900397 191.760208 
L 703.767369 191.426732 
L 705.63434 190.824605 
L 708.434797 189.636165 
L 712.168739 188.008562 
L 714.03571 187.359621 
L 715.902682 186.907587 
L 717.769653 186.699676 
L 719.636624 186.767039 
L 721.503595 187.124241 
L 723.370566 187.769588 
L 725.237538 188.686337 
L 727.104509 189.844733 
L 729.904966 191.945723 
L 733.638908 195.168122 
L 739.239822 200.096433 
L 742.040279 202.303135 
L 744.840735 204.219788 
L 747.641192 205.809134 
L 750.441649 207.06984 
L 753.242106 208.027587 
L 756.042563 208.724906 
L 758.84302 209.211655 
L 762.576962 209.618115 
L 767.24439 209.875085 
L 771.911818 209.982197 
L 771.911818 209.982197 
" clip-path="url(#pe0a633583e)" style="fill: none; stroke: #225a8c; stroke-width: 1.5; stroke-linecap: round"/>
   </g>
   <g id="patch_22">
    <path d="M 576.86 210.04 
L 576.86 14.76 
" style="fill: none; stroke: #262626; stroke-width: 0.8; stroke-linejoin: miter; stroke-linecap: square"/>
   </g>
   <g id="patch_23">
    <path d="M 781.2 210.04 
L 781.2 14.76 
" style="fill: none; stroke: #262626; stroke-width: 0.8; stroke-linejoin: miter; stroke-linecap: square"/>
   </g>
   <g id="patch_24">
    <path d="M 576.86 210.04 
L 781.2 210.04 
" style="fill: none; stroke: #262626; stroke-width: 0.8; stroke-linejoin: miter; stroke-linecap: square"/>
   </g>
   <g id="patch_25">
    <path d="M 576.86 14.76 
L 781.2 14.76 
" style="fill: none; stroke: #262626; stroke-width: 0.8; stroke-linejoin: miter; stroke-linecap: square"/>
   </g>
  </g>
 </g>
 <defs>
  <clipPath id="p77b3fc1d08">
   <rect x="51.41" y="14.76" width="204.34" height="195.28"/>
  </clipPath>
  <clipPath id="pe0a633583e">
   <rect x="576.86" y="14.76" width="204.34" height="195.28"/>
  </clipPath>
 </defs>
</svg>
