<?xml version="1.0" encoding="utf-8" standalone="no"?>
<!DOCTYPE svg PUBLIC "-//W3C//DTD SVG 1.1//EN"
  "http://www.w3.org/Graphics/SVG/1.1/DTD/svg11.dtd">
<svg xmlns:xlink="http://www.w3.org/1999/xlink" width="648pt" height="252pt" viewBox="0 0 648 252" xmlns="http://www.w3.org/2000/svg" version="1.1">
 <metadata>
  <rdf:RDF xmlns:dc="http://purl.org/dc/elements/1.1/" xmlns:cc="http://creativecommons.org/ns#" xmlns:rdf="http://www.w3.org/1999/02/22-rdf-syntax-ns#">
   <cc:Work>
    <dc:type rdf:resource="http://purl.org/dc/dcmitype/StillImage"/>
    <dc:date>2023-12-04T23:11:26.491977</dc:date>
    <dc:format>image/svg+xml</dc:format>
    <dc:creator>
     <cc:Agent>
      <dc:title>Matplotlib v3.8.1, https://matplotlib.org/</dc:title>
     </cc:Agent>
    </dc:creator>
   </cc:Work>
  </rdf:RDF>
 </metadata>
 <defs>
  <style type="text/css">*{stroke-linejoin: round; stroke-linecap: butt}</style>
 </defs>
 <g id="figure_1">
  <g id="patch_1">
   <path d="M 0 252 
L 648 252 
L 648 0 
L 0 0 
z
" style="fill: #ffffff"/>
  </g>
  <g id="axes_1">
   <g id="patch_2">
    <path d="M 54.02 210.04 
L 324.83 210.04 
L 324.83 14.76 
L 54.02 14.76 
z
" style="fill: #ffffff"/>
   </g>
   <g id="PolyCollection_1">
    <defs>
     <path id="m307d4a6057" d="M 66.329545 -50.836364 
L 66.329545 -50.836364 
L 67.5605 -51.592971 
L 68.791455 -52.349578 
L 70.022409 -53.106186 
L 71.253364 -53.862793 
L 72.484318 -54.6194 
L 73.715273 -55.376008 
L 74.946227 -56.132615 
L 76.177182 -56.889223 
L 77.408136 -57.64583 
L 78.639091 -58.402437 
L 79.870045 -59.157438 
L 81.101 -59.91078 
L 82.331955 -60.663604 
L 83.562909 -61.417068 
L 84.793864 -62.172628 
L 86.024818 -62.928161 
L 87.255773 -63.680292 
L 88.486727 -64.429588 
L 89.717682 -65.178197 
L 90.948636 -65.92626 
L 92.179591 -66.67342 
L 93.410545 -67.419918 
L 94.6415 -68.165792 
L 95.872455 -68.910984 
L 97.103409 -69.655497 
L 98.334364 -70.399329 
L 99.565318 -71.144127 
L 100.796273 -71.891251 
L 102.027227 -72.642209 
L 103.258182 -73.393097 
L 104.489136 -74.143916 
L 105.720091 -74.894667 
L 106.951045 -75.645349 
L 108.182 -76.396343 
L 109.412955 -77.14737 
L 110.643909 -77.888284 
L 111.874864 -78.620374 
L 113.105818 -79.35435 
L 114.336773 -80.104376 
L 115.567727 -80.850832 
L 116.798682 -81.592695 
L 118.029636 -82.334045 
L 119.260591 -83.055297 
L 120.491545 -83.79862 
L 121.7225 -84.546583 
L 122.953455 -85.294835 
L 124.184409 -86.02495 
L 125.415364 -86.771989 
L 126.646318 -87.519634 
L 127.877273 -88.268271 
L 129.108227 -89.016909 
L 130.339182 -89.765546 
L 131.570136 -90.500799 
L 132.801091 -91.2313 
L 134.032045 -91.948752 
L 135.263 -92.686949 
L 136.493955 -93.414174 
L 137.724909 -94.142015 
L 138.955864 -94.869214 
L 140.186818 -95.595771 
L 141.417773 -96.332042 
L 142.648727 -97.0768 
L 143.879682 -97.812709 
L 145.110636 -98.513017 
L 146.341591 -99.235645 
L 147.572545 -99.979244 
L 148.8035 -100.711654 
L 150.034455 -101.425949 
L 151.265409 -102.169913 
L 152.496364 -102.913878 
L 153.727318 -103.657842 
L 154.958273 -104.401806 
L 156.189227 -105.14577 
L 157.420182 -105.888834 
L 158.651136 -106.629637 
L 159.882091 -107.370363 
L 161.113045 -108.11301 
L 162.344 -108.856387 
L 163.574955 -109.599753 
L 164.805909 -110.308137 
L 166.036864 -111.003842 
L 167.267818 -111.698448 
L 168.498773 -112.37589 
L 169.729727 -113.084376 
L 170.960682 -113.791991 
L 172.191636 -114.462601 
L 173.422591 -115.15255 
L 174.653545 -115.841821 
L 175.8845 -116.539024 
L 177.115455 -117.242015 
L 178.346409 -117.885573 
L 179.577364 -118.587191 
L 180.808318 -119.298843 
L 182.039273 -120.029993 
L 183.270227 -120.765283 
L 184.501182 -121.406594 
L 185.732136 -122.021311 
L 186.963091 -122.75372 
L 188.194045 -123.418994 
L 189.425 -124.075486 
L 190.655955 -124.727296 
L 191.886909 -125.378867 
L 193.117864 -126.029474 
L 194.348818 -126.740089 
L 195.579773 -127.465526 
L 196.810727 -128.094589 
L 198.041682 -128.69197 
L 199.272636 -129.315886 
L 200.503591 -129.923325 
L 201.734545 -130.534625 
L 202.9655 -131.184547 
L 204.196455 -131.821131 
L 205.427409 -132.450053 
L 206.658364 -133.049668 
L 207.889318 -133.643151 
L 209.120273 -134.203337 
L 210.351227 -134.825164 
L 211.582182 -135.444162 
L 212.813136 -136.05975 
L 214.044091 -136.676383 
L 215.275045 -137.29159 
L 216.506 -137.826147 
L 217.736955 -138.453006 
L 218.967909 -139.016584 
L 220.198864 -139.692596 
L 221.429818 -140.27391 
L 222.660773 -140.794711 
L 223.891727 -141.316542 
L 225.122682 -141.907907 
L 226.353636 -142.516567 
L 227.584591 -143.093474 
L 228.815545 -143.58814 
L 230.0465 -144.104488 
L 231.277455 -144.694884 
L 232.508409 -145.290906 
L 233.739364 -145.837516 
L 234.970318 -146.424913 
L 236.201273 -146.92397 
L 237.432227 -147.469505 
L 238.663182 -147.948861 
L 239.894136 -148.512791 
L 241.125091 -148.995508 
L 242.356045 -149.5627 
L 243.587 -150.094262 
L 244.817955 -150.611238 
L 246.048909 -151.248578 
L 247.279864 -151.797372 
L 248.510818 -152.407746 
L 249.741773 -152.893869 
L 250.972727 -153.390297 
L 252.203682 -153.854275 
L 253.434636 -154.407912 
L 254.665591 -154.880944 
L 255.896545 -155.277252 
L 257.1275 -155.735991 
L 258.358455 -156.141091 
L 259.589409 -156.60378 
L 260.820364 -157.036643 
L 262.051318 -157.504218 
L 263.282273 -157.99669 
L 264.513227 -158.344773 
L 265.744182 -158.6992 
L 266.975136 -159.335364 
L 268.206091 -159.875368 
L 269.437045 -160.270633 
L 270.668 -160.587912 
L 271.898955 -160.883411 
L 273.129909 -161.155522 
L 274.360864 -161.43111 
L 275.591818 -161.909556 
L 276.822773 -162.317718 
L 278.053727 -162.756441 
L 279.284682 -163.155973 
L 280.515636 -163.40588 
L 281.746591 -163.715222 
L 282.977545 -164.012576 
L 284.2085 -164.3153 
L 285.439455 -164.773412 
L 286.670409 -165.097415 
L 287.901364 -165.516849 
L 289.132318 -165.919025 
L 290.363273 -166.335792 
L 291.594227 -166.752648 
L 292.825182 -167.043713 
L 294.056136 -167.421148 
L 295.287091 -167.75012 
L 296.518045 -168.077406 
L 297.749 -168.408568 
L 298.979955 -168.74016 
L 300.210909 -169.12564 
L 301.441864 -169.406191 
L 302.672818 -169.738516 
L 303.903773 -170.103455 
L 305.134727 -170.443377 
L 306.365682 -170.75297 
L 307.596636 -171.038965 
L 308.827591 -171.394982 
L 310.058545 -171.719911 
L 311.2895 -172.004335 
L 311.2895 -202.117503 
L 311.2895 -202.117503 
L 310.058545 -201.416092 
L 308.827591 -200.754632 
L 307.596636 -200.0471 
L 306.365682 -199.426127 
L 305.134727 -198.803108 
L 303.903773 -198.169194 
L 302.672818 -197.410836 
L 301.441864 -196.647433 
L 300.210909 -195.962635 
L 298.979955 -195.251656 
L 297.749 -194.646755 
L 296.518045 -194.039797 
L 295.287091 -193.375697 
L 294.056136 -192.617235 
L 292.825182 -191.917504 
L 291.594227 -191.323782 
L 290.363273 -190.779684 
L 289.132318 -190.091074 
L 287.901364 -189.472409 
L 286.670409 -188.729726 
L 285.439455 -187.959481 
L 284.2085 -187.189235 
L 282.977545 -186.455574 
L 281.746591 -185.788248 
L 280.515636 -185.192728 
L 279.284682 -184.615672 
L 278.053727 -184.01959 
L 276.822773 -183.399736 
L 275.591818 -182.798987 
L 274.360864 -182.177253 
L 273.129909 -181.468158 
L 271.898955 -180.811712 
L 270.668 -180.157554 
L 269.437045 -179.494449 
L 268.206091 -178.835581 
L 266.975136 -178.279358 
L 265.744182 -177.653581 
L 264.513227 -177.022386 
L 263.282273 -176.456573 
L 262.051318 -175.759243 
L 260.820364 -175.142465 
L 259.589409 -174.487904 
L 258.358455 -173.892617 
L 257.1275 -173.390891 
L 255.896545 -172.884495 
L 254.665591 -172.277998 
L 253.434636 -171.640396 
L 252.203682 -171.042858 
L 250.972727 -170.371691 
L 249.741773 -169.653028 
L 248.510818 -169.040542 
L 247.279864 -168.436484 
L 246.048909 -167.746842 
L 244.817955 -167.199328 
L 243.587 -166.567553 
L 242.356045 -165.978087 
L 241.125091 -165.3853 
L 239.894136 -164.790133 
L 238.663182 -164.065212 
L 237.432227 -163.469894 
L 236.201273 -162.86042 
L 234.970318 -162.129294 
L 233.739364 -161.481492 
L 232.508409 -160.834472 
L 231.277455 -160.271268 
L 230.0465 -159.691987 
L 228.815545 -159.094197 
L 227.584591 -158.481323 
L 226.353636 -157.801857 
L 225.122682 -157.275908 
L 223.891727 -156.674802 
L 222.660773 -156.086066 
L 221.429818 -155.514797 
L 220.198864 -154.965267 
L 218.967909 -154.436021 
L 217.736955 -153.857549 
L 216.506 -153.258093 
L 215.275045 -152.747772 
L 214.044091 -152.294236 
L 212.813136 -151.711832 
L 211.582182 -151.080813 
L 210.351227 -150.439484 
L 209.120273 -149.765861 
L 207.889318 -149.182315 
L 206.658364 -148.704767 
L 205.427409 -148.205466 
L 204.196455 -147.636321 
L 202.9655 -147.072595 
L 201.734545 -146.525304 
L 200.503591 -145.919052 
L 199.272636 -145.279663 
L 198.041682 -144.684718 
L 196.810727 -144.1209 
L 195.579773 -143.555007 
L 194.348818 -142.944312 
L 193.117864 -142.331798 
L 191.886909 -141.87194 
L 190.655955 -141.208845 
L 189.425 -140.668146 
L 188.194045 -140.122393 
L 186.963091 -139.405002 
L 185.732136 -138.734994 
L 184.501182 -138.183629 
L 183.270227 -137.626567 
L 182.039273 -137.014492 
L 180.808318 -136.460104 
L 179.577364 -135.860509 
L 178.346409 -135.215341 
L 177.115455 -134.538246 
L 175.8845 -133.930139 
L 174.653545 -133.263905 
L 173.422591 -132.67762 
L 172.191636 -132.096253 
L 170.960682 -131.431336 
L 169.729727 -130.808687 
L 168.498773 -130.115392 
L 167.267818 -129.432766 
L 166.036864 -128.91198 
L 164.805909 -128.278088 
L 163.574955 -127.65303 
L 162.344 -126.978715 
L 161.113045 -126.321058 
L 159.882091 -125.702478 
L 158.651136 -125.107829 
L 157.420182 -124.421686 
L 156.189227 -123.688159 
L 154.958273 -122.964259 
L 153.727318 -122.256711 
L 152.496364 -121.639396 
L 151.265409 -120.918234 
L 150.034455 -120.145545 
L 148.8035 -119.427391 
L 147.572545 -118.702483 
L 146.341591 -117.971136 
L 145.110636 -117.232202 
L 143.879682 -116.444157 
L 142.648727 -115.63899 
L 141.417773 -114.827911 
L 140.186818 -114.054242 
L 138.955864 -113.283079 
L 137.724909 -112.467726 
L 136.493955 -111.670762 
L 135.263 -110.87189 
L 134.032045 -110.04894 
L 132.801091 -109.274231 
L 131.570136 -108.508717 
L 130.339182 -107.668155 
L 129.108227 -106.780653 
L 127.877273 -105.88954 
L 126.646318 -105.020748 
L 125.415364 -104.241938 
L 124.184409 -103.455863 
L 122.953455 -102.647318 
L 121.7225 -101.76097 
L 120.491545 -100.863079 
L 119.260591 -100.004537 
L 118.029636 -99.145352 
L 116.798682 -98.265175 
L 115.567727 -97.341366 
L 114.336773 -96.407679 
L 113.105818 -95.464516 
L 111.874864 -94.511731 
L 110.643909 -93.549176 
L 109.412955 -92.584739 
L 108.182 -91.601908 
L 106.951045 -90.607019 
L 105.720091 -89.60174 
L 104.489136 -88.58743 
L 103.258182 -87.562923 
L 102.027227 -86.527518 
L 100.796273 -85.481041 
L 99.565318 -84.423314 
L 98.334364 -83.35345 
L 97.103409 -82.271823 
L 95.872455 -81.170104 
L 94.6415 -80.060577 
L 93.410545 -78.942829 
L 92.179591 -77.828805 
L 90.948636 -76.683538 
L 89.717682 -75.519868 
L 88.486727 -74.346851 
L 87.255773 -73.165555 
L 86.024818 -71.970901 
L 84.793864 -70.76266 
L 83.562909 -69.5406 
L 82.331955 -68.304482 
L 81.101 -67.054062 
L 79.870045 -65.789089 
L 78.639091 -64.50931 
L 77.408136 -63.214462 
L 76.177182 -61.904277 
L 74.946227 -60.578482 
L 73.715273 -59.236705 
L 72.484318 -57.878673 
L 71.253364 -56.504237 
L 70.022409 -55.113099 
L 68.791455 -53.70394 
L 67.5605 -52.278371 
L 66.329545 -50.836364 
z
" style="stroke: #ef553b; stroke-opacity: 0.3"/>
    </defs>
    <g clip-path="url(#pd37d2a06b0)">
     <use xlink:href="#m307d4a6057" x="0" y="252" style="fill: #ef553b; fill-opacity: 0.3; stroke: #ef553b; stroke-opacity: 0.3"/>
    </g>
   </g>
   <g id="matplotlib.axis_1">
    <g id="xtick_1">
     <g id="line2d_1">
      <defs>
       <path id="m55851f2bb1" d="M 0 0 
L 0 3.5 
" style="stroke: #000000; stroke-width: 0.8"/>
      </defs>
      <g>
       <use xlink:href="#m55851f2bb1" x="66.329545" y="210.04" style="stroke: #000000; stroke-width: 0.8"/>
      </g>
     </g>
     <g id="text_1">
      <!-- 0 -->
      <g transform="translate(63.148295 224.638438) scale(0.1 -0.1)">
       <defs>
        <path id="DejaVuSans-30" d="M 2034 4250 
Q 1547 4250 1301 3770 
Q 1056 3291 1056 2328 
Q 1056 1369 1301 889 
Q 1547 409 2034 409 
Q 2525 409 2770 889 
Q 3016 1369 3016 2328 
Q 3016 3291 2770 3770 
Q 2525 4250 2034 4250 
z
M 2034 4750 
Q 2819 4750 3233 4129 
Q 3647 3509 3647 2328 
Q 3647 1150 3233 529 
Q 2819 -91 2034 -91 
Q 1250 -91 836 529 
Q 422 1150 422 2328 
Q 422 3509 836 4129 
Q 1250 4750 2034 4750 
z
" transform="scale(0.015625)"/>
       </defs>
       <use xlink:href="#DejaVuSans-30"/>
      </g>
     </g>
    </g>
    <g id="xtick_2">
     <g id="line2d_2">
      <g>
       <use xlink:href="#m55851f2bb1" x="123.558288" y="210.04" style="stroke: #000000; stroke-width: 0.8"/>
      </g>
     </g>
     <g id="text_2">
      <!-- 500 -->
      <g transform="translate(114.014538 224.638438) scale(0.1 -0.1)">
       <defs>
        <path id="DejaVuSans-35" d="M 691 4666 
L 3169 4666 
L 3169 4134 
L 1269 4134 
L 1269 2991 
Q 1406 3038 1543 3061 
Q 1681 3084 1819 3084 
Q 2600 3084 3056 2656 
Q 3513 2228 3513 1497 
Q 3513 744 3044 326 
Q 2575 -91 1722 -91 
Q 1428 -91 1123 -41 
Q 819 9 494 109 
L 494 744 
Q 775 591 1075 516 
Q 1375 441 1709 441 
Q 2250 441 2565 725 
Q 2881 1009 2881 1497 
Q 2881 1984 2565 2268 
Q 2250 2553 1709 2553 
Q 1456 2553 1204 2497 
Q 953 2441 691 2322 
L 691 4666 
z
" transform="scale(0.015625)"/>
       </defs>
       <use xlink:href="#DejaVuSans-35"/>
       <use xlink:href="#DejaVuSans-30" x="63.623047"/>
       <use xlink:href="#DejaVuSans-30" x="127.246094"/>
      </g>
     </g>
    </g>
    <g id="xtick_3">
     <g id="line2d_3">
      <g>
       <use xlink:href="#m55851f2bb1" x="180.787031" y="210.04" style="stroke: #000000; stroke-width: 0.8"/>
      </g>
     </g>
     <g id="text_3">
      <!-- 1000 -->
      <g transform="translate(168.062031 224.638438) scale(0.1 -0.1)">
       <defs>
        <path id="DejaVuSans-31" d="M 794 531 
L 1825 531 
L 1825 4091 
L 703 3866 
L 703 4441 
L 1819 4666 
L 2450 4666 
L 2450 531 
L 3481 531 
L 3481 0 
L 794 0 
L 794 531 
z
" transform="scale(0.015625)"/>
       </defs>
       <use xlink:href="#DejaVuSans-31"/>
       <use xlink:href="#DejaVuSans-30" x="63.623047"/>
       <use xlink:href="#DejaVuSans-30" x="127.246094"/>
       <use xlink:href="#DejaVuSans-30" x="190.869141"/>
      </g>
     </g>
    </g>
    <g id="xtick_4">
     <g id="line2d_4">
      <g>
       <use xlink:href="#m55851f2bb1" x="238.015774" y="210.04" style="stroke: #000000; stroke-width: 0.8"/>
      </g>
     </g>
     <g id="text_4">
      <!-- 1500 -->
      <g transform="translate(225.290774 224.638438) scale(0.1 -0.1)">
       <use xlink:href="#DejaVuSans-31"/>
       <use xlink:href="#DejaVuSans-35" x="63.623047"/>
       <use xlink:href="#DejaVuSans-30" x="127.246094"/>
       <use xlink:href="#DejaVuSans-30" x="190.869141"/>
      </g>
     </g>
    </g>
    <g id="xtick_5">
     <g id="line2d_5">
      <g>
       <use xlink:href="#m55851f2bb1" x="295.244517" y="210.04" style="stroke: #000000; stroke-width: 0.8"/>
      </g>
     </g>
     <g id="text_5">
      <!-- 2000 -->
      <g transform="translate(282.519517 224.638438) scale(0.1 -0.1)">
       <defs>
        <path id="DejaVuSans-32" d="M 1228 531 
L 3431 531 
L 3431 0 
L 469 0 
L 469 531 
Q 828 903 1448 1529 
Q 2069 2156 2228 2338 
Q 2531 2678 2651 2914 
Q 2772 3150 2772 3378 
Q 2772 3750 2511 3984 
Q 2250 4219 1831 4219 
Q 1534 4219 1204 4116 
Q 875 4013 500 3803 
L 500 4441 
Q 881 4594 1212 4672 
Q 1544 4750 1819 4750 
Q 2544 4750 2975 4387 
Q 3406 4025 3406 3419 
Q 3406 3131 3298 2873 
Q 3191 2616 2906 2266 
Q 2828 2175 2409 1742 
Q 1991 1309 1228 531 
z
" transform="scale(0.015625)"/>
       </defs>
       <use xlink:href="#DejaVuSans-32"/>
       <use xlink:href="#DejaVuSans-30" x="63.623047"/>
       <use xlink:href="#DejaVuSans-30" x="127.246094"/>
       <use xlink:href="#DejaVuSans-30" x="190.869141"/>
      </g>
     </g>
    </g>
    <g id="text_6">
     <!-- concentration -->
     <g transform="translate(154.796094 238.316563) scale(0.1 -0.1)">
      <defs>
       <path id="DejaVuSans-63" d="M 3122 3366 
L 3122 2828 
Q 2878 2963 2633 3030 
Q 2388 3097 2138 3097 
Q 1578 3097 1268 2742 
Q 959 2388 959 1747 
Q 959 1106 1268 751 
Q 1578 397 2138 397 
Q 2388 397 2633 464 
Q 2878 531 3122 666 
L 3122 134 
Q 2881 22 2623 -34 
Q 2366 -91 2075 -91 
Q 1284 -91 818 406 
Q 353 903 353 1747 
Q 353 2603 823 3093 
Q 1294 3584 2113 3584 
Q 2378 3584 2631 3529 
Q 2884 3475 3122 3366 
z
" transform="scale(0.015625)"/>
       <path id="DejaVuSans-6f" d="M 1959 3097 
Q 1497 3097 1228 2736 
Q 959 2375 959 1747 
Q 959 1119 1226 758 
Q 1494 397 1959 397 
Q 2419 397 2687 759 
Q 2956 1122 2956 1747 
Q 2956 2369 2687 2733 
Q 2419 3097 1959 3097 
z
M 1959 3584 
Q 2709 3584 3137 3096 
Q 3566 2609 3566 1747 
Q 3566 888 3137 398 
Q 2709 -91 1959 -91 
Q 1206 -91 779 398 
Q 353 888 353 1747 
Q 353 2609 779 3096 
Q 1206 3584 1959 3584 
z
" transform="scale(0.015625)"/>
       <path id="DejaVuSans-6e" d="M 3513 2113 
L 3513 0 
L 2938 0 
L 2938 2094 
Q 2938 2591 2744 2837 
Q 2550 3084 2163 3084 
Q 1697 3084 1428 2787 
Q 1159 2491 1159 1978 
L 1159 0 
L 581 0 
L 581 3500 
L 1159 3500 
L 1159 2956 
Q 1366 3272 1645 3428 
Q 1925 3584 2291 3584 
Q 2894 3584 3203 3211 
Q 3513 2838 3513 2113 
z
" transform="scale(0.015625)"/>
       <path id="DejaVuSans-65" d="M 3597 1894 
L 3597 1613 
L 953 1613 
Q 991 1019 1311 708 
Q 1631 397 2203 397 
Q 2534 397 2845 478 
Q 3156 559 3463 722 
L 3463 178 
Q 3153 47 2828 -22 
Q 2503 -91 2169 -91 
Q 1331 -91 842 396 
Q 353 884 353 1716 
Q 353 2575 817 3079 
Q 1281 3584 2069 3584 
Q 2775 3584 3186 3129 
Q 3597 2675 3597 1894 
z
M 3022 2063 
Q 3016 2534 2758 2815 
Q 2500 3097 2075 3097 
Q 1594 3097 1305 2825 
Q 1016 2553 972 2059 
L 3022 2063 
z
" transform="scale(0.015625)"/>
       <path id="DejaVuSans-74" d="M 1172 4494 
L 1172 3500 
L 2356 3500 
L 2356 3053 
L 1172 3053 
L 1172 1153 
Q 1172 725 1289 603 
Q 1406 481 1766 481 
L 2356 481 
L 2356 0 
L 1766 0 
Q 1100 0 847 248 
Q 594 497 594 1153 
L 594 3053 
L 172 3053 
L 172 3500 
L 594 3500 
L 594 4494 
L 1172 4494 
z
" transform="scale(0.015625)"/>
       <path id="DejaVuSans-72" d="M 2631 2963 
Q 2534 3019 2420 3045 
Q 2306 3072 2169 3072 
Q 1681 3072 1420 2755 
Q 1159 2438 1159 1844 
L 1159 0 
L 581 0 
L 581 3500 
L 1159 3500 
L 1159 2956 
Q 1341 3275 1631 3429 
Q 1922 3584 2338 3584 
Q 2397 3584 2469 3576 
Q 2541 3569 2628 3553 
L 2631 2963 
z
" transform="scale(0.015625)"/>
       <path id="DejaVuSans-61" d="M 2194 1759 
Q 1497 1759 1228 1600 
Q 959 1441 959 1056 
Q 959 750 1161 570 
Q 1363 391 1709 391 
Q 2188 391 2477 730 
Q 2766 1069 2766 1631 
L 2766 1759 
L 2194 1759 
z
M 3341 1997 
L 3341 0 
L 2766 0 
L 2766 531 
Q 2569 213 2275 61 
Q 1981 -91 1556 -91 
Q 1019 -91 701 211 
Q 384 513 384 1019 
Q 384 1609 779 1909 
Q 1175 2209 1959 2209 
L 2766 2209 
L 2766 2266 
Q 2766 2663 2505 2880 
Q 2244 3097 1772 3097 
Q 1472 3097 1187 3025 
Q 903 2953 641 2809 
L 641 3341 
Q 956 3463 1253 3523 
Q 1550 3584 1831 3584 
Q 2591 3584 2966 3190 
Q 3341 2797 3341 1997 
z
" transform="scale(0.015625)"/>
       <path id="DejaVuSans-69" d="M 603 3500 
L 1178 3500 
L 1178 0 
L 603 0 
L 603 3500 
z
M 603 4863 
L 1178 4863 
L 1178 4134 
L 603 4134 
L 603 4863 
z
" transform="scale(0.015625)"/>
      </defs>
      <use xlink:href="#DejaVuSans-63"/>
      <use xlink:href="#DejaVuSans-6f" x="54.980469"/>
      <use xlink:href="#DejaVuSans-6e" x="116.162109"/>
      <use xlink:href="#DejaVuSans-63" x="179.541016"/>
      <use xlink:href="#DejaVuSans-65" x="234.521484"/>
      <use xlink:href="#DejaVuSans-6e" x="296.044922"/>
      <use xlink:href="#DejaVuSans-74" x="359.423828"/>
      <use xlink:href="#DejaVuSans-72" x="398.632812"/>
      <use xlink:href="#DejaVuSans-61" x="439.746094"/>
      <use xlink:href="#DejaVuSans-74" x="501.025391"/>
      <use xlink:href="#DejaVuSans-69" x="540.234375"/>
      <use xlink:href="#DejaVuSans-6f" x="568.017578"/>
      <use xlink:href="#DejaVuSans-6e" x="629.199219"/>
     </g>
    </g>
   </g>
   <g id="matplotlib.axis_2">
    <g id="ytick_1">
     <g id="line2d_6">
      <defs>
       <path id="md270d515bf" d="M 0 0 
L -3.5 0 
" style="stroke: #000000; stroke-width: 0.8"/>
      </defs>
      <g>
       <use xlink:href="#md270d515bf" x="54.02" y="201.163636" style="stroke: #000000; stroke-width: 0.8"/>
      </g>
     </g>
     <g id="text_7">
      <!-- 0.0 -->
      <g transform="translate(31.116875 204.962855) scale(0.1 -0.1)">
       <defs>
        <path id="DejaVuSans-2e" d="M 684 794 
L 1344 794 
L 1344 0 
L 684 0 
L 684 794 
z
" transform="scale(0.015625)"/>
       </defs>
       <use xlink:href="#DejaVuSans-30"/>
       <use xlink:href="#DejaVuSans-2e" x="63.623047"/>
       <use xlink:href="#DejaVuSans-30" x="95.410156"/>
      </g>
     </g>
    </g>
    <g id="ytick_2">
     <g id="line2d_7">
      <g>
       <use xlink:href="#md270d515bf" x="54.02" y="175.098759" style="stroke: #000000; stroke-width: 0.8"/>
      </g>
     </g>
     <g id="text_8">
      <!-- 2.5 -->
      <g transform="translate(31.116875 178.897978) scale(0.1 -0.1)">
       <use xlink:href="#DejaVuSans-32"/>
       <use xlink:href="#DejaVuSans-2e" x="63.623047"/>
       <use xlink:href="#DejaVuSans-35" x="95.410156"/>
      </g>
     </g>
    </g>
    <g id="ytick_3">
     <g id="line2d_8">
      <g>
       <use xlink:href="#md270d515bf" x="54.02" y="149.033882" style="stroke: #000000; stroke-width: 0.8"/>
      </g>
     </g>
     <g id="text_9">
      <!-- 5.0 -->
      <g transform="translate(31.116875 152.833101) scale(0.1 -0.1)">
       <use xlink:href="#DejaVuSans-35"/>
       <use xlink:href="#DejaVuSans-2e" x="63.623047"/>
       <use xlink:href="#DejaVuSans-30" x="95.410156"/>
      </g>
     </g>
    </g>
    <g id="ytick_4">
     <g id="line2d_9">
      <g>
       <use xlink:href="#md270d515bf" x="54.02" y="122.969004" style="stroke: #000000; stroke-width: 0.8"/>
      </g>
     </g>
     <g id="text_10">
      <!-- 7.5 -->
      <g transform="translate(31.116875 126.768223) scale(0.1 -0.1)">
       <defs>
        <path id="DejaVuSans-37" d="M 525 4666 
L 3525 4666 
L 3525 4397 
L 1831 0 
L 1172 0 
L 2766 4134 
L 525 4134 
L 525 4666 
z
" transform="scale(0.015625)"/>
       </defs>
       <use xlink:href="#DejaVuSans-37"/>
       <use xlink:href="#DejaVuSans-2e" x="63.623047"/>
       <use xlink:href="#DejaVuSans-35" x="95.410156"/>
      </g>
     </g>
    </g>
    <g id="ytick_5">
     <g id="line2d_10">
      <g>
       <use xlink:href="#md270d515bf" x="54.02" y="96.904127" style="stroke: #000000; stroke-width: 0.8"/>
      </g>
     </g>
     <g id="text_11">
      <!-- 10.0 -->
      <g transform="translate(24.754375 100.703346) scale(0.1 -0.1)">
       <use xlink:href="#DejaVuSans-31"/>
       <use xlink:href="#DejaVuSans-30" x="63.623047"/>
       <use xlink:href="#DejaVuSans-2e" x="127.246094"/>
       <use xlink:href="#DejaVuSans-30" x="159.033203"/>
      </g>
     </g>
    </g>
    <g id="ytick_6">
     <g id="line2d_11">
      <g>
       <use xlink:href="#md270d515bf" x="54.02" y="70.83925" style="stroke: #000000; stroke-width: 0.8"/>
      </g>
     </g>
     <g id="text_12">
      <!-- 12.5 -->
      <g transform="translate(24.754375 74.638469) scale(0.1 -0.1)">
       <use xlink:href="#DejaVuSans-31"/>
       <use xlink:href="#DejaVuSans-32" x="63.623047"/>
       <use xlink:href="#DejaVuSans-2e" x="127.246094"/>
       <use xlink:href="#DejaVuSans-35" x="159.033203"/>
      </g>
     </g>
    </g>
    <g id="ytick_7">
     <g id="line2d_12">
      <g>
       <use xlink:href="#md270d515bf" x="54.02" y="44.774373" style="stroke: #000000; stroke-width: 0.8"/>
      </g>
     </g>
     <g id="text_13">
      <!-- 15.0 -->
      <g transform="translate(24.754375 48.573591) scale(0.1 -0.1)">
       <use xlink:href="#DejaVuSans-31"/>
       <use xlink:href="#DejaVuSans-35" x="63.623047"/>
       <use xlink:href="#DejaVuSans-2e" x="127.246094"/>
       <use xlink:href="#DejaVuSans-30" x="159.033203"/>
      </g>
     </g>
    </g>
    <g id="ytick_8">
     <g id="line2d_13">
      <g>
       <use xlink:href="#md270d515bf" x="54.02" y="18.709495" style="stroke: #000000; stroke-width: 0.8"/>
      </g>
     </g>
     <g id="text_14">
      <!-- 17.5 -->
      <g transform="translate(24.754375 22.508714) scale(0.1 -0.1)">
       <use xlink:href="#DejaVuSans-31"/>
       <use xlink:href="#DejaVuSans-37" x="63.623047"/>
       <use xlink:href="#DejaVuSans-2e" x="127.246094"/>
       <use xlink:href="#DejaVuSans-35" x="159.033203"/>
      </g>
     </g>
    </g>
    <g id="text_15">
     <!-- flux -->
     <g transform="translate(18.674688 121.677344) rotate(-90) scale(0.1 -0.1)">
      <defs>
       <path id="DejaVuSans-66" d="M 2375 4863 
L 2375 4384 
L 1825 4384 
Q 1516 4384 1395 4259 
Q 1275 4134 1275 3809 
L 1275 3500 
L 2222 3500 
L 2222 3053 
L 1275 3053 
L 1275 0 
L 697 0 
L 697 3053 
L 147 3053 
L 147 3500 
L 697 3500 
L 697 3744 
Q 697 4328 969 4595 
Q 1241 4863 1831 4863 
L 2375 4863 
z
" transform="scale(0.015625)"/>
       <path id="DejaVuSans-6c" d="M 603 4863 
L 1178 4863 
L 1178 0 
L 603 0 
L 603 4863 
z
" transform="scale(0.015625)"/>
       <path id="DejaVuSans-75" d="M 544 1381 
L 544 3500 
L 1119 3500 
L 1119 1403 
Q 1119 906 1312 657 
Q 1506 409 1894 409 
Q 2359 409 2629 706 
Q 2900 1003 2900 1516 
L 2900 3500 
L 3475 3500 
L 3475 0 
L 2900 0 
L 2900 538 
Q 2691 219 2414 64 
Q 2138 -91 1772 -91 
Q 1169 -91 856 284 
Q 544 659 544 1381 
z
M 1991 3584 
L 1991 3584 
z
" transform="scale(0.015625)"/>
       <path id="DejaVuSans-78" d="M 3513 3500 
L 2247 1797 
L 3578 0 
L 2900 0 
L 1881 1375 
L 863 0 
L 184 0 
L 1544 1831 
L 300 3500 
L 978 3500 
L 1906 2253 
L 2834 3500 
L 3513 3500 
z
" transform="scale(0.015625)"/>
      </defs>
      <use xlink:href="#DejaVuSans-66"/>
      <use xlink:href="#DejaVuSans-6c" x="35.205078"/>
      <use xlink:href="#DejaVuSans-75" x="62.988281"/>
      <use xlink:href="#DejaVuSans-78" x="126.367188"/>
     </g>
    </g>
   </g>
   <g id="line2d_14">
    <defs>
     <path id="m2e04d3584c" d="M 0 2.5 
C 0.663008 2.5 1.29895 2.236584 1.767767 1.767767 
C 2.236584 1.29895 2.5 0.663008 2.5 0 
C 2.5 -0.663008 2.236584 -1.29895 1.767767 -1.767767 
C 1.29895 -2.236584 0.663008 -2.5 0 -2.5 
C -0.663008 -2.5 -1.29895 -2.236584 -1.767767 -1.767767 
C -2.236584 -1.29895 -2.5 -0.663008 -2.5 0 
C -2.5 0.663008 -2.236584 1.29895 -1.767767 1.767767 
C -1.29895 2.236584 -0.663008 2.5 0 2.5 
z
" style="stroke: #225a8c"/>
    </defs>
    <g clip-path="url(#pd37d2a06b0)">
     <use xlink:href="#m2e04d3584c" x="173.929455" y="151.168528" style="fill: #5b9bd5; stroke: #225a8c"/>
     <use xlink:href="#m2e04d3584c" x="181.411727" y="153.579007" style="fill: #5b9bd5; stroke: #225a8c"/>
     <use xlink:href="#m2e04d3584c" x="66.860545" y="201.163636" style="fill: #5b9bd5; stroke: #225a8c"/>
     <use xlink:href="#m2e04d3584c" x="66.812273" y="201.163636" style="fill: #5b9bd5; stroke: #225a8c"/>
     <use xlink:href="#m2e04d3584c" x="232.242909" y="136.705658" style="fill: #5b9bd5; stroke: #225a8c"/>
     <use xlink:href="#m2e04d3584c" x="236.925364" y="131.527593" style="fill: #5b9bd5; stroke: #225a8c"/>
     <use xlink:href="#m2e04d3584c" x="228.236273" y="151.168528" style="fill: #5b9bd5; stroke: #225a8c"/>
     <use xlink:href="#m2e04d3584c" x="203.713727" y="160.185503" style="fill: #5b9bd5; stroke: #225a8c"/>
     <use xlink:href="#m2e04d3584c" x="105.044273" y="179.112223" style="fill: #5b9bd5; stroke: #225a8c"/>
     <use xlink:href="#m2e04d3584c" x="109.388818" y="173.710965" style="fill: #5b9bd5; stroke: #225a8c"/>
     <use xlink:href="#m2e04d3584c" x="174.412182" y="157.239363" style="fill: #5b9bd5; stroke: #225a8c"/>
     <use xlink:href="#m2e04d3584c" x="161.282" y="164.560075" style="fill: #5b9bd5; stroke: #225a8c"/>
     <use xlink:href="#m2e04d3584c" x="67.005364" y="199.244181" style="fill: #5b9bd5; stroke: #225a8c"/>
     <use xlink:href="#m2e04d3584c" x="67.198455" y="201.163636" style="fill: #5b9bd5; stroke: #225a8c"/>
     <use xlink:href="#m2e04d3584c" x="66.957091" y="199.690566" style="fill: #5b9bd5; stroke: #225a8c"/>
     <use xlink:href="#m2e04d3584c" x="189.956" y="125.278204" style="fill: #5b9bd5; stroke: #225a8c"/>
     <use xlink:href="#m2e04d3584c" x="186.963091" y="120.234055" style="fill: #5b9bd5; stroke: #225a8c"/>
     <use xlink:href="#m2e04d3584c" x="185.949364" y="116.796891" style="fill: #5b9bd5; stroke: #225a8c"/>
     <use xlink:href="#m2e04d3584c" x="312.520455" y="69.122984" style="fill: #5b9bd5; stroke: #225a8c"/>
     <use xlink:href="#m2e04d3584c" x="297.169727" y="87.201573" style="fill: #5b9bd5; stroke: #225a8c"/>
     <use xlink:href="#m2e04d3584c" x="290.797727" y="38.054596" style="fill: #5b9bd5; stroke: #225a8c"/>
     <use xlink:href="#m2e04d3584c" x="282.543091" y="87.067657" style="fill: #5b9bd5; stroke: #225a8c"/>
     <use xlink:href="#m2e04d3584c" x="276.364182" y="85.460672" style="fill: #5b9bd5; stroke: #225a8c"/>
     <use xlink:href="#m2e04d3584c" x="271.150727" y="116.171952" style="fill: #5b9bd5; stroke: #225a8c"/>
     <use xlink:href="#m2e04d3584c" x="67.101909" y="199.333458" style="fill: #5b9bd5; stroke: #225a8c"/>
     <use xlink:href="#m2e04d3584c" x="66.908818" y="199.333458" style="fill: #5b9bd5; stroke: #225a8c"/>
     <use xlink:href="#m2e04d3584c" x="67.150182" y="199.333458" style="fill: #5b9bd5; stroke: #225a8c"/>
     <use xlink:href="#m2e04d3584c" x="271.247273" y="27.29672" style="fill: #5b9bd5; stroke: #225a8c"/>
     <use xlink:href="#m2e04d3584c" x="258.792909" y="32.787254" style="fill: #5b9bd5; stroke: #225a8c"/>
     <use xlink:href="#m2e04d3584c" x="273.998818" y="23.636364" style="fill: #5b9bd5; stroke: #225a8c"/>
     <use xlink:href="#m2e04d3584c" x="121.601818" y="95.013308" style="fill: #5b9bd5; stroke: #225a8c"/>
     <use xlink:href="#m2e04d3584c" x="125.608455" y="93.18313" style="fill: #5b9bd5; stroke: #225a8c"/>
     <use xlink:href="#m2e04d3584c" x="123.532727" y="84.03224" style="fill: #5b9bd5; stroke: #225a8c"/>
     <use xlink:href="#m2e04d3584c" x="66.329545" y="201.163636" style="fill: #5b9bd5; stroke: #225a8c"/>
     <use xlink:href="#m2e04d3584c" x="172.095091" y="120.635801" style="fill: #5b9bd5; stroke: #225a8c"/>
     <use xlink:href="#m2e04d3584c" x="187.494091" y="111.484911" style="fill: #5b9bd5; stroke: #225a8c"/>
    </g>
   </g>
   <g id="line2d_15">
    <path d="M 66.329545 201.163636 
L 76.177182 193.279009 
L 86.024818 185.683172 
L 95.872455 178.360544 
L 105.720091 171.296646 
L 116.798682 163.642281 
L 127.877273 156.280542 
L 138.955864 149.194963 
L 150.034455 142.370289 
L 161.113045 135.792372 
L 173.422591 128.757023 
L 185.732136 121.993396 
L 198.041682 115.486046 
L 210.351227 109.220679 
L 223.891727 102.592478 
L 237.432227 96.224747 
L 250.972727 90.102428 
L 264.513227 84.211602 
L 279.284682 78.034147 
L 294.056136 72.101409 
L 308.827591 66.399131 
L 311.2895 65.470217 
L 311.2895 65.470217 
" clip-path="url(#pd37d2a06b0)" style="fill: none; stroke: #ef553b; stroke-width: 1.5; stroke-linecap: square"/>
   </g>
   <g id="patch_3">
    <path d="M 54.02 210.04 
L 54.02 14.76 
" style="fill: none; stroke: #000000; stroke-width: 0.8; stroke-linejoin: miter; stroke-linecap: square"/>
   </g>
   <g id="patch_4">
    <path d="M 324.83 210.04 
L 324.83 14.76 
" style="fill: none; stroke: #000000; stroke-width: 0.8; stroke-linejoin: miter; stroke-linecap: square"/>
   </g>
   <g id="patch_5">
    <path d="M 54.02 210.04 
L 324.83 210.04 
" style="fill: none; stroke: #000000; stroke-width: 0.8; stroke-linejoin: miter; stroke-linecap: square"/>
   </g>
   <g id="patch_6">
    <path d="M 54.02 14.76 
L 324.83 14.76 
" style="fill: none; stroke: #000000; stroke-width: 0.8; stroke-linejoin: miter; stroke-linecap: square"/>
   </g>
   <g id="legend_1">
    <g id="patch_7">
     <path d="M 61.02 52.11625 
L 174.366875 52.11625 
Q 176.366875 52.11625 176.366875 50.11625 
L 176.366875 21.76 
Q 176.366875 19.76 174.366875 19.76 
L 61.02 19.76 
Q 59.02 19.76 59.02 21.76 
L 59.02 50.11625 
Q 59.02 52.11625 61.02 52.11625 
z
" style="fill: #ffffff; opacity: 0.8; stroke: #cccccc; stroke-linejoin: miter"/>
    </g>
    <g id="line2d_16">
     <g>
      <use xlink:href="#m2e04d3584c" x="73.02" y="27.858437" style="fill: #5b9bd5; stroke: #225a8c"/>
     </g>
    </g>
    <g id="text_16">
     <!-- data -->
     <g transform="translate(91.02 31.358437) scale(0.1 -0.1)">
      <defs>
       <path id="DejaVuSans-64" d="M 2906 2969 
L 2906 4863 
L 3481 4863 
L 3481 0 
L 2906 0 
L 2906 525 
Q 2725 213 2448 61 
Q 2172 -91 1784 -91 
Q 1150 -91 751 415 
Q 353 922 353 1747 
Q 353 2572 751 3078 
Q 1150 3584 1784 3584 
Q 2172 3584 2448 3432 
Q 2725 3281 2906 2969 
z
M 947 1747 
Q 947 1113 1208 752 
Q 1469 391 1925 391 
Q 2381 391 2643 752 
Q 2906 1113 2906 1747 
Q 2906 2381 2643 2742 
Q 2381 3103 1925 3103 
Q 1469 3103 1208 2742 
Q 947 2381 947 1747 
z
" transform="scale(0.015625)"/>
      </defs>
      <use xlink:href="#DejaVuSans-64"/>
      <use xlink:href="#DejaVuSans-61" x="63.476562"/>
      <use xlink:href="#DejaVuSans-74" x="124.755859"/>
      <use xlink:href="#DejaVuSans-61" x="163.964844"/>
     </g>
    </g>
    <g id="line2d_17">
     <path d="M 63.02 42.536562 
L 73.02 42.536562 
L 83.02 42.536562 
" style="fill: none; stroke: #ef553b; stroke-width: 1.5; stroke-linecap: square"/>
    </g>
    <g id="text_17">
     <!-- best fit (95% CI) -->
     <g transform="translate(91.02 46.036562) scale(0.1 -0.1)">
      <defs>
       <path id="DejaVuSans-62" d="M 3116 1747 
Q 3116 2381 2855 2742 
Q 2594 3103 2138 3103 
Q 1681 3103 1420 2742 
Q 1159 2381 1159 1747 
Q 1159 1113 1420 752 
Q 1681 391 2138 391 
Q 2594 391 2855 752 
Q 3116 1113 3116 1747 
z
M 1159 2969 
Q 1341 3281 1617 3432 
Q 1894 3584 2278 3584 
Q 2916 3584 3314 3078 
Q 3713 2572 3713 1747 
Q 3713 922 3314 415 
Q 2916 -91 2278 -91 
Q 1894 -91 1617 61 
Q 1341 213 1159 525 
L 1159 0 
L 581 0 
L 581 4863 
L 1159 4863 
L 1159 2969 
z
" transform="scale(0.015625)"/>
       <path id="DejaVuSans-73" d="M 2834 3397 
L 2834 2853 
Q 2591 2978 2328 3040 
Q 2066 3103 1784 3103 
Q 1356 3103 1142 2972 
Q 928 2841 928 2578 
Q 928 2378 1081 2264 
Q 1234 2150 1697 2047 
L 1894 2003 
Q 2506 1872 2764 1633 
Q 3022 1394 3022 966 
Q 3022 478 2636 193 
Q 2250 -91 1575 -91 
Q 1294 -91 989 -36 
Q 684 19 347 128 
L 347 722 
Q 666 556 975 473 
Q 1284 391 1588 391 
Q 1994 391 2212 530 
Q 2431 669 2431 922 
Q 2431 1156 2273 1281 
Q 2116 1406 1581 1522 
L 1381 1569 
Q 847 1681 609 1914 
Q 372 2147 372 2553 
Q 372 3047 722 3315 
Q 1072 3584 1716 3584 
Q 2034 3584 2315 3537 
Q 2597 3491 2834 3397 
z
" transform="scale(0.015625)"/>
       <path id="DejaVuSans-20" transform="scale(0.015625)"/>
       <path id="DejaVuSans-28" d="M 1984 4856 
Q 1566 4138 1362 3434 
Q 1159 2731 1159 2009 
Q 1159 1288 1364 580 
Q 1569 -128 1984 -844 
L 1484 -844 
Q 1016 -109 783 600 
Q 550 1309 550 2009 
Q 550 2706 781 3412 
Q 1013 4119 1484 4856 
L 1984 4856 
z
" transform="scale(0.015625)"/>
       <path id="DejaVuSans-39" d="M 703 97 
L 703 672 
Q 941 559 1184 500 
Q 1428 441 1663 441 
Q 2288 441 2617 861 
Q 2947 1281 2994 2138 
Q 2813 1869 2534 1725 
Q 2256 1581 1919 1581 
Q 1219 1581 811 2004 
Q 403 2428 403 3163 
Q 403 3881 828 4315 
Q 1253 4750 1959 4750 
Q 2769 4750 3195 4129 
Q 3622 3509 3622 2328 
Q 3622 1225 3098 567 
Q 2575 -91 1691 -91 
Q 1453 -91 1209 -44 
Q 966 3 703 97 
z
M 1959 2075 
Q 2384 2075 2632 2365 
Q 2881 2656 2881 3163 
Q 2881 3666 2632 3958 
Q 2384 4250 1959 4250 
Q 1534 4250 1286 3958 
Q 1038 3666 1038 3163 
Q 1038 2656 1286 2365 
Q 1534 2075 1959 2075 
z
" transform="scale(0.015625)"/>
       <path id="DejaVuSans-25" d="M 4653 2053 
Q 4381 2053 4226 1822 
Q 4072 1591 4072 1178 
Q 4072 772 4226 539 
Q 4381 306 4653 306 
Q 4919 306 5073 539 
Q 5228 772 5228 1178 
Q 5228 1588 5073 1820 
Q 4919 2053 4653 2053 
z
M 4653 2450 
Q 5147 2450 5437 2106 
Q 5728 1763 5728 1178 
Q 5728 594 5436 251 
Q 5144 -91 4653 -91 
Q 4153 -91 3862 251 
Q 3572 594 3572 1178 
Q 3572 1766 3864 2108 
Q 4156 2450 4653 2450 
z
M 1428 4353 
Q 1159 4353 1004 4120 
Q 850 3888 850 3481 
Q 850 3069 1003 2837 
Q 1156 2606 1428 2606 
Q 1700 2606 1854 2837 
Q 2009 3069 2009 3481 
Q 2009 3884 1853 4118 
Q 1697 4353 1428 4353 
z
M 4250 4750 
L 4750 4750 
L 1831 -91 
L 1331 -91 
L 4250 4750 
z
M 1428 4750 
Q 1922 4750 2215 4408 
Q 2509 4066 2509 3481 
Q 2509 2891 2217 2550 
Q 1925 2209 1428 2209 
Q 931 2209 642 2551 
Q 353 2894 353 3481 
Q 353 4063 643 4406 
Q 934 4750 1428 4750 
z
" transform="scale(0.015625)"/>
       <path id="DejaVuSans-43" d="M 4122 4306 
L 4122 3641 
Q 3803 3938 3442 4084 
Q 3081 4231 2675 4231 
Q 1875 4231 1450 3742 
Q 1025 3253 1025 2328 
Q 1025 1406 1450 917 
Q 1875 428 2675 428 
Q 3081 428 3442 575 
Q 3803 722 4122 1019 
L 4122 359 
Q 3791 134 3420 21 
Q 3050 -91 2638 -91 
Q 1578 -91 968 557 
Q 359 1206 359 2328 
Q 359 3453 968 4101 
Q 1578 4750 2638 4750 
Q 3056 4750 3426 4639 
Q 3797 4528 4122 4306 
z
" transform="scale(0.015625)"/>
       <path id="DejaVuSans-49" d="M 628 4666 
L 1259 4666 
L 1259 0 
L 628 0 
L 628 4666 
z
" transform="scale(0.015625)"/>
       <path id="DejaVuSans-29" d="M 513 4856 
L 1013 4856 
Q 1481 4119 1714 3412 
Q 1947 2706 1947 2009 
Q 1947 1309 1714 600 
Q 1481 -109 1013 -844 
L 513 -844 
Q 928 -128 1133 580 
Q 1338 1288 1338 2009 
Q 1338 2731 1133 3434 
Q 928 4138 513 4856 
z
" transform="scale(0.015625)"/>
      </defs>
      <use xlink:href="#DejaVuSans-62"/>
      <use xlink:href="#DejaVuSans-65" x="63.476562"/>
      <use xlink:href="#DejaVuSans-73" x="125"/>
      <use xlink:href="#DejaVuSans-74" x="177.099609"/>
      <use xlink:href="#DejaVuSans-20" x="216.308594"/>
      <use xlink:href="#DejaVuSans-66" x="248.095703"/>
      <use xlink:href="#DejaVuSans-69" x="283.300781"/>
      <use xlink:href="#DejaVuSans-74" x="311.083984"/>
      <use xlink:href="#DejaVuSans-20" x="350.292969"/>
      <use xlink:href="#DejaVuSans-28" x="382.080078"/>
      <use xlink:href="#DejaVuSans-39" x="421.09375"/>
      <use xlink:href="#DejaVuSans-35" x="484.716797"/>
      <use xlink:href="#DejaVuSans-25" x="548.339844"/>
      <use xlink:href="#DejaVuSans-20" x="643.359375"/>
      <use xlink:href="#DejaVuSans-43" x="675.146484"/>
      <use xlink:href="#DejaVuSans-49" x="744.970703"/>
      <use xlink:href="#DejaVuSans-29" x="774.462891"/>
     </g>
    </g>
   </g>
  </g>
  <g id="axes_2">
   <g id="patch_8">
    <path d="M 358.47 210.04 
L 629.28 210.04 
L 629.28 14.76 
L 358.47 14.76 
z
" style="fill: #ffffff"/>
   </g>
   <g id="matplotlib.axis_3">
    <g id="xtick_6">
     <g id="line2d_18">
      <g>
       <use xlink:href="#m55851f2bb1" x="358.47" y="210.04" style="stroke: #000000; stroke-width: 0.8"/>
      </g>
     </g>
     <g id="text_18">
      <!-- 0.0 -->
      <g transform="translate(350.518437 224.638438) scale(0.1 -0.1)">
       <use xlink:href="#DejaVuSans-30"/>
       <use xlink:href="#DejaVuSans-2e" x="63.623047"/>
       <use xlink:href="#DejaVuSans-30" x="95.410156"/>
      </g>
     </g>
    </g>
    <g id="xtick_7">
     <g id="line2d_19">
      <g>
       <use xlink:href="#m55851f2bb1" x="412.632" y="210.04" style="stroke: #000000; stroke-width: 0.8"/>
      </g>
     </g>
     <g id="text_19">
      <!-- 0.2 -->
      <g transform="translate(404.680437 224.638438) scale(0.1 -0.1)">
       <use xlink:href="#DejaVuSans-30"/>
       <use xlink:href="#DejaVuSans-2e" x="63.623047"/>
       <use xlink:href="#DejaVuSans-32" x="95.410156"/>
      </g>
     </g>
    </g>
    <g id="xtick_8">
     <g id="line2d_20">
      <g>
       <use xlink:href="#m55851f2bb1" x="466.794" y="210.04" style="stroke: #000000; stroke-width: 0.8"/>
      </g>
     </g>
     <g id="text_20">
      <!-- 0.4 -->
      <g transform="translate(458.842437 224.638438) scale(0.1 -0.1)">
       <defs>
        <path id="DejaVuSans-34" d="M 2419 4116 
L 825 1625 
L 2419 1625 
L 2419 4116 
z
M 2253 4666 
L 3047 4666 
L 3047 1625 
L 3713 1625 
L 3713 1100 
L 3047 1100 
L 3047 0 
L 2419 0 
L 2419 1100 
L 313 1100 
L 313 1709 
L 2253 4666 
z
" transform="scale(0.015625)"/>
       </defs>
       <use xlink:href="#DejaVuSans-30"/>
       <use xlink:href="#DejaVuSans-2e" x="63.623047"/>
       <use xlink:href="#DejaVuSans-34" x="95.410156"/>
      </g>
     </g>
    </g>
    <g id="xtick_9">
     <g id="line2d_21">
      <g>
       <use xlink:href="#m55851f2bb1" x="520.956" y="210.04" style="stroke: #000000; stroke-width: 0.8"/>
      </g>
     </g>
     <g id="text_21">
      <!-- 0.6 -->
      <g transform="translate(513.004437 224.638438) scale(0.1 -0.1)">
       <defs>
        <path id="DejaVuSans-36" d="M 2113 2584 
Q 1688 2584 1439 2293 
Q 1191 2003 1191 1497 
Q 1191 994 1439 701 
Q 1688 409 2113 409 
Q 2538 409 2786 701 
Q 3034 994 3034 1497 
Q 3034 2003 2786 2293 
Q 2538 2584 2113 2584 
z
M 3366 4563 
L 3366 3988 
Q 3128 4100 2886 4159 
Q 2644 4219 2406 4219 
Q 1781 4219 1451 3797 
Q 1122 3375 1075 2522 
Q 1259 2794 1537 2939 
Q 1816 3084 2150 3084 
Q 2853 3084 3261 2657 
Q 3669 2231 3669 1497 
Q 3669 778 3244 343 
Q 2819 -91 2113 -91 
Q 1303 -91 875 529 
Q 447 1150 447 2328 
Q 447 3434 972 4092 
Q 1497 4750 2381 4750 
Q 2619 4750 2861 4703 
Q 3103 4656 3366 4563 
z
" transform="scale(0.015625)"/>
       </defs>
       <use xlink:href="#DejaVuSans-30"/>
       <use xlink:href="#DejaVuSans-2e" x="63.623047"/>
       <use xlink:href="#DejaVuSans-36" x="95.410156"/>
      </g>
     </g>
    </g>
    <g id="xtick_10">
     <g id="line2d_22">
      <g>
       <use xlink:href="#m55851f2bb1" x="575.118" y="210.04" style="stroke: #000000; stroke-width: 0.8"/>
      </g>
     </g>
     <g id="text_22">
      <!-- 0.8 -->
      <g transform="translate(567.166437 224.638438) scale(0.1 -0.1)">
       <defs>
        <path id="DejaVuSans-38" d="M 2034 2216 
Q 1584 2216 1326 1975 
Q 1069 1734 1069 1313 
Q 1069 891 1326 650 
Q 1584 409 2034 409 
Q 2484 409 2743 651 
Q 3003 894 3003 1313 
Q 3003 1734 2745 1975 
Q 2488 2216 2034 2216 
z
M 1403 2484 
Q 997 2584 770 2862 
Q 544 3141 544 3541 
Q 544 4100 942 4425 
Q 1341 4750 2034 4750 
Q 2731 4750 3128 4425 
Q 3525 4100 3525 3541 
Q 3525 3141 3298 2862 
Q 3072 2584 2669 2484 
Q 3125 2378 3379 2068 
Q 3634 1759 3634 1313 
Q 3634 634 3220 271 
Q 2806 -91 2034 -91 
Q 1263 -91 848 271 
Q 434 634 434 1313 
Q 434 1759 690 2068 
Q 947 2378 1403 2484 
z
M 1172 3481 
Q 1172 3119 1398 2916 
Q 1625 2713 2034 2713 
Q 2441 2713 2670 2916 
Q 2900 3119 2900 3481 
Q 2900 3844 2670 4047 
Q 2441 4250 2034 4250 
Q 1625 4250 1398 4047 
Q 1172 3844 1172 3481 
z
" transform="scale(0.015625)"/>
       </defs>
       <use xlink:href="#DejaVuSans-30"/>
       <use xlink:href="#DejaVuSans-2e" x="63.623047"/>
       <use xlink:href="#DejaVuSans-38" x="95.410156"/>
      </g>
     </g>
    </g>
    <g id="xtick_11">
     <g id="line2d_23">
      <g>
       <use xlink:href="#m55851f2bb1" x="629.28" y="210.04" style="stroke: #000000; stroke-width: 0.8"/>
      </g>
     </g>
     <g id="text_23">
      <!-- 1.0 -->
      <g transform="translate(621.328437 224.638438) scale(0.1 -0.1)">
       <use xlink:href="#DejaVuSans-31"/>
       <use xlink:href="#DejaVuSans-2e" x="63.623047"/>
       <use xlink:href="#DejaVuSans-30" x="95.410156"/>
      </g>
     </g>
    </g>
   </g>
   <g id="matplotlib.axis_4">
    <g id="ytick_9">
     <g id="line2d_24">
      <g>
       <use xlink:href="#md270d515bf" x="358.47" y="210.04" style="stroke: #000000; stroke-width: 0.8"/>
      </g>
     </g>
     <g id="text_24">
      <!-- 0.0 -->
      <g transform="translate(335.566875 213.839219) scale(0.1 -0.1)">
       <use xlink:href="#DejaVuSans-30"/>
       <use xlink:href="#DejaVuSans-2e" x="63.623047"/>
       <use xlink:href="#DejaVuSans-30" x="95.410156"/>
      </g>
     </g>
    </g>
    <g id="ytick_10">
     <g id="line2d_25">
      <g>
       <use xlink:href="#md270d515bf" x="358.47" y="170.984" style="stroke: #000000; stroke-width: 0.8"/>
      </g>
     </g>
     <g id="text_25">
      <!-- 0.2 -->
      <g transform="translate(335.566875 174.783219) scale(0.1 -0.1)">
       <use xlink:href="#DejaVuSans-30"/>
       <use xlink:href="#DejaVuSans-2e" x="63.623047"/>
       <use xlink:href="#DejaVuSans-32" x="95.410156"/>
      </g>
     </g>
    </g>
    <g id="ytick_11">
     <g id="line2d_26">
      <g>
       <use xlink:href="#md270d515bf" x="358.47" y="131.928" style="stroke: #000000; stroke-width: 0.8"/>
      </g>
     </g>
     <g id="text_26">
      <!-- 0.4 -->
      <g transform="translate(335.566875 135.727219) scale(0.1 -0.1)">
       <use xlink:href="#DejaVuSans-30"/>
       <use xlink:href="#DejaVuSans-2e" x="63.623047"/>
       <use xlink:href="#DejaVuSans-34" x="95.410156"/>
      </g>
     </g>
    </g>
    <g id="ytick_12">
     <g id="line2d_27">
      <g>
       <use xlink:href="#md270d515bf" x="358.47" y="92.872" style="stroke: #000000; stroke-width: 0.8"/>
      </g>
     </g>
     <g id="text_27">
      <!-- 0.6 -->
      <g transform="translate(335.566875 96.671219) scale(0.1 -0.1)">
       <use xlink:href="#DejaVuSans-30"/>
       <use xlink:href="#DejaVuSans-2e" x="63.623047"/>
       <use xlink:href="#DejaVuSans-36" x="95.410156"/>
      </g>
     </g>
    </g>
    <g id="ytick_13">
     <g id="line2d_28">
      <g>
       <use xlink:href="#md270d515bf" x="358.47" y="53.816" style="stroke: #000000; stroke-width: 0.8"/>
      </g>
     </g>
     <g id="text_28">
      <!-- 0.8 -->
      <g transform="translate(335.566875 57.615219) scale(0.1 -0.1)">
       <use xlink:href="#DejaVuSans-30"/>
       <use xlink:href="#DejaVuSans-2e" x="63.623047"/>
       <use xlink:href="#DejaVuSans-38" x="95.410156"/>
      </g>
     </g>
    </g>
    <g id="ytick_14">
     <g id="line2d_29">
      <g>
       <use xlink:href="#md270d515bf" x="358.47" y="14.76" style="stroke: #000000; stroke-width: 0.8"/>
      </g>
     </g>
     <g id="text_29">
      <!-- 1.0 -->
      <g transform="translate(335.566875 18.559219) scale(0.1 -0.1)">
       <use xlink:href="#DejaVuSans-31"/>
       <use xlink:href="#DejaVuSans-2e" x="63.623047"/>
       <use xlink:href="#DejaVuSans-30" x="95.410156"/>
      </g>
     </g>
    </g>
   </g>
   <g id="patch_9">
    <path d="M 358.47 210.04 
L 358.47 14.76 
" style="fill: none; stroke: #000000; stroke-width: 0.8; stroke-linejoin: miter; stroke-linecap: square"/>
   </g>
   <g id="patch_10">
    <path d="M 629.28 210.04 
L 629.28 14.76 
" style="fill: none; stroke: #000000; stroke-width: 0.8; stroke-linejoin: miter; stroke-linecap: square"/>
   </g>
   <g id="patch_11">
    <path d="M 358.47 210.04 
L 629.28 210.04 
" style="fill: none; stroke: #000000; stroke-width: 0.8; stroke-linejoin: miter; stroke-linecap: square"/>
   </g>
   <g id="patch_12">
    <path d="M 358.47 14.76 
L 629.28 14.76 
" style="fill: none; stroke: #000000; stroke-width: 0.8; stroke-linejoin: miter; stroke-linecap: square"/>
   </g>
  </g>
 </g>
 <defs>
  <clipPath id="pd37d2a06b0">
   <rect x="54.02" y="14.76" width="270.81" height="195.28"/>
  </clipPath>
 </defs>
</svg>
