<?xml version="1.0" encoding="utf-8" standalone="no"?>
<!DOCTYPE svg PUBLIC "-//W3C//DTD SVG 1.1//EN"
  "http://www.w3.org/Graphics/SVG/1.1/DTD/svg11.dtd">
<svg xmlns:xlink="http://www.w3.org/1999/xlink" width="288pt" height="252pt" viewBox="0 0 288 252" xmlns="http://www.w3.org/2000/svg" version="1.1">
 <metadata>
  <rdf:RDF xmlns:dc="http://purl.org/dc/elements/1.1/" xmlns:cc="http://creativecommons.org/ns#" xmlns:rdf="http://www.w3.org/1999/02/22-rdf-syntax-ns#">
   <cc:Work>
    <dc:type rdf:resource="http://purl.org/dc/dcmitype/StillImage"/>
    <dc:date>2024-07-25T16:34:50.439317</dc:date>
    <dc:format>image/svg+xml</dc:format>
    <dc:creator>
     <cc:Agent>
      <dc:title>Matplotlib v3.9.1, https://matplotlib.org/</dc:title>
     </cc:Agent>
    </dc:creator>
   </cc:Work>
  </rdf:RDF>
 </metadata>
 <defs>
  <style type="text/css">*{stroke-linejoin: round; stroke-linecap: butt}</style>
 </defs>
 <g id="figure_1">
  <g id="patch_1">
   <path d="M 0 252 
L 288 252 
L 288 0 
L 0 0 
z
" style="fill: #ffffff"/>
  </g>
  <g id="axes_1">
   <g id="patch_2">
    <path d="M 52.13 209.32 
L 271.665 209.32 
L 271.665 10.8 
L 52.13 10.8 
z
" style="fill: #ffffff"/>
   </g>
   <g id="matplotlib.axis_1">
    <g id="xtick_1">
     <g id="line2d_1">
      <defs>
       <path id="m02ec32834c" d="M 0 0 
L 0 3.5 
" style="stroke: #262626; stroke-width: 0.8"/>
      </defs>
      <g>
       <use xlink:href="#m02ec32834c" x="60.954743" y="209.32" style="fill: #262626; stroke: #262626; stroke-width: 0.8"/>
      </g>
     </g>
     <g id="text_1">
      <!-- 0 -->
      <g style="fill: #262626" transform="translate(58.174275 223.477812) scale(0.1 -0.1)">
       <defs>
        <path id="ArialMT-30" d="M 266 2259 
Q 266 3072 433 3567 
Q 600 4063 929 4331 
Q 1259 4600 1759 4600 
Q 2128 4600 2406 4451 
Q 2684 4303 2865 4023 
Q 3047 3744 3150 3342 
Q 3253 2941 3253 2259 
Q 3253 1453 3087 958 
Q 2922 463 2592 192 
Q 2263 -78 1759 -78 
Q 1097 -78 719 397 
Q 266 969 266 2259 
z
M 844 2259 
Q 844 1131 1108 757 
Q 1372 384 1759 384 
Q 2147 384 2411 759 
Q 2675 1134 2675 2259 
Q 2675 3391 2411 3762 
Q 2147 4134 1753 4134 
Q 1366 4134 1134 3806 
Q 844 3388 844 2259 
z
" transform="scale(0.015625)"/>
       </defs>
       <use xlink:href="#ArialMT-30"/>
      </g>
     </g>
    </g>
    <g id="xtick_2">
     <g id="line2d_2">
      <g>
       <use xlink:href="#m02ec32834c" x="113.632308" y="209.32" style="fill: #262626; stroke: #262626; stroke-width: 0.8"/>
      </g>
     </g>
     <g id="text_2">
      <!-- 10 -->
      <g style="fill: #262626" transform="translate(108.07137 223.477812) scale(0.1 -0.1)">
       <defs>
        <path id="ArialMT-31" d="M 2384 0 
L 1822 0 
L 1822 3584 
Q 1619 3391 1289 3197 
Q 959 3003 697 2906 
L 697 3450 
Q 1169 3672 1522 3987 
Q 1875 4303 2022 4600 
L 2384 4600 
L 2384 0 
z
" transform="scale(0.015625)"/>
       </defs>
       <use xlink:href="#ArialMT-31"/>
       <use xlink:href="#ArialMT-30" x="55.615234"/>
      </g>
     </g>
    </g>
    <g id="xtick_3">
     <g id="line2d_3">
      <g>
       <use xlink:href="#m02ec32834c" x="166.309872" y="209.32" style="fill: #262626; stroke: #262626; stroke-width: 0.8"/>
      </g>
     </g>
     <g id="text_3">
      <!-- 20 -->
      <g style="fill: #262626" transform="translate(160.748934 223.477812) scale(0.1 -0.1)">
       <defs>
        <path id="ArialMT-32" d="M 3222 541 
L 3222 0 
L 194 0 
Q 188 203 259 391 
Q 375 700 629 1000 
Q 884 1300 1366 1694 
Q 2113 2306 2375 2664 
Q 2638 3022 2638 3341 
Q 2638 3675 2398 3904 
Q 2159 4134 1775 4134 
Q 1369 4134 1125 3890 
Q 881 3647 878 3216 
L 300 3275 
Q 359 3922 746 4261 
Q 1134 4600 1788 4600 
Q 2447 4600 2831 4234 
Q 3216 3869 3216 3328 
Q 3216 3053 3103 2787 
Q 2991 2522 2730 2228 
Q 2469 1934 1863 1422 
Q 1356 997 1212 845 
Q 1069 694 975 541 
L 3222 541 
z
" transform="scale(0.015625)"/>
       </defs>
       <use xlink:href="#ArialMT-32"/>
       <use xlink:href="#ArialMT-30" x="55.615234"/>
      </g>
     </g>
    </g>
    <g id="xtick_4">
     <g id="line2d_4">
      <g>
       <use xlink:href="#m02ec32834c" x="218.987436" y="209.32" style="fill: #262626; stroke: #262626; stroke-width: 0.8"/>
      </g>
     </g>
     <g id="text_4">
      <!-- 30 -->
      <g style="fill: #262626" transform="translate(213.426498 223.477812) scale(0.1 -0.1)">
       <defs>
        <path id="ArialMT-33" d="M 269 1209 
L 831 1284 
Q 928 806 1161 595 
Q 1394 384 1728 384 
Q 2125 384 2398 659 
Q 2672 934 2672 1341 
Q 2672 1728 2419 1979 
Q 2166 2231 1775 2231 
Q 1616 2231 1378 2169 
L 1441 2663 
Q 1497 2656 1531 2656 
Q 1891 2656 2178 2843 
Q 2466 3031 2466 3422 
Q 2466 3731 2256 3934 
Q 2047 4138 1716 4138 
Q 1388 4138 1169 3931 
Q 950 3725 888 3313 
L 325 3413 
Q 428 3978 793 4289 
Q 1159 4600 1703 4600 
Q 2078 4600 2393 4439 
Q 2709 4278 2876 4000 
Q 3044 3722 3044 3409 
Q 3044 3113 2884 2869 
Q 2725 2625 2413 2481 
Q 2819 2388 3044 2092 
Q 3269 1797 3269 1353 
Q 3269 753 2831 336 
Q 2394 -81 1725 -81 
Q 1122 -81 723 278 
Q 325 638 269 1209 
z
" transform="scale(0.015625)"/>
       </defs>
       <use xlink:href="#ArialMT-33"/>
       <use xlink:href="#ArialMT-30" x="55.615234"/>
      </g>
     </g>
    </g>
    <g id="xtick_5">
     <g id="line2d_5">
      <g>
       <use xlink:href="#m02ec32834c" x="271.665" y="209.32" style="fill: #262626; stroke: #262626; stroke-width: 0.8"/>
      </g>
     </g>
     <g id="text_5">
      <!-- 40 -->
      <g style="fill: #262626" transform="translate(266.104062 223.477812) scale(0.1 -0.1)">
       <defs>
        <path id="ArialMT-34" d="M 2069 0 
L 2069 1097 
L 81 1097 
L 81 1613 
L 2172 4581 
L 2631 4581 
L 2631 1613 
L 3250 1613 
L 3250 1097 
L 2631 1097 
L 2631 0 
L 2069 0 
z
M 2069 1613 
L 2069 3678 
L 634 1613 
L 2069 1613 
z
" transform="scale(0.015625)"/>
       </defs>
       <use xlink:href="#ArialMT-34"/>
       <use xlink:href="#ArialMT-30" x="55.615234"/>
      </g>
     </g>
    </g>
    <g id="text_6">
     <!-- [Substrate] (A.U.) -->
     <g style="fill: #262626" transform="translate(119.452188 237.666562) scale(0.12 -0.12)">
      <defs>
       <path id="Calibri-5b" d="M 1684 -813 
Q 1684 -916 1661 -958 
Q 1638 -1000 1594 -1000 
L 794 -1000 
Q 756 -1000 722 -989 
Q 688 -978 659 -953 
Q 631 -928 614 -886 
Q 597 -844 597 -781 
L 597 4153 
Q 597 4213 614 4255 
Q 631 4297 659 4323 
Q 688 4350 722 4361 
Q 756 4372 794 4372 
L 1594 4372 
Q 1613 4372 1630 4362 
Q 1647 4353 1659 4328 
Q 1672 4303 1678 4267 
Q 1684 4231 1684 4178 
Q 1684 4078 1661 4034 
Q 1638 3991 1594 3991 
L 1084 3991 
L 1084 -622 
L 1594 -622 
Q 1613 -622 1630 -631 
Q 1647 -641 1659 -664 
Q 1672 -688 1678 -723 
Q 1684 -759 1684 -813 
z
" transform="scale(0.015625)"/>
       <path id="Calibri-53" d="M 2709 1134 
Q 2709 850 2604 628 
Q 2500 406 2314 251 
Q 2128 97 1876 19 
Q 1625 -59 1334 -59 
Q 1131 -59 957 -25 
Q 784 9 648 59 
Q 513 109 420 162 
Q 328 216 292 253 
Q 256 291 239 348 
Q 222 406 222 503 
Q 222 572 228 617 
Q 234 663 246 691 
Q 259 719 278 730 
Q 297 741 322 741 
Q 366 741 445 687 
Q 525 634 650 571 
Q 775 509 951 454 
Q 1128 400 1359 400 
Q 1534 400 1679 447 
Q 1825 494 1929 580 
Q 2034 666 2090 791 
Q 2147 916 2147 1075 
Q 2147 1247 2069 1369 
Q 1991 1491 1862 1583 
Q 1734 1675 1570 1751 
Q 1406 1828 1234 1908 
Q 1063 1988 900 2084 
Q 738 2181 609 2312 
Q 481 2444 401 2620 
Q 322 2797 322 3044 
Q 322 3297 414 3495 
Q 506 3694 670 3828 
Q 834 3963 1061 4033 
Q 1288 4103 1550 4103 
Q 1684 4103 1820 4079 
Q 1956 4056 2076 4017 
Q 2197 3978 2290 3929 
Q 2384 3881 2414 3851 
Q 2444 3822 2453 3805 
Q 2463 3788 2469 3761 
Q 2475 3734 2478 3696 
Q 2481 3659 2481 3600 
Q 2481 3544 2476 3500 
Q 2472 3456 2462 3426 
Q 2453 3397 2436 3383 
Q 2419 3369 2397 3369 
Q 2363 3369 2289 3412 
Q 2216 3456 2109 3511 
Q 2003 3566 1858 3611 
Q 1713 3656 1531 3656 
Q 1363 3656 1238 3611 
Q 1113 3566 1031 3491 
Q 950 3416 909 3312 
Q 869 3209 869 3094 
Q 869 2925 947 2803 
Q 1025 2681 1154 2587 
Q 1284 2494 1450 2416 
Q 1616 2338 1787 2258 
Q 1959 2178 2125 2083 
Q 2291 1988 2420 1858 
Q 2550 1728 2629 1551 
Q 2709 1375 2709 1134 
z
" transform="scale(0.015625)"/>
       <path id="Calibri-75" d="M 2888 78 
Q 2888 53 2877 36 
Q 2866 19 2837 6 
Q 2809 -6 2764 -12 
Q 2719 -19 2653 -19 
Q 2581 -19 2536 -12 
Q 2491 -6 2464 6 
Q 2438 19 2428 36 
Q 2419 53 2419 78 
L 2419 450 
Q 2178 184 1943 62 
Q 1709 -59 1469 -59 
Q 1188 -59 995 34 
Q 803 128 684 289 
Q 566 450 514 664 
Q 463 878 463 1184 
L 463 2891 
Q 463 2916 473 2933 
Q 484 2950 515 2964 
Q 547 2978 597 2983 
Q 647 2988 722 2988 
Q 797 2988 847 2983 
Q 897 2978 926 2964 
Q 956 2950 968 2933 
Q 981 2916 981 2891 
L 981 1253 
Q 981 1006 1017 857 
Q 1053 709 1126 604 
Q 1200 500 1312 442 
Q 1425 384 1575 384 
Q 1769 384 1961 521 
Q 2153 659 2369 925 
L 2369 2891 
Q 2369 2916 2380 2933 
Q 2391 2950 2422 2964 
Q 2453 2978 2501 2983 
Q 2550 2988 2628 2988 
Q 2703 2988 2753 2983 
Q 2803 2978 2831 2964 
Q 2859 2950 2873 2933 
Q 2888 2916 2888 2891 
L 2888 78 
z
" transform="scale(0.015625)"/>
       <path id="Calibri-62" d="M 3066 1522 
Q 3066 1156 2986 864 
Q 2906 572 2751 365 
Q 2597 159 2372 50 
Q 2147 -59 1856 -59 
Q 1722 -59 1608 -32 
Q 1494 -6 1384 53 
Q 1275 113 1165 203 
Q 1056 294 934 422 
L 934 78 
Q 934 53 921 34 
Q 909 16 881 5 
Q 853 -6 811 -12 
Q 769 -19 703 -19 
Q 641 -19 597 -12 
Q 553 -6 525 5 
Q 497 16 487 34 
Q 478 53 478 78 
L 478 4253 
Q 478 4278 489 4297 
Q 500 4316 529 4328 
Q 559 4341 609 4347 
Q 659 4353 734 4353 
Q 813 4353 863 4347 
Q 913 4341 941 4328 
Q 969 4316 981 4297 
Q 994 4278 994 4253 
L 994 2569 
Q 1119 2697 1236 2784 
Q 1353 2872 1465 2926 
Q 1578 2981 1690 3006 
Q 1803 3031 1928 3031 
Q 2234 3031 2451 2909 
Q 2669 2788 2805 2583 
Q 2941 2378 3003 2103 
Q 3066 1828 3066 1522 
z
M 2522 1463 
Q 2522 1678 2489 1881 
Q 2456 2084 2375 2240 
Q 2294 2397 2159 2492 
Q 2025 2588 1825 2588 
Q 1725 2588 1628 2559 
Q 1531 2531 1431 2465 
Q 1331 2400 1223 2297 
Q 1116 2194 994 2038 
L 994 916 
Q 1206 656 1400 520 
Q 1594 384 1803 384 
Q 1997 384 2134 478 
Q 2272 572 2358 726 
Q 2444 881 2483 1073 
Q 2522 1266 2522 1463 
z
" transform="scale(0.015625)"/>
       <path id="Calibri-73" d="M 2244 844 
Q 2244 628 2164 459 
Q 2084 291 1937 175 
Q 1791 59 1587 0 
Q 1384 -59 1141 -59 
Q 991 -59 855 -36 
Q 719 -13 611 23 
Q 503 59 428 98 
Q 353 138 318 169 
Q 284 200 268 256 
Q 253 313 253 409 
Q 253 469 259 509 
Q 266 550 275 575 
Q 284 600 301 611 
Q 319 622 341 622 
Q 375 622 442 580 
Q 509 538 607 488 
Q 706 438 840 395 
Q 975 353 1150 353 
Q 1281 353 1387 381 
Q 1494 409 1572 464 
Q 1650 519 1692 603 
Q 1734 688 1734 803 
Q 1734 922 1673 1003 
Q 1613 1084 1513 1146 
Q 1413 1209 1288 1257 
Q 1163 1306 1030 1359 
Q 897 1413 770 1480 
Q 644 1547 544 1644 
Q 444 1741 383 1875 
Q 322 2009 322 2197 
Q 322 2363 386 2514 
Q 450 2666 578 2780 
Q 706 2894 898 2962 
Q 1091 3031 1347 3031 
Q 1459 3031 1571 3012 
Q 1684 2994 1775 2966 
Q 1866 2938 1930 2905 
Q 1994 2872 2026 2847 
Q 2059 2822 2070 2803 
Q 2081 2784 2086 2761 
Q 2091 2738 2095 2703 
Q 2100 2669 2100 2619 
Q 2100 2566 2095 2527 
Q 2091 2488 2080 2463 
Q 2069 2438 2053 2427 
Q 2038 2416 2019 2416 
Q 1991 2416 1937 2450 
Q 1884 2484 1800 2523 
Q 1716 2563 1602 2597 
Q 1488 2631 1341 2631 
Q 1209 2631 1109 2601 
Q 1009 2572 945 2517 
Q 881 2463 848 2388 
Q 816 2313 816 2225 
Q 816 2103 878 2020 
Q 941 1938 1041 1875 
Q 1141 1813 1269 1763 
Q 1397 1713 1530 1659 
Q 1663 1606 1792 1540 
Q 1922 1475 2022 1381 
Q 2122 1288 2183 1156 
Q 2244 1025 2244 844 
z
" transform="scale(0.015625)"/>
       <path id="Calibri-74" d="M 1941 284 
Q 1941 194 1928 141 
Q 1916 88 1891 63 
Q 1866 38 1816 16 
Q 1766 -6 1702 -20 
Q 1638 -34 1566 -43 
Q 1494 -53 1422 -53 
Q 1203 -53 1047 5 
Q 891 63 791 180 
Q 691 297 645 476 
Q 600 656 600 900 
L 600 2544 
L 206 2544 
Q 159 2544 131 2594 
Q 103 2644 103 2756 
Q 103 2816 111 2856 
Q 119 2897 131 2923 
Q 144 2950 164 2961 
Q 184 2972 209 2972 
L 600 2972 
L 600 3641 
Q 600 3663 611 3681 
Q 622 3700 651 3714 
Q 681 3728 731 3734 
Q 781 3741 856 3741 
Q 934 3741 984 3734 
Q 1034 3728 1062 3714 
Q 1091 3700 1103 3681 
Q 1116 3663 1116 3641 
L 1116 2972 
L 1838 2972 
Q 1863 2972 1881 2961 
Q 1900 2950 1914 2923 
Q 1928 2897 1934 2856 
Q 1941 2816 1941 2756 
Q 1941 2644 1912 2594 
Q 1884 2544 1838 2544 
L 1116 2544 
L 1116 975 
Q 1116 684 1202 536 
Q 1288 388 1509 388 
Q 1581 388 1637 402 
Q 1694 416 1737 431 
Q 1781 447 1812 461 
Q 1844 475 1869 475 
Q 1884 475 1898 467 
Q 1913 459 1920 437 
Q 1928 416 1934 378 
Q 1941 341 1941 284 
z
" transform="scale(0.015625)"/>
       <path id="Calibri-72" d="M 2122 2706 
Q 2122 2638 2119 2591 
Q 2116 2544 2106 2517 
Q 2097 2491 2083 2477 
Q 2069 2463 2044 2463 
Q 2019 2463 1983 2477 
Q 1947 2491 1901 2505 
Q 1856 2519 1800 2531 
Q 1744 2544 1678 2544 
Q 1600 2544 1525 2512 
Q 1450 2481 1367 2409 
Q 1284 2338 1193 2219 
Q 1103 2100 994 1928 
L 994 78 
Q 994 53 981 36 
Q 969 19 941 6 
Q 913 -6 863 -12 
Q 813 -19 734 -19 
Q 659 -19 609 -12 
Q 559 -6 529 6 
Q 500 19 489 36 
Q 478 53 478 78 
L 478 2891 
Q 478 2916 487 2933 
Q 497 2950 525 2964 
Q 553 2978 597 2983 
Q 641 2988 713 2988 
Q 781 2988 826 2983 
Q 872 2978 897 2964 
Q 922 2950 933 2933 
Q 944 2916 944 2891 
L 944 2481 
Q 1059 2650 1161 2756 
Q 1263 2863 1353 2923 
Q 1444 2984 1533 3007 
Q 1622 3031 1713 3031 
Q 1753 3031 1804 3026 
Q 1856 3022 1912 3009 
Q 1969 2997 2014 2981 
Q 2059 2966 2078 2950 
Q 2097 2934 2103 2920 
Q 2109 2906 2114 2884 
Q 2119 2863 2120 2820 
Q 2122 2778 2122 2706 
z
" transform="scale(0.015625)"/>
       <path id="Calibri-61" d="M 2597 75 
Q 2597 38 2572 19 
Q 2547 0 2503 -9 
Q 2459 -19 2375 -19 
Q 2294 -19 2245 -9 
Q 2197 0 2175 19 
Q 2153 38 2153 75 
L 2153 356 
Q 1969 159 1742 50 
Q 1516 -59 1263 -59 
Q 1041 -59 861 -1 
Q 681 56 554 165 
Q 428 275 358 434 
Q 288 594 288 797 
Q 288 1034 384 1209 
Q 481 1384 662 1500 
Q 844 1616 1106 1673 
Q 1369 1731 1697 1731 
L 2084 1731 
L 2084 1950 
Q 2084 2113 2050 2238 
Q 2016 2363 1939 2445 
Q 1863 2528 1741 2570 
Q 1619 2613 1441 2613 
Q 1250 2613 1098 2567 
Q 947 2522 833 2467 
Q 719 2413 642 2367 
Q 566 2322 528 2322 
Q 503 2322 484 2334 
Q 466 2347 452 2372 
Q 438 2397 431 2436 
Q 425 2475 425 2522 
Q 425 2600 436 2645 
Q 447 2691 489 2731 
Q 531 2772 634 2826 
Q 738 2881 872 2926 
Q 1006 2972 1165 3001 
Q 1325 3031 1488 3031 
Q 1791 3031 2003 2962 
Q 2216 2894 2347 2761 
Q 2478 2628 2537 2431 
Q 2597 2234 2597 1972 
L 2597 75 
z
M 2084 1359 
L 1644 1359 
Q 1431 1359 1275 1323 
Q 1119 1288 1016 1217 
Q 913 1147 864 1048 
Q 816 950 816 822 
Q 816 603 955 473 
Q 1094 344 1344 344 
Q 1547 344 1720 447 
Q 1894 550 2084 763 
L 2084 1359 
z
" transform="scale(0.015625)"/>
       <path id="Calibri-65" d="M 2878 1606 
Q 2878 1484 2817 1432 
Q 2756 1381 2678 1381 
L 834 1381 
Q 834 1147 881 959 
Q 928 772 1037 637 
Q 1147 503 1322 431 
Q 1497 359 1750 359 
Q 1950 359 2106 392 
Q 2263 425 2377 465 
Q 2491 506 2564 539 
Q 2638 572 2675 572 
Q 2697 572 2714 561 
Q 2731 550 2740 528 
Q 2750 506 2754 467 
Q 2759 428 2759 372 
Q 2759 331 2756 301 
Q 2753 272 2748 248 
Q 2744 225 2733 206 
Q 2722 188 2705 170 
Q 2688 153 2603 114 
Q 2519 75 2384 37 
Q 2250 0 2073 -29 
Q 1897 -59 1697 -59 
Q 1350 -59 1089 37 
Q 828 134 650 325 
Q 472 516 381 803 
Q 291 1091 291 1472 
Q 291 1834 384 2123 
Q 478 2413 654 2614 
Q 831 2816 1081 2923 
Q 1331 3031 1641 3031 
Q 1972 3031 2205 2925 
Q 2438 2819 2588 2639 
Q 2738 2459 2808 2217 
Q 2878 1975 2878 1700 
L 2878 1606 
z
M 2359 1759 
Q 2369 2166 2180 2397 
Q 1991 2628 1619 2628 
Q 1428 2628 1284 2556 
Q 1141 2484 1044 2365 
Q 947 2247 894 2089 
Q 841 1931 834 1759 
L 2359 1759 
z
" transform="scale(0.015625)"/>
       <path id="Calibri-5d" d="M 1369 -781 
Q 1369 -844 1351 -886 
Q 1334 -928 1306 -953 
Q 1278 -978 1242 -989 
Q 1206 -1000 1169 -1000 
L 372 -1000 
Q 328 -1000 304 -958 
Q 281 -916 281 -813 
Q 281 -759 286 -723 
Q 291 -688 303 -664 
Q 316 -641 333 -631 
Q 350 -622 372 -622 
L 881 -622 
L 881 3991 
L 372 3991 
Q 328 3991 304 4034 
Q 281 4078 281 4178 
Q 281 4231 286 4267 
Q 291 4303 303 4328 
Q 316 4353 333 4362 
Q 350 4372 372 4372 
L 1169 4372 
Q 1206 4372 1242 4361 
Q 1278 4350 1306 4323 
Q 1334 4297 1351 4255 
Q 1369 4213 1369 4153 
L 1369 -781 
z
" transform="scale(0.015625)"/>
       <path id="Calibri-20" transform="scale(0.015625)"/>
       <path id="Calibri-28" d="M 1547 4306 
Q 1250 3678 1104 3017 
Q 959 2356 959 1688 
Q 959 1016 1107 356 
Q 1256 -303 1541 -938 
Q 1556 -975 1557 -1001 
Q 1559 -1028 1537 -1045 
Q 1516 -1063 1470 -1070 
Q 1425 -1078 1347 -1078 
Q 1291 -1078 1250 -1075 
Q 1209 -1072 1179 -1062 
Q 1150 -1053 1131 -1040 
Q 1113 -1028 1103 -1013 
Q 934 -694 806 -367 
Q 678 -41 590 296 
Q 503 634 459 979 
Q 416 1325 416 1678 
Q 416 2031 464 2375 
Q 513 2719 602 3058 
Q 691 3397 819 3725 
Q 947 4053 1106 4375 
Q 1109 4388 1123 4397 
Q 1138 4406 1163 4415 
Q 1188 4425 1231 4429 
Q 1275 4434 1344 4434 
Q 1416 4434 1459 4425 
Q 1503 4416 1528 4400 
Q 1553 4384 1556 4359 
Q 1559 4334 1547 4306 
z
" transform="scale(0.015625)"/>
       <path id="Calibri-41" d="M 3566 191 
Q 3591 122 3592 80 
Q 3594 38 3569 16 
Q 3544 -6 3486 -12 
Q 3428 -19 3331 -19 
Q 3234 -19 3176 -14 
Q 3119 -9 3089 2 
Q 3059 13 3045 31 
Q 3031 50 3019 78 
L 2672 1063 
L 991 1063 
L 659 91 
Q 650 63 634 42 
Q 619 22 589 8 
Q 559 -6 504 -12 
Q 450 -19 363 -19 
Q 272 -19 214 -11 
Q 156 -3 132 19 
Q 109 41 111 83 
Q 113 125 138 194 
L 1494 3950 
Q 1506 3984 1526 4006 
Q 1547 4028 1586 4040 
Q 1625 4053 1686 4058 
Q 1747 4063 1841 4063 
Q 1941 4063 2006 4058 
Q 2072 4053 2112 4040 
Q 2153 4028 2175 4004 
Q 2197 3981 2209 3947 
L 3566 191 
z
M 1825 3506 
L 1822 3506 
L 1125 1491 
L 2531 1491 
L 1825 3506 
z
" transform="scale(0.015625)"/>
       <path id="Calibri-2e" d="M 1144 341 
Q 1144 119 1070 45 
Q 997 -28 803 -28 
Q 616 -28 544 44 
Q 472 116 472 331 
Q 472 553 545 626 
Q 619 700 813 700 
Q 1000 700 1072 628 
Q 1144 556 1144 341 
z
" transform="scale(0.015625)"/>
       <path id="Calibri-55" d="M 3578 1494 
Q 3578 1125 3470 836 
Q 3363 547 3163 347 
Q 2963 147 2675 44 
Q 2388 -59 2022 -59 
Q 1688 -59 1413 37 
Q 1138 134 941 323 
Q 744 513 637 797 
Q 531 1081 531 1453 
L 531 3963 
Q 531 3988 543 4006 
Q 556 4025 587 4036 
Q 619 4047 669 4055 
Q 719 4063 800 4063 
Q 875 4063 928 4055 
Q 981 4047 1011 4036 
Q 1041 4025 1053 4006 
Q 1066 3988 1066 3963 
L 1066 1519 
Q 1066 1238 1134 1028 
Q 1203 819 1333 680 
Q 1463 541 1645 470 
Q 1828 400 2056 400 
Q 2291 400 2473 469 
Q 2656 538 2782 675 
Q 2909 813 2976 1016 
Q 3044 1219 3044 1491 
L 3044 3963 
Q 3044 3988 3056 4006 
Q 3069 4025 3100 4036 
Q 3131 4047 3182 4055 
Q 3234 4063 3313 4063 
Q 3388 4063 3439 4055 
Q 3491 4047 3520 4036 
Q 3550 4025 3564 4006 
Q 3578 3988 3578 3963 
L 3578 1494 
z
" transform="scale(0.015625)"/>
       <path id="Calibri-29" d="M 1522 1678 
Q 1522 1325 1478 979 
Q 1434 634 1346 296 
Q 1259 -41 1132 -367 
Q 1006 -694 838 -1013 
Q 828 -1028 809 -1040 
Q 791 -1053 761 -1062 
Q 731 -1072 690 -1075 
Q 650 -1078 594 -1078 
Q 513 -1078 467 -1070 
Q 422 -1063 401 -1045 
Q 381 -1028 382 -1001 
Q 384 -975 400 -938 
Q 688 -306 834 355 
Q 981 1016 981 1688 
Q 981 2356 834 3017 
Q 688 3678 394 4306 
Q 381 4334 384 4359 
Q 388 4384 413 4400 
Q 438 4416 481 4425 
Q 525 4434 597 4434 
Q 663 4434 706 4429 
Q 750 4425 776 4415 
Q 803 4406 815 4397 
Q 828 4388 834 4375 
Q 1156 3734 1339 3057 
Q 1522 2381 1522 1678 
z
" transform="scale(0.015625)"/>
      </defs>
      <use xlink:href="#Calibri-5b"/>
      <use xlink:href="#Calibri-53" x="30.664062"/>
      <use xlink:href="#Calibri-75" x="76.611328"/>
      <use xlink:href="#Calibri-62" x="129.150391"/>
      <use xlink:href="#Calibri-73" x="181.689453"/>
      <use xlink:href="#Calibri-74" x="220.800781"/>
      <use xlink:href="#Calibri-72" x="254.296875"/>
      <use xlink:href="#Calibri-61" x="289.160156"/>
      <use xlink:href="#Calibri-74" x="337.060547"/>
      <use xlink:href="#Calibri-65" x="370.556641"/>
      <use xlink:href="#Calibri-5d" x="420.3125"/>
      <use xlink:href="#Calibri-20" x="450.976562"/>
      <use xlink:href="#Calibri-28" x="473.583984"/>
      <use xlink:href="#Calibri-41" x="503.90625"/>
      <use xlink:href="#Calibri-2e" x="562.392578"/>
      <use xlink:href="#Calibri-55" x="587.636719"/>
      <use xlink:href="#Calibri-2e" x="651.796875"/>
      <use xlink:href="#Calibri-29" x="677.041016"/>
     </g>
    </g>
   </g>
   <g id="matplotlib.axis_2">
    <g id="ytick_1">
     <g id="line2d_6">
      <defs>
       <path id="mbab3113e01" d="M 0 0 
L -3.5 0 
" style="stroke: #262626; stroke-width: 0.8"/>
      </defs>
      <g>
       <use xlink:href="#mbab3113e01" x="52.13" y="204.923869" style="fill: #262626; stroke: #262626; stroke-width: 0.8"/>
      </g>
     </g>
     <g id="text_7">
      <!-- 0.00 -->
      <g style="fill: #262626" transform="translate(25.669063 208.502776) scale(0.1 -0.1)">
       <defs>
        <path id="ArialMT-2e" d="M 581 0 
L 581 641 
L 1222 641 
L 1222 0 
L 581 0 
z
" transform="scale(0.015625)"/>
       </defs>
       <use xlink:href="#ArialMT-30"/>
       <use xlink:href="#ArialMT-2e" x="55.615234"/>
       <use xlink:href="#ArialMT-30" x="83.398438"/>
       <use xlink:href="#ArialMT-30" x="139.013672"/>
      </g>
     </g>
    </g>
    <g id="ytick_2">
     <g id="line2d_7">
      <g>
       <use xlink:href="#mbab3113e01" x="52.13" y="181.78634" style="fill: #262626; stroke: #262626; stroke-width: 0.8"/>
      </g>
     </g>
     <g id="text_8">
      <!-- 0.05 -->
      <g style="fill: #262626" transform="translate(25.669063 185.365247) scale(0.1 -0.1)">
       <defs>
        <path id="ArialMT-35" d="M 266 1200 
L 856 1250 
Q 922 819 1161 601 
Q 1400 384 1738 384 
Q 2144 384 2425 690 
Q 2706 997 2706 1503 
Q 2706 1984 2436 2262 
Q 2166 2541 1728 2541 
Q 1456 2541 1237 2417 
Q 1019 2294 894 2097 
L 366 2166 
L 809 4519 
L 3088 4519 
L 3088 3981 
L 1259 3981 
L 1013 2750 
Q 1425 3038 1878 3038 
Q 2478 3038 2890 2622 
Q 3303 2206 3303 1553 
Q 3303 931 2941 478 
Q 2500 -78 1738 -78 
Q 1113 -78 717 272 
Q 322 622 266 1200 
z
" transform="scale(0.015625)"/>
       </defs>
       <use xlink:href="#ArialMT-30"/>
       <use xlink:href="#ArialMT-2e" x="55.615234"/>
       <use xlink:href="#ArialMT-30" x="83.398438"/>
       <use xlink:href="#ArialMT-35" x="139.013672"/>
      </g>
     </g>
    </g>
    <g id="ytick_3">
     <g id="line2d_8">
      <g>
       <use xlink:href="#mbab3113e01" x="52.13" y="158.648811" style="fill: #262626; stroke: #262626; stroke-width: 0.8"/>
      </g>
     </g>
     <g id="text_9">
      <!-- 0.10 -->
      <g style="fill: #262626" transform="translate(25.669063 162.227717) scale(0.1 -0.1)">
       <use xlink:href="#ArialMT-30"/>
       <use xlink:href="#ArialMT-2e" x="55.615234"/>
       <use xlink:href="#ArialMT-31" x="83.398438"/>
       <use xlink:href="#ArialMT-30" x="139.013672"/>
      </g>
     </g>
    </g>
    <g id="ytick_4">
     <g id="line2d_9">
      <g>
       <use xlink:href="#mbab3113e01" x="52.13" y="135.511282" style="fill: #262626; stroke: #262626; stroke-width: 0.8"/>
      </g>
     </g>
     <g id="text_10">
      <!-- 0.15 -->
      <g style="fill: #262626" transform="translate(25.669063 139.090188) scale(0.1 -0.1)">
       <use xlink:href="#ArialMT-30"/>
       <use xlink:href="#ArialMT-2e" x="55.615234"/>
       <use xlink:href="#ArialMT-31" x="83.398438"/>
       <use xlink:href="#ArialMT-35" x="139.013672"/>
      </g>
     </g>
    </g>
    <g id="ytick_5">
     <g id="line2d_10">
      <g>
       <use xlink:href="#mbab3113e01" x="52.13" y="112.373753" style="fill: #262626; stroke: #262626; stroke-width: 0.8"/>
      </g>
     </g>
     <g id="text_11">
      <!-- 0.20 -->
      <g style="fill: #262626" transform="translate(25.669063 115.952659) scale(0.1 -0.1)">
       <use xlink:href="#ArialMT-30"/>
       <use xlink:href="#ArialMT-2e" x="55.615234"/>
       <use xlink:href="#ArialMT-32" x="83.398438"/>
       <use xlink:href="#ArialMT-30" x="139.013672"/>
      </g>
     </g>
    </g>
    <g id="ytick_6">
     <g id="line2d_11">
      <g>
       <use xlink:href="#mbab3113e01" x="52.13" y="89.236224" style="fill: #262626; stroke: #262626; stroke-width: 0.8"/>
      </g>
     </g>
     <g id="text_12">
      <!-- 0.25 -->
      <g style="fill: #262626" transform="translate(25.669063 92.81513) scale(0.1 -0.1)">
       <use xlink:href="#ArialMT-30"/>
       <use xlink:href="#ArialMT-2e" x="55.615234"/>
       <use xlink:href="#ArialMT-32" x="83.398438"/>
       <use xlink:href="#ArialMT-35" x="139.013672"/>
      </g>
     </g>
    </g>
    <g id="ytick_7">
     <g id="line2d_12">
      <g>
       <use xlink:href="#mbab3113e01" x="52.13" y="66.098695" style="fill: #262626; stroke: #262626; stroke-width: 0.8"/>
      </g>
     </g>
     <g id="text_13">
      <!-- 0.30 -->
      <g style="fill: #262626" transform="translate(25.669063 69.677601) scale(0.1 -0.1)">
       <use xlink:href="#ArialMT-30"/>
       <use xlink:href="#ArialMT-2e" x="55.615234"/>
       <use xlink:href="#ArialMT-33" x="83.398438"/>
       <use xlink:href="#ArialMT-30" x="139.013672"/>
      </g>
     </g>
    </g>
    <g id="ytick_8">
     <g id="line2d_13">
      <g>
       <use xlink:href="#mbab3113e01" x="52.13" y="42.961166" style="fill: #262626; stroke: #262626; stroke-width: 0.8"/>
      </g>
     </g>
     <g id="text_14">
      <!-- 0.35 -->
      <g style="fill: #262626" transform="translate(25.669063 46.540072) scale(0.1 -0.1)">
       <use xlink:href="#ArialMT-30"/>
       <use xlink:href="#ArialMT-2e" x="55.615234"/>
       <use xlink:href="#ArialMT-33" x="83.398438"/>
       <use xlink:href="#ArialMT-35" x="139.013672"/>
      </g>
     </g>
    </g>
    <g id="ytick_9">
     <g id="line2d_14">
      <g>
       <use xlink:href="#mbab3113e01" x="52.13" y="19.823636" style="fill: #262626; stroke: #262626; stroke-width: 0.8"/>
      </g>
     </g>
     <g id="text_15">
      <!-- 0.40 -->
      <g style="fill: #262626" transform="translate(25.669063 23.402543) scale(0.1 -0.1)">
       <use xlink:href="#ArialMT-30"/>
       <use xlink:href="#ArialMT-2e" x="55.615234"/>
       <use xlink:href="#ArialMT-34" x="83.398438"/>
       <use xlink:href="#ArialMT-30" x="139.013672"/>
      </g>
     </g>
    </g>
    <g id="text_16">
     <!-- Flux (A.U.) -->
     <g style="fill: #262626" transform="translate(19.535313 135.330312) rotate(-90) scale(0.12 -0.12)">
      <defs>
       <path id="Calibri-46" d="M 2663 3813 
Q 2663 3753 2656 3709 
Q 2650 3666 2634 3639 
Q 2619 3613 2598 3600 
Q 2578 3588 2556 3588 
L 1075 3588 
L 1075 2213 
L 2475 2213 
Q 2497 2213 2517 2202 
Q 2538 2191 2553 2166 
Q 2569 2141 2575 2098 
Q 2581 2056 2581 1991 
Q 2581 1931 2575 1889 
Q 2569 1847 2553 1820 
Q 2538 1794 2517 1780 
Q 2497 1766 2475 1766 
L 1075 1766 
L 1075 81 
Q 1075 59 1062 39 
Q 1050 19 1019 8 
Q 988 -3 938 -11 
Q 888 -19 806 -19 
Q 731 -19 678 -11 
Q 625 -3 594 8 
Q 563 19 550 39 
Q 538 59 538 81 
L 538 3825 
Q 538 3947 602 3995 
Q 666 4044 738 4044 
L 2556 4044 
Q 2578 4044 2598 4031 
Q 2619 4019 2634 3991 
Q 2650 3963 2656 3917 
Q 2663 3872 2663 3813 
z
" transform="scale(0.015625)"/>
       <path id="Calibri-6c" d="M 994 78 
Q 994 53 981 36 
Q 969 19 941 6 
Q 913 -6 863 -12 
Q 813 -19 734 -19 
Q 659 -19 609 -12 
Q 559 -6 529 6 
Q 500 19 489 36 
Q 478 53 478 78 
L 478 4253 
Q 478 4278 489 4297 
Q 500 4316 529 4328 
Q 559 4341 609 4347 
Q 659 4353 734 4353 
Q 813 4353 863 4347 
Q 913 4341 941 4328 
Q 969 4316 981 4297 
Q 994 4278 994 4253 
L 994 78 
z
" transform="scale(0.015625)"/>
       <path id="Calibri-78" d="M 2609 138 
Q 2634 94 2634 64 
Q 2634 34 2604 15 
Q 2575 -3 2514 -11 
Q 2453 -19 2356 -19 
Q 2263 -19 2208 -14 
Q 2153 -9 2120 2 
Q 2088 13 2070 30 
Q 2053 47 2041 69 
L 1366 1184 
L 694 69 
Q 681 47 664 30 
Q 647 13 614 2 
Q 581 -9 528 -14 
Q 475 -19 388 -19 
Q 297 -19 239 -11 
Q 181 -3 154 15 
Q 128 34 129 64 
Q 131 94 159 138 
L 1034 1509 
L 206 2831 
Q 181 2875 179 2904 
Q 178 2934 208 2954 
Q 238 2975 298 2981 
Q 359 2988 459 2988 
Q 550 2988 604 2983 
Q 659 2978 690 2968 
Q 722 2959 737 2943 
Q 753 2928 766 2906 
L 1406 1859 
L 2056 2906 
Q 2069 2925 2084 2940 
Q 2100 2956 2126 2967 
Q 2153 2978 2201 2983 
Q 2250 2988 2334 2988 
Q 2425 2988 2483 2981 
Q 2541 2975 2569 2958 
Q 2597 2941 2594 2909 
Q 2591 2878 2563 2831 
L 1741 1525 
L 2609 138 
z
" transform="scale(0.015625)"/>
      </defs>
      <use xlink:href="#Calibri-46"/>
      <use xlink:href="#Calibri-6c" x="45.947266"/>
      <use xlink:href="#Calibri-75" x="68.896484"/>
      <use xlink:href="#Calibri-78" x="121.435547"/>
      <use xlink:href="#Calibri-20" x="164.746094"/>
      <use xlink:href="#Calibri-28" x="187.353516"/>
      <use xlink:href="#Calibri-41" x="217.675781"/>
      <use xlink:href="#Calibri-2e" x="276.162109"/>
      <use xlink:href="#Calibri-55" x="301.40625"/>
      <use xlink:href="#Calibri-2e" x="365.566406"/>
      <use xlink:href="#Calibri-29" x="390.810547"/>
     </g>
    </g>
   </g>
   <g id="line2d_15">
    <path d="M 66.2225 200.296364 
L 66.633859 200.122462 
L 67.096052 199.942036 
L 67.618771 199.754853 
L 68.214291 199.56059 
L 68.898467 199.359062 
L 69.692108 199.149945 
L 70.623025 198.932962 
L 71.729465 198.70788 
L 73.06521 198.474283 
L 74.708487 198.231894 
L 76.777714 197.980436 
L 79.461215 197.719537 
L 83.077161 197.448828 
L 88.209588 197.167892 
L 96.058756 196.876452 
L 109.545846 196.574044 
L 138.118946 196.260299 
L 239.052847 195.934754 
" clip-path="url(#pcbc102538c)" style="fill: none; stroke: #ffd967; stroke-width: 1.5; stroke-linecap: round"/>
   </g>
   <g id="line2d_16">
    <path d="M 61.089814 200.296364 
L 61.095025 200.122462 
L 61.100442 199.942036 
L 61.106074 199.754853 
L 61.111931 199.56059 
L 61.118021 199.359062 
L 61.124354 199.149945 
L 61.13094 198.932962 
L 61.137792 198.70788 
L 61.144918 198.474283 
L 61.152333 198.231894 
L 61.160047 197.980436 
L 61.168074 197.719537 
L 61.176428 197.448828 
L 61.185123 197.167892 
L 61.194173 196.876452 
L 61.203596 196.574044 
L 61.213406 196.260299 
L 61.223622 195.934754 
L 61.234262 195.596946 
L 61.245346 195.246459 
L 61.256892 194.88283 
L 61.268923 194.505503 
L 61.281461 194.11397 
L 61.294531 193.707767 
L 61.308156 193.286294 
L 61.322363 192.848995 
L 61.33718 192.395268 
L 61.352637 191.924465 
L 61.368764 191.435986 
L 61.385594 190.929135 
L 61.403163 190.403219 
L 61.421506 189.85759 
L 61.440664 189.291414 
L 61.460678 188.703999 
L 61.481593 188.09451 
L 61.503449 187.462069 
L 61.526306 186.805935 
L 61.550211 186.12509 
L 61.575227 185.418655 
L 61.601403 184.685704 
L 61.628811 183.92522 
L 61.65752 183.136138 
L 61.687604 182.317393 
L 61.719142 181.467922 
L 61.752213 180.586474 
L 61.786912 179.67194 
L 61.823338 178.723024 
L 61.861598 177.738476 
L 61.901802 176.716908 
L 61.944075 175.656931 
L 61.988551 174.557158 
L 62.035366 173.416062 
L 62.084682 172.232068 
L 62.13667 171.003604 
L 62.191513 169.728957 
L 62.24941 168.406416 
L 62.31058 167.034176 
L 62.375273 165.610385 
L 62.443738 164.133053 
L 62.51628 162.600238 
L 62.593211 161.009811 
L 62.674882 159.359642 
L 62.761694 157.647419 
L 62.854075 155.870919 
L 62.952519 154.027784 
L 63.057558 152.115236 
L 63.169803 150.130498 
L 63.28994 148.071721 
L 63.418736 145.935202 
L 63.557068 143.718626 
L 63.705929 141.418756 
L 63.866454 139.032351 
L 64.039952 136.556173 
L 64.227922 133.986982 
L 64.432116 131.321538 
L 64.654563 128.555678 
L 64.897659 125.686162 
L 65.164223 122.708362 
L 65.457622 119.619039 
L 65.781884 116.413566 
L 66.141893 113.087314 
L 66.543622 109.63612 
L 66.994437 106.055819 
L 67.503513 102.340395 
L 68.082597 98.485682 
L 68.746651 94.485666 
L 69.515269 90.335719 
L 70.414633 86.029825 
L 71.480406 81.561968 
L 72.762525 76.926596 
L 74.333106 72.116766 
L 76.30035 67.126001 
L 78.834246 61.947822 
L 82.218095 56.575288 
L 86.961973 51.000531 
L 94.085876 45.216612 
L 105.969776 39.2152 
L 129.753749 32.988428 
L 201.13817 26.527504 
" clip-path="url(#pcbc102538c)" style="fill: none; stroke: #ffa500; stroke-width: 1.5; stroke-linecap: round"/>
   </g>
   <g id="line2d_17">
    <path d="M 61.031088 200.296364 
L 61.034 200.122462 
L 61.037025 199.942036 
L 61.040166 199.754853 
L 61.043431 199.56059 
L 61.046822 199.359062 
L 61.050344 199.149945 
L 61.054004 198.932962 
L 61.057808 198.70788 
L 61.061759 198.474283 
L 61.065865 198.231894 
L 61.070133 197.980436 
L 61.074567 197.719537 
L 61.079176 197.448828 
L 61.083967 197.167892 
L 61.088946 196.876452 
L 61.094123 196.574044 
L 61.099505 196.260299 
L 61.105099 195.934754 
L 61.110917 195.596946 
L 61.116966 195.246459 
L 61.123257 194.88283 
L 61.1298 194.505503 
L 61.136605 194.11397 
L 61.143685 193.707767 
L 61.151049 193.286294 
L 61.158711 192.848995 
L 61.166684 192.395268 
L 61.174981 191.924465 
L 61.183617 191.435986 
L 61.192606 190.929135 
L 61.201964 190.403219 
L 61.211707 189.85759 
L 61.221852 189.291414 
L 61.232419 188.703999 
L 61.243425 188.09451 
L 61.254891 187.462069 
L 61.266838 186.805935 
L 61.279289 186.12509 
L 61.292266 185.418655 
L 61.305794 184.685704 
L 61.319901 183.92522 
L 61.334612 183.136138 
L 61.349957 182.317393 
L 61.365968 181.467922 
L 61.382676 180.586474 
L 61.400116 179.67194 
L 61.418325 178.723024 
L 61.437341 177.738476 
L 61.457206 176.716908 
L 61.477963 175.656931 
L 61.499656 174.557158 
L 61.522339 173.416062 
L 61.546065 172.232068 
L 61.570881 171.003604 
L 61.596857 169.728957 
L 61.624054 168.406416 
L 61.652537 167.034176 
L 61.682379 165.610385 
L 61.713664 164.133053 
L 61.746466 162.600238 
L 61.780886 161.009811 
L 61.817012 159.359642 
L 61.85495 157.647419 
L 61.894811 155.870919 
L 61.936722 154.027784 
L 61.980813 152.115236 
L 62.027216 150.130498 
L 62.076101 148.071721 
L 62.12762 145.935202 
L 62.181962 143.718626 
L 62.239323 141.418756 
L 62.299918 139.032351 
L 62.363989 136.556173 
L 62.431796 133.986982 
L 62.503622 131.321538 
L 62.579778 128.555678 
L 62.660617 125.686162 
L 62.746523 122.708362 
L 62.837924 119.619039 
L 62.935299 116.413566 
L 63.039174 113.087314 
L 63.150144 109.63612 
L 63.268885 106.055819 
L 63.396143 102.340395 
L 63.532789 98.485682 
L 63.67978 94.485666 
L 63.838229 90.335719 
L 64.009421 86.029825 
L 64.194809 81.561968 
L 64.3961 76.926596 
L 64.615281 72.116766 
L 64.854674 67.126001 
L 65.117019 61.947822 
L 65.405581 56.575288 
L 65.724265 51.000531 
L 66.0778 45.216612 
L 66.471928 39.2152 
L 66.913787 32.988428 
L 67.412223 26.527504 
L 67.978401 19.823636 
" clip-path="url(#pcbc102538c)" style="fill: none; stroke: #cd5c5c; stroke-width: 1.5; stroke-linecap: round"/>
   </g>
   <g id="patch_3">
    <path d="M 52.13 209.32 
L 52.13 10.8 
" style="fill: none; stroke: #262626; stroke-width: 0.8; stroke-linejoin: miter; stroke-linecap: square"/>
   </g>
   <g id="patch_4">
    <path d="M 271.665 209.32 
L 271.665 10.8 
" style="fill: none; stroke: #262626; stroke-width: 0.8; stroke-linejoin: miter; stroke-linecap: square"/>
   </g>
   <g id="patch_5">
    <path d="M 52.13 209.32 
L 271.665 209.32 
" style="fill: none; stroke: #262626; stroke-width: 0.8; stroke-linejoin: miter; stroke-linecap: square"/>
   </g>
   <g id="patch_6">
    <path d="M 52.13 10.8 
L 271.665 10.8 
" style="fill: none; stroke: #262626; stroke-width: 0.8; stroke-linejoin: miter; stroke-linecap: square"/>
   </g>
   <g id="legend_1">
    <g id="line2d_18">
     <path d="M 206.357344 22.192031 
L 215.357344 22.192031 
L 224.357344 22.192031 
" style="fill: none; stroke: #ffd967; stroke-width: 1.5; stroke-linecap: round"/>
    </g>
    <g id="text_17">
     <!-- low -->
     <g style="fill: #262626" transform="translate(231.557344 25.342031) scale(0.09 -0.09)">
      <defs>
       <path id="ArialMT-6c" d="M 409 0 
L 409 4581 
L 972 4581 
L 972 0 
L 409 0 
z
" transform="scale(0.015625)"/>
       <path id="ArialMT-6f" d="M 213 1659 
Q 213 2581 725 3025 
Q 1153 3394 1769 3394 
Q 2453 3394 2887 2945 
Q 3322 2497 3322 1706 
Q 3322 1066 3130 698 
Q 2938 331 2570 128 
Q 2203 -75 1769 -75 
Q 1072 -75 642 372 
Q 213 819 213 1659 
z
M 791 1659 
Q 791 1022 1069 705 
Q 1347 388 1769 388 
Q 2188 388 2466 706 
Q 2744 1025 2744 1678 
Q 2744 2294 2464 2611 
Q 2184 2928 1769 2928 
Q 1347 2928 1069 2612 
Q 791 2297 791 1659 
z
" transform="scale(0.015625)"/>
       <path id="ArialMT-77" d="M 1034 0 
L 19 3319 
L 600 3319 
L 1128 1403 
L 1325 691 
Q 1338 744 1497 1375 
L 2025 3319 
L 2603 3319 
L 3100 1394 
L 3266 759 
L 3456 1400 
L 4025 3319 
L 4572 3319 
L 3534 0 
L 2950 0 
L 2422 1988 
L 2294 2553 
L 1622 0 
L 1034 0 
z
" transform="scale(0.015625)"/>
      </defs>
      <use xlink:href="#ArialMT-6c"/>
      <use xlink:href="#ArialMT-6f" x="22.216797"/>
      <use xlink:href="#ArialMT-77" x="77.832031"/>
     </g>
    </g>
    <g id="line2d_19">
     <path d="M 206.357344 34.922812 
L 215.357344 34.922812 
L 224.357344 34.922812 
" style="fill: none; stroke: #ffa500; stroke-width: 1.5; stroke-linecap: round"/>
    </g>
    <g id="text_18">
     <!-- medium -->
     <g style="fill: #262626" transform="translate(231.557344 38.072812) scale(0.09 -0.09)">
      <defs>
       <path id="ArialMT-6d" d="M 422 0 
L 422 3319 
L 925 3319 
L 925 2853 
Q 1081 3097 1340 3245 
Q 1600 3394 1931 3394 
Q 2300 3394 2536 3241 
Q 2772 3088 2869 2813 
Q 3263 3394 3894 3394 
Q 4388 3394 4653 3120 
Q 4919 2847 4919 2278 
L 4919 0 
L 4359 0 
L 4359 2091 
Q 4359 2428 4304 2576 
Q 4250 2725 4106 2815 
Q 3963 2906 3769 2906 
Q 3419 2906 3187 2673 
Q 2956 2441 2956 1928 
L 2956 0 
L 2394 0 
L 2394 2156 
Q 2394 2531 2256 2718 
Q 2119 2906 1806 2906 
Q 1569 2906 1367 2781 
Q 1166 2656 1075 2415 
Q 984 2175 984 1722 
L 984 0 
L 422 0 
z
" transform="scale(0.015625)"/>
       <path id="ArialMT-65" d="M 2694 1069 
L 3275 997 
Q 3138 488 2766 206 
Q 2394 -75 1816 -75 
Q 1088 -75 661 373 
Q 234 822 234 1631 
Q 234 2469 665 2931 
Q 1097 3394 1784 3394 
Q 2450 3394 2872 2941 
Q 3294 2488 3294 1666 
Q 3294 1616 3291 1516 
L 816 1516 
Q 847 969 1125 678 
Q 1403 388 1819 388 
Q 2128 388 2347 550 
Q 2566 713 2694 1069 
z
M 847 1978 
L 2700 1978 
Q 2663 2397 2488 2606 
Q 2219 2931 1791 2931 
Q 1403 2931 1139 2672 
Q 875 2413 847 1978 
z
" transform="scale(0.015625)"/>
       <path id="ArialMT-64" d="M 2575 0 
L 2575 419 
Q 2259 -75 1647 -75 
Q 1250 -75 917 144 
Q 584 363 401 755 
Q 219 1147 219 1656 
Q 219 2153 384 2558 
Q 550 2963 881 3178 
Q 1213 3394 1622 3394 
Q 1922 3394 2156 3267 
Q 2391 3141 2538 2938 
L 2538 4581 
L 3097 4581 
L 3097 0 
L 2575 0 
z
M 797 1656 
Q 797 1019 1065 703 
Q 1334 388 1700 388 
Q 2069 388 2326 689 
Q 2584 991 2584 1609 
Q 2584 2291 2321 2609 
Q 2059 2928 1675 2928 
Q 1300 2928 1048 2622 
Q 797 2316 797 1656 
z
" transform="scale(0.015625)"/>
       <path id="ArialMT-69" d="M 425 3934 
L 425 4581 
L 988 4581 
L 988 3934 
L 425 3934 
z
M 425 0 
L 425 3319 
L 988 3319 
L 988 0 
L 425 0 
z
" transform="scale(0.015625)"/>
       <path id="ArialMT-75" d="M 2597 0 
L 2597 488 
Q 2209 -75 1544 -75 
Q 1250 -75 995 37 
Q 741 150 617 320 
Q 494 491 444 738 
Q 409 903 409 1263 
L 409 3319 
L 972 3319 
L 972 1478 
Q 972 1038 1006 884 
Q 1059 663 1231 536 
Q 1403 409 1656 409 
Q 1909 409 2131 539 
Q 2353 669 2445 892 
Q 2538 1116 2538 1541 
L 2538 3319 
L 3100 3319 
L 3100 0 
L 2597 0 
z
" transform="scale(0.015625)"/>
      </defs>
      <use xlink:href="#ArialMT-6d"/>
      <use xlink:href="#ArialMT-65" x="83.300781"/>
      <use xlink:href="#ArialMT-64" x="138.916016"/>
      <use xlink:href="#ArialMT-69" x="194.53125"/>
      <use xlink:href="#ArialMT-75" x="216.748047"/>
      <use xlink:href="#ArialMT-6d" x="272.363281"/>
     </g>
    </g>
    <g id="line2d_20">
     <path d="M 206.357344 47.653594 
L 215.357344 47.653594 
L 224.357344 47.653594 
" style="fill: none; stroke: #cd5c5c; stroke-width: 1.5; stroke-linecap: round"/>
    </g>
    <g id="text_19">
     <!-- high -->
     <g style="fill: #262626" transform="translate(231.557344 50.803594) scale(0.09 -0.09)">
      <defs>
       <path id="ArialMT-68" d="M 422 0 
L 422 4581 
L 984 4581 
L 984 2938 
Q 1378 3394 1978 3394 
Q 2347 3394 2619 3248 
Q 2891 3103 3008 2847 
Q 3125 2591 3125 2103 
L 3125 0 
L 2563 0 
L 2563 2103 
Q 2563 2525 2380 2717 
Q 2197 2909 1863 2909 
Q 1613 2909 1392 2779 
Q 1172 2650 1078 2428 
Q 984 2206 984 1816 
L 984 0 
L 422 0 
z
" transform="scale(0.015625)"/>
       <path id="ArialMT-67" d="M 319 -275 
L 866 -356 
Q 900 -609 1056 -725 
Q 1266 -881 1628 -881 
Q 2019 -881 2231 -725 
Q 2444 -569 2519 -288 
Q 2563 -116 2559 434 
Q 2191 0 1641 0 
Q 956 0 581 494 
Q 206 988 206 1678 
Q 206 2153 378 2554 
Q 550 2956 876 3175 
Q 1203 3394 1644 3394 
Q 2231 3394 2613 2919 
L 2613 3319 
L 3131 3319 
L 3131 450 
Q 3131 -325 2973 -648 
Q 2816 -972 2473 -1159 
Q 2131 -1347 1631 -1347 
Q 1038 -1347 672 -1080 
Q 306 -813 319 -275 
z
M 784 1719 
Q 784 1066 1043 766 
Q 1303 466 1694 466 
Q 2081 466 2343 764 
Q 2606 1063 2606 1700 
Q 2606 2309 2336 2618 
Q 2066 2928 1684 2928 
Q 1309 2928 1046 2623 
Q 784 2319 784 1719 
z
" transform="scale(0.015625)"/>
      </defs>
      <use xlink:href="#ArialMT-68"/>
      <use xlink:href="#ArialMT-69" x="55.615234"/>
      <use xlink:href="#ArialMT-67" x="77.832031"/>
      <use xlink:href="#ArialMT-68" x="133.447266"/>
     </g>
    </g>
   </g>
  </g>
 </g>
 <defs>
  <clipPath id="pcbc102538c">
   <rect x="52.13" y="10.8" width="219.535" height="198.52"/>
  </clipPath>
 </defs>
</svg>
