<?xml version="1.0" encoding="utf-8" standalone="no"?>
<!DOCTYPE svg PUBLIC "-//W3C//DTD SVG 1.1//EN"
  "http://www.w3.org/Graphics/SVG/1.1/DTD/svg11.dtd">
<svg xmlns:xlink="http://www.w3.org/1999/xlink" width="648pt" height="252pt" viewBox="0 0 648 252" xmlns="http://www.w3.org/2000/svg" version="1.1">
 <metadata>
  <rdf:RDF xmlns:dc="http://purl.org/dc/elements/1.1/" xmlns:cc="http://creativecommons.org/ns#" xmlns:rdf="http://www.w3.org/1999/02/22-rdf-syntax-ns#">
   <cc:Work>
    <dc:type rdf:resource="http://purl.org/dc/dcmitype/StillImage"/>
    <dc:date>2023-12-04T23:11:20.917227</dc:date>
    <dc:format>image/svg+xml</dc:format>
    <dc:creator>
     <cc:Agent>
      <dc:title>Matplotlib v3.8.1, https://matplotlib.org/</dc:title>
     </cc:Agent>
    </dc:creator>
   </cc:Work>
  </rdf:RDF>
 </metadata>
 <defs>
  <style type="text/css">*{stroke-linejoin: round; stroke-linecap: butt}</style>
 </defs>
 <g id="figure_1">
  <g id="patch_1">
   <path d="M 0 252 
L 648 252 
L 648 0 
L 0 0 
z
" style="fill: #ffffff"/>
  </g>
  <g id="axes_1">
   <g id="patch_2">
    <path d="M 50.87 210.04 
L 318.6 210.04 
L 318.6 14.76 
L 50.87 14.76 
z
" style="fill: #ffffff"/>
   </g>
   <g id="PolyCollection_1">
    <defs>
     <path id="m748f2882a4" d="M 63.039545 -50.836364 
L 63.039545 -50.836364 
L 64.2565 -54.777048 
L 65.473455 -58.54302 
L 66.690409 -62.151509 
L 67.907364 -65.602043 
L 69.124318 -68.908981 
L 70.341273 -72.082372 
L 71.558227 -75.141143 
L 72.775182 -78.06103 
L 73.992136 -80.864206 
L 75.209091 -83.550172 
L 76.426045 -86.158876 
L 77.643 -88.679391 
L 78.859955 -91.108702 
L 80.076909 -93.445758 
L 81.293864 -95.698651 
L 82.510818 -97.872879 
L 83.727773 -99.983898 
L 84.944727 -102.027615 
L 86.161682 -103.999421 
L 87.378636 -105.910317 
L 88.595591 -107.771646 
L 89.812545 -109.559044 
L 91.0295 -111.29104 
L 92.246455 -112.981019 
L 93.463409 -114.636927 
L 94.680364 -116.235265 
L 95.897318 -117.762049 
L 97.114273 -119.249337 
L 98.331227 -120.683209 
L 99.548182 -122.082348 
L 100.765136 -123.468198 
L 101.982091 -124.8242 
L 103.199045 -126.147793 
L 104.416 -127.412037 
L 105.632955 -128.646662 
L 106.849909 -129.874111 
L 108.066864 -131.064746 
L 109.283818 -132.179863 
L 110.500773 -133.306639 
L 111.717727 -134.406288 
L 112.934682 -135.477507 
L 114.151636 -136.523138 
L 115.368591 -137.487793 
L 116.585545 -138.478363 
L 117.8025 -139.436068 
L 119.019455 -140.365458 
L 120.236409 -141.287671 
L 121.453364 -142.193639 
L 122.670318 -143.073468 
L 123.887273 -143.961931 
L 125.104227 -144.819907 
L 126.321182 -145.629265 
L 127.538136 -146.40953 
L 128.755091 -147.205657 
L 129.972045 -147.924368 
L 131.189 -148.711839 
L 132.405955 -149.437487 
L 133.622909 -150.123942 
L 134.839864 -150.795707 
L 136.056818 -151.473193 
L 137.273773 -152.13648 
L 138.490727 -152.79915 
L 139.707682 -153.443794 
L 140.924636 -154.055542 
L 142.141591 -154.653031 
L 143.358545 -155.237567 
L 144.5755 -155.809832 
L 145.792455 -156.401836 
L 147.009409 -156.94154 
L 148.226364 -157.489027 
L 149.443318 -158.026087 
L 150.660273 -158.545121 
L 151.877227 -159.054796 
L 153.094182 -159.56078 
L 154.311136 -160.066144 
L 155.528091 -160.558532 
L 156.745045 -161.052419 
L 157.962 -161.536515 
L 159.178955 -162.014557 
L 160.395909 -162.477521 
L 161.612864 -162.938514 
L 162.829818 -163.391562 
L 164.046773 -163.836463 
L 165.263727 -164.278863 
L 166.480682 -164.685066 
L 167.697636 -165.120669 
L 168.914591 -165.514943 
L 170.131545 -165.897426 
L 171.3485 -166.289786 
L 172.565455 -166.665526 
L 173.782409 -167.031461 
L 174.999364 -167.366577 
L 176.216318 -167.71781 
L 177.433273 -168.04065 
L 178.650227 -168.374459 
L 179.867182 -168.72656 
L 181.084136 -169.056248 
L 182.301091 -169.376875 
L 183.518045 -169.690473 
L 184.735 -170.003362 
L 185.951955 -170.317484 
L 187.168909 -170.622232 
L 188.385864 -170.936632 
L 189.602818 -171.245281 
L 190.819773 -171.521922 
L 192.036727 -171.793021 
L 193.253682 -172.061311 
L 194.470636 -172.325793 
L 195.687591 -172.595551 
L 196.904545 -172.914653 
L 198.1215 -173.186784 
L 199.338455 -173.448669 
L 200.555409 -173.707012 
L 201.772364 -173.961886 
L 202.989318 -174.213359 
L 204.206273 -174.446328 
L 205.423227 -174.687744 
L 206.640182 -174.939386 
L 207.857136 -175.189515 
L 209.074091 -175.425274 
L 210.291045 -175.656947 
L 211.508 -175.88692 
L 212.724955 -176.114588 
L 213.941909 -176.334988 
L 215.158864 -176.547724 
L 216.375818 -176.776877 
L 217.592773 -176.992185 
L 218.809727 -177.19889 
L 220.026682 -177.401509 
L 221.243636 -177.593265 
L 222.460591 -177.772924 
L 223.677545 -177.967905 
L 224.8945 -178.166806 
L 226.111455 -178.372135 
L 227.328409 -178.569278 
L 228.545364 -178.755439 
L 229.762318 -178.926417 
L 230.979273 -179.089723 
L 232.196227 -179.262623 
L 233.413182 -179.44721 
L 234.630136 -179.629981 
L 235.847091 -179.80873 
L 237.064045 -179.987707 
L 238.281 -180.163662 
L 239.497955 -180.338002 
L 240.714909 -180.508417 
L 241.931864 -180.674103 
L 243.148818 -180.851137 
L 244.365773 -181.017752 
L 245.582727 -181.182564 
L 246.799682 -181.345603 
L 248.016636 -181.506897 
L 249.233591 -181.663998 
L 250.450545 -181.805821 
L 251.6675 -181.946274 
L 252.884455 -182.088582 
L 254.101409 -182.24488 
L 255.318364 -182.399986 
L 256.535318 -182.553549 
L 257.752273 -182.699675 
L 258.969227 -182.844583 
L 260.186182 -182.981456 
L 261.403136 -183.119694 
L 262.620091 -183.257046 
L 263.837045 -183.393103 
L 265.054 -183.527796 
L 266.270955 -183.661145 
L 267.487909 -183.794963 
L 268.704864 -183.928823 
L 269.921818 -184.063723 
L 271.138773 -184.192541 
L 272.355727 -184.323012 
L 273.572682 -184.451542 
L 274.789636 -184.579427 
L 276.006591 -184.712609 
L 277.223545 -184.854529 
L 278.4405 -184.995536 
L 279.657455 -185.111285 
L 280.874409 -185.229948 
L 282.091364 -185.358792 
L 283.308318 -185.486653 
L 284.525273 -185.613763 
L 285.742227 -185.739721 
L 286.959182 -185.864239 
L 288.176136 -185.972678 
L 289.393091 -186.080123 
L 290.610045 -186.186587 
L 291.827 -186.292083 
L 293.043955 -186.396625 
L 294.260909 -186.500226 
L 295.477864 -186.602898 
L 296.694818 -186.704653 
L 297.911773 -186.805224 
L 299.128727 -186.905487 
L 300.345682 -187.003785 
L 301.562636 -187.102068 
L 302.779591 -187.198891 
L 303.996545 -187.294871 
L 305.2135 -187.390563 
L 305.2135 -196.43524 
L 305.2135 -196.43524 
L 303.996545 -196.317298 
L 302.779591 -196.198351 
L 301.562636 -196.071836 
L 300.345682 -195.938079 
L 299.128727 -195.803108 
L 297.911773 -195.666335 
L 296.694818 -195.528391 
L 295.477864 -195.384715 
L 294.260909 -195.248499 
L 293.043955 -195.108768 
L 291.827 -194.966798 
L 290.610045 -194.823593 
L 289.393091 -194.679137 
L 288.176136 -194.535627 
L 286.959182 -194.407563 
L 285.742227 -194.278331 
L 284.525273 -194.143444 
L 283.308318 -193.988631 
L 282.091364 -193.832335 
L 280.874409 -193.674639 
L 279.657455 -193.53315 
L 278.4405 -193.392292 
L 277.223545 -193.229386 
L 276.006591 -193.058188 
L 274.789636 -192.884769 
L 273.572682 -192.709776 
L 272.355727 -192.544776 
L 271.138773 -192.392203 
L 269.921818 -192.23817 
L 268.704864 -192.082654 
L 267.487909 -191.925635 
L 266.270955 -191.767091 
L 265.054 -191.596461 
L 263.837045 -191.436777 
L 262.620091 -191.275515 
L 261.403136 -191.112651 
L 260.186182 -190.94816 
L 258.969227 -190.782018 
L 257.752273 -190.614201 
L 256.535318 -190.444682 
L 255.318364 -190.273436 
L 254.101409 -190.093625 
L 252.884455 -189.902668 
L 251.6675 -189.721352 
L 250.450545 -189.534805 
L 249.233591 -189.345536 
L 248.016636 -189.159581 
L 246.799682 -188.975406 
L 245.582727 -188.785128 
L 244.365773 -188.569513 
L 243.148818 -188.386556 
L 241.931864 -188.201605 
L 240.714909 -188.014374 
L 239.497955 -187.796024 
L 238.281 -187.570807 
L 237.064045 -187.343114 
L 235.847091 -187.132842 
L 234.630136 -186.932108 
L 233.413182 -186.727485 
L 232.196227 -186.498996 
L 230.979273 -186.267659 
L 229.762318 -186.03375 
L 228.545364 -185.818292 
L 227.328409 -185.614557 
L 226.111455 -185.415873 
L 224.8945 -185.186253 
L 223.677545 -184.93645 
L 222.460591 -184.709107 
L 221.243636 -184.48052 
L 220.026682 -184.247089 
L 218.809727 -184.005103 
L 217.592773 -183.780116 
L 216.375818 -183.544829 
L 215.158864 -183.293939 
L 213.941909 -183.036306 
L 212.724955 -182.800108 
L 211.508 -182.560901 
L 210.291045 -182.296823 
L 209.074091 -182.013832 
L 207.857136 -181.753294 
L 206.640182 -181.49614 
L 205.423227 -181.231646 
L 204.206273 -180.954717 
L 202.989318 -180.68114 
L 201.772364 -180.404557 
L 200.555409 -180.124286 
L 199.338455 -179.840155 
L 198.1215 -179.551461 
L 196.904545 -179.258843 
L 195.687591 -178.958051 
L 194.470636 -178.652842 
L 193.253682 -178.351797 
L 192.036727 -178.021751 
L 190.819773 -177.712445 
L 189.602818 -177.378875 
L 188.385864 -177.040627 
L 187.168909 -176.697605 
L 185.951955 -176.355301 
L 184.735 -176.009 
L 183.518045 -175.657337 
L 182.301091 -175.295221 
L 181.084136 -174.960302 
L 179.867182 -174.609547 
L 178.650227 -174.238859 
L 177.433273 -173.861939 
L 176.216318 -173.475231 
L 174.999364 -173.083134 
L 173.782409 -172.657562 
L 172.565455 -172.249846 
L 171.3485 -171.846609 
L 170.131545 -171.444473 
L 168.914591 -171.035849 
L 167.697636 -170.632423 
L 166.480682 -170.199651 
L 165.263727 -169.770389 
L 164.046773 -169.311799 
L 162.829818 -168.856874 
L 161.612864 -168.403463 
L 160.395909 -167.958898 
L 159.178955 -167.525044 
L 157.962 -167.056449 
L 156.745045 -166.560791 
L 155.528091 -166.059914 
L 154.311136 -165.585006 
L 153.094182 -165.121406 
L 151.877227 -164.60686 
L 150.660273 -164.095953 
L 149.443318 -163.596531 
L 148.226364 -163.071249 
L 147.009409 -162.536668 
L 145.792455 -161.965969 
L 144.5755 -161.376468 
L 143.358545 -160.7906 
L 142.141591 -160.189631 
L 140.924636 -159.57337 
L 139.707682 -158.96467 
L 138.490727 -158.367918 
L 137.273773 -157.717597 
L 136.056818 -157.109553 
L 134.839864 -156.427606 
L 133.622909 -155.73053 
L 132.405955 -155.021416 
L 131.189 -154.305392 
L 129.972045 -153.603263 
L 128.755091 -152.89306 
L 127.538136 -152.177049 
L 126.321182 -151.442131 
L 125.104227 -150.691781 
L 123.887273 -149.907029 
L 122.670318 -149.126862 
L 121.453364 -148.287935 
L 120.236409 -147.444216 
L 119.019455 -146.576342 
L 117.8025 -145.687007 
L 116.585545 -144.791225 
L 115.368591 -143.871488 
L 114.151636 -142.90133 
L 112.934682 -141.928409 
L 111.717727 -140.948443 
L 110.500773 -139.919917 
L 109.283818 -138.884427 
L 108.066864 -137.756756 
L 106.849909 -136.644414 
L 105.632955 -135.495316 
L 104.416 -134.355032 
L 103.199045 -133.137126 
L 101.982091 -131.880177 
L 100.765136 -130.593603 
L 99.548182 -129.234513 
L 98.331227 -127.845069 
L 97.114273 -126.398248 
L 95.897318 -124.913001 
L 94.680364 -123.421798 
L 93.463409 -121.85953 
L 92.246455 -120.276129 
L 91.0295 -118.620895 
L 89.812545 -116.899736 
L 88.595591 -115.076797 
L 87.378636 -113.16702 
L 86.161682 -111.171877 
L 84.944727 -109.164489 
L 83.727773 -107.033307 
L 82.510818 -104.835358 
L 81.293864 -102.543993 
L 80.076909 -100.156853 
L 78.859955 -97.661969 
L 77.643 -95.039405 
L 76.426045 -92.302015 
L 75.209091 -89.442281 
L 73.992136 -86.441834 
L 72.775182 -83.296155 
L 71.558227 -79.976329 
L 70.341273 -76.479186 
L 69.124318 -72.788919 
L 67.907364 -68.881135 
L 66.690409 -64.766244 
L 65.473455 -60.402846 
L 64.2565 -55.766705 
L 63.039545 -50.836364 
z
" style="stroke: #ef553b; stroke-opacity: 0.3"/>
    </defs>
    <g clip-path="url(#pb3d4255438)">
     <use xlink:href="#m748f2882a4" x="0" y="252" style="fill: #ef553b; fill-opacity: 0.3; stroke: #ef553b; stroke-opacity: 0.3"/>
    </g>
   </g>
   <g id="matplotlib.axis_1">
    <g id="xtick_1">
     <g id="line2d_1">
      <defs>
       <path id="m6dfccf353a" d="M 0 0 
L 0 3.5 
" style="stroke: #000000; stroke-width: 0.8"/>
      </defs>
      <g>
       <use xlink:href="#m6dfccf353a" x="63.039545" y="210.04" style="stroke: #000000; stroke-width: 0.8"/>
      </g>
     </g>
     <g id="text_1">
      <!-- 0 -->
      <g transform="translate(59.858295 224.638438) scale(0.1 -0.1)">
       <defs>
        <path id="DejaVuSans-30" d="M 2034 4250 
Q 1547 4250 1301 3770 
Q 1056 3291 1056 2328 
Q 1056 1369 1301 889 
Q 1547 409 2034 409 
Q 2525 409 2770 889 
Q 3016 1369 3016 2328 
Q 3016 3291 2770 3770 
Q 2525 4250 2034 4250 
z
M 2034 4750 
Q 2819 4750 3233 4129 
Q 3647 3509 3647 2328 
Q 3647 1150 3233 529 
Q 2819 -91 2034 -91 
Q 1250 -91 836 529 
Q 422 1150 422 2328 
Q 422 3509 836 4129 
Q 1250 4750 2034 4750 
z
" transform="scale(0.015625)"/>
       </defs>
       <use xlink:href="#DejaVuSans-30"/>
      </g>
     </g>
    </g>
    <g id="xtick_2">
     <g id="line2d_2">
      <g>
       <use xlink:href="#m6dfccf353a" x="122.509271" y="210.04" style="stroke: #000000; stroke-width: 0.8"/>
      </g>
     </g>
     <g id="text_2">
      <!-- 500 -->
      <g transform="translate(112.965521 224.638438) scale(0.1 -0.1)">
       <defs>
        <path id="DejaVuSans-35" d="M 691 4666 
L 3169 4666 
L 3169 4134 
L 1269 4134 
L 1269 2991 
Q 1406 3038 1543 3061 
Q 1681 3084 1819 3084 
Q 2600 3084 3056 2656 
Q 3513 2228 3513 1497 
Q 3513 744 3044 326 
Q 2575 -91 1722 -91 
Q 1428 -91 1123 -41 
Q 819 9 494 109 
L 494 744 
Q 775 591 1075 516 
Q 1375 441 1709 441 
Q 2250 441 2565 725 
Q 2881 1009 2881 1497 
Q 2881 1984 2565 2268 
Q 2250 2553 1709 2553 
Q 1456 2553 1204 2497 
Q 953 2441 691 2322 
L 691 4666 
z
" transform="scale(0.015625)"/>
       </defs>
       <use xlink:href="#DejaVuSans-35"/>
       <use xlink:href="#DejaVuSans-30" x="63.623047"/>
       <use xlink:href="#DejaVuSans-30" x="127.246094"/>
      </g>
     </g>
    </g>
    <g id="xtick_3">
     <g id="line2d_3">
      <g>
       <use xlink:href="#m6dfccf353a" x="181.978996" y="210.04" style="stroke: #000000; stroke-width: 0.8"/>
      </g>
     </g>
     <g id="text_3">
      <!-- 1000 -->
      <g transform="translate(169.253996 224.638438) scale(0.1 -0.1)">
       <defs>
        <path id="DejaVuSans-31" d="M 794 531 
L 1825 531 
L 1825 4091 
L 703 3866 
L 703 4441 
L 1819 4666 
L 2450 4666 
L 2450 531 
L 3481 531 
L 3481 0 
L 794 0 
L 794 531 
z
" transform="scale(0.015625)"/>
       </defs>
       <use xlink:href="#DejaVuSans-31"/>
       <use xlink:href="#DejaVuSans-30" x="63.623047"/>
       <use xlink:href="#DejaVuSans-30" x="127.246094"/>
       <use xlink:href="#DejaVuSans-30" x="190.869141"/>
      </g>
     </g>
    </g>
    <g id="xtick_4">
     <g id="line2d_4">
      <g>
       <use xlink:href="#m6dfccf353a" x="241.448721" y="210.04" style="stroke: #000000; stroke-width: 0.8"/>
      </g>
     </g>
     <g id="text_4">
      <!-- 1500 -->
      <g transform="translate(228.723721 224.638438) scale(0.1 -0.1)">
       <use xlink:href="#DejaVuSans-31"/>
       <use xlink:href="#DejaVuSans-35" x="63.623047"/>
       <use xlink:href="#DejaVuSans-30" x="127.246094"/>
       <use xlink:href="#DejaVuSans-30" x="190.869141"/>
      </g>
     </g>
    </g>
    <g id="xtick_5">
     <g id="line2d_5">
      <g>
       <use xlink:href="#m6dfccf353a" x="300.918446" y="210.04" style="stroke: #000000; stroke-width: 0.8"/>
      </g>
     </g>
     <g id="text_5">
      <!-- 2000 -->
      <g transform="translate(288.193446 224.638438) scale(0.1 -0.1)">
       <defs>
        <path id="DejaVuSans-32" d="M 1228 531 
L 3431 531 
L 3431 0 
L 469 0 
L 469 531 
Q 828 903 1448 1529 
Q 2069 2156 2228 2338 
Q 2531 2678 2651 2914 
Q 2772 3150 2772 3378 
Q 2772 3750 2511 3984 
Q 2250 4219 1831 4219 
Q 1534 4219 1204 4116 
Q 875 4013 500 3803 
L 500 4441 
Q 881 4594 1212 4672 
Q 1544 4750 1819 4750 
Q 2544 4750 2975 4387 
Q 3406 4025 3406 3419 
Q 3406 3131 3298 2873 
Q 3191 2616 2906 2266 
Q 2828 2175 2409 1742 
Q 1991 1309 1228 531 
z
" transform="scale(0.015625)"/>
       </defs>
       <use xlink:href="#DejaVuSans-32"/>
       <use xlink:href="#DejaVuSans-30" x="63.623047"/>
       <use xlink:href="#DejaVuSans-30" x="127.246094"/>
       <use xlink:href="#DejaVuSans-30" x="190.869141"/>
      </g>
     </g>
    </g>
    <g id="text_6">
     <!-- concentration -->
     <g transform="translate(150.106094 238.316563) scale(0.1 -0.1)">
      <defs>
       <path id="DejaVuSans-63" d="M 3122 3366 
L 3122 2828 
Q 2878 2963 2633 3030 
Q 2388 3097 2138 3097 
Q 1578 3097 1268 2742 
Q 959 2388 959 1747 
Q 959 1106 1268 751 
Q 1578 397 2138 397 
Q 2388 397 2633 464 
Q 2878 531 3122 666 
L 3122 134 
Q 2881 22 2623 -34 
Q 2366 -91 2075 -91 
Q 1284 -91 818 406 
Q 353 903 353 1747 
Q 353 2603 823 3093 
Q 1294 3584 2113 3584 
Q 2378 3584 2631 3529 
Q 2884 3475 3122 3366 
z
" transform="scale(0.015625)"/>
       <path id="DejaVuSans-6f" d="M 1959 3097 
Q 1497 3097 1228 2736 
Q 959 2375 959 1747 
Q 959 1119 1226 758 
Q 1494 397 1959 397 
Q 2419 397 2687 759 
Q 2956 1122 2956 1747 
Q 2956 2369 2687 2733 
Q 2419 3097 1959 3097 
z
M 1959 3584 
Q 2709 3584 3137 3096 
Q 3566 2609 3566 1747 
Q 3566 888 3137 398 
Q 2709 -91 1959 -91 
Q 1206 -91 779 398 
Q 353 888 353 1747 
Q 353 2609 779 3096 
Q 1206 3584 1959 3584 
z
" transform="scale(0.015625)"/>
       <path id="DejaVuSans-6e" d="M 3513 2113 
L 3513 0 
L 2938 0 
L 2938 2094 
Q 2938 2591 2744 2837 
Q 2550 3084 2163 3084 
Q 1697 3084 1428 2787 
Q 1159 2491 1159 1978 
L 1159 0 
L 581 0 
L 581 3500 
L 1159 3500 
L 1159 2956 
Q 1366 3272 1645 3428 
Q 1925 3584 2291 3584 
Q 2894 3584 3203 3211 
Q 3513 2838 3513 2113 
z
" transform="scale(0.015625)"/>
       <path id="DejaVuSans-65" d="M 3597 1894 
L 3597 1613 
L 953 1613 
Q 991 1019 1311 708 
Q 1631 397 2203 397 
Q 2534 397 2845 478 
Q 3156 559 3463 722 
L 3463 178 
Q 3153 47 2828 -22 
Q 2503 -91 2169 -91 
Q 1331 -91 842 396 
Q 353 884 353 1716 
Q 353 2575 817 3079 
Q 1281 3584 2069 3584 
Q 2775 3584 3186 3129 
Q 3597 2675 3597 1894 
z
M 3022 2063 
Q 3016 2534 2758 2815 
Q 2500 3097 2075 3097 
Q 1594 3097 1305 2825 
Q 1016 2553 972 2059 
L 3022 2063 
z
" transform="scale(0.015625)"/>
       <path id="DejaVuSans-74" d="M 1172 4494 
L 1172 3500 
L 2356 3500 
L 2356 3053 
L 1172 3053 
L 1172 1153 
Q 1172 725 1289 603 
Q 1406 481 1766 481 
L 2356 481 
L 2356 0 
L 1766 0 
Q 1100 0 847 248 
Q 594 497 594 1153 
L 594 3053 
L 172 3053 
L 172 3500 
L 594 3500 
L 594 4494 
L 1172 4494 
z
" transform="scale(0.015625)"/>
       <path id="DejaVuSans-72" d="M 2631 2963 
Q 2534 3019 2420 3045 
Q 2306 3072 2169 3072 
Q 1681 3072 1420 2755 
Q 1159 2438 1159 1844 
L 1159 0 
L 581 0 
L 581 3500 
L 1159 3500 
L 1159 2956 
Q 1341 3275 1631 3429 
Q 1922 3584 2338 3584 
Q 2397 3584 2469 3576 
Q 2541 3569 2628 3553 
L 2631 2963 
z
" transform="scale(0.015625)"/>
       <path id="DejaVuSans-61" d="M 2194 1759 
Q 1497 1759 1228 1600 
Q 959 1441 959 1056 
Q 959 750 1161 570 
Q 1363 391 1709 391 
Q 2188 391 2477 730 
Q 2766 1069 2766 1631 
L 2766 1759 
L 2194 1759 
z
M 3341 1997 
L 3341 0 
L 2766 0 
L 2766 531 
Q 2569 213 2275 61 
Q 1981 -91 1556 -91 
Q 1019 -91 701 211 
Q 384 513 384 1019 
Q 384 1609 779 1909 
Q 1175 2209 1959 2209 
L 2766 2209 
L 2766 2266 
Q 2766 2663 2505 2880 
Q 2244 3097 1772 3097 
Q 1472 3097 1187 3025 
Q 903 2953 641 2809 
L 641 3341 
Q 956 3463 1253 3523 
Q 1550 3584 1831 3584 
Q 2591 3584 2966 3190 
Q 3341 2797 3341 1997 
z
" transform="scale(0.015625)"/>
       <path id="DejaVuSans-69" d="M 603 3500 
L 1178 3500 
L 1178 0 
L 603 0 
L 603 3500 
z
M 603 4863 
L 1178 4863 
L 1178 4134 
L 603 4134 
L 603 4863 
z
" transform="scale(0.015625)"/>
      </defs>
      <use xlink:href="#DejaVuSans-63"/>
      <use xlink:href="#DejaVuSans-6f" x="54.980469"/>
      <use xlink:href="#DejaVuSans-6e" x="116.162109"/>
      <use xlink:href="#DejaVuSans-63" x="179.541016"/>
      <use xlink:href="#DejaVuSans-65" x="234.521484"/>
      <use xlink:href="#DejaVuSans-6e" x="296.044922"/>
      <use xlink:href="#DejaVuSans-74" x="359.423828"/>
      <use xlink:href="#DejaVuSans-72" x="398.632812"/>
      <use xlink:href="#DejaVuSans-61" x="439.746094"/>
      <use xlink:href="#DejaVuSans-74" x="501.025391"/>
      <use xlink:href="#DejaVuSans-69" x="540.234375"/>
      <use xlink:href="#DejaVuSans-6f" x="568.017578"/>
      <use xlink:href="#DejaVuSans-6e" x="629.199219"/>
     </g>
    </g>
   </g>
   <g id="matplotlib.axis_2">
    <g id="ytick_1">
     <g id="line2d_6">
      <defs>
       <path id="m4bc167341c" d="M 0 0 
L -3.5 0 
" style="stroke: #000000; stroke-width: 0.8"/>
      </defs>
      <g>
       <use xlink:href="#m4bc167341c" x="50.87" y="201.163636" style="stroke: #000000; stroke-width: 0.8"/>
      </g>
     </g>
     <g id="text_7">
      <!-- 0 -->
      <g transform="translate(37.5075 204.962855) scale(0.1 -0.1)">
       <use xlink:href="#DejaVuSans-30"/>
      </g>
     </g>
    </g>
    <g id="ytick_2">
     <g id="line2d_7">
      <g>
       <use xlink:href="#m4bc167341c" x="50.87" y="176.293191" style="stroke: #000000; stroke-width: 0.8"/>
      </g>
     </g>
     <g id="text_8">
      <!-- 25 -->
      <g transform="translate(31.145 180.09241) scale(0.1 -0.1)">
       <use xlink:href="#DejaVuSans-32"/>
       <use xlink:href="#DejaVuSans-35" x="63.623047"/>
      </g>
     </g>
    </g>
    <g id="ytick_3">
     <g id="line2d_8">
      <g>
       <use xlink:href="#m4bc167341c" x="50.87" y="151.422745" style="stroke: #000000; stroke-width: 0.8"/>
      </g>
     </g>
     <g id="text_9">
      <!-- 50 -->
      <g transform="translate(31.145 155.221964) scale(0.1 -0.1)">
       <use xlink:href="#DejaVuSans-35"/>
       <use xlink:href="#DejaVuSans-30" x="63.623047"/>
      </g>
     </g>
    </g>
    <g id="ytick_4">
     <g id="line2d_9">
      <g>
       <use xlink:href="#m4bc167341c" x="50.87" y="126.5523" style="stroke: #000000; stroke-width: 0.8"/>
      </g>
     </g>
     <g id="text_10">
      <!-- 75 -->
      <g transform="translate(31.145 130.351518) scale(0.1 -0.1)">
       <defs>
        <path id="DejaVuSans-37" d="M 525 4666 
L 3525 4666 
L 3525 4397 
L 1831 0 
L 1172 0 
L 2766 4134 
L 525 4134 
L 525 4666 
z
" transform="scale(0.015625)"/>
       </defs>
       <use xlink:href="#DejaVuSans-37"/>
       <use xlink:href="#DejaVuSans-35" x="63.623047"/>
      </g>
     </g>
    </g>
    <g id="ytick_5">
     <g id="line2d_10">
      <g>
       <use xlink:href="#m4bc167341c" x="50.87" y="101.681854" style="stroke: #000000; stroke-width: 0.8"/>
      </g>
     </g>
     <g id="text_11">
      <!-- 100 -->
      <g transform="translate(24.7825 105.481073) scale(0.1 -0.1)">
       <use xlink:href="#DejaVuSans-31"/>
       <use xlink:href="#DejaVuSans-30" x="63.623047"/>
       <use xlink:href="#DejaVuSans-30" x="127.246094"/>
      </g>
     </g>
    </g>
    <g id="ytick_6">
     <g id="line2d_11">
      <g>
       <use xlink:href="#m4bc167341c" x="50.87" y="76.811409" style="stroke: #000000; stroke-width: 0.8"/>
      </g>
     </g>
     <g id="text_12">
      <!-- 125 -->
      <g transform="translate(24.7825 80.610627) scale(0.1 -0.1)">
       <use xlink:href="#DejaVuSans-31"/>
       <use xlink:href="#DejaVuSans-32" x="63.623047"/>
       <use xlink:href="#DejaVuSans-35" x="127.246094"/>
      </g>
     </g>
    </g>
    <g id="ytick_7">
     <g id="line2d_12">
      <g>
       <use xlink:href="#m4bc167341c" x="50.87" y="51.940963" style="stroke: #000000; stroke-width: 0.8"/>
      </g>
     </g>
     <g id="text_13">
      <!-- 150 -->
      <g transform="translate(24.7825 55.740182) scale(0.1 -0.1)">
       <use xlink:href="#DejaVuSans-31"/>
       <use xlink:href="#DejaVuSans-35" x="63.623047"/>
       <use xlink:href="#DejaVuSans-30" x="127.246094"/>
      </g>
     </g>
    </g>
    <g id="ytick_8">
     <g id="line2d_13">
      <g>
       <use xlink:href="#m4bc167341c" x="50.87" y="27.070518" style="stroke: #000000; stroke-width: 0.8"/>
      </g>
     </g>
     <g id="text_14">
      <!-- 175 -->
      <g transform="translate(24.7825 30.869736) scale(0.1 -0.1)">
       <use xlink:href="#DejaVuSans-31"/>
       <use xlink:href="#DejaVuSans-37" x="63.623047"/>
       <use xlink:href="#DejaVuSans-35" x="127.246094"/>
      </g>
     </g>
    </g>
    <g id="text_15">
     <!-- flux -->
     <g transform="translate(18.702813 121.677344) rotate(-90) scale(0.1 -0.1)">
      <defs>
       <path id="DejaVuSans-66" d="M 2375 4863 
L 2375 4384 
L 1825 4384 
Q 1516 4384 1395 4259 
Q 1275 4134 1275 3809 
L 1275 3500 
L 2222 3500 
L 2222 3053 
L 1275 3053 
L 1275 0 
L 697 0 
L 697 3053 
L 147 3053 
L 147 3500 
L 697 3500 
L 697 3744 
Q 697 4328 969 4595 
Q 1241 4863 1831 4863 
L 2375 4863 
z
" transform="scale(0.015625)"/>
       <path id="DejaVuSans-6c" d="M 603 4863 
L 1178 4863 
L 1178 0 
L 603 0 
L 603 4863 
z
" transform="scale(0.015625)"/>
       <path id="DejaVuSans-75" d="M 544 1381 
L 544 3500 
L 1119 3500 
L 1119 1403 
Q 1119 906 1312 657 
Q 1506 409 1894 409 
Q 2359 409 2629 706 
Q 2900 1003 2900 1516 
L 2900 3500 
L 3475 3500 
L 3475 0 
L 2900 0 
L 2900 538 
Q 2691 219 2414 64 
Q 2138 -91 1772 -91 
Q 1169 -91 856 284 
Q 544 659 544 1381 
z
M 1991 3584 
L 1991 3584 
z
" transform="scale(0.015625)"/>
       <path id="DejaVuSans-78" d="M 3513 3500 
L 2247 1797 
L 3578 0 
L 2900 0 
L 1881 1375 
L 863 0 
L 184 0 
L 1544 1831 
L 300 3500 
L 978 3500 
L 1906 2253 
L 2834 3500 
L 3513 3500 
z
" transform="scale(0.015625)"/>
      </defs>
      <use xlink:href="#DejaVuSans-66"/>
      <use xlink:href="#DejaVuSans-6c" x="35.205078"/>
      <use xlink:href="#DejaVuSans-75" x="62.988281"/>
      <use xlink:href="#DejaVuSans-78" x="126.367188"/>
     </g>
    </g>
   </g>
   <g id="line2d_14">
    <defs>
     <path id="m6a83b4c8ff" d="M 0 2.5 
C 0.663008 2.5 1.29895 2.236584 1.767767 1.767767 
C 2.236584 1.29895 2.5 0.663008 2.5 0 
C 2.5 -0.663008 2.236584 -1.29895 1.767767 -1.767767 
C 1.29895 -2.236584 0.663008 -2.5 0 -2.5 
C -0.663008 -2.5 -1.29895 -2.236584 -1.767767 -1.767767 
C -2.236584 -1.29895 -2.5 -0.663008 -2.5 0 
C -2.5 0.663008 -2.236584 1.29895 -1.767767 1.767767 
C -1.29895 2.236584 -0.663008 2.5 0 2.5 
z
" style="stroke: #702963"/>
    </defs>
    <g clip-path="url(#pb3d4255438)">
     <use xlink:href="#m6a83b4c8ff" x="175.404681" y="77.013806" style="fill: #d8bfd8; stroke: #702963"/>
     <use xlink:href="#m6a83b4c8ff" x="175.204029" y="81.01754" style="fill: #d8bfd8; stroke: #702963"/>
     <use xlink:href="#m6a83b4c8ff" x="63.089708" y="199.911405" style="fill: #d8bfd8; stroke: #702963"/>
     <use xlink:href="#m6a83b4c8ff" x="63.190034" y="199.971035" style="fill: #d8bfd8; stroke: #702963"/>
     <use xlink:href="#m6a83b4c8ff" x="306.430455" y="23.636364" style="fill: #d8bfd8; stroke: #702963"/>
     <use xlink:href="#m6a83b4c8ff" x="271.165861" y="34.259037" style="fill: #d8bfd8; stroke: #702963"/>
     <use xlink:href="#m6a83b4c8ff" x="251.251147" y="66.382614" style="fill: #d8bfd8; stroke: #702963"/>
     <use xlink:href="#m6a83b4c8ff" x="239.813981" y="96.282841" style="fill: #d8bfd8; stroke: #702963"/>
     <use xlink:href="#m6a83b4c8ff" x="94.190773" y="98.829897" style="fill: #d8bfd8; stroke: #702963"/>
     <use xlink:href="#m6a83b4c8ff" x="99.006421" y="85.557945" style="fill: #d8bfd8; stroke: #702963"/>
     <use xlink:href="#m6a83b4c8ff" x="176.006637" y="63.239257" style="fill: #d8bfd8; stroke: #702963"/>
     <use xlink:href="#m6a83b4c8ff" x="169.234631" y="87.304254" style="fill: #d8bfd8; stroke: #702963"/>
     <use xlink:href="#m6a83b4c8ff" x="63.039545" y="199.161769" style="fill: #d8bfd8; stroke: #702963"/>
     <use xlink:href="#m6a83b4c8ff" x="63.039545" y="199.476957" style="fill: #d8bfd8; stroke: #702963"/>
     <use xlink:href="#m6a83b4c8ff" x="63.039545" y="199.664366" style="fill: #d8bfd8; stroke: #702963"/>
     <use xlink:href="#m6a83b4c8ff" x="180.220329" y="79.552343" style="fill: #d8bfd8; stroke: #702963"/>
     <use xlink:href="#m6a83b4c8ff" x="176.157126" y="62.73666" style="fill: #d8bfd8; stroke: #702963"/>
     <use xlink:href="#m6a83b4c8ff" x="165.020938" y="73.793781" style="fill: #d8bfd8; stroke: #702963"/>
     <use xlink:href="#m6a83b4c8ff" x="273.272707" y="65.547793" style="fill: #d8bfd8; stroke: #702963"/>
     <use xlink:href="#m6a83b4c8ff" x="276.583466" y="75.718981" style="fill: #d8bfd8; stroke: #702963"/>
     <use xlink:href="#m6a83b4c8ff" x="269.510482" y="62.165915" style="fill: #d8bfd8; stroke: #702963"/>
     <use xlink:href="#m6a83b4c8ff" x="171.491966" y="78.513076" style="fill: #d8bfd8; stroke: #702963"/>
     <use xlink:href="#m6a83b4c8ff" x="268.356732" y="30.025301" style="fill: #d8bfd8; stroke: #702963"/>
     <use xlink:href="#m6a83b4c8ff" x="254.461579" y="73.25711" style="fill: #d8bfd8; stroke: #702963"/>
     <use xlink:href="#m6a83b4c8ff" x="87.870234" y="147.113226" style="fill: #d8bfd8; stroke: #702963"/>
     <use xlink:href="#m6a83b4c8ff" x="87.268278" y="160.37666" style="fill: #d8bfd8; stroke: #702963"/>
     <use xlink:href="#m6a83b4c8ff" x="87.218115" y="153.246606" style="fill: #d8bfd8; stroke: #702963"/>
     <use xlink:href="#m6a83b4c8ff" x="96.949738" y="117.323741" style="fill: #d8bfd8; stroke: #702963"/>
     <use xlink:href="#m6a83b4c8ff" x="97.802509" y="108.472933" style="fill: #d8bfd8; stroke: #702963"/>
     <use xlink:href="#m6a83b4c8ff" x="100.611638" y="116.446327" style="fill: #d8bfd8; stroke: #702963"/>
     <use xlink:href="#m6a83b4c8ff" x="68.908617" y="185.229627" style="fill: #d8bfd8; stroke: #702963"/>
     <use xlink:href="#m6a83b4c8ff" x="69.008943" y="176.540672" style="fill: #d8bfd8; stroke: #702963"/>
     <use xlink:href="#m6a83b4c8ff" x="68.758128" y="186.000558" style="fill: #d8bfd8; stroke: #702963"/>
     <use xlink:href="#m6a83b4c8ff" x="94.792729" y="145.669326" style="fill: #d8bfd8; stroke: #702963"/>
     <use xlink:href="#m6a83b4c8ff" x="91.281318" y="142.70486" style="fill: #d8bfd8; stroke: #702963"/>
     <use xlink:href="#m6a83b4c8ff" x="90.779688" y="139.829838" style="fill: #d8bfd8; stroke: #702963"/>
     <use xlink:href="#m6a83b4c8ff" x="63.240197" y="199.068065" style="fill: #d8bfd8; stroke: #702963"/>
     <use xlink:href="#m6a83b4c8ff" x="63.390687" y="198.020279" style="fill: #d8bfd8; stroke: #702963"/>
     <use xlink:href="#m6a83b4c8ff" x="63.039545" y="198.544172" style="fill: #d8bfd8; stroke: #702963"/>
     <use xlink:href="#m6a83b4c8ff" x="253.80946" y="96.385064" style="fill: #d8bfd8; stroke: #702963"/>
     <use xlink:href="#m6a83b4c8ff" x="262.838802" y="92.193921" style="fill: #d8bfd8; stroke: #702963"/>
     <use xlink:href="#m6a83b4c8ff" x="270.212764" y="87.478885" style="fill: #d8bfd8; stroke: #702963"/>
     <use xlink:href="#m6a83b4c8ff" x="216.538346" y="62.506659" style="fill: #d8bfd8; stroke: #702963"/>
     <use xlink:href="#m6a83b4c8ff" x="218.695356" y="78.747337" style="fill: #d8bfd8; stroke: #702963"/>
     <use xlink:href="#m6a83b4c8ff" x="200.937651" y="80.842909" style="fill: #d8bfd8; stroke: #702963"/>
     <use xlink:href="#m6a83b4c8ff" x="108.788208" y="125.548433" style="fill: #d8bfd8; stroke: #702963"/>
     <use xlink:href="#m6a83b4c8ff" x="112.951737" y="116.118362" style="fill: #d8bfd8; stroke: #702963"/>
     <use xlink:href="#m6a83b4c8ff" x="151.075622" y="99.528421" style="fill: #d8bfd8; stroke: #702963"/>
     <use xlink:href="#m6a83b4c8ff" x="146.059322" y="101.623992" style="fill: #d8bfd8; stroke: #702963"/>
     <use xlink:href="#m6a83b4c8ff" x="156.091923" y="94.638754" style="fill: #d8bfd8; stroke: #702963"/>
     <use xlink:href="#m6a83b4c8ff" x="87.117789" y="155.061064" style="fill: #d8bfd8; stroke: #702963"/>
     <use xlink:href="#m6a83b4c8ff" x="87.067626" y="154.886433" style="fill: #d8bfd8; stroke: #702963"/>
     <use xlink:href="#m6a83b4c8ff" x="87.318441" y="154.537172" style="fill: #d8bfd8; stroke: #702963"/>
     <use xlink:href="#m6a83b4c8ff" x="98.304139" y="127.644005" style="fill: #d8bfd8; stroke: #702963"/>
     <use xlink:href="#m6a83b4c8ff" x="93.338002" y="128.342528" style="fill: #d8bfd8; stroke: #702963"/>
     <use xlink:href="#m6a83b4c8ff" x="92.786209" y="125.02454" style="fill: #d8bfd8; stroke: #702963"/>
     <use xlink:href="#m6a83b4c8ff" x="68.607639" y="178.810874" style="fill: #d8bfd8; stroke: #702963"/>
     <use xlink:href="#m6a83b4c8ff" x="68.306661" y="180.731815" style="fill: #d8bfd8; stroke: #702963"/>
     <use xlink:href="#m6a83b4c8ff" x="68.406987" y="179.334767" style="fill: #d8bfd8; stroke: #702963"/>
     <use xlink:href="#m6a83b4c8ff" x="90.829851" y="149.123612" style="fill: #d8bfd8; stroke: #702963"/>
     <use xlink:href="#m6a83b4c8ff" x="94.040284" y="142.662267" style="fill: #d8bfd8; stroke: #702963"/>
     <use xlink:href="#m6a83b4c8ff" x="91.231155" y="148.425088" style="fill: #d8bfd8; stroke: #702963"/>
    </g>
   </g>
   <g id="line2d_15">
    <path d="M 63.039545 201.163636 
L 65.473455 192.599551 
L 67.907364 184.868425 
L 70.341273 177.85437 
L 72.775182 171.462045 
L 75.209091 165.612292 
L 77.643 160.238844 
L 80.076909 155.285804 
L 82.510818 150.705691 
L 84.944727 146.457915 
L 88.595591 140.634341 
L 92.246455 135.382396 
L 95.897318 130.621853 
L 99.548182 126.286826 
L 103.199045 122.322705 
L 106.849909 118.683841 
L 110.500773 115.331779 
L 114.151636 112.233898 
L 119.019455 108.451219 
L 123.887273 105.015868 
L 128.755091 101.882109 
L 133.622909 99.011895 
L 138.490727 96.373323 
L 144.5755 93.360185 
L 150.660273 90.623161 
L 156.745045 88.125963 
L 164.046773 85.403728 
L 171.3485 82.940494 
L 178.650227 80.700977 
L 187.168909 78.332346 
L 195.687591 76.190648 
L 205.423227 73.981205 
L 215.158864 71.98981 
L 226.111455 69.972048 
L 238.281 67.965269 
L 251.6675 65.999095 
L 266.270955 64.095858 
L 282.091364 62.271418 
L 299.128727 60.536162 
L 305.2135 59.966295 
L 305.2135 59.966295 
" clip-path="url(#pb3d4255438)" style="fill: none; stroke: #ef553b; stroke-width: 1.5; stroke-linecap: square"/>
   </g>
   <g id="patch_3">
    <path d="M 50.87 210.04 
L 50.87 14.76 
" style="fill: none; stroke: #000000; stroke-width: 0.8; stroke-linejoin: miter; stroke-linecap: square"/>
   </g>
   <g id="patch_4">
    <path d="M 318.6 210.04 
L 318.6 14.76 
" style="fill: none; stroke: #000000; stroke-width: 0.8; stroke-linejoin: miter; stroke-linecap: square"/>
   </g>
   <g id="patch_5">
    <path d="M 50.87 210.04 
L 318.6 210.04 
" style="fill: none; stroke: #000000; stroke-width: 0.8; stroke-linejoin: miter; stroke-linecap: square"/>
   </g>
   <g id="patch_6">
    <path d="M 50.87 14.76 
L 318.6 14.76 
" style="fill: none; stroke: #000000; stroke-width: 0.8; stroke-linejoin: miter; stroke-linecap: square"/>
   </g>
   <g id="legend_1">
    <g id="patch_7">
     <path d="M 57.87 52.11625 
L 171.216875 52.11625 
Q 173.216875 52.11625 173.216875 50.11625 
L 173.216875 21.76 
Q 173.216875 19.76 171.216875 19.76 
L 57.87 19.76 
Q 55.87 19.76 55.87 21.76 
L 55.87 50.11625 
Q 55.87 52.11625 57.87 52.11625 
z
" style="fill: #ffffff; opacity: 0.8; stroke: #cccccc; stroke-linejoin: miter"/>
    </g>
    <g id="line2d_16">
     <g>
      <use xlink:href="#m6a83b4c8ff" x="69.87" y="27.858437" style="fill: #d8bfd8; stroke: #702963"/>
     </g>
    </g>
    <g id="text_16">
     <!-- data -->
     <g transform="translate(87.87 31.358437) scale(0.1 -0.1)">
      <defs>
       <path id="DejaVuSans-64" d="M 2906 2969 
L 2906 4863 
L 3481 4863 
L 3481 0 
L 2906 0 
L 2906 525 
Q 2725 213 2448 61 
Q 2172 -91 1784 -91 
Q 1150 -91 751 415 
Q 353 922 353 1747 
Q 353 2572 751 3078 
Q 1150 3584 1784 3584 
Q 2172 3584 2448 3432 
Q 2725 3281 2906 2969 
z
M 947 1747 
Q 947 1113 1208 752 
Q 1469 391 1925 391 
Q 2381 391 2643 752 
Q 2906 1113 2906 1747 
Q 2906 2381 2643 2742 
Q 2381 3103 1925 3103 
Q 1469 3103 1208 2742 
Q 947 2381 947 1747 
z
" transform="scale(0.015625)"/>
      </defs>
      <use xlink:href="#DejaVuSans-64"/>
      <use xlink:href="#DejaVuSans-61" x="63.476562"/>
      <use xlink:href="#DejaVuSans-74" x="124.755859"/>
      <use xlink:href="#DejaVuSans-61" x="163.964844"/>
     </g>
    </g>
    <g id="line2d_17">
     <path d="M 59.87 42.536562 
L 69.87 42.536562 
L 79.87 42.536562 
" style="fill: none; stroke: #ef553b; stroke-width: 1.5; stroke-linecap: square"/>
    </g>
    <g id="text_17">
     <!-- best fit (95% CI) -->
     <g transform="translate(87.87 46.036562) scale(0.1 -0.1)">
      <defs>
       <path id="DejaVuSans-62" d="M 3116 1747 
Q 3116 2381 2855 2742 
Q 2594 3103 2138 3103 
Q 1681 3103 1420 2742 
Q 1159 2381 1159 1747 
Q 1159 1113 1420 752 
Q 1681 391 2138 391 
Q 2594 391 2855 752 
Q 3116 1113 3116 1747 
z
M 1159 2969 
Q 1341 3281 1617 3432 
Q 1894 3584 2278 3584 
Q 2916 3584 3314 3078 
Q 3713 2572 3713 1747 
Q 3713 922 3314 415 
Q 2916 -91 2278 -91 
Q 1894 -91 1617 61 
Q 1341 213 1159 525 
L 1159 0 
L 581 0 
L 581 4863 
L 1159 4863 
L 1159 2969 
z
" transform="scale(0.015625)"/>
       <path id="DejaVuSans-73" d="M 2834 3397 
L 2834 2853 
Q 2591 2978 2328 3040 
Q 2066 3103 1784 3103 
Q 1356 3103 1142 2972 
Q 928 2841 928 2578 
Q 928 2378 1081 2264 
Q 1234 2150 1697 2047 
L 1894 2003 
Q 2506 1872 2764 1633 
Q 3022 1394 3022 966 
Q 3022 478 2636 193 
Q 2250 -91 1575 -91 
Q 1294 -91 989 -36 
Q 684 19 347 128 
L 347 722 
Q 666 556 975 473 
Q 1284 391 1588 391 
Q 1994 391 2212 530 
Q 2431 669 2431 922 
Q 2431 1156 2273 1281 
Q 2116 1406 1581 1522 
L 1381 1569 
Q 847 1681 609 1914 
Q 372 2147 372 2553 
Q 372 3047 722 3315 
Q 1072 3584 1716 3584 
Q 2034 3584 2315 3537 
Q 2597 3491 2834 3397 
z
" transform="scale(0.015625)"/>
       <path id="DejaVuSans-20" transform="scale(0.015625)"/>
       <path id="DejaVuSans-28" d="M 1984 4856 
Q 1566 4138 1362 3434 
Q 1159 2731 1159 2009 
Q 1159 1288 1364 580 
Q 1569 -128 1984 -844 
L 1484 -844 
Q 1016 -109 783 600 
Q 550 1309 550 2009 
Q 550 2706 781 3412 
Q 1013 4119 1484 4856 
L 1984 4856 
z
" transform="scale(0.015625)"/>
       <path id="DejaVuSans-39" d="M 703 97 
L 703 672 
Q 941 559 1184 500 
Q 1428 441 1663 441 
Q 2288 441 2617 861 
Q 2947 1281 2994 2138 
Q 2813 1869 2534 1725 
Q 2256 1581 1919 1581 
Q 1219 1581 811 2004 
Q 403 2428 403 3163 
Q 403 3881 828 4315 
Q 1253 4750 1959 4750 
Q 2769 4750 3195 4129 
Q 3622 3509 3622 2328 
Q 3622 1225 3098 567 
Q 2575 -91 1691 -91 
Q 1453 -91 1209 -44 
Q 966 3 703 97 
z
M 1959 2075 
Q 2384 2075 2632 2365 
Q 2881 2656 2881 3163 
Q 2881 3666 2632 3958 
Q 2384 4250 1959 4250 
Q 1534 4250 1286 3958 
Q 1038 3666 1038 3163 
Q 1038 2656 1286 2365 
Q 1534 2075 1959 2075 
z
" transform="scale(0.015625)"/>
       <path id="DejaVuSans-25" d="M 4653 2053 
Q 4381 2053 4226 1822 
Q 4072 1591 4072 1178 
Q 4072 772 4226 539 
Q 4381 306 4653 306 
Q 4919 306 5073 539 
Q 5228 772 5228 1178 
Q 5228 1588 5073 1820 
Q 4919 2053 4653 2053 
z
M 4653 2450 
Q 5147 2450 5437 2106 
Q 5728 1763 5728 1178 
Q 5728 594 5436 251 
Q 5144 -91 4653 -91 
Q 4153 -91 3862 251 
Q 3572 594 3572 1178 
Q 3572 1766 3864 2108 
Q 4156 2450 4653 2450 
z
M 1428 4353 
Q 1159 4353 1004 4120 
Q 850 3888 850 3481 
Q 850 3069 1003 2837 
Q 1156 2606 1428 2606 
Q 1700 2606 1854 2837 
Q 2009 3069 2009 3481 
Q 2009 3884 1853 4118 
Q 1697 4353 1428 4353 
z
M 4250 4750 
L 4750 4750 
L 1831 -91 
L 1331 -91 
L 4250 4750 
z
M 1428 4750 
Q 1922 4750 2215 4408 
Q 2509 4066 2509 3481 
Q 2509 2891 2217 2550 
Q 1925 2209 1428 2209 
Q 931 2209 642 2551 
Q 353 2894 353 3481 
Q 353 4063 643 4406 
Q 934 4750 1428 4750 
z
" transform="scale(0.015625)"/>
       <path id="DejaVuSans-43" d="M 4122 4306 
L 4122 3641 
Q 3803 3938 3442 4084 
Q 3081 4231 2675 4231 
Q 1875 4231 1450 3742 
Q 1025 3253 1025 2328 
Q 1025 1406 1450 917 
Q 1875 428 2675 428 
Q 3081 428 3442 575 
Q 3803 722 4122 1019 
L 4122 359 
Q 3791 134 3420 21 
Q 3050 -91 2638 -91 
Q 1578 -91 968 557 
Q 359 1206 359 2328 
Q 359 3453 968 4101 
Q 1578 4750 2638 4750 
Q 3056 4750 3426 4639 
Q 3797 4528 4122 4306 
z
" transform="scale(0.015625)"/>
       <path id="DejaVuSans-49" d="M 628 4666 
L 1259 4666 
L 1259 0 
L 628 0 
L 628 4666 
z
" transform="scale(0.015625)"/>
       <path id="DejaVuSans-29" d="M 513 4856 
L 1013 4856 
Q 1481 4119 1714 3412 
Q 1947 2706 1947 2009 
Q 1947 1309 1714 600 
Q 1481 -109 1013 -844 
L 513 -844 
Q 928 -128 1133 580 
Q 1338 1288 1338 2009 
Q 1338 2731 1133 3434 
Q 928 4138 513 4856 
z
" transform="scale(0.015625)"/>
      </defs>
      <use xlink:href="#DejaVuSans-62"/>
      <use xlink:href="#DejaVuSans-65" x="63.476562"/>
      <use xlink:href="#DejaVuSans-73" x="125"/>
      <use xlink:href="#DejaVuSans-74" x="177.099609"/>
      <use xlink:href="#DejaVuSans-20" x="216.308594"/>
      <use xlink:href="#DejaVuSans-66" x="248.095703"/>
      <use xlink:href="#DejaVuSans-69" x="283.300781"/>
      <use xlink:href="#DejaVuSans-74" x="311.083984"/>
      <use xlink:href="#DejaVuSans-20" x="350.292969"/>
      <use xlink:href="#DejaVuSans-28" x="382.080078"/>
      <use xlink:href="#DejaVuSans-39" x="421.09375"/>
      <use xlink:href="#DejaVuSans-35" x="484.716797"/>
      <use xlink:href="#DejaVuSans-25" x="548.339844"/>
      <use xlink:href="#DejaVuSans-20" x="643.359375"/>
      <use xlink:href="#DejaVuSans-43" x="675.146484"/>
      <use xlink:href="#DejaVuSans-49" x="744.970703"/>
      <use xlink:href="#DejaVuSans-29" x="774.462891"/>
     </g>
    </g>
   </g>
  </g>
  <g id="axes_2">
   <g id="patch_8">
    <path d="M 369.47 210.04 
L 583.654 210.04 
L 583.654 14.76 
L 369.47 14.76 
z
" style="fill: #ffffff"/>
   </g>
   <g id="QuadContourSet_1">
    <path clip-path="url(#p721fed04a8)" style="fill: #471365"/>
    <path d="M 474.376449 115.35356 
L 475.616651 114.392653 
L 474.376449 113.246364 
L 473.292553 114.392653 
z
M 478.747551 111.548635 
L 479.851357 110.407347 
L 478.747551 109.381961 
L 477.478634 110.407347 
z
" clip-path="url(#p721fed04a8)" style="fill: #463480"/>
    <path d="M 474.376449 116.381688 
L 476.943614 114.392653 
L 478.747551 112.754009 
L 481.017144 110.407347 
L 478.747551 108.298997 
L 476.138464 110.407347 
L 474.376449 112.019885 
L 472.13283 114.392653 
z
M 473.292553 114.392653 
L 474.376449 113.246364 
L 475.616651 114.392653 
L 474.376449 115.35356 
z
M 477.478634 110.407347 
L 478.747551 109.381961 
L 479.851357 110.407347 
L 478.747551 111.548635 
z
" clip-path="url(#p721fed04a8)" style="fill: #3b528b"/>
    <path d="M 470.005347 119.366475 
L 471.967333 118.377959 
L 474.376449 117.409817 
L 478.270577 114.392653 
L 478.747551 113.959384 
L 482.182932 110.407347 
L 483.118653 108.500763 
L 484.450352 106.422041 
L 483.118653 105.140909 
L 480.740194 106.422041 
L 478.747551 107.216032 
L 474.798294 110.407347 
L 474.376449 110.793405 
L 470.973108 114.392653 
L 470.005347 116.469415 
L 468.837613 118.377959 
z
M 472.13283 114.392653 
L 474.376449 112.019885 
L 476.138464 110.407347 
L 478.747551 108.298997 
L 481.017144 110.407347 
L 478.747551 112.754009 
L 476.943614 114.392653 
L 474.376449 116.381688 
z
" clip-path="url(#p721fed04a8)" style="fill: #2f6c8e"/>
    <path d="M 470.005347 120.655478 
L 474.376449 118.428115 
L 474.440927 118.377959 
L 478.747551 114.955247 
L 479.381812 114.392653 
L 483.118653 110.605394 
L 483.315197 110.407347 
L 485.972084 106.422041 
L 483.118653 103.67696 
L 478.747551 106.169757 
L 478.445564 106.422041 
L 474.376449 109.7694 
L 473.692527 110.407347 
L 470.005347 114.221746 
L 469.841797 114.392653 
L 467.314914 118.377959 
z
M 468.837613 118.377959 
L 470.005347 116.469415 
L 470.973108 114.392653 
L 474.376449 110.793405 
L 474.798294 110.407347 
L 478.747551 107.216032 
L 480.740194 106.422041 
L 483.118653 105.140909 
L 484.450352 106.422041 
L 483.118653 108.500763 
L 482.182932 110.407347 
L 478.747551 113.959384 
L 478.270577 114.392653 
L 474.376449 117.409817 
L 471.967333 118.377959 
L 470.005347 119.366475 
z
" clip-path="url(#p721fed04a8)" style="fill: #25848e"/>
    <path d="M 465.634245 123.170336 
L 468.377376 122.363265 
L 470.005347 121.94448 
L 474.376449 119.287757 
L 475.546043 118.377959 
L 478.747551 115.833544 
L 480.371991 114.392653 
L 483.118653 111.608932 
L 484.311123 110.407347 
L 487.489755 106.425371 
L 487.492634 106.422041 
L 489.0301 102.436735 
L 487.489755 100.872841 
L 483.118653 102.277792 
L 482.903249 102.436735 
L 478.747551 105.224289 
L 477.313826 106.422041 
L 474.376449 108.838403 
L 472.694436 110.407347 
L 470.005347 113.189218 
L 468.853715 114.392653 
L 465.792215 118.377959 
L 465.634245 119.012878 
L 464.616816 122.363265 
z
M 467.314914 118.377959 
L 469.841797 114.392653 
L 470.005347 114.221746 
L 473.692527 110.407347 
L 474.376449 109.7694 
L 478.445564 106.422041 
L 478.747551 106.169757 
L 483.118653 103.67696 
L 485.972084 106.422041 
L 483.315197 110.407347 
L 483.118653 110.605394 
L 479.381812 114.392653 
L 478.747551 114.955247 
L 474.440927 118.377959 
L 474.376449 118.428115 
L 470.005347 120.655478 
z
" clip-path="url(#p721fed04a8)" style="fill: #1e9c89"/>
    <path d="M 465.634245 124.644594 
L 470.005347 122.971697 
L 470.912564 122.363265 
L 474.376449 120.147399 
L 476.651158 118.377959 
L 478.747551 116.71184 
L 481.36217 114.392653 
L 483.118653 112.612471 
L 485.307049 110.407347 
L 487.489755 107.673 
L 488.571079 106.422041 
L 490.846399 102.436735 
L 487.489755 99.028774 
L 483.118653 101.237741 
L 481.493741 102.436735 
L 478.747551 104.27882 
L 476.182089 106.422041 
L 474.376449 107.907407 
L 471.696345 110.407347 
L 470.005347 112.15669 
L 467.865633 114.392653 
L 465.634245 117.245675 
L 464.686769 118.377959 
L 462.7583 122.363265 
z
M 464.616816 122.363265 
L 465.634245 119.012878 
L 465.792215 118.377959 
L 468.853715 114.392653 
L 470.005347 113.189218 
L 472.694436 110.407347 
L 474.376449 108.838403 
L 477.313826 106.422041 
L 478.747551 105.224289 
L 482.903249 102.436735 
L 483.118653 102.277792 
L 487.489755 100.872841 
L 489.0301 102.436735 
L 487.492634 106.422041 
L 487.489755 106.425371 
L 484.311123 110.407347 
L 483.118653 111.608932 
L 480.371991 114.392653 
L 478.747551 115.833544 
L 475.546043 118.377959 
L 474.376449 119.287757 
L 470.005347 121.94448 
L 468.377376 122.363265 
L 465.634245 123.170336 
z
" clip-path="url(#p721fed04a8)" style="fill: #2fb47c"/>
    <path d="M 461.263143 126.782843 
L 464.047988 126.348571 
L 465.634245 126.118853 
L 470.005347 123.872932 
L 472.256372 122.363265 
L 474.376449 121.00704 
L 477.756273 118.377959 
L 478.747551 117.590136 
L 482.352349 114.392653 
L 483.118653 113.616009 
L 486.302975 110.407347 
L 487.489755 108.920629 
L 489.649525 106.422041 
L 491.860857 103.142764 
L 492.387452 102.436735 
L 493.626183 98.451429 
L 491.860857 96.537042 
L 487.489755 97.640719 
L 486.220663 98.451429 
L 483.118653 100.19769 
L 480.084233 102.436735 
L 478.747551 103.333352 
L 475.050352 106.422041 
L 474.376449 106.976411 
L 470.698255 110.407347 
L 470.005347 111.124162 
L 466.877551 114.392653 
L 465.634245 115.982327 
L 463.629621 118.377959 
L 461.263143 122.043155 
L 461.035348 122.363265 
L 460.671866 126.348571 
z
M 462.7583 122.363265 
L 464.686769 118.377959 
L 465.634245 117.245675 
L 467.865633 114.392653 
L 470.005347 112.15669 
L 471.696345 110.407347 
L 474.376449 107.907407 
L 476.182089 106.422041 
L 478.747551 104.27882 
L 481.493741 102.436735 
L 483.118653 101.237741 
L 487.489755 99.028774 
L 490.846399 102.436735 
L 488.571079 106.422041 
L 487.489755 107.673 
L 485.307049 110.407347 
L 483.118653 112.612471 
L 481.36217 114.392653 
L 478.747551 116.71184 
L 476.651158 118.377959 
L 474.376449 120.147399 
L 470.912564 122.363265 
L 470.005347 122.971697 
L 465.634245 124.644594 
z
" clip-path="url(#p721fed04a8)" style="fill: #5ec962"/>
    <path d="M 461.263143 128.370338 
L 465.634245 127.160153 
L 467.058338 126.348571 
L 470.005347 124.774166 
L 473.600181 122.363265 
L 474.376449 121.866682 
L 478.747551 118.465282 
L 478.851803 118.377959 
L 483.118653 114.595499 
L 483.340375 114.392653 
L 487.298901 110.407347 
L 487.489755 110.168258 
L 490.72797 106.422041 
L 491.860857 104.742036 
L 493.580276 102.436735 
L 495.670215 98.451429 
L 493.832088 94.466122 
L 491.860857 94.377569 
L 491.69719 94.466122 
L 487.489755 96.460504 
L 484.373145 98.451429 
L 483.118653 99.157639 
L 478.747551 102.387102 
L 478.689124 102.436735 
L 474.376449 106.039842 
L 473.957291 106.422041 
L 470.005347 110.111569 
L 469.703076 110.407347 
L 465.889469 114.392653 
L 465.634245 114.718979 
L 462.572473 118.377959 
L 461.263143 120.405847 
L 459.870219 122.363265 
L 458.510433 126.348571 
z
M 460.671866 126.348571 
L 461.035348 122.363265 
L 461.263143 122.043155 
L 463.629621 118.377959 
L 465.634245 115.982327 
L 466.877551 114.392653 
L 470.005347 111.124162 
L 470.698255 110.407347 
L 474.376449 106.976411 
L 475.050352 106.422041 
L 478.747551 103.333352 
L 480.084233 102.436735 
L 483.118653 100.19769 
L 486.220663 98.451429 
L 487.489755 97.640719 
L 491.860857 96.537042 
L 493.626183 98.451429 
L 492.387452 102.436735 
L 491.860857 103.142764 
L 489.649525 106.422041 
L 487.489755 108.920629 
L 486.302975 110.407347 
L 483.118653 113.616009 
L 482.352349 114.392653 
L 478.747551 117.590136 
L 477.756273 118.377959 
L 474.376449 121.00704 
L 472.256372 122.363265 
L 470.005347 123.872932 
L 465.634245 126.118853 
L 464.047988 126.348571 
L 461.263143 126.782843 
z
" clip-path="url(#p721fed04a8)" style="fill: #9bd93c"/>
    <path d="M 456.892041 129.589343 
L 461.263143 129.957832 
L 465.634245 128.121537 
L 468.74529 126.348571 
L 470.005347 125.675401 
L 474.376449 122.714126 
L 474.835605 122.363265 
L 478.747551 119.312991 
L 479.863866 118.377959 
L 483.118653 115.492668 
L 484.321036 114.392653 
L 487.489755 111.204853 
L 488.28855 110.407347 
L 491.806416 106.422041 
L 491.860857 106.341308 
L 494.773099 102.436735 
L 496.231959 99.934871 
L 497.185176 98.451429 
L 498.271019 94.466122 
L 496.231959 92.085561 
L 491.860857 93.030418 
L 489.207356 94.466122 
L 487.489755 95.280289 
L 483.118653 98.127731 
L 482.708172 98.451429 
L 478.747551 101.426502 
L 477.558297 102.436735 
L 474.376449 105.095071 
L 472.92116 106.422041 
L 470.005347 109.144239 
L 468.714509 110.407347 
L 465.634245 113.626399 
L 464.907184 114.392653 
L 461.515325 118.377959 
L 461.263143 118.768539 
L 458.705089 122.363265 
L 456.892041 125.794566 
L 456.567767 126.348571 
z
M 458.510433 126.348571 
L 459.870219 122.363265 
L 461.263143 120.405847 
L 462.572473 118.377959 
L 465.634245 114.718979 
L 465.889469 114.392653 
L 469.703076 110.407347 
L 470.005347 110.111569 
L 473.957291 106.422041 
L 474.376449 106.039842 
L 478.689124 102.436735 
L 478.747551 102.387102 
L 483.118653 99.157639 
L 484.373145 98.451429 
L 487.489755 96.460504 
L 491.69719 94.466122 
L 491.860857 94.377569 
L 493.832088 94.466122 
L 495.670215 98.451429 
L 493.580276 102.436735 
L 491.860857 104.742036 
L 490.72797 106.422041 
L 487.489755 110.168258 
L 487.298901 110.407347 
L 483.340375 114.392653 
L 483.118653 114.595499 
L 478.851803 118.377959 
L 478.747551 118.465282 
L 474.376449 121.866682 
L 473.600181 122.363265 
L 470.005347 124.774166 
L 467.058338 126.348571 
L 465.634245 127.160153 
L 461.263143 128.370338 
z
" clip-path="url(#p721fed04a8)" style="fill: #dfe318"/>
   </g>
   <g id="matplotlib.axis_3">
    <g id="xtick_6">
     <g id="line2d_18">
      <g>
       <use xlink:href="#m6dfccf353a" x="395.353891" y="210.04" style="stroke: #000000; stroke-width: 0.8"/>
      </g>
     </g>
     <g id="text_18">
      <!-- 140 -->
      <g transform="translate(385.810141 224.638438) scale(0.1 -0.1)">
       <defs>
        <path id="DejaVuSans-34" d="M 2419 4116 
L 825 1625 
L 2419 1625 
L 2419 4116 
z
M 2253 4666 
L 3047 4666 
L 3047 1625 
L 3713 1625 
L 3713 1100 
L 3047 1100 
L 3047 0 
L 2419 0 
L 2419 1100 
L 313 1100 
L 313 1709 
L 2253 4666 
z
" transform="scale(0.015625)"/>
       </defs>
       <use xlink:href="#DejaVuSans-31"/>
       <use xlink:href="#DejaVuSans-34" x="63.623047"/>
       <use xlink:href="#DejaVuSans-30" x="127.246094"/>
      </g>
     </g>
    </g>
    <g id="xtick_7">
     <g id="line2d_19">
      <g>
       <use xlink:href="#m6dfccf353a" x="452.517903" y="210.04" style="stroke: #000000; stroke-width: 0.8"/>
      </g>
     </g>
     <g id="text_19">
      <!-- 160 -->
      <g transform="translate(442.974153 224.638438) scale(0.1 -0.1)">
       <defs>
        <path id="DejaVuSans-36" d="M 2113 2584 
Q 1688 2584 1439 2293 
Q 1191 2003 1191 1497 
Q 1191 994 1439 701 
Q 1688 409 2113 409 
Q 2538 409 2786 701 
Q 3034 994 3034 1497 
Q 3034 2003 2786 2293 
Q 2538 2584 2113 2584 
z
M 3366 4563 
L 3366 3988 
Q 3128 4100 2886 4159 
Q 2644 4219 2406 4219 
Q 1781 4219 1451 3797 
Q 1122 3375 1075 2522 
Q 1259 2794 1537 2939 
Q 1816 3084 2150 3084 
Q 2853 3084 3261 2657 
Q 3669 2231 3669 1497 
Q 3669 778 3244 343 
Q 2819 -91 2113 -91 
Q 1303 -91 875 529 
Q 447 1150 447 2328 
Q 447 3434 972 4092 
Q 1497 4750 2381 4750 
Q 2619 4750 2861 4703 
Q 3103 4656 3366 4563 
z
" transform="scale(0.015625)"/>
       </defs>
       <use xlink:href="#DejaVuSans-31"/>
       <use xlink:href="#DejaVuSans-36" x="63.623047"/>
       <use xlink:href="#DejaVuSans-30" x="127.246094"/>
      </g>
     </g>
    </g>
    <g id="xtick_8">
     <g id="line2d_20">
      <g>
       <use xlink:href="#m6dfccf353a" x="509.681915" y="210.04" style="stroke: #000000; stroke-width: 0.8"/>
      </g>
     </g>
     <g id="text_20">
      <!-- 180 -->
      <g transform="translate(500.138165 224.638438) scale(0.1 -0.1)">
       <defs>
        <path id="DejaVuSans-38" d="M 2034 2216 
Q 1584 2216 1326 1975 
Q 1069 1734 1069 1313 
Q 1069 891 1326 650 
Q 1584 409 2034 409 
Q 2484 409 2743 651 
Q 3003 894 3003 1313 
Q 3003 1734 2745 1975 
Q 2488 2216 2034 2216 
z
M 1403 2484 
Q 997 2584 770 2862 
Q 544 3141 544 3541 
Q 544 4100 942 4425 
Q 1341 4750 2034 4750 
Q 2731 4750 3128 4425 
Q 3525 4100 3525 3541 
Q 3525 3141 3298 2862 
Q 3072 2584 2669 2484 
Q 3125 2378 3379 2068 
Q 3634 1759 3634 1313 
Q 3634 634 3220 271 
Q 2806 -91 2034 -91 
Q 1263 -91 848 271 
Q 434 634 434 1313 
Q 434 1759 690 2068 
Q 947 2378 1403 2484 
z
M 1172 3481 
Q 1172 3119 1398 2916 
Q 1625 2713 2034 2713 
Q 2441 2713 2670 2916 
Q 2900 3119 2900 3481 
Q 2900 3844 2670 4047 
Q 2441 4250 2034 4250 
Q 1625 4250 1398 4047 
Q 1172 3844 1172 3481 
z
" transform="scale(0.015625)"/>
       </defs>
       <use xlink:href="#DejaVuSans-31"/>
       <use xlink:href="#DejaVuSans-38" x="63.623047"/>
       <use xlink:href="#DejaVuSans-30" x="127.246094"/>
      </g>
     </g>
    </g>
    <g id="xtick_9">
     <g id="line2d_21">
      <g>
       <use xlink:href="#m6dfccf353a" x="566.845927" y="210.04" style="stroke: #000000; stroke-width: 0.8"/>
      </g>
     </g>
     <g id="text_21">
      <!-- 200 -->
      <g transform="translate(557.302177 224.638438) scale(0.1 -0.1)">
       <use xlink:href="#DejaVuSans-32"/>
       <use xlink:href="#DejaVuSans-30" x="63.623047"/>
       <use xlink:href="#DejaVuSans-30" x="127.246094"/>
      </g>
     </g>
    </g>
    <g id="text_22">
     <!-- vmax -->
     <g transform="translate(462.708875 238.316563) scale(0.1 -0.1)">
      <defs>
       <path id="DejaVuSans-76" d="M 191 3500 
L 800 3500 
L 1894 563 
L 2988 3500 
L 3597 3500 
L 2284 0 
L 1503 0 
L 191 3500 
z
" transform="scale(0.015625)"/>
       <path id="DejaVuSans-6d" d="M 3328 2828 
Q 3544 3216 3844 3400 
Q 4144 3584 4550 3584 
Q 5097 3584 5394 3201 
Q 5691 2819 5691 2113 
L 5691 0 
L 5113 0 
L 5113 2094 
Q 5113 2597 4934 2840 
Q 4756 3084 4391 3084 
Q 3944 3084 3684 2787 
Q 3425 2491 3425 1978 
L 3425 0 
L 2847 0 
L 2847 2094 
Q 2847 2600 2669 2842 
Q 2491 3084 2119 3084 
Q 1678 3084 1418 2786 
Q 1159 2488 1159 1978 
L 1159 0 
L 581 0 
L 581 3500 
L 1159 3500 
L 1159 2956 
Q 1356 3278 1631 3431 
Q 1906 3584 2284 3584 
Q 2666 3584 2933 3390 
Q 3200 3197 3328 2828 
z
" transform="scale(0.015625)"/>
      </defs>
      <use xlink:href="#DejaVuSans-76"/>
      <use xlink:href="#DejaVuSans-6d" x="59.179688"/>
      <use xlink:href="#DejaVuSans-61" x="156.591797"/>
      <use xlink:href="#DejaVuSans-78" x="217.871094"/>
     </g>
    </g>
   </g>
   <g id="matplotlib.axis_4">
    <g id="ytick_9">
     <g id="line2d_22">
      <g>
       <use xlink:href="#m4bc167341c" x="369.47" y="182.821201" style="stroke: #000000; stroke-width: 0.8"/>
      </g>
     </g>
     <g id="text_23">
      <!-- 200 -->
      <g transform="translate(343.3825 186.62042) scale(0.1 -0.1)">
       <use xlink:href="#DejaVuSans-32"/>
       <use xlink:href="#DejaVuSans-30" x="63.623047"/>
       <use xlink:href="#DejaVuSans-30" x="127.246094"/>
      </g>
     </g>
    </g>
    <g id="ytick_10">
     <g id="line2d_23">
      <g>
       <use xlink:href="#m4bc167341c" x="369.47" y="143.668631" style="stroke: #000000; stroke-width: 0.8"/>
      </g>
     </g>
     <g id="text_24">
      <!-- 300 -->
      <g transform="translate(343.3825 147.467849) scale(0.1 -0.1)">
       <defs>
        <path id="DejaVuSans-33" d="M 2597 2516 
Q 3050 2419 3304 2112 
Q 3559 1806 3559 1356 
Q 3559 666 3084 287 
Q 2609 -91 1734 -91 
Q 1441 -91 1130 -33 
Q 819 25 488 141 
L 488 750 
Q 750 597 1062 519 
Q 1375 441 1716 441 
Q 2309 441 2620 675 
Q 2931 909 2931 1356 
Q 2931 1769 2642 2001 
Q 2353 2234 1838 2234 
L 1294 2234 
L 1294 2753 
L 1863 2753 
Q 2328 2753 2575 2939 
Q 2822 3125 2822 3475 
Q 2822 3834 2567 4026 
Q 2313 4219 1838 4219 
Q 1578 4219 1281 4162 
Q 984 4106 628 3988 
L 628 4550 
Q 988 4650 1302 4700 
Q 1616 4750 1894 4750 
Q 2613 4750 3031 4423 
Q 3450 4097 3450 3541 
Q 3450 3153 3228 2886 
Q 3006 2619 2597 2516 
z
" transform="scale(0.015625)"/>
       </defs>
       <use xlink:href="#DejaVuSans-33"/>
       <use xlink:href="#DejaVuSans-30" x="63.623047"/>
       <use xlink:href="#DejaVuSans-30" x="127.246094"/>
      </g>
     </g>
    </g>
    <g id="ytick_11">
     <g id="line2d_24">
      <g>
       <use xlink:href="#m4bc167341c" x="369.47" y="104.51606" style="stroke: #000000; stroke-width: 0.8"/>
      </g>
     </g>
     <g id="text_25">
      <!-- 400 -->
      <g transform="translate(343.3825 108.315278) scale(0.1 -0.1)">
       <use xlink:href="#DejaVuSans-34"/>
       <use xlink:href="#DejaVuSans-30" x="63.623047"/>
       <use xlink:href="#DejaVuSans-30" x="127.246094"/>
      </g>
     </g>
    </g>
    <g id="ytick_12">
     <g id="line2d_25">
      <g>
       <use xlink:href="#m4bc167341c" x="369.47" y="65.363489" style="stroke: #000000; stroke-width: 0.8"/>
      </g>
     </g>
     <g id="text_26">
      <!-- 500 -->
      <g transform="translate(343.3825 69.162708) scale(0.1 -0.1)">
       <use xlink:href="#DejaVuSans-35"/>
       <use xlink:href="#DejaVuSans-30" x="63.623047"/>
       <use xlink:href="#DejaVuSans-30" x="127.246094"/>
      </g>
     </g>
    </g>
    <g id="ytick_13">
     <g id="line2d_26">
      <g>
       <use xlink:href="#m4bc167341c" x="369.47" y="26.210918" style="stroke: #000000; stroke-width: 0.8"/>
      </g>
     </g>
     <g id="text_27">
      <!-- 600 -->
      <g transform="translate(343.3825 30.010137) scale(0.1 -0.1)">
       <use xlink:href="#DejaVuSans-36"/>
       <use xlink:href="#DejaVuSans-30" x="63.623047"/>
       <use xlink:href="#DejaVuSans-30" x="127.246094"/>
      </g>
     </g>
    </g>
    <g id="text_28">
     <!-- km -->
     <g transform="translate(337.302813 120.165625) rotate(-90) scale(0.1 -0.1)">
      <defs>
       <path id="DejaVuSans-6b" d="M 581 4863 
L 1159 4863 
L 1159 1991 
L 2875 3500 
L 3609 3500 
L 1753 1863 
L 3688 0 
L 2938 0 
L 1159 1709 
L 1159 0 
L 581 0 
L 581 4863 
z
" transform="scale(0.015625)"/>
      </defs>
      <use xlink:href="#DejaVuSans-6b"/>
      <use xlink:href="#DejaVuSans-6d" x="57.910156"/>
     </g>
    </g>
   </g>
   <g id="patch_9">
    <path d="M 369.47 210.04 
L 369.47 14.76 
" style="fill: none; stroke: #000000; stroke-width: 0.8; stroke-linejoin: miter; stroke-linecap: square"/>
   </g>
   <g id="patch_10">
    <path d="M 583.654 210.04 
L 583.654 14.76 
" style="fill: none; stroke: #000000; stroke-width: 0.8; stroke-linejoin: miter; stroke-linecap: square"/>
   </g>
   <g id="patch_11">
    <path d="M 369.47 210.04 
L 583.654 210.04 
" style="fill: none; stroke: #000000; stroke-width: 0.8; stroke-linejoin: miter; stroke-linecap: square"/>
   </g>
   <g id="patch_12">
    <path d="M 369.47 14.76 
L 583.654 14.76 
" style="fill: none; stroke: #000000; stroke-width: 0.8; stroke-linejoin: miter; stroke-linecap: square"/>
   </g>
  </g>
  <g id="axes_3">
   <g id="patch_13">
    <path d="M 597.0405 210.04 
L 606.8045 210.04 
L 606.8045 14.76 
L 597.0405 14.76 
z
" style="fill: #ffffff"/>
   </g>
   <g id="QuadMesh_1">
    <path d="M 597.0405 210.04 
L 606.8045 210.04 
L 606.8045 190.512 
L 597.0405 190.512 
L 597.0405 210.04 
" clip-path="url(#p07a01576b5)" style="fill: #471365"/>
    <path d="M 597.0405 190.512 
L 606.8045 190.512 
L 606.8045 170.984 
L 597.0405 170.984 
L 597.0405 190.512 
" clip-path="url(#p07a01576b5)" style="fill: #463480"/>
    <path d="M 597.0405 170.984 
L 606.8045 170.984 
L 606.8045 151.456 
L 597.0405 151.456 
L 597.0405 170.984 
" clip-path="url(#p07a01576b5)" style="fill: #3b528b"/>
    <path d="M 597.0405 151.456 
L 606.8045 151.456 
L 606.8045 131.928 
L 597.0405 131.928 
L 597.0405 151.456 
" clip-path="url(#p07a01576b5)" style="fill: #2f6c8e"/>
    <path d="M 597.0405 131.928 
L 606.8045 131.928 
L 606.8045 112.4 
L 597.0405 112.4 
L 597.0405 131.928 
" clip-path="url(#p07a01576b5)" style="fill: #25848e"/>
    <path d="M 597.0405 112.4 
L 606.8045 112.4 
L 606.8045 92.872 
L 597.0405 92.872 
L 597.0405 112.4 
" clip-path="url(#p07a01576b5)" style="fill: #1e9c89"/>
    <path d="M 597.0405 92.872 
L 606.8045 92.872 
L 606.8045 73.344 
L 597.0405 73.344 
L 597.0405 92.872 
" clip-path="url(#p07a01576b5)" style="fill: #2fb47c"/>
    <path d="M 597.0405 73.344 
L 606.8045 73.344 
L 606.8045 53.816 
L 597.0405 53.816 
L 597.0405 73.344 
" clip-path="url(#p07a01576b5)" style="fill: #5ec962"/>
    <path d="M 597.0405 53.816 
L 606.8045 53.816 
L 606.8045 34.288 
L 597.0405 34.288 
L 597.0405 53.816 
" clip-path="url(#p07a01576b5)" style="fill: #9bd93c"/>
    <path d="M 597.0405 34.288 
L 606.8045 34.288 
L 606.8045 14.76 
L 597.0405 14.76 
L 597.0405 34.288 
" clip-path="url(#p07a01576b5)" style="fill: #dfe318"/>
   </g>
   <g id="matplotlib.axis_5"/>
   <g id="matplotlib.axis_6">
    <g id="ytick_14">
     <g id="line2d_27">
      <defs>
       <path id="m55706cbbff" d="M 0 0 
L 3.5 0 
" style="stroke: #000000; stroke-width: 0.8"/>
      </defs>
      <g>
       <use xlink:href="#m55706cbbff" x="606.8045" y="210.04" style="stroke: #000000; stroke-width: 0.8"/>
      </g>
     </g>
     <g id="text_29">
      <!-- 0.0 -->
      <g transform="translate(613.8045 213.839219) scale(0.1 -0.1)">
       <defs>
        <path id="DejaVuSans-2e" d="M 684 794 
L 1344 794 
L 1344 0 
L 684 0 
L 684 794 
z
" transform="scale(0.015625)"/>
       </defs>
       <use xlink:href="#DejaVuSans-30"/>
       <use xlink:href="#DejaVuSans-2e" x="63.623047"/>
       <use xlink:href="#DejaVuSans-30" x="95.410156"/>
      </g>
     </g>
    </g>
    <g id="ytick_15">
     <g id="line2d_28">
      <g>
       <use xlink:href="#m55706cbbff" x="606.8045" y="170.984" style="stroke: #000000; stroke-width: 0.8"/>
      </g>
     </g>
     <g id="text_30">
      <!-- 0.2 -->
      <g transform="translate(613.8045 174.783219) scale(0.1 -0.1)">
       <use xlink:href="#DejaVuSans-30"/>
       <use xlink:href="#DejaVuSans-2e" x="63.623047"/>
       <use xlink:href="#DejaVuSans-32" x="95.410156"/>
      </g>
     </g>
    </g>
    <g id="ytick_16">
     <g id="line2d_29">
      <g>
       <use xlink:href="#m55706cbbff" x="606.8045" y="131.928" style="stroke: #000000; stroke-width: 0.8"/>
      </g>
     </g>
     <g id="text_31">
      <!-- 0.4 -->
      <g transform="translate(613.8045 135.727219) scale(0.1 -0.1)">
       <use xlink:href="#DejaVuSans-30"/>
       <use xlink:href="#DejaVuSans-2e" x="63.623047"/>
       <use xlink:href="#DejaVuSans-34" x="95.410156"/>
      </g>
     </g>
    </g>
    <g id="ytick_17">
     <g id="line2d_30">
      <g>
       <use xlink:href="#m55706cbbff" x="606.8045" y="92.872" style="stroke: #000000; stroke-width: 0.8"/>
      </g>
     </g>
     <g id="text_32">
      <!-- 0.6 -->
      <g transform="translate(613.8045 96.671219) scale(0.1 -0.1)">
       <use xlink:href="#DejaVuSans-30"/>
       <use xlink:href="#DejaVuSans-2e" x="63.623047"/>
       <use xlink:href="#DejaVuSans-36" x="95.410156"/>
      </g>
     </g>
    </g>
    <g id="ytick_18">
     <g id="line2d_31">
      <g>
       <use xlink:href="#m55706cbbff" x="606.8045" y="53.816" style="stroke: #000000; stroke-width: 0.8"/>
      </g>
     </g>
     <g id="text_33">
      <!-- 0.8 -->
      <g transform="translate(613.8045 57.615219) scale(0.1 -0.1)">
       <use xlink:href="#DejaVuSans-30"/>
       <use xlink:href="#DejaVuSans-2e" x="63.623047"/>
       <use xlink:href="#DejaVuSans-38" x="95.410156"/>
      </g>
     </g>
    </g>
    <g id="ytick_19">
     <g id="line2d_32">
      <g>
       <use xlink:href="#m55706cbbff" x="606.8045" y="14.76" style="stroke: #000000; stroke-width: 0.8"/>
      </g>
     </g>
     <g id="text_34">
      <!-- 1.0 -->
      <g transform="translate(613.8045 18.559219) scale(0.1 -0.1)">
       <use xlink:href="#DejaVuSans-31"/>
       <use xlink:href="#DejaVuSans-2e" x="63.623047"/>
       <use xlink:href="#DejaVuSans-30" x="95.410156"/>
      </g>
     </g>
    </g>
   </g>
   <g id="LineCollection_1"/>
   <g id="patch_14">
    <path d="M 597.0405 210.04 
L 601.9225 210.04 
L 606.8045 210.04 
L 606.8045 14.76 
L 601.9225 14.76 
L 597.0405 14.76 
L 597.0405 210.04 
z
" style="fill: none; stroke: #000000; stroke-width: 0.8; stroke-linejoin: miter; stroke-linecap: square"/>
   </g>
  </g>
 </g>
 <defs>
  <clipPath id="pb3d4255438">
   <rect x="50.87" y="14.76" width="267.73" height="195.28"/>
  </clipPath>
  <clipPath id="p721fed04a8">
   <rect x="369.47" y="14.76" width="214.184" height="195.28"/>
  </clipPath>
  <clipPath id="p07a01576b5">
   <rect x="597.0405" y="14.76" width="9.764" height="195.28"/>
  </clipPath>
 </defs>
</svg>
