<?xml version="1.0" encoding="utf-8" standalone="no"?>
<!DOCTYPE svg PUBLIC "-//W3C//DTD SVG 1.1//EN"
  "http://www.w3.org/Graphics/SVG/1.1/DTD/svg11.dtd">
<svg xmlns:xlink="http://www.w3.org/1999/xlink" width="792pt" height="252pt" viewBox="0 0 792 252" xmlns="http://www.w3.org/2000/svg" version="1.1">
 <metadata>
  <rdf:RDF xmlns:dc="http://purl.org/dc/elements/1.1/" xmlns:cc="http://creativecommons.org/ns#" xmlns:rdf="http://www.w3.org/1999/02/22-rdf-syntax-ns#">
   <cc:Work>
    <dc:type rdf:resource="http://purl.org/dc/dcmitype/StillImage"/>
    <dc:date>2024-01-31T10:40:33.299456</dc:date>
    <dc:format>image/svg+xml</dc:format>
    <dc:creator>
     <cc:Agent>
      <dc:title>Matplotlib v3.8.1, https://matplotlib.org/</dc:title>
     </cc:Agent>
    </dc:creator>
   </cc:Work>
  </rdf:RDF>
 </metadata>
 <defs>
  <style type="text/css">*{stroke-linejoin: round; stroke-linecap: butt}</style>
 </defs>
 <g id="figure_1">
  <g id="patch_1">
   <path d="M 0 252 
L 792 252 
L 792 0 
L 0 0 
z
" style="fill: #ffffff"/>
  </g>
  <g id="axes_1">
   <g id="patch_2">
    <path d="M 48.62 210.04 
L 256.158275 210.04 
L 256.158275 14.76 
L 48.62 14.76 
z
" style="fill: #ffffff"/>
   </g>
   <g id="matplotlib.axis_1">
    <g id="xtick_1">
     <g id="line2d_1">
      <defs>
       <path id="m2febe14ebb" d="M 0 0 
L 0 3.5 
" style="stroke: #262626; stroke-width: 0.8"/>
      </defs>
      <g>
       <use xlink:href="#m2febe14ebb" x="58.053558" y="210.04" style="fill: #262626; stroke: #262626; stroke-width: 0.8"/>
      </g>
     </g>
     <g id="text_1">
      <!-- 0 -->
      <g style="fill: #262626" transform="translate(55.273089 224.197812) scale(0.1 -0.1)">
       <defs>
        <path id="ArialMT-30" d="M 266 2259 
Q 266 3072 433 3567 
Q 600 4063 929 4331 
Q 1259 4600 1759 4600 
Q 2128 4600 2406 4451 
Q 2684 4303 2865 4023 
Q 3047 3744 3150 3342 
Q 3253 2941 3253 2259 
Q 3253 1453 3087 958 
Q 2922 463 2592 192 
Q 2263 -78 1759 -78 
Q 1097 -78 719 397 
Q 266 969 266 2259 
z
M 844 2259 
Q 844 1131 1108 757 
Q 1372 384 1759 384 
Q 2147 384 2411 759 
Q 2675 1134 2675 2259 
Q 2675 3391 2411 3762 
Q 2147 4134 1753 4134 
Q 1366 4134 1134 3806 
Q 844 3388 844 2259 
z
" transform="scale(0.015625)"/>
       </defs>
       <use xlink:href="#ArialMT-30"/>
      </g>
     </g>
    </g>
    <g id="xtick_2">
     <g id="line2d_2">
      <g>
       <use xlink:href="#m2febe14ebb" x="95.977409" y="210.04" style="fill: #262626; stroke: #262626; stroke-width: 0.8"/>
      </g>
     </g>
     <g id="text_2">
      <!-- 500 -->
      <g style="fill: #262626" transform="translate(87.636003 224.197812) scale(0.1 -0.1)">
       <defs>
        <path id="ArialMT-35" d="M 266 1200 
L 856 1250 
Q 922 819 1161 601 
Q 1400 384 1738 384 
Q 2144 384 2425 690 
Q 2706 997 2706 1503 
Q 2706 1984 2436 2262 
Q 2166 2541 1728 2541 
Q 1456 2541 1237 2417 
Q 1019 2294 894 2097 
L 366 2166 
L 809 4519 
L 3088 4519 
L 3088 3981 
L 1259 3981 
L 1013 2750 
Q 1425 3038 1878 3038 
Q 2478 3038 2890 2622 
Q 3303 2206 3303 1553 
Q 3303 931 2941 478 
Q 2500 -78 1738 -78 
Q 1113 -78 717 272 
Q 322 622 266 1200 
z
" transform="scale(0.015625)"/>
       </defs>
       <use xlink:href="#ArialMT-35"/>
       <use xlink:href="#ArialMT-30" x="55.615234"/>
       <use xlink:href="#ArialMT-30" x="111.230469"/>
      </g>
     </g>
    </g>
    <g id="xtick_3">
     <g id="line2d_3">
      <g>
       <use xlink:href="#m2febe14ebb" x="133.90126" y="210.04" style="fill: #262626; stroke: #262626; stroke-width: 0.8"/>
      </g>
     </g>
     <g id="text_3">
      <!-- 1000 -->
      <g style="fill: #262626" transform="translate(122.779385 224.197812) scale(0.1 -0.1)">
       <defs>
        <path id="ArialMT-31" d="M 2384 0 
L 1822 0 
L 1822 3584 
Q 1619 3391 1289 3197 
Q 959 3003 697 2906 
L 697 3450 
Q 1169 3672 1522 3987 
Q 1875 4303 2022 4600 
L 2384 4600 
L 2384 0 
z
" transform="scale(0.015625)"/>
       </defs>
       <use xlink:href="#ArialMT-31"/>
       <use xlink:href="#ArialMT-30" x="55.615234"/>
       <use xlink:href="#ArialMT-30" x="111.230469"/>
       <use xlink:href="#ArialMT-30" x="166.845703"/>
      </g>
     </g>
    </g>
    <g id="xtick_4">
     <g id="line2d_4">
      <g>
       <use xlink:href="#m2febe14ebb" x="171.825111" y="210.04" style="fill: #262626; stroke: #262626; stroke-width: 0.8"/>
      </g>
     </g>
     <g id="text_4">
      <!-- 1500 -->
      <g style="fill: #262626" transform="translate(160.703236 224.197812) scale(0.1 -0.1)">
       <use xlink:href="#ArialMT-31"/>
       <use xlink:href="#ArialMT-35" x="55.615234"/>
       <use xlink:href="#ArialMT-30" x="111.230469"/>
       <use xlink:href="#ArialMT-30" x="166.845703"/>
      </g>
     </g>
    </g>
    <g id="xtick_5">
     <g id="line2d_5">
      <g>
       <use xlink:href="#m2febe14ebb" x="209.748962" y="210.04" style="fill: #262626; stroke: #262626; stroke-width: 0.8"/>
      </g>
     </g>
     <g id="text_5">
      <!-- 2000 -->
      <g style="fill: #262626" transform="translate(198.627087 224.197812) scale(0.1 -0.1)">
       <defs>
        <path id="ArialMT-32" d="M 3222 541 
L 3222 0 
L 194 0 
Q 188 203 259 391 
Q 375 700 629 1000 
Q 884 1300 1366 1694 
Q 2113 2306 2375 2664 
Q 2638 3022 2638 3341 
Q 2638 3675 2398 3904 
Q 2159 4134 1775 4134 
Q 1369 4134 1125 3890 
Q 881 3647 878 3216 
L 300 3275 
Q 359 3922 746 4261 
Q 1134 4600 1788 4600 
Q 2447 4600 2831 4234 
Q 3216 3869 3216 3328 
Q 3216 3053 3103 2787 
Q 2991 2522 2730 2228 
Q 2469 1934 1863 1422 
Q 1356 997 1212 845 
Q 1069 694 975 541 
L 3222 541 
z
" transform="scale(0.015625)"/>
       </defs>
       <use xlink:href="#ArialMT-32"/>
       <use xlink:href="#ArialMT-30" x="55.615234"/>
       <use xlink:href="#ArialMT-30" x="111.230469"/>
       <use xlink:href="#ArialMT-30" x="166.845703"/>
      </g>
     </g>
    </g>
    <g id="xtick_6">
     <g id="line2d_6">
      <g>
       <use xlink:href="#m2febe14ebb" x="247.672813" y="210.04" style="fill: #262626; stroke: #262626; stroke-width: 0.8"/>
      </g>
     </g>
     <g id="text_6">
      <!-- 2500 -->
      <g style="fill: #262626" transform="translate(236.550938 224.197812) scale(0.1 -0.1)">
       <use xlink:href="#ArialMT-32"/>
       <use xlink:href="#ArialMT-35" x="55.615234"/>
       <use xlink:href="#ArialMT-30" x="111.230469"/>
       <use xlink:href="#ArialMT-30" x="166.845703"/>
      </g>
     </g>
    </g>
    <g id="text_7">
     <!-- [Phytoene] (µM) -->
     <g style="fill: #262626" transform="translate(116.719606 237.465) scale(0.1 -0.1)">
      <defs>
       <path id="ArialMT-5b" d="M 434 -1272 
L 434 4581 
L 1675 4581 
L 1675 4116 
L 997 4116 
L 997 -806 
L 1675 -806 
L 1675 -1272 
L 434 -1272 
z
" transform="scale(0.015625)"/>
       <path id="ArialMT-50" d="M 494 0 
L 494 4581 
L 2222 4581 
Q 2678 4581 2919 4538 
Q 3256 4481 3484 4323 
Q 3713 4166 3852 3881 
Q 3991 3597 3991 3256 
Q 3991 2672 3619 2267 
Q 3247 1863 2275 1863 
L 1100 1863 
L 1100 0 
L 494 0 
z
M 1100 2403 
L 2284 2403 
Q 2872 2403 3119 2622 
Q 3366 2841 3366 3238 
Q 3366 3525 3220 3729 
Q 3075 3934 2838 4000 
Q 2684 4041 2272 4041 
L 1100 4041 
L 1100 2403 
z
" transform="scale(0.015625)"/>
       <path id="ArialMT-68" d="M 422 0 
L 422 4581 
L 984 4581 
L 984 2938 
Q 1378 3394 1978 3394 
Q 2347 3394 2619 3248 
Q 2891 3103 3008 2847 
Q 3125 2591 3125 2103 
L 3125 0 
L 2563 0 
L 2563 2103 
Q 2563 2525 2380 2717 
Q 2197 2909 1863 2909 
Q 1613 2909 1392 2779 
Q 1172 2650 1078 2428 
Q 984 2206 984 1816 
L 984 0 
L 422 0 
z
" transform="scale(0.015625)"/>
       <path id="ArialMT-79" d="M 397 -1278 
L 334 -750 
Q 519 -800 656 -800 
Q 844 -800 956 -737 
Q 1069 -675 1141 -563 
Q 1194 -478 1313 -144 
Q 1328 -97 1363 -6 
L 103 3319 
L 709 3319 
L 1400 1397 
Q 1534 1031 1641 628 
Q 1738 1016 1872 1384 
L 2581 3319 
L 3144 3319 
L 1881 -56 
Q 1678 -603 1566 -809 
Q 1416 -1088 1222 -1217 
Q 1028 -1347 759 -1347 
Q 597 -1347 397 -1278 
z
" transform="scale(0.015625)"/>
       <path id="ArialMT-74" d="M 1650 503 
L 1731 6 
Q 1494 -44 1306 -44 
Q 1000 -44 831 53 
Q 663 150 594 308 
Q 525 466 525 972 
L 525 2881 
L 113 2881 
L 113 3319 
L 525 3319 
L 525 4141 
L 1084 4478 
L 1084 3319 
L 1650 3319 
L 1650 2881 
L 1084 2881 
L 1084 941 
Q 1084 700 1114 631 
Q 1144 563 1211 522 
Q 1278 481 1403 481 
Q 1497 481 1650 503 
z
" transform="scale(0.015625)"/>
       <path id="ArialMT-6f" d="M 213 1659 
Q 213 2581 725 3025 
Q 1153 3394 1769 3394 
Q 2453 3394 2887 2945 
Q 3322 2497 3322 1706 
Q 3322 1066 3130 698 
Q 2938 331 2570 128 
Q 2203 -75 1769 -75 
Q 1072 -75 642 372 
Q 213 819 213 1659 
z
M 791 1659 
Q 791 1022 1069 705 
Q 1347 388 1769 388 
Q 2188 388 2466 706 
Q 2744 1025 2744 1678 
Q 2744 2294 2464 2611 
Q 2184 2928 1769 2928 
Q 1347 2928 1069 2612 
Q 791 2297 791 1659 
z
" transform="scale(0.015625)"/>
       <path id="ArialMT-65" d="M 2694 1069 
L 3275 997 
Q 3138 488 2766 206 
Q 2394 -75 1816 -75 
Q 1088 -75 661 373 
Q 234 822 234 1631 
Q 234 2469 665 2931 
Q 1097 3394 1784 3394 
Q 2450 3394 2872 2941 
Q 3294 2488 3294 1666 
Q 3294 1616 3291 1516 
L 816 1516 
Q 847 969 1125 678 
Q 1403 388 1819 388 
Q 2128 388 2347 550 
Q 2566 713 2694 1069 
z
M 847 1978 
L 2700 1978 
Q 2663 2397 2488 2606 
Q 2219 2931 1791 2931 
Q 1403 2931 1139 2672 
Q 875 2413 847 1978 
z
" transform="scale(0.015625)"/>
       <path id="ArialMT-6e" d="M 422 0 
L 422 3319 
L 928 3319 
L 928 2847 
Q 1294 3394 1984 3394 
Q 2284 3394 2536 3286 
Q 2788 3178 2913 3003 
Q 3038 2828 3088 2588 
Q 3119 2431 3119 2041 
L 3119 0 
L 2556 0 
L 2556 2019 
Q 2556 2363 2490 2533 
Q 2425 2703 2258 2804 
Q 2091 2906 1866 2906 
Q 1506 2906 1245 2678 
Q 984 2450 984 1813 
L 984 0 
L 422 0 
z
" transform="scale(0.015625)"/>
       <path id="ArialMT-5d" d="M 1363 -1272 
L 122 -1272 
L 122 -806 
L 800 -806 
L 800 4116 
L 122 4116 
L 122 4581 
L 1363 4581 
L 1363 -1272 
z
" transform="scale(0.015625)"/>
       <path id="ArialMT-20" transform="scale(0.015625)"/>
       <path id="ArialMT-28" d="M 1497 -1347 
Q 1031 -759 709 28 
Q 388 816 388 1659 
Q 388 2403 628 3084 
Q 909 3875 1497 4659 
L 1900 4659 
Q 1522 4009 1400 3731 
Q 1209 3300 1100 2831 
Q 966 2247 966 1656 
Q 966 153 1900 -1347 
L 1497 -1347 
z
" transform="scale(0.015625)"/>
       <path id="ArialMT-b5" d="M 3181 3319 
L 3181 0 
L 2678 0 
L 2678 394 
Q 2516 144 2356 50 
Q 2138 -78 1847 -78 
Q 1588 -78 1388 25 
Q 1238 103 1056 334 
L 1056 -1272 
L 500 -1272 
L 500 3319 
L 1056 3319 
L 1056 1913 
Q 1056 1147 1137 920 
Q 1219 694 1401 562 
Q 1584 431 1822 431 
Q 2072 431 2269 568 
Q 2466 706 2547 923 
Q 2628 1141 2628 1903 
L 2628 3319 
L 3181 3319 
z
" transform="scale(0.015625)"/>
       <path id="ArialMT-4d" d="M 475 0 
L 475 4581 
L 1388 4581 
L 2472 1338 
Q 2622 884 2691 659 
Q 2769 909 2934 1394 
L 4031 4581 
L 4847 4581 
L 4847 0 
L 4263 0 
L 4263 3834 
L 2931 0 
L 2384 0 
L 1059 3900 
L 1059 0 
L 475 0 
z
" transform="scale(0.015625)"/>
       <path id="ArialMT-29" d="M 791 -1347 
L 388 -1347 
Q 1322 153 1322 1656 
Q 1322 2244 1188 2822 
Q 1081 3291 891 3722 
Q 769 4003 388 4659 
L 791 4659 
Q 1378 3875 1659 3084 
Q 1900 2403 1900 1659 
Q 1900 816 1576 28 
Q 1253 -759 791 -1347 
z
" transform="scale(0.015625)"/>
      </defs>
      <use xlink:href="#ArialMT-5b"/>
      <use xlink:href="#ArialMT-50" x="27.783203"/>
      <use xlink:href="#ArialMT-68" x="94.482422"/>
      <use xlink:href="#ArialMT-79" x="150.097656"/>
      <use xlink:href="#ArialMT-74" x="200.097656"/>
      <use xlink:href="#ArialMT-6f" x="227.880859"/>
      <use xlink:href="#ArialMT-65" x="283.496094"/>
      <use xlink:href="#ArialMT-6e" x="339.111328"/>
      <use xlink:href="#ArialMT-65" x="394.726562"/>
      <use xlink:href="#ArialMT-5d" x="450.341797"/>
      <use xlink:href="#ArialMT-20" x="478.125"/>
      <use xlink:href="#ArialMT-28" x="505.908203"/>
      <use xlink:href="#ArialMT-b5" x="539.208984"/>
      <use xlink:href="#ArialMT-4d" x="596.826172"/>
      <use xlink:href="#ArialMT-29" x="680.126953"/>
     </g>
    </g>
   </g>
   <g id="matplotlib.axis_2">
    <g id="ytick_1">
     <g id="line2d_7">
      <defs>
       <path id="m5d730cbd0c" d="M 0 0 
L -3.5 0 
" style="stroke: #262626; stroke-width: 0.8"/>
      </defs>
      <g>
       <use xlink:href="#m5d730cbd0c" x="48.62" y="201.163636" style="fill: #262626; stroke: #262626; stroke-width: 0.8"/>
      </g>
     </g>
     <g id="text_8">
      <!-- 0 -->
      <g style="fill: #262626" transform="translate(36.059063 204.742543) scale(0.1 -0.1)">
       <use xlink:href="#ArialMT-30"/>
      </g>
     </g>
    </g>
    <g id="ytick_2">
     <g id="line2d_8">
      <g>
       <use xlink:href="#m5d730cbd0c" x="48.62" y="176.293191" style="fill: #262626; stroke: #262626; stroke-width: 0.8"/>
      </g>
     </g>
     <g id="text_9">
      <!-- 25 -->
      <g style="fill: #262626" transform="translate(30.498125 179.872097) scale(0.1 -0.1)">
       <use xlink:href="#ArialMT-32"/>
       <use xlink:href="#ArialMT-35" x="55.615234"/>
      </g>
     </g>
    </g>
    <g id="ytick_3">
     <g id="line2d_9">
      <g>
       <use xlink:href="#m5d730cbd0c" x="48.62" y="151.422745" style="fill: #262626; stroke: #262626; stroke-width: 0.8"/>
      </g>
     </g>
     <g id="text_10">
      <!-- 50 -->
      <g style="fill: #262626" transform="translate(30.498125 155.001652) scale(0.1 -0.1)">
       <use xlink:href="#ArialMT-35"/>
       <use xlink:href="#ArialMT-30" x="55.615234"/>
      </g>
     </g>
    </g>
    <g id="ytick_4">
     <g id="line2d_10">
      <g>
       <use xlink:href="#m5d730cbd0c" x="48.62" y="126.5523" style="fill: #262626; stroke: #262626; stroke-width: 0.8"/>
      </g>
     </g>
     <g id="text_11">
      <!-- 75 -->
      <g style="fill: #262626" transform="translate(30.498125 130.131206) scale(0.1 -0.1)">
       <defs>
        <path id="ArialMT-37" d="M 303 3981 
L 303 4522 
L 3269 4522 
L 3269 4084 
Q 2831 3619 2401 2847 
Q 1972 2075 1738 1259 
Q 1569 684 1522 0 
L 944 0 
Q 953 541 1156 1306 
Q 1359 2072 1739 2783 
Q 2119 3494 2547 3981 
L 303 3981 
z
" transform="scale(0.015625)"/>
       </defs>
       <use xlink:href="#ArialMT-37"/>
       <use xlink:href="#ArialMT-35" x="55.615234"/>
      </g>
     </g>
    </g>
    <g id="ytick_5">
     <g id="line2d_11">
      <g>
       <use xlink:href="#m5d730cbd0c" x="48.62" y="101.681854" style="fill: #262626; stroke: #262626; stroke-width: 0.8"/>
      </g>
     </g>
     <g id="text_12">
      <!-- 100 -->
      <g style="fill: #262626" transform="translate(24.937188 105.26076) scale(0.1 -0.1)">
       <use xlink:href="#ArialMT-31"/>
       <use xlink:href="#ArialMT-30" x="55.615234"/>
       <use xlink:href="#ArialMT-30" x="111.230469"/>
      </g>
     </g>
    </g>
    <g id="ytick_6">
     <g id="line2d_12">
      <g>
       <use xlink:href="#m5d730cbd0c" x="48.62" y="76.811409" style="fill: #262626; stroke: #262626; stroke-width: 0.8"/>
      </g>
     </g>
     <g id="text_13">
      <!-- 125 -->
      <g style="fill: #262626" transform="translate(24.937188 80.390315) scale(0.1 -0.1)">
       <use xlink:href="#ArialMT-31"/>
       <use xlink:href="#ArialMT-32" x="55.615234"/>
       <use xlink:href="#ArialMT-35" x="111.230469"/>
      </g>
     </g>
    </g>
    <g id="ytick_7">
     <g id="line2d_13">
      <g>
       <use xlink:href="#m5d730cbd0c" x="48.62" y="51.940963" style="fill: #262626; stroke: #262626; stroke-width: 0.8"/>
      </g>
     </g>
     <g id="text_14">
      <!-- 150 -->
      <g style="fill: #262626" transform="translate(24.937188 55.519869) scale(0.1 -0.1)">
       <use xlink:href="#ArialMT-31"/>
       <use xlink:href="#ArialMT-35" x="55.615234"/>
       <use xlink:href="#ArialMT-30" x="111.230469"/>
      </g>
     </g>
    </g>
    <g id="ytick_8">
     <g id="line2d_14">
      <g>
       <use xlink:href="#m5d730cbd0c" x="48.62" y="27.070518" style="fill: #262626; stroke: #262626; stroke-width: 0.8"/>
      </g>
     </g>
     <g id="text_15">
      <!-- 175 -->
      <g style="fill: #262626" transform="translate(24.937188 30.649424) scale(0.1 -0.1)">
       <use xlink:href="#ArialMT-31"/>
       <use xlink:href="#ArialMT-37" x="55.615234"/>
       <use xlink:href="#ArialMT-35" x="111.230469"/>
      </g>
     </g>
    </g>
    <g id="text_16">
     <!-- Lycopene flux (µM/h) -->
     <g style="fill: #262626" transform="translate(18.8325 158.999219) rotate(-90) scale(0.1 -0.1)">
      <defs>
       <path id="ArialMT-4c" d="M 469 0 
L 469 4581 
L 1075 4581 
L 1075 541 
L 3331 541 
L 3331 0 
L 469 0 
z
" transform="scale(0.015625)"/>
       <path id="ArialMT-63" d="M 2588 1216 
L 3141 1144 
Q 3050 572 2676 248 
Q 2303 -75 1759 -75 
Q 1078 -75 664 370 
Q 250 816 250 1647 
Q 250 2184 428 2587 
Q 606 2991 970 3192 
Q 1334 3394 1763 3394 
Q 2303 3394 2647 3120 
Q 2991 2847 3088 2344 
L 2541 2259 
Q 2463 2594 2264 2762 
Q 2066 2931 1784 2931 
Q 1359 2931 1093 2626 
Q 828 2322 828 1663 
Q 828 994 1084 691 
Q 1341 388 1753 388 
Q 2084 388 2306 591 
Q 2528 794 2588 1216 
z
" transform="scale(0.015625)"/>
       <path id="ArialMT-70" d="M 422 -1272 
L 422 3319 
L 934 3319 
L 934 2888 
Q 1116 3141 1344 3267 
Q 1572 3394 1897 3394 
Q 2322 3394 2647 3175 
Q 2972 2956 3137 2557 
Q 3303 2159 3303 1684 
Q 3303 1175 3120 767 
Q 2938 359 2589 142 
Q 2241 -75 1856 -75 
Q 1575 -75 1351 44 
Q 1128 163 984 344 
L 984 -1272 
L 422 -1272 
z
M 931 1641 
Q 931 1000 1190 694 
Q 1450 388 1819 388 
Q 2194 388 2461 705 
Q 2728 1022 2728 1688 
Q 2728 2322 2467 2637 
Q 2206 2953 1844 2953 
Q 1484 2953 1207 2617 
Q 931 2281 931 1641 
z
" transform="scale(0.015625)"/>
       <path id="ArialMT-66" d="M 556 0 
L 556 2881 
L 59 2881 
L 59 3319 
L 556 3319 
L 556 3672 
Q 556 4006 616 4169 
Q 697 4388 901 4523 
Q 1106 4659 1475 4659 
Q 1713 4659 2000 4603 
L 1916 4113 
Q 1741 4144 1584 4144 
Q 1328 4144 1222 4034 
Q 1116 3925 1116 3625 
L 1116 3319 
L 1763 3319 
L 1763 2881 
L 1116 2881 
L 1116 0 
L 556 0 
z
" transform="scale(0.015625)"/>
       <path id="ArialMT-6c" d="M 409 0 
L 409 4581 
L 972 4581 
L 972 0 
L 409 0 
z
" transform="scale(0.015625)"/>
       <path id="ArialMT-75" d="M 2597 0 
L 2597 488 
Q 2209 -75 1544 -75 
Q 1250 -75 995 37 
Q 741 150 617 320 
Q 494 491 444 738 
Q 409 903 409 1263 
L 409 3319 
L 972 3319 
L 972 1478 
Q 972 1038 1006 884 
Q 1059 663 1231 536 
Q 1403 409 1656 409 
Q 1909 409 2131 539 
Q 2353 669 2445 892 
Q 2538 1116 2538 1541 
L 2538 3319 
L 3100 3319 
L 3100 0 
L 2597 0 
z
" transform="scale(0.015625)"/>
       <path id="ArialMT-78" d="M 47 0 
L 1259 1725 
L 138 3319 
L 841 3319 
L 1350 2541 
Q 1494 2319 1581 2169 
Q 1719 2375 1834 2534 
L 2394 3319 
L 3066 3319 
L 1919 1756 
L 3153 0 
L 2463 0 
L 1781 1031 
L 1600 1309 
L 728 0 
L 47 0 
z
" transform="scale(0.015625)"/>
       <path id="ArialMT-2f" d="M 0 -78 
L 1328 4659 
L 1778 4659 
L 453 -78 
L 0 -78 
z
" transform="scale(0.015625)"/>
      </defs>
      <use xlink:href="#ArialMT-4c"/>
      <use xlink:href="#ArialMT-79" x="51.865234"/>
      <use xlink:href="#ArialMT-63" x="101.865234"/>
      <use xlink:href="#ArialMT-6f" x="151.865234"/>
      <use xlink:href="#ArialMT-70" x="207.480469"/>
      <use xlink:href="#ArialMT-65" x="263.095703"/>
      <use xlink:href="#ArialMT-6e" x="318.710938"/>
      <use xlink:href="#ArialMT-65" x="374.326172"/>
      <use xlink:href="#ArialMT-20" x="429.941406"/>
      <use xlink:href="#ArialMT-66" x="457.724609"/>
      <use xlink:href="#ArialMT-6c" x="485.507812"/>
      <use xlink:href="#ArialMT-75" x="507.724609"/>
      <use xlink:href="#ArialMT-78" x="563.339844"/>
      <use xlink:href="#ArialMT-20" x="613.339844"/>
      <use xlink:href="#ArialMT-28" x="641.123047"/>
      <use xlink:href="#ArialMT-b5" x="674.423828"/>
      <use xlink:href="#ArialMT-4d" x="732.041016"/>
      <use xlink:href="#ArialMT-2f" x="815.341797"/>
      <use xlink:href="#ArialMT-68" x="843.125"/>
      <use xlink:href="#ArialMT-29" x="898.740234"/>
     </g>
    </g>
   </g>
   <g id="PolyCollection_1">
    <defs>
     <path id="mebc47a22aa" d="M 58.053558 -50.836364 
L 58.053558 -50.836364 
L 59.001654 -55.370472 
L 59.94975 -59.685802 
L 60.897847 -63.801075 
L 61.845943 -67.691474 
L 62.794039 -71.431081 
L 63.742136 -74.986452 
L 64.690232 -78.377935 
L 65.638328 -81.62566 
L 66.586424 -84.770578 
L 67.534521 -87.759713 
L 68.482617 -90.603871 
L 69.430713 -93.360997 
L 70.37881 -96.011552 
L 71.326906 -98.561285 
L 72.275002 -101.015842 
L 73.223098 -103.380453 
L 74.171195 -105.664286 
L 75.119291 -107.86793 
L 76.067387 -109.969282 
L 77.015483 -111.988588 
L 77.96358 -113.938205 
L 78.911676 -115.821678 
L 79.859772 -117.642318 
L 80.807869 -119.402673 
L 81.755965 -121.029968 
L 82.704061 -122.580061 
L 83.652157 -124.099792 
L 84.600254 -125.60968 
L 85.54835 -127.156992 
L 86.496446 -128.619301 
L 87.444542 -130.023525 
L 88.392639 -131.412852 
L 89.340735 -132.749204 
L 90.288831 -134.050985 
L 91.236928 -135.22274 
L 92.185024 -136.512004 
L 93.13312 -137.749826 
L 94.081216 -138.915733 
L 95.029313 -140.04986 
L 95.977409 -141.055092 
L 96.925505 -142.032839 
L 97.873601 -143.082784 
L 98.821698 -144.162297 
L 99.769794 -145.073419 
L 100.71789 -146.0209 
L 101.665987 -146.968876 
L 102.614083 -147.836895 
L 103.562179 -148.689633 
L 104.510275 -149.509205 
L 105.458372 -150.31049 
L 106.406468 -151.095424 
L 107.354564 -151.86194 
L 108.30266 -152.6109 
L 109.250757 -153.34268 
L 110.198853 -154.076102 
L 111.146949 -154.78224 
L 112.095046 -155.500615 
L 113.043142 -156.152161 
L 113.991238 -156.821323 
L 114.939334 -157.444723 
L 115.887431 -158.029442 
L 116.835527 -158.630796 
L 117.783623 -159.187042 
L 118.73172 -159.71369 
L 119.679816 -160.196382 
L 120.627912 -160.722285 
L 121.576008 -161.25737 
L 122.524105 -161.762725 
L 123.472201 -162.256257 
L 124.420297 -162.801015 
L 125.368393 -163.294723 
L 126.31649 -163.77891 
L 127.264586 -164.254169 
L 128.212682 -164.72284 
L 129.160779 -165.18275 
L 130.108875 -165.595962 
L 131.056971 -166.005058 
L 132.005067 -166.395313 
L 132.953164 -166.778241 
L 133.90126 -167.222498 
L 134.849356 -167.601954 
L 135.797452 -167.917255 
L 136.745549 -168.296463 
L 137.693645 -168.707538 
L 138.641741 -169.048663 
L 139.589838 -169.384299 
L 140.537934 -169.716345 
L 141.48603 -170.119711 
L 142.434126 -170.450832 
L 143.382223 -170.727445 
L 144.330319 -171.052297 
L 145.278415 -171.411303 
L 146.226511 -171.715217 
L 147.174608 -172.017344 
L 148.122704 -172.333912 
L 149.0708 -172.631415 
L 150.018897 -172.901497 
L 150.966993 -173.140218 
L 151.915089 -173.396764 
L 152.863185 -173.669808 
L 153.811282 -173.89688 
L 154.759378 -174.120929 
L 155.707474 -174.34156 
L 156.65557 -174.589104 
L 157.603667 -174.874283 
L 158.551763 -175.143979 
L 159.499859 -175.411146 
L 160.447956 -175.680876 
L 161.396052 -175.946795 
L 162.344148 -176.208985 
L 163.292244 -176.467523 
L 164.240341 -176.722485 
L 165.188437 -176.951981 
L 166.136533 -177.130711 
L 167.08463 -177.307426 
L 168.032726 -177.481861 
L 168.980822 -177.653785 
L 169.928918 -177.823994 
L 170.877015 -178.050017 
L 171.825111 -178.273061 
L 172.773207 -178.472373 
L 173.721303 -178.638355 
L 174.6694 -178.802786 
L 175.617496 -178.964978 
L 176.565592 -179.124978 
L 177.513689 -179.28283 
L 178.461785 -179.451077 
L 179.409881 -179.635213 
L 180.357977 -179.791188 
L 181.306074 -179.944699 
L 182.25417 -180.095934 
L 183.202266 -180.249223 
L 184.150362 -180.435035 
L 185.098459 -180.63346 
L 186.046555 -180.789061 
L 186.994651 -180.93304 
L 187.942748 -181.075231 
L 188.890844 -181.220333 
L 189.83894 -181.374959 
L 190.787036 -181.507449 
L 191.735133 -181.645776 
L 192.683229 -181.807847 
L 193.631325 -181.941848 
L 194.579421 -182.08828 
L 195.527518 -182.233012 
L 196.475614 -182.376076 
L 197.42371 -182.517498 
L 198.371807 -182.657761 
L 199.319903 -182.796516 
L 200.267999 -182.933707 
L 201.216095 -183.069725 
L 202.164192 -183.204706 
L 203.112288 -183.338194 
L 204.060384 -183.470212 
L 205.00848 -183.600786 
L 205.956577 -183.738 
L 206.904673 -183.87802 
L 207.852769 -184.002842 
L 208.800866 -184.126325 
L 209.748962 -184.248489 
L 210.697058 -184.369355 
L 211.645154 -184.488945 
L 212.593251 -184.593041 
L 213.541347 -184.70892 
L 214.489443 -184.825218 
L 215.43754 -184.940313 
L 216.385636 -185.054225 
L 217.333732 -185.16697 
L 218.281828 -185.278568 
L 219.229925 -185.389035 
L 220.178021 -185.49417 
L 221.126117 -185.589507 
L 222.074213 -185.683875 
L 223.02231 -185.777288 
L 223.970406 -185.86976 
L 224.918502 -185.961306 
L 225.866599 -186.051941 
L 226.814695 -186.141676 
L 227.762791 -186.230526 
L 228.710887 -186.318503 
L 229.658984 -186.405621 
L 230.60708 -186.491892 
L 231.555176 -186.577509 
L 232.503272 -186.662372 
L 233.451369 -186.746422 
L 234.399465 -186.82967 
L 235.347561 -186.912129 
L 236.295658 -186.993809 
L 237.243754 -187.0748 
L 238.19185 -187.155346 
L 239.139946 -187.235142 
L 240.088043 -187.3142 
L 241.036139 -187.392529 
L 241.984235 -187.477397 
L 242.932331 -187.575103 
L 243.880428 -187.67195 
L 244.828524 -187.76752 
L 245.77662 -187.843701 
L 246.724717 -187.9192 
L 246.724717 -204.588641 
L 246.724717 -204.588641 
L 245.77662 -204.467078 
L 244.828524 -204.344 
L 243.880428 -204.219495 
L 242.932331 -204.093918 
L 241.984235 -203.967255 
L 241.036139 -203.839493 
L 240.088043 -203.710615 
L 239.139946 -203.59148 
L 238.19185 -203.475533 
L 237.243754 -203.354778 
L 236.295658 -203.206631 
L 235.347561 -203.072021 
L 234.399465 -202.952068 
L 233.451369 -202.83101 
L 232.503272 -202.708831 
L 231.555176 -202.585517 
L 230.60708 -202.461052 
L 229.658984 -202.335418 
L 228.710887 -202.2086 
L 227.762791 -202.080581 
L 226.814695 -201.950949 
L 225.866599 -201.819591 
L 224.918502 -201.660153 
L 223.970406 -201.492588 
L 223.02231 -201.322954 
L 222.074213 -201.154663 
L 221.126117 -201.012244 
L 220.178021 -200.868433 
L 219.229925 -200.723211 
L 218.281828 -200.566208 
L 217.333732 -200.397266 
L 216.385636 -200.250208 
L 215.43754 -200.106947 
L 214.489443 -199.962229 
L 213.541347 -199.816032 
L 212.593251 -199.668332 
L 211.645154 -199.512391 
L 210.697058 -199.354244 
L 209.748962 -199.194463 
L 208.800866 -199.032882 
L 207.852769 -198.869003 
L 206.904673 -198.684922 
L 205.956577 -198.49623 
L 205.00848 -198.305159 
L 204.060384 -198.111909 
L 203.112288 -197.935552 
L 202.164192 -197.757239 
L 201.216095 -197.560128 
L 200.267999 -197.388426 
L 199.319903 -197.214828 
L 198.371807 -197.038657 
L 197.42371 -196.853639 
L 196.475614 -196.666563 
L 195.527518 -196.477396 
L 194.579421 -196.286102 
L 193.631325 -196.098836 
L 192.683229 -195.915248 
L 191.735133 -195.729529 
L 190.787036 -195.541642 
L 189.83894 -195.351548 
L 188.890844 -195.159209 
L 187.942748 -194.964585 
L 186.994651 -194.767635 
L 186.046555 -194.568316 
L 185.098459 -194.356221 
L 184.150362 -194.114642 
L 183.202266 -193.870023 
L 182.25417 -193.622111 
L 181.306074 -193.371263 
L 180.357977 -193.131937 
L 179.409881 -192.900284 
L 178.461785 -192.665755 
L 177.513689 -192.409106 
L 176.565592 -192.14652 
L 175.617496 -191.880695 
L 174.6694 -191.611571 
L 173.721303 -191.339085 
L 172.773207 -191.063175 
L 171.825111 -190.783174 
L 170.877015 -190.499397 
L 169.928918 -190.211989 
L 168.980822 -189.920879 
L 168.032726 -189.625995 
L 167.08463 -189.327263 
L 166.136533 -189.024607 
L 165.188437 -188.717949 
L 164.240341 -188.40721 
L 163.292244 -188.092308 
L 162.344148 -187.773158 
L 161.396052 -187.493269 
L 160.447956 -187.158128 
L 159.499859 -186.816628 
L 158.551763 -186.513998 
L 157.603667 -186.170301 
L 156.65557 -185.851845 
L 155.707474 -185.528407 
L 154.759378 -185.206559 
L 153.811282 -184.879917 
L 152.863185 -184.54767 
L 151.915089 -184.168403 
L 150.966993 -183.807076 
L 150.018897 -183.474257 
L 149.0708 -183.135879 
L 148.122704 -182.757565 
L 147.174608 -182.422638 
L 146.226511 -182.090087 
L 145.278415 -181.703806 
L 144.330319 -181.338649 
L 143.382223 -180.977701 
L 142.434126 -180.6107 
L 141.48603 -180.230723 
L 140.537934 -179.839984 
L 139.589838 -179.435771 
L 138.641741 -179.021722 
L 137.693645 -178.609055 
L 136.745549 -178.169813 
L 135.797452 -177.732714 
L 134.849356 -177.287926 
L 133.90126 -176.835242 
L 132.953164 -176.37445 
L 132.005067 -175.932333 
L 131.056971 -175.469832 
L 130.108875 -174.947135 
L 129.160779 -174.446186 
L 128.212682 -173.94255 
L 127.264586 -173.436745 
L 126.31649 -172.935545 
L 125.368393 -172.433929 
L 124.420297 -171.900797 
L 123.472201 -171.358562 
L 122.524105 -170.813522 
L 121.576008 -170.257342 
L 120.627912 -169.695784 
L 119.679816 -169.135574 
L 118.73172 -168.562744 
L 117.783623 -167.978863 
L 116.835527 -167.382559 
L 115.887431 -166.77321 
L 114.939334 -166.186133 
L 113.991238 -165.588459 
L 113.043142 -164.980265 
L 112.095046 -164.338459 
L 111.146949 -163.686737 
L 110.198853 -163.024663 
L 109.250757 -162.315329 
L 108.30266 -161.564264 
L 107.354564 -160.83458 
L 106.406468 -160.115582 
L 105.458372 -159.424887 
L 104.510275 -158.576469 
L 103.562179 -157.827232 
L 102.614083 -156.973341 
L 101.665987 -156.110873 
L 100.71789 -155.221642 
L 99.769794 -154.324082 
L 98.821698 -153.430159 
L 97.873601 -152.481759 
L 96.925505 -151.580715 
L 95.977409 -150.642692 
L 95.029313 -149.654912 
L 94.081216 -148.658431 
L 93.13312 -147.603866 
L 92.185024 -146.486047 
L 91.236928 -145.341476 
L 90.288831 -144.164807 
L 89.340735 -143.004642 
L 88.392639 -141.783852 
L 87.444542 -140.587247 
L 86.496446 -139.239309 
L 85.54835 -137.879054 
L 84.600254 -136.452942 
L 83.652157 -135.026433 
L 82.704061 -133.544496 
L 81.755965 -132.041775 
L 80.807869 -130.422085 
L 79.859772 -128.733281 
L 78.911676 -126.970843 
L 77.96358 -125.157178 
L 77.015483 -123.236799 
L 76.067387 -121.224695 
L 75.119291 -119.113717 
L 74.171195 -116.897564 
L 73.223098 -114.540124 
L 72.275002 -112.094611 
L 71.326906 -109.520491 
L 70.37881 -106.806738 
L 69.430713 -103.941673 
L 68.482617 -100.912279 
L 67.534521 -97.711711 
L 66.586424 -94.328295 
L 65.638328 -90.721604 
L 64.690232 -86.870831 
L 63.742136 -82.734431 
L 62.794039 -78.328723 
L 61.845943 -73.619418 
L 60.897847 -68.559585 
L 59.94975 -63.119719 
L 59.001654 -57.231586 
L 58.053558 -50.836364 
z
" style="stroke: #ef553b; stroke-opacity: 0.3"/>
    </defs>
    <g clip-path="url(#pf8e9ea01cb)">
     <use xlink:href="#mebc47a22aa" x="0" y="252" style="fill: #ef553b; fill-opacity: 0.3; stroke: #ef553b; stroke-opacity: 0.3"/>
    </g>
   </g>
   <g id="line2d_15">
    <defs>
     <path id="mb7ff6c2812" d="M 0 2.5 
C 0.663008 2.5 1.29895 2.236584 1.767767 1.767767 
C 2.236584 1.29895 2.5 0.663008 2.5 0 
C 2.5 -0.663008 2.236584 -1.29895 1.767767 -1.767767 
C 1.29895 -2.236584 0.663008 -2.5 0 -2.5 
C -0.663008 -2.5 -1.29895 -2.236584 -1.767767 -1.767767 
C -2.236584 -1.29895 -2.5 -0.663008 -2.5 0 
C -2.5 0.663008 -2.236584 1.29895 -1.767767 1.767767 
C -1.29895 2.236584 -0.663008 2.5 0 2.5 
z
" style="stroke: #702963"/>
    </defs>
    <g clip-path="url(#pf8e9ea01cb)">
     <use xlink:href="#mb7ff6c2812" x="129.708818" y="77.013806" style="fill: #d8bfd8; stroke: #702963"/>
     <use xlink:href="#mb7ff6c2812" x="129.580863" y="81.01754" style="fill: #d8bfd8; stroke: #702963"/>
     <use xlink:href="#mb7ff6c2812" x="58.085547" y="199.911405" style="fill: #d8bfd8; stroke: #702963"/>
     <use xlink:href="#mb7ff6c2812" x="58.149525" y="199.971035" style="fill: #d8bfd8; stroke: #702963"/>
     <use xlink:href="#mb7ff6c2812" x="213.26397" y="23.636364" style="fill: #d8bfd8; stroke: #702963"/>
     <use xlink:href="#mb7ff6c2812" x="190.775735" y="34.259037" style="fill: #d8bfd8; stroke: #702963"/>
     <use xlink:href="#mb7ff6c2812" x="178.076119" y="66.382614" style="fill: #d8bfd8; stroke: #702963"/>
     <use xlink:href="#mb7ff6c2812" x="170.782637" y="96.282841" style="fill: #d8bfd8; stroke: #702963"/>
     <use xlink:href="#mb7ff6c2812" x="77.918699" y="98.829897" style="fill: #d8bfd8; stroke: #702963"/>
     <use xlink:href="#mb7ff6c2812" x="80.989639" y="85.557945" style="fill: #d8bfd8; stroke: #702963"/>
     <use xlink:href="#mb7ff6c2812" x="130.092686" y="63.239257" style="fill: #d8bfd8; stroke: #702963"/>
     <use xlink:href="#mb7ff6c2812" x="125.774177" y="87.304254" style="fill: #d8bfd8; stroke: #702963"/>
     <use xlink:href="#mb7ff6c2812" x="58.053558" y="199.161769" style="fill: #d8bfd8; stroke: #702963"/>
     <use xlink:href="#mb7ff6c2812" x="58.053558" y="199.476957" style="fill: #d8bfd8; stroke: #702963"/>
     <use xlink:href="#mb7ff6c2812" x="58.053558" y="199.664366" style="fill: #d8bfd8; stroke: #702963"/>
     <use xlink:href="#mb7ff6c2812" x="132.779758" y="79.552343" style="fill: #d8bfd8; stroke: #702963"/>
     <use xlink:href="#mb7ff6c2812" x="130.188653" y="62.73666" style="fill: #d8bfd8; stroke: #702963"/>
     <use xlink:href="#mb7ff6c2812" x="123.087105" y="73.793781" style="fill: #d8bfd8; stroke: #702963"/>
     <use xlink:href="#mb7ff6c2812" x="192.119271" y="65.547793" style="fill: #d8bfd8; stroke: #702963"/>
     <use xlink:href="#mb7ff6c2812" x="194.230542" y="75.718981" style="fill: #d8bfd8; stroke: #702963"/>
     <use xlink:href="#mb7ff6c2812" x="189.720099" y="62.165915" style="fill: #d8bfd8; stroke: #702963"/>
     <use xlink:href="#mb7ff6c2812" x="127.21368" y="78.513076" style="fill: #d8bfd8; stroke: #702963"/>
     <use xlink:href="#mb7ff6c2812" x="188.984353" y="30.025301" style="fill: #d8bfd8; stroke: #702963"/>
     <use xlink:href="#mb7ff6c2812" x="180.123412" y="73.25711" style="fill: #d8bfd8; stroke: #702963"/>
     <use xlink:href="#mb7ff6c2812" x="73.888091" y="147.113226" style="fill: #d8bfd8; stroke: #702963"/>
     <use xlink:href="#mb7ff6c2812" x="73.504223" y="160.37666" style="fill: #d8bfd8; stroke: #702963"/>
     <use xlink:href="#mb7ff6c2812" x="73.472235" y="153.246606" style="fill: #d8bfd8; stroke: #702963"/>
     <use xlink:href="#mb7ff6c2812" x="79.678092" y="117.323741" style="fill: #d8bfd8; stroke: #702963"/>
     <use xlink:href="#mb7ff6c2812" x="80.221904" y="108.472933" style="fill: #d8bfd8; stroke: #702963"/>
     <use xlink:href="#mb7ff6c2812" x="82.013286" y="116.446327" style="fill: #d8bfd8; stroke: #702963"/>
     <use xlink:href="#mb7ff6c2812" x="61.796266" y="185.229627" style="fill: #d8bfd8; stroke: #702963"/>
     <use xlink:href="#mb7ff6c2812" x="61.860244" y="176.540672" style="fill: #d8bfd8; stroke: #702963"/>
     <use xlink:href="#mb7ff6c2812" x="61.700299" y="186.000558" style="fill: #d8bfd8; stroke: #702963"/>
     <use xlink:href="#mb7ff6c2812" x="78.302567" y="145.669326" style="fill: #d8bfd8; stroke: #702963"/>
     <use xlink:href="#mb7ff6c2812" x="76.06334" y="142.70486" style="fill: #d8bfd8; stroke: #702963"/>
     <use xlink:href="#mb7ff6c2812" x="75.74345" y="139.829838" style="fill: #d8bfd8; stroke: #702963"/>
     <use xlink:href="#mb7ff6c2812" x="58.181514" y="199.068065" style="fill: #d8bfd8; stroke: #702963"/>
     <use xlink:href="#mb7ff6c2812" x="58.277481" y="198.020279" style="fill: #d8bfd8; stroke: #702963"/>
     <use xlink:href="#mb7ff6c2812" x="58.053558" y="198.544172" style="fill: #d8bfd8; stroke: #702963"/>
     <use xlink:href="#mb7ff6c2812" x="179.707556" y="96.385064" style="fill: #d8bfd8; stroke: #702963"/>
     <use xlink:href="#mb7ff6c2812" x="185.465568" y="92.193921" style="fill: #d8bfd8; stroke: #702963"/>
     <use xlink:href="#mb7ff6c2812" x="190.167945" y="87.478885" style="fill: #d8bfd8; stroke: #702963"/>
     <use xlink:href="#mb7ff6c2812" x="155.939762" y="62.506659" style="fill: #d8bfd8; stroke: #702963"/>
     <use xlink:href="#mb7ff6c2812" x="157.315287" y="78.747337" style="fill: #d8bfd8; stroke: #702963"/>
     <use xlink:href="#mb7ff6c2812" x="145.991197" y="80.842909" style="fill: #d8bfd8; stroke: #702963"/>
     <use xlink:href="#mb7ff6c2812" x="87.227485" y="125.548433" style="fill: #d8bfd8; stroke: #702963"/>
     <use xlink:href="#mb7ff6c2812" x="89.882569" y="116.118362" style="fill: #d8bfd8; stroke: #702963"/>
     <use xlink:href="#mb7ff6c2812" x="114.194175" y="99.528421" style="fill: #d8bfd8; stroke: #702963"/>
     <use xlink:href="#mb7ff6c2812" x="110.995279" y="101.623992" style="fill: #d8bfd8; stroke: #702963"/>
     <use xlink:href="#mb7ff6c2812" x="117.393071" y="94.638754" style="fill: #d8bfd8; stroke: #702963"/>
     <use xlink:href="#mb7ff6c2812" x="73.408257" y="155.061064" style="fill: #d8bfd8; stroke: #702963"/>
     <use xlink:href="#mb7ff6c2812" x="73.376268" y="154.886433" style="fill: #d8bfd8; stroke: #702963"/>
     <use xlink:href="#mb7ff6c2812" x="73.536212" y="154.537172" style="fill: #d8bfd8; stroke: #702963"/>
     <use xlink:href="#mb7ff6c2812" x="80.541794" y="127.644005" style="fill: #d8bfd8; stroke: #702963"/>
     <use xlink:href="#mb7ff6c2812" x="77.374887" y="128.342528" style="fill: #d8bfd8; stroke: #702963"/>
     <use xlink:href="#mb7ff6c2812" x="77.023009" y="125.02454" style="fill: #d8bfd8; stroke: #702963"/>
     <use xlink:href="#mb7ff6c2812" x="61.604332" y="178.810874" style="fill: #d8bfd8; stroke: #702963"/>
     <use xlink:href="#mb7ff6c2812" x="61.412398" y="180.731815" style="fill: #d8bfd8; stroke: #702963"/>
     <use xlink:href="#mb7ff6c2812" x="61.476376" y="179.334767" style="fill: #d8bfd8; stroke: #702963"/>
     <use xlink:href="#mb7ff6c2812" x="75.775439" y="149.123612" style="fill: #d8bfd8; stroke: #702963"/>
     <use xlink:href="#mb7ff6c2812" x="77.822732" y="142.662267" style="fill: #d8bfd8; stroke: #702963"/>
     <use xlink:href="#mb7ff6c2812" x="76.031351" y="148.425088" style="fill: #d8bfd8; stroke: #702963"/>
    </g>
   </g>
   <g id="line2d_16">
    <path d="M 58.053558 201.163636 
L 59.94975 190.818201 
L 61.845943 181.676106 
L 63.742136 173.538938 
L 65.638328 166.249632 
L 67.534521 159.682235 
L 69.430713 153.734564 
L 71.326906 148.32285 
L 73.223098 143.377773 
L 76.067387 136.711095 
L 78.911676 130.807935 
L 81.755965 125.544233 
L 84.600254 120.821424 
L 87.444542 116.560209 
L 90.288831 112.696068 
L 93.13312 109.175973 
L 95.977409 105.955932 
L 98.821698 102.999148 
L 102.614083 99.413367 
L 106.406468 96.180043 
L 110.198853 93.249646 
L 113.991238 90.581509 
L 117.783623 88.141932 
L 122.524105 85.371408 
L 127.264586 82.868854 
L 132.005067 80.597186 
L 137.693645 78.133326 
L 143.382223 75.915055 
L 150.018897 73.591175 
L 156.65557 71.509385 
L 164.240341 69.380833 
L 171.825111 67.478739 
L 180.357977 65.567114 
L 189.83894 63.681334 
L 200.267999 61.848462 
L 211.645154 60.088005 
L 223.970406 58.412982 
L 237.243754 56.831113 
L 246.724717 55.819423 
L 246.724717 55.819423 
" clip-path="url(#pf8e9ea01cb)" style="fill: none; stroke: #ef553b; stroke-width: 1.5; stroke-linecap: round"/>
   </g>
   <g id="patch_3">
    <path d="M 48.62 210.04 
L 48.62 14.76 
" style="fill: none; stroke: #262626; stroke-width: 0.8; stroke-linejoin: miter; stroke-linecap: square"/>
   </g>
   <g id="patch_4">
    <path d="M 256.158275 210.04 
L 256.158275 14.76 
" style="fill: none; stroke: #262626; stroke-width: 0.8; stroke-linejoin: miter; stroke-linecap: square"/>
   </g>
   <g id="patch_5">
    <path d="M 48.62 210.04 
L 256.158275 210.04 
" style="fill: none; stroke: #262626; stroke-width: 0.8; stroke-linejoin: miter; stroke-linecap: square"/>
   </g>
   <g id="patch_6">
    <path d="M 48.62 14.76 
L 256.158275 14.76 
" style="fill: none; stroke: #262626; stroke-width: 0.8; stroke-linejoin: miter; stroke-linecap: square"/>
   </g>
   <g id="legend_1">
    <g id="line2d_17">
     <g>
      <use xlink:href="#mb7ff6c2812" x="67.62" y="27.417812" style="fill: #d8bfd8; stroke: #702963"/>
     </g>
    </g>
    <g id="text_17">
     <!-- XdCrtI -->
     <g style="fill: #262626" transform="translate(85.62 30.917812) scale(0.1 -0.1)">
      <defs>
       <path id="ArialMT-58" d="M 28 0 
L 1800 2388 
L 238 4581 
L 959 4581 
L 1791 3406 
Q 2050 3041 2159 2844 
Q 2313 3094 2522 3366 
L 3444 4581 
L 4103 4581 
L 2494 2422 
L 4228 0 
L 3478 0 
L 2325 1634 
Q 2228 1775 2125 1941 
Q 1972 1691 1906 1597 
L 756 0 
L 28 0 
z
" transform="scale(0.015625)"/>
       <path id="ArialMT-64" d="M 2575 0 
L 2575 419 
Q 2259 -75 1647 -75 
Q 1250 -75 917 144 
Q 584 363 401 755 
Q 219 1147 219 1656 
Q 219 2153 384 2558 
Q 550 2963 881 3178 
Q 1213 3394 1622 3394 
Q 1922 3394 2156 3267 
Q 2391 3141 2538 2938 
L 2538 4581 
L 3097 4581 
L 3097 0 
L 2575 0 
z
M 797 1656 
Q 797 1019 1065 703 
Q 1334 388 1700 388 
Q 2069 388 2326 689 
Q 2584 991 2584 1609 
Q 2584 2291 2321 2609 
Q 2059 2928 1675 2928 
Q 1300 2928 1048 2622 
Q 797 2316 797 1656 
z
" transform="scale(0.015625)"/>
       <path id="ArialMT-43" d="M 3763 1606 
L 4369 1453 
Q 4178 706 3683 314 
Q 3188 -78 2472 -78 
Q 1731 -78 1267 223 
Q 803 525 561 1097 
Q 319 1669 319 2325 
Q 319 3041 592 3573 
Q 866 4106 1370 4382 
Q 1875 4659 2481 4659 
Q 3169 4659 3637 4309 
Q 4106 3959 4291 3325 
L 3694 3184 
Q 3534 3684 3231 3912 
Q 2928 4141 2469 4141 
Q 1941 4141 1586 3887 
Q 1231 3634 1087 3207 
Q 944 2781 944 2328 
Q 944 1744 1114 1308 
Q 1284 872 1643 656 
Q 2003 441 2422 441 
Q 2931 441 3284 734 
Q 3638 1028 3763 1606 
z
" transform="scale(0.015625)"/>
       <path id="ArialMT-72" d="M 416 0 
L 416 3319 
L 922 3319 
L 922 2816 
Q 1116 3169 1280 3281 
Q 1444 3394 1641 3394 
Q 1925 3394 2219 3213 
L 2025 2691 
Q 1819 2813 1613 2813 
Q 1428 2813 1281 2702 
Q 1134 2591 1072 2394 
Q 978 2094 978 1738 
L 978 0 
L 416 0 
z
" transform="scale(0.015625)"/>
       <path id="ArialMT-49" d="M 597 0 
L 597 4581 
L 1203 4581 
L 1203 0 
L 597 0 
z
" transform="scale(0.015625)"/>
      </defs>
      <use xlink:href="#ArialMT-58"/>
      <use xlink:href="#ArialMT-64" x="66.699219"/>
      <use xlink:href="#ArialMT-43" x="122.314453"/>
      <use xlink:href="#ArialMT-72" x="194.53125"/>
      <use xlink:href="#ArialMT-74" x="227.832031"/>
      <use xlink:href="#ArialMT-49" x="255.615234"/>
     </g>
    </g>
    <g id="line2d_18">
     <path d="M 57.62 41.685 
L 67.62 41.685 
L 77.62 41.685 
" style="fill: none; stroke: #ef553b; stroke-width: 1.5; stroke-linecap: round"/>
    </g>
    <g id="text_18">
     <!-- best fit (95% CI) -->
     <g style="fill: #262626" transform="translate(85.62 45.185) scale(0.1 -0.1)">
      <defs>
       <path id="ArialMT-62" d="M 941 0 
L 419 0 
L 419 4581 
L 981 4581 
L 981 2947 
Q 1338 3394 1891 3394 
Q 2197 3394 2470 3270 
Q 2744 3147 2920 2923 
Q 3097 2700 3197 2384 
Q 3297 2069 3297 1709 
Q 3297 856 2875 390 
Q 2453 -75 1863 -75 
Q 1275 -75 941 416 
L 941 0 
z
M 934 1684 
Q 934 1088 1097 822 
Q 1363 388 1816 388 
Q 2184 388 2453 708 
Q 2722 1028 2722 1663 
Q 2722 2313 2464 2622 
Q 2206 2931 1841 2931 
Q 1472 2931 1203 2611 
Q 934 2291 934 1684 
z
" transform="scale(0.015625)"/>
       <path id="ArialMT-73" d="M 197 991 
L 753 1078 
Q 800 744 1014 566 
Q 1228 388 1613 388 
Q 2000 388 2187 545 
Q 2375 703 2375 916 
Q 2375 1106 2209 1216 
Q 2094 1291 1634 1406 
Q 1016 1563 777 1677 
Q 538 1791 414 1992 
Q 291 2194 291 2438 
Q 291 2659 392 2848 
Q 494 3038 669 3163 
Q 800 3259 1026 3326 
Q 1253 3394 1513 3394 
Q 1903 3394 2198 3281 
Q 2494 3169 2634 2976 
Q 2775 2784 2828 2463 
L 2278 2388 
Q 2241 2644 2061 2787 
Q 1881 2931 1553 2931 
Q 1166 2931 1000 2803 
Q 834 2675 834 2503 
Q 834 2394 903 2306 
Q 972 2216 1119 2156 
Q 1203 2125 1616 2013 
Q 2213 1853 2448 1751 
Q 2684 1650 2818 1456 
Q 2953 1263 2953 975 
Q 2953 694 2789 445 
Q 2625 197 2315 61 
Q 2006 -75 1616 -75 
Q 969 -75 630 194 
Q 291 463 197 991 
z
" transform="scale(0.015625)"/>
       <path id="ArialMT-69" d="M 425 3934 
L 425 4581 
L 988 4581 
L 988 3934 
L 425 3934 
z
M 425 0 
L 425 3319 
L 988 3319 
L 988 0 
L 425 0 
z
" transform="scale(0.015625)"/>
       <path id="ArialMT-39" d="M 350 1059 
L 891 1109 
Q 959 728 1153 556 
Q 1347 384 1650 384 
Q 1909 384 2104 503 
Q 2300 622 2425 820 
Q 2550 1019 2634 1356 
Q 2719 1694 2719 2044 
Q 2719 2081 2716 2156 
Q 2547 1888 2255 1720 
Q 1963 1553 1622 1553 
Q 1053 1553 659 1965 
Q 266 2378 266 3053 
Q 266 3750 677 4175 
Q 1088 4600 1706 4600 
Q 2153 4600 2523 4359 
Q 2894 4119 3086 3673 
Q 3278 3228 3278 2384 
Q 3278 1506 3087 986 
Q 2897 466 2520 194 
Q 2144 -78 1638 -78 
Q 1100 -78 759 220 
Q 419 519 350 1059 
z
M 2653 3081 
Q 2653 3566 2395 3850 
Q 2138 4134 1775 4134 
Q 1400 4134 1122 3828 
Q 844 3522 844 3034 
Q 844 2597 1108 2323 
Q 1372 2050 1759 2050 
Q 2150 2050 2401 2323 
Q 2653 2597 2653 3081 
z
" transform="scale(0.015625)"/>
       <path id="ArialMT-25" d="M 372 3481 
Q 372 3972 619 4315 
Q 866 4659 1334 4659 
Q 1766 4659 2048 4351 
Q 2331 4044 2331 3447 
Q 2331 2866 2045 2552 
Q 1759 2238 1341 2238 
Q 925 2238 648 2547 
Q 372 2856 372 3481 
z
M 1350 4272 
Q 1141 4272 1002 4090 
Q 863 3909 863 3425 
Q 863 2984 1003 2804 
Q 1144 2625 1350 2625 
Q 1563 2625 1702 2806 
Q 1841 2988 1841 3469 
Q 1841 3913 1700 4092 
Q 1559 4272 1350 4272 
z
M 1353 -169 
L 3859 4659 
L 4316 4659 
L 1819 -169 
L 1353 -169 
z
M 3334 1075 
Q 3334 1569 3581 1911 
Q 3828 2253 4300 2253 
Q 4731 2253 5014 1945 
Q 5297 1638 5297 1041 
Q 5297 459 5011 145 
Q 4725 -169 4303 -169 
Q 3888 -169 3611 142 
Q 3334 453 3334 1075 
z
M 4316 1866 
Q 4103 1866 3964 1684 
Q 3825 1503 3825 1019 
Q 3825 581 3965 400 
Q 4106 219 4313 219 
Q 4528 219 4667 400 
Q 4806 581 4806 1063 
Q 4806 1506 4665 1686 
Q 4525 1866 4316 1866 
z
" transform="scale(0.015625)"/>
      </defs>
      <use xlink:href="#ArialMT-62"/>
      <use xlink:href="#ArialMT-65" x="55.615234"/>
      <use xlink:href="#ArialMT-73" x="111.230469"/>
      <use xlink:href="#ArialMT-74" x="161.230469"/>
      <use xlink:href="#ArialMT-20" x="189.013672"/>
      <use xlink:href="#ArialMT-66" x="216.796875"/>
      <use xlink:href="#ArialMT-69" x="244.580078"/>
      <use xlink:href="#ArialMT-74" x="266.796875"/>
      <use xlink:href="#ArialMT-20" x="294.580078"/>
      <use xlink:href="#ArialMT-28" x="322.363281"/>
      <use xlink:href="#ArialMT-39" x="355.664062"/>
      <use xlink:href="#ArialMT-35" x="411.279297"/>
      <use xlink:href="#ArialMT-25" x="466.894531"/>
      <use xlink:href="#ArialMT-20" x="555.810547"/>
      <use xlink:href="#ArialMT-43" x="583.59375"/>
      <use xlink:href="#ArialMT-49" x="655.810547"/>
      <use xlink:href="#ArialMT-29" x="683.59375"/>
     </g>
    </g>
   </g>
  </g>
  <g id="axes_2">
   <g id="patch_7">
    <path d="M 311.140863 210.04 
L 477.171482 210.04 
L 477.171482 14.76 
L 311.140863 14.76 
z
" style="fill: #ffffff"/>
   </g>
   <g id="matplotlib.axis_3">
    <g id="xtick_7">
     <g id="line2d_19">
      <g>
       <use xlink:href="#m2febe14ebb" x="331.205473" y="210.04" style="fill: #262626; stroke: #262626; stroke-width: 0.8"/>
      </g>
     </g>
     <g id="text_19">
      <!-- 140 -->
      <g style="fill: #262626" transform="translate(322.864067 224.197812) scale(0.1 -0.1)">
       <defs>
        <path id="ArialMT-34" d="M 2069 0 
L 2069 1097 
L 81 1097 
L 81 1613 
L 2172 4581 
L 2631 4581 
L 2631 1613 
L 3250 1613 
L 3250 1097 
L 2631 1097 
L 2631 0 
L 2069 0 
z
M 2069 1613 
L 2069 3678 
L 634 1613 
L 2069 1613 
z
" transform="scale(0.015625)"/>
       </defs>
       <use xlink:href="#ArialMT-31"/>
       <use xlink:href="#ArialMT-34" x="55.615234"/>
       <use xlink:href="#ArialMT-30" x="111.230469"/>
      </g>
     </g>
    </g>
    <g id="xtick_8">
     <g id="line2d_20">
      <g>
       <use xlink:href="#m2febe14ebb" x="375.517729" y="210.04" style="fill: #262626; stroke: #262626; stroke-width: 0.8"/>
      </g>
     </g>
     <g id="text_20">
      <!-- 160 -->
      <g style="fill: #262626" transform="translate(367.176323 224.197812) scale(0.1 -0.1)">
       <defs>
        <path id="ArialMT-36" d="M 3184 3459 
L 2625 3416 
Q 2550 3747 2413 3897 
Q 2184 4138 1850 4138 
Q 1581 4138 1378 3988 
Q 1113 3794 959 3422 
Q 806 3050 800 2363 
Q 1003 2672 1297 2822 
Q 1591 2972 1913 2972 
Q 2475 2972 2870 2558 
Q 3266 2144 3266 1488 
Q 3266 1056 3080 686 
Q 2894 316 2569 119 
Q 2244 -78 1831 -78 
Q 1128 -78 684 439 
Q 241 956 241 2144 
Q 241 3472 731 4075 
Q 1159 4600 1884 4600 
Q 2425 4600 2770 4297 
Q 3116 3994 3184 3459 
z
M 888 1484 
Q 888 1194 1011 928 
Q 1134 663 1356 523 
Q 1578 384 1822 384 
Q 2178 384 2434 671 
Q 2691 959 2691 1453 
Q 2691 1928 2437 2201 
Q 2184 2475 1800 2475 
Q 1419 2475 1153 2201 
Q 888 1928 888 1484 
z
" transform="scale(0.015625)"/>
       </defs>
       <use xlink:href="#ArialMT-31"/>
       <use xlink:href="#ArialMT-36" x="55.615234"/>
       <use xlink:href="#ArialMT-30" x="111.230469"/>
      </g>
     </g>
    </g>
    <g id="xtick_9">
     <g id="line2d_21">
      <g>
       <use xlink:href="#m2febe14ebb" x="419.829986" y="210.04" style="fill: #262626; stroke: #262626; stroke-width: 0.8"/>
      </g>
     </g>
     <g id="text_21">
      <!-- 180 -->
      <g style="fill: #262626" transform="translate(411.488579 224.197812) scale(0.1 -0.1)">
       <defs>
        <path id="ArialMT-38" d="M 1131 2484 
Q 781 2613 612 2850 
Q 444 3088 444 3419 
Q 444 3919 803 4259 
Q 1163 4600 1759 4600 
Q 2359 4600 2725 4251 
Q 3091 3903 3091 3403 
Q 3091 3084 2923 2848 
Q 2756 2613 2416 2484 
Q 2838 2347 3058 2040 
Q 3278 1734 3278 1309 
Q 3278 722 2862 322 
Q 2447 -78 1769 -78 
Q 1091 -78 675 323 
Q 259 725 259 1325 
Q 259 1772 486 2073 
Q 713 2375 1131 2484 
z
M 1019 3438 
Q 1019 3113 1228 2906 
Q 1438 2700 1772 2700 
Q 2097 2700 2305 2904 
Q 2513 3109 2513 3406 
Q 2513 3716 2298 3927 
Q 2084 4138 1766 4138 
Q 1444 4138 1231 3931 
Q 1019 3725 1019 3438 
z
M 838 1322 
Q 838 1081 952 856 
Q 1066 631 1291 507 
Q 1516 384 1775 384 
Q 2178 384 2440 643 
Q 2703 903 2703 1303 
Q 2703 1709 2433 1975 
Q 2163 2241 1756 2241 
Q 1359 2241 1098 1978 
Q 838 1716 838 1322 
z
" transform="scale(0.015625)"/>
       </defs>
       <use xlink:href="#ArialMT-31"/>
       <use xlink:href="#ArialMT-38" x="55.615234"/>
       <use xlink:href="#ArialMT-30" x="111.230469"/>
      </g>
     </g>
    </g>
    <g id="xtick_10">
     <g id="line2d_22">
      <g>
       <use xlink:href="#m2febe14ebb" x="464.142242" y="210.04" style="fill: #262626; stroke: #262626; stroke-width: 0.8"/>
      </g>
     </g>
     <g id="text_22">
      <!-- 200 -->
      <g style="fill: #262626" transform="translate(455.800836 224.197812) scale(0.1 -0.1)">
       <use xlink:href="#ArialMT-32"/>
       <use xlink:href="#ArialMT-30" x="55.615234"/>
       <use xlink:href="#ArialMT-30" x="111.230469"/>
      </g>
     </g>
    </g>
    <g id="text_23">
     <!-- vmax -->
     <g style="fill: #262626" transform="translate(382.21086 237.343125) scale(0.1 -0.1)">
      <defs>
       <path id="ArialMT-76" d="M 1344 0 
L 81 3319 
L 675 3319 
L 1388 1331 
Q 1503 1009 1600 663 
Q 1675 925 1809 1294 
L 2547 3319 
L 3125 3319 
L 1869 0 
L 1344 0 
z
" transform="scale(0.015625)"/>
       <path id="ArialMT-6d" d="M 422 0 
L 422 3319 
L 925 3319 
L 925 2853 
Q 1081 3097 1340 3245 
Q 1600 3394 1931 3394 
Q 2300 3394 2536 3241 
Q 2772 3088 2869 2813 
Q 3263 3394 3894 3394 
Q 4388 3394 4653 3120 
Q 4919 2847 4919 2278 
L 4919 0 
L 4359 0 
L 4359 2091 
Q 4359 2428 4304 2576 
Q 4250 2725 4106 2815 
Q 3963 2906 3769 2906 
Q 3419 2906 3187 2673 
Q 2956 2441 2956 1928 
L 2956 0 
L 2394 0 
L 2394 2156 
Q 2394 2531 2256 2718 
Q 2119 2906 1806 2906 
Q 1569 2906 1367 2781 
Q 1166 2656 1075 2415 
Q 984 2175 984 1722 
L 984 0 
L 422 0 
z
" transform="scale(0.015625)"/>
       <path id="ArialMT-61" d="M 2588 409 
Q 2275 144 1986 34 
Q 1697 -75 1366 -75 
Q 819 -75 525 192 
Q 231 459 231 875 
Q 231 1119 342 1320 
Q 453 1522 633 1644 
Q 813 1766 1038 1828 
Q 1203 1872 1538 1913 
Q 2219 1994 2541 2106 
Q 2544 2222 2544 2253 
Q 2544 2597 2384 2738 
Q 2169 2928 1744 2928 
Q 1347 2928 1158 2789 
Q 969 2650 878 2297 
L 328 2372 
Q 403 2725 575 2942 
Q 747 3159 1072 3276 
Q 1397 3394 1825 3394 
Q 2250 3394 2515 3294 
Q 2781 3194 2906 3042 
Q 3031 2891 3081 2659 
Q 3109 2516 3109 2141 
L 3109 1391 
Q 3109 606 3145 398 
Q 3181 191 3288 0 
L 2700 0 
Q 2613 175 2588 409 
z
M 2541 1666 
Q 2234 1541 1622 1453 
Q 1275 1403 1131 1340 
Q 988 1278 909 1158 
Q 831 1038 831 891 
Q 831 666 1001 516 
Q 1172 366 1500 366 
Q 1825 366 2078 508 
Q 2331 650 2450 897 
Q 2541 1088 2541 1459 
L 2541 1666 
z
" transform="scale(0.015625)"/>
      </defs>
      <use xlink:href="#ArialMT-76"/>
      <use xlink:href="#ArialMT-6d" x="50"/>
      <use xlink:href="#ArialMT-61" x="133.300781"/>
      <use xlink:href="#ArialMT-78" x="188.916016"/>
     </g>
    </g>
   </g>
   <g id="matplotlib.axis_4">
    <g id="ytick_9">
     <g id="line2d_23">
      <g>
       <use xlink:href="#m5d730cbd0c" x="311.140863" y="182.821201" style="fill: #262626; stroke: #262626; stroke-width: 0.8"/>
      </g>
     </g>
     <g id="text_24">
      <!-- 200 -->
      <g style="fill: #262626" transform="translate(287.45805 186.400108) scale(0.1 -0.1)">
       <use xlink:href="#ArialMT-32"/>
       <use xlink:href="#ArialMT-30" x="55.615234"/>
       <use xlink:href="#ArialMT-30" x="111.230469"/>
      </g>
     </g>
    </g>
    <g id="ytick_10">
     <g id="line2d_24">
      <g>
       <use xlink:href="#m5d730cbd0c" x="311.140863" y="143.668631" style="fill: #262626; stroke: #262626; stroke-width: 0.8"/>
      </g>
     </g>
     <g id="text_25">
      <!-- 300 -->
      <g style="fill: #262626" transform="translate(287.45805 147.247537) scale(0.1 -0.1)">
       <defs>
        <path id="ArialMT-33" d="M 269 1209 
L 831 1284 
Q 928 806 1161 595 
Q 1394 384 1728 384 
Q 2125 384 2398 659 
Q 2672 934 2672 1341 
Q 2672 1728 2419 1979 
Q 2166 2231 1775 2231 
Q 1616 2231 1378 2169 
L 1441 2663 
Q 1497 2656 1531 2656 
Q 1891 2656 2178 2843 
Q 2466 3031 2466 3422 
Q 2466 3731 2256 3934 
Q 2047 4138 1716 4138 
Q 1388 4138 1169 3931 
Q 950 3725 888 3313 
L 325 3413 
Q 428 3978 793 4289 
Q 1159 4600 1703 4600 
Q 2078 4600 2393 4439 
Q 2709 4278 2876 4000 
Q 3044 3722 3044 3409 
Q 3044 3113 2884 2869 
Q 2725 2625 2413 2481 
Q 2819 2388 3044 2092 
Q 3269 1797 3269 1353 
Q 3269 753 2831 336 
Q 2394 -81 1725 -81 
Q 1122 -81 723 278 
Q 325 638 269 1209 
z
" transform="scale(0.015625)"/>
       </defs>
       <use xlink:href="#ArialMT-33"/>
       <use xlink:href="#ArialMT-30" x="55.615234"/>
       <use xlink:href="#ArialMT-30" x="111.230469"/>
      </g>
     </g>
    </g>
    <g id="ytick_11">
     <g id="line2d_25">
      <g>
       <use xlink:href="#m5d730cbd0c" x="311.140863" y="104.51606" style="fill: #262626; stroke: #262626; stroke-width: 0.8"/>
      </g>
     </g>
     <g id="text_26">
      <!-- 400 -->
      <g style="fill: #262626" transform="translate(287.45805 108.094966) scale(0.1 -0.1)">
       <use xlink:href="#ArialMT-34"/>
       <use xlink:href="#ArialMT-30" x="55.615234"/>
       <use xlink:href="#ArialMT-30" x="111.230469"/>
      </g>
     </g>
    </g>
    <g id="ytick_12">
     <g id="line2d_26">
      <g>
       <use xlink:href="#m5d730cbd0c" x="311.140863" y="65.363489" style="fill: #262626; stroke: #262626; stroke-width: 0.8"/>
      </g>
     </g>
     <g id="text_27">
      <!-- 500 -->
      <g style="fill: #262626" transform="translate(287.45805 68.942395) scale(0.1 -0.1)">
       <use xlink:href="#ArialMT-35"/>
       <use xlink:href="#ArialMT-30" x="55.615234"/>
       <use xlink:href="#ArialMT-30" x="111.230469"/>
      </g>
     </g>
    </g>
    <g id="ytick_13">
     <g id="line2d_27">
      <g>
       <use xlink:href="#m5d730cbd0c" x="311.140863" y="26.210918" style="fill: #262626; stroke: #262626; stroke-width: 0.8"/>
      </g>
     </g>
     <g id="text_28">
      <!-- 600 -->
      <g style="fill: #262626" transform="translate(287.45805 29.789824) scale(0.1 -0.1)">
       <use xlink:href="#ArialMT-36"/>
       <use xlink:href="#ArialMT-30" x="55.615234"/>
       <use xlink:href="#ArialMT-30" x="111.230469"/>
      </g>
     </g>
    </g>
    <g id="text_29">
     <!-- km -->
     <g style="fill: #262626" transform="translate(281.47055 119.064844) rotate(-90) scale(0.1 -0.1)">
      <defs>
       <path id="ArialMT-6b" d="M 425 0 
L 425 4581 
L 988 4581 
L 988 1969 
L 2319 3319 
L 3047 3319 
L 1778 2088 
L 3175 0 
L 2481 0 
L 1384 1697 
L 988 1316 
L 988 0 
L 425 0 
z
" transform="scale(0.015625)"/>
      </defs>
      <use xlink:href="#ArialMT-6b"/>
      <use xlink:href="#ArialMT-6d" x="50"/>
     </g>
    </g>
   </g>
   <g id="QuadContourSet_1">
    <path clip-path="url(#pbc5df28e9d)" style="fill: #130d25"/>
    <path d="M 392.461983 115.35356 
L 393.42336 114.392653 
L 392.461983 113.246364 
L 391.62177 114.392653 
z
M 395.850363 111.548635 
L 396.706008 110.407347 
L 395.850363 109.381961 
L 394.866727 110.407347 
z
" clip-path="url(#pbc5df28e9d)" style="fill: #381a40"/>
    <path d="M 392.461983 116.381688 
L 394.451991 114.392653 
L 395.850363 112.754009 
L 397.6097 110.407347 
L 395.850363 108.298997 
L 393.827857 110.407347 
L 392.461983 112.019885 
L 390.72278 114.392653 
z
M 391.62177 114.392653 
L 392.461983 113.246364 
L 393.42336 114.392653 
L 392.461983 115.35356 
z
M 394.866727 110.407347 
L 395.850363 109.381961 
L 396.706008 110.407347 
L 395.850363 111.548635 
z
" clip-path="url(#pbc5df28e9d)" style="fill: #611f53"/>
    <path d="M 389.073603 119.366475 
L 390.59449 118.377959 
L 392.461983 117.409817 
L 395.480623 114.392653 
L 395.850363 113.959384 
L 398.513392 110.407347 
L 399.238743 108.500763 
L 400.271046 106.422041 
L 399.238743 105.140909 
L 397.395014 106.422041 
L 395.850363 107.216032 
L 392.788987 110.407347 
L 392.461983 110.793405 
L 389.823789 114.392653 
L 389.073603 116.469415 
L 388.168401 118.377959 
z
M 390.72278 114.392653 
L 392.461983 112.019885 
L 393.827857 110.407347 
L 395.850363 108.298997 
L 397.6097 110.407347 
L 395.850363 112.754009 
L 394.451991 114.392653 
L 392.461983 116.381688 
z
" clip-path="url(#pbc5df28e9d)" style="fill: #8b1d5b"/>
    <path d="M 389.073603 120.655478 
L 392.461983 118.428115 
L 392.511965 118.377959 
L 395.850363 114.955247 
L 396.342027 114.392653 
L 399.238743 110.605394 
L 399.391099 110.407347 
L 401.450658 106.422041 
L 399.238743 103.67696 
L 395.850363 106.169757 
L 395.616269 106.422041 
L 392.461983 109.7694 
L 391.931821 110.407347 
L 389.073603 114.221746 
L 388.946822 114.392653 
L 386.988039 118.377959 
z
M 388.168401 118.377959 
L 389.073603 116.469415 
L 389.823789 114.392653 
L 392.461983 110.793405 
L 392.788987 110.407347 
L 395.850363 107.216032 
L 397.395014 106.422041 
L 399.238743 105.140909 
L 400.271046 106.422041 
L 399.238743 108.500763 
L 398.513392 110.407347 
L 395.850363 113.959384 
L 395.480623 114.392653 
L 392.461983 117.409817 
L 390.59449 118.377959 
L 389.073603 119.366475 
z
" clip-path="url(#pbc5df28e9d)" style="fill: #b71657"/>
    <path d="M 385.685223 123.170336 
L 387.811636 122.363265 
L 389.073603 121.94448 
L 392.461983 119.287757 
L 393.368625 118.377959 
L 395.850363 115.833544 
L 397.109592 114.392653 
L 399.238743 111.608932 
L 400.163119 110.407347 
L 402.627123 106.425371 
L 402.629354 106.422041 
L 403.821163 102.436735 
L 402.627123 100.872841 
L 399.238743 102.277792 
L 399.071766 102.436735 
L 395.850363 105.224289 
L 394.738971 106.422041 
L 392.461983 108.838403 
L 391.158124 110.407347 
L 389.073603 113.189218 
L 388.180883 114.392653 
L 385.807678 118.377959 
L 385.685223 119.012878 
L 384.896535 122.363265 
z
M 386.988039 118.377959 
L 388.946822 114.392653 
L 389.073603 114.221746 
L 391.931821 110.407347 
L 392.461983 109.7694 
L 395.616269 106.422041 
L 395.850363 106.169757 
L 399.238743 103.67696 
L 401.450658 106.422041 
L 399.391099 110.407347 
L 399.238743 110.605394 
L 396.342027 114.392653 
L 395.850363 114.955247 
L 392.511965 118.377959 
L 392.461983 118.428115 
L 389.073603 120.655478 
z
" clip-path="url(#pbc5df28e9d)" style="fill: #db2946"/>
    <path d="M 385.685223 124.644594 
L 389.073603 122.971697 
L 389.776857 122.363265 
L 392.461983 120.147399 
L 394.225286 118.377959 
L 395.850363 116.71184 
L 397.877156 114.392653 
L 399.238743 112.612471 
L 400.935138 110.407347 
L 402.627123 107.673 
L 403.465341 106.422041 
L 405.229117 102.436735 
L 402.627123 99.028774 
L 399.238743 101.237741 
L 397.979147 102.436735 
L 395.850363 104.27882 
L 393.861674 106.422041 
L 392.461983 107.907407 
L 390.384426 110.407347 
L 389.073603 112.15669 
L 387.414944 114.392653 
L 385.685223 117.245675 
L 384.950761 118.377959 
L 383.455855 122.363265 
z
M 384.896535 122.363265 
L 385.685223 119.012878 
L 385.807678 118.377959 
L 388.180883 114.392653 
L 389.073603 113.189218 
L 391.158124 110.407347 
L 392.461983 108.838403 
L 394.738971 106.422041 
L 395.850363 105.224289 
L 399.071766 102.436735 
L 399.238743 102.277792 
L 402.627123 100.872841 
L 403.821163 102.436735 
L 402.629354 106.422041 
L 402.627123 106.425371 
L 400.163119 110.407347 
L 399.238743 111.608932 
L 397.109592 114.392653 
L 395.850363 115.833544 
L 393.368625 118.377959 
L 392.461983 119.287757 
L 389.073603 121.94448 
L 387.811636 122.363265 
L 385.685223 123.170336 
z
" clip-path="url(#pbc5df28e9d)" style="fill: #ef5840"/>
    <path d="M 382.296843 126.782843 
L 384.455592 126.348571 
L 385.685223 126.118853 
L 389.073603 123.872932 
L 390.818547 122.363265 
L 392.461983 121.00704 
L 395.081946 118.377959 
L 395.850363 117.590136 
L 398.644721 114.392653 
L 399.238743 113.616009 
L 401.707158 110.407347 
L 402.627123 108.920629 
L 404.301327 106.422041 
L 406.015503 103.142764 
L 406.423707 102.436735 
L 407.383943 98.451429 
L 406.015503 96.537042 
L 402.627123 97.640719 
L 401.643351 98.451429 
L 399.238743 100.19769 
L 396.886528 102.436735 
L 395.850363 103.333352 
L 392.984377 106.422041 
L 392.461983 106.976411 
L 389.610729 110.407347 
L 389.073603 111.124162 
L 386.649005 114.392653 
L 385.685223 115.982327 
L 384.131283 118.377959 
L 382.296843 122.043155 
L 382.120261 122.363265 
L 381.838498 126.348571 
z
M 383.455855 122.363265 
L 384.950761 118.377959 
L 385.685223 117.245675 
L 387.414944 114.392653 
L 389.073603 112.15669 
L 390.384426 110.407347 
L 392.461983 107.907407 
L 393.861674 106.422041 
L 395.850363 104.27882 
L 397.979147 102.436735 
L 399.238743 101.237741 
L 402.627123 99.028774 
L 405.229117 102.436735 
L 403.465341 106.422041 
L 402.627123 107.673 
L 400.935138 110.407347 
L 399.238743 112.612471 
L 397.877156 114.392653 
L 395.850363 116.71184 
L 394.225286 118.377959 
L 392.461983 120.147399 
L 389.776857 122.363265 
L 389.073603 122.971697 
L 385.685223 124.644594 
z
" clip-path="url(#pbc5df28e9d)" style="fill: #f58860"/>
    <path d="M 382.296843 128.370338 
L 385.685223 127.160153 
L 386.789147 126.348571 
L 389.073603 124.774166 
L 391.860237 122.363265 
L 392.461983 121.866682 
L 395.850363 118.465282 
L 395.931177 118.377959 
L 399.238743 114.595499 
L 399.410617 114.392653 
L 402.479177 110.407347 
L 402.627123 110.168258 
L 405.137314 106.422041 
L 406.015503 104.742036 
L 407.348357 102.436735 
L 408.968431 98.451429 
L 407.543556 94.466122 
L 406.015503 94.377569 
L 405.888631 94.466122 
L 402.627123 96.460504 
L 400.211197 98.451429 
L 399.238743 99.157639 
L 395.850363 102.387102 
L 395.805071 102.436735 
L 392.461983 106.039842 
L 392.137061 106.422041 
L 389.073603 110.111569 
L 388.839289 110.407347 
L 385.883067 114.392653 
L 385.685223 114.718979 
L 383.311806 118.377959 
L 382.296843 120.405847 
L 381.217079 122.363265 
L 380.163004 126.348571 
z
M 381.838498 126.348571 
L 382.120261 122.363265 
L 382.296843 122.043155 
L 384.131283 118.377959 
L 385.685223 115.982327 
L 386.649005 114.392653 
L 389.073603 111.124162 
L 389.610729 110.407347 
L 392.461983 106.976411 
L 392.984377 106.422041 
L 395.850363 103.333352 
L 396.886528 102.436735 
L 399.238743 100.19769 
L 401.643351 98.451429 
L 402.627123 97.640719 
L 406.015503 96.537042 
L 407.383943 98.451429 
L 406.423707 102.436735 
L 406.015503 103.142764 
L 404.301327 106.422041 
L 402.627123 108.920629 
L 401.707158 110.407347 
L 399.238743 113.616009 
L 398.644721 114.392653 
L 395.850363 117.590136 
L 395.081946 118.377959 
L 392.461983 121.00704 
L 390.818547 122.363265 
L 389.073603 123.872932 
L 385.685223 126.118853 
L 384.455592 126.348571 
L 382.296843 126.782843 
z
" clip-path="url(#pbc5df28e9d)" style="fill: #f6b18b"/>
    <path d="M 378.908463 129.589343 
L 382.296843 129.957832 
L 385.685223 128.121537 
L 388.096835 126.348571 
L 389.073603 125.675401 
L 392.461983 122.714126 
L 392.81791 122.363265 
L 395.850363 119.312991 
L 396.715705 118.377959 
L 399.238743 115.492668 
L 400.170803 114.392653 
L 402.627123 111.204853 
L 403.24633 110.407347 
L 405.973301 106.422041 
L 406.015503 106.341308 
L 408.273007 102.436735 
L 409.403883 99.934871 
L 410.142795 98.451429 
L 410.984515 94.466122 
L 409.403883 92.085561 
L 406.015503 93.030418 
L 403.958568 94.466122 
L 402.627123 95.280289 
L 399.238743 98.127731 
L 398.920547 98.451429 
L 395.850363 101.426502 
L 394.92848 102.436735 
L 392.461983 105.095071 
L 391.333875 106.422041 
L 389.073603 109.144239 
L 388.072974 110.407347 
L 385.685223 113.626399 
L 385.121621 114.392653 
L 382.492329 118.377959 
L 382.296843 118.768539 
L 380.313897 122.363265 
L 378.908463 125.794566 
L 378.657092 126.348571 
z
M 380.163004 126.348571 
L 381.217079 122.363265 
L 382.296843 120.405847 
L 383.311806 118.377959 
L 385.685223 114.718979 
L 385.883067 114.392653 
L 388.839289 110.407347 
L 389.073603 110.111569 
L 392.137061 106.422041 
L 392.461983 106.039842 
L 395.805071 102.436735 
L 395.850363 102.387102 
L 399.238743 99.157639 
L 400.211197 98.451429 
L 402.627123 96.460504 
L 405.888631 94.466122 
L 406.015503 94.377569 
L 407.543556 94.466122 
L 408.968431 98.451429 
L 407.348357 102.436735 
L 406.015503 104.742036 
L 405.137314 106.422041 
L 402.627123 110.168258 
L 402.479177 110.407347 
L 399.410617 114.392653 
L 399.238743 114.595499 
L 395.931177 118.377959 
L 395.850363 118.465282 
L 392.461983 121.866682 
L 391.860237 122.363265 
L 389.073603 124.774166 
L 386.789147 126.348571 
L 385.685223 127.160153 
L 382.296843 128.370338 
z
" clip-path="url(#pbc5df28e9d)" style="fill: #f8d9c3"/>
   </g>
   <g id="patch_8">
    <path d="M 311.140863 210.04 
L 311.140863 14.76 
" style="fill: none; stroke: #262626; stroke-width: 0.8; stroke-linejoin: miter; stroke-linecap: square"/>
   </g>
   <g id="patch_9">
    <path d="M 477.171482 210.04 
L 477.171482 14.76 
" style="fill: none; stroke: #262626; stroke-width: 0.8; stroke-linejoin: miter; stroke-linecap: square"/>
   </g>
   <g id="patch_10">
    <path d="M 311.140863 210.04 
L 477.171482 210.04 
" style="fill: none; stroke: #262626; stroke-width: 0.8; stroke-linejoin: miter; stroke-linecap: square"/>
   </g>
   <g id="patch_11">
    <path d="M 311.140863 14.76 
L 477.171482 14.76 
" style="fill: none; stroke: #262626; stroke-width: 0.8; stroke-linejoin: miter; stroke-linecap: square"/>
   </g>
  </g>
  <g id="axes_3">
   <g id="patch_12">
    <path d="M 573.661725 210.04 
L 781.2 210.04 
L 781.2 14.76 
L 573.661725 14.76 
z
" style="fill: #ffffff"/>
   </g>
   <g id="matplotlib.axis_5">
    <g id="xtick_11">
     <g id="line2d_28">
      <g>
       <use xlink:href="#m2febe14ebb" x="583.492199" y="210.04" style="fill: #262626; stroke: #262626; stroke-width: 0.8"/>
      </g>
     </g>
     <g id="text_30">
      <!-- −50 -->
      <g style="fill: #262626" transform="translate(575.010949 224.197812) scale(0.1 -0.1)">
       <defs>
        <path id="ArialMT-2212" d="M 3381 1997 
L 356 1997 
L 356 2522 
L 3381 2522 
L 3381 1997 
z
" transform="scale(0.015625)"/>
       </defs>
       <use xlink:href="#ArialMT-2212"/>
       <use xlink:href="#ArialMT-35" x="58.398438"/>
       <use xlink:href="#ArialMT-30" x="114.013672"/>
      </g>
     </g>
    </g>
    <g id="xtick_12">
     <g id="line2d_29">
      <g>
       <use xlink:href="#m2febe14ebb" x="625.912688" y="210.04" style="fill: #262626; stroke: #262626; stroke-width: 0.8"/>
      </g>
     </g>
     <g id="text_31">
      <!-- −25 -->
      <g style="fill: #262626" transform="translate(617.431438 224.197812) scale(0.1 -0.1)">
       <use xlink:href="#ArialMT-2212"/>
       <use xlink:href="#ArialMT-32" x="58.398438"/>
       <use xlink:href="#ArialMT-35" x="114.013672"/>
      </g>
     </g>
    </g>
    <g id="xtick_13">
     <g id="line2d_30">
      <g>
       <use xlink:href="#m2febe14ebb" x="668.333177" y="210.04" style="fill: #262626; stroke: #262626; stroke-width: 0.8"/>
      </g>
     </g>
     <g id="text_32">
      <!-- 0 -->
      <g style="fill: #262626" transform="translate(665.552709 224.197812) scale(0.1 -0.1)">
       <use xlink:href="#ArialMT-30"/>
      </g>
     </g>
    </g>
    <g id="xtick_14">
     <g id="line2d_31">
      <g>
       <use xlink:href="#m2febe14ebb" x="710.753667" y="210.04" style="fill: #262626; stroke: #262626; stroke-width: 0.8"/>
      </g>
     </g>
     <g id="text_33">
      <!-- 25 -->
      <g style="fill: #262626" transform="translate(705.192729 224.197812) scale(0.1 -0.1)">
       <use xlink:href="#ArialMT-32"/>
       <use xlink:href="#ArialMT-35" x="55.615234"/>
      </g>
     </g>
    </g>
    <g id="xtick_15">
     <g id="line2d_32">
      <g>
       <use xlink:href="#m2febe14ebb" x="753.174156" y="210.04" style="fill: #262626; stroke: #262626; stroke-width: 0.8"/>
      </g>
     </g>
     <g id="text_34">
      <!-- 50 -->
      <g style="fill: #262626" transform="translate(747.613218 224.197812) scale(0.1 -0.1)">
       <use xlink:href="#ArialMT-35"/>
       <use xlink:href="#ArialMT-30" x="55.615234"/>
      </g>
     </g>
    </g>
    <g id="text_35">
     <!-- residual -->
     <g style="fill: #262626" transform="translate(659.922269 237.343125) scale(0.1 -0.1)">
      <use xlink:href="#ArialMT-72"/>
      <use xlink:href="#ArialMT-65" x="33.300781"/>
      <use xlink:href="#ArialMT-73" x="88.916016"/>
      <use xlink:href="#ArialMT-69" x="138.916016"/>
      <use xlink:href="#ArialMT-64" x="161.132812"/>
      <use xlink:href="#ArialMT-75" x="216.748047"/>
      <use xlink:href="#ArialMT-61" x="272.363281"/>
      <use xlink:href="#ArialMT-6c" x="327.978516"/>
     </g>
    </g>
   </g>
   <g id="matplotlib.axis_6">
    <g id="ytick_14">
     <g id="line2d_33">
      <g>
       <use xlink:href="#m5d730cbd0c" x="573.661725" y="210.04" style="fill: #262626; stroke: #262626; stroke-width: 0.8"/>
      </g>
     </g>
     <g id="text_36">
      <!-- 0.00 -->
      <g style="fill: #262626" transform="translate(547.200788 213.618906) scale(0.1 -0.1)">
       <defs>
        <path id="ArialMT-2e" d="M 581 0 
L 581 641 
L 1222 641 
L 1222 0 
L 581 0 
z
" transform="scale(0.015625)"/>
       </defs>
       <use xlink:href="#ArialMT-30"/>
       <use xlink:href="#ArialMT-2e" x="55.615234"/>
       <use xlink:href="#ArialMT-30" x="83.398438"/>
       <use xlink:href="#ArialMT-30" x="139.013672"/>
      </g>
     </g>
    </g>
    <g id="ytick_15">
     <g id="line2d_34">
      <g>
       <use xlink:href="#m5d730cbd0c" x="573.661725" y="167.875294" style="fill: #262626; stroke: #262626; stroke-width: 0.8"/>
      </g>
     </g>
     <g id="text_37">
      <!-- 0.01 -->
      <g style="fill: #262626" transform="translate(547.200788 171.4542) scale(0.1 -0.1)">
       <use xlink:href="#ArialMT-30"/>
       <use xlink:href="#ArialMT-2e" x="55.615234"/>
       <use xlink:href="#ArialMT-30" x="83.398438"/>
       <use xlink:href="#ArialMT-31" x="139.013672"/>
      </g>
     </g>
    </g>
    <g id="ytick_16">
     <g id="line2d_35">
      <g>
       <use xlink:href="#m5d730cbd0c" x="573.661725" y="125.710587" style="fill: #262626; stroke: #262626; stroke-width: 0.8"/>
      </g>
     </g>
     <g id="text_38">
      <!-- 0.02 -->
      <g style="fill: #262626" transform="translate(547.200788 129.289493) scale(0.1 -0.1)">
       <use xlink:href="#ArialMT-30"/>
       <use xlink:href="#ArialMT-2e" x="55.615234"/>
       <use xlink:href="#ArialMT-30" x="83.398438"/>
       <use xlink:href="#ArialMT-32" x="139.013672"/>
      </g>
     </g>
    </g>
    <g id="ytick_17">
     <g id="line2d_36">
      <g>
       <use xlink:href="#m5d730cbd0c" x="573.661725" y="83.545881" style="fill: #262626; stroke: #262626; stroke-width: 0.8"/>
      </g>
     </g>
     <g id="text_39">
      <!-- 0.03 -->
      <g style="fill: #262626" transform="translate(547.200788 87.124787) scale(0.1 -0.1)">
       <use xlink:href="#ArialMT-30"/>
       <use xlink:href="#ArialMT-2e" x="55.615234"/>
       <use xlink:href="#ArialMT-30" x="83.398438"/>
       <use xlink:href="#ArialMT-33" x="139.013672"/>
      </g>
     </g>
    </g>
    <g id="ytick_18">
     <g id="line2d_37">
      <g>
       <use xlink:href="#m5d730cbd0c" x="573.661725" y="41.381174" style="fill: #262626; stroke: #262626; stroke-width: 0.8"/>
      </g>
     </g>
     <g id="text_40">
      <!-- 0.04 -->
      <g style="fill: #262626" transform="translate(547.200788 44.960081) scale(0.1 -0.1)">
       <use xlink:href="#ArialMT-30"/>
       <use xlink:href="#ArialMT-2e" x="55.615234"/>
       <use xlink:href="#ArialMT-30" x="83.398438"/>
       <use xlink:href="#ArialMT-34" x="139.013672"/>
      </g>
     </g>
    </g>
    <g id="text_41">
     <!-- Density -->
     <g style="fill: #262626" transform="translate(541.0961 129.071875) rotate(-90) scale(0.1 -0.1)">
      <defs>
       <path id="ArialMT-44" d="M 494 0 
L 494 4581 
L 2072 4581 
Q 2606 4581 2888 4516 
Q 3281 4425 3559 4188 
Q 3922 3881 4101 3404 
Q 4281 2928 4281 2316 
Q 4281 1794 4159 1391 
Q 4038 988 3847 723 
Q 3656 459 3429 307 
Q 3203 156 2883 78 
Q 2563 0 2147 0 
L 494 0 
z
M 1100 541 
L 2078 541 
Q 2531 541 2789 625 
Q 3047 709 3200 863 
Q 3416 1078 3536 1442 
Q 3656 1806 3656 2325 
Q 3656 3044 3420 3430 
Q 3184 3816 2847 3947 
Q 2603 4041 2063 4041 
L 1100 4041 
L 1100 541 
z
" transform="scale(0.015625)"/>
      </defs>
      <use xlink:href="#ArialMT-44"/>
      <use xlink:href="#ArialMT-65" x="72.216797"/>
      <use xlink:href="#ArialMT-6e" x="127.832031"/>
      <use xlink:href="#ArialMT-73" x="183.447266"/>
      <use xlink:href="#ArialMT-69" x="233.447266"/>
      <use xlink:href="#ArialMT-74" x="255.664062"/>
      <use xlink:href="#ArialMT-79" x="283.447266"/>
     </g>
    </g>
   </g>
   <g id="patch_13">
    <path d="M 616.003795 210.04 
L 627.172353 210.04 
L 627.172353 179.043175 
L 616.003795 179.043175 
z
" clip-path="url(#pe0f7213c2b)" style="fill: #702963; fill-opacity: 0.5; stroke: #ffffff; stroke-width: 0.971509; stroke-linejoin: miter"/>
   </g>
   <g id="patch_14">
    <path d="M 627.172353 210.04 
L 638.340911 210.04 
L 638.340911 189.37545 
L 627.172353 189.37545 
z
" clip-path="url(#pe0f7213c2b)" style="fill: #702963; fill-opacity: 0.5; stroke: #ffffff; stroke-width: 0.971509; stroke-linejoin: miter"/>
   </g>
   <g id="patch_15">
    <path d="M 638.340911 210.04 
L 649.509468 210.04 
L 649.509468 137.714074 
L 638.340911 137.714074 
z
" clip-path="url(#pe0f7213c2b)" style="fill: #702963; fill-opacity: 0.5; stroke: #ffffff; stroke-width: 0.971509; stroke-linejoin: miter"/>
   </g>
   <g id="patch_16">
    <path d="M 649.509468 210.04 
L 660.678026 210.04 
L 660.678026 96.384974 
L 649.509468 96.384974 
z
" clip-path="url(#pe0f7213c2b)" style="fill: #702963; fill-opacity: 0.5; stroke: #ffffff; stroke-width: 0.971509; stroke-linejoin: miter"/>
   </g>
   <g id="patch_17">
    <path d="M 660.678026 210.04 
L 671.846584 210.04 
L 671.846584 24.059048 
L 660.678026 24.059048 
z
" clip-path="url(#pe0f7213c2b)" style="fill: #702963; fill-opacity: 0.5; stroke: #ffffff; stroke-width: 0.971509; stroke-linejoin: miter"/>
   </g>
   <g id="patch_18">
    <path d="M 671.846584 210.04 
L 683.015142 210.04 
L 683.015142 127.381799 
L 671.846584 127.381799 
z
" clip-path="url(#pe0f7213c2b)" style="fill: #702963; fill-opacity: 0.5; stroke: #ffffff; stroke-width: 0.971509; stroke-linejoin: miter"/>
   </g>
   <g id="patch_19">
    <path d="M 683.015142 210.04 
L 694.183699 210.04 
L 694.183699 158.378624 
L 683.015142 158.378624 
z
" clip-path="url(#pe0f7213c2b)" style="fill: #702963; fill-opacity: 0.5; stroke: #ffffff; stroke-width: 0.971509; stroke-linejoin: miter"/>
   </g>
   <g id="patch_20">
    <path d="M 694.183699 210.04 
L 705.352257 210.04 
L 705.352257 179.043175 
L 694.183699 179.043175 
z
" clip-path="url(#pe0f7213c2b)" style="fill: #702963; fill-opacity: 0.5; stroke: #ffffff; stroke-width: 0.971509; stroke-linejoin: miter"/>
   </g>
   <g id="patch_21">
    <path d="M 705.352257 210.04 
L 716.520815 210.04 
L 716.520815 210.04 
L 705.352257 210.04 
z
" clip-path="url(#pe0f7213c2b)" style="fill: #702963; fill-opacity: 0.5; stroke: #ffffff; stroke-width: 0.971509; stroke-linejoin: miter"/>
   </g>
   <g id="patch_22">
    <path d="M 716.520815 210.04 
L 727.689373 210.04 
L 727.689373 179.043175 
L 716.520815 179.043175 
z
" clip-path="url(#pe0f7213c2b)" style="fill: #702963; fill-opacity: 0.5; stroke: #ffffff; stroke-width: 0.971509; stroke-linejoin: miter"/>
   </g>
   <g id="patch_23">
    <path d="M 727.689373 210.04 
L 738.85793 210.04 
L 738.85793 189.37545 
L 727.689373 189.37545 
z
" clip-path="url(#pe0f7213c2b)" style="fill: #702963; fill-opacity: 0.5; stroke: #ffffff; stroke-width: 0.971509; stroke-linejoin: miter"/>
   </g>
   <g id="line2d_38">
    <path d="M 583.095283 209.965608 
L 587.835765 209.774002 
L 591.62815 209.390745 
L 594.472439 208.861946 
L 597.316728 208.03176 
L 599.21292 207.270928 
L 601.109113 206.324256 
L 603.005305 205.186147 
L 605.849594 203.143021 
L 608.693883 200.788692 
L 615.330557 195.075526 
L 618.174846 192.927413 
L 625.759616 187.517055 
L 627.655808 185.64504 
L 629.552001 183.248276 
L 631.448193 180.168131 
L 633.344386 176.277904 
L 635.240579 171.50138 
L 637.136771 165.826181 
L 639.032964 159.309527 
L 640.929156 152.075105 
L 643.773445 140.278094 
L 650.410119 112.170726 
L 653.254408 101.462719 
L 655.1506 95.117161 
L 657.046793 89.515895 
L 658.942985 84.747234 
L 660.839178 80.909435 
L 661.787274 79.374983 
L 662.73537 78.117853 
L 663.683467 77.154739 
L 664.631563 76.502523 
L 665.579659 76.177662 
L 666.527756 76.195461 
L 667.475852 76.569292 
L 668.423948 77.309785 
L 669.372044 78.424059 
L 670.320141 79.915021 
L 671.268237 81.780791 
L 672.216333 84.014276 
L 673.16443 86.602936 
L 675.060622 92.768351 
L 676.956815 100.071458 
L 678.853007 108.237865 
L 682.645392 125.87215 
L 686.437777 143.134214 
L 688.33397 150.989066 
L 690.230162 158.115422 
L 692.126355 164.442427 
L 694.022548 169.960046 
L 695.91874 174.704371 
L 697.814933 178.740194 
L 699.711125 182.143856 
L 701.607318 184.988995 
L 703.50351 187.337055 
L 705.399703 189.23346 
L 707.295895 190.709276 
L 709.192088 191.787194 
L 711.08828 192.489916 
L 712.984473 192.848684 
L 714.880666 192.909835 
L 716.776858 192.737808 
L 720.569243 192.031087 
L 723.413532 191.555746 
L 725.309725 191.431357 
L 727.205917 191.539333 
L 729.10211 191.919627 
L 730.998302 192.585094 
L 732.894495 193.522522 
L 734.790687 194.696523 
L 737.634976 196.785227 
L 746.167843 203.491079 
L 749.012131 205.318069 
L 751.85642 206.796364 
L 754.700709 207.921205 
L 757.544998 208.726576 
L 760.389287 209.268947 
L 764.181672 209.692932 
L 768.922153 209.929568 
L 771.766442 209.98878 
L 771.766442 209.98878 
" clip-path="url(#pe0f7213c2b)" style="fill: none; stroke: #702963; stroke-width: 1.5; stroke-linecap: round"/>
   </g>
   <g id="patch_24">
    <path d="M 573.661725 210.04 
L 573.661725 14.76 
" style="fill: none; stroke: #262626; stroke-width: 0.8; stroke-linejoin: miter; stroke-linecap: square"/>
   </g>
   <g id="patch_25">
    <path d="M 781.2 210.04 
L 781.2 14.76 
" style="fill: none; stroke: #262626; stroke-width: 0.8; stroke-linejoin: miter; stroke-linecap: square"/>
   </g>
   <g id="patch_26">
    <path d="M 573.661725 210.04 
L 781.2 210.04 
" style="fill: none; stroke: #262626; stroke-width: 0.8; stroke-linejoin: miter; stroke-linecap: square"/>
   </g>
   <g id="patch_27">
    <path d="M 573.661725 14.76 
L 781.2 14.76 
" style="fill: none; stroke: #262626; stroke-width: 0.8; stroke-linejoin: miter; stroke-linecap: square"/>
   </g>
  </g>
  <g id="axes_4">
   <g id="patch_28">
    <path d="M 487.548396 210.04 
L 497.312396 210.04 
L 497.312396 14.76 
L 487.548396 14.76 
z
" style="fill: #ffffff"/>
   </g>
   <g id="matplotlib.axis_7"/>
   <g id="matplotlib.axis_8">
    <g id="ytick_19">
     <g id="line2d_39">
      <defs>
       <path id="mfb58c4c933" d="M 0 0 
L 3.5 0 
" style="stroke: #262626; stroke-width: 0.8"/>
      </defs>
      <g>
       <use xlink:href="#mfb58c4c933" x="497.312396" y="210.04" style="fill: #262626; stroke: #262626; stroke-width: 0.8"/>
      </g>
     </g>
     <g id="text_42">
      <!-- 0.0 -->
      <g style="fill: #262626" transform="translate(504.312396 213.618906) scale(0.1 -0.1)">
       <use xlink:href="#ArialMT-30"/>
       <use xlink:href="#ArialMT-2e" x="55.615234"/>
       <use xlink:href="#ArialMT-30" x="83.398438"/>
      </g>
     </g>
    </g>
    <g id="ytick_20">
     <g id="line2d_40">
      <g>
       <use xlink:href="#mfb58c4c933" x="497.312396" y="170.984" style="fill: #262626; stroke: #262626; stroke-width: 0.8"/>
      </g>
     </g>
     <g id="text_43">
      <!-- 0.2 -->
      <g style="fill: #262626" transform="translate(504.312396 174.562906) scale(0.1 -0.1)">
       <use xlink:href="#ArialMT-30"/>
       <use xlink:href="#ArialMT-2e" x="55.615234"/>
       <use xlink:href="#ArialMT-32" x="83.398438"/>
      </g>
     </g>
    </g>
    <g id="ytick_21">
     <g id="line2d_41">
      <g>
       <use xlink:href="#mfb58c4c933" x="497.312396" y="131.928" style="fill: #262626; stroke: #262626; stroke-width: 0.8"/>
      </g>
     </g>
     <g id="text_44">
      <!-- 0.4 -->
      <g style="fill: #262626" transform="translate(504.312396 135.506906) scale(0.1 -0.1)">
       <use xlink:href="#ArialMT-30"/>
       <use xlink:href="#ArialMT-2e" x="55.615234"/>
       <use xlink:href="#ArialMT-34" x="83.398438"/>
      </g>
     </g>
    </g>
    <g id="ytick_22">
     <g id="line2d_42">
      <g>
       <use xlink:href="#mfb58c4c933" x="497.312396" y="92.872" style="fill: #262626; stroke: #262626; stroke-width: 0.8"/>
      </g>
     </g>
     <g id="text_45">
      <!-- 0.6 -->
      <g style="fill: #262626" transform="translate(504.312396 96.450906) scale(0.1 -0.1)">
       <use xlink:href="#ArialMT-30"/>
       <use xlink:href="#ArialMT-2e" x="55.615234"/>
       <use xlink:href="#ArialMT-36" x="83.398438"/>
      </g>
     </g>
    </g>
    <g id="ytick_23">
     <g id="line2d_43">
      <g>
       <use xlink:href="#mfb58c4c933" x="497.312396" y="53.816" style="fill: #262626; stroke: #262626; stroke-width: 0.8"/>
      </g>
     </g>
     <g id="text_46">
      <!-- 0.8 -->
      <g style="fill: #262626" transform="translate(504.312396 57.394906) scale(0.1 -0.1)">
       <use xlink:href="#ArialMT-30"/>
       <use xlink:href="#ArialMT-2e" x="55.615234"/>
       <use xlink:href="#ArialMT-38" x="83.398438"/>
      </g>
     </g>
    </g>
    <g id="ytick_24">
     <g id="line2d_44">
      <g>
       <use xlink:href="#mfb58c4c933" x="497.312396" y="14.76" style="fill: #262626; stroke: #262626; stroke-width: 0.8"/>
      </g>
     </g>
     <g id="text_47">
      <!-- 1.0 -->
      <g style="fill: #262626" transform="translate(504.312396 18.338906) scale(0.1 -0.1)">
       <use xlink:href="#ArialMT-31"/>
       <use xlink:href="#ArialMT-2e" x="55.615234"/>
       <use xlink:href="#ArialMT-30" x="83.398438"/>
      </g>
     </g>
    </g>
   </g>
   <g id="QuadMesh_1">
    <path d="M 487.548396 210.04 
L 497.312396 210.04 
L 497.312396 190.512 
L 487.548396 190.512 
L 487.548396 210.04 
" clip-path="url(#p758f836b29)" style="fill: #130d25"/>
    <path d="M 487.548396 190.512 
L 497.312396 190.512 
L 497.312396 170.984 
L 487.548396 170.984 
L 487.548396 190.512 
" clip-path="url(#p758f836b29)" style="fill: #381a40"/>
    <path d="M 487.548396 170.984 
L 497.312396 170.984 
L 497.312396 151.456 
L 487.548396 151.456 
L 487.548396 170.984 
" clip-path="url(#p758f836b29)" style="fill: #611f53"/>
    <path d="M 487.548396 151.456 
L 497.312396 151.456 
L 497.312396 131.928 
L 487.548396 131.928 
L 487.548396 151.456 
" clip-path="url(#p758f836b29)" style="fill: #8b1d5b"/>
    <path d="M 487.548396 131.928 
L 497.312396 131.928 
L 497.312396 112.4 
L 487.548396 112.4 
L 487.548396 131.928 
" clip-path="url(#p758f836b29)" style="fill: #b71657"/>
    <path d="M 487.548396 112.4 
L 497.312396 112.4 
L 497.312396 92.872 
L 487.548396 92.872 
L 487.548396 112.4 
" clip-path="url(#p758f836b29)" style="fill: #db2946"/>
    <path d="M 487.548396 92.872 
L 497.312396 92.872 
L 497.312396 73.344 
L 487.548396 73.344 
L 487.548396 92.872 
" clip-path="url(#p758f836b29)" style="fill: #ef5840"/>
    <path d="M 487.548396 73.344 
L 497.312396 73.344 
L 497.312396 53.816 
L 487.548396 53.816 
L 487.548396 73.344 
" clip-path="url(#p758f836b29)" style="fill: #f58860"/>
    <path d="M 487.548396 53.816 
L 497.312396 53.816 
L 497.312396 34.288 
L 487.548396 34.288 
L 487.548396 53.816 
" clip-path="url(#p758f836b29)" style="fill: #f6b18b"/>
    <path d="M 487.548396 34.288 
L 497.312396 34.288 
L 497.312396 14.76 
L 487.548396 14.76 
L 487.548396 34.288 
" clip-path="url(#p758f836b29)" style="fill: #f8d9c3"/>
   </g>
   <g id="LineCollection_1"/>
   <g id="patch_29">
    <path d="M 487.548396 210.04 
L 492.430396 210.04 
L 497.312396 210.04 
L 497.312396 14.76 
L 492.430396 14.76 
L 487.548396 14.76 
L 487.548396 210.04 
z
" style="fill: none; stroke: #262626; stroke-width: 0.8; stroke-linejoin: miter; stroke-linecap: square"/>
   </g>
  </g>
 </g>
 <defs>
  <clipPath id="pf8e9ea01cb">
   <rect x="48.62" y="14.76" width="207.538275" height="195.28"/>
  </clipPath>
  <clipPath id="pbc5df28e9d">
   <rect x="311.140863" y="14.76" width="166.03062" height="195.28"/>
  </clipPath>
  <clipPath id="pe0f7213c2b">
   <rect x="573.661725" y="14.76" width="207.538275" height="195.28"/>
  </clipPath>
  <clipPath id="p758f836b29">
   <rect x="487.548396" y="14.76" width="9.764" height="195.28"/>
  </clipPath>
 </defs>
</svg>
